M48
; DRILL file {KiCad 6.0.0-rc1-unknown-bb2e402~84~ubuntu18.04.1} date Mon 28 Oct 2019 03:28:55 PM EDT
; FORMAT={-:-/ absolute / metric / decimal}
; #@! TF.CreationDate,2019-10-28T15:28:55-04:00
; #@! TF.GenerationSoftware,Kicad,Pcbnew,6.0.0-rc1-unknown-bb2e402~84~ubuntu18.04.1
; #@! TF.FileFunction,Plated,1,2,PTH
FMAT,2
METRIC
T1C0.200
T2C0.300
T3C0.450
T4C0.700
T5C1.000
%
G90
G05
T1
X193.459Y-104.107
X194.166Y-103.4
X194.166Y-104.814
X194.873Y-102.692
X194.873Y-104.107
X194.873Y-105.521
X195.58Y-103.4
X195.58Y-104.814
X196.287Y-104.107
T2
X191.46Y-98.81
X191.91Y-96.62
X192.44Y-98.84
X193.39Y-94.39
X193.4Y-93.5
X193.92Y-91.83
X195.06Y-99.91
X195.1Y-95.27
X195.6Y-108.77
X197.206Y-97.243
X197.632Y-110.22
X197.94Y-101.66
X198.34Y-107.0
X198.63Y-99.22
X199.379Y-107.071
X199.84Y-99.17
X199.84Y-105.71
X200.54Y-109.241
X200.6Y-95.57
X202.323Y-107.535
X202.38Y-104.65
X202.83Y-100.14
X202.95Y-97.26
X203.465Y-105.59
X203.465Y-106.44
X203.708Y-108.966
X204.24Y-90.67
X204.315Y-105.59
X204.315Y-106.44
X205.05Y-103.68
X205.34Y-107.85
X205.738Y-97.771
X205.91Y-102.52
X206.34Y-106.415
X207.39Y-94.08
X208.33Y-95.78
X208.84Y-105.36
X190.41Y-96.595
X190.41Y-102.945
T3
X196.325Y-97.2
X203.875Y-97.2
T4
X196.105Y-96.1
X196.105Y-98.3
X204.095Y-96.1
X204.095Y-98.3
T5
X206.8Y-98.78
X206.8Y-101.32
X209.34Y-98.78
X209.34Y-101.32
T0
M30
