G04 #@! TF.GenerationSoftware,KiCad,Pcbnew,6.0.0-rc1-unknown-bb2e402~84~ubuntu18.04.1*
G04 #@! TF.CreationDate,2019-10-28T15:28:56-04:00
G04 #@! TF.ProjectId,apd,6170642e-6b69-4636-9164-5f7063625858,rev?*
G04 #@! TF.SameCoordinates,Original*
G04 #@! TF.FileFunction,Profile,NP*
%FSLAX46Y46*%
G04 Gerber Fmt 4.6, Leading zero omitted, Abs format (unit mm)*
G04 Created by KiCad (PCBNEW 6.0.0-rc1-unknown-bb2e402~84~ubuntu18.04.1) date Mon 28 Oct 2019 03:28:56 PM EDT*
%MOMM*%
%LPD*%
G04 APERTURE LIST*
%ADD10C,0.050000*%
%ADD11C,0.100000*%
G04 APERTURE END LIST*
D10*
X203000000Y-89400002D02*
G75*
G02X197000001Y-89400001I-3000000J-10599998D01*
G01*
X197000000Y-92000000D02*
X197000000Y-89400000D01*
X203000000Y-92000000D02*
X203000000Y-89400000D01*
X203000000Y-92000000D02*
G75*
G02X197000000Y-92000000I-3000000J0D01*
G01*
D11*
X195857520Y-98547480D02*
X195645380Y-98335350D01*
X195645384Y-98335353D02*
G75*
G02X195680740Y-97875737I247486J212130D01*
G01*
X195680737Y-97875734D02*
G75*
G02X196140350Y-97840381I247483J-212130D01*
G01*
X196140350Y-97840381D02*
X196352480Y-98052516D01*
X196352480Y-98052516D02*
X196564620Y-98264650D01*
X196564620Y-98264660D02*
G75*
G02X196529260Y-98724260I-247480J-212120D01*
G01*
X196529270Y-98724260D02*
G75*
G02X196069650Y-98759620I-247490J212130D01*
G01*
X196069650Y-98759620D02*
X195857520Y-98547480D01*
X203847520Y-96347484D02*
X203635380Y-96135350D01*
X203635380Y-96135340D02*
G75*
G02X203670740Y-95675740I247480J212120D01*
G01*
X203670730Y-95675740D02*
G75*
G02X204130350Y-95640380I247490J-212130D01*
G01*
X204130350Y-95640380D02*
X204342480Y-95852520D01*
X204342480Y-95852520D02*
X204554620Y-96064650D01*
X204554616Y-96064647D02*
G75*
G02X204519260Y-96524263I-247486J-212130D01*
G01*
X204519263Y-96524266D02*
G75*
G02X204059650Y-96559619I-247483J212130D01*
G01*
X204059650Y-96559619D02*
X203847520Y-96347484D01*
X195857520Y-95852520D02*
X196069650Y-95640380D01*
X196069650Y-95640390D02*
G75*
G02X196529260Y-95675740I212130J-247480D01*
G01*
X196529270Y-95675740D02*
G75*
G02X196564620Y-96135350I-212130J-247480D01*
G01*
X196564620Y-96135350D02*
X196352480Y-96347484D01*
X196352480Y-96347484D02*
X196140350Y-96559619D01*
X196140347Y-96559616D02*
G75*
G02X195680740Y-96524263I-212127J247480D01*
G01*
X195680743Y-96524267D02*
G75*
G02X195645380Y-96064650I212127J247490D01*
G01*
X195645380Y-96064650D02*
X195857520Y-95852520D01*
X204342480Y-98547480D02*
X204130350Y-98759620D01*
X204130350Y-98759610D02*
G75*
G02X203670740Y-98724260I-212130J247480D01*
G01*
X203670730Y-98724260D02*
G75*
G02X203635380Y-98264650I212130J247480D01*
G01*
X203635380Y-98264650D02*
X203847520Y-98052516D01*
X203847520Y-98052516D02*
X204059650Y-97840381D01*
X204059653Y-97840384D02*
G75*
G02X204519260Y-97875737I212127J-247480D01*
G01*
X204519257Y-97875733D02*
G75*
G02X204554620Y-98335350I-212127J-247490D01*
G01*
X204554620Y-98335350D02*
X204342480Y-98547480D01*
X203550000Y-97200000D02*
G75*
G02X203775000Y-96975000I225000J0D01*
G01*
X203775000Y-96975000D02*
X203975000Y-96975000D01*
X203975000Y-96975000D02*
G75*
G02X204200000Y-97200000I0J-225000D01*
G01*
X204200000Y-97200000D02*
G75*
G02X203975000Y-97425000I-225000J0D01*
G01*
X203975000Y-97425000D02*
X203775000Y-97425000D01*
X203775000Y-97425000D02*
G75*
G02X203550000Y-97200000I0J225000D01*
G01*
X196000000Y-97200000D02*
G75*
G02X196225000Y-96975000I225000J0D01*
G01*
X196225000Y-96975000D02*
X196425000Y-96975000D01*
X196425000Y-96975000D02*
G75*
G02X196650000Y-97200000I0J-225000D01*
G01*
X196650000Y-97200000D02*
G75*
G02X196425000Y-97425000I-225000J0D01*
G01*
X196425000Y-97425000D02*
X196225000Y-97425000D01*
X196225000Y-97425000D02*
G75*
G02X196000000Y-97200000I0J225000D01*
G01*
M02*
