G04 #@! TF.GenerationSoftware,KiCad,Pcbnew,6.0.0-rc1-unknown-bb2e402~84~ubuntu18.04.1*
G04 #@! TF.CreationDate,2019-10-28T15:28:56-04:00
G04 #@! TF.ProjectId,apd,6170642e-6b69-4636-9164-5f7063625858,rev?*
G04 #@! TF.SameCoordinates,Original*
G04 #@! TF.FileFunction,Soldermask,Top*
G04 #@! TF.FilePolarity,Negative*
%FSLAX46Y46*%
G04 Gerber Fmt 4.6, Leading zero omitted, Abs format (unit mm)*
G04 Created by KiCad (PCBNEW 6.0.0-rc1-unknown-bb2e402~84~ubuntu18.04.1) date Mon 28 Oct 2019 03:28:56 PM EDT*
%MOMM*%
%LPD*%
G04 APERTURE LIST*
%ADD10O,1.700000X1.700000*%
%ADD11R,1.700000X1.700000*%
%ADD12C,0.100000*%
%ADD13C,0.590000*%
%ADD14C,1.000000*%
%ADD15R,0.300000X0.750000*%
%ADD16C,0.700000*%
%ADD17C,0.700000*%
%ADD18R,0.700000X0.700000*%
%ADD19C,0.704800*%
%ADD20C,0.420000*%
%ADD21C,3.200000*%
%ADD22C,0.400000*%
%ADD23R,0.850000X0.300000*%
%ADD24R,0.300000X0.850000*%
%ADD25R,1.550000X1.550000*%
%ADD26R,0.800000X1.600000*%
%ADD27R,0.762000X0.254000*%
%ADD28C,1.250000*%
%ADD29R,0.729800X0.248400*%
G04 APERTURE END LIST*
D10*
X209340000Y-101320000D03*
X206800000Y-101320000D03*
X209340000Y-98780000D03*
D11*
X206800000Y-98780000D03*
D12*
G36*
X199106958Y-105035710D02*
G01*
X199121276Y-105037834D01*
X199135317Y-105041351D01*
X199148946Y-105046228D01*
X199162031Y-105052417D01*
X199174447Y-105059858D01*
X199186073Y-105068481D01*
X199196798Y-105078202D01*
X199206519Y-105088927D01*
X199215142Y-105100553D01*
X199222583Y-105112969D01*
X199228772Y-105126054D01*
X199233649Y-105139683D01*
X199237166Y-105153724D01*
X199239290Y-105168042D01*
X199240000Y-105182500D01*
X199240000Y-105477500D01*
X199239290Y-105491958D01*
X199237166Y-105506276D01*
X199233649Y-105520317D01*
X199228772Y-105533946D01*
X199222583Y-105547031D01*
X199215142Y-105559447D01*
X199206519Y-105571073D01*
X199196798Y-105581798D01*
X199186073Y-105591519D01*
X199174447Y-105600142D01*
X199162031Y-105607583D01*
X199148946Y-105613772D01*
X199135317Y-105618649D01*
X199121276Y-105622166D01*
X199106958Y-105624290D01*
X199092500Y-105625000D01*
X198747500Y-105625000D01*
X198733042Y-105624290D01*
X198718724Y-105622166D01*
X198704683Y-105618649D01*
X198691054Y-105613772D01*
X198677969Y-105607583D01*
X198665553Y-105600142D01*
X198653927Y-105591519D01*
X198643202Y-105581798D01*
X198633481Y-105571073D01*
X198624858Y-105559447D01*
X198617417Y-105547031D01*
X198611228Y-105533946D01*
X198606351Y-105520317D01*
X198602834Y-105506276D01*
X198600710Y-105491958D01*
X198600000Y-105477500D01*
X198600000Y-105182500D01*
X198600710Y-105168042D01*
X198602834Y-105153724D01*
X198606351Y-105139683D01*
X198611228Y-105126054D01*
X198617417Y-105112969D01*
X198624858Y-105100553D01*
X198633481Y-105088927D01*
X198643202Y-105078202D01*
X198653927Y-105068481D01*
X198665553Y-105059858D01*
X198677969Y-105052417D01*
X198691054Y-105046228D01*
X198704683Y-105041351D01*
X198718724Y-105037834D01*
X198733042Y-105035710D01*
X198747500Y-105035000D01*
X199092500Y-105035000D01*
X199106958Y-105035710D01*
X199106958Y-105035710D01*
G37*
D13*
X198920000Y-105330000D03*
D12*
G36*
X199106958Y-106005710D02*
G01*
X199121276Y-106007834D01*
X199135317Y-106011351D01*
X199148946Y-106016228D01*
X199162031Y-106022417D01*
X199174447Y-106029858D01*
X199186073Y-106038481D01*
X199196798Y-106048202D01*
X199206519Y-106058927D01*
X199215142Y-106070553D01*
X199222583Y-106082969D01*
X199228772Y-106096054D01*
X199233649Y-106109683D01*
X199237166Y-106123724D01*
X199239290Y-106138042D01*
X199240000Y-106152500D01*
X199240000Y-106447500D01*
X199239290Y-106461958D01*
X199237166Y-106476276D01*
X199233649Y-106490317D01*
X199228772Y-106503946D01*
X199222583Y-106517031D01*
X199215142Y-106529447D01*
X199206519Y-106541073D01*
X199196798Y-106551798D01*
X199186073Y-106561519D01*
X199174447Y-106570142D01*
X199162031Y-106577583D01*
X199148946Y-106583772D01*
X199135317Y-106588649D01*
X199121276Y-106592166D01*
X199106958Y-106594290D01*
X199092500Y-106595000D01*
X198747500Y-106595000D01*
X198733042Y-106594290D01*
X198718724Y-106592166D01*
X198704683Y-106588649D01*
X198691054Y-106583772D01*
X198677969Y-106577583D01*
X198665553Y-106570142D01*
X198653927Y-106561519D01*
X198643202Y-106551798D01*
X198633481Y-106541073D01*
X198624858Y-106529447D01*
X198617417Y-106517031D01*
X198611228Y-106503946D01*
X198606351Y-106490317D01*
X198602834Y-106476276D01*
X198600710Y-106461958D01*
X198600000Y-106447500D01*
X198600000Y-106152500D01*
X198600710Y-106138042D01*
X198602834Y-106123724D01*
X198606351Y-106109683D01*
X198611228Y-106096054D01*
X198617417Y-106082969D01*
X198624858Y-106070553D01*
X198633481Y-106058927D01*
X198643202Y-106048202D01*
X198653927Y-106038481D01*
X198665553Y-106029858D01*
X198677969Y-106022417D01*
X198691054Y-106016228D01*
X198704683Y-106011351D01*
X198718724Y-106007834D01*
X198733042Y-106005710D01*
X198747500Y-106005000D01*
X199092500Y-106005000D01*
X199106958Y-106005710D01*
X199106958Y-106005710D01*
G37*
D13*
X198920000Y-106300000D03*
D12*
G36*
X195226958Y-91440710D02*
G01*
X195241276Y-91442834D01*
X195255317Y-91446351D01*
X195268946Y-91451228D01*
X195282031Y-91457417D01*
X195294447Y-91464858D01*
X195306073Y-91473481D01*
X195316798Y-91483202D01*
X195326519Y-91493927D01*
X195335142Y-91505553D01*
X195342583Y-91517969D01*
X195348772Y-91531054D01*
X195353649Y-91544683D01*
X195357166Y-91558724D01*
X195359290Y-91573042D01*
X195360000Y-91587500D01*
X195360000Y-91932500D01*
X195359290Y-91946958D01*
X195357166Y-91961276D01*
X195353649Y-91975317D01*
X195348772Y-91988946D01*
X195342583Y-92002031D01*
X195335142Y-92014447D01*
X195326519Y-92026073D01*
X195316798Y-92036798D01*
X195306073Y-92046519D01*
X195294447Y-92055142D01*
X195282031Y-92062583D01*
X195268946Y-92068772D01*
X195255317Y-92073649D01*
X195241276Y-92077166D01*
X195226958Y-92079290D01*
X195212500Y-92080000D01*
X194917500Y-92080000D01*
X194903042Y-92079290D01*
X194888724Y-92077166D01*
X194874683Y-92073649D01*
X194861054Y-92068772D01*
X194847969Y-92062583D01*
X194835553Y-92055142D01*
X194823927Y-92046519D01*
X194813202Y-92036798D01*
X194803481Y-92026073D01*
X194794858Y-92014447D01*
X194787417Y-92002031D01*
X194781228Y-91988946D01*
X194776351Y-91975317D01*
X194772834Y-91961276D01*
X194770710Y-91946958D01*
X194770000Y-91932500D01*
X194770000Y-91587500D01*
X194770710Y-91573042D01*
X194772834Y-91558724D01*
X194776351Y-91544683D01*
X194781228Y-91531054D01*
X194787417Y-91517969D01*
X194794858Y-91505553D01*
X194803481Y-91493927D01*
X194813202Y-91483202D01*
X194823927Y-91473481D01*
X194835553Y-91464858D01*
X194847969Y-91457417D01*
X194861054Y-91451228D01*
X194874683Y-91446351D01*
X194888724Y-91442834D01*
X194903042Y-91440710D01*
X194917500Y-91440000D01*
X195212500Y-91440000D01*
X195226958Y-91440710D01*
X195226958Y-91440710D01*
G37*
D13*
X195065000Y-91760000D03*
D12*
G36*
X196196958Y-91440710D02*
G01*
X196211276Y-91442834D01*
X196225317Y-91446351D01*
X196238946Y-91451228D01*
X196252031Y-91457417D01*
X196264447Y-91464858D01*
X196276073Y-91473481D01*
X196286798Y-91483202D01*
X196296519Y-91493927D01*
X196305142Y-91505553D01*
X196312583Y-91517969D01*
X196318772Y-91531054D01*
X196323649Y-91544683D01*
X196327166Y-91558724D01*
X196329290Y-91573042D01*
X196330000Y-91587500D01*
X196330000Y-91932500D01*
X196329290Y-91946958D01*
X196327166Y-91961276D01*
X196323649Y-91975317D01*
X196318772Y-91988946D01*
X196312583Y-92002031D01*
X196305142Y-92014447D01*
X196296519Y-92026073D01*
X196286798Y-92036798D01*
X196276073Y-92046519D01*
X196264447Y-92055142D01*
X196252031Y-92062583D01*
X196238946Y-92068772D01*
X196225317Y-92073649D01*
X196211276Y-92077166D01*
X196196958Y-92079290D01*
X196182500Y-92080000D01*
X195887500Y-92080000D01*
X195873042Y-92079290D01*
X195858724Y-92077166D01*
X195844683Y-92073649D01*
X195831054Y-92068772D01*
X195817969Y-92062583D01*
X195805553Y-92055142D01*
X195793927Y-92046519D01*
X195783202Y-92036798D01*
X195773481Y-92026073D01*
X195764858Y-92014447D01*
X195757417Y-92002031D01*
X195751228Y-91988946D01*
X195746351Y-91975317D01*
X195742834Y-91961276D01*
X195740710Y-91946958D01*
X195740000Y-91932500D01*
X195740000Y-91587500D01*
X195740710Y-91573042D01*
X195742834Y-91558724D01*
X195746351Y-91544683D01*
X195751228Y-91531054D01*
X195757417Y-91517969D01*
X195764858Y-91505553D01*
X195773481Y-91493927D01*
X195783202Y-91483202D01*
X195793927Y-91473481D01*
X195805553Y-91464858D01*
X195817969Y-91457417D01*
X195831054Y-91451228D01*
X195844683Y-91446351D01*
X195858724Y-91442834D01*
X195873042Y-91440710D01*
X195887500Y-91440000D01*
X196182500Y-91440000D01*
X196196958Y-91440710D01*
X196196958Y-91440710D01*
G37*
D13*
X196035000Y-91760000D03*
D12*
G36*
X198131958Y-100420710D02*
G01*
X198146276Y-100422834D01*
X198160317Y-100426351D01*
X198173946Y-100431228D01*
X198187031Y-100437417D01*
X198199447Y-100444858D01*
X198211073Y-100453481D01*
X198221798Y-100463202D01*
X198231519Y-100473927D01*
X198240142Y-100485553D01*
X198247583Y-100497969D01*
X198253772Y-100511054D01*
X198258649Y-100524683D01*
X198262166Y-100538724D01*
X198264290Y-100553042D01*
X198265000Y-100567500D01*
X198265000Y-100912500D01*
X198264290Y-100926958D01*
X198262166Y-100941276D01*
X198258649Y-100955317D01*
X198253772Y-100968946D01*
X198247583Y-100982031D01*
X198240142Y-100994447D01*
X198231519Y-101006073D01*
X198221798Y-101016798D01*
X198211073Y-101026519D01*
X198199447Y-101035142D01*
X198187031Y-101042583D01*
X198173946Y-101048772D01*
X198160317Y-101053649D01*
X198146276Y-101057166D01*
X198131958Y-101059290D01*
X198117500Y-101060000D01*
X197822500Y-101060000D01*
X197808042Y-101059290D01*
X197793724Y-101057166D01*
X197779683Y-101053649D01*
X197766054Y-101048772D01*
X197752969Y-101042583D01*
X197740553Y-101035142D01*
X197728927Y-101026519D01*
X197718202Y-101016798D01*
X197708481Y-101006073D01*
X197699858Y-100994447D01*
X197692417Y-100982031D01*
X197686228Y-100968946D01*
X197681351Y-100955317D01*
X197677834Y-100941276D01*
X197675710Y-100926958D01*
X197675000Y-100912500D01*
X197675000Y-100567500D01*
X197675710Y-100553042D01*
X197677834Y-100538724D01*
X197681351Y-100524683D01*
X197686228Y-100511054D01*
X197692417Y-100497969D01*
X197699858Y-100485553D01*
X197708481Y-100473927D01*
X197718202Y-100463202D01*
X197728927Y-100453481D01*
X197740553Y-100444858D01*
X197752969Y-100437417D01*
X197766054Y-100431228D01*
X197779683Y-100426351D01*
X197793724Y-100422834D01*
X197808042Y-100420710D01*
X197822500Y-100420000D01*
X198117500Y-100420000D01*
X198131958Y-100420710D01*
X198131958Y-100420710D01*
G37*
D13*
X197970000Y-100740000D03*
D12*
G36*
X199101958Y-100420710D02*
G01*
X199116276Y-100422834D01*
X199130317Y-100426351D01*
X199143946Y-100431228D01*
X199157031Y-100437417D01*
X199169447Y-100444858D01*
X199181073Y-100453481D01*
X199191798Y-100463202D01*
X199201519Y-100473927D01*
X199210142Y-100485553D01*
X199217583Y-100497969D01*
X199223772Y-100511054D01*
X199228649Y-100524683D01*
X199232166Y-100538724D01*
X199234290Y-100553042D01*
X199235000Y-100567500D01*
X199235000Y-100912500D01*
X199234290Y-100926958D01*
X199232166Y-100941276D01*
X199228649Y-100955317D01*
X199223772Y-100968946D01*
X199217583Y-100982031D01*
X199210142Y-100994447D01*
X199201519Y-101006073D01*
X199191798Y-101016798D01*
X199181073Y-101026519D01*
X199169447Y-101035142D01*
X199157031Y-101042583D01*
X199143946Y-101048772D01*
X199130317Y-101053649D01*
X199116276Y-101057166D01*
X199101958Y-101059290D01*
X199087500Y-101060000D01*
X198792500Y-101060000D01*
X198778042Y-101059290D01*
X198763724Y-101057166D01*
X198749683Y-101053649D01*
X198736054Y-101048772D01*
X198722969Y-101042583D01*
X198710553Y-101035142D01*
X198698927Y-101026519D01*
X198688202Y-101016798D01*
X198678481Y-101006073D01*
X198669858Y-100994447D01*
X198662417Y-100982031D01*
X198656228Y-100968946D01*
X198651351Y-100955317D01*
X198647834Y-100941276D01*
X198645710Y-100926958D01*
X198645000Y-100912500D01*
X198645000Y-100567500D01*
X198645710Y-100553042D01*
X198647834Y-100538724D01*
X198651351Y-100524683D01*
X198656228Y-100511054D01*
X198662417Y-100497969D01*
X198669858Y-100485553D01*
X198678481Y-100473927D01*
X198688202Y-100463202D01*
X198698927Y-100453481D01*
X198710553Y-100444858D01*
X198722969Y-100437417D01*
X198736054Y-100431228D01*
X198749683Y-100426351D01*
X198763724Y-100422834D01*
X198778042Y-100420710D01*
X198792500Y-100420000D01*
X199087500Y-100420000D01*
X199101958Y-100420710D01*
X199101958Y-100420710D01*
G37*
D13*
X198940000Y-100740000D03*
D12*
G36*
X197796958Y-107376710D02*
G01*
X197811276Y-107378834D01*
X197825317Y-107382351D01*
X197838946Y-107387228D01*
X197852031Y-107393417D01*
X197864447Y-107400858D01*
X197876073Y-107409481D01*
X197886798Y-107419202D01*
X197896519Y-107429927D01*
X197905142Y-107441553D01*
X197912583Y-107453969D01*
X197918772Y-107467054D01*
X197923649Y-107480683D01*
X197927166Y-107494724D01*
X197929290Y-107509042D01*
X197930000Y-107523500D01*
X197930000Y-107868500D01*
X197929290Y-107882958D01*
X197927166Y-107897276D01*
X197923649Y-107911317D01*
X197918772Y-107924946D01*
X197912583Y-107938031D01*
X197905142Y-107950447D01*
X197896519Y-107962073D01*
X197886798Y-107972798D01*
X197876073Y-107982519D01*
X197864447Y-107991142D01*
X197852031Y-107998583D01*
X197838946Y-108004772D01*
X197825317Y-108009649D01*
X197811276Y-108013166D01*
X197796958Y-108015290D01*
X197782500Y-108016000D01*
X197487500Y-108016000D01*
X197473042Y-108015290D01*
X197458724Y-108013166D01*
X197444683Y-108009649D01*
X197431054Y-108004772D01*
X197417969Y-107998583D01*
X197405553Y-107991142D01*
X197393927Y-107982519D01*
X197383202Y-107972798D01*
X197373481Y-107962073D01*
X197364858Y-107950447D01*
X197357417Y-107938031D01*
X197351228Y-107924946D01*
X197346351Y-107911317D01*
X197342834Y-107897276D01*
X197340710Y-107882958D01*
X197340000Y-107868500D01*
X197340000Y-107523500D01*
X197340710Y-107509042D01*
X197342834Y-107494724D01*
X197346351Y-107480683D01*
X197351228Y-107467054D01*
X197357417Y-107453969D01*
X197364858Y-107441553D01*
X197373481Y-107429927D01*
X197383202Y-107419202D01*
X197393927Y-107409481D01*
X197405553Y-107400858D01*
X197417969Y-107393417D01*
X197431054Y-107387228D01*
X197444683Y-107382351D01*
X197458724Y-107378834D01*
X197473042Y-107376710D01*
X197487500Y-107376000D01*
X197782500Y-107376000D01*
X197796958Y-107376710D01*
X197796958Y-107376710D01*
G37*
D13*
X197635000Y-107696000D03*
D12*
G36*
X198766958Y-107376710D02*
G01*
X198781276Y-107378834D01*
X198795317Y-107382351D01*
X198808946Y-107387228D01*
X198822031Y-107393417D01*
X198834447Y-107400858D01*
X198846073Y-107409481D01*
X198856798Y-107419202D01*
X198866519Y-107429927D01*
X198875142Y-107441553D01*
X198882583Y-107453969D01*
X198888772Y-107467054D01*
X198893649Y-107480683D01*
X198897166Y-107494724D01*
X198899290Y-107509042D01*
X198900000Y-107523500D01*
X198900000Y-107868500D01*
X198899290Y-107882958D01*
X198897166Y-107897276D01*
X198893649Y-107911317D01*
X198888772Y-107924946D01*
X198882583Y-107938031D01*
X198875142Y-107950447D01*
X198866519Y-107962073D01*
X198856798Y-107972798D01*
X198846073Y-107982519D01*
X198834447Y-107991142D01*
X198822031Y-107998583D01*
X198808946Y-108004772D01*
X198795317Y-108009649D01*
X198781276Y-108013166D01*
X198766958Y-108015290D01*
X198752500Y-108016000D01*
X198457500Y-108016000D01*
X198443042Y-108015290D01*
X198428724Y-108013166D01*
X198414683Y-108009649D01*
X198401054Y-108004772D01*
X198387969Y-107998583D01*
X198375553Y-107991142D01*
X198363927Y-107982519D01*
X198353202Y-107972798D01*
X198343481Y-107962073D01*
X198334858Y-107950447D01*
X198327417Y-107938031D01*
X198321228Y-107924946D01*
X198316351Y-107911317D01*
X198312834Y-107897276D01*
X198310710Y-107882958D01*
X198310000Y-107868500D01*
X198310000Y-107523500D01*
X198310710Y-107509042D01*
X198312834Y-107494724D01*
X198316351Y-107480683D01*
X198321228Y-107467054D01*
X198327417Y-107453969D01*
X198334858Y-107441553D01*
X198343481Y-107429927D01*
X198353202Y-107419202D01*
X198363927Y-107409481D01*
X198375553Y-107400858D01*
X198387969Y-107393417D01*
X198401054Y-107387228D01*
X198414683Y-107382351D01*
X198428724Y-107378834D01*
X198443042Y-107376710D01*
X198457500Y-107376000D01*
X198752500Y-107376000D01*
X198766958Y-107376710D01*
X198766958Y-107376710D01*
G37*
D13*
X198605000Y-107696000D03*
D12*
G36*
X209496958Y-103080710D02*
G01*
X209511276Y-103082834D01*
X209525317Y-103086351D01*
X209538946Y-103091228D01*
X209552031Y-103097417D01*
X209564447Y-103104858D01*
X209576073Y-103113481D01*
X209586798Y-103123202D01*
X209596519Y-103133927D01*
X209605142Y-103145553D01*
X209612583Y-103157969D01*
X209618772Y-103171054D01*
X209623649Y-103184683D01*
X209627166Y-103198724D01*
X209629290Y-103213042D01*
X209630000Y-103227500D01*
X209630000Y-103522500D01*
X209629290Y-103536958D01*
X209627166Y-103551276D01*
X209623649Y-103565317D01*
X209618772Y-103578946D01*
X209612583Y-103592031D01*
X209605142Y-103604447D01*
X209596519Y-103616073D01*
X209586798Y-103626798D01*
X209576073Y-103636519D01*
X209564447Y-103645142D01*
X209552031Y-103652583D01*
X209538946Y-103658772D01*
X209525317Y-103663649D01*
X209511276Y-103667166D01*
X209496958Y-103669290D01*
X209482500Y-103670000D01*
X209137500Y-103670000D01*
X209123042Y-103669290D01*
X209108724Y-103667166D01*
X209094683Y-103663649D01*
X209081054Y-103658772D01*
X209067969Y-103652583D01*
X209055553Y-103645142D01*
X209043927Y-103636519D01*
X209033202Y-103626798D01*
X209023481Y-103616073D01*
X209014858Y-103604447D01*
X209007417Y-103592031D01*
X209001228Y-103578946D01*
X208996351Y-103565317D01*
X208992834Y-103551276D01*
X208990710Y-103536958D01*
X208990000Y-103522500D01*
X208990000Y-103227500D01*
X208990710Y-103213042D01*
X208992834Y-103198724D01*
X208996351Y-103184683D01*
X209001228Y-103171054D01*
X209007417Y-103157969D01*
X209014858Y-103145553D01*
X209023481Y-103133927D01*
X209033202Y-103123202D01*
X209043927Y-103113481D01*
X209055553Y-103104858D01*
X209067969Y-103097417D01*
X209081054Y-103091228D01*
X209094683Y-103086351D01*
X209108724Y-103082834D01*
X209123042Y-103080710D01*
X209137500Y-103080000D01*
X209482500Y-103080000D01*
X209496958Y-103080710D01*
X209496958Y-103080710D01*
G37*
D13*
X209310000Y-103375000D03*
D12*
G36*
X209496958Y-104050710D02*
G01*
X209511276Y-104052834D01*
X209525317Y-104056351D01*
X209538946Y-104061228D01*
X209552031Y-104067417D01*
X209564447Y-104074858D01*
X209576073Y-104083481D01*
X209586798Y-104093202D01*
X209596519Y-104103927D01*
X209605142Y-104115553D01*
X209612583Y-104127969D01*
X209618772Y-104141054D01*
X209623649Y-104154683D01*
X209627166Y-104168724D01*
X209629290Y-104183042D01*
X209630000Y-104197500D01*
X209630000Y-104492500D01*
X209629290Y-104506958D01*
X209627166Y-104521276D01*
X209623649Y-104535317D01*
X209618772Y-104548946D01*
X209612583Y-104562031D01*
X209605142Y-104574447D01*
X209596519Y-104586073D01*
X209586798Y-104596798D01*
X209576073Y-104606519D01*
X209564447Y-104615142D01*
X209552031Y-104622583D01*
X209538946Y-104628772D01*
X209525317Y-104633649D01*
X209511276Y-104637166D01*
X209496958Y-104639290D01*
X209482500Y-104640000D01*
X209137500Y-104640000D01*
X209123042Y-104639290D01*
X209108724Y-104637166D01*
X209094683Y-104633649D01*
X209081054Y-104628772D01*
X209067969Y-104622583D01*
X209055553Y-104615142D01*
X209043927Y-104606519D01*
X209033202Y-104596798D01*
X209023481Y-104586073D01*
X209014858Y-104574447D01*
X209007417Y-104562031D01*
X209001228Y-104548946D01*
X208996351Y-104535317D01*
X208992834Y-104521276D01*
X208990710Y-104506958D01*
X208990000Y-104492500D01*
X208990000Y-104197500D01*
X208990710Y-104183042D01*
X208992834Y-104168724D01*
X208996351Y-104154683D01*
X209001228Y-104141054D01*
X209007417Y-104127969D01*
X209014858Y-104115553D01*
X209023481Y-104103927D01*
X209033202Y-104093202D01*
X209043927Y-104083481D01*
X209055553Y-104074858D01*
X209067969Y-104067417D01*
X209081054Y-104061228D01*
X209094683Y-104056351D01*
X209108724Y-104052834D01*
X209123042Y-104050710D01*
X209137500Y-104050000D01*
X209482500Y-104050000D01*
X209496958Y-104050710D01*
X209496958Y-104050710D01*
G37*
D13*
X209310000Y-104345000D03*
D12*
G36*
X208396958Y-104050710D02*
G01*
X208411276Y-104052834D01*
X208425317Y-104056351D01*
X208438946Y-104061228D01*
X208452031Y-104067417D01*
X208464447Y-104074858D01*
X208476073Y-104083481D01*
X208486798Y-104093202D01*
X208496519Y-104103927D01*
X208505142Y-104115553D01*
X208512583Y-104127969D01*
X208518772Y-104141054D01*
X208523649Y-104154683D01*
X208527166Y-104168724D01*
X208529290Y-104183042D01*
X208530000Y-104197500D01*
X208530000Y-104492500D01*
X208529290Y-104506958D01*
X208527166Y-104521276D01*
X208523649Y-104535317D01*
X208518772Y-104548946D01*
X208512583Y-104562031D01*
X208505142Y-104574447D01*
X208496519Y-104586073D01*
X208486798Y-104596798D01*
X208476073Y-104606519D01*
X208464447Y-104615142D01*
X208452031Y-104622583D01*
X208438946Y-104628772D01*
X208425317Y-104633649D01*
X208411276Y-104637166D01*
X208396958Y-104639290D01*
X208382500Y-104640000D01*
X208037500Y-104640000D01*
X208023042Y-104639290D01*
X208008724Y-104637166D01*
X207994683Y-104633649D01*
X207981054Y-104628772D01*
X207967969Y-104622583D01*
X207955553Y-104615142D01*
X207943927Y-104606519D01*
X207933202Y-104596798D01*
X207923481Y-104586073D01*
X207914858Y-104574447D01*
X207907417Y-104562031D01*
X207901228Y-104548946D01*
X207896351Y-104535317D01*
X207892834Y-104521276D01*
X207890710Y-104506958D01*
X207890000Y-104492500D01*
X207890000Y-104197500D01*
X207890710Y-104183042D01*
X207892834Y-104168724D01*
X207896351Y-104154683D01*
X207901228Y-104141054D01*
X207907417Y-104127969D01*
X207914858Y-104115553D01*
X207923481Y-104103927D01*
X207933202Y-104093202D01*
X207943927Y-104083481D01*
X207955553Y-104074858D01*
X207967969Y-104067417D01*
X207981054Y-104061228D01*
X207994683Y-104056351D01*
X208008724Y-104052834D01*
X208023042Y-104050710D01*
X208037500Y-104050000D01*
X208382500Y-104050000D01*
X208396958Y-104050710D01*
X208396958Y-104050710D01*
G37*
D13*
X208210000Y-104345000D03*
D12*
G36*
X208396958Y-103080710D02*
G01*
X208411276Y-103082834D01*
X208425317Y-103086351D01*
X208438946Y-103091228D01*
X208452031Y-103097417D01*
X208464447Y-103104858D01*
X208476073Y-103113481D01*
X208486798Y-103123202D01*
X208496519Y-103133927D01*
X208505142Y-103145553D01*
X208512583Y-103157969D01*
X208518772Y-103171054D01*
X208523649Y-103184683D01*
X208527166Y-103198724D01*
X208529290Y-103213042D01*
X208530000Y-103227500D01*
X208530000Y-103522500D01*
X208529290Y-103536958D01*
X208527166Y-103551276D01*
X208523649Y-103565317D01*
X208518772Y-103578946D01*
X208512583Y-103592031D01*
X208505142Y-103604447D01*
X208496519Y-103616073D01*
X208486798Y-103626798D01*
X208476073Y-103636519D01*
X208464447Y-103645142D01*
X208452031Y-103652583D01*
X208438946Y-103658772D01*
X208425317Y-103663649D01*
X208411276Y-103667166D01*
X208396958Y-103669290D01*
X208382500Y-103670000D01*
X208037500Y-103670000D01*
X208023042Y-103669290D01*
X208008724Y-103667166D01*
X207994683Y-103663649D01*
X207981054Y-103658772D01*
X207967969Y-103652583D01*
X207955553Y-103645142D01*
X207943927Y-103636519D01*
X207933202Y-103626798D01*
X207923481Y-103616073D01*
X207914858Y-103604447D01*
X207907417Y-103592031D01*
X207901228Y-103578946D01*
X207896351Y-103565317D01*
X207892834Y-103551276D01*
X207890710Y-103536958D01*
X207890000Y-103522500D01*
X207890000Y-103227500D01*
X207890710Y-103213042D01*
X207892834Y-103198724D01*
X207896351Y-103184683D01*
X207901228Y-103171054D01*
X207907417Y-103157969D01*
X207914858Y-103145553D01*
X207923481Y-103133927D01*
X207933202Y-103123202D01*
X207943927Y-103113481D01*
X207955553Y-103104858D01*
X207967969Y-103097417D01*
X207981054Y-103091228D01*
X207994683Y-103086351D01*
X208008724Y-103082834D01*
X208023042Y-103080710D01*
X208037500Y-103080000D01*
X208382500Y-103080000D01*
X208396958Y-103080710D01*
X208396958Y-103080710D01*
G37*
D13*
X208210000Y-103375000D03*
D12*
G36*
X207296958Y-104025710D02*
G01*
X207311276Y-104027834D01*
X207325317Y-104031351D01*
X207338946Y-104036228D01*
X207352031Y-104042417D01*
X207364447Y-104049858D01*
X207376073Y-104058481D01*
X207386798Y-104068202D01*
X207396519Y-104078927D01*
X207405142Y-104090553D01*
X207412583Y-104102969D01*
X207418772Y-104116054D01*
X207423649Y-104129683D01*
X207427166Y-104143724D01*
X207429290Y-104158042D01*
X207430000Y-104172500D01*
X207430000Y-104467500D01*
X207429290Y-104481958D01*
X207427166Y-104496276D01*
X207423649Y-104510317D01*
X207418772Y-104523946D01*
X207412583Y-104537031D01*
X207405142Y-104549447D01*
X207396519Y-104561073D01*
X207386798Y-104571798D01*
X207376073Y-104581519D01*
X207364447Y-104590142D01*
X207352031Y-104597583D01*
X207338946Y-104603772D01*
X207325317Y-104608649D01*
X207311276Y-104612166D01*
X207296958Y-104614290D01*
X207282500Y-104615000D01*
X206937500Y-104615000D01*
X206923042Y-104614290D01*
X206908724Y-104612166D01*
X206894683Y-104608649D01*
X206881054Y-104603772D01*
X206867969Y-104597583D01*
X206855553Y-104590142D01*
X206843927Y-104581519D01*
X206833202Y-104571798D01*
X206823481Y-104561073D01*
X206814858Y-104549447D01*
X206807417Y-104537031D01*
X206801228Y-104523946D01*
X206796351Y-104510317D01*
X206792834Y-104496276D01*
X206790710Y-104481958D01*
X206790000Y-104467500D01*
X206790000Y-104172500D01*
X206790710Y-104158042D01*
X206792834Y-104143724D01*
X206796351Y-104129683D01*
X206801228Y-104116054D01*
X206807417Y-104102969D01*
X206814858Y-104090553D01*
X206823481Y-104078927D01*
X206833202Y-104068202D01*
X206843927Y-104058481D01*
X206855553Y-104049858D01*
X206867969Y-104042417D01*
X206881054Y-104036228D01*
X206894683Y-104031351D01*
X206908724Y-104027834D01*
X206923042Y-104025710D01*
X206937500Y-104025000D01*
X207282500Y-104025000D01*
X207296958Y-104025710D01*
X207296958Y-104025710D01*
G37*
D13*
X207110000Y-104320000D03*
D12*
G36*
X207296958Y-103055710D02*
G01*
X207311276Y-103057834D01*
X207325317Y-103061351D01*
X207338946Y-103066228D01*
X207352031Y-103072417D01*
X207364447Y-103079858D01*
X207376073Y-103088481D01*
X207386798Y-103098202D01*
X207396519Y-103108927D01*
X207405142Y-103120553D01*
X207412583Y-103132969D01*
X207418772Y-103146054D01*
X207423649Y-103159683D01*
X207427166Y-103173724D01*
X207429290Y-103188042D01*
X207430000Y-103202500D01*
X207430000Y-103497500D01*
X207429290Y-103511958D01*
X207427166Y-103526276D01*
X207423649Y-103540317D01*
X207418772Y-103553946D01*
X207412583Y-103567031D01*
X207405142Y-103579447D01*
X207396519Y-103591073D01*
X207386798Y-103601798D01*
X207376073Y-103611519D01*
X207364447Y-103620142D01*
X207352031Y-103627583D01*
X207338946Y-103633772D01*
X207325317Y-103638649D01*
X207311276Y-103642166D01*
X207296958Y-103644290D01*
X207282500Y-103645000D01*
X206937500Y-103645000D01*
X206923042Y-103644290D01*
X206908724Y-103642166D01*
X206894683Y-103638649D01*
X206881054Y-103633772D01*
X206867969Y-103627583D01*
X206855553Y-103620142D01*
X206843927Y-103611519D01*
X206833202Y-103601798D01*
X206823481Y-103591073D01*
X206814858Y-103579447D01*
X206807417Y-103567031D01*
X206801228Y-103553946D01*
X206796351Y-103540317D01*
X206792834Y-103526276D01*
X206790710Y-103511958D01*
X206790000Y-103497500D01*
X206790000Y-103202500D01*
X206790710Y-103188042D01*
X206792834Y-103173724D01*
X206796351Y-103159683D01*
X206801228Y-103146054D01*
X206807417Y-103132969D01*
X206814858Y-103120553D01*
X206823481Y-103108927D01*
X206833202Y-103098202D01*
X206843927Y-103088481D01*
X206855553Y-103079858D01*
X206867969Y-103072417D01*
X206881054Y-103066228D01*
X206894683Y-103061351D01*
X206908724Y-103057834D01*
X206923042Y-103055710D01*
X206937500Y-103055000D01*
X207282500Y-103055000D01*
X207296958Y-103055710D01*
X207296958Y-103055710D01*
G37*
D13*
X207110000Y-103350000D03*
D12*
G36*
X205036958Y-102580710D02*
G01*
X205051276Y-102582834D01*
X205065317Y-102586351D01*
X205078946Y-102591228D01*
X205092031Y-102597417D01*
X205104447Y-102604858D01*
X205116073Y-102613481D01*
X205126798Y-102623202D01*
X205136519Y-102633927D01*
X205145142Y-102645553D01*
X205152583Y-102657969D01*
X205158772Y-102671054D01*
X205163649Y-102684683D01*
X205167166Y-102698724D01*
X205169290Y-102713042D01*
X205170000Y-102727500D01*
X205170000Y-103022500D01*
X205169290Y-103036958D01*
X205167166Y-103051276D01*
X205163649Y-103065317D01*
X205158772Y-103078946D01*
X205152583Y-103092031D01*
X205145142Y-103104447D01*
X205136519Y-103116073D01*
X205126798Y-103126798D01*
X205116073Y-103136519D01*
X205104447Y-103145142D01*
X205092031Y-103152583D01*
X205078946Y-103158772D01*
X205065317Y-103163649D01*
X205051276Y-103167166D01*
X205036958Y-103169290D01*
X205022500Y-103170000D01*
X204677500Y-103170000D01*
X204663042Y-103169290D01*
X204648724Y-103167166D01*
X204634683Y-103163649D01*
X204621054Y-103158772D01*
X204607969Y-103152583D01*
X204595553Y-103145142D01*
X204583927Y-103136519D01*
X204573202Y-103126798D01*
X204563481Y-103116073D01*
X204554858Y-103104447D01*
X204547417Y-103092031D01*
X204541228Y-103078946D01*
X204536351Y-103065317D01*
X204532834Y-103051276D01*
X204530710Y-103036958D01*
X204530000Y-103022500D01*
X204530000Y-102727500D01*
X204530710Y-102713042D01*
X204532834Y-102698724D01*
X204536351Y-102684683D01*
X204541228Y-102671054D01*
X204547417Y-102657969D01*
X204554858Y-102645553D01*
X204563481Y-102633927D01*
X204573202Y-102623202D01*
X204583927Y-102613481D01*
X204595553Y-102604858D01*
X204607969Y-102597417D01*
X204621054Y-102591228D01*
X204634683Y-102586351D01*
X204648724Y-102582834D01*
X204663042Y-102580710D01*
X204677500Y-102580000D01*
X205022500Y-102580000D01*
X205036958Y-102580710D01*
X205036958Y-102580710D01*
G37*
D13*
X204850000Y-102875000D03*
D12*
G36*
X205036958Y-101610710D02*
G01*
X205051276Y-101612834D01*
X205065317Y-101616351D01*
X205078946Y-101621228D01*
X205092031Y-101627417D01*
X205104447Y-101634858D01*
X205116073Y-101643481D01*
X205126798Y-101653202D01*
X205136519Y-101663927D01*
X205145142Y-101675553D01*
X205152583Y-101687969D01*
X205158772Y-101701054D01*
X205163649Y-101714683D01*
X205167166Y-101728724D01*
X205169290Y-101743042D01*
X205170000Y-101757500D01*
X205170000Y-102052500D01*
X205169290Y-102066958D01*
X205167166Y-102081276D01*
X205163649Y-102095317D01*
X205158772Y-102108946D01*
X205152583Y-102122031D01*
X205145142Y-102134447D01*
X205136519Y-102146073D01*
X205126798Y-102156798D01*
X205116073Y-102166519D01*
X205104447Y-102175142D01*
X205092031Y-102182583D01*
X205078946Y-102188772D01*
X205065317Y-102193649D01*
X205051276Y-102197166D01*
X205036958Y-102199290D01*
X205022500Y-102200000D01*
X204677500Y-102200000D01*
X204663042Y-102199290D01*
X204648724Y-102197166D01*
X204634683Y-102193649D01*
X204621054Y-102188772D01*
X204607969Y-102182583D01*
X204595553Y-102175142D01*
X204583927Y-102166519D01*
X204573202Y-102156798D01*
X204563481Y-102146073D01*
X204554858Y-102134447D01*
X204547417Y-102122031D01*
X204541228Y-102108946D01*
X204536351Y-102095317D01*
X204532834Y-102081276D01*
X204530710Y-102066958D01*
X204530000Y-102052500D01*
X204530000Y-101757500D01*
X204530710Y-101743042D01*
X204532834Y-101728724D01*
X204536351Y-101714683D01*
X204541228Y-101701054D01*
X204547417Y-101687969D01*
X204554858Y-101675553D01*
X204563481Y-101663927D01*
X204573202Y-101653202D01*
X204583927Y-101643481D01*
X204595553Y-101634858D01*
X204607969Y-101627417D01*
X204621054Y-101621228D01*
X204634683Y-101616351D01*
X204648724Y-101612834D01*
X204663042Y-101610710D01*
X204677500Y-101610000D01*
X205022500Y-101610000D01*
X205036958Y-101610710D01*
X205036958Y-101610710D01*
G37*
D13*
X204850000Y-101905000D03*
D12*
G36*
X200306958Y-106790710D02*
G01*
X200321276Y-106792834D01*
X200335317Y-106796351D01*
X200348946Y-106801228D01*
X200362031Y-106807417D01*
X200374447Y-106814858D01*
X200386073Y-106823481D01*
X200396798Y-106833202D01*
X200406519Y-106843927D01*
X200415142Y-106855553D01*
X200422583Y-106867969D01*
X200428772Y-106881054D01*
X200433649Y-106894683D01*
X200437166Y-106908724D01*
X200439290Y-106923042D01*
X200440000Y-106937500D01*
X200440000Y-107282500D01*
X200439290Y-107296958D01*
X200437166Y-107311276D01*
X200433649Y-107325317D01*
X200428772Y-107338946D01*
X200422583Y-107352031D01*
X200415142Y-107364447D01*
X200406519Y-107376073D01*
X200396798Y-107386798D01*
X200386073Y-107396519D01*
X200374447Y-107405142D01*
X200362031Y-107412583D01*
X200348946Y-107418772D01*
X200335317Y-107423649D01*
X200321276Y-107427166D01*
X200306958Y-107429290D01*
X200292500Y-107430000D01*
X199997500Y-107430000D01*
X199983042Y-107429290D01*
X199968724Y-107427166D01*
X199954683Y-107423649D01*
X199941054Y-107418772D01*
X199927969Y-107412583D01*
X199915553Y-107405142D01*
X199903927Y-107396519D01*
X199893202Y-107386798D01*
X199883481Y-107376073D01*
X199874858Y-107364447D01*
X199867417Y-107352031D01*
X199861228Y-107338946D01*
X199856351Y-107325317D01*
X199852834Y-107311276D01*
X199850710Y-107296958D01*
X199850000Y-107282500D01*
X199850000Y-106937500D01*
X199850710Y-106923042D01*
X199852834Y-106908724D01*
X199856351Y-106894683D01*
X199861228Y-106881054D01*
X199867417Y-106867969D01*
X199874858Y-106855553D01*
X199883481Y-106843927D01*
X199893202Y-106833202D01*
X199903927Y-106823481D01*
X199915553Y-106814858D01*
X199927969Y-106807417D01*
X199941054Y-106801228D01*
X199954683Y-106796351D01*
X199968724Y-106792834D01*
X199983042Y-106790710D01*
X199997500Y-106790000D01*
X200292500Y-106790000D01*
X200306958Y-106790710D01*
X200306958Y-106790710D01*
G37*
D13*
X200145000Y-107110000D03*
D12*
G36*
X201276958Y-106790710D02*
G01*
X201291276Y-106792834D01*
X201305317Y-106796351D01*
X201318946Y-106801228D01*
X201332031Y-106807417D01*
X201344447Y-106814858D01*
X201356073Y-106823481D01*
X201366798Y-106833202D01*
X201376519Y-106843927D01*
X201385142Y-106855553D01*
X201392583Y-106867969D01*
X201398772Y-106881054D01*
X201403649Y-106894683D01*
X201407166Y-106908724D01*
X201409290Y-106923042D01*
X201410000Y-106937500D01*
X201410000Y-107282500D01*
X201409290Y-107296958D01*
X201407166Y-107311276D01*
X201403649Y-107325317D01*
X201398772Y-107338946D01*
X201392583Y-107352031D01*
X201385142Y-107364447D01*
X201376519Y-107376073D01*
X201366798Y-107386798D01*
X201356073Y-107396519D01*
X201344447Y-107405142D01*
X201332031Y-107412583D01*
X201318946Y-107418772D01*
X201305317Y-107423649D01*
X201291276Y-107427166D01*
X201276958Y-107429290D01*
X201262500Y-107430000D01*
X200967500Y-107430000D01*
X200953042Y-107429290D01*
X200938724Y-107427166D01*
X200924683Y-107423649D01*
X200911054Y-107418772D01*
X200897969Y-107412583D01*
X200885553Y-107405142D01*
X200873927Y-107396519D01*
X200863202Y-107386798D01*
X200853481Y-107376073D01*
X200844858Y-107364447D01*
X200837417Y-107352031D01*
X200831228Y-107338946D01*
X200826351Y-107325317D01*
X200822834Y-107311276D01*
X200820710Y-107296958D01*
X200820000Y-107282500D01*
X200820000Y-106937500D01*
X200820710Y-106923042D01*
X200822834Y-106908724D01*
X200826351Y-106894683D01*
X200831228Y-106881054D01*
X200837417Y-106867969D01*
X200844858Y-106855553D01*
X200853481Y-106843927D01*
X200863202Y-106833202D01*
X200873927Y-106823481D01*
X200885553Y-106814858D01*
X200897969Y-106807417D01*
X200911054Y-106801228D01*
X200924683Y-106796351D01*
X200938724Y-106792834D01*
X200953042Y-106790710D01*
X200967500Y-106790000D01*
X201262500Y-106790000D01*
X201276958Y-106790710D01*
X201276958Y-106790710D01*
G37*
D13*
X201115000Y-107110000D03*
D12*
G36*
X196782958Y-107424710D02*
G01*
X196797276Y-107426834D01*
X196811317Y-107430351D01*
X196824946Y-107435228D01*
X196838031Y-107441417D01*
X196850447Y-107448858D01*
X196862073Y-107457481D01*
X196872798Y-107467202D01*
X196882519Y-107477927D01*
X196891142Y-107489553D01*
X196898583Y-107501969D01*
X196904772Y-107515054D01*
X196909649Y-107528683D01*
X196913166Y-107542724D01*
X196915290Y-107557042D01*
X196916000Y-107571500D01*
X196916000Y-107866500D01*
X196915290Y-107880958D01*
X196913166Y-107895276D01*
X196909649Y-107909317D01*
X196904772Y-107922946D01*
X196898583Y-107936031D01*
X196891142Y-107948447D01*
X196882519Y-107960073D01*
X196872798Y-107970798D01*
X196862073Y-107980519D01*
X196850447Y-107989142D01*
X196838031Y-107996583D01*
X196824946Y-108002772D01*
X196811317Y-108007649D01*
X196797276Y-108011166D01*
X196782958Y-108013290D01*
X196768500Y-108014000D01*
X196423500Y-108014000D01*
X196409042Y-108013290D01*
X196394724Y-108011166D01*
X196380683Y-108007649D01*
X196367054Y-108002772D01*
X196353969Y-107996583D01*
X196341553Y-107989142D01*
X196329927Y-107980519D01*
X196319202Y-107970798D01*
X196309481Y-107960073D01*
X196300858Y-107948447D01*
X196293417Y-107936031D01*
X196287228Y-107922946D01*
X196282351Y-107909317D01*
X196278834Y-107895276D01*
X196276710Y-107880958D01*
X196276000Y-107866500D01*
X196276000Y-107571500D01*
X196276710Y-107557042D01*
X196278834Y-107542724D01*
X196282351Y-107528683D01*
X196287228Y-107515054D01*
X196293417Y-107501969D01*
X196300858Y-107489553D01*
X196309481Y-107477927D01*
X196319202Y-107467202D01*
X196329927Y-107457481D01*
X196341553Y-107448858D01*
X196353969Y-107441417D01*
X196367054Y-107435228D01*
X196380683Y-107430351D01*
X196394724Y-107426834D01*
X196409042Y-107424710D01*
X196423500Y-107424000D01*
X196768500Y-107424000D01*
X196782958Y-107424710D01*
X196782958Y-107424710D01*
G37*
D13*
X196596000Y-107719000D03*
D12*
G36*
X196782958Y-108394710D02*
G01*
X196797276Y-108396834D01*
X196811317Y-108400351D01*
X196824946Y-108405228D01*
X196838031Y-108411417D01*
X196850447Y-108418858D01*
X196862073Y-108427481D01*
X196872798Y-108437202D01*
X196882519Y-108447927D01*
X196891142Y-108459553D01*
X196898583Y-108471969D01*
X196904772Y-108485054D01*
X196909649Y-108498683D01*
X196913166Y-108512724D01*
X196915290Y-108527042D01*
X196916000Y-108541500D01*
X196916000Y-108836500D01*
X196915290Y-108850958D01*
X196913166Y-108865276D01*
X196909649Y-108879317D01*
X196904772Y-108892946D01*
X196898583Y-108906031D01*
X196891142Y-108918447D01*
X196882519Y-108930073D01*
X196872798Y-108940798D01*
X196862073Y-108950519D01*
X196850447Y-108959142D01*
X196838031Y-108966583D01*
X196824946Y-108972772D01*
X196811317Y-108977649D01*
X196797276Y-108981166D01*
X196782958Y-108983290D01*
X196768500Y-108984000D01*
X196423500Y-108984000D01*
X196409042Y-108983290D01*
X196394724Y-108981166D01*
X196380683Y-108977649D01*
X196367054Y-108972772D01*
X196353969Y-108966583D01*
X196341553Y-108959142D01*
X196329927Y-108950519D01*
X196319202Y-108940798D01*
X196309481Y-108930073D01*
X196300858Y-108918447D01*
X196293417Y-108906031D01*
X196287228Y-108892946D01*
X196282351Y-108879317D01*
X196278834Y-108865276D01*
X196276710Y-108850958D01*
X196276000Y-108836500D01*
X196276000Y-108541500D01*
X196276710Y-108527042D01*
X196278834Y-108512724D01*
X196282351Y-108498683D01*
X196287228Y-108485054D01*
X196293417Y-108471969D01*
X196300858Y-108459553D01*
X196309481Y-108447927D01*
X196319202Y-108437202D01*
X196329927Y-108427481D01*
X196341553Y-108418858D01*
X196353969Y-108411417D01*
X196367054Y-108405228D01*
X196380683Y-108400351D01*
X196394724Y-108396834D01*
X196409042Y-108394710D01*
X196423500Y-108394000D01*
X196768500Y-108394000D01*
X196782958Y-108394710D01*
X196782958Y-108394710D01*
G37*
D13*
X196596000Y-108689000D03*
D14*
X203875000Y-97200000D03*
D12*
G36*
X204000061Y-95324504D02*
G01*
X204027491Y-95327854D01*
X204027513Y-95327857D01*
X204070643Y-95335077D01*
X204070664Y-95335081D01*
X204113434Y-95344171D01*
X204113455Y-95344176D01*
X204155785Y-95355126D01*
X204155806Y-95355132D01*
X204197616Y-95367912D01*
X204197637Y-95367919D01*
X204238857Y-95382519D01*
X204238877Y-95382526D01*
X204279417Y-95398906D01*
X204279437Y-95398915D01*
X204319227Y-95417045D01*
X204319247Y-95417054D01*
X204358207Y-95436904D01*
X204358226Y-95436915D01*
X204396276Y-95458445D01*
X204396295Y-95458456D01*
X204433385Y-95481626D01*
X204433403Y-95481638D01*
X204469433Y-95506408D01*
X204469451Y-95506421D01*
X204504371Y-95532731D01*
X204504388Y-95532744D01*
X204538128Y-95560554D01*
X204538145Y-95560568D01*
X204570635Y-95589828D01*
X204570650Y-95589843D01*
X204601840Y-95620493D01*
X204601856Y-95620509D01*
X204631676Y-95652479D01*
X204631690Y-95652495D01*
X204660090Y-95685745D01*
X204660104Y-95685762D01*
X204687024Y-95720222D01*
X204687037Y-95720240D01*
X204712427Y-95755840D01*
X204712439Y-95755858D01*
X204736249Y-95792528D01*
X204736261Y-95792546D01*
X204758461Y-95830216D01*
X204758472Y-95830235D01*
X204778992Y-95868845D01*
X204779001Y-95868865D01*
X204797831Y-95908325D01*
X204797840Y-95908345D01*
X204814920Y-95948595D01*
X204814928Y-95948615D01*
X204830248Y-95989575D01*
X204830256Y-95989595D01*
X204843766Y-96031175D01*
X204843772Y-96031196D01*
X204855452Y-96073336D01*
X204855457Y-96073357D01*
X204865297Y-96115957D01*
X204865302Y-96115979D01*
X204873272Y-96158969D01*
X204873275Y-96158991D01*
X204875495Y-96174931D01*
X204875500Y-96175000D01*
X204875500Y-98225000D01*
X204875495Y-98225069D01*
X204873275Y-98240999D01*
X204873272Y-98241021D01*
X204865302Y-98284011D01*
X204865297Y-98284033D01*
X204855457Y-98326643D01*
X204855452Y-98326664D01*
X204843772Y-98368794D01*
X204843766Y-98368814D01*
X204830256Y-98410404D01*
X204830248Y-98410425D01*
X204814938Y-98451375D01*
X204814930Y-98451395D01*
X204797840Y-98491645D01*
X204797831Y-98491665D01*
X204779011Y-98531135D01*
X204779001Y-98531155D01*
X204758471Y-98569755D01*
X204758461Y-98569774D01*
X204736271Y-98607454D01*
X204736259Y-98607472D01*
X204712439Y-98644142D01*
X204712427Y-98644160D01*
X204687037Y-98679760D01*
X204687024Y-98679778D01*
X204660104Y-98714228D01*
X204660090Y-98714245D01*
X204631700Y-98747495D01*
X204631686Y-98747511D01*
X204601866Y-98779491D01*
X204601850Y-98779507D01*
X204570660Y-98810157D01*
X204570644Y-98810172D01*
X204538144Y-98839422D01*
X204538128Y-98839436D01*
X204504398Y-98867256D01*
X204504381Y-98867269D01*
X204469461Y-98893579D01*
X204469443Y-98893592D01*
X204433403Y-98918362D01*
X204433385Y-98918374D01*
X204396305Y-98941544D01*
X204396286Y-98941555D01*
X204358226Y-98963085D01*
X204358207Y-98963096D01*
X204319247Y-98982946D01*
X204319227Y-98982955D01*
X204279447Y-99001085D01*
X204279427Y-99001094D01*
X204238887Y-99017474D01*
X204238867Y-99017481D01*
X204197647Y-99032081D01*
X204197626Y-99032088D01*
X204155806Y-99044868D01*
X204155785Y-99044874D01*
X204113455Y-99055824D01*
X204113434Y-99055829D01*
X204070664Y-99064919D01*
X204070643Y-99064923D01*
X204027523Y-99072143D01*
X204027501Y-99072146D01*
X204000061Y-99075496D01*
X204000000Y-99075500D01*
X203325000Y-99075500D01*
X203324902Y-99075490D01*
X203324809Y-99075462D01*
X203324722Y-99075416D01*
X203324646Y-99075354D01*
X203324584Y-99075278D01*
X203324538Y-99075191D01*
X203324510Y-99075098D01*
X203324500Y-99075000D01*
X203324500Y-95325000D01*
X203324510Y-95324902D01*
X203324538Y-95324809D01*
X203324584Y-95324722D01*
X203324646Y-95324646D01*
X203324722Y-95324584D01*
X203324809Y-95324538D01*
X203324902Y-95324510D01*
X203325000Y-95324500D01*
X204000000Y-95324500D01*
X204000061Y-95324504D01*
X204000061Y-95324504D01*
G37*
D14*
X196325000Y-97200000D03*
D12*
G36*
X196875098Y-95324510D02*
G01*
X196875191Y-95324538D01*
X196875278Y-95324584D01*
X196875354Y-95324646D01*
X196875416Y-95324722D01*
X196875462Y-95324809D01*
X196875490Y-95324902D01*
X196875500Y-95325000D01*
X196875500Y-99075000D01*
X196875490Y-99075098D01*
X196875462Y-99075191D01*
X196875416Y-99075278D01*
X196875354Y-99075354D01*
X196875278Y-99075416D01*
X196875191Y-99075462D01*
X196875098Y-99075490D01*
X196875000Y-99075500D01*
X196200000Y-99075500D01*
X196199939Y-99075496D01*
X196172509Y-99072146D01*
X196172487Y-99072143D01*
X196129357Y-99064923D01*
X196129336Y-99064919D01*
X196086566Y-99055829D01*
X196086545Y-99055824D01*
X196044215Y-99044874D01*
X196044194Y-99044868D01*
X196002384Y-99032088D01*
X196002363Y-99032081D01*
X195961143Y-99017481D01*
X195961123Y-99017474D01*
X195920583Y-99001094D01*
X195920563Y-99001085D01*
X195880773Y-98982955D01*
X195880753Y-98982946D01*
X195841793Y-98963096D01*
X195841774Y-98963085D01*
X195803724Y-98941555D01*
X195803705Y-98941544D01*
X195766615Y-98918374D01*
X195766597Y-98918362D01*
X195730567Y-98893592D01*
X195730549Y-98893579D01*
X195695629Y-98867269D01*
X195695612Y-98867256D01*
X195661872Y-98839446D01*
X195661855Y-98839432D01*
X195629365Y-98810172D01*
X195629350Y-98810157D01*
X195598160Y-98779507D01*
X195598144Y-98779491D01*
X195568324Y-98747521D01*
X195568310Y-98747505D01*
X195539910Y-98714255D01*
X195539896Y-98714238D01*
X195512976Y-98679778D01*
X195512963Y-98679760D01*
X195487573Y-98644160D01*
X195487561Y-98644142D01*
X195463751Y-98607472D01*
X195463739Y-98607454D01*
X195441539Y-98569784D01*
X195441528Y-98569765D01*
X195421008Y-98531155D01*
X195420999Y-98531135D01*
X195402169Y-98491675D01*
X195402160Y-98491655D01*
X195385080Y-98451405D01*
X195385072Y-98451385D01*
X195369752Y-98410425D01*
X195369744Y-98410405D01*
X195356234Y-98368825D01*
X195356228Y-98368804D01*
X195344548Y-98326664D01*
X195344543Y-98326643D01*
X195334703Y-98284043D01*
X195334698Y-98284021D01*
X195326728Y-98241031D01*
X195326725Y-98241009D01*
X195324505Y-98225069D01*
X195324500Y-98225000D01*
X195324500Y-96175000D01*
X195324505Y-96174931D01*
X195326725Y-96159001D01*
X195326728Y-96158979D01*
X195334698Y-96115989D01*
X195334703Y-96115967D01*
X195344543Y-96073357D01*
X195344548Y-96073336D01*
X195356228Y-96031206D01*
X195356234Y-96031186D01*
X195369744Y-95989596D01*
X195369752Y-95989575D01*
X195385062Y-95948625D01*
X195385070Y-95948605D01*
X195402160Y-95908355D01*
X195402169Y-95908335D01*
X195420989Y-95868865D01*
X195420999Y-95868845D01*
X195441529Y-95830245D01*
X195441539Y-95830226D01*
X195463729Y-95792546D01*
X195463741Y-95792528D01*
X195487561Y-95755858D01*
X195487573Y-95755840D01*
X195512963Y-95720240D01*
X195512976Y-95720222D01*
X195539896Y-95685772D01*
X195539910Y-95685755D01*
X195568300Y-95652505D01*
X195568314Y-95652489D01*
X195598134Y-95620509D01*
X195598150Y-95620493D01*
X195629340Y-95589843D01*
X195629356Y-95589828D01*
X195661856Y-95560578D01*
X195661872Y-95560564D01*
X195695602Y-95532744D01*
X195695619Y-95532731D01*
X195730539Y-95506421D01*
X195730557Y-95506408D01*
X195766597Y-95481638D01*
X195766615Y-95481626D01*
X195803695Y-95458456D01*
X195803714Y-95458445D01*
X195841774Y-95436915D01*
X195841793Y-95436904D01*
X195880753Y-95417054D01*
X195880773Y-95417045D01*
X195920553Y-95398915D01*
X195920573Y-95398906D01*
X195961113Y-95382526D01*
X195961133Y-95382519D01*
X196002353Y-95367919D01*
X196002374Y-95367912D01*
X196044194Y-95355132D01*
X196044215Y-95355126D01*
X196086545Y-95344176D01*
X196086566Y-95344171D01*
X196129336Y-95335081D01*
X196129357Y-95335077D01*
X196172477Y-95327857D01*
X196172499Y-95327854D01*
X196199939Y-95324504D01*
X196200000Y-95324500D01*
X196875000Y-95324500D01*
X196875098Y-95324510D01*
X196875098Y-95324510D01*
G37*
D15*
X197475000Y-96445000D03*
X197975000Y-96445000D03*
X198475000Y-96445000D03*
X198975000Y-96445000D03*
X199475000Y-96445000D03*
X199975000Y-96445000D03*
X200475000Y-96445000D03*
X200975000Y-96445000D03*
X201475000Y-96445000D03*
X201975000Y-96445000D03*
X202475000Y-96445000D03*
X202975000Y-96445000D03*
X202725000Y-97955000D03*
X202225000Y-97955000D03*
X201725000Y-97955000D03*
X201225000Y-97955000D03*
X200725000Y-97955000D03*
X200225000Y-97955000D03*
X199725000Y-97955000D03*
X199225000Y-97955000D03*
X198725000Y-97955000D03*
X198225000Y-97955000D03*
X197725000Y-97955000D03*
X197225000Y-97955000D03*
D16*
X196105000Y-98300000D03*
D17*
X196352487Y-98547487D02*
X195857513Y-98052513D01*
D16*
X204095000Y-96100000D03*
D17*
X204342487Y-96347487D02*
X203847513Y-95852513D01*
D16*
X196105000Y-96100000D03*
D17*
X195857513Y-96347487D02*
X196352487Y-95852513D01*
D16*
X204095000Y-98300000D03*
D17*
X204342487Y-98052513D02*
X203847513Y-98547487D01*
D18*
X190410000Y-97865000D03*
X190410000Y-99135000D03*
X190410000Y-100405000D03*
D19*
X190410000Y-96595000D03*
D18*
X190410000Y-101675000D03*
D19*
X190410000Y-102945000D03*
D20*
X194360482Y-101119161D03*
D12*
G36*
X193861972Y-100917636D02*
G01*
X194158957Y-100620651D01*
X194858992Y-101320686D01*
X194562007Y-101617671D01*
X193861972Y-100917636D01*
X193861972Y-100917636D01*
G37*
D20*
X197860661Y-103594035D03*
D12*
G36*
X197362151Y-103795560D02*
G01*
X198062186Y-103095525D01*
X198359171Y-103392510D01*
X197659136Y-104092545D01*
X197362151Y-103795560D01*
X197362151Y-103795560D01*
G37*
D20*
X195385787Y-107094214D03*
D12*
G36*
X194887277Y-106892689D02*
G01*
X195184262Y-106595704D01*
X195884297Y-107295739D01*
X195587312Y-107592724D01*
X194887277Y-106892689D01*
X194887277Y-106892689D01*
G37*
D21*
X194873134Y-104106687D03*
D12*
G36*
X192610392Y-104106687D02*
G01*
X194873134Y-101843945D01*
X197135876Y-104106687D01*
X194873134Y-106369429D01*
X192610392Y-104106687D01*
X192610392Y-104106687D01*
G37*
D22*
X194873134Y-102692474D03*
X195580241Y-103399581D03*
X196287348Y-104106687D03*
X194166028Y-103399581D03*
X194873134Y-104106687D03*
X195580241Y-104813794D03*
X193458921Y-104106687D03*
X194166028Y-104813794D03*
X194873134Y-105520901D03*
D20*
X191885608Y-104619340D03*
D12*
G36*
X191387098Y-104820865D02*
G01*
X192087133Y-104120830D01*
X192384118Y-104417815D01*
X191684083Y-105117850D01*
X191387098Y-104820865D01*
X191387098Y-104820865D01*
G37*
D20*
X192239162Y-104972893D03*
D12*
G36*
X191740652Y-105174418D02*
G01*
X192440687Y-104474383D01*
X192737672Y-104771368D01*
X192037637Y-105471403D01*
X191740652Y-105174418D01*
X191740652Y-105174418D01*
G37*
D20*
X192592715Y-105326447D03*
D12*
G36*
X192094205Y-105527972D02*
G01*
X192794240Y-104827937D01*
X193091225Y-105124922D01*
X192391190Y-105824957D01*
X192094205Y-105527972D01*
X192094205Y-105527972D01*
G37*
D20*
X192946268Y-105680000D03*
D12*
G36*
X192447758Y-105881525D02*
G01*
X193147793Y-105181490D01*
X193444778Y-105478475D01*
X192744743Y-106178510D01*
X192447758Y-105881525D01*
X192447758Y-105881525D01*
G37*
D20*
X193299822Y-106033553D03*
D12*
G36*
X192801312Y-106235078D02*
G01*
X193501347Y-105535043D01*
X193798332Y-105832028D01*
X193098297Y-106532063D01*
X192801312Y-106235078D01*
X192801312Y-106235078D01*
G37*
D20*
X193653375Y-106387107D03*
D12*
G36*
X193154865Y-106588632D02*
G01*
X193854900Y-105888597D01*
X194151885Y-106185582D01*
X193451850Y-106885617D01*
X193154865Y-106588632D01*
X193154865Y-106588632D01*
G37*
D20*
X194006929Y-106740660D03*
D12*
G36*
X193508419Y-106942185D02*
G01*
X194208454Y-106242150D01*
X194505439Y-106539135D01*
X193805404Y-107239170D01*
X193508419Y-106942185D01*
X193508419Y-106942185D01*
G37*
D20*
X194360482Y-107094214D03*
D12*
G36*
X193861972Y-107295739D02*
G01*
X194562007Y-106595704D01*
X194858992Y-106892689D01*
X194158957Y-107592724D01*
X193861972Y-107295739D01*
X193861972Y-107295739D01*
G37*
D20*
X195739340Y-106740660D03*
D12*
G36*
X195240830Y-106539135D02*
G01*
X195537815Y-106242150D01*
X196237850Y-106942185D01*
X195940865Y-107239170D01*
X195240830Y-106539135D01*
X195240830Y-106539135D01*
G37*
D20*
X196092894Y-106387107D03*
D12*
G36*
X195594384Y-106185582D02*
G01*
X195891369Y-105888597D01*
X196591404Y-106588632D01*
X196294419Y-106885617D01*
X195594384Y-106185582D01*
X195594384Y-106185582D01*
G37*
D20*
X196446447Y-106033553D03*
D12*
G36*
X195947937Y-105832028D02*
G01*
X196244922Y-105535043D01*
X196944957Y-106235078D01*
X196647972Y-106532063D01*
X195947937Y-105832028D01*
X195947937Y-105832028D01*
G37*
D20*
X196800000Y-105680000D03*
D12*
G36*
X196301490Y-105478475D02*
G01*
X196598475Y-105181490D01*
X197298510Y-105881525D01*
X197001525Y-106178510D01*
X196301490Y-105478475D01*
X196301490Y-105478475D01*
G37*
D20*
X197153554Y-105326447D03*
D12*
G36*
X196655044Y-105124922D02*
G01*
X196952029Y-104827937D01*
X197652064Y-105527972D01*
X197355079Y-105824957D01*
X196655044Y-105124922D01*
X196655044Y-105124922D01*
G37*
D20*
X197507107Y-104972893D03*
D12*
G36*
X197008597Y-104771368D02*
G01*
X197305582Y-104474383D01*
X198005617Y-105174418D01*
X197708632Y-105471403D01*
X197008597Y-104771368D01*
X197008597Y-104771368D01*
G37*
D20*
X197860661Y-104619340D03*
D12*
G36*
X197362151Y-104417815D02*
G01*
X197659136Y-104120830D01*
X198359171Y-104820865D01*
X198062186Y-105117850D01*
X197362151Y-104417815D01*
X197362151Y-104417815D01*
G37*
D20*
X197507107Y-103240482D03*
D12*
G36*
X197008597Y-103442007D02*
G01*
X197708632Y-102741972D01*
X198005617Y-103038957D01*
X197305582Y-103738992D01*
X197008597Y-103442007D01*
X197008597Y-103442007D01*
G37*
D20*
X197153554Y-102886928D03*
D12*
G36*
X196655044Y-103088453D02*
G01*
X197355079Y-102388418D01*
X197652064Y-102685403D01*
X196952029Y-103385438D01*
X196655044Y-103088453D01*
X196655044Y-103088453D01*
G37*
D20*
X196800000Y-102533375D03*
D12*
G36*
X196301490Y-102734900D02*
G01*
X197001525Y-102034865D01*
X197298510Y-102331850D01*
X196598475Y-103031885D01*
X196301490Y-102734900D01*
X196301490Y-102734900D01*
G37*
D20*
X196446447Y-102179821D03*
D12*
G36*
X195947937Y-102381346D02*
G01*
X196647972Y-101681311D01*
X196944957Y-101978296D01*
X196244922Y-102678331D01*
X195947937Y-102381346D01*
X195947937Y-102381346D01*
G37*
D20*
X196092894Y-101826268D03*
D12*
G36*
X195594384Y-102027793D02*
G01*
X196294419Y-101327758D01*
X196591404Y-101624743D01*
X195891369Y-102324778D01*
X195594384Y-102027793D01*
X195594384Y-102027793D01*
G37*
D20*
X195739340Y-101472715D03*
D12*
G36*
X195240830Y-101674240D02*
G01*
X195940865Y-100974205D01*
X196237850Y-101271190D01*
X195537815Y-101971225D01*
X195240830Y-101674240D01*
X195240830Y-101674240D01*
G37*
D20*
X195385787Y-101119161D03*
D12*
G36*
X194887277Y-101320686D02*
G01*
X195587312Y-100620651D01*
X195884297Y-100917636D01*
X195184262Y-101617671D01*
X194887277Y-101320686D01*
X194887277Y-101320686D01*
G37*
D20*
X194006929Y-101472715D03*
D12*
G36*
X193508419Y-101271190D02*
G01*
X193805404Y-100974205D01*
X194505439Y-101674240D01*
X194208454Y-101971225D01*
X193508419Y-101271190D01*
X193508419Y-101271190D01*
G37*
D20*
X193653375Y-101826268D03*
D12*
G36*
X193154865Y-101624743D02*
G01*
X193451850Y-101327758D01*
X194151885Y-102027793D01*
X193854900Y-102324778D01*
X193154865Y-101624743D01*
X193154865Y-101624743D01*
G37*
D20*
X193299822Y-102179821D03*
D12*
G36*
X192801312Y-101978296D02*
G01*
X193098297Y-101681311D01*
X193798332Y-102381346D01*
X193501347Y-102678331D01*
X192801312Y-101978296D01*
X192801312Y-101978296D01*
G37*
D20*
X192946268Y-102533375D03*
D12*
G36*
X192447758Y-102331850D02*
G01*
X192744743Y-102034865D01*
X193444778Y-102734900D01*
X193147793Y-103031885D01*
X192447758Y-102331850D01*
X192447758Y-102331850D01*
G37*
D20*
X192592715Y-102886928D03*
D12*
G36*
X192094205Y-102685403D02*
G01*
X192391190Y-102388418D01*
X193091225Y-103088453D01*
X192794240Y-103385438D01*
X192094205Y-102685403D01*
X192094205Y-102685403D01*
G37*
D20*
X192239162Y-103240482D03*
D12*
G36*
X191740652Y-103038957D02*
G01*
X192037637Y-102741972D01*
X192737672Y-103442007D01*
X192440687Y-103738992D01*
X191740652Y-103038957D01*
X191740652Y-103038957D01*
G37*
D20*
X191885608Y-103594035D03*
D12*
G36*
X191387098Y-103392510D02*
G01*
X191684083Y-103095525D01*
X192384118Y-103795560D01*
X192087133Y-104092545D01*
X191387098Y-103392510D01*
X191387098Y-103392510D01*
G37*
D23*
X205315000Y-106740000D03*
X205315000Y-106240000D03*
X205315000Y-105740000D03*
X205315000Y-105240000D03*
D24*
X204615000Y-104540000D03*
X204115000Y-104540000D03*
X203615000Y-104540000D03*
X203115000Y-104540000D03*
D23*
X202415000Y-105240000D03*
X202415000Y-105740000D03*
X202415000Y-106240000D03*
X202415000Y-106740000D03*
D24*
X203115000Y-107440000D03*
X203615000Y-107440000D03*
X204115000Y-107440000D03*
X204615000Y-107440000D03*
D25*
X203865000Y-105990000D03*
D12*
G36*
X193316958Y-95220710D02*
G01*
X193331276Y-95222834D01*
X193345317Y-95226351D01*
X193358946Y-95231228D01*
X193372031Y-95237417D01*
X193384447Y-95244858D01*
X193396073Y-95253481D01*
X193406798Y-95263202D01*
X193416519Y-95273927D01*
X193425142Y-95285553D01*
X193432583Y-95297969D01*
X193438772Y-95311054D01*
X193443649Y-95324683D01*
X193447166Y-95338724D01*
X193449290Y-95353042D01*
X193450000Y-95367500D01*
X193450000Y-95712500D01*
X193449290Y-95726958D01*
X193447166Y-95741276D01*
X193443649Y-95755317D01*
X193438772Y-95768946D01*
X193432583Y-95782031D01*
X193425142Y-95794447D01*
X193416519Y-95806073D01*
X193406798Y-95816798D01*
X193396073Y-95826519D01*
X193384447Y-95835142D01*
X193372031Y-95842583D01*
X193358946Y-95848772D01*
X193345317Y-95853649D01*
X193331276Y-95857166D01*
X193316958Y-95859290D01*
X193302500Y-95860000D01*
X193007500Y-95860000D01*
X192993042Y-95859290D01*
X192978724Y-95857166D01*
X192964683Y-95853649D01*
X192951054Y-95848772D01*
X192937969Y-95842583D01*
X192925553Y-95835142D01*
X192913927Y-95826519D01*
X192903202Y-95816798D01*
X192893481Y-95806073D01*
X192884858Y-95794447D01*
X192877417Y-95782031D01*
X192871228Y-95768946D01*
X192866351Y-95755317D01*
X192862834Y-95741276D01*
X192860710Y-95726958D01*
X192860000Y-95712500D01*
X192860000Y-95367500D01*
X192860710Y-95353042D01*
X192862834Y-95338724D01*
X192866351Y-95324683D01*
X192871228Y-95311054D01*
X192877417Y-95297969D01*
X192884858Y-95285553D01*
X192893481Y-95273927D01*
X192903202Y-95263202D01*
X192913927Y-95253481D01*
X192925553Y-95244858D01*
X192937969Y-95237417D01*
X192951054Y-95231228D01*
X192964683Y-95226351D01*
X192978724Y-95222834D01*
X192993042Y-95220710D01*
X193007500Y-95220000D01*
X193302500Y-95220000D01*
X193316958Y-95220710D01*
X193316958Y-95220710D01*
G37*
D13*
X193155000Y-95540000D03*
D12*
G36*
X192346958Y-95220710D02*
G01*
X192361276Y-95222834D01*
X192375317Y-95226351D01*
X192388946Y-95231228D01*
X192402031Y-95237417D01*
X192414447Y-95244858D01*
X192426073Y-95253481D01*
X192436798Y-95263202D01*
X192446519Y-95273927D01*
X192455142Y-95285553D01*
X192462583Y-95297969D01*
X192468772Y-95311054D01*
X192473649Y-95324683D01*
X192477166Y-95338724D01*
X192479290Y-95353042D01*
X192480000Y-95367500D01*
X192480000Y-95712500D01*
X192479290Y-95726958D01*
X192477166Y-95741276D01*
X192473649Y-95755317D01*
X192468772Y-95768946D01*
X192462583Y-95782031D01*
X192455142Y-95794447D01*
X192446519Y-95806073D01*
X192436798Y-95816798D01*
X192426073Y-95826519D01*
X192414447Y-95835142D01*
X192402031Y-95842583D01*
X192388946Y-95848772D01*
X192375317Y-95853649D01*
X192361276Y-95857166D01*
X192346958Y-95859290D01*
X192332500Y-95860000D01*
X192037500Y-95860000D01*
X192023042Y-95859290D01*
X192008724Y-95857166D01*
X191994683Y-95853649D01*
X191981054Y-95848772D01*
X191967969Y-95842583D01*
X191955553Y-95835142D01*
X191943927Y-95826519D01*
X191933202Y-95816798D01*
X191923481Y-95806073D01*
X191914858Y-95794447D01*
X191907417Y-95782031D01*
X191901228Y-95768946D01*
X191896351Y-95755317D01*
X191892834Y-95741276D01*
X191890710Y-95726958D01*
X191890000Y-95712500D01*
X191890000Y-95367500D01*
X191890710Y-95353042D01*
X191892834Y-95338724D01*
X191896351Y-95324683D01*
X191901228Y-95311054D01*
X191907417Y-95297969D01*
X191914858Y-95285553D01*
X191923481Y-95273927D01*
X191933202Y-95263202D01*
X191943927Y-95253481D01*
X191955553Y-95244858D01*
X191967969Y-95237417D01*
X191981054Y-95231228D01*
X191994683Y-95226351D01*
X192008724Y-95222834D01*
X192023042Y-95220710D01*
X192037500Y-95220000D01*
X192332500Y-95220000D01*
X192346958Y-95220710D01*
X192346958Y-95220710D01*
G37*
D13*
X192185000Y-95540000D03*
D12*
G36*
X195896958Y-94270710D02*
G01*
X195911276Y-94272834D01*
X195925317Y-94276351D01*
X195938946Y-94281228D01*
X195952031Y-94287417D01*
X195964447Y-94294858D01*
X195976073Y-94303481D01*
X195986798Y-94313202D01*
X195996519Y-94323927D01*
X196005142Y-94335553D01*
X196012583Y-94347969D01*
X196018772Y-94361054D01*
X196023649Y-94374683D01*
X196027166Y-94388724D01*
X196029290Y-94403042D01*
X196030000Y-94417500D01*
X196030000Y-94712500D01*
X196029290Y-94726958D01*
X196027166Y-94741276D01*
X196023649Y-94755317D01*
X196018772Y-94768946D01*
X196012583Y-94782031D01*
X196005142Y-94794447D01*
X195996519Y-94806073D01*
X195986798Y-94816798D01*
X195976073Y-94826519D01*
X195964447Y-94835142D01*
X195952031Y-94842583D01*
X195938946Y-94848772D01*
X195925317Y-94853649D01*
X195911276Y-94857166D01*
X195896958Y-94859290D01*
X195882500Y-94860000D01*
X195537500Y-94860000D01*
X195523042Y-94859290D01*
X195508724Y-94857166D01*
X195494683Y-94853649D01*
X195481054Y-94848772D01*
X195467969Y-94842583D01*
X195455553Y-94835142D01*
X195443927Y-94826519D01*
X195433202Y-94816798D01*
X195423481Y-94806073D01*
X195414858Y-94794447D01*
X195407417Y-94782031D01*
X195401228Y-94768946D01*
X195396351Y-94755317D01*
X195392834Y-94741276D01*
X195390710Y-94726958D01*
X195390000Y-94712500D01*
X195390000Y-94417500D01*
X195390710Y-94403042D01*
X195392834Y-94388724D01*
X195396351Y-94374683D01*
X195401228Y-94361054D01*
X195407417Y-94347969D01*
X195414858Y-94335553D01*
X195423481Y-94323927D01*
X195433202Y-94313202D01*
X195443927Y-94303481D01*
X195455553Y-94294858D01*
X195467969Y-94287417D01*
X195481054Y-94281228D01*
X195494683Y-94276351D01*
X195508724Y-94272834D01*
X195523042Y-94270710D01*
X195537500Y-94270000D01*
X195882500Y-94270000D01*
X195896958Y-94270710D01*
X195896958Y-94270710D01*
G37*
D13*
X195710000Y-94565000D03*
D12*
G36*
X195896958Y-93300710D02*
G01*
X195911276Y-93302834D01*
X195925317Y-93306351D01*
X195938946Y-93311228D01*
X195952031Y-93317417D01*
X195964447Y-93324858D01*
X195976073Y-93333481D01*
X195986798Y-93343202D01*
X195996519Y-93353927D01*
X196005142Y-93365553D01*
X196012583Y-93377969D01*
X196018772Y-93391054D01*
X196023649Y-93404683D01*
X196027166Y-93418724D01*
X196029290Y-93433042D01*
X196030000Y-93447500D01*
X196030000Y-93742500D01*
X196029290Y-93756958D01*
X196027166Y-93771276D01*
X196023649Y-93785317D01*
X196018772Y-93798946D01*
X196012583Y-93812031D01*
X196005142Y-93824447D01*
X195996519Y-93836073D01*
X195986798Y-93846798D01*
X195976073Y-93856519D01*
X195964447Y-93865142D01*
X195952031Y-93872583D01*
X195938946Y-93878772D01*
X195925317Y-93883649D01*
X195911276Y-93887166D01*
X195896958Y-93889290D01*
X195882500Y-93890000D01*
X195537500Y-93890000D01*
X195523042Y-93889290D01*
X195508724Y-93887166D01*
X195494683Y-93883649D01*
X195481054Y-93878772D01*
X195467969Y-93872583D01*
X195455553Y-93865142D01*
X195443927Y-93856519D01*
X195433202Y-93846798D01*
X195423481Y-93836073D01*
X195414858Y-93824447D01*
X195407417Y-93812031D01*
X195401228Y-93798946D01*
X195396351Y-93785317D01*
X195392834Y-93771276D01*
X195390710Y-93756958D01*
X195390000Y-93742500D01*
X195390000Y-93447500D01*
X195390710Y-93433042D01*
X195392834Y-93418724D01*
X195396351Y-93404683D01*
X195401228Y-93391054D01*
X195407417Y-93377969D01*
X195414858Y-93365553D01*
X195423481Y-93353927D01*
X195433202Y-93343202D01*
X195443927Y-93333481D01*
X195455553Y-93324858D01*
X195467969Y-93317417D01*
X195481054Y-93311228D01*
X195494683Y-93306351D01*
X195508724Y-93302834D01*
X195523042Y-93300710D01*
X195537500Y-93300000D01*
X195882500Y-93300000D01*
X195896958Y-93300710D01*
X195896958Y-93300710D01*
G37*
D13*
X195710000Y-93595000D03*
D12*
G36*
X206076958Y-103070710D02*
G01*
X206091276Y-103072834D01*
X206105317Y-103076351D01*
X206118946Y-103081228D01*
X206132031Y-103087417D01*
X206144447Y-103094858D01*
X206156073Y-103103481D01*
X206166798Y-103113202D01*
X206176519Y-103123927D01*
X206185142Y-103135553D01*
X206192583Y-103147969D01*
X206198772Y-103161054D01*
X206203649Y-103174683D01*
X206207166Y-103188724D01*
X206209290Y-103203042D01*
X206210000Y-103217500D01*
X206210000Y-103512500D01*
X206209290Y-103526958D01*
X206207166Y-103541276D01*
X206203649Y-103555317D01*
X206198772Y-103568946D01*
X206192583Y-103582031D01*
X206185142Y-103594447D01*
X206176519Y-103606073D01*
X206166798Y-103616798D01*
X206156073Y-103626519D01*
X206144447Y-103635142D01*
X206132031Y-103642583D01*
X206118946Y-103648772D01*
X206105317Y-103653649D01*
X206091276Y-103657166D01*
X206076958Y-103659290D01*
X206062500Y-103660000D01*
X205717500Y-103660000D01*
X205703042Y-103659290D01*
X205688724Y-103657166D01*
X205674683Y-103653649D01*
X205661054Y-103648772D01*
X205647969Y-103642583D01*
X205635553Y-103635142D01*
X205623927Y-103626519D01*
X205613202Y-103616798D01*
X205603481Y-103606073D01*
X205594858Y-103594447D01*
X205587417Y-103582031D01*
X205581228Y-103568946D01*
X205576351Y-103555317D01*
X205572834Y-103541276D01*
X205570710Y-103526958D01*
X205570000Y-103512500D01*
X205570000Y-103217500D01*
X205570710Y-103203042D01*
X205572834Y-103188724D01*
X205576351Y-103174683D01*
X205581228Y-103161054D01*
X205587417Y-103147969D01*
X205594858Y-103135553D01*
X205603481Y-103123927D01*
X205613202Y-103113202D01*
X205623927Y-103103481D01*
X205635553Y-103094858D01*
X205647969Y-103087417D01*
X205661054Y-103081228D01*
X205674683Y-103076351D01*
X205688724Y-103072834D01*
X205703042Y-103070710D01*
X205717500Y-103070000D01*
X206062500Y-103070000D01*
X206076958Y-103070710D01*
X206076958Y-103070710D01*
G37*
D13*
X205890000Y-103365000D03*
D12*
G36*
X206076958Y-104040710D02*
G01*
X206091276Y-104042834D01*
X206105317Y-104046351D01*
X206118946Y-104051228D01*
X206132031Y-104057417D01*
X206144447Y-104064858D01*
X206156073Y-104073481D01*
X206166798Y-104083202D01*
X206176519Y-104093927D01*
X206185142Y-104105553D01*
X206192583Y-104117969D01*
X206198772Y-104131054D01*
X206203649Y-104144683D01*
X206207166Y-104158724D01*
X206209290Y-104173042D01*
X206210000Y-104187500D01*
X206210000Y-104482500D01*
X206209290Y-104496958D01*
X206207166Y-104511276D01*
X206203649Y-104525317D01*
X206198772Y-104538946D01*
X206192583Y-104552031D01*
X206185142Y-104564447D01*
X206176519Y-104576073D01*
X206166798Y-104586798D01*
X206156073Y-104596519D01*
X206144447Y-104605142D01*
X206132031Y-104612583D01*
X206118946Y-104618772D01*
X206105317Y-104623649D01*
X206091276Y-104627166D01*
X206076958Y-104629290D01*
X206062500Y-104630000D01*
X205717500Y-104630000D01*
X205703042Y-104629290D01*
X205688724Y-104627166D01*
X205674683Y-104623649D01*
X205661054Y-104618772D01*
X205647969Y-104612583D01*
X205635553Y-104605142D01*
X205623927Y-104596519D01*
X205613202Y-104586798D01*
X205603481Y-104576073D01*
X205594858Y-104564447D01*
X205587417Y-104552031D01*
X205581228Y-104538946D01*
X205576351Y-104525317D01*
X205572834Y-104511276D01*
X205570710Y-104496958D01*
X205570000Y-104482500D01*
X205570000Y-104187500D01*
X205570710Y-104173042D01*
X205572834Y-104158724D01*
X205576351Y-104144683D01*
X205581228Y-104131054D01*
X205587417Y-104117969D01*
X205594858Y-104105553D01*
X205603481Y-104093927D01*
X205613202Y-104083202D01*
X205623927Y-104073481D01*
X205635553Y-104064858D01*
X205647969Y-104057417D01*
X205661054Y-104051228D01*
X205674683Y-104046351D01*
X205688724Y-104042834D01*
X205703042Y-104040710D01*
X205717500Y-104040000D01*
X206062500Y-104040000D01*
X206076958Y-104040710D01*
X206076958Y-104040710D01*
G37*
D13*
X205890000Y-104335000D03*
D12*
G36*
X192656958Y-99480710D02*
G01*
X192671276Y-99482834D01*
X192685317Y-99486351D01*
X192698946Y-99491228D01*
X192712031Y-99497417D01*
X192724447Y-99504858D01*
X192736073Y-99513481D01*
X192746798Y-99523202D01*
X192756519Y-99533927D01*
X192765142Y-99545553D01*
X192772583Y-99557969D01*
X192778772Y-99571054D01*
X192783649Y-99584683D01*
X192787166Y-99598724D01*
X192789290Y-99613042D01*
X192790000Y-99627500D01*
X192790000Y-99922500D01*
X192789290Y-99936958D01*
X192787166Y-99951276D01*
X192783649Y-99965317D01*
X192778772Y-99978946D01*
X192772583Y-99992031D01*
X192765142Y-100004447D01*
X192756519Y-100016073D01*
X192746798Y-100026798D01*
X192736073Y-100036519D01*
X192724447Y-100045142D01*
X192712031Y-100052583D01*
X192698946Y-100058772D01*
X192685317Y-100063649D01*
X192671276Y-100067166D01*
X192656958Y-100069290D01*
X192642500Y-100070000D01*
X192297500Y-100070000D01*
X192283042Y-100069290D01*
X192268724Y-100067166D01*
X192254683Y-100063649D01*
X192241054Y-100058772D01*
X192227969Y-100052583D01*
X192215553Y-100045142D01*
X192203927Y-100036519D01*
X192193202Y-100026798D01*
X192183481Y-100016073D01*
X192174858Y-100004447D01*
X192167417Y-99992031D01*
X192161228Y-99978946D01*
X192156351Y-99965317D01*
X192152834Y-99951276D01*
X192150710Y-99936958D01*
X192150000Y-99922500D01*
X192150000Y-99627500D01*
X192150710Y-99613042D01*
X192152834Y-99598724D01*
X192156351Y-99584683D01*
X192161228Y-99571054D01*
X192167417Y-99557969D01*
X192174858Y-99545553D01*
X192183481Y-99533927D01*
X192193202Y-99523202D01*
X192203927Y-99513481D01*
X192215553Y-99504858D01*
X192227969Y-99497417D01*
X192241054Y-99491228D01*
X192254683Y-99486351D01*
X192268724Y-99482834D01*
X192283042Y-99480710D01*
X192297500Y-99480000D01*
X192642500Y-99480000D01*
X192656958Y-99480710D01*
X192656958Y-99480710D01*
G37*
D13*
X192470000Y-99775000D03*
D12*
G36*
X192656958Y-100450710D02*
G01*
X192671276Y-100452834D01*
X192685317Y-100456351D01*
X192698946Y-100461228D01*
X192712031Y-100467417D01*
X192724447Y-100474858D01*
X192736073Y-100483481D01*
X192746798Y-100493202D01*
X192756519Y-100503927D01*
X192765142Y-100515553D01*
X192772583Y-100527969D01*
X192778772Y-100541054D01*
X192783649Y-100554683D01*
X192787166Y-100568724D01*
X192789290Y-100583042D01*
X192790000Y-100597500D01*
X192790000Y-100892500D01*
X192789290Y-100906958D01*
X192787166Y-100921276D01*
X192783649Y-100935317D01*
X192778772Y-100948946D01*
X192772583Y-100962031D01*
X192765142Y-100974447D01*
X192756519Y-100986073D01*
X192746798Y-100996798D01*
X192736073Y-101006519D01*
X192724447Y-101015142D01*
X192712031Y-101022583D01*
X192698946Y-101028772D01*
X192685317Y-101033649D01*
X192671276Y-101037166D01*
X192656958Y-101039290D01*
X192642500Y-101040000D01*
X192297500Y-101040000D01*
X192283042Y-101039290D01*
X192268724Y-101037166D01*
X192254683Y-101033649D01*
X192241054Y-101028772D01*
X192227969Y-101022583D01*
X192215553Y-101015142D01*
X192203927Y-101006519D01*
X192193202Y-100996798D01*
X192183481Y-100986073D01*
X192174858Y-100974447D01*
X192167417Y-100962031D01*
X192161228Y-100948946D01*
X192156351Y-100935317D01*
X192152834Y-100921276D01*
X192150710Y-100906958D01*
X192150000Y-100892500D01*
X192150000Y-100597500D01*
X192150710Y-100583042D01*
X192152834Y-100568724D01*
X192156351Y-100554683D01*
X192161228Y-100541054D01*
X192167417Y-100527969D01*
X192174858Y-100515553D01*
X192183481Y-100503927D01*
X192193202Y-100493202D01*
X192203927Y-100483481D01*
X192215553Y-100474858D01*
X192227969Y-100467417D01*
X192241054Y-100461228D01*
X192254683Y-100456351D01*
X192268724Y-100452834D01*
X192283042Y-100450710D01*
X192297500Y-100450000D01*
X192642500Y-100450000D01*
X192656958Y-100450710D01*
X192656958Y-100450710D01*
G37*
D13*
X192470000Y-100745000D03*
D12*
G36*
X205061958Y-99510710D02*
G01*
X205076276Y-99512834D01*
X205090317Y-99516351D01*
X205103946Y-99521228D01*
X205117031Y-99527417D01*
X205129447Y-99534858D01*
X205141073Y-99543481D01*
X205151798Y-99553202D01*
X205161519Y-99563927D01*
X205170142Y-99575553D01*
X205177583Y-99587969D01*
X205183772Y-99601054D01*
X205188649Y-99614683D01*
X205192166Y-99628724D01*
X205194290Y-99643042D01*
X205195000Y-99657500D01*
X205195000Y-99952500D01*
X205194290Y-99966958D01*
X205192166Y-99981276D01*
X205188649Y-99995317D01*
X205183772Y-100008946D01*
X205177583Y-100022031D01*
X205170142Y-100034447D01*
X205161519Y-100046073D01*
X205151798Y-100056798D01*
X205141073Y-100066519D01*
X205129447Y-100075142D01*
X205117031Y-100082583D01*
X205103946Y-100088772D01*
X205090317Y-100093649D01*
X205076276Y-100097166D01*
X205061958Y-100099290D01*
X205047500Y-100100000D01*
X204702500Y-100100000D01*
X204688042Y-100099290D01*
X204673724Y-100097166D01*
X204659683Y-100093649D01*
X204646054Y-100088772D01*
X204632969Y-100082583D01*
X204620553Y-100075142D01*
X204608927Y-100066519D01*
X204598202Y-100056798D01*
X204588481Y-100046073D01*
X204579858Y-100034447D01*
X204572417Y-100022031D01*
X204566228Y-100008946D01*
X204561351Y-99995317D01*
X204557834Y-99981276D01*
X204555710Y-99966958D01*
X204555000Y-99952500D01*
X204555000Y-99657500D01*
X204555710Y-99643042D01*
X204557834Y-99628724D01*
X204561351Y-99614683D01*
X204566228Y-99601054D01*
X204572417Y-99587969D01*
X204579858Y-99575553D01*
X204588481Y-99563927D01*
X204598202Y-99553202D01*
X204608927Y-99543481D01*
X204620553Y-99534858D01*
X204632969Y-99527417D01*
X204646054Y-99521228D01*
X204659683Y-99516351D01*
X204673724Y-99512834D01*
X204688042Y-99510710D01*
X204702500Y-99510000D01*
X205047500Y-99510000D01*
X205061958Y-99510710D01*
X205061958Y-99510710D01*
G37*
D13*
X204875000Y-99805000D03*
D12*
G36*
X205061958Y-100480710D02*
G01*
X205076276Y-100482834D01*
X205090317Y-100486351D01*
X205103946Y-100491228D01*
X205117031Y-100497417D01*
X205129447Y-100504858D01*
X205141073Y-100513481D01*
X205151798Y-100523202D01*
X205161519Y-100533927D01*
X205170142Y-100545553D01*
X205177583Y-100557969D01*
X205183772Y-100571054D01*
X205188649Y-100584683D01*
X205192166Y-100598724D01*
X205194290Y-100613042D01*
X205195000Y-100627500D01*
X205195000Y-100922500D01*
X205194290Y-100936958D01*
X205192166Y-100951276D01*
X205188649Y-100965317D01*
X205183772Y-100978946D01*
X205177583Y-100992031D01*
X205170142Y-101004447D01*
X205161519Y-101016073D01*
X205151798Y-101026798D01*
X205141073Y-101036519D01*
X205129447Y-101045142D01*
X205117031Y-101052583D01*
X205103946Y-101058772D01*
X205090317Y-101063649D01*
X205076276Y-101067166D01*
X205061958Y-101069290D01*
X205047500Y-101070000D01*
X204702500Y-101070000D01*
X204688042Y-101069290D01*
X204673724Y-101067166D01*
X204659683Y-101063649D01*
X204646054Y-101058772D01*
X204632969Y-101052583D01*
X204620553Y-101045142D01*
X204608927Y-101036519D01*
X204598202Y-101026798D01*
X204588481Y-101016073D01*
X204579858Y-101004447D01*
X204572417Y-100992031D01*
X204566228Y-100978946D01*
X204561351Y-100965317D01*
X204557834Y-100951276D01*
X204555710Y-100936958D01*
X204555000Y-100922500D01*
X204555000Y-100627500D01*
X204555710Y-100613042D01*
X204557834Y-100598724D01*
X204561351Y-100584683D01*
X204566228Y-100571054D01*
X204572417Y-100557969D01*
X204579858Y-100545553D01*
X204588481Y-100533927D01*
X204598202Y-100523202D01*
X204608927Y-100513481D01*
X204620553Y-100504858D01*
X204632969Y-100497417D01*
X204646054Y-100491228D01*
X204659683Y-100486351D01*
X204673724Y-100482834D01*
X204688042Y-100480710D01*
X204702500Y-100480000D01*
X205047500Y-100480000D01*
X205061958Y-100480710D01*
X205061958Y-100480710D01*
G37*
D13*
X204875000Y-100775000D03*
D12*
G36*
X207286958Y-106540710D02*
G01*
X207301276Y-106542834D01*
X207315317Y-106546351D01*
X207328946Y-106551228D01*
X207342031Y-106557417D01*
X207354447Y-106564858D01*
X207366073Y-106573481D01*
X207376798Y-106583202D01*
X207386519Y-106593927D01*
X207395142Y-106605553D01*
X207402583Y-106617969D01*
X207408772Y-106631054D01*
X207413649Y-106644683D01*
X207417166Y-106658724D01*
X207419290Y-106673042D01*
X207420000Y-106687500D01*
X207420000Y-106982500D01*
X207419290Y-106996958D01*
X207417166Y-107011276D01*
X207413649Y-107025317D01*
X207408772Y-107038946D01*
X207402583Y-107052031D01*
X207395142Y-107064447D01*
X207386519Y-107076073D01*
X207376798Y-107086798D01*
X207366073Y-107096519D01*
X207354447Y-107105142D01*
X207342031Y-107112583D01*
X207328946Y-107118772D01*
X207315317Y-107123649D01*
X207301276Y-107127166D01*
X207286958Y-107129290D01*
X207272500Y-107130000D01*
X206927500Y-107130000D01*
X206913042Y-107129290D01*
X206898724Y-107127166D01*
X206884683Y-107123649D01*
X206871054Y-107118772D01*
X206857969Y-107112583D01*
X206845553Y-107105142D01*
X206833927Y-107096519D01*
X206823202Y-107086798D01*
X206813481Y-107076073D01*
X206804858Y-107064447D01*
X206797417Y-107052031D01*
X206791228Y-107038946D01*
X206786351Y-107025317D01*
X206782834Y-107011276D01*
X206780710Y-106996958D01*
X206780000Y-106982500D01*
X206780000Y-106687500D01*
X206780710Y-106673042D01*
X206782834Y-106658724D01*
X206786351Y-106644683D01*
X206791228Y-106631054D01*
X206797417Y-106617969D01*
X206804858Y-106605553D01*
X206813481Y-106593927D01*
X206823202Y-106583202D01*
X206833927Y-106573481D01*
X206845553Y-106564858D01*
X206857969Y-106557417D01*
X206871054Y-106551228D01*
X206884683Y-106546351D01*
X206898724Y-106542834D01*
X206913042Y-106540710D01*
X206927500Y-106540000D01*
X207272500Y-106540000D01*
X207286958Y-106540710D01*
X207286958Y-106540710D01*
G37*
D13*
X207100000Y-106835000D03*
D12*
G36*
X207286958Y-105570710D02*
G01*
X207301276Y-105572834D01*
X207315317Y-105576351D01*
X207328946Y-105581228D01*
X207342031Y-105587417D01*
X207354447Y-105594858D01*
X207366073Y-105603481D01*
X207376798Y-105613202D01*
X207386519Y-105623927D01*
X207395142Y-105635553D01*
X207402583Y-105647969D01*
X207408772Y-105661054D01*
X207413649Y-105674683D01*
X207417166Y-105688724D01*
X207419290Y-105703042D01*
X207420000Y-105717500D01*
X207420000Y-106012500D01*
X207419290Y-106026958D01*
X207417166Y-106041276D01*
X207413649Y-106055317D01*
X207408772Y-106068946D01*
X207402583Y-106082031D01*
X207395142Y-106094447D01*
X207386519Y-106106073D01*
X207376798Y-106116798D01*
X207366073Y-106126519D01*
X207354447Y-106135142D01*
X207342031Y-106142583D01*
X207328946Y-106148772D01*
X207315317Y-106153649D01*
X207301276Y-106157166D01*
X207286958Y-106159290D01*
X207272500Y-106160000D01*
X206927500Y-106160000D01*
X206913042Y-106159290D01*
X206898724Y-106157166D01*
X206884683Y-106153649D01*
X206871054Y-106148772D01*
X206857969Y-106142583D01*
X206845553Y-106135142D01*
X206833927Y-106126519D01*
X206823202Y-106116798D01*
X206813481Y-106106073D01*
X206804858Y-106094447D01*
X206797417Y-106082031D01*
X206791228Y-106068946D01*
X206786351Y-106055317D01*
X206782834Y-106041276D01*
X206780710Y-106026958D01*
X206780000Y-106012500D01*
X206780000Y-105717500D01*
X206780710Y-105703042D01*
X206782834Y-105688724D01*
X206786351Y-105674683D01*
X206791228Y-105661054D01*
X206797417Y-105647969D01*
X206804858Y-105635553D01*
X206813481Y-105623927D01*
X206823202Y-105613202D01*
X206833927Y-105603481D01*
X206845553Y-105594858D01*
X206857969Y-105587417D01*
X206871054Y-105581228D01*
X206884683Y-105576351D01*
X206898724Y-105572834D01*
X206913042Y-105570710D01*
X206927500Y-105570000D01*
X207272500Y-105570000D01*
X207286958Y-105570710D01*
X207286958Y-105570710D01*
G37*
D13*
X207100000Y-105865000D03*
D12*
G36*
X202196958Y-99820710D02*
G01*
X202211276Y-99822834D01*
X202225317Y-99826351D01*
X202238946Y-99831228D01*
X202252031Y-99837417D01*
X202264447Y-99844858D01*
X202276073Y-99853481D01*
X202286798Y-99863202D01*
X202296519Y-99873927D01*
X202305142Y-99885553D01*
X202312583Y-99897969D01*
X202318772Y-99911054D01*
X202323649Y-99924683D01*
X202327166Y-99938724D01*
X202329290Y-99953042D01*
X202330000Y-99967500D01*
X202330000Y-100312500D01*
X202329290Y-100326958D01*
X202327166Y-100341276D01*
X202323649Y-100355317D01*
X202318772Y-100368946D01*
X202312583Y-100382031D01*
X202305142Y-100394447D01*
X202296519Y-100406073D01*
X202286798Y-100416798D01*
X202276073Y-100426519D01*
X202264447Y-100435142D01*
X202252031Y-100442583D01*
X202238946Y-100448772D01*
X202225317Y-100453649D01*
X202211276Y-100457166D01*
X202196958Y-100459290D01*
X202182500Y-100460000D01*
X201887500Y-100460000D01*
X201873042Y-100459290D01*
X201858724Y-100457166D01*
X201844683Y-100453649D01*
X201831054Y-100448772D01*
X201817969Y-100442583D01*
X201805553Y-100435142D01*
X201793927Y-100426519D01*
X201783202Y-100416798D01*
X201773481Y-100406073D01*
X201764858Y-100394447D01*
X201757417Y-100382031D01*
X201751228Y-100368946D01*
X201746351Y-100355317D01*
X201742834Y-100341276D01*
X201740710Y-100326958D01*
X201740000Y-100312500D01*
X201740000Y-99967500D01*
X201740710Y-99953042D01*
X201742834Y-99938724D01*
X201746351Y-99924683D01*
X201751228Y-99911054D01*
X201757417Y-99897969D01*
X201764858Y-99885553D01*
X201773481Y-99873927D01*
X201783202Y-99863202D01*
X201793927Y-99853481D01*
X201805553Y-99844858D01*
X201817969Y-99837417D01*
X201831054Y-99831228D01*
X201844683Y-99826351D01*
X201858724Y-99822834D01*
X201873042Y-99820710D01*
X201887500Y-99820000D01*
X202182500Y-99820000D01*
X202196958Y-99820710D01*
X202196958Y-99820710D01*
G37*
D13*
X202035000Y-100140000D03*
D12*
G36*
X201226958Y-99820710D02*
G01*
X201241276Y-99822834D01*
X201255317Y-99826351D01*
X201268946Y-99831228D01*
X201282031Y-99837417D01*
X201294447Y-99844858D01*
X201306073Y-99853481D01*
X201316798Y-99863202D01*
X201326519Y-99873927D01*
X201335142Y-99885553D01*
X201342583Y-99897969D01*
X201348772Y-99911054D01*
X201353649Y-99924683D01*
X201357166Y-99938724D01*
X201359290Y-99953042D01*
X201360000Y-99967500D01*
X201360000Y-100312500D01*
X201359290Y-100326958D01*
X201357166Y-100341276D01*
X201353649Y-100355317D01*
X201348772Y-100368946D01*
X201342583Y-100382031D01*
X201335142Y-100394447D01*
X201326519Y-100406073D01*
X201316798Y-100416798D01*
X201306073Y-100426519D01*
X201294447Y-100435142D01*
X201282031Y-100442583D01*
X201268946Y-100448772D01*
X201255317Y-100453649D01*
X201241276Y-100457166D01*
X201226958Y-100459290D01*
X201212500Y-100460000D01*
X200917500Y-100460000D01*
X200903042Y-100459290D01*
X200888724Y-100457166D01*
X200874683Y-100453649D01*
X200861054Y-100448772D01*
X200847969Y-100442583D01*
X200835553Y-100435142D01*
X200823927Y-100426519D01*
X200813202Y-100416798D01*
X200803481Y-100406073D01*
X200794858Y-100394447D01*
X200787417Y-100382031D01*
X200781228Y-100368946D01*
X200776351Y-100355317D01*
X200772834Y-100341276D01*
X200770710Y-100326958D01*
X200770000Y-100312500D01*
X200770000Y-99967500D01*
X200770710Y-99953042D01*
X200772834Y-99938724D01*
X200776351Y-99924683D01*
X200781228Y-99911054D01*
X200787417Y-99897969D01*
X200794858Y-99885553D01*
X200803481Y-99873927D01*
X200813202Y-99863202D01*
X200823927Y-99853481D01*
X200835553Y-99844858D01*
X200847969Y-99837417D01*
X200861054Y-99831228D01*
X200874683Y-99826351D01*
X200888724Y-99822834D01*
X200903042Y-99820710D01*
X200917500Y-99820000D01*
X201212500Y-99820000D01*
X201226958Y-99820710D01*
X201226958Y-99820710D01*
G37*
D13*
X201065000Y-100140000D03*
D12*
G36*
X203846958Y-109408710D02*
G01*
X203861276Y-109410834D01*
X203875317Y-109414351D01*
X203888946Y-109419228D01*
X203902031Y-109425417D01*
X203914447Y-109432858D01*
X203926073Y-109441481D01*
X203936798Y-109451202D01*
X203946519Y-109461927D01*
X203955142Y-109473553D01*
X203962583Y-109485969D01*
X203968772Y-109499054D01*
X203973649Y-109512683D01*
X203977166Y-109526724D01*
X203979290Y-109541042D01*
X203980000Y-109555500D01*
X203980000Y-109900500D01*
X203979290Y-109914958D01*
X203977166Y-109929276D01*
X203973649Y-109943317D01*
X203968772Y-109956946D01*
X203962583Y-109970031D01*
X203955142Y-109982447D01*
X203946519Y-109994073D01*
X203936798Y-110004798D01*
X203926073Y-110014519D01*
X203914447Y-110023142D01*
X203902031Y-110030583D01*
X203888946Y-110036772D01*
X203875317Y-110041649D01*
X203861276Y-110045166D01*
X203846958Y-110047290D01*
X203832500Y-110048000D01*
X203537500Y-110048000D01*
X203523042Y-110047290D01*
X203508724Y-110045166D01*
X203494683Y-110041649D01*
X203481054Y-110036772D01*
X203467969Y-110030583D01*
X203455553Y-110023142D01*
X203443927Y-110014519D01*
X203433202Y-110004798D01*
X203423481Y-109994073D01*
X203414858Y-109982447D01*
X203407417Y-109970031D01*
X203401228Y-109956946D01*
X203396351Y-109943317D01*
X203392834Y-109929276D01*
X203390710Y-109914958D01*
X203390000Y-109900500D01*
X203390000Y-109555500D01*
X203390710Y-109541042D01*
X203392834Y-109526724D01*
X203396351Y-109512683D01*
X203401228Y-109499054D01*
X203407417Y-109485969D01*
X203414858Y-109473553D01*
X203423481Y-109461927D01*
X203433202Y-109451202D01*
X203443927Y-109441481D01*
X203455553Y-109432858D01*
X203467969Y-109425417D01*
X203481054Y-109419228D01*
X203494683Y-109414351D01*
X203508724Y-109410834D01*
X203523042Y-109408710D01*
X203537500Y-109408000D01*
X203832500Y-109408000D01*
X203846958Y-109408710D01*
X203846958Y-109408710D01*
G37*
D13*
X203685000Y-109728000D03*
D12*
G36*
X202876958Y-109408710D02*
G01*
X202891276Y-109410834D01*
X202905317Y-109414351D01*
X202918946Y-109419228D01*
X202932031Y-109425417D01*
X202944447Y-109432858D01*
X202956073Y-109441481D01*
X202966798Y-109451202D01*
X202976519Y-109461927D01*
X202985142Y-109473553D01*
X202992583Y-109485969D01*
X202998772Y-109499054D01*
X203003649Y-109512683D01*
X203007166Y-109526724D01*
X203009290Y-109541042D01*
X203010000Y-109555500D01*
X203010000Y-109900500D01*
X203009290Y-109914958D01*
X203007166Y-109929276D01*
X203003649Y-109943317D01*
X202998772Y-109956946D01*
X202992583Y-109970031D01*
X202985142Y-109982447D01*
X202976519Y-109994073D01*
X202966798Y-110004798D01*
X202956073Y-110014519D01*
X202944447Y-110023142D01*
X202932031Y-110030583D01*
X202918946Y-110036772D01*
X202905317Y-110041649D01*
X202891276Y-110045166D01*
X202876958Y-110047290D01*
X202862500Y-110048000D01*
X202567500Y-110048000D01*
X202553042Y-110047290D01*
X202538724Y-110045166D01*
X202524683Y-110041649D01*
X202511054Y-110036772D01*
X202497969Y-110030583D01*
X202485553Y-110023142D01*
X202473927Y-110014519D01*
X202463202Y-110004798D01*
X202453481Y-109994073D01*
X202444858Y-109982447D01*
X202437417Y-109970031D01*
X202431228Y-109956946D01*
X202426351Y-109943317D01*
X202422834Y-109929276D01*
X202420710Y-109914958D01*
X202420000Y-109900500D01*
X202420000Y-109555500D01*
X202420710Y-109541042D01*
X202422834Y-109526724D01*
X202426351Y-109512683D01*
X202431228Y-109499054D01*
X202437417Y-109485969D01*
X202444858Y-109473553D01*
X202453481Y-109461927D01*
X202463202Y-109451202D01*
X202473927Y-109441481D01*
X202485553Y-109432858D01*
X202497969Y-109425417D01*
X202511054Y-109419228D01*
X202524683Y-109414351D01*
X202538724Y-109410834D01*
X202553042Y-109408710D01*
X202567500Y-109408000D01*
X202862500Y-109408000D01*
X202876958Y-109408710D01*
X202876958Y-109408710D01*
G37*
D13*
X202715000Y-109728000D03*
D26*
X200540000Y-109241000D03*
D27*
X199616199Y-108591001D03*
X199616199Y-109241000D03*
X199616199Y-109890999D03*
X201463801Y-109890999D03*
X201463801Y-109241000D03*
X201463801Y-108591001D03*
D12*
G36*
X201584478Y-100925950D02*
G01*
X201608747Y-100929550D01*
X201632545Y-100935511D01*
X201655645Y-100943776D01*
X201677823Y-100954266D01*
X201698867Y-100966879D01*
X201718572Y-100981493D01*
X201736751Y-100997969D01*
X203257031Y-102518249D01*
X203273507Y-102536428D01*
X203288121Y-102556133D01*
X203300734Y-102577177D01*
X203311224Y-102599355D01*
X203319489Y-102622455D01*
X203325450Y-102646253D01*
X203329050Y-102670522D01*
X203330254Y-102695026D01*
X203329050Y-102719530D01*
X203325450Y-102743799D01*
X203319489Y-102767597D01*
X203311224Y-102790697D01*
X203300734Y-102812875D01*
X203288121Y-102833919D01*
X203273507Y-102853624D01*
X203257031Y-102871803D01*
X202726701Y-103402133D01*
X202708522Y-103418609D01*
X202688817Y-103433223D01*
X202667773Y-103445836D01*
X202645595Y-103456326D01*
X202622495Y-103464591D01*
X202598697Y-103470552D01*
X202574428Y-103474152D01*
X202549924Y-103475356D01*
X202525420Y-103474152D01*
X202501151Y-103470552D01*
X202477353Y-103464591D01*
X202454253Y-103456326D01*
X202432075Y-103445836D01*
X202411031Y-103433223D01*
X202391326Y-103418609D01*
X202373147Y-103402133D01*
X200852867Y-101881853D01*
X200836391Y-101863674D01*
X200821777Y-101843969D01*
X200809164Y-101822925D01*
X200798674Y-101800747D01*
X200790409Y-101777647D01*
X200784448Y-101753849D01*
X200780848Y-101729580D01*
X200779644Y-101705076D01*
X200780848Y-101680572D01*
X200784448Y-101656303D01*
X200790409Y-101632505D01*
X200798674Y-101609405D01*
X200809164Y-101587227D01*
X200821777Y-101566183D01*
X200836391Y-101546478D01*
X200852867Y-101528299D01*
X201383197Y-100997969D01*
X201401376Y-100981493D01*
X201421081Y-100966879D01*
X201442125Y-100954266D01*
X201464303Y-100943776D01*
X201487403Y-100935511D01*
X201511201Y-100929550D01*
X201535470Y-100925950D01*
X201559974Y-100924746D01*
X201584478Y-100925950D01*
X201584478Y-100925950D01*
G37*
D28*
X202054949Y-102200051D03*
D12*
G36*
X199604580Y-102905848D02*
G01*
X199628849Y-102909448D01*
X199652647Y-102915409D01*
X199675747Y-102923674D01*
X199697925Y-102934164D01*
X199718969Y-102946777D01*
X199738674Y-102961391D01*
X199756853Y-102977867D01*
X201277133Y-104498147D01*
X201293609Y-104516326D01*
X201308223Y-104536031D01*
X201320836Y-104557075D01*
X201331326Y-104579253D01*
X201339591Y-104602353D01*
X201345552Y-104626151D01*
X201349152Y-104650420D01*
X201350356Y-104674924D01*
X201349152Y-104699428D01*
X201345552Y-104723697D01*
X201339591Y-104747495D01*
X201331326Y-104770595D01*
X201320836Y-104792773D01*
X201308223Y-104813817D01*
X201293609Y-104833522D01*
X201277133Y-104851701D01*
X200746803Y-105382031D01*
X200728624Y-105398507D01*
X200708919Y-105413121D01*
X200687875Y-105425734D01*
X200665697Y-105436224D01*
X200642597Y-105444489D01*
X200618799Y-105450450D01*
X200594530Y-105454050D01*
X200570026Y-105455254D01*
X200545522Y-105454050D01*
X200521253Y-105450450D01*
X200497455Y-105444489D01*
X200474355Y-105436224D01*
X200452177Y-105425734D01*
X200431133Y-105413121D01*
X200411428Y-105398507D01*
X200393249Y-105382031D01*
X198872969Y-103861751D01*
X198856493Y-103843572D01*
X198841879Y-103823867D01*
X198829266Y-103802823D01*
X198818776Y-103780645D01*
X198810511Y-103757545D01*
X198804550Y-103733747D01*
X198800950Y-103709478D01*
X198799746Y-103684974D01*
X198800950Y-103660470D01*
X198804550Y-103636201D01*
X198810511Y-103612403D01*
X198818776Y-103589303D01*
X198829266Y-103567125D01*
X198841879Y-103546081D01*
X198856493Y-103526376D01*
X198872969Y-103508197D01*
X199403299Y-102977867D01*
X199421478Y-102961391D01*
X199441183Y-102946777D01*
X199462227Y-102934164D01*
X199484405Y-102923674D01*
X199507505Y-102915409D01*
X199531303Y-102909448D01*
X199555572Y-102905848D01*
X199580076Y-102904644D01*
X199604580Y-102905848D01*
X199604580Y-102905848D01*
G37*
D28*
X200075051Y-104179949D03*
D29*
X192450101Y-93270001D03*
X192450101Y-93920000D03*
X192450101Y-94569999D03*
X194329899Y-94569999D03*
X194329899Y-93920000D03*
X194329899Y-93270001D03*
D26*
X193390000Y-93920000D03*
M02*
