G04 #@! TF.GenerationSoftware,KiCad,Pcbnew,6.0.0-rc1-unknown-bb2e402~84~ubuntu18.04.1*
G04 #@! TF.CreationDate,2019-10-28T15:28:56-04:00
G04 #@! TF.ProjectId,apd,6170642e-6b69-4636-9164-5f7063625858,rev?*
G04 #@! TF.SameCoordinates,Original*
G04 #@! TF.FileFunction,Legend,Top*
G04 #@! TF.FilePolarity,Positive*
%FSLAX46Y46*%
G04 Gerber Fmt 4.6, Leading zero omitted, Abs format (unit mm)*
G04 Created by KiCad (PCBNEW 6.0.0-rc1-unknown-bb2e402~84~ubuntu18.04.1) date Mon 28 Oct 2019 03:28:56 PM EDT*
%MOMM*%
%LPD*%
G04 APERTURE LIST*
%ADD10C,0.100000*%
%ADD11C,0.200000*%
%ADD12C,0.120000*%
%ADD13C,0.127000*%
%ADD14C,0.150000*%
%ADD15C,0.250000*%
%ADD16C,0.152400*%
G04 APERTURE END LIST*
D10*
X205510000Y-95811428D02*
X205652857Y-96211428D01*
X205795714Y-95811428D01*
X206338571Y-96211428D02*
X205995714Y-96211428D01*
X206167142Y-96211428D02*
X206167142Y-95611428D01*
X206110000Y-95697142D01*
X206052857Y-95754285D01*
X205995714Y-95782857D01*
X206710000Y-95611428D02*
X206767142Y-95611428D01*
X206824285Y-95640000D01*
X206852857Y-95668571D01*
X206881428Y-95725714D01*
X206910000Y-95840000D01*
X206910000Y-95982857D01*
X206881428Y-96097142D01*
X206852857Y-96154285D01*
X206824285Y-96182857D01*
X206767142Y-96211428D01*
X206710000Y-96211428D01*
X206652857Y-96182857D01*
X206624285Y-96154285D01*
X206595714Y-96097142D01*
X206567142Y-95982857D01*
X206567142Y-95840000D01*
X206595714Y-95725714D01*
X206624285Y-95668571D01*
X206652857Y-95640000D01*
X206710000Y-95611428D01*
X207281428Y-95611428D02*
X207338571Y-95611428D01*
X207395714Y-95640000D01*
X207424285Y-95668571D01*
X207452857Y-95725714D01*
X207481428Y-95840000D01*
X207481428Y-95982857D01*
X207452857Y-96097142D01*
X207424285Y-96154285D01*
X207395714Y-96182857D01*
X207338571Y-96211428D01*
X207281428Y-96211428D01*
X207224285Y-96182857D01*
X207195714Y-96154285D01*
X207167142Y-96097142D01*
X207138571Y-95982857D01*
X207138571Y-95840000D01*
X207167142Y-95725714D01*
X207195714Y-95668571D01*
X207224285Y-95640000D01*
X207281428Y-95611428D01*
D11*
X203424761Y-93114761D02*
X203567619Y-93162380D01*
X203805714Y-93162380D01*
X203900952Y-93114761D01*
X203948571Y-93067142D01*
X203996190Y-92971904D01*
X203996190Y-92876666D01*
X203948571Y-92781428D01*
X203900952Y-92733809D01*
X203805714Y-92686190D01*
X203615238Y-92638571D01*
X203520000Y-92590952D01*
X203472380Y-92543333D01*
X203424761Y-92448095D01*
X203424761Y-92352857D01*
X203472380Y-92257619D01*
X203520000Y-92210000D01*
X203615238Y-92162380D01*
X203853333Y-92162380D01*
X203996190Y-92210000D01*
X204424761Y-93162380D02*
X204424761Y-92495714D01*
X204424761Y-92162380D02*
X204377142Y-92210000D01*
X204424761Y-92257619D01*
X204472380Y-92210000D01*
X204424761Y-92162380D01*
X204424761Y-92257619D01*
X204900952Y-93162380D02*
X204900952Y-92162380D01*
X205281904Y-92162380D01*
X205377142Y-92210000D01*
X205424761Y-92257619D01*
X205472380Y-92352857D01*
X205472380Y-92495714D01*
X205424761Y-92590952D01*
X205377142Y-92638571D01*
X205281904Y-92686190D01*
X204900952Y-92686190D01*
X205900952Y-93162380D02*
X205900952Y-92162380D01*
X206234285Y-92876666D01*
X206567619Y-92162380D01*
X206567619Y-93162380D01*
X203996190Y-94338571D02*
X204139047Y-94386190D01*
X204186666Y-94433809D01*
X204234285Y-94529047D01*
X204234285Y-94671904D01*
X204186666Y-94767142D01*
X204139047Y-94814761D01*
X204043809Y-94862380D01*
X203662857Y-94862380D01*
X203662857Y-93862380D01*
X203996190Y-93862380D01*
X204091428Y-93910000D01*
X204139047Y-93957619D01*
X204186666Y-94052857D01*
X204186666Y-94148095D01*
X204139047Y-94243333D01*
X204091428Y-94290952D01*
X203996190Y-94338571D01*
X203662857Y-94338571D01*
X204662857Y-94862380D02*
X204662857Y-94195714D01*
X204662857Y-93862380D02*
X204615238Y-93910000D01*
X204662857Y-93957619D01*
X204710476Y-93910000D01*
X204662857Y-93862380D01*
X204662857Y-93957619D01*
X205567619Y-94862380D02*
X205567619Y-94338571D01*
X205520000Y-94243333D01*
X205424761Y-94195714D01*
X205234285Y-94195714D01*
X205139047Y-94243333D01*
X205567619Y-94814761D02*
X205472380Y-94862380D01*
X205234285Y-94862380D01*
X205139047Y-94814761D01*
X205091428Y-94719523D01*
X205091428Y-94624285D01*
X205139047Y-94529047D01*
X205234285Y-94481428D01*
X205472380Y-94481428D01*
X205567619Y-94433809D01*
X205996190Y-94814761D02*
X206091428Y-94862380D01*
X206281904Y-94862380D01*
X206377142Y-94814761D01*
X206424761Y-94719523D01*
X206424761Y-94671904D01*
X206377142Y-94576666D01*
X206281904Y-94529047D01*
X206139047Y-94529047D01*
X206043809Y-94481428D01*
X205996190Y-94386190D01*
X205996190Y-94338571D01*
X206043809Y-94243333D01*
X206139047Y-94195714D01*
X206281904Y-94195714D01*
X206377142Y-94243333D01*
D12*
X203010749Y-89407366D02*
G75*
G02X196980000Y-89410000I-3010749J-10592634D01*
G01*
X205470000Y-97450000D02*
X206800000Y-97450000D01*
X205470000Y-98780000D02*
X205470000Y-97450000D01*
X208070000Y-97450000D02*
X210670000Y-97450000D01*
X208070000Y-100050000D02*
X208070000Y-97450000D01*
X205470000Y-100050000D02*
X208070000Y-100050000D01*
X210670000Y-97450000D02*
X210670000Y-102650000D01*
X205470000Y-100050000D02*
X205470000Y-102650000D01*
X205470000Y-102650000D02*
X210670000Y-102650000D01*
D13*
X197300000Y-95630000D02*
X202900000Y-95630000D01*
X197300000Y-98770000D02*
X202900000Y-98770000D01*
D11*
X197575000Y-95200000D02*
G75*
G03X197575000Y-95200000I-100000J0D01*
G01*
X202875000Y-99200000D02*
G75*
G03X202875000Y-99200000I-100000J0D01*
G01*
D14*
X189775000Y-103580000D02*
X189775000Y-95960000D01*
X189775000Y-95960000D02*
X191045000Y-95960000D01*
X191045000Y-95960000D02*
X191045000Y-103580000D01*
X191045000Y-103580000D02*
X189775000Y-103580000D01*
X190948815Y-96595000D02*
G75*
G03X190948815Y-96595000I-538815J0D01*
G01*
X189902000Y-97230000D02*
X189902000Y-96087000D01*
X189902000Y-96087000D02*
X190918000Y-96087000D01*
X190918000Y-96087000D02*
X190918000Y-97230000D01*
X190918000Y-97230000D02*
X189902000Y-97230000D01*
X189902000Y-97103000D02*
X190918000Y-97103000D01*
D10*
X191620443Y-103682423D02*
X191479022Y-103823845D01*
X191479022Y-103823845D02*
X191479022Y-104389530D01*
X191479022Y-104389530D02*
X191620443Y-104530952D01*
X191620443Y-104530952D02*
X191479022Y-104672373D01*
X195155977Y-107500800D02*
X194873134Y-107783643D01*
X194873134Y-107783643D02*
X194590292Y-107500800D01*
X194873134Y-100429732D02*
X194590292Y-100712575D01*
X194873134Y-100429732D02*
X195155977Y-100712575D01*
X198267247Y-103823845D02*
X198550090Y-104106687D01*
X198550090Y-104106687D02*
X198267247Y-104389530D01*
D15*
X205865000Y-107490000D02*
G75*
G03X205865000Y-107490000I-125000J0D01*
G01*
D12*
X199240000Y-108041000D02*
X200540000Y-108041000D01*
X201600942Y-104577389D02*
X202452389Y-103725942D01*
X199677611Y-102654058D02*
X200529058Y-101802611D01*
D16*
X192828462Y-92793000D02*
X192263000Y-92793000D01*
M02*
