G04 #@! TF.GenerationSoftware,KiCad,Pcbnew,(5.99.0-417-g8bd2765f3)*
G04 #@! TF.CreationDate,2020-07-21T00:47:38-04:00*
G04 #@! TF.ProjectId,bias,62696173-2e6b-4696-9361-645f70636258,rev?*
G04 #@! TF.SameCoordinates,Original*
G04 #@! TF.FileFunction,Copper,L2,Inr*
G04 #@! TF.FilePolarity,Positive*
%FSLAX46Y46*%
G04 Gerber Fmt 4.6, Leading zero omitted, Abs format (unit mm)*
G04 Created by KiCad (PCBNEW (5.99.0-417-g8bd2765f3)) date 2020-07-21 00:47:38*
%MOMM*%
%LPD*%
G04 APERTURE LIST*
%ADD10C,0.704800*%
%ADD11C,0.200000*%
%ADD12O,1.700000X1.200000*%
%ADD13R,1.700000X1.700000*%
%ADD14O,1.700000X1.700000*%
%ADD15C,0.600000*%
%ADD16C,0.254000*%
G04 APERTURE END LIST*
D10*
X190359200Y-97255400D03*
X190359200Y-103605400D03*
D11*
X194822334Y-103352874D03*
X195529441Y-104059981D03*
X196236548Y-104767087D03*
X194115228Y-104059981D03*
X194822334Y-104767087D03*
X195529441Y-105474194D03*
X193408121Y-104767087D03*
X194115228Y-105474194D03*
X194822334Y-106181301D03*
D12*
X195559240Y-96202680D03*
X203759239Y-96202680D03*
X195559240Y-99142680D03*
X203759239Y-99142680D03*
D13*
X207391000Y-98260000D03*
D14*
X209931000Y-98260000D03*
X207391000Y-100800000D03*
X209931000Y-100800000D03*
X207391000Y-103340000D03*
X209931000Y-103340000D03*
D15*
X190365500Y-98519100D03*
X190359200Y-99795400D03*
X190359200Y-101065400D03*
X195076399Y-93228401D03*
X199720200Y-111404400D03*
X204038200Y-109880400D03*
X206189202Y-107423638D03*
X193329400Y-93458400D03*
X203414200Y-106250400D03*
X203414200Y-107100400D03*
X204264200Y-107100400D03*
X206919200Y-94670400D03*
X199466200Y-107731128D03*
X202779200Y-100800400D03*
X197889200Y-102320400D03*
X193869200Y-92490400D03*
X196347600Y-94167000D03*
X193319400Y-94348400D03*
X192389200Y-99500400D03*
X199789200Y-106370400D03*
X208229200Y-96260400D03*
X204240000Y-90670000D03*
X195009200Y-100570400D03*
X202329200Y-105310400D03*
X202272406Y-108195168D03*
X191409200Y-99470400D03*
X197815200Y-108991400D03*
X194005200Y-109245400D03*
X205509200Y-108420400D03*
X204233742Y-106254173D03*
X204389200Y-103350400D03*
X206197200Y-105435400D03*
X198409240Y-97343280D03*
X200909240Y-97388360D03*
X203789280Y-94320360D03*
X195950840Y-101097080D03*
X199877680Y-100543360D03*
X199928480Y-98059240D03*
X199329040Y-96931480D03*
X191759400Y-93878400D03*
G36*
X203560798Y-89782229D02*
G01*
X204192549Y-90005549D01*
X204810427Y-90264878D01*
X205412328Y-90559331D01*
X205996279Y-90887943D01*
X206560365Y-91249636D01*
X207102690Y-91643198D01*
X207621446Y-92067314D01*
X208114952Y-92520609D01*
X208581526Y-93001541D01*
X209019667Y-93508562D01*
X209427857Y-94039914D01*
X209804825Y-94593943D01*
X210149242Y-95168696D01*
X210460022Y-95762359D01*
X210736108Y-96372917D01*
X210976587Y-96998346D01*
X211180665Y-97636586D01*
X211347675Y-98285547D01*
X211477036Y-98942970D01*
X211568349Y-99606831D01*
X211621294Y-100274804D01*
X211635699Y-100944742D01*
X211611517Y-101614372D01*
X211548831Y-102281486D01*
X211447839Y-102943932D01*
X211404082Y-103150354D01*
X211372922Y-102967094D01*
X211289477Y-102729476D01*
X211167188Y-102509315D01*
X211009554Y-102312907D01*
X210821080Y-102145866D01*
X210607156Y-102012969D01*
X210373899Y-101918016D01*
X210327251Y-101907717D01*
X210463795Y-101854754D01*
X210658517Y-101731179D01*
X210825529Y-101572137D01*
X210958469Y-101383683D01*
X211052272Y-101172997D01*
X211103563Y-100947238D01*
X211107218Y-100685560D01*
X211062250Y-100458455D01*
X210974365Y-100245233D01*
X210846739Y-100053141D01*
X210684234Y-99889497D01*
X210493038Y-99760533D01*
X210280434Y-99671163D01*
X210054520Y-99624789D01*
X209823901Y-99623179D01*
X209597361Y-99666394D01*
X209383531Y-99752787D01*
X209190552Y-99879069D01*
X209025778Y-100040428D01*
X208895482Y-100230719D01*
X208804630Y-100442695D01*
X208756680Y-100668278D01*
X208753460Y-100898881D01*
X208795092Y-101125716D01*
X208879991Y-101340146D01*
X209004922Y-101534001D01*
X209165127Y-101699898D01*
X209354504Y-101831519D01*
X209533751Y-101909830D01*
X209385147Y-101954272D01*
X209159470Y-102066053D01*
X208955854Y-102214261D01*
X208780120Y-102394656D01*
X208637293Y-102602083D01*
X208531457Y-102830609D01*
X208500379Y-102945392D01*
X208434365Y-102785233D01*
X208306739Y-102593141D01*
X208144234Y-102429497D01*
X207953038Y-102300533D01*
X207740434Y-102211163D01*
X207514520Y-102164789D01*
X207283901Y-102163179D01*
X207057361Y-102206394D01*
X206843531Y-102292787D01*
X206650552Y-102419069D01*
X206485778Y-102580428D01*
X206355482Y-102770719D01*
X206264630Y-102982695D01*
X206216680Y-103208278D01*
X206213460Y-103438881D01*
X206255092Y-103665716D01*
X206339991Y-103880146D01*
X206464922Y-104074001D01*
X206625127Y-104239898D01*
X206814504Y-104371519D01*
X207025839Y-104463849D01*
X207251084Y-104513372D01*
X207481658Y-104518201D01*
X207708778Y-104478155D01*
X207923795Y-104394754D01*
X208118517Y-104271179D01*
X208285529Y-104112137D01*
X208418469Y-103923683D01*
X208500880Y-103738583D01*
X208521097Y-103819970D01*
X208622123Y-104050662D01*
X208760575Y-104261033D01*
X208932493Y-104445071D01*
X209132960Y-104597510D01*
X209356246Y-104713992D01*
X209595966Y-104791190D01*
X209803000Y-104820839D01*
X209803000Y-103212000D01*
X210059000Y-103212000D01*
X210059000Y-104827642D01*
X210344022Y-104770948D01*
X210579216Y-104680901D01*
X210795877Y-104552512D01*
X210987807Y-104389455D01*
X211144202Y-104202741D01*
X211132427Y-104245877D01*
X210919060Y-104881053D01*
X210669473Y-105502918D01*
X210384513Y-106109367D01*
X210065090Y-106698450D01*
X209712314Y-107268126D01*
X209327330Y-107816550D01*
X208911390Y-108341937D01*
X208465924Y-108842476D01*
X207992363Y-109316562D01*
X207492293Y-109762607D01*
X206967414Y-110179095D01*
X206419389Y-110564709D01*
X205850121Y-110918109D01*
X205261391Y-111238186D01*
X204655263Y-111523821D01*
X204033675Y-111774098D01*
X203398721Y-111988177D01*
X202752486Y-112165352D01*
X202097140Y-112305032D01*
X201434820Y-112406758D01*
X200767759Y-112470188D01*
X200098136Y-112495113D01*
X199428198Y-112481453D01*
X198760155Y-112429249D01*
X198096231Y-112338678D01*
X197438633Y-112210043D01*
X196789518Y-112043763D01*
X196151029Y-111840387D01*
X195525347Y-111600609D01*
X194914460Y-111325191D01*
X194320473Y-111015082D01*
X193745317Y-110671292D01*
X193190894Y-110294957D01*
X192659066Y-109887341D01*
X192151585Y-109449786D01*
X191826411Y-109135020D01*
X193379200Y-109135020D01*
X193379200Y-109355780D01*
X193454705Y-109563228D01*
X193596607Y-109732342D01*
X193787793Y-109842722D01*
X194005200Y-109881057D01*
X194222607Y-109842722D01*
X194413793Y-109732342D01*
X194555695Y-109563228D01*
X194631200Y-109355780D01*
X194631200Y-109135020D01*
X194555695Y-108927572D01*
X194516634Y-108881020D01*
X197189200Y-108881020D01*
X197189200Y-109101780D01*
X197264705Y-109309228D01*
X197406607Y-109478342D01*
X197597793Y-109588722D01*
X197815200Y-109627057D01*
X198032607Y-109588722D01*
X198223793Y-109478342D01*
X198365695Y-109309228D01*
X198441200Y-109101780D01*
X198441200Y-108881020D01*
X198365695Y-108673572D01*
X198223793Y-108504458D01*
X198032607Y-108394078D01*
X197815200Y-108355743D01*
X197597793Y-108394078D01*
X197406607Y-108504458D01*
X197264705Y-108673572D01*
X197189200Y-108881020D01*
X194516634Y-108881020D01*
X194413793Y-108758458D01*
X194222607Y-108648078D01*
X194005200Y-108609743D01*
X193787793Y-108648078D01*
X193596607Y-108758458D01*
X193454705Y-108927572D01*
X193379200Y-109135020D01*
X191826411Y-109135020D01*
X191670117Y-108983729D01*
X191216290Y-108490748D01*
X190883640Y-108084788D01*
X201646406Y-108084788D01*
X201646406Y-108305548D01*
X201721911Y-108512996D01*
X201863813Y-108682110D01*
X202054999Y-108792490D01*
X202272406Y-108830825D01*
X202489813Y-108792490D01*
X202680999Y-108682110D01*
X202822901Y-108512996D01*
X202898406Y-108305548D01*
X202898406Y-108084788D01*
X202822901Y-107877340D01*
X202680999Y-107708226D01*
X202489813Y-107597846D01*
X202272406Y-107559511D01*
X202054999Y-107597846D01*
X201863813Y-107708226D01*
X201721911Y-107877340D01*
X201646406Y-108084788D01*
X190883640Y-108084788D01*
X190791582Y-107972443D01*
X190397413Y-107430551D01*
X190322021Y-107313258D01*
X205563202Y-107313258D01*
X205563202Y-107534018D01*
X205638707Y-107741466D01*
X205780609Y-107910580D01*
X205971795Y-108020960D01*
X206189202Y-108059295D01*
X206406609Y-108020960D01*
X206597795Y-107910580D01*
X206739697Y-107741466D01*
X206815202Y-107534018D01*
X206815202Y-107313258D01*
X206739697Y-107105810D01*
X206597795Y-106936696D01*
X206406609Y-106826316D01*
X206189202Y-106787981D01*
X205971795Y-106826316D01*
X205780609Y-106936696D01*
X205638707Y-107105810D01*
X205563202Y-107313258D01*
X190322021Y-107313258D01*
X190035119Y-106866910D01*
X189705838Y-106283290D01*
X189410710Y-105681705D01*
X189150693Y-105064109D01*
X189011047Y-104670453D01*
X192674121Y-104670453D01*
X192674121Y-104863721D01*
X192724143Y-105050400D01*
X192857336Y-105281102D01*
X192847483Y-105290955D01*
X192870794Y-105304414D01*
X192884253Y-105327725D01*
X192894106Y-105317872D01*
X193124808Y-105451065D01*
X193311487Y-105501087D01*
X193381228Y-105501087D01*
X193381228Y-105570828D01*
X193431250Y-105757507D01*
X193564443Y-105988209D01*
X193554590Y-105998062D01*
X193577901Y-106011521D01*
X193591360Y-106034832D01*
X193601213Y-106024979D01*
X193831915Y-106158172D01*
X194018594Y-106208194D01*
X194088334Y-106208194D01*
X194088334Y-106277935D01*
X194138356Y-106464614D01*
X194271549Y-106695316D01*
X194261696Y-106705169D01*
X194285007Y-106718628D01*
X194298466Y-106741939D01*
X194308319Y-106732086D01*
X194539021Y-106865279D01*
X194725700Y-106915301D01*
X194918968Y-106915301D01*
X195105647Y-106865279D01*
X195336349Y-106732086D01*
X195346202Y-106741939D01*
X195359661Y-106718628D01*
X195382972Y-106705169D01*
X195373119Y-106695316D01*
X195506312Y-106464614D01*
X195556334Y-106277935D01*
X195556334Y-106208194D01*
X195626075Y-106208194D01*
X195812754Y-106158172D01*
X196043456Y-106024979D01*
X196053309Y-106034832D01*
X196066768Y-106011521D01*
X196090079Y-105998062D01*
X196080226Y-105988209D01*
X196213419Y-105757507D01*
X196263441Y-105570828D01*
X196263441Y-105501087D01*
X196333182Y-105501087D01*
X196519861Y-105451065D01*
X196750563Y-105317872D01*
X196760416Y-105327725D01*
X196773875Y-105304414D01*
X196797186Y-105290955D01*
X196787333Y-105281102D01*
X196920526Y-105050400D01*
X196970548Y-104863721D01*
X196970548Y-104670453D01*
X196920526Y-104483774D01*
X196814543Y-104300201D01*
X198088267Y-104300201D01*
X201439757Y-107141994D01*
X202853101Y-107139127D01*
X202761138Y-105769520D01*
X202879695Y-105628228D01*
X202955200Y-105420780D01*
X202955200Y-105325020D01*
X205571200Y-105325020D01*
X205571200Y-105545780D01*
X205646705Y-105753228D01*
X205788607Y-105922342D01*
X205979793Y-106032722D01*
X206197200Y-106071057D01*
X206414607Y-106032722D01*
X206605793Y-105922342D01*
X206747695Y-105753228D01*
X206823200Y-105545780D01*
X206823200Y-105325020D01*
X206747695Y-105117572D01*
X206605793Y-104948458D01*
X206414607Y-104838078D01*
X206197200Y-104799743D01*
X205979793Y-104838078D01*
X205788607Y-104948458D01*
X205646705Y-105117572D01*
X205571200Y-105325020D01*
X202955200Y-105325020D01*
X202955200Y-105200020D01*
X202879694Y-104992572D01*
X202803602Y-104901888D01*
X202819203Y-104732230D01*
X204028111Y-103864768D01*
X204171793Y-103947722D01*
X204389200Y-103986057D01*
X204606607Y-103947722D01*
X204797793Y-103837342D01*
X204939695Y-103668228D01*
X205015200Y-103460780D01*
X205015200Y-103240020D01*
X204939695Y-103032572D01*
X204797793Y-102863458D01*
X204606607Y-102753078D01*
X204389200Y-102714743D01*
X204171793Y-102753078D01*
X203980607Y-102863458D01*
X203838705Y-103032572D01*
X203763200Y-103240020D01*
X203763200Y-103293010D01*
X201413906Y-100898881D01*
X206213460Y-100898881D01*
X206255092Y-101125716D01*
X206339991Y-101340146D01*
X206464922Y-101534001D01*
X206625127Y-101699898D01*
X206814504Y-101831519D01*
X207025839Y-101923849D01*
X207251084Y-101973372D01*
X207481658Y-101978201D01*
X207708778Y-101938155D01*
X207923795Y-101854754D01*
X208118517Y-101731179D01*
X208285529Y-101572137D01*
X208418469Y-101383683D01*
X208512272Y-101172997D01*
X208563563Y-100947238D01*
X208567218Y-100685560D01*
X208522250Y-100458455D01*
X208434365Y-100245233D01*
X208306739Y-100053141D01*
X208144234Y-99889497D01*
X207953038Y-99760533D01*
X207740434Y-99671163D01*
X207514520Y-99624789D01*
X207283901Y-99623179D01*
X207057361Y-99666394D01*
X206843531Y-99752787D01*
X206650552Y-99879069D01*
X206485778Y-100040428D01*
X206355482Y-100230719D01*
X206264630Y-100442695D01*
X206216680Y-100668278D01*
X206213460Y-100898881D01*
X201413906Y-100898881D01*
X201388139Y-100872623D01*
X198088267Y-104300201D01*
X196814543Y-104300201D01*
X196787333Y-104253072D01*
X196797186Y-104243219D01*
X196773875Y-104229760D01*
X196760416Y-104206449D01*
X196750563Y-104216302D01*
X196519861Y-104083109D01*
X196333182Y-104033087D01*
X196263441Y-104033087D01*
X196263441Y-103963347D01*
X196213419Y-103776668D01*
X196080226Y-103545966D01*
X196090079Y-103536113D01*
X196066768Y-103522654D01*
X196053309Y-103499343D01*
X196043456Y-103509196D01*
X195812754Y-103376003D01*
X195626075Y-103325981D01*
X195556334Y-103325981D01*
X195556334Y-103256240D01*
X195506312Y-103069561D01*
X195373119Y-102838859D01*
X195382972Y-102829006D01*
X195359661Y-102815547D01*
X195346202Y-102792236D01*
X195336349Y-102802089D01*
X195105647Y-102668896D01*
X194918968Y-102618874D01*
X194725700Y-102618874D01*
X194539021Y-102668896D01*
X194308319Y-102802089D01*
X194298466Y-102792236D01*
X194285007Y-102815547D01*
X194261696Y-102829006D01*
X194271549Y-102838859D01*
X194138356Y-103069561D01*
X194088334Y-103256240D01*
X194088334Y-103325981D01*
X194018594Y-103325981D01*
X193831915Y-103376003D01*
X193601213Y-103509196D01*
X193591360Y-103499343D01*
X193577901Y-103522654D01*
X193554590Y-103536113D01*
X193564443Y-103545966D01*
X193431250Y-103776668D01*
X193381228Y-103963347D01*
X193381228Y-104033087D01*
X193311487Y-104033087D01*
X193124808Y-104083109D01*
X192894106Y-104216302D01*
X192884253Y-104206449D01*
X192870794Y-104229760D01*
X192847483Y-104243219D01*
X192857336Y-104253072D01*
X192724143Y-104483774D01*
X192674121Y-104670453D01*
X189011047Y-104670453D01*
X188926674Y-104432612D01*
X188921612Y-104415224D01*
X189730396Y-104415224D01*
X190089040Y-104560127D01*
X190300355Y-104595868D01*
X190514417Y-104585399D01*
X190721236Y-104529207D01*
X190971272Y-104398491D01*
X190359200Y-103786419D01*
X189730396Y-104415224D01*
X188921612Y-104415224D01*
X188739370Y-103789242D01*
X188696362Y-103601937D01*
X189366991Y-103601937D01*
X189389394Y-103815080D01*
X189457043Y-104018439D01*
X189572110Y-104211471D01*
X190178181Y-103605400D01*
X190540219Y-103605400D01*
X191158449Y-104223630D01*
X191297357Y-103928433D01*
X191344888Y-103719225D01*
X191345659Y-103498458D01*
X191299589Y-103288924D01*
X191159619Y-102986000D01*
X190540219Y-103605400D01*
X190178181Y-103605400D01*
X189572693Y-102999912D01*
X189459949Y-103186071D01*
X189390881Y-103388955D01*
X189366991Y-103601937D01*
X188696362Y-103601937D01*
X188589414Y-103136170D01*
X188536085Y-102821926D01*
X189756745Y-102821926D01*
X190359200Y-103424381D01*
X190970385Y-102813195D01*
X190727677Y-102684144D01*
X190521254Y-102626509D01*
X190307272Y-102614545D01*
X190095711Y-102648810D01*
X189896447Y-102727705D01*
X189756745Y-102821926D01*
X188536085Y-102821926D01*
X188477298Y-102475530D01*
X188403399Y-101809553D01*
X188367958Y-101140408D01*
X188371093Y-100470323D01*
X188412795Y-99801565D01*
X188426832Y-99685020D01*
X189733200Y-99685020D01*
X189733200Y-99905780D01*
X189808705Y-100113228D01*
X189950607Y-100282342D01*
X190141793Y-100392722D01*
X190355474Y-100430400D01*
X190141793Y-100468078D01*
X189950607Y-100578458D01*
X189808705Y-100747572D01*
X189733200Y-100955020D01*
X189733200Y-101175780D01*
X189808705Y-101383228D01*
X189950607Y-101552342D01*
X190141793Y-101662722D01*
X190359200Y-101701057D01*
X190576607Y-101662722D01*
X190767793Y-101552342D01*
X190909695Y-101383228D01*
X190985200Y-101175780D01*
X190985200Y-100986700D01*
X195324840Y-100986700D01*
X195324840Y-101207460D01*
X195400345Y-101414908D01*
X195542247Y-101584022D01*
X195733433Y-101694402D01*
X195950840Y-101732737D01*
X196168247Y-101694402D01*
X196359433Y-101584022D01*
X196501335Y-101414908D01*
X196576840Y-101207460D01*
X196576840Y-100986700D01*
X196501335Y-100779252D01*
X196359433Y-100610138D01*
X196168247Y-100499758D01*
X195950840Y-100461423D01*
X195733433Y-100499758D01*
X195542247Y-100610138D01*
X195400345Y-100779252D01*
X195324840Y-100986700D01*
X190985200Y-100986700D01*
X190985200Y-100955020D01*
X190909695Y-100747572D01*
X190767793Y-100578458D01*
X190576607Y-100468078D01*
X190377558Y-100432980D01*
X199251680Y-100432980D01*
X199251680Y-100653740D01*
X199327185Y-100861188D01*
X199469087Y-101030302D01*
X199660273Y-101140682D01*
X199877680Y-101179017D01*
X200095087Y-101140682D01*
X200286273Y-101030302D01*
X200428175Y-100861188D01*
X200503680Y-100653740D01*
X200503680Y-100432980D01*
X200428175Y-100225532D01*
X200286273Y-100056418D01*
X200095087Y-99946038D01*
X199877680Y-99907703D01*
X199660273Y-99946038D01*
X199469087Y-100056418D01*
X199327185Y-100225532D01*
X199251680Y-100432980D01*
X190377558Y-100432980D01*
X190362926Y-100430400D01*
X190576607Y-100392722D01*
X190767793Y-100282342D01*
X190909695Y-100113228D01*
X190976772Y-99928936D01*
X191000607Y-99957342D01*
X191191793Y-100067722D01*
X191409200Y-100106057D01*
X191626607Y-100067722D01*
X191817793Y-99957342D01*
X191959695Y-99788228D01*
X192035200Y-99580780D01*
X192035200Y-99360020D01*
X192002683Y-99270680D01*
X194070751Y-99270680D01*
X194137165Y-99546258D01*
X194234625Y-99760611D01*
X194370860Y-99952668D01*
X194540955Y-100115498D01*
X194738772Y-100243226D01*
X194960060Y-100332408D01*
X195265399Y-100376680D01*
X195431240Y-100376680D01*
X195431240Y-99270680D01*
X195687240Y-99270680D01*
X195687240Y-100376680D01*
X195868051Y-100376680D01*
X196043645Y-100359927D01*
X196269592Y-100293641D01*
X196478928Y-100185826D01*
X196664100Y-100040372D01*
X196818426Y-99862526D01*
X196936339Y-99658707D01*
X197013584Y-99436265D01*
X197037586Y-99270680D01*
X202270750Y-99270680D01*
X202337164Y-99546258D01*
X202434624Y-99760611D01*
X202570859Y-99952668D01*
X202740954Y-100115498D01*
X202938771Y-100243226D01*
X203160059Y-100332408D01*
X203465398Y-100376680D01*
X203631239Y-100376680D01*
X203631239Y-99270680D01*
X203887239Y-99270680D01*
X203887239Y-100376680D01*
X204068050Y-100376680D01*
X204243644Y-100359927D01*
X204469591Y-100293641D01*
X204678927Y-100185826D01*
X204864099Y-100040372D01*
X205018425Y-99862526D01*
X205136338Y-99658707D01*
X205213583Y-99436265D01*
X205237585Y-99270680D01*
X203887239Y-99270680D01*
X203631239Y-99270680D01*
X202270750Y-99270680D01*
X197037586Y-99270680D01*
X195687240Y-99270680D01*
X195431240Y-99270680D01*
X194070751Y-99270680D01*
X192002683Y-99270680D01*
X191959695Y-99152572D01*
X191843992Y-99014680D01*
X194080894Y-99014680D01*
X195431240Y-99014680D01*
X195431240Y-97908680D01*
X195687240Y-97908680D01*
X195687240Y-99014680D01*
X197047729Y-99014680D01*
X202280893Y-99014680D01*
X203631239Y-99014680D01*
X203631239Y-97908680D01*
X203887239Y-97908680D01*
X203887239Y-99014680D01*
X205247728Y-99014680D01*
X205181314Y-98739102D01*
X205083854Y-98524749D01*
X204947619Y-98332692D01*
X204777524Y-98169862D01*
X204579707Y-98042134D01*
X204358419Y-97952952D01*
X204053080Y-97908680D01*
X203887239Y-97908680D01*
X203631239Y-97908680D01*
X203450428Y-97908680D01*
X203274834Y-97925433D01*
X203048887Y-97991719D01*
X202839551Y-98099534D01*
X202654379Y-98244988D01*
X202500053Y-98422834D01*
X202382140Y-98626653D01*
X202304895Y-98849095D01*
X202280893Y-99014680D01*
X197047729Y-99014680D01*
X196981315Y-98739102D01*
X196883855Y-98524749D01*
X196747620Y-98332692D01*
X196577525Y-98169862D01*
X196379708Y-98042134D01*
X196158420Y-97952952D01*
X195853081Y-97908680D01*
X195687240Y-97908680D01*
X195431240Y-97908680D01*
X195250429Y-97908680D01*
X195074835Y-97925433D01*
X194848888Y-97991719D01*
X194639552Y-98099534D01*
X194454380Y-98244988D01*
X194300054Y-98422834D01*
X194182141Y-98626653D01*
X194104896Y-98849095D01*
X194080894Y-99014680D01*
X191843992Y-99014680D01*
X191817793Y-98983458D01*
X191626607Y-98873078D01*
X191409200Y-98834743D01*
X191191793Y-98873078D01*
X191000607Y-98983458D01*
X190858705Y-99152572D01*
X190791628Y-99336864D01*
X190767793Y-99308458D01*
X190576607Y-99198078D01*
X190359200Y-99159743D01*
X190141793Y-99198078D01*
X189950607Y-99308458D01*
X189808705Y-99477572D01*
X189733200Y-99685020D01*
X188426832Y-99685020D01*
X188492928Y-99136285D01*
X188611222Y-98476729D01*
X188767286Y-97825083D01*
X188941099Y-97248229D01*
X189674468Y-97248229D01*
X189697764Y-97432631D01*
X189769790Y-97603976D01*
X189885242Y-97749639D01*
X190035612Y-97858890D01*
X190186502Y-97915005D01*
X190148093Y-97921778D01*
X189956907Y-98032158D01*
X189815005Y-98201272D01*
X189739500Y-98408720D01*
X189739500Y-98629480D01*
X189815005Y-98836928D01*
X189956907Y-99006042D01*
X190148093Y-99116422D01*
X190365500Y-99154757D01*
X190582907Y-99116422D01*
X190774093Y-99006042D01*
X190915995Y-98836928D01*
X190991500Y-98629480D01*
X190991500Y-98408720D01*
X190915995Y-98201272D01*
X190774093Y-98032158D01*
X190582907Y-97921778D01*
X190532824Y-97912947D01*
X190577613Y-97904403D01*
X190744098Y-97821759D01*
X190882224Y-97697390D01*
X190981818Y-97540456D01*
X191035733Y-97361878D01*
X191037815Y-97163114D01*
X190987651Y-96983445D01*
X190891366Y-96824460D01*
X190755874Y-96697225D01*
X190591158Y-96611113D01*
X190409351Y-96572469D01*
X190223850Y-96584140D01*
X190048321Y-96645266D01*
X189895696Y-96751343D01*
X189777219Y-96894557D01*
X189701620Y-97064356D01*
X189674468Y-97248229D01*
X188941099Y-97248229D01*
X188960598Y-97183516D01*
X189190531Y-96554110D01*
X189233728Y-96454134D01*
X193532081Y-96454134D01*
X193580150Y-96626882D01*
X193674774Y-96779196D01*
X193808341Y-96898830D01*
X193970118Y-96976167D01*
X194147100Y-97004990D01*
X194325056Y-96982982D01*
X194344001Y-96974803D01*
X194370860Y-97012668D01*
X194540955Y-97175498D01*
X194738772Y-97303226D01*
X194960060Y-97392408D01*
X195265399Y-97436680D01*
X195431240Y-97436680D01*
X195431240Y-96330680D01*
X195687240Y-96330680D01*
X195687240Y-97436680D01*
X195868051Y-97436680D01*
X196043645Y-97419927D01*
X196269592Y-97353641D01*
X196478928Y-97245826D01*
X196495383Y-97232900D01*
X197783240Y-97232900D01*
X197783240Y-97453660D01*
X197858745Y-97661108D01*
X198000647Y-97830222D01*
X198191833Y-97940602D01*
X198409240Y-97978937D01*
X198579813Y-97948860D01*
X199302480Y-97948860D01*
X199302480Y-98169620D01*
X199377985Y-98377068D01*
X199519887Y-98546182D01*
X199711073Y-98656562D01*
X199928480Y-98694897D01*
X200145887Y-98656562D01*
X200337073Y-98546182D01*
X200478975Y-98377068D01*
X200554480Y-98169620D01*
X200554480Y-97948860D01*
X200534906Y-97895081D01*
X200691833Y-97985682D01*
X200909240Y-98024017D01*
X201126647Y-97985682D01*
X201317833Y-97875302D01*
X201459735Y-97706188D01*
X201535240Y-97498740D01*
X201535240Y-97277980D01*
X201459735Y-97070532D01*
X201317833Y-96901418D01*
X201126647Y-96791038D01*
X200909240Y-96752703D01*
X200691833Y-96791038D01*
X200500647Y-96901418D01*
X200358745Y-97070532D01*
X200283240Y-97277980D01*
X200283240Y-97498740D01*
X200302814Y-97552519D01*
X200145887Y-97461918D01*
X199928480Y-97423583D01*
X199711073Y-97461918D01*
X199519887Y-97572298D01*
X199377985Y-97741412D01*
X199302480Y-97948860D01*
X198579813Y-97948860D01*
X198626647Y-97940602D01*
X198817833Y-97830222D01*
X198959735Y-97661108D01*
X199025905Y-97479308D01*
X199111633Y-97528802D01*
X199329040Y-97567137D01*
X199546447Y-97528802D01*
X199737633Y-97418422D01*
X199879535Y-97249308D01*
X199955040Y-97041860D01*
X199955040Y-96821100D01*
X199879535Y-96613652D01*
X199737633Y-96444538D01*
X199546447Y-96334158D01*
X199526723Y-96330680D01*
X202270750Y-96330680D01*
X202337164Y-96606258D01*
X202434624Y-96820611D01*
X202570859Y-97012668D01*
X202740954Y-97175498D01*
X202938771Y-97303226D01*
X203160059Y-97392408D01*
X203465398Y-97436680D01*
X203631239Y-97436680D01*
X203631239Y-96330680D01*
X202270750Y-96330680D01*
X199526723Y-96330680D01*
X199329040Y-96295823D01*
X199111633Y-96334158D01*
X198920447Y-96444538D01*
X198778545Y-96613652D01*
X198712375Y-96795452D01*
X198626647Y-96745958D01*
X198409240Y-96707623D01*
X198191833Y-96745958D01*
X198000647Y-96856338D01*
X197858745Y-97025452D01*
X197783240Y-97232900D01*
X196495383Y-97232900D01*
X196664100Y-97100372D01*
X196818426Y-96922526D01*
X196936339Y-96718707D01*
X197013584Y-96496265D01*
X197037586Y-96330680D01*
X195687240Y-96330680D01*
X195431240Y-96330680D01*
X195431240Y-94968680D01*
X195687240Y-94968680D01*
X195687240Y-96074680D01*
X197047729Y-96074680D01*
X202280893Y-96074680D01*
X203631239Y-96074680D01*
X203631239Y-94968680D01*
X203887239Y-94968680D01*
X203887239Y-97436680D01*
X204068050Y-97436680D01*
X204243644Y-97419927D01*
X204319783Y-97397590D01*
X206211082Y-97397590D01*
X206211082Y-99122410D01*
X206233914Y-99237199D01*
X206305967Y-99345033D01*
X206413801Y-99417086D01*
X206528590Y-99439918D01*
X208253410Y-99439918D01*
X208368199Y-99417086D01*
X208476033Y-99345033D01*
X208548086Y-99237199D01*
X208570918Y-99122410D01*
X208570918Y-98358881D01*
X208753460Y-98358881D01*
X208795092Y-98585716D01*
X208879991Y-98800146D01*
X209004922Y-98994001D01*
X209165127Y-99159898D01*
X209354504Y-99291519D01*
X209565839Y-99383849D01*
X209791084Y-99433372D01*
X210021658Y-99438201D01*
X210248778Y-99398155D01*
X210463795Y-99314754D01*
X210658517Y-99191179D01*
X210825529Y-99032137D01*
X210958469Y-98843683D01*
X211052272Y-98632997D01*
X211103563Y-98407238D01*
X211107218Y-98145560D01*
X211062250Y-97918455D01*
X210974365Y-97705233D01*
X210846739Y-97513141D01*
X210684234Y-97349497D01*
X210493038Y-97220533D01*
X210280434Y-97131163D01*
X210054520Y-97084789D01*
X209823901Y-97083179D01*
X209597361Y-97126394D01*
X209383531Y-97212787D01*
X209190552Y-97339069D01*
X209025778Y-97500428D01*
X208895482Y-97690719D01*
X208804630Y-97902695D01*
X208756680Y-98128278D01*
X208753460Y-98358881D01*
X208570918Y-98358881D01*
X208570918Y-97397590D01*
X208548086Y-97282801D01*
X208476033Y-97174967D01*
X208368199Y-97102914D01*
X208253410Y-97080082D01*
X206528590Y-97080082D01*
X206413801Y-97102914D01*
X206305967Y-97174967D01*
X206233914Y-97282801D01*
X206211082Y-97397590D01*
X204319783Y-97397590D01*
X204469591Y-97353641D01*
X204678927Y-97245826D01*
X204864099Y-97100372D01*
X204971661Y-96976418D01*
X205147100Y-97004990D01*
X205325056Y-96982982D01*
X205489681Y-96911913D01*
X205627745Y-96797494D01*
X205728145Y-96648924D01*
X205783050Y-96477401D01*
X205785578Y-96284325D01*
X205735181Y-96111422D01*
X205638705Y-95960275D01*
X205503684Y-95842282D01*
X205340975Y-95766928D01*
X205163656Y-95740269D01*
X205155095Y-95741434D01*
X205083854Y-95584749D01*
X204947619Y-95392692D01*
X204777524Y-95229862D01*
X204579707Y-95102134D01*
X204358419Y-95012952D01*
X204053080Y-94968680D01*
X203887239Y-94968680D01*
X203631239Y-94968680D01*
X203450428Y-94968680D01*
X203274834Y-94985433D01*
X203048887Y-95051719D01*
X202839551Y-95159534D01*
X202654379Y-95304988D01*
X202500053Y-95482834D01*
X202382140Y-95686653D01*
X202304895Y-95909095D01*
X202280893Y-96074680D01*
X197047729Y-96074680D01*
X196981315Y-95799102D01*
X196883855Y-95584749D01*
X196747620Y-95392692D01*
X196577525Y-95229862D01*
X196379708Y-95102134D01*
X196158420Y-95012952D01*
X195853081Y-94968680D01*
X195687240Y-94968680D01*
X195431240Y-94968680D01*
X195250429Y-94968680D01*
X195074835Y-94985433D01*
X194848888Y-95051719D01*
X194639552Y-95159534D01*
X194454380Y-95304988D01*
X194300054Y-95482834D01*
X194182141Y-95686653D01*
X194163516Y-95740287D01*
X193985981Y-95764449D01*
X193822235Y-95837525D01*
X193685581Y-95953621D01*
X193587004Y-96103405D01*
X193534428Y-96274836D01*
X193532081Y-96454134D01*
X189233728Y-96454134D01*
X189456308Y-95938997D01*
X189757052Y-95340205D01*
X190091769Y-94759713D01*
X190459344Y-94199457D01*
X190779385Y-93768020D01*
X191133400Y-93768020D01*
X191133400Y-93988780D01*
X191208905Y-94196228D01*
X191350807Y-94365342D01*
X191541993Y-94475722D01*
X191759400Y-94514057D01*
X191976807Y-94475722D01*
X192167993Y-94365342D01*
X192309895Y-94196228D01*
X192385400Y-93988780D01*
X192385400Y-93768020D01*
X192309895Y-93560572D01*
X192167993Y-93391458D01*
X191976807Y-93281078D01*
X191759400Y-93242743D01*
X191541993Y-93281078D01*
X191350807Y-93391458D01*
X191208905Y-93560572D01*
X191133400Y-93768020D01*
X190779385Y-93768020D01*
X190858560Y-93661287D01*
X191288097Y-93146986D01*
X191315266Y-93118021D01*
X194450399Y-93118021D01*
X194450399Y-93338781D01*
X194525904Y-93546229D01*
X194667806Y-93715343D01*
X194858992Y-93825723D01*
X195076399Y-93864058D01*
X195293806Y-93825723D01*
X195484992Y-93715343D01*
X195626894Y-93546229D01*
X195702399Y-93338781D01*
X195702399Y-93118021D01*
X195626894Y-92910573D01*
X195484992Y-92741459D01*
X195293806Y-92631079D01*
X195076399Y-92592744D01*
X194858992Y-92631079D01*
X194667806Y-92741459D01*
X194525904Y-92910573D01*
X194450399Y-93118021D01*
X191315266Y-93118021D01*
X191746531Y-92658260D01*
X192232325Y-92196745D01*
X192743889Y-91763952D01*
X193279509Y-91361332D01*
X193837430Y-90990203D01*
X194415776Y-90651814D01*
X195012658Y-90347268D01*
X195626074Y-90077591D01*
X196253985Y-89843677D01*
X196646422Y-89722708D01*
X196623560Y-91936882D01*
X196617882Y-91963154D01*
X196618086Y-91977762D01*
X196618943Y-92042786D01*
X196618721Y-92044300D01*
X196619009Y-92047848D01*
X196619048Y-92050777D01*
X196619348Y-92052019D01*
X196619906Y-92058877D01*
X196648884Y-92417823D01*
X196650287Y-92422281D01*
X196650141Y-92427097D01*
X196652993Y-92441441D01*
X196723036Y-92794675D01*
X196724942Y-92798943D01*
X196725354Y-92803784D01*
X196729833Y-92817668D01*
X196729832Y-92817668D01*
X196840011Y-93160510D01*
X196842394Y-93164529D01*
X196843346Y-93169223D01*
X196849404Y-93182566D01*
X196998258Y-93510476D01*
X197001088Y-93514195D01*
X197002544Y-93518660D01*
X197010079Y-93531232D01*
X197195681Y-93839933D01*
X197198918Y-93843300D01*
X197200911Y-93847641D01*
X197209856Y-93859254D01*
X197429663Y-94144517D01*
X197433264Y-94147489D01*
X197435743Y-94151572D01*
X197445965Y-94162080D01*
X197697098Y-94420184D01*
X197701022Y-94422726D01*
X197703926Y-94426461D01*
X197715278Y-94435731D01*
X197994451Y-94663293D01*
X197998639Y-94665366D01*
X198001923Y-94668712D01*
X198014263Y-94676624D01*
X198317770Y-94870607D01*
X198322169Y-94872185D01*
X198325824Y-94875138D01*
X198338989Y-94881577D01*
X198662777Y-95039390D01*
X198667333Y-95040453D01*
X198671365Y-95043005D01*
X198685189Y-95047872D01*
X199024901Y-95167399D01*
X199029542Y-95167931D01*
X199033881Y-95170022D01*
X199048210Y-95173266D01*
X199399336Y-95252940D01*
X199404006Y-95252934D01*
X199408619Y-95254535D01*
X199423098Y-95256081D01*
X199781115Y-95294875D01*
X199785756Y-95294333D01*
X199790327Y-95295349D01*
X199804982Y-95295266D01*
X200165192Y-95292653D01*
X200169739Y-95291581D01*
X200174550Y-95292081D01*
X200189046Y-95290284D01*
X200189046Y-95290285D01*
X200546463Y-95246301D01*
X200550858Y-95244713D01*
X200555592Y-95244658D01*
X200569841Y-95241219D01*
X200919882Y-95156433D01*
X200924064Y-95154351D01*
X200928857Y-95153740D01*
X200942566Y-95148680D01*
X201280497Y-95024241D01*
X201284411Y-95021693D01*
X201289174Y-95020517D01*
X201302139Y-95013932D01*
X201623528Y-94851478D01*
X201627126Y-94848495D01*
X201631570Y-94846836D01*
X201643809Y-94838772D01*
X201944430Y-94640431D01*
X201947658Y-94637056D01*
X201952032Y-94634822D01*
X201963144Y-94625454D01*
X202238945Y-94393901D01*
X202241764Y-94390179D01*
X202245718Y-94387545D01*
X202255793Y-94376897D01*
X202413551Y-94209980D01*
X203163280Y-94209980D01*
X203163280Y-94430740D01*
X203238785Y-94638188D01*
X203380687Y-94807302D01*
X203571873Y-94917682D01*
X203789280Y-94956017D01*
X204006687Y-94917682D01*
X204197873Y-94807302D01*
X204339775Y-94638188D01*
X204415280Y-94430740D01*
X204415280Y-94209980D01*
X204339775Y-94002532D01*
X204197873Y-93833418D01*
X204006687Y-93723038D01*
X203789280Y-93684703D01*
X203571873Y-93723038D01*
X203380687Y-93833418D01*
X203238785Y-94002532D01*
X203163280Y-94209980D01*
X202413551Y-94209980D01*
X202503173Y-94115155D01*
X202505546Y-94111133D01*
X202509182Y-94108053D01*
X202517963Y-94096317D01*
X202733614Y-93807884D01*
X202735509Y-93803616D01*
X202738753Y-93800153D01*
X202746131Y-93787487D01*
X202927211Y-93476165D01*
X202928603Y-93471706D01*
X202931471Y-93467835D01*
X202937316Y-93454426D01*
X203081397Y-93124393D01*
X203082268Y-93119801D01*
X203084694Y-93115587D01*
X203088936Y-93101638D01*
X203194130Y-92757233D01*
X203194467Y-92752569D01*
X203196329Y-92748253D01*
X203198990Y-92733842D01*
X203263915Y-92379544D01*
X203263714Y-92374875D01*
X203265076Y-92370345D01*
X203266057Y-92355721D01*
X203289828Y-91996336D01*
X203284868Y-91965253D01*
X203319563Y-89712290D01*
X203560798Y-89782229D01*
G37*
D16*
X203560798Y-89782229D02*
X204192549Y-90005549D01*
X204810427Y-90264878D01*
X205412328Y-90559331D01*
X205996279Y-90887943D01*
X206560365Y-91249636D01*
X207102690Y-91643198D01*
X207621446Y-92067314D01*
X208114952Y-92520609D01*
X208581526Y-93001541D01*
X209019667Y-93508562D01*
X209427857Y-94039914D01*
X209804825Y-94593943D01*
X210149242Y-95168696D01*
X210460022Y-95762359D01*
X210736108Y-96372917D01*
X210976587Y-96998346D01*
X211180665Y-97636586D01*
X211347675Y-98285547D01*
X211477036Y-98942970D01*
X211568349Y-99606831D01*
X211621294Y-100274804D01*
X211635699Y-100944742D01*
X211611517Y-101614372D01*
X211548831Y-102281486D01*
X211447839Y-102943932D01*
X211404082Y-103150354D01*
X211372922Y-102967094D01*
X211289477Y-102729476D01*
X211167188Y-102509315D01*
X211009554Y-102312907D01*
X210821080Y-102145866D01*
X210607156Y-102012969D01*
X210373899Y-101918016D01*
X210327251Y-101907717D01*
X210463795Y-101854754D01*
X210658517Y-101731179D01*
X210825529Y-101572137D01*
X210958469Y-101383683D01*
X211052272Y-101172997D01*
X211103563Y-100947238D01*
X211107218Y-100685560D01*
X211062250Y-100458455D01*
X210974365Y-100245233D01*
X210846739Y-100053141D01*
X210684234Y-99889497D01*
X210493038Y-99760533D01*
X210280434Y-99671163D01*
X210054520Y-99624789D01*
X209823901Y-99623179D01*
X209597361Y-99666394D01*
X209383531Y-99752787D01*
X209190552Y-99879069D01*
X209025778Y-100040428D01*
X208895482Y-100230719D01*
X208804630Y-100442695D01*
X208756680Y-100668278D01*
X208753460Y-100898881D01*
X208795092Y-101125716D01*
X208879991Y-101340146D01*
X209004922Y-101534001D01*
X209165127Y-101699898D01*
X209354504Y-101831519D01*
X209533751Y-101909830D01*
X209385147Y-101954272D01*
X209159470Y-102066053D01*
X208955854Y-102214261D01*
X208780120Y-102394656D01*
X208637293Y-102602083D01*
X208531457Y-102830609D01*
X208500379Y-102945392D01*
X208434365Y-102785233D01*
X208306739Y-102593141D01*
X208144234Y-102429497D01*
X207953038Y-102300533D01*
X207740434Y-102211163D01*
X207514520Y-102164789D01*
X207283901Y-102163179D01*
X207057361Y-102206394D01*
X206843531Y-102292787D01*
X206650552Y-102419069D01*
X206485778Y-102580428D01*
X206355482Y-102770719D01*
X206264630Y-102982695D01*
X206216680Y-103208278D01*
X206213460Y-103438881D01*
X206255092Y-103665716D01*
X206339991Y-103880146D01*
X206464922Y-104074001D01*
X206625127Y-104239898D01*
X206814504Y-104371519D01*
X207025839Y-104463849D01*
X207251084Y-104513372D01*
X207481658Y-104518201D01*
X207708778Y-104478155D01*
X207923795Y-104394754D01*
X208118517Y-104271179D01*
X208285529Y-104112137D01*
X208418469Y-103923683D01*
X208500880Y-103738583D01*
X208521097Y-103819970D01*
X208622123Y-104050662D01*
X208760575Y-104261033D01*
X208932493Y-104445071D01*
X209132960Y-104597510D01*
X209356246Y-104713992D01*
X209595966Y-104791190D01*
X209803000Y-104820839D01*
X209803000Y-103212000D01*
X210059000Y-103212000D01*
X210059000Y-104827642D01*
X210344022Y-104770948D01*
X210579216Y-104680901D01*
X210795877Y-104552512D01*
X210987807Y-104389455D01*
X211144202Y-104202741D01*
X211132427Y-104245877D01*
X210919060Y-104881053D01*
X210669473Y-105502918D01*
X210384513Y-106109367D01*
X210065090Y-106698450D01*
X209712314Y-107268126D01*
X209327330Y-107816550D01*
X208911390Y-108341937D01*
X208465924Y-108842476D01*
X207992363Y-109316562D01*
X207492293Y-109762607D01*
X206967414Y-110179095D01*
X206419389Y-110564709D01*
X205850121Y-110918109D01*
X205261391Y-111238186D01*
X204655263Y-111523821D01*
X204033675Y-111774098D01*
X203398721Y-111988177D01*
X202752486Y-112165352D01*
X202097140Y-112305032D01*
X201434820Y-112406758D01*
X200767759Y-112470188D01*
X200098136Y-112495113D01*
X199428198Y-112481453D01*
X198760155Y-112429249D01*
X198096231Y-112338678D01*
X197438633Y-112210043D01*
X196789518Y-112043763D01*
X196151029Y-111840387D01*
X195525347Y-111600609D01*
X194914460Y-111325191D01*
X194320473Y-111015082D01*
X193745317Y-110671292D01*
X193190894Y-110294957D01*
X192659066Y-109887341D01*
X192151585Y-109449786D01*
X191826411Y-109135020D01*
X193379200Y-109135020D01*
X193379200Y-109355780D01*
X193454705Y-109563228D01*
X193596607Y-109732342D01*
X193787793Y-109842722D01*
X194005200Y-109881057D01*
X194222607Y-109842722D01*
X194413793Y-109732342D01*
X194555695Y-109563228D01*
X194631200Y-109355780D01*
X194631200Y-109135020D01*
X194555695Y-108927572D01*
X194516634Y-108881020D01*
X197189200Y-108881020D01*
X197189200Y-109101780D01*
X197264705Y-109309228D01*
X197406607Y-109478342D01*
X197597793Y-109588722D01*
X197815200Y-109627057D01*
X198032607Y-109588722D01*
X198223793Y-109478342D01*
X198365695Y-109309228D01*
X198441200Y-109101780D01*
X198441200Y-108881020D01*
X198365695Y-108673572D01*
X198223793Y-108504458D01*
X198032607Y-108394078D01*
X197815200Y-108355743D01*
X197597793Y-108394078D01*
X197406607Y-108504458D01*
X197264705Y-108673572D01*
X197189200Y-108881020D01*
X194516634Y-108881020D01*
X194413793Y-108758458D01*
X194222607Y-108648078D01*
X194005200Y-108609743D01*
X193787793Y-108648078D01*
X193596607Y-108758458D01*
X193454705Y-108927572D01*
X193379200Y-109135020D01*
X191826411Y-109135020D01*
X191670117Y-108983729D01*
X191216290Y-108490748D01*
X190883640Y-108084788D01*
X201646406Y-108084788D01*
X201646406Y-108305548D01*
X201721911Y-108512996D01*
X201863813Y-108682110D01*
X202054999Y-108792490D01*
X202272406Y-108830825D01*
X202489813Y-108792490D01*
X202680999Y-108682110D01*
X202822901Y-108512996D01*
X202898406Y-108305548D01*
X202898406Y-108084788D01*
X202822901Y-107877340D01*
X202680999Y-107708226D01*
X202489813Y-107597846D01*
X202272406Y-107559511D01*
X202054999Y-107597846D01*
X201863813Y-107708226D01*
X201721911Y-107877340D01*
X201646406Y-108084788D01*
X190883640Y-108084788D01*
X190791582Y-107972443D01*
X190397413Y-107430551D01*
X190322021Y-107313258D01*
X205563202Y-107313258D01*
X205563202Y-107534018D01*
X205638707Y-107741466D01*
X205780609Y-107910580D01*
X205971795Y-108020960D01*
X206189202Y-108059295D01*
X206406609Y-108020960D01*
X206597795Y-107910580D01*
X206739697Y-107741466D01*
X206815202Y-107534018D01*
X206815202Y-107313258D01*
X206739697Y-107105810D01*
X206597795Y-106936696D01*
X206406609Y-106826316D01*
X206189202Y-106787981D01*
X205971795Y-106826316D01*
X205780609Y-106936696D01*
X205638707Y-107105810D01*
X205563202Y-107313258D01*
X190322021Y-107313258D01*
X190035119Y-106866910D01*
X189705838Y-106283290D01*
X189410710Y-105681705D01*
X189150693Y-105064109D01*
X189011047Y-104670453D01*
X192674121Y-104670453D01*
X192674121Y-104863721D01*
X192724143Y-105050400D01*
X192857336Y-105281102D01*
X192847483Y-105290955D01*
X192870794Y-105304414D01*
X192884253Y-105327725D01*
X192894106Y-105317872D01*
X193124808Y-105451065D01*
X193311487Y-105501087D01*
X193381228Y-105501087D01*
X193381228Y-105570828D01*
X193431250Y-105757507D01*
X193564443Y-105988209D01*
X193554590Y-105998062D01*
X193577901Y-106011521D01*
X193591360Y-106034832D01*
X193601213Y-106024979D01*
X193831915Y-106158172D01*
X194018594Y-106208194D01*
X194088334Y-106208194D01*
X194088334Y-106277935D01*
X194138356Y-106464614D01*
X194271549Y-106695316D01*
X194261696Y-106705169D01*
X194285007Y-106718628D01*
X194298466Y-106741939D01*
X194308319Y-106732086D01*
X194539021Y-106865279D01*
X194725700Y-106915301D01*
X194918968Y-106915301D01*
X195105647Y-106865279D01*
X195336349Y-106732086D01*
X195346202Y-106741939D01*
X195359661Y-106718628D01*
X195382972Y-106705169D01*
X195373119Y-106695316D01*
X195506312Y-106464614D01*
X195556334Y-106277935D01*
X195556334Y-106208194D01*
X195626075Y-106208194D01*
X195812754Y-106158172D01*
X196043456Y-106024979D01*
X196053309Y-106034832D01*
X196066768Y-106011521D01*
X196090079Y-105998062D01*
X196080226Y-105988209D01*
X196213419Y-105757507D01*
X196263441Y-105570828D01*
X196263441Y-105501087D01*
X196333182Y-105501087D01*
X196519861Y-105451065D01*
X196750563Y-105317872D01*
X196760416Y-105327725D01*
X196773875Y-105304414D01*
X196797186Y-105290955D01*
X196787333Y-105281102D01*
X196920526Y-105050400D01*
X196970548Y-104863721D01*
X196970548Y-104670453D01*
X196920526Y-104483774D01*
X196814543Y-104300201D01*
X198088267Y-104300201D01*
X201439757Y-107141994D01*
X202853101Y-107139127D01*
X202761138Y-105769520D01*
X202879695Y-105628228D01*
X202955200Y-105420780D01*
X202955200Y-105325020D01*
X205571200Y-105325020D01*
X205571200Y-105545780D01*
X205646705Y-105753228D01*
X205788607Y-105922342D01*
X205979793Y-106032722D01*
X206197200Y-106071057D01*
X206414607Y-106032722D01*
X206605793Y-105922342D01*
X206747695Y-105753228D01*
X206823200Y-105545780D01*
X206823200Y-105325020D01*
X206747695Y-105117572D01*
X206605793Y-104948458D01*
X206414607Y-104838078D01*
X206197200Y-104799743D01*
X205979793Y-104838078D01*
X205788607Y-104948458D01*
X205646705Y-105117572D01*
X205571200Y-105325020D01*
X202955200Y-105325020D01*
X202955200Y-105200020D01*
X202879694Y-104992572D01*
X202803602Y-104901888D01*
X202819203Y-104732230D01*
X204028111Y-103864768D01*
X204171793Y-103947722D01*
X204389200Y-103986057D01*
X204606607Y-103947722D01*
X204797793Y-103837342D01*
X204939695Y-103668228D01*
X205015200Y-103460780D01*
X205015200Y-103240020D01*
X204939695Y-103032572D01*
X204797793Y-102863458D01*
X204606607Y-102753078D01*
X204389200Y-102714743D01*
X204171793Y-102753078D01*
X203980607Y-102863458D01*
X203838705Y-103032572D01*
X203763200Y-103240020D01*
X203763200Y-103293010D01*
X201413906Y-100898881D01*
X206213460Y-100898881D01*
X206255092Y-101125716D01*
X206339991Y-101340146D01*
X206464922Y-101534001D01*
X206625127Y-101699898D01*
X206814504Y-101831519D01*
X207025839Y-101923849D01*
X207251084Y-101973372D01*
X207481658Y-101978201D01*
X207708778Y-101938155D01*
X207923795Y-101854754D01*
X208118517Y-101731179D01*
X208285529Y-101572137D01*
X208418469Y-101383683D01*
X208512272Y-101172997D01*
X208563563Y-100947238D01*
X208567218Y-100685560D01*
X208522250Y-100458455D01*
X208434365Y-100245233D01*
X208306739Y-100053141D01*
X208144234Y-99889497D01*
X207953038Y-99760533D01*
X207740434Y-99671163D01*
X207514520Y-99624789D01*
X207283901Y-99623179D01*
X207057361Y-99666394D01*
X206843531Y-99752787D01*
X206650552Y-99879069D01*
X206485778Y-100040428D01*
X206355482Y-100230719D01*
X206264630Y-100442695D01*
X206216680Y-100668278D01*
X206213460Y-100898881D01*
X201413906Y-100898881D01*
X201388139Y-100872623D01*
X198088267Y-104300201D01*
X196814543Y-104300201D01*
X196787333Y-104253072D01*
X196797186Y-104243219D01*
X196773875Y-104229760D01*
X196760416Y-104206449D01*
X196750563Y-104216302D01*
X196519861Y-104083109D01*
X196333182Y-104033087D01*
X196263441Y-104033087D01*
X196263441Y-103963347D01*
X196213419Y-103776668D01*
X196080226Y-103545966D01*
X196090079Y-103536113D01*
X196066768Y-103522654D01*
X196053309Y-103499343D01*
X196043456Y-103509196D01*
X195812754Y-103376003D01*
X195626075Y-103325981D01*
X195556334Y-103325981D01*
X195556334Y-103256240D01*
X195506312Y-103069561D01*
X195373119Y-102838859D01*
X195382972Y-102829006D01*
X195359661Y-102815547D01*
X195346202Y-102792236D01*
X195336349Y-102802089D01*
X195105647Y-102668896D01*
X194918968Y-102618874D01*
X194725700Y-102618874D01*
X194539021Y-102668896D01*
X194308319Y-102802089D01*
X194298466Y-102792236D01*
X194285007Y-102815547D01*
X194261696Y-102829006D01*
X194271549Y-102838859D01*
X194138356Y-103069561D01*
X194088334Y-103256240D01*
X194088334Y-103325981D01*
X194018594Y-103325981D01*
X193831915Y-103376003D01*
X193601213Y-103509196D01*
X193591360Y-103499343D01*
X193577901Y-103522654D01*
X193554590Y-103536113D01*
X193564443Y-103545966D01*
X193431250Y-103776668D01*
X193381228Y-103963347D01*
X193381228Y-104033087D01*
X193311487Y-104033087D01*
X193124808Y-104083109D01*
X192894106Y-104216302D01*
X192884253Y-104206449D01*
X192870794Y-104229760D01*
X192847483Y-104243219D01*
X192857336Y-104253072D01*
X192724143Y-104483774D01*
X192674121Y-104670453D01*
X189011047Y-104670453D01*
X188926674Y-104432612D01*
X188921612Y-104415224D01*
X189730396Y-104415224D01*
X190089040Y-104560127D01*
X190300355Y-104595868D01*
X190514417Y-104585399D01*
X190721236Y-104529207D01*
X190971272Y-104398491D01*
X190359200Y-103786419D01*
X189730396Y-104415224D01*
X188921612Y-104415224D01*
X188739370Y-103789242D01*
X188696362Y-103601937D01*
X189366991Y-103601937D01*
X189389394Y-103815080D01*
X189457043Y-104018439D01*
X189572110Y-104211471D01*
X190178181Y-103605400D01*
X190540219Y-103605400D01*
X191158449Y-104223630D01*
X191297357Y-103928433D01*
X191344888Y-103719225D01*
X191345659Y-103498458D01*
X191299589Y-103288924D01*
X191159619Y-102986000D01*
X190540219Y-103605400D01*
X190178181Y-103605400D01*
X189572693Y-102999912D01*
X189459949Y-103186071D01*
X189390881Y-103388955D01*
X189366991Y-103601937D01*
X188696362Y-103601937D01*
X188589414Y-103136170D01*
X188536085Y-102821926D01*
X189756745Y-102821926D01*
X190359200Y-103424381D01*
X190970385Y-102813195D01*
X190727677Y-102684144D01*
X190521254Y-102626509D01*
X190307272Y-102614545D01*
X190095711Y-102648810D01*
X189896447Y-102727705D01*
X189756745Y-102821926D01*
X188536085Y-102821926D01*
X188477298Y-102475530D01*
X188403399Y-101809553D01*
X188367958Y-101140408D01*
X188371093Y-100470323D01*
X188412795Y-99801565D01*
X188426832Y-99685020D01*
X189733200Y-99685020D01*
X189733200Y-99905780D01*
X189808705Y-100113228D01*
X189950607Y-100282342D01*
X190141793Y-100392722D01*
X190355474Y-100430400D01*
X190141793Y-100468078D01*
X189950607Y-100578458D01*
X189808705Y-100747572D01*
X189733200Y-100955020D01*
X189733200Y-101175780D01*
X189808705Y-101383228D01*
X189950607Y-101552342D01*
X190141793Y-101662722D01*
X190359200Y-101701057D01*
X190576607Y-101662722D01*
X190767793Y-101552342D01*
X190909695Y-101383228D01*
X190985200Y-101175780D01*
X190985200Y-100986700D01*
X195324840Y-100986700D01*
X195324840Y-101207460D01*
X195400345Y-101414908D01*
X195542247Y-101584022D01*
X195733433Y-101694402D01*
X195950840Y-101732737D01*
X196168247Y-101694402D01*
X196359433Y-101584022D01*
X196501335Y-101414908D01*
X196576840Y-101207460D01*
X196576840Y-100986700D01*
X196501335Y-100779252D01*
X196359433Y-100610138D01*
X196168247Y-100499758D01*
X195950840Y-100461423D01*
X195733433Y-100499758D01*
X195542247Y-100610138D01*
X195400345Y-100779252D01*
X195324840Y-100986700D01*
X190985200Y-100986700D01*
X190985200Y-100955020D01*
X190909695Y-100747572D01*
X190767793Y-100578458D01*
X190576607Y-100468078D01*
X190377558Y-100432980D01*
X199251680Y-100432980D01*
X199251680Y-100653740D01*
X199327185Y-100861188D01*
X199469087Y-101030302D01*
X199660273Y-101140682D01*
X199877680Y-101179017D01*
X200095087Y-101140682D01*
X200286273Y-101030302D01*
X200428175Y-100861188D01*
X200503680Y-100653740D01*
X200503680Y-100432980D01*
X200428175Y-100225532D01*
X200286273Y-100056418D01*
X200095087Y-99946038D01*
X199877680Y-99907703D01*
X199660273Y-99946038D01*
X199469087Y-100056418D01*
X199327185Y-100225532D01*
X199251680Y-100432980D01*
X190377558Y-100432980D01*
X190362926Y-100430400D01*
X190576607Y-100392722D01*
X190767793Y-100282342D01*
X190909695Y-100113228D01*
X190976772Y-99928936D01*
X191000607Y-99957342D01*
X191191793Y-100067722D01*
X191409200Y-100106057D01*
X191626607Y-100067722D01*
X191817793Y-99957342D01*
X191959695Y-99788228D01*
X192035200Y-99580780D01*
X192035200Y-99360020D01*
X192002683Y-99270680D01*
X194070751Y-99270680D01*
X194137165Y-99546258D01*
X194234625Y-99760611D01*
X194370860Y-99952668D01*
X194540955Y-100115498D01*
X194738772Y-100243226D01*
X194960060Y-100332408D01*
X195265399Y-100376680D01*
X195431240Y-100376680D01*
X195431240Y-99270680D01*
X195687240Y-99270680D01*
X195687240Y-100376680D01*
X195868051Y-100376680D01*
X196043645Y-100359927D01*
X196269592Y-100293641D01*
X196478928Y-100185826D01*
X196664100Y-100040372D01*
X196818426Y-99862526D01*
X196936339Y-99658707D01*
X197013584Y-99436265D01*
X197037586Y-99270680D01*
X202270750Y-99270680D01*
X202337164Y-99546258D01*
X202434624Y-99760611D01*
X202570859Y-99952668D01*
X202740954Y-100115498D01*
X202938771Y-100243226D01*
X203160059Y-100332408D01*
X203465398Y-100376680D01*
X203631239Y-100376680D01*
X203631239Y-99270680D01*
X203887239Y-99270680D01*
X203887239Y-100376680D01*
X204068050Y-100376680D01*
X204243644Y-100359927D01*
X204469591Y-100293641D01*
X204678927Y-100185826D01*
X204864099Y-100040372D01*
X205018425Y-99862526D01*
X205136338Y-99658707D01*
X205213583Y-99436265D01*
X205237585Y-99270680D01*
X203887239Y-99270680D01*
X203631239Y-99270680D01*
X202270750Y-99270680D01*
X197037586Y-99270680D01*
X195687240Y-99270680D01*
X195431240Y-99270680D01*
X194070751Y-99270680D01*
X192002683Y-99270680D01*
X191959695Y-99152572D01*
X191843992Y-99014680D01*
X194080894Y-99014680D01*
X195431240Y-99014680D01*
X195431240Y-97908680D01*
X195687240Y-97908680D01*
X195687240Y-99014680D01*
X197047729Y-99014680D01*
X202280893Y-99014680D01*
X203631239Y-99014680D01*
X203631239Y-97908680D01*
X203887239Y-97908680D01*
X203887239Y-99014680D01*
X205247728Y-99014680D01*
X205181314Y-98739102D01*
X205083854Y-98524749D01*
X204947619Y-98332692D01*
X204777524Y-98169862D01*
X204579707Y-98042134D01*
X204358419Y-97952952D01*
X204053080Y-97908680D01*
X203887239Y-97908680D01*
X203631239Y-97908680D01*
X203450428Y-97908680D01*
X203274834Y-97925433D01*
X203048887Y-97991719D01*
X202839551Y-98099534D01*
X202654379Y-98244988D01*
X202500053Y-98422834D01*
X202382140Y-98626653D01*
X202304895Y-98849095D01*
X202280893Y-99014680D01*
X197047729Y-99014680D01*
X196981315Y-98739102D01*
X196883855Y-98524749D01*
X196747620Y-98332692D01*
X196577525Y-98169862D01*
X196379708Y-98042134D01*
X196158420Y-97952952D01*
X195853081Y-97908680D01*
X195687240Y-97908680D01*
X195431240Y-97908680D01*
X195250429Y-97908680D01*
X195074835Y-97925433D01*
X194848888Y-97991719D01*
X194639552Y-98099534D01*
X194454380Y-98244988D01*
X194300054Y-98422834D01*
X194182141Y-98626653D01*
X194104896Y-98849095D01*
X194080894Y-99014680D01*
X191843992Y-99014680D01*
X191817793Y-98983458D01*
X191626607Y-98873078D01*
X191409200Y-98834743D01*
X191191793Y-98873078D01*
X191000607Y-98983458D01*
X190858705Y-99152572D01*
X190791628Y-99336864D01*
X190767793Y-99308458D01*
X190576607Y-99198078D01*
X190359200Y-99159743D01*
X190141793Y-99198078D01*
X189950607Y-99308458D01*
X189808705Y-99477572D01*
X189733200Y-99685020D01*
X188426832Y-99685020D01*
X188492928Y-99136285D01*
X188611222Y-98476729D01*
X188767286Y-97825083D01*
X188941099Y-97248229D01*
X189674468Y-97248229D01*
X189697764Y-97432631D01*
X189769790Y-97603976D01*
X189885242Y-97749639D01*
X190035612Y-97858890D01*
X190186502Y-97915005D01*
X190148093Y-97921778D01*
X189956907Y-98032158D01*
X189815005Y-98201272D01*
X189739500Y-98408720D01*
X189739500Y-98629480D01*
X189815005Y-98836928D01*
X189956907Y-99006042D01*
X190148093Y-99116422D01*
X190365500Y-99154757D01*
X190582907Y-99116422D01*
X190774093Y-99006042D01*
X190915995Y-98836928D01*
X190991500Y-98629480D01*
X190991500Y-98408720D01*
X190915995Y-98201272D01*
X190774093Y-98032158D01*
X190582907Y-97921778D01*
X190532824Y-97912947D01*
X190577613Y-97904403D01*
X190744098Y-97821759D01*
X190882224Y-97697390D01*
X190981818Y-97540456D01*
X191035733Y-97361878D01*
X191037815Y-97163114D01*
X190987651Y-96983445D01*
X190891366Y-96824460D01*
X190755874Y-96697225D01*
X190591158Y-96611113D01*
X190409351Y-96572469D01*
X190223850Y-96584140D01*
X190048321Y-96645266D01*
X189895696Y-96751343D01*
X189777219Y-96894557D01*
X189701620Y-97064356D01*
X189674468Y-97248229D01*
X188941099Y-97248229D01*
X188960598Y-97183516D01*
X189190531Y-96554110D01*
X189233728Y-96454134D01*
X193532081Y-96454134D01*
X193580150Y-96626882D01*
X193674774Y-96779196D01*
X193808341Y-96898830D01*
X193970118Y-96976167D01*
X194147100Y-97004990D01*
X194325056Y-96982982D01*
X194344001Y-96974803D01*
X194370860Y-97012668D01*
X194540955Y-97175498D01*
X194738772Y-97303226D01*
X194960060Y-97392408D01*
X195265399Y-97436680D01*
X195431240Y-97436680D01*
X195431240Y-96330680D01*
X195687240Y-96330680D01*
X195687240Y-97436680D01*
X195868051Y-97436680D01*
X196043645Y-97419927D01*
X196269592Y-97353641D01*
X196478928Y-97245826D01*
X196495383Y-97232900D01*
X197783240Y-97232900D01*
X197783240Y-97453660D01*
X197858745Y-97661108D01*
X198000647Y-97830222D01*
X198191833Y-97940602D01*
X198409240Y-97978937D01*
X198579813Y-97948860D01*
X199302480Y-97948860D01*
X199302480Y-98169620D01*
X199377985Y-98377068D01*
X199519887Y-98546182D01*
X199711073Y-98656562D01*
X199928480Y-98694897D01*
X200145887Y-98656562D01*
X200337073Y-98546182D01*
X200478975Y-98377068D01*
X200554480Y-98169620D01*
X200554480Y-97948860D01*
X200534906Y-97895081D01*
X200691833Y-97985682D01*
X200909240Y-98024017D01*
X201126647Y-97985682D01*
X201317833Y-97875302D01*
X201459735Y-97706188D01*
X201535240Y-97498740D01*
X201535240Y-97277980D01*
X201459735Y-97070532D01*
X201317833Y-96901418D01*
X201126647Y-96791038D01*
X200909240Y-96752703D01*
X200691833Y-96791038D01*
X200500647Y-96901418D01*
X200358745Y-97070532D01*
X200283240Y-97277980D01*
X200283240Y-97498740D01*
X200302814Y-97552519D01*
X200145887Y-97461918D01*
X199928480Y-97423583D01*
X199711073Y-97461918D01*
X199519887Y-97572298D01*
X199377985Y-97741412D01*
X199302480Y-97948860D01*
X198579813Y-97948860D01*
X198626647Y-97940602D01*
X198817833Y-97830222D01*
X198959735Y-97661108D01*
X199025905Y-97479308D01*
X199111633Y-97528802D01*
X199329040Y-97567137D01*
X199546447Y-97528802D01*
X199737633Y-97418422D01*
X199879535Y-97249308D01*
X199955040Y-97041860D01*
X199955040Y-96821100D01*
X199879535Y-96613652D01*
X199737633Y-96444538D01*
X199546447Y-96334158D01*
X199526723Y-96330680D01*
X202270750Y-96330680D01*
X202337164Y-96606258D01*
X202434624Y-96820611D01*
X202570859Y-97012668D01*
X202740954Y-97175498D01*
X202938771Y-97303226D01*
X203160059Y-97392408D01*
X203465398Y-97436680D01*
X203631239Y-97436680D01*
X203631239Y-96330680D01*
X202270750Y-96330680D01*
X199526723Y-96330680D01*
X199329040Y-96295823D01*
X199111633Y-96334158D01*
X198920447Y-96444538D01*
X198778545Y-96613652D01*
X198712375Y-96795452D01*
X198626647Y-96745958D01*
X198409240Y-96707623D01*
X198191833Y-96745958D01*
X198000647Y-96856338D01*
X197858745Y-97025452D01*
X197783240Y-97232900D01*
X196495383Y-97232900D01*
X196664100Y-97100372D01*
X196818426Y-96922526D01*
X196936339Y-96718707D01*
X197013584Y-96496265D01*
X197037586Y-96330680D01*
X195687240Y-96330680D01*
X195431240Y-96330680D01*
X195431240Y-94968680D01*
X195687240Y-94968680D01*
X195687240Y-96074680D01*
X197047729Y-96074680D01*
X202280893Y-96074680D01*
X203631239Y-96074680D01*
X203631239Y-94968680D01*
X203887239Y-94968680D01*
X203887239Y-97436680D01*
X204068050Y-97436680D01*
X204243644Y-97419927D01*
X204319783Y-97397590D01*
X206211082Y-97397590D01*
X206211082Y-99122410D01*
X206233914Y-99237199D01*
X206305967Y-99345033D01*
X206413801Y-99417086D01*
X206528590Y-99439918D01*
X208253410Y-99439918D01*
X208368199Y-99417086D01*
X208476033Y-99345033D01*
X208548086Y-99237199D01*
X208570918Y-99122410D01*
X208570918Y-98358881D01*
X208753460Y-98358881D01*
X208795092Y-98585716D01*
X208879991Y-98800146D01*
X209004922Y-98994001D01*
X209165127Y-99159898D01*
X209354504Y-99291519D01*
X209565839Y-99383849D01*
X209791084Y-99433372D01*
X210021658Y-99438201D01*
X210248778Y-99398155D01*
X210463795Y-99314754D01*
X210658517Y-99191179D01*
X210825529Y-99032137D01*
X210958469Y-98843683D01*
X211052272Y-98632997D01*
X211103563Y-98407238D01*
X211107218Y-98145560D01*
X211062250Y-97918455D01*
X210974365Y-97705233D01*
X210846739Y-97513141D01*
X210684234Y-97349497D01*
X210493038Y-97220533D01*
X210280434Y-97131163D01*
X210054520Y-97084789D01*
X209823901Y-97083179D01*
X209597361Y-97126394D01*
X209383531Y-97212787D01*
X209190552Y-97339069D01*
X209025778Y-97500428D01*
X208895482Y-97690719D01*
X208804630Y-97902695D01*
X208756680Y-98128278D01*
X208753460Y-98358881D01*
X208570918Y-98358881D01*
X208570918Y-97397590D01*
X208548086Y-97282801D01*
X208476033Y-97174967D01*
X208368199Y-97102914D01*
X208253410Y-97080082D01*
X206528590Y-97080082D01*
X206413801Y-97102914D01*
X206305967Y-97174967D01*
X206233914Y-97282801D01*
X206211082Y-97397590D01*
X204319783Y-97397590D01*
X204469591Y-97353641D01*
X204678927Y-97245826D01*
X204864099Y-97100372D01*
X204971661Y-96976418D01*
X205147100Y-97004990D01*
X205325056Y-96982982D01*
X205489681Y-96911913D01*
X205627745Y-96797494D01*
X205728145Y-96648924D01*
X205783050Y-96477401D01*
X205785578Y-96284325D01*
X205735181Y-96111422D01*
X205638705Y-95960275D01*
X205503684Y-95842282D01*
X205340975Y-95766928D01*
X205163656Y-95740269D01*
X205155095Y-95741434D01*
X205083854Y-95584749D01*
X204947619Y-95392692D01*
X204777524Y-95229862D01*
X204579707Y-95102134D01*
X204358419Y-95012952D01*
X204053080Y-94968680D01*
X203887239Y-94968680D01*
X203631239Y-94968680D01*
X203450428Y-94968680D01*
X203274834Y-94985433D01*
X203048887Y-95051719D01*
X202839551Y-95159534D01*
X202654379Y-95304988D01*
X202500053Y-95482834D01*
X202382140Y-95686653D01*
X202304895Y-95909095D01*
X202280893Y-96074680D01*
X197047729Y-96074680D01*
X196981315Y-95799102D01*
X196883855Y-95584749D01*
X196747620Y-95392692D01*
X196577525Y-95229862D01*
X196379708Y-95102134D01*
X196158420Y-95012952D01*
X195853081Y-94968680D01*
X195687240Y-94968680D01*
X195431240Y-94968680D01*
X195250429Y-94968680D01*
X195074835Y-94985433D01*
X194848888Y-95051719D01*
X194639552Y-95159534D01*
X194454380Y-95304988D01*
X194300054Y-95482834D01*
X194182141Y-95686653D01*
X194163516Y-95740287D01*
X193985981Y-95764449D01*
X193822235Y-95837525D01*
X193685581Y-95953621D01*
X193587004Y-96103405D01*
X193534428Y-96274836D01*
X193532081Y-96454134D01*
X189233728Y-96454134D01*
X189456308Y-95938997D01*
X189757052Y-95340205D01*
X190091769Y-94759713D01*
X190459344Y-94199457D01*
X190779385Y-93768020D01*
X191133400Y-93768020D01*
X191133400Y-93988780D01*
X191208905Y-94196228D01*
X191350807Y-94365342D01*
X191541993Y-94475722D01*
X191759400Y-94514057D01*
X191976807Y-94475722D01*
X192167993Y-94365342D01*
X192309895Y-94196228D01*
X192385400Y-93988780D01*
X192385400Y-93768020D01*
X192309895Y-93560572D01*
X192167993Y-93391458D01*
X191976807Y-93281078D01*
X191759400Y-93242743D01*
X191541993Y-93281078D01*
X191350807Y-93391458D01*
X191208905Y-93560572D01*
X191133400Y-93768020D01*
X190779385Y-93768020D01*
X190858560Y-93661287D01*
X191288097Y-93146986D01*
X191315266Y-93118021D01*
X194450399Y-93118021D01*
X194450399Y-93338781D01*
X194525904Y-93546229D01*
X194667806Y-93715343D01*
X194858992Y-93825723D01*
X195076399Y-93864058D01*
X195293806Y-93825723D01*
X195484992Y-93715343D01*
X195626894Y-93546229D01*
X195702399Y-93338781D01*
X195702399Y-93118021D01*
X195626894Y-92910573D01*
X195484992Y-92741459D01*
X195293806Y-92631079D01*
X195076399Y-92592744D01*
X194858992Y-92631079D01*
X194667806Y-92741459D01*
X194525904Y-92910573D01*
X194450399Y-93118021D01*
X191315266Y-93118021D01*
X191746531Y-92658260D01*
X192232325Y-92196745D01*
X192743889Y-91763952D01*
X193279509Y-91361332D01*
X193837430Y-90990203D01*
X194415776Y-90651814D01*
X195012658Y-90347268D01*
X195626074Y-90077591D01*
X196253985Y-89843677D01*
X196646422Y-89722708D01*
X196623560Y-91936882D01*
X196617882Y-91963154D01*
X196618086Y-91977762D01*
X196618943Y-92042786D01*
X196618721Y-92044300D01*
X196619009Y-92047848D01*
X196619048Y-92050777D01*
X196619348Y-92052019D01*
X196619906Y-92058877D01*
X196648884Y-92417823D01*
X196650287Y-92422281D01*
X196650141Y-92427097D01*
X196652993Y-92441441D01*
X196723036Y-92794675D01*
X196724942Y-92798943D01*
X196725354Y-92803784D01*
X196729833Y-92817668D01*
X196729832Y-92817668D01*
X196840011Y-93160510D01*
X196842394Y-93164529D01*
X196843346Y-93169223D01*
X196849404Y-93182566D01*
X196998258Y-93510476D01*
X197001088Y-93514195D01*
X197002544Y-93518660D01*
X197010079Y-93531232D01*
X197195681Y-93839933D01*
X197198918Y-93843300D01*
X197200911Y-93847641D01*
X197209856Y-93859254D01*
X197429663Y-94144517D01*
X197433264Y-94147489D01*
X197435743Y-94151572D01*
X197445965Y-94162080D01*
X197697098Y-94420184D01*
X197701022Y-94422726D01*
X197703926Y-94426461D01*
X197715278Y-94435731D01*
X197994451Y-94663293D01*
X197998639Y-94665366D01*
X198001923Y-94668712D01*
X198014263Y-94676624D01*
X198317770Y-94870607D01*
X198322169Y-94872185D01*
X198325824Y-94875138D01*
X198338989Y-94881577D01*
X198662777Y-95039390D01*
X198667333Y-95040453D01*
X198671365Y-95043005D01*
X198685189Y-95047872D01*
X199024901Y-95167399D01*
X199029542Y-95167931D01*
X199033881Y-95170022D01*
X199048210Y-95173266D01*
X199399336Y-95252940D01*
X199404006Y-95252934D01*
X199408619Y-95254535D01*
X199423098Y-95256081D01*
X199781115Y-95294875D01*
X199785756Y-95294333D01*
X199790327Y-95295349D01*
X199804982Y-95295266D01*
X200165192Y-95292653D01*
X200169739Y-95291581D01*
X200174550Y-95292081D01*
X200189046Y-95290284D01*
X200189046Y-95290285D01*
X200546463Y-95246301D01*
X200550858Y-95244713D01*
X200555592Y-95244658D01*
X200569841Y-95241219D01*
X200919882Y-95156433D01*
X200924064Y-95154351D01*
X200928857Y-95153740D01*
X200942566Y-95148680D01*
X201280497Y-95024241D01*
X201284411Y-95021693D01*
X201289174Y-95020517D01*
X201302139Y-95013932D01*
X201623528Y-94851478D01*
X201627126Y-94848495D01*
X201631570Y-94846836D01*
X201643809Y-94838772D01*
X201944430Y-94640431D01*
X201947658Y-94637056D01*
X201952032Y-94634822D01*
X201963144Y-94625454D01*
X202238945Y-94393901D01*
X202241764Y-94390179D01*
X202245718Y-94387545D01*
X202255793Y-94376897D01*
X202413551Y-94209980D01*
X203163280Y-94209980D01*
X203163280Y-94430740D01*
X203238785Y-94638188D01*
X203380687Y-94807302D01*
X203571873Y-94917682D01*
X203789280Y-94956017D01*
X204006687Y-94917682D01*
X204197873Y-94807302D01*
X204339775Y-94638188D01*
X204415280Y-94430740D01*
X204415280Y-94209980D01*
X204339775Y-94002532D01*
X204197873Y-93833418D01*
X204006687Y-93723038D01*
X203789280Y-93684703D01*
X203571873Y-93723038D01*
X203380687Y-93833418D01*
X203238785Y-94002532D01*
X203163280Y-94209980D01*
X202413551Y-94209980D01*
X202503173Y-94115155D01*
X202505546Y-94111133D01*
X202509182Y-94108053D01*
X202517963Y-94096317D01*
X202733614Y-93807884D01*
X202735509Y-93803616D01*
X202738753Y-93800153D01*
X202746131Y-93787487D01*
X202927211Y-93476165D01*
X202928603Y-93471706D01*
X202931471Y-93467835D01*
X202937316Y-93454426D01*
X203081397Y-93124393D01*
X203082268Y-93119801D01*
X203084694Y-93115587D01*
X203088936Y-93101638D01*
X203194130Y-92757233D01*
X203194467Y-92752569D01*
X203196329Y-92748253D01*
X203198990Y-92733842D01*
X203263915Y-92379544D01*
X203263714Y-92374875D01*
X203265076Y-92370345D01*
X203266057Y-92355721D01*
X203289828Y-91996336D01*
X203284868Y-91965253D01*
X203319563Y-89712290D01*
X203560798Y-89782229D01*
M02*
