G04 #@! TF.GenerationSoftware,KiCad,Pcbnew,(5.99.0-417-g8bd2765f3)*
G04 #@! TF.CreationDate,2020-07-20T21:20:45-04:00*
G04 #@! TF.ProjectId,bias,62696173-2e6b-4696-9361-645f70636258,rev?*
G04 #@! TF.SameCoordinates,Original*
G04 #@! TF.FileFunction,Legend,Bot*
G04 #@! TF.FilePolarity,Positive*
%FSLAX46Y46*%
G04 Gerber Fmt 4.6, Leading zero omitted, Abs format (unit mm)*
G04 Created by KiCad (PCBNEW (5.99.0-417-g8bd2765f3)) date 2020-07-20 21:20:45*
%MOMM*%
%LPD*%
G04 APERTURE LIST*
%ADD10C,0.152400*%
%ADD11C,0.120000*%
%ADD12C,0.150000*%
G04 APERTURE END LIST*
D10*
X189839600Y-105524300D02*
G75*
G03X189839600Y-105524300I-381000J0D01*
G01*
X191322960Y-104889300D02*
X189331600Y-104889300D01*
X194198240Y-96735900D02*
X195326000Y-96735900D01*
X189331600Y-97624260D02*
X189331600Y-96735900D01*
X189331600Y-96735900D02*
X191322960Y-96735900D01*
X189331600Y-104889300D02*
X189331600Y-104000940D01*
X195326000Y-104889300D02*
X194198240Y-104889300D01*
X195326000Y-96735900D02*
X195326000Y-104889300D01*
D11*
X206277978Y-106780400D02*
X205760822Y-106780400D01*
X206277978Y-105360400D02*
X205760822Y-105360400D01*
D12*
X195718180Y-99996666D02*
X196432466Y-99996666D01*
X196575323Y-99949047D01*
X196670561Y-99853809D01*
X196718180Y-99710952D01*
X196718180Y-99615714D01*
X195813419Y-100425238D02*
X195765800Y-100472857D01*
X195718180Y-100568095D01*
X195718180Y-100806190D01*
X195765800Y-100901428D01*
X195813419Y-100949047D01*
X195908657Y-100996666D01*
X196003895Y-100996666D01*
X196146752Y-100949047D01*
X196718180Y-100377619D01*
X196718180Y-100996666D01*
X196378580Y-101295200D02*
X196616676Y-101295200D01*
X196521438Y-101057104D02*
X196616676Y-101295200D01*
X196521438Y-101533295D01*
X196807152Y-101152342D02*
X196616676Y-101295200D01*
X196807152Y-101438057D01*
X206211466Y-108053142D02*
X206259085Y-108100761D01*
X206401942Y-108148380D01*
X206497180Y-108148380D01*
X206640038Y-108100761D01*
X206735276Y-108005523D01*
X206782895Y-107910285D01*
X206830514Y-107719809D01*
X206830514Y-107576952D01*
X206782895Y-107386476D01*
X206735276Y-107291238D01*
X206640038Y-107196000D01*
X206497180Y-107148380D01*
X206401942Y-107148380D01*
X206259085Y-107196000D01*
X206211466Y-107243619D01*
X205640038Y-107576952D02*
X205735276Y-107529333D01*
X205782895Y-107481714D01*
X205830514Y-107386476D01*
X205830514Y-107338857D01*
X205782895Y-107243619D01*
X205735276Y-107196000D01*
X205640038Y-107148380D01*
X205449561Y-107148380D01*
X205354323Y-107196000D01*
X205306704Y-107243619D01*
X205259085Y-107338857D01*
X205259085Y-107386476D01*
X205306704Y-107481714D01*
X205354323Y-107529333D01*
X205449561Y-107576952D01*
X205640038Y-107576952D01*
X205735276Y-107624571D01*
X205782895Y-107672190D01*
X205830514Y-107767428D01*
X205830514Y-107957904D01*
X205782895Y-108053142D01*
X205735276Y-108100761D01*
X205640038Y-108148380D01*
X205449561Y-108148380D01*
X205354323Y-108100761D01*
X205306704Y-108053142D01*
X205259085Y-107957904D01*
X205259085Y-107767428D01*
X205306704Y-107672190D01*
X205354323Y-107624571D01*
X205449561Y-107576952D01*
M02*
