G04 #@! TF.GenerationSoftware,KiCad,Pcbnew,5.99.0-unknown-4135f0c~100~ubuntu18.04.1*
G04 #@! TF.CreationDate,2019-10-31T15:23:41-04:00*
G04 #@! TF.ProjectId,bias,62696173-2e6b-4696-9361-645f70636258,rev?*
G04 #@! TF.SameCoordinates,Original*
G04 #@! TF.FileFunction,Copper,L1,Top*
G04 #@! TF.FilePolarity,Positive*
%FSLAX46Y46*%
G04 Gerber Fmt 4.6, Leading zero omitted, Abs format (unit mm)*
G04 Created by KiCad (PCBNEW 5.99.0-unknown-4135f0c~100~ubuntu18.04.1) date 2019-10-31 15:23:41*
%MOMM*%
%LPD*%
G04 APERTURE LIST*
%ADD10C,0.100000*%
%ADD11R,0.300000X0.750000*%
%ADD12O,1.700000X1.700000*%
%ADD13R,1.700000X1.700000*%
%ADD14R,0.700000X0.700000*%
%ADD15C,0.704800*%
%ADD16C,0.200000*%
%ADD17R,0.850000X0.300000*%
%ADD18R,0.300000X0.850000*%
%ADD19R,1.550000X1.550000*%
%ADD20R,0.800000X1.600000*%
%ADD21R,0.762000X0.254000*%
%ADD22R,0.729800X0.248400*%
%ADD23C,0.600000*%
%ADD24C,0.200000*%
%ADD25C,0.500000*%
G04 APERTURE END LIST*
D10*
G36*
X201715000Y-106040000D02*
G01*
X201715000Y-106290000D01*
X200465000Y-105440000D01*
X201315000Y-104540000D01*
X201715000Y-106040000D01*
G37*
G36*
X204415000Y-103540000D02*
G01*
X204115000Y-103840000D01*
X202415000Y-103440000D01*
X203215000Y-102490000D01*
X204415000Y-103540000D01*
G37*
G04 #@! TA.AperFunction,ComponentPad*
G36*
X204000061Y-95324504D02*
G01*
X204027491Y-95327854D01*
X204027513Y-95327857D01*
X204070643Y-95335077D01*
X204070664Y-95335081D01*
X204113434Y-95344171D01*
X204113455Y-95344176D01*
X204155785Y-95355126D01*
X204155806Y-95355132D01*
X204197616Y-95367912D01*
X204197637Y-95367919D01*
X204238857Y-95382519D01*
X204238877Y-95382526D01*
X204279417Y-95398906D01*
X204279437Y-95398915D01*
X204319227Y-95417045D01*
X204319247Y-95417054D01*
X204358207Y-95436904D01*
X204358226Y-95436915D01*
X204396276Y-95458445D01*
X204396295Y-95458456D01*
X204433385Y-95481626D01*
X204433403Y-95481638D01*
X204469433Y-95506408D01*
X204469451Y-95506421D01*
X204504371Y-95532731D01*
X204504388Y-95532744D01*
X204538128Y-95560554D01*
X204538145Y-95560568D01*
X204570635Y-95589828D01*
X204570650Y-95589843D01*
X204601840Y-95620493D01*
X204601856Y-95620509D01*
X204631676Y-95652479D01*
X204631690Y-95652495D01*
X204660090Y-95685745D01*
X204660104Y-95685762D01*
X204687024Y-95720222D01*
X204687037Y-95720240D01*
X204712427Y-95755840D01*
X204712439Y-95755858D01*
X204736249Y-95792528D01*
X204736261Y-95792546D01*
X204758461Y-95830216D01*
X204758472Y-95830235D01*
X204778992Y-95868845D01*
X204779001Y-95868865D01*
X204797831Y-95908325D01*
X204797840Y-95908345D01*
X204814920Y-95948595D01*
X204814928Y-95948615D01*
X204830248Y-95989575D01*
X204830256Y-95989595D01*
X204843766Y-96031175D01*
X204843772Y-96031196D01*
X204855452Y-96073336D01*
X204855457Y-96073357D01*
X204865297Y-96115957D01*
X204865302Y-96115979D01*
X204873272Y-96158969D01*
X204873275Y-96158991D01*
X204875495Y-96174931D01*
X204875500Y-96175000D01*
X204875500Y-98225000D01*
X204875495Y-98225069D01*
X204873275Y-98240999D01*
X204873272Y-98241021D01*
X204865302Y-98284011D01*
X204865297Y-98284033D01*
X204855457Y-98326643D01*
X204855452Y-98326664D01*
X204843772Y-98368794D01*
X204843766Y-98368814D01*
X204830256Y-98410404D01*
X204830248Y-98410425D01*
X204814938Y-98451375D01*
X204814930Y-98451395D01*
X204797840Y-98491645D01*
X204797831Y-98491665D01*
X204779011Y-98531135D01*
X204779001Y-98531155D01*
X204758471Y-98569755D01*
X204758461Y-98569774D01*
X204736271Y-98607454D01*
X204736259Y-98607472D01*
X204712439Y-98644142D01*
X204712427Y-98644160D01*
X204687037Y-98679760D01*
X204687024Y-98679778D01*
X204660104Y-98714228D01*
X204660090Y-98714245D01*
X204631700Y-98747495D01*
X204631686Y-98747511D01*
X204601866Y-98779491D01*
X204601850Y-98779507D01*
X204570660Y-98810157D01*
X204570644Y-98810172D01*
X204538144Y-98839422D01*
X204538128Y-98839436D01*
X204504398Y-98867256D01*
X204504381Y-98867269D01*
X204469461Y-98893579D01*
X204469443Y-98893592D01*
X204433403Y-98918362D01*
X204433385Y-98918374D01*
X204396305Y-98941544D01*
X204396286Y-98941555D01*
X204358226Y-98963085D01*
X204358207Y-98963096D01*
X204319247Y-98982946D01*
X204319227Y-98982955D01*
X204279447Y-99001085D01*
X204279427Y-99001094D01*
X204238887Y-99017474D01*
X204238867Y-99017481D01*
X204197647Y-99032081D01*
X204197626Y-99032088D01*
X204155806Y-99044868D01*
X204155785Y-99044874D01*
X204113455Y-99055824D01*
X204113434Y-99055829D01*
X204070664Y-99064919D01*
X204070643Y-99064923D01*
X204027523Y-99072143D01*
X204027501Y-99072146D01*
X204000061Y-99075496D01*
X204000000Y-99075500D01*
X203325000Y-99075500D01*
X203324567Y-99075250D01*
X203324500Y-99075000D01*
X203324500Y-95325000D01*
X203324750Y-95324567D01*
X203325000Y-95324500D01*
X204000000Y-95324500D01*
X204000061Y-95324504D01*
G37*
G04 #@! TD.AperFunction*
G04 #@! TA.AperFunction,ComponentPad*
G36*
X196875433Y-95324750D02*
G01*
X196875500Y-95325000D01*
X196875500Y-99075000D01*
X196875250Y-99075433D01*
X196875000Y-99075500D01*
X196200000Y-99075500D01*
X196199939Y-99075496D01*
X196172509Y-99072146D01*
X196172487Y-99072143D01*
X196129357Y-99064923D01*
X196129336Y-99064919D01*
X196086566Y-99055829D01*
X196086545Y-99055824D01*
X196044215Y-99044874D01*
X196044194Y-99044868D01*
X196002384Y-99032088D01*
X196002363Y-99032081D01*
X195961143Y-99017481D01*
X195961123Y-99017474D01*
X195920583Y-99001094D01*
X195920563Y-99001085D01*
X195880773Y-98982955D01*
X195880753Y-98982946D01*
X195841793Y-98963096D01*
X195841774Y-98963085D01*
X195803724Y-98941555D01*
X195803705Y-98941544D01*
X195766615Y-98918374D01*
X195766597Y-98918362D01*
X195730567Y-98893592D01*
X195730549Y-98893579D01*
X195695629Y-98867269D01*
X195695612Y-98867256D01*
X195661872Y-98839446D01*
X195661855Y-98839432D01*
X195629365Y-98810172D01*
X195629350Y-98810157D01*
X195598160Y-98779507D01*
X195598144Y-98779491D01*
X195568324Y-98747521D01*
X195568310Y-98747505D01*
X195539910Y-98714255D01*
X195539896Y-98714238D01*
X195512976Y-98679778D01*
X195512963Y-98679760D01*
X195487573Y-98644160D01*
X195487561Y-98644142D01*
X195463751Y-98607472D01*
X195463739Y-98607454D01*
X195441539Y-98569784D01*
X195441528Y-98569765D01*
X195421008Y-98531155D01*
X195420999Y-98531135D01*
X195402169Y-98491675D01*
X195402160Y-98491655D01*
X195385080Y-98451405D01*
X195385072Y-98451385D01*
X195369752Y-98410425D01*
X195369744Y-98410405D01*
X195356234Y-98368825D01*
X195356228Y-98368804D01*
X195344548Y-98326664D01*
X195344543Y-98326643D01*
X195334703Y-98284043D01*
X195334698Y-98284021D01*
X195326728Y-98241031D01*
X195326725Y-98241009D01*
X195324505Y-98225069D01*
X195324500Y-98225000D01*
X195324500Y-96175000D01*
X195324505Y-96174931D01*
X195326725Y-96159001D01*
X195326728Y-96158979D01*
X195334698Y-96115989D01*
X195334703Y-96115967D01*
X195344543Y-96073357D01*
X195344548Y-96073336D01*
X195356228Y-96031206D01*
X195356234Y-96031186D01*
X195369744Y-95989596D01*
X195369752Y-95989575D01*
X195385062Y-95948625D01*
X195385070Y-95948605D01*
X195402160Y-95908355D01*
X195402169Y-95908335D01*
X195420989Y-95868865D01*
X195420999Y-95868845D01*
X195441529Y-95830245D01*
X195441539Y-95830226D01*
X195463729Y-95792546D01*
X195463741Y-95792528D01*
X195487561Y-95755858D01*
X195487573Y-95755840D01*
X195512963Y-95720240D01*
X195512976Y-95720222D01*
X195539896Y-95685772D01*
X195539910Y-95685755D01*
X195568300Y-95652505D01*
X195568314Y-95652489D01*
X195598134Y-95620509D01*
X195598150Y-95620493D01*
X195629340Y-95589843D01*
X195629356Y-95589828D01*
X195661856Y-95560578D01*
X195661872Y-95560564D01*
X195695602Y-95532744D01*
X195695619Y-95532731D01*
X195730539Y-95506421D01*
X195730557Y-95506408D01*
X195766597Y-95481638D01*
X195766615Y-95481626D01*
X195803695Y-95458456D01*
X195803714Y-95458445D01*
X195841774Y-95436915D01*
X195841793Y-95436904D01*
X195880753Y-95417054D01*
X195880773Y-95417045D01*
X195920553Y-95398915D01*
X195920573Y-95398906D01*
X195961113Y-95382526D01*
X195961133Y-95382519D01*
X196002353Y-95367919D01*
X196002374Y-95367912D01*
X196044194Y-95355132D01*
X196044215Y-95355126D01*
X196086545Y-95344176D01*
X196086566Y-95344171D01*
X196129336Y-95335081D01*
X196129357Y-95335077D01*
X196172477Y-95327857D01*
X196172499Y-95327854D01*
X196199939Y-95324504D01*
X196200000Y-95324500D01*
X196875000Y-95324500D01*
X196875433Y-95324750D01*
G37*
G04 #@! TD.AperFunction*
D11*
X197475000Y-96445000D03*
X197975000Y-96445000D03*
X198475000Y-96445000D03*
X198975000Y-96445000D03*
X199475000Y-96445000D03*
X199975000Y-96445000D03*
X200475000Y-96445000D03*
X200975000Y-96445000D03*
X201475000Y-96445000D03*
X201975000Y-96445000D03*
X202475000Y-96445000D03*
X202975000Y-96445000D03*
X202725000Y-97955000D03*
X202225000Y-97955000D03*
X201725000Y-97955000D03*
X201225000Y-97955000D03*
X200725000Y-97955000D03*
X200225000Y-97955000D03*
X199725000Y-97955000D03*
X199225000Y-97955000D03*
X198725000Y-97955000D03*
X198225000Y-97955000D03*
X197725000Y-97955000D03*
X197225000Y-97955000D03*
G04 #@! TA.AperFunction,ComponentPad*
G36*
X196668378Y-98392049D02*
G01*
X196694387Y-98463508D01*
X196704445Y-98538885D01*
X196698081Y-98614663D01*
X196675594Y-98687308D01*
X196638032Y-98753429D01*
X196587148Y-98809941D01*
X196525315Y-98854209D01*
X196455419Y-98884166D01*
X196380721Y-98898415D01*
X196304706Y-98896292D01*
X196230920Y-98877896D01*
X196162805Y-98844082D01*
X196118427Y-98808402D01*
X195601215Y-98291189D01*
X195541622Y-98207950D01*
X195515613Y-98136491D01*
X195505555Y-98061114D01*
X195511919Y-97985337D01*
X195534406Y-97912692D01*
X195571968Y-97846571D01*
X195622852Y-97790059D01*
X195684685Y-97745791D01*
X195754581Y-97715834D01*
X195829279Y-97701585D01*
X195905293Y-97703708D01*
X195979079Y-97722104D01*
X196047194Y-97755918D01*
X196091572Y-97791598D01*
X196608785Y-98308810D01*
X196668378Y-98392049D01*
G37*
G04 #@! TD.AperFunction*
G04 #@! TA.AperFunction,ComponentPad*
G36*
X204658378Y-96192049D02*
G01*
X204684387Y-96263508D01*
X204694445Y-96338885D01*
X204688081Y-96414663D01*
X204665594Y-96487308D01*
X204628032Y-96553429D01*
X204577148Y-96609941D01*
X204515315Y-96654209D01*
X204445419Y-96684166D01*
X204370721Y-96698415D01*
X204294706Y-96696292D01*
X204220920Y-96677896D01*
X204152805Y-96644082D01*
X204108427Y-96608402D01*
X203591215Y-96091189D01*
X203531622Y-96007950D01*
X203505613Y-95936491D01*
X203495555Y-95861114D01*
X203501919Y-95785337D01*
X203524406Y-95712692D01*
X203561968Y-95646571D01*
X203612852Y-95590059D01*
X203674685Y-95545791D01*
X203744581Y-95515834D01*
X203819279Y-95501585D01*
X203895293Y-95503708D01*
X203969079Y-95522104D01*
X204037194Y-95555918D01*
X204081572Y-95591598D01*
X204598785Y-96108810D01*
X204658378Y-96192049D01*
G37*
G04 #@! TD.AperFunction*
G04 #@! TA.AperFunction,ComponentPad*
G36*
X196197049Y-95536622D02*
G01*
X196268508Y-95510613D01*
X196343885Y-95500555D01*
X196419663Y-95506919D01*
X196492308Y-95529406D01*
X196558429Y-95566968D01*
X196614941Y-95617852D01*
X196659209Y-95679685D01*
X196689166Y-95749581D01*
X196703415Y-95824279D01*
X196701292Y-95900294D01*
X196682896Y-95974080D01*
X196649082Y-96042195D01*
X196613402Y-96086573D01*
X196096189Y-96603785D01*
X196012950Y-96663378D01*
X195941491Y-96689387D01*
X195866114Y-96699445D01*
X195790337Y-96693081D01*
X195717692Y-96670594D01*
X195651571Y-96633032D01*
X195595059Y-96582148D01*
X195550791Y-96520315D01*
X195520834Y-96450419D01*
X195506585Y-96375721D01*
X195508708Y-96299707D01*
X195527104Y-96225921D01*
X195560918Y-96157806D01*
X195596598Y-96113428D01*
X196113810Y-95596215D01*
X196197049Y-95536622D01*
G37*
G04 #@! TD.AperFunction*
G04 #@! TA.AperFunction,ComponentPad*
G36*
X204187049Y-97736622D02*
G01*
X204258508Y-97710613D01*
X204333885Y-97700555D01*
X204409663Y-97706919D01*
X204482308Y-97729406D01*
X204548429Y-97766968D01*
X204604941Y-97817852D01*
X204649209Y-97879685D01*
X204679166Y-97949581D01*
X204693415Y-98024279D01*
X204691292Y-98100294D01*
X204672896Y-98174080D01*
X204639082Y-98242195D01*
X204603402Y-98286573D01*
X204086189Y-98803785D01*
X204002950Y-98863378D01*
X203931491Y-98889387D01*
X203856114Y-98899445D01*
X203780337Y-98893081D01*
X203707692Y-98870594D01*
X203641571Y-98833032D01*
X203585059Y-98782148D01*
X203540791Y-98720315D01*
X203510834Y-98650419D01*
X203496585Y-98575721D01*
X203498708Y-98499707D01*
X203517104Y-98425921D01*
X203550918Y-98357806D01*
X203586598Y-98313428D01*
X204103810Y-97796215D01*
X204187049Y-97736622D01*
G37*
G04 #@! TD.AperFunction*
D12*
X209140000Y-102580000D03*
X206600000Y-102580000D03*
X209140000Y-100040000D03*
X206600000Y-100040000D03*
X209140000Y-97500000D03*
D13*
X206600000Y-97500000D03*
G04 #@! TA.AperFunction,SMDPad,CuDef*
G36*
X205738946Y-103991228D02*
G01*
X205786798Y-104023202D01*
X205818772Y-104071054D01*
X205830000Y-104127500D01*
X205830000Y-104472500D01*
X205818772Y-104528946D01*
X205786798Y-104576798D01*
X205738946Y-104608772D01*
X205682500Y-104620000D01*
X205387500Y-104620000D01*
X205331054Y-104608772D01*
X205283202Y-104576798D01*
X205251228Y-104528946D01*
X205240000Y-104472500D01*
X205240000Y-104127500D01*
X205251228Y-104071054D01*
X205283202Y-104023202D01*
X205331054Y-103991228D01*
X205387500Y-103980000D01*
X205682500Y-103980000D01*
X205738946Y-103991228D01*
G37*
G04 #@! TD.AperFunction*
G04 #@! TA.AperFunction,SMDPad,CuDef*
G36*
X206708946Y-103991228D02*
G01*
X206756798Y-104023202D01*
X206788772Y-104071054D01*
X206800000Y-104127500D01*
X206800000Y-104472500D01*
X206788772Y-104528946D01*
X206756798Y-104576798D01*
X206708946Y-104608772D01*
X206652500Y-104620000D01*
X206357500Y-104620000D01*
X206301054Y-104608772D01*
X206253202Y-104576798D01*
X206221228Y-104528946D01*
X206210000Y-104472500D01*
X206210000Y-104127500D01*
X206221228Y-104071054D01*
X206253202Y-104023202D01*
X206301054Y-103991228D01*
X206357500Y-103980000D01*
X206652500Y-103980000D01*
X206708946Y-103991228D01*
G37*
G04 #@! TD.AperFunction*
G04 #@! TA.AperFunction,SMDPad,CuDef*
G36*
X199148946Y-105046228D02*
G01*
X199196798Y-105078202D01*
X199228772Y-105126054D01*
X199240000Y-105182500D01*
X199240000Y-105477500D01*
X199228772Y-105533946D01*
X199196798Y-105581798D01*
X199148946Y-105613772D01*
X199092500Y-105625000D01*
X198747500Y-105625000D01*
X198691054Y-105613772D01*
X198643202Y-105581798D01*
X198611228Y-105533946D01*
X198600000Y-105477500D01*
X198600000Y-105182500D01*
X198611228Y-105126054D01*
X198643202Y-105078202D01*
X198691054Y-105046228D01*
X198747500Y-105035000D01*
X199092500Y-105035000D01*
X199148946Y-105046228D01*
G37*
G04 #@! TD.AperFunction*
G04 #@! TA.AperFunction,SMDPad,CuDef*
G36*
X199148946Y-106016228D02*
G01*
X199196798Y-106048202D01*
X199228772Y-106096054D01*
X199240000Y-106152500D01*
X199240000Y-106447500D01*
X199228772Y-106503946D01*
X199196798Y-106551798D01*
X199148946Y-106583772D01*
X199092500Y-106595000D01*
X198747500Y-106595000D01*
X198691054Y-106583772D01*
X198643202Y-106551798D01*
X198611228Y-106503946D01*
X198600000Y-106447500D01*
X198600000Y-106152500D01*
X198611228Y-106096054D01*
X198643202Y-106048202D01*
X198691054Y-106016228D01*
X198747500Y-106005000D01*
X199092500Y-106005000D01*
X199148946Y-106016228D01*
G37*
G04 #@! TD.AperFunction*
G04 #@! TA.AperFunction,SMDPad,CuDef*
G36*
X195268946Y-91451228D02*
G01*
X195316798Y-91483202D01*
X195348772Y-91531054D01*
X195360000Y-91587500D01*
X195360000Y-91932500D01*
X195348772Y-91988946D01*
X195316798Y-92036798D01*
X195268946Y-92068772D01*
X195212500Y-92080000D01*
X194917500Y-92080000D01*
X194861054Y-92068772D01*
X194813202Y-92036798D01*
X194781228Y-91988946D01*
X194770000Y-91932500D01*
X194770000Y-91587500D01*
X194781228Y-91531054D01*
X194813202Y-91483202D01*
X194861054Y-91451228D01*
X194917500Y-91440000D01*
X195212500Y-91440000D01*
X195268946Y-91451228D01*
G37*
G04 #@! TD.AperFunction*
G04 #@! TA.AperFunction,SMDPad,CuDef*
G36*
X196238946Y-91451228D02*
G01*
X196286798Y-91483202D01*
X196318772Y-91531054D01*
X196330000Y-91587500D01*
X196330000Y-91932500D01*
X196318772Y-91988946D01*
X196286798Y-92036798D01*
X196238946Y-92068772D01*
X196182500Y-92080000D01*
X195887500Y-92080000D01*
X195831054Y-92068772D01*
X195783202Y-92036798D01*
X195751228Y-91988946D01*
X195740000Y-91932500D01*
X195740000Y-91587500D01*
X195751228Y-91531054D01*
X195783202Y-91483202D01*
X195831054Y-91451228D01*
X195887500Y-91440000D01*
X196182500Y-91440000D01*
X196238946Y-91451228D01*
G37*
G04 #@! TD.AperFunction*
G04 #@! TA.AperFunction,SMDPad,CuDef*
G36*
X198173946Y-100431228D02*
G01*
X198221798Y-100463202D01*
X198253772Y-100511054D01*
X198265000Y-100567500D01*
X198265000Y-100912500D01*
X198253772Y-100968946D01*
X198221798Y-101016798D01*
X198173946Y-101048772D01*
X198117500Y-101060000D01*
X197822500Y-101060000D01*
X197766054Y-101048772D01*
X197718202Y-101016798D01*
X197686228Y-100968946D01*
X197675000Y-100912500D01*
X197675000Y-100567500D01*
X197686228Y-100511054D01*
X197718202Y-100463202D01*
X197766054Y-100431228D01*
X197822500Y-100420000D01*
X198117500Y-100420000D01*
X198173946Y-100431228D01*
G37*
G04 #@! TD.AperFunction*
G04 #@! TA.AperFunction,SMDPad,CuDef*
G36*
X199143946Y-100431228D02*
G01*
X199191798Y-100463202D01*
X199223772Y-100511054D01*
X199235000Y-100567500D01*
X199235000Y-100912500D01*
X199223772Y-100968946D01*
X199191798Y-101016798D01*
X199143946Y-101048772D01*
X199087500Y-101060000D01*
X198792500Y-101060000D01*
X198736054Y-101048772D01*
X198688202Y-101016798D01*
X198656228Y-100968946D01*
X198645000Y-100912500D01*
X198645000Y-100567500D01*
X198656228Y-100511054D01*
X198688202Y-100463202D01*
X198736054Y-100431228D01*
X198792500Y-100420000D01*
X199087500Y-100420000D01*
X199143946Y-100431228D01*
G37*
G04 #@! TD.AperFunction*
G04 #@! TA.AperFunction,SMDPad,CuDef*
G36*
X197838946Y-107387228D02*
G01*
X197886798Y-107419202D01*
X197918772Y-107467054D01*
X197930000Y-107523500D01*
X197930000Y-107868500D01*
X197918772Y-107924946D01*
X197886798Y-107972798D01*
X197838946Y-108004772D01*
X197782500Y-108016000D01*
X197487500Y-108016000D01*
X197431054Y-108004772D01*
X197383202Y-107972798D01*
X197351228Y-107924946D01*
X197340000Y-107868500D01*
X197340000Y-107523500D01*
X197351228Y-107467054D01*
X197383202Y-107419202D01*
X197431054Y-107387228D01*
X197487500Y-107376000D01*
X197782500Y-107376000D01*
X197838946Y-107387228D01*
G37*
G04 #@! TD.AperFunction*
G04 #@! TA.AperFunction,SMDPad,CuDef*
G36*
X198808946Y-107387228D02*
G01*
X198856798Y-107419202D01*
X198888772Y-107467054D01*
X198900000Y-107523500D01*
X198900000Y-107868500D01*
X198888772Y-107924946D01*
X198856798Y-107972798D01*
X198808946Y-108004772D01*
X198752500Y-108016000D01*
X198457500Y-108016000D01*
X198401054Y-108004772D01*
X198353202Y-107972798D01*
X198321228Y-107924946D01*
X198310000Y-107868500D01*
X198310000Y-107523500D01*
X198321228Y-107467054D01*
X198353202Y-107419202D01*
X198401054Y-107387228D01*
X198457500Y-107376000D01*
X198752500Y-107376000D01*
X198808946Y-107387228D01*
G37*
G04 #@! TD.AperFunction*
G04 #@! TA.AperFunction,SMDPad,CuDef*
G36*
X209748946Y-104031228D02*
G01*
X209796798Y-104063202D01*
X209828772Y-104111054D01*
X209840000Y-104167500D01*
X209840000Y-104512500D01*
X209828772Y-104568946D01*
X209796798Y-104616798D01*
X209748946Y-104648772D01*
X209692500Y-104660000D01*
X209397500Y-104660000D01*
X209341054Y-104648772D01*
X209293202Y-104616798D01*
X209261228Y-104568946D01*
X209250000Y-104512500D01*
X209250000Y-104167500D01*
X209261228Y-104111054D01*
X209293202Y-104063202D01*
X209341054Y-104031228D01*
X209397500Y-104020000D01*
X209692500Y-104020000D01*
X209748946Y-104031228D01*
G37*
G04 #@! TD.AperFunction*
G04 #@! TA.AperFunction,SMDPad,CuDef*
G36*
X208778946Y-104031228D02*
G01*
X208826798Y-104063202D01*
X208858772Y-104111054D01*
X208870000Y-104167500D01*
X208870000Y-104512500D01*
X208858772Y-104568946D01*
X208826798Y-104616798D01*
X208778946Y-104648772D01*
X208722500Y-104660000D01*
X208427500Y-104660000D01*
X208371054Y-104648772D01*
X208323202Y-104616798D01*
X208291228Y-104568946D01*
X208280000Y-104512500D01*
X208280000Y-104167500D01*
X208291228Y-104111054D01*
X208323202Y-104063202D01*
X208371054Y-104031228D01*
X208427500Y-104020000D01*
X208722500Y-104020000D01*
X208778946Y-104031228D01*
G37*
G04 #@! TD.AperFunction*
G04 #@! TA.AperFunction,SMDPad,CuDef*
G36*
X208658946Y-105931228D02*
G01*
X208706798Y-105963202D01*
X208738772Y-106011054D01*
X208750000Y-106067500D01*
X208750000Y-106362500D01*
X208738772Y-106418946D01*
X208706798Y-106466798D01*
X208658946Y-106498772D01*
X208602500Y-106510000D01*
X208257500Y-106510000D01*
X208201054Y-106498772D01*
X208153202Y-106466798D01*
X208121228Y-106418946D01*
X208110000Y-106362500D01*
X208110000Y-106067500D01*
X208121228Y-106011054D01*
X208153202Y-105963202D01*
X208201054Y-105931228D01*
X208257500Y-105920000D01*
X208602500Y-105920000D01*
X208658946Y-105931228D01*
G37*
G04 #@! TD.AperFunction*
G04 #@! TA.AperFunction,SMDPad,CuDef*
G36*
X208658946Y-104961228D02*
G01*
X208706798Y-104993202D01*
X208738772Y-105041054D01*
X208750000Y-105097500D01*
X208750000Y-105392500D01*
X208738772Y-105448946D01*
X208706798Y-105496798D01*
X208658946Y-105528772D01*
X208602500Y-105540000D01*
X208257500Y-105540000D01*
X208201054Y-105528772D01*
X208153202Y-105496798D01*
X208121228Y-105448946D01*
X208110000Y-105392500D01*
X208110000Y-105097500D01*
X208121228Y-105041054D01*
X208153202Y-104993202D01*
X208201054Y-104961228D01*
X208257500Y-104950000D01*
X208602500Y-104950000D01*
X208658946Y-104961228D01*
G37*
G04 #@! TD.AperFunction*
G04 #@! TA.AperFunction,SMDPad,CuDef*
G36*
X207598946Y-105041228D02*
G01*
X207646798Y-105073202D01*
X207678772Y-105121054D01*
X207690000Y-105177500D01*
X207690000Y-105472500D01*
X207678772Y-105528946D01*
X207646798Y-105576798D01*
X207598946Y-105608772D01*
X207542500Y-105620000D01*
X207197500Y-105620000D01*
X207141054Y-105608772D01*
X207093202Y-105576798D01*
X207061228Y-105528946D01*
X207050000Y-105472500D01*
X207050000Y-105177500D01*
X207061228Y-105121054D01*
X207093202Y-105073202D01*
X207141054Y-105041228D01*
X207197500Y-105030000D01*
X207542500Y-105030000D01*
X207598946Y-105041228D01*
G37*
G04 #@! TD.AperFunction*
G04 #@! TA.AperFunction,SMDPad,CuDef*
G36*
X207598946Y-104071228D02*
G01*
X207646798Y-104103202D01*
X207678772Y-104151054D01*
X207690000Y-104207500D01*
X207690000Y-104502500D01*
X207678772Y-104558946D01*
X207646798Y-104606798D01*
X207598946Y-104638772D01*
X207542500Y-104650000D01*
X207197500Y-104650000D01*
X207141054Y-104638772D01*
X207093202Y-104606798D01*
X207061228Y-104558946D01*
X207050000Y-104502500D01*
X207050000Y-104207500D01*
X207061228Y-104151054D01*
X207093202Y-104103202D01*
X207141054Y-104071228D01*
X207197500Y-104060000D01*
X207542500Y-104060000D01*
X207598946Y-104071228D01*
G37*
G04 #@! TD.AperFunction*
G04 #@! TA.AperFunction,SMDPad,CuDef*
G36*
X203863946Y-100681228D02*
G01*
X203911798Y-100713202D01*
X203943772Y-100761054D01*
X203955000Y-100817500D01*
X203955000Y-101162500D01*
X203943772Y-101218946D01*
X203911798Y-101266798D01*
X203863946Y-101298772D01*
X203807500Y-101310000D01*
X203512500Y-101310000D01*
X203456054Y-101298772D01*
X203408202Y-101266798D01*
X203376228Y-101218946D01*
X203365000Y-101162500D01*
X203365000Y-100817500D01*
X203376228Y-100761054D01*
X203408202Y-100713202D01*
X203456054Y-100681228D01*
X203512500Y-100670000D01*
X203807500Y-100670000D01*
X203863946Y-100681228D01*
G37*
G04 #@! TD.AperFunction*
G04 #@! TA.AperFunction,SMDPad,CuDef*
G36*
X204833946Y-100681228D02*
G01*
X204881798Y-100713202D01*
X204913772Y-100761054D01*
X204925000Y-100817500D01*
X204925000Y-101162500D01*
X204913772Y-101218946D01*
X204881798Y-101266798D01*
X204833946Y-101298772D01*
X204777500Y-101310000D01*
X204482500Y-101310000D01*
X204426054Y-101298772D01*
X204378202Y-101266798D01*
X204346228Y-101218946D01*
X204335000Y-101162500D01*
X204335000Y-100817500D01*
X204346228Y-100761054D01*
X204378202Y-100713202D01*
X204426054Y-100681228D01*
X204482500Y-100670000D01*
X204777500Y-100670000D01*
X204833946Y-100681228D01*
G37*
G04 #@! TD.AperFunction*
G04 #@! TA.AperFunction,SMDPad,CuDef*
G36*
X200348946Y-106801228D02*
G01*
X200396798Y-106833202D01*
X200428772Y-106881054D01*
X200440000Y-106937500D01*
X200440000Y-107282500D01*
X200428772Y-107338946D01*
X200396798Y-107386798D01*
X200348946Y-107418772D01*
X200292500Y-107430000D01*
X199997500Y-107430000D01*
X199941054Y-107418772D01*
X199893202Y-107386798D01*
X199861228Y-107338946D01*
X199850000Y-107282500D01*
X199850000Y-106937500D01*
X199861228Y-106881054D01*
X199893202Y-106833202D01*
X199941054Y-106801228D01*
X199997500Y-106790000D01*
X200292500Y-106790000D01*
X200348946Y-106801228D01*
G37*
G04 #@! TD.AperFunction*
G04 #@! TA.AperFunction,SMDPad,CuDef*
G36*
X201318946Y-106801228D02*
G01*
X201366798Y-106833202D01*
X201398772Y-106881054D01*
X201410000Y-106937500D01*
X201410000Y-107282500D01*
X201398772Y-107338946D01*
X201366798Y-107386798D01*
X201318946Y-107418772D01*
X201262500Y-107430000D01*
X200967500Y-107430000D01*
X200911054Y-107418772D01*
X200863202Y-107386798D01*
X200831228Y-107338946D01*
X200820000Y-107282500D01*
X200820000Y-106937500D01*
X200831228Y-106881054D01*
X200863202Y-106833202D01*
X200911054Y-106801228D01*
X200967500Y-106790000D01*
X201262500Y-106790000D01*
X201318946Y-106801228D01*
G37*
G04 #@! TD.AperFunction*
G04 #@! TA.AperFunction,SMDPad,CuDef*
G36*
X196824946Y-107435228D02*
G01*
X196872798Y-107467202D01*
X196904772Y-107515054D01*
X196916000Y-107571500D01*
X196916000Y-107866500D01*
X196904772Y-107922946D01*
X196872798Y-107970798D01*
X196824946Y-108002772D01*
X196768500Y-108014000D01*
X196423500Y-108014000D01*
X196367054Y-108002772D01*
X196319202Y-107970798D01*
X196287228Y-107922946D01*
X196276000Y-107866500D01*
X196276000Y-107571500D01*
X196287228Y-107515054D01*
X196319202Y-107467202D01*
X196367054Y-107435228D01*
X196423500Y-107424000D01*
X196768500Y-107424000D01*
X196824946Y-107435228D01*
G37*
G04 #@! TD.AperFunction*
G04 #@! TA.AperFunction,SMDPad,CuDef*
G36*
X196824946Y-108405228D02*
G01*
X196872798Y-108437202D01*
X196904772Y-108485054D01*
X196916000Y-108541500D01*
X196916000Y-108836500D01*
X196904772Y-108892946D01*
X196872798Y-108940798D01*
X196824946Y-108972772D01*
X196768500Y-108984000D01*
X196423500Y-108984000D01*
X196367054Y-108972772D01*
X196319202Y-108940798D01*
X196287228Y-108892946D01*
X196276000Y-108836500D01*
X196276000Y-108541500D01*
X196287228Y-108485054D01*
X196319202Y-108437202D01*
X196367054Y-108405228D01*
X196423500Y-108394000D01*
X196768500Y-108394000D01*
X196824946Y-108405228D01*
G37*
G04 #@! TD.AperFunction*
D14*
X190410000Y-97865000D03*
X190410000Y-99135000D03*
X190410000Y-100405000D03*
D15*
X190410000Y-96595000D03*
D14*
X190410000Y-101675000D03*
D15*
X190410000Y-102945000D03*
G04 #@! TA.AperFunction,SMDPad,CuDef*
G36*
X193960967Y-100917636D02*
G01*
X194158957Y-100719646D01*
X194759997Y-101320686D01*
X194562007Y-101518676D01*
X193960967Y-100917636D01*
G37*
G04 #@! TD.AperFunction*
G04 #@! TA.AperFunction,SMDPad,CuDef*
G36*
X197461146Y-103795560D02*
G01*
X198062186Y-103194520D01*
X198260176Y-103392510D01*
X197659136Y-103993550D01*
X197461146Y-103795560D01*
G37*
G04 #@! TD.AperFunction*
G04 #@! TA.AperFunction,SMDPad,CuDef*
G36*
X194986272Y-106892689D02*
G01*
X195184262Y-106694699D01*
X195785302Y-107295739D01*
X195587312Y-107493729D01*
X194986272Y-106892689D01*
G37*
G04 #@! TD.AperFunction*
G04 #@! TA.AperFunction,SMDPad,CuDef*
G36*
X192610392Y-104106687D02*
G01*
X194873134Y-101843945D01*
X197135876Y-104106687D01*
X194873134Y-106369429D01*
X192610392Y-104106687D01*
G37*
G04 #@! TD.AperFunction*
D16*
X194873134Y-102692474D03*
X195580241Y-103399581D03*
X196287348Y-104106687D03*
X194166028Y-103399581D03*
X194873134Y-104106687D03*
X195580241Y-104813794D03*
X193458921Y-104106687D03*
X194166028Y-104813794D03*
X194873134Y-105520901D03*
G04 #@! TA.AperFunction,SMDPad,CuDef*
G36*
X191486093Y-104820865D02*
G01*
X192087133Y-104219825D01*
X192285123Y-104417815D01*
X191684083Y-105018855D01*
X191486093Y-104820865D01*
G37*
G04 #@! TD.AperFunction*
G04 #@! TA.AperFunction,SMDPad,CuDef*
G36*
X191839647Y-105174418D02*
G01*
X192440687Y-104573378D01*
X192638677Y-104771368D01*
X192037637Y-105372408D01*
X191839647Y-105174418D01*
G37*
G04 #@! TD.AperFunction*
G04 #@! TA.AperFunction,SMDPad,CuDef*
G36*
X192193200Y-105527972D02*
G01*
X192794240Y-104926932D01*
X192992230Y-105124922D01*
X192391190Y-105725962D01*
X192193200Y-105527972D01*
G37*
G04 #@! TD.AperFunction*
G04 #@! TA.AperFunction,SMDPad,CuDef*
G36*
X192546753Y-105881525D02*
G01*
X193147793Y-105280485D01*
X193345783Y-105478475D01*
X192744743Y-106079515D01*
X192546753Y-105881525D01*
G37*
G04 #@! TD.AperFunction*
G04 #@! TA.AperFunction,SMDPad,CuDef*
G36*
X192900307Y-106235078D02*
G01*
X193501347Y-105634038D01*
X193699337Y-105832028D01*
X193098297Y-106433068D01*
X192900307Y-106235078D01*
G37*
G04 #@! TD.AperFunction*
G04 #@! TA.AperFunction,SMDPad,CuDef*
G36*
X193253860Y-106588632D02*
G01*
X193854900Y-105987592D01*
X194052890Y-106185582D01*
X193451850Y-106786622D01*
X193253860Y-106588632D01*
G37*
G04 #@! TD.AperFunction*
G04 #@! TA.AperFunction,SMDPad,CuDef*
G36*
X193607414Y-106942185D02*
G01*
X194208454Y-106341145D01*
X194406444Y-106539135D01*
X193805404Y-107140175D01*
X193607414Y-106942185D01*
G37*
G04 #@! TD.AperFunction*
G04 #@! TA.AperFunction,SMDPad,CuDef*
G36*
X193960967Y-107295739D02*
G01*
X194562007Y-106694699D01*
X194759997Y-106892689D01*
X194158957Y-107493729D01*
X193960967Y-107295739D01*
G37*
G04 #@! TD.AperFunction*
G04 #@! TA.AperFunction,SMDPad,CuDef*
G36*
X195339825Y-106539135D02*
G01*
X195537815Y-106341145D01*
X196138855Y-106942185D01*
X195940865Y-107140175D01*
X195339825Y-106539135D01*
G37*
G04 #@! TD.AperFunction*
G04 #@! TA.AperFunction,SMDPad,CuDef*
G36*
X195693379Y-106185582D02*
G01*
X195891369Y-105987592D01*
X196492409Y-106588632D01*
X196294419Y-106786622D01*
X195693379Y-106185582D01*
G37*
G04 #@! TD.AperFunction*
G04 #@! TA.AperFunction,SMDPad,CuDef*
G36*
X196046932Y-105832028D02*
G01*
X196244922Y-105634038D01*
X196845962Y-106235078D01*
X196647972Y-106433068D01*
X196046932Y-105832028D01*
G37*
G04 #@! TD.AperFunction*
G04 #@! TA.AperFunction,SMDPad,CuDef*
G36*
X196400485Y-105478475D02*
G01*
X196598475Y-105280485D01*
X197199515Y-105881525D01*
X197001525Y-106079515D01*
X196400485Y-105478475D01*
G37*
G04 #@! TD.AperFunction*
G04 #@! TA.AperFunction,SMDPad,CuDef*
G36*
X196754039Y-105124922D02*
G01*
X196952029Y-104926932D01*
X197553069Y-105527972D01*
X197355079Y-105725962D01*
X196754039Y-105124922D01*
G37*
G04 #@! TD.AperFunction*
G04 #@! TA.AperFunction,SMDPad,CuDef*
G36*
X197107592Y-104771368D02*
G01*
X197305582Y-104573378D01*
X197906622Y-105174418D01*
X197708632Y-105372408D01*
X197107592Y-104771368D01*
G37*
G04 #@! TD.AperFunction*
G04 #@! TA.AperFunction,SMDPad,CuDef*
G36*
X197461146Y-104417815D02*
G01*
X197659136Y-104219825D01*
X198260176Y-104820865D01*
X198062186Y-105018855D01*
X197461146Y-104417815D01*
G37*
G04 #@! TD.AperFunction*
G04 #@! TA.AperFunction,SMDPad,CuDef*
G36*
X197107592Y-103442007D02*
G01*
X197708632Y-102840967D01*
X197906622Y-103038957D01*
X197305582Y-103639997D01*
X197107592Y-103442007D01*
G37*
G04 #@! TD.AperFunction*
G04 #@! TA.AperFunction,SMDPad,CuDef*
G36*
X196754039Y-103088453D02*
G01*
X197355079Y-102487413D01*
X197553069Y-102685403D01*
X196952029Y-103286443D01*
X196754039Y-103088453D01*
G37*
G04 #@! TD.AperFunction*
G04 #@! TA.AperFunction,SMDPad,CuDef*
G36*
X196400485Y-102734900D02*
G01*
X197001525Y-102133860D01*
X197199515Y-102331850D01*
X196598475Y-102932890D01*
X196400485Y-102734900D01*
G37*
G04 #@! TD.AperFunction*
G04 #@! TA.AperFunction,SMDPad,CuDef*
G36*
X196046932Y-102381346D02*
G01*
X196647972Y-101780306D01*
X196845962Y-101978296D01*
X196244922Y-102579336D01*
X196046932Y-102381346D01*
G37*
G04 #@! TD.AperFunction*
G04 #@! TA.AperFunction,SMDPad,CuDef*
G36*
X195693379Y-102027793D02*
G01*
X196294419Y-101426753D01*
X196492409Y-101624743D01*
X195891369Y-102225783D01*
X195693379Y-102027793D01*
G37*
G04 #@! TD.AperFunction*
G04 #@! TA.AperFunction,SMDPad,CuDef*
G36*
X195339825Y-101674240D02*
G01*
X195940865Y-101073200D01*
X196138855Y-101271190D01*
X195537815Y-101872230D01*
X195339825Y-101674240D01*
G37*
G04 #@! TD.AperFunction*
G04 #@! TA.AperFunction,SMDPad,CuDef*
G36*
X194986272Y-101320686D02*
G01*
X195587312Y-100719646D01*
X195785302Y-100917636D01*
X195184262Y-101518676D01*
X194986272Y-101320686D01*
G37*
G04 #@! TD.AperFunction*
G04 #@! TA.AperFunction,SMDPad,CuDef*
G36*
X193607414Y-101271190D02*
G01*
X193805404Y-101073200D01*
X194406444Y-101674240D01*
X194208454Y-101872230D01*
X193607414Y-101271190D01*
G37*
G04 #@! TD.AperFunction*
G04 #@! TA.AperFunction,SMDPad,CuDef*
G36*
X193253860Y-101624743D02*
G01*
X193451850Y-101426753D01*
X194052890Y-102027793D01*
X193854900Y-102225783D01*
X193253860Y-101624743D01*
G37*
G04 #@! TD.AperFunction*
G04 #@! TA.AperFunction,SMDPad,CuDef*
G36*
X192900307Y-101978296D02*
G01*
X193098297Y-101780306D01*
X193699337Y-102381346D01*
X193501347Y-102579336D01*
X192900307Y-101978296D01*
G37*
G04 #@! TD.AperFunction*
G04 #@! TA.AperFunction,SMDPad,CuDef*
G36*
X192546753Y-102331850D02*
G01*
X192744743Y-102133860D01*
X193345783Y-102734900D01*
X193147793Y-102932890D01*
X192546753Y-102331850D01*
G37*
G04 #@! TD.AperFunction*
G04 #@! TA.AperFunction,SMDPad,CuDef*
G36*
X192193200Y-102685403D02*
G01*
X192391190Y-102487413D01*
X192992230Y-103088453D01*
X192794240Y-103286443D01*
X192193200Y-102685403D01*
G37*
G04 #@! TD.AperFunction*
G04 #@! TA.AperFunction,SMDPad,CuDef*
G36*
X191839647Y-103038957D02*
G01*
X192037637Y-102840967D01*
X192638677Y-103442007D01*
X192440687Y-103639997D01*
X191839647Y-103038957D01*
G37*
G04 #@! TD.AperFunction*
G04 #@! TA.AperFunction,SMDPad,CuDef*
G36*
X191486093Y-103392510D02*
G01*
X191684083Y-103194520D01*
X192285123Y-103795560D01*
X192087133Y-103993550D01*
X191486093Y-103392510D01*
G37*
G04 #@! TD.AperFunction*
D17*
X205315000Y-106740000D03*
X205315000Y-106240000D03*
X205315000Y-105740000D03*
X205315000Y-105240000D03*
D18*
X204615000Y-104540000D03*
X204115000Y-104540000D03*
X203615000Y-104540000D03*
X203115000Y-104540000D03*
D17*
X202415000Y-105240000D03*
X202415000Y-105740000D03*
X202415000Y-106240000D03*
X202415000Y-106740000D03*
D18*
X203115000Y-107440000D03*
X203615000Y-107440000D03*
X204115000Y-107440000D03*
X204615000Y-107440000D03*
D19*
X203865000Y-105990000D03*
G04 #@! TA.AperFunction,SMDPad,CuDef*
G36*
X193358946Y-95231228D02*
G01*
X193406798Y-95263202D01*
X193438772Y-95311054D01*
X193450000Y-95367500D01*
X193450000Y-95712500D01*
X193438772Y-95768946D01*
X193406798Y-95816798D01*
X193358946Y-95848772D01*
X193302500Y-95860000D01*
X193007500Y-95860000D01*
X192951054Y-95848772D01*
X192903202Y-95816798D01*
X192871228Y-95768946D01*
X192860000Y-95712500D01*
X192860000Y-95367500D01*
X192871228Y-95311054D01*
X192903202Y-95263202D01*
X192951054Y-95231228D01*
X193007500Y-95220000D01*
X193302500Y-95220000D01*
X193358946Y-95231228D01*
G37*
G04 #@! TD.AperFunction*
G04 #@! TA.AperFunction,SMDPad,CuDef*
G36*
X192388946Y-95231228D02*
G01*
X192436798Y-95263202D01*
X192468772Y-95311054D01*
X192480000Y-95367500D01*
X192480000Y-95712500D01*
X192468772Y-95768946D01*
X192436798Y-95816798D01*
X192388946Y-95848772D01*
X192332500Y-95860000D01*
X192037500Y-95860000D01*
X191981054Y-95848772D01*
X191933202Y-95816798D01*
X191901228Y-95768946D01*
X191890000Y-95712500D01*
X191890000Y-95367500D01*
X191901228Y-95311054D01*
X191933202Y-95263202D01*
X191981054Y-95231228D01*
X192037500Y-95220000D01*
X192332500Y-95220000D01*
X192388946Y-95231228D01*
G37*
G04 #@! TD.AperFunction*
G04 #@! TA.AperFunction,SMDPad,CuDef*
G36*
X195938946Y-94281228D02*
G01*
X195986798Y-94313202D01*
X196018772Y-94361054D01*
X196030000Y-94417500D01*
X196030000Y-94712500D01*
X196018772Y-94768946D01*
X195986798Y-94816798D01*
X195938946Y-94848772D01*
X195882500Y-94860000D01*
X195537500Y-94860000D01*
X195481054Y-94848772D01*
X195433202Y-94816798D01*
X195401228Y-94768946D01*
X195390000Y-94712500D01*
X195390000Y-94417500D01*
X195401228Y-94361054D01*
X195433202Y-94313202D01*
X195481054Y-94281228D01*
X195537500Y-94270000D01*
X195882500Y-94270000D01*
X195938946Y-94281228D01*
G37*
G04 #@! TD.AperFunction*
G04 #@! TA.AperFunction,SMDPad,CuDef*
G36*
X195938946Y-93311228D02*
G01*
X195986798Y-93343202D01*
X196018772Y-93391054D01*
X196030000Y-93447500D01*
X196030000Y-93742500D01*
X196018772Y-93798946D01*
X195986798Y-93846798D01*
X195938946Y-93878772D01*
X195882500Y-93890000D01*
X195537500Y-93890000D01*
X195481054Y-93878772D01*
X195433202Y-93846798D01*
X195401228Y-93798946D01*
X195390000Y-93742500D01*
X195390000Y-93447500D01*
X195401228Y-93391054D01*
X195433202Y-93343202D01*
X195481054Y-93311228D01*
X195537500Y-93300000D01*
X195882500Y-93300000D01*
X195938946Y-93311228D01*
G37*
G04 #@! TD.AperFunction*
G04 #@! TA.AperFunction,SMDPad,CuDef*
G36*
X192698946Y-99491228D02*
G01*
X192746798Y-99523202D01*
X192778772Y-99571054D01*
X192790000Y-99627500D01*
X192790000Y-99922500D01*
X192778772Y-99978946D01*
X192746798Y-100026798D01*
X192698946Y-100058772D01*
X192642500Y-100070000D01*
X192297500Y-100070000D01*
X192241054Y-100058772D01*
X192193202Y-100026798D01*
X192161228Y-99978946D01*
X192150000Y-99922500D01*
X192150000Y-99627500D01*
X192161228Y-99571054D01*
X192193202Y-99523202D01*
X192241054Y-99491228D01*
X192297500Y-99480000D01*
X192642500Y-99480000D01*
X192698946Y-99491228D01*
G37*
G04 #@! TD.AperFunction*
G04 #@! TA.AperFunction,SMDPad,CuDef*
G36*
X192698946Y-100461228D02*
G01*
X192746798Y-100493202D01*
X192778772Y-100541054D01*
X192790000Y-100597500D01*
X192790000Y-100892500D01*
X192778772Y-100948946D01*
X192746798Y-100996798D01*
X192698946Y-101028772D01*
X192642500Y-101040000D01*
X192297500Y-101040000D01*
X192241054Y-101028772D01*
X192193202Y-100996798D01*
X192161228Y-100948946D01*
X192150000Y-100892500D01*
X192150000Y-100597500D01*
X192161228Y-100541054D01*
X192193202Y-100493202D01*
X192241054Y-100461228D01*
X192297500Y-100450000D01*
X192642500Y-100450000D01*
X192698946Y-100461228D01*
G37*
G04 #@! TD.AperFunction*
G04 #@! TA.AperFunction,SMDPad,CuDef*
G36*
X203868946Y-99561228D02*
G01*
X203916798Y-99593202D01*
X203948772Y-99641054D01*
X203960000Y-99697500D01*
X203960000Y-100042500D01*
X203948772Y-100098946D01*
X203916798Y-100146798D01*
X203868946Y-100178772D01*
X203812500Y-100190000D01*
X203517500Y-100190000D01*
X203461054Y-100178772D01*
X203413202Y-100146798D01*
X203381228Y-100098946D01*
X203370000Y-100042500D01*
X203370000Y-99697500D01*
X203381228Y-99641054D01*
X203413202Y-99593202D01*
X203461054Y-99561228D01*
X203517500Y-99550000D01*
X203812500Y-99550000D01*
X203868946Y-99561228D01*
G37*
G04 #@! TD.AperFunction*
G04 #@! TA.AperFunction,SMDPad,CuDef*
G36*
X204838946Y-99561228D02*
G01*
X204886798Y-99593202D01*
X204918772Y-99641054D01*
X204930000Y-99697500D01*
X204930000Y-100042500D01*
X204918772Y-100098946D01*
X204886798Y-100146798D01*
X204838946Y-100178772D01*
X204782500Y-100190000D01*
X204487500Y-100190000D01*
X204431054Y-100178772D01*
X204383202Y-100146798D01*
X204351228Y-100098946D01*
X204340000Y-100042500D01*
X204340000Y-99697500D01*
X204351228Y-99641054D01*
X204383202Y-99593202D01*
X204431054Y-99561228D01*
X204487500Y-99550000D01*
X204782500Y-99550000D01*
X204838946Y-99561228D01*
G37*
G04 #@! TD.AperFunction*
G04 #@! TA.AperFunction,SMDPad,CuDef*
G36*
X207288946Y-107086228D02*
G01*
X207336798Y-107118202D01*
X207368772Y-107166054D01*
X207380000Y-107222500D01*
X207380000Y-107517500D01*
X207368772Y-107573946D01*
X207336798Y-107621798D01*
X207288946Y-107653772D01*
X207232500Y-107665000D01*
X206887500Y-107665000D01*
X206831054Y-107653772D01*
X206783202Y-107621798D01*
X206751228Y-107573946D01*
X206740000Y-107517500D01*
X206740000Y-107222500D01*
X206751228Y-107166054D01*
X206783202Y-107118202D01*
X206831054Y-107086228D01*
X206887500Y-107075000D01*
X207232500Y-107075000D01*
X207288946Y-107086228D01*
G37*
G04 #@! TD.AperFunction*
G04 #@! TA.AperFunction,SMDPad,CuDef*
G36*
X207288946Y-106116228D02*
G01*
X207336798Y-106148202D01*
X207368772Y-106196054D01*
X207380000Y-106252500D01*
X207380000Y-106547500D01*
X207368772Y-106603946D01*
X207336798Y-106651798D01*
X207288946Y-106683772D01*
X207232500Y-106695000D01*
X206887500Y-106695000D01*
X206831054Y-106683772D01*
X206783202Y-106651798D01*
X206751228Y-106603946D01*
X206740000Y-106547500D01*
X206740000Y-106252500D01*
X206751228Y-106196054D01*
X206783202Y-106148202D01*
X206831054Y-106116228D01*
X206887500Y-106105000D01*
X207232500Y-106105000D01*
X207288946Y-106116228D01*
G37*
G04 #@! TD.AperFunction*
G04 #@! TA.AperFunction,SMDPad,CuDef*
G36*
X202238946Y-99831228D02*
G01*
X202286798Y-99863202D01*
X202318772Y-99911054D01*
X202330000Y-99967500D01*
X202330000Y-100312500D01*
X202318772Y-100368946D01*
X202286798Y-100416798D01*
X202238946Y-100448772D01*
X202182500Y-100460000D01*
X201887500Y-100460000D01*
X201831054Y-100448772D01*
X201783202Y-100416798D01*
X201751228Y-100368946D01*
X201740000Y-100312500D01*
X201740000Y-99967500D01*
X201751228Y-99911054D01*
X201783202Y-99863202D01*
X201831054Y-99831228D01*
X201887500Y-99820000D01*
X202182500Y-99820000D01*
X202238946Y-99831228D01*
G37*
G04 #@! TD.AperFunction*
G04 #@! TA.AperFunction,SMDPad,CuDef*
G36*
X201268946Y-99831228D02*
G01*
X201316798Y-99863202D01*
X201348772Y-99911054D01*
X201360000Y-99967500D01*
X201360000Y-100312500D01*
X201348772Y-100368946D01*
X201316798Y-100416798D01*
X201268946Y-100448772D01*
X201212500Y-100460000D01*
X200917500Y-100460000D01*
X200861054Y-100448772D01*
X200813202Y-100416798D01*
X200781228Y-100368946D01*
X200770000Y-100312500D01*
X200770000Y-99967500D01*
X200781228Y-99911054D01*
X200813202Y-99863202D01*
X200861054Y-99831228D01*
X200917500Y-99820000D01*
X201212500Y-99820000D01*
X201268946Y-99831228D01*
G37*
G04 #@! TD.AperFunction*
G04 #@! TA.AperFunction,SMDPad,CuDef*
G36*
X203888946Y-109419228D02*
G01*
X203936798Y-109451202D01*
X203968772Y-109499054D01*
X203980000Y-109555500D01*
X203980000Y-109900500D01*
X203968772Y-109956946D01*
X203936798Y-110004798D01*
X203888946Y-110036772D01*
X203832500Y-110048000D01*
X203537500Y-110048000D01*
X203481054Y-110036772D01*
X203433202Y-110004798D01*
X203401228Y-109956946D01*
X203390000Y-109900500D01*
X203390000Y-109555500D01*
X203401228Y-109499054D01*
X203433202Y-109451202D01*
X203481054Y-109419228D01*
X203537500Y-109408000D01*
X203832500Y-109408000D01*
X203888946Y-109419228D01*
G37*
G04 #@! TD.AperFunction*
G04 #@! TA.AperFunction,SMDPad,CuDef*
G36*
X202918946Y-109419228D02*
G01*
X202966798Y-109451202D01*
X202998772Y-109499054D01*
X203010000Y-109555500D01*
X203010000Y-109900500D01*
X202998772Y-109956946D01*
X202966798Y-110004798D01*
X202918946Y-110036772D01*
X202862500Y-110048000D01*
X202567500Y-110048000D01*
X202511054Y-110036772D01*
X202463202Y-110004798D01*
X202431228Y-109956946D01*
X202420000Y-109900500D01*
X202420000Y-109555500D01*
X202431228Y-109499054D01*
X202463202Y-109451202D01*
X202511054Y-109419228D01*
X202567500Y-109408000D01*
X202862500Y-109408000D01*
X202918946Y-109419228D01*
G37*
G04 #@! TD.AperFunction*
D20*
X200540000Y-109241000D03*
D21*
X199616199Y-108591001D03*
X199616199Y-109241000D03*
X199616199Y-109890999D03*
X201463801Y-109890999D03*
X201463801Y-109241000D03*
X201463801Y-108591001D03*
G04 #@! TA.AperFunction,SMDPad,CuDef*
G36*
X201655645Y-100943776D02*
G01*
X201736751Y-100997969D01*
X203257031Y-102518249D01*
X203311224Y-102599355D01*
X203330254Y-102695026D01*
X203311224Y-102790697D01*
X203257031Y-102871803D01*
X202726701Y-103402133D01*
X202645595Y-103456326D01*
X202549924Y-103475356D01*
X202454253Y-103456326D01*
X202373147Y-103402133D01*
X200852867Y-101881853D01*
X200798674Y-101800747D01*
X200779644Y-101705076D01*
X200798674Y-101609405D01*
X200852867Y-101528299D01*
X201383197Y-100997969D01*
X201464303Y-100943776D01*
X201559974Y-100924746D01*
X201655645Y-100943776D01*
G37*
G04 #@! TD.AperFunction*
G04 #@! TA.AperFunction,SMDPad,CuDef*
G36*
X199675747Y-102923674D02*
G01*
X199756853Y-102977867D01*
X201277133Y-104498147D01*
X201331326Y-104579253D01*
X201350356Y-104674924D01*
X201331326Y-104770595D01*
X201277133Y-104851701D01*
X200746803Y-105382031D01*
X200665697Y-105436224D01*
X200570026Y-105455254D01*
X200474355Y-105436224D01*
X200393249Y-105382031D01*
X198872969Y-103861751D01*
X198818776Y-103780645D01*
X198799746Y-103684974D01*
X198818776Y-103589303D01*
X198872969Y-103508197D01*
X199403299Y-102977867D01*
X199484405Y-102923674D01*
X199580076Y-102904644D01*
X199675747Y-102923674D01*
G37*
G04 #@! TD.AperFunction*
D22*
X192450101Y-93270001D03*
X192450101Y-93920000D03*
X192450101Y-94569999D03*
X194329899Y-94569999D03*
X194329899Y-93920000D03*
X194329899Y-93270001D03*
D20*
X193390000Y-93920000D03*
D23*
X193400000Y-93500000D03*
X203465000Y-105590000D03*
X203465000Y-106440000D03*
X204315000Y-106440000D03*
X200540000Y-109241000D03*
X206970000Y-94010000D03*
X199379272Y-107070728D03*
X202830000Y-100140000D03*
X197940000Y-101660000D03*
X193920000Y-91830000D03*
X195100000Y-95270000D03*
X193390000Y-94390000D03*
X192440000Y-98840000D03*
X199840000Y-105710000D03*
X208280000Y-95600000D03*
X204240000Y-90670000D03*
X191910000Y-96620000D03*
X195060000Y-99910000D03*
X202950000Y-97259984D03*
X197206021Y-97242532D03*
X203708000Y-108966000D03*
X195600000Y-108770000D03*
X202380000Y-104650000D03*
X202323206Y-107534768D03*
X191460000Y-98810000D03*
X198340000Y-107000000D03*
X197631999Y-110220106D03*
X200600000Y-95569998D03*
X199840000Y-99170000D03*
X198629989Y-99220000D03*
X206240000Y-106790000D03*
X205560000Y-107760000D03*
X204284542Y-105593773D03*
X205150000Y-103510000D03*
X204440000Y-102690000D03*
D24*
X203615000Y-105740000D02*
X203615000Y-104540000D01*
X203865000Y-105990000D02*
X203615000Y-105740000D01*
X203115000Y-104824998D02*
X203115000Y-104540000D01*
X203865000Y-105990000D02*
X203140001Y-105265001D01*
X203140001Y-104849999D02*
X203115000Y-104824998D01*
X203140001Y-105265001D02*
X203140001Y-104849999D01*
X204589999Y-106714999D02*
X204315000Y-106440000D01*
X204589999Y-107414999D02*
X204589999Y-106714999D01*
X204615000Y-107440000D02*
X204589999Y-107414999D01*
X203315000Y-105740000D02*
X203465000Y-105590000D01*
X202415000Y-105740000D02*
X203315000Y-105740000D01*
X201463801Y-109241000D02*
X200540000Y-109241000D01*
X200540000Y-109241000D02*
X200540000Y-109241000D01*
X200145000Y-107110000D02*
X199418544Y-107110000D01*
X199418544Y-107110000D02*
X199379272Y-107070728D01*
X202035000Y-100140000D02*
X202830000Y-100140000D01*
X197970000Y-100740000D02*
X197970000Y-101630000D01*
X197970000Y-101630000D02*
X197940000Y-101660000D01*
X195065000Y-91760000D02*
X193990000Y-91760000D01*
X193990000Y-91760000D02*
X193920000Y-91830000D01*
X195710000Y-94565000D02*
X195710000Y-94660000D01*
X195710000Y-94660000D02*
X195100000Y-95270000D01*
X193390000Y-94569999D02*
X193390000Y-94390000D01*
X192450101Y-94569999D02*
X193390000Y-94569999D01*
X193155000Y-94155000D02*
X193390000Y-93920000D01*
X193155000Y-95540000D02*
X193155000Y-94155000D01*
X193390000Y-94390000D02*
X193390000Y-93920000D01*
X194873134Y-103753133D02*
X194873134Y-104106687D01*
X193299822Y-102179821D02*
X194873134Y-103753133D01*
X194873134Y-105874454D02*
X194873134Y-104106687D01*
X195739340Y-106740660D02*
X194873134Y-105874454D01*
X192470000Y-98870000D02*
X192440000Y-98840000D01*
X192470000Y-99775000D02*
X192470000Y-98870000D01*
X202725000Y-97955000D02*
X202725000Y-97484984D01*
X202725000Y-97484984D02*
X202950000Y-97259984D01*
X202975000Y-97234984D02*
X202950000Y-97259984D01*
X202975000Y-96445000D02*
X202975000Y-97234984D01*
X197475000Y-96445000D02*
X197475000Y-96973553D01*
X197475000Y-96973553D02*
X197206021Y-97242532D01*
X197225000Y-97261511D02*
X197206021Y-97242532D01*
X197225000Y-97955000D02*
X197225000Y-97261511D01*
X199460000Y-105330000D02*
X199840000Y-105710000D01*
X198920000Y-105330000D02*
X199460000Y-105330000D01*
X203685000Y-109728000D02*
X203685000Y-108989000D01*
X203685000Y-108989000D02*
X203708000Y-108966000D01*
X203283736Y-108966000D02*
X203708000Y-108966000D01*
X202044801Y-109241000D02*
X202177811Y-109107990D01*
X203141746Y-109107990D02*
X203283736Y-108966000D01*
X202177811Y-109107990D02*
X203141746Y-109107990D01*
X201463801Y-109241000D02*
X202044801Y-109241000D01*
X201476811Y-108604011D02*
X203075991Y-108604011D01*
X203075991Y-108604011D02*
X203615000Y-108065000D01*
X201463801Y-108591001D02*
X201476811Y-108604011D01*
X203615000Y-108065000D02*
X203615000Y-107440000D01*
X203115000Y-107999302D02*
X203115000Y-107440000D01*
X199616199Y-108264001D02*
X199930200Y-107950000D01*
X199616199Y-108591001D02*
X199616199Y-108264001D01*
X202035205Y-108134769D02*
X202979533Y-108134769D01*
X199930200Y-107950000D02*
X201850436Y-107950000D01*
X202979533Y-108134769D02*
X203115000Y-107999302D01*
X201850436Y-107950000D02*
X202035205Y-108134769D01*
X201790000Y-106740000D02*
X202415000Y-106740000D01*
X201697876Y-106740000D02*
X201790000Y-106740000D01*
X201257876Y-106300000D02*
X201697876Y-106740000D01*
X196800000Y-105680000D02*
X197420000Y-106300000D01*
X197420000Y-106300000D02*
X201257876Y-106300000D01*
X200792678Y-104547576D02*
X199785051Y-103539949D01*
X201790000Y-106240000D02*
X201082678Y-105532678D01*
X200792678Y-104892678D02*
X200792678Y-104547576D01*
X202415000Y-106240000D02*
X201790000Y-106240000D01*
X201475000Y-97020000D02*
X201475000Y-96445000D01*
X201475000Y-97130000D02*
X201475000Y-97020000D01*
X201225000Y-97380000D02*
X201475000Y-97130000D01*
X201225000Y-97955000D02*
X201225000Y-97380000D01*
X198975000Y-97130000D02*
X198975000Y-97020000D01*
X198725000Y-97380000D02*
X198975000Y-97130000D01*
X198975000Y-97020000D02*
X198975000Y-96445000D01*
X198725000Y-97955000D02*
X198725000Y-97380000D01*
X201082678Y-105187576D02*
X200075051Y-104179949D01*
X201082678Y-105532678D02*
X201082678Y-105187576D01*
X201475000Y-95555000D02*
X201475000Y-96445000D01*
X201480000Y-95550000D02*
X201475000Y-95555000D01*
X201225000Y-98680000D02*
X201225000Y-97955000D01*
X201190000Y-99180000D02*
X201190000Y-98715000D01*
X201190000Y-98715000D02*
X201225000Y-98680000D01*
D25*
X199050000Y-103154898D02*
X200075051Y-104179949D01*
X199050000Y-102350000D02*
X199050000Y-103154898D01*
X201190000Y-98715000D02*
X201190000Y-100210000D01*
X201190000Y-100210000D02*
X199050000Y-102350000D01*
D24*
X195995000Y-93595000D02*
X195710000Y-93595000D01*
X198169999Y-95769999D02*
X195995000Y-93595000D01*
X198975000Y-96445000D02*
X198975000Y-95879998D01*
X198865001Y-95769999D02*
X198169999Y-95769999D01*
X198975000Y-95879998D02*
X198865001Y-95769999D01*
X195710000Y-93595000D02*
X195385001Y-93270001D01*
X194894799Y-94569999D02*
X194329899Y-94569999D01*
X194994800Y-94469998D02*
X194894799Y-94569999D01*
X194994800Y-93284801D02*
X194994800Y-94469998D01*
X194980000Y-93270001D02*
X194994800Y-93284801D01*
X195385001Y-93270001D02*
X194980000Y-93270001D01*
X194980000Y-93270001D02*
X194329899Y-93270001D01*
X202415000Y-105240000D02*
X202415000Y-104685000D01*
X202415000Y-104685000D02*
X202380000Y-104650000D01*
X201115000Y-107110000D02*
X201401700Y-107110000D01*
X201401700Y-107110000D02*
X201826468Y-107534768D01*
X201826468Y-107534768D02*
X202323206Y-107534768D01*
X202772576Y-102567678D02*
X201764949Y-101560051D01*
X204115000Y-103765000D02*
X203915000Y-103565000D01*
X204115000Y-104540000D02*
X204115000Y-103765000D01*
X203915000Y-103565000D02*
X203557678Y-103207678D01*
X204290000Y-103565000D02*
X203915000Y-103565000D01*
X204615000Y-104540000D02*
X204615000Y-103890000D01*
X204615000Y-103890000D02*
X204290000Y-103565000D01*
X203062576Y-103207678D02*
X202054949Y-102200051D01*
X203557678Y-103207678D02*
X203062576Y-103207678D01*
X207100000Y-104330000D02*
X207110000Y-104320000D01*
X207110000Y-104320000D02*
X207265000Y-104320000D01*
X190960000Y-100405000D02*
X190410000Y-100405000D01*
X191049968Y-100494968D02*
X190960000Y-100405000D01*
X191049968Y-101409244D02*
X191049968Y-100494968D01*
X191050001Y-101409277D02*
X191049968Y-101409244D01*
X191050001Y-102758428D02*
X191050001Y-101409277D01*
X191885608Y-103594035D02*
X191050001Y-102758428D01*
X191450012Y-102451332D02*
X192239162Y-103240482D01*
X191450012Y-101243588D02*
X191450012Y-102451332D01*
X191449979Y-101243555D02*
X191450012Y-101243588D01*
X191449979Y-99749979D02*
X191449979Y-101243555D01*
X190410000Y-99135000D02*
X190835000Y-99135000D01*
X190835000Y-99135000D02*
X191449979Y-99749979D01*
X191790000Y-95540000D02*
X191450000Y-95200000D01*
X192185000Y-95540000D02*
X191790000Y-95540000D01*
X191450000Y-95200000D02*
X191450000Y-94160000D01*
X191690000Y-93920000D02*
X192450101Y-93920000D01*
X191450000Y-94160000D02*
X191690000Y-93920000D01*
X191885201Y-93270001D02*
X191450000Y-93705202D01*
X191450000Y-93705202D02*
X191450000Y-94160000D01*
X192450101Y-93270001D02*
X191885201Y-93270001D01*
X192592715Y-102886928D02*
X191850023Y-102144236D01*
X191849990Y-99199990D02*
X191460000Y-98810000D01*
X191850023Y-102144236D02*
X191850023Y-101077899D01*
X191850023Y-101077899D02*
X191849990Y-101077866D01*
X191849990Y-101077866D02*
X191849990Y-99199990D01*
X190723153Y-105283153D02*
X194755000Y-109315000D01*
X189929155Y-103589154D02*
X190723153Y-104383153D01*
X189757599Y-97247401D02*
X189757599Y-103064217D01*
X189863437Y-103399201D02*
X189929155Y-103589154D01*
X190410000Y-96595000D02*
X189757599Y-97247401D01*
X189800556Y-103205587D02*
X189863437Y-103399201D01*
X189757599Y-103064217D02*
X189766587Y-103093798D01*
X190723153Y-104383153D02*
X190723153Y-105283153D01*
X189766587Y-103093798D02*
X189800556Y-103205587D01*
X191465000Y-95540000D02*
X190410000Y-96595000D01*
X192185000Y-95540000D02*
X191465000Y-95540000D01*
X195070000Y-109305000D02*
X195060000Y-109315000D01*
X194755000Y-109315000D02*
X195060000Y-109315000D01*
X195385787Y-107094214D02*
X195385787Y-107105787D01*
X195810000Y-107530000D02*
X195070000Y-108270000D01*
X195070000Y-108270000D02*
X195070000Y-109305000D01*
X195385787Y-107105787D02*
X195810000Y-107530000D01*
X202552001Y-109890999D02*
X202715000Y-109728000D01*
X201463801Y-109890999D02*
X202552001Y-109890999D01*
X202380832Y-110062168D02*
X202715000Y-109728000D01*
X202380832Y-110293168D02*
X202380832Y-110062168D01*
X202062906Y-110490000D02*
X202123398Y-110478340D01*
X197878381Y-110478683D02*
X197937091Y-110490000D01*
X197937091Y-110490000D02*
X202062906Y-110490000D01*
X195060000Y-109315000D02*
X195392242Y-109647242D01*
X202123398Y-110478340D02*
X202215168Y-110458832D01*
X195392242Y-109647242D02*
X195558289Y-109725001D01*
X195558289Y-109725001D02*
X195744259Y-109807808D01*
X202215168Y-110458832D02*
X202380832Y-110293168D01*
X195931759Y-109887054D02*
X196120772Y-109962732D01*
X195744259Y-109807808D02*
X195931759Y-109887054D01*
X196120772Y-109962732D02*
X196171683Y-109982000D01*
X196596000Y-108689000D02*
X196596000Y-109982000D01*
X196171683Y-109982000D02*
X196596000Y-109982000D01*
X196596000Y-109982000D02*
X197381698Y-109982000D01*
X198605000Y-107696000D02*
X198605000Y-107265000D01*
X198605000Y-107265000D02*
X198340000Y-107000000D01*
X197631999Y-110220106D02*
X197878381Y-110478683D01*
X197381698Y-109982000D02*
X197631999Y-110220106D01*
X192470000Y-102057107D02*
X192470000Y-100745000D01*
X192946268Y-102533375D02*
X192470000Y-102057107D01*
X192298004Y-97810000D02*
X190465000Y-97810000D01*
X194006929Y-101472715D02*
X193330000Y-100795786D01*
X190465000Y-97810000D02*
X190410000Y-97865000D01*
X193330000Y-98841996D02*
X192298004Y-97810000D01*
X193330000Y-100795786D02*
X193330000Y-98841996D01*
X199975000Y-96445000D02*
X199975000Y-95870000D01*
X200275002Y-95569998D02*
X200600000Y-95569998D01*
X199975000Y-95870000D02*
X200275002Y-95569998D01*
X197214948Y-99290000D02*
X198559989Y-99290000D01*
X195385787Y-101119161D02*
X197214948Y-99290000D01*
X198559989Y-99290000D02*
X198629989Y-99220000D01*
X199840000Y-98887699D02*
X199840000Y-99170000D01*
X200097698Y-98630001D02*
X199840000Y-98887699D01*
X200115001Y-98630001D02*
X200097698Y-98630001D01*
X200225000Y-97955000D02*
X200225000Y-98520002D01*
X200225000Y-98520002D02*
X200115001Y-98630001D01*
X197635000Y-107840801D02*
X197635000Y-107696000D01*
X199035199Y-109241000D02*
X197635000Y-107840801D01*
X199616199Y-109241000D02*
X199035199Y-109241000D01*
X197635000Y-107222106D02*
X196446447Y-106033553D01*
X197635000Y-107696000D02*
X197635000Y-107222106D01*
X196596000Y-106890213D02*
X196596000Y-107719000D01*
X196092894Y-106387107D02*
X196596000Y-106890213D01*
X198767999Y-109890999D02*
X199616199Y-109890999D01*
X196596000Y-107719000D02*
X198767999Y-109890999D01*
X200639989Y-98487178D02*
X200639989Y-99220011D01*
X199120000Y-100740000D02*
X198940000Y-100740000D01*
X200639989Y-99220011D02*
X199120000Y-100740000D01*
X200725000Y-97955000D02*
X200725000Y-98402167D01*
X200725000Y-98402167D02*
X200639989Y-98487178D01*
X196810209Y-92955209D02*
X196810209Y-93600209D01*
X196035000Y-91760000D02*
X196035000Y-92180000D01*
X196035000Y-92180000D02*
X196810209Y-92955209D01*
X196810209Y-93600209D02*
X198460000Y-95250000D01*
X198460000Y-95250000D02*
X199040000Y-95250000D01*
X199475000Y-95685000D02*
X199475000Y-96445000D01*
X199040000Y-95250000D02*
X199475000Y-95685000D01*
X200475000Y-97020000D02*
X200375000Y-97120000D01*
X200475000Y-96445000D02*
X200475000Y-97020000D01*
X199725000Y-97380000D02*
X199725000Y-97955000D01*
X199985000Y-97120000D02*
X199725000Y-97380000D01*
X200375000Y-97120000D02*
X199985000Y-97120000D01*
X199725000Y-98437000D02*
X199582001Y-98579999D01*
X199229999Y-98891999D02*
X199229999Y-99508005D01*
X197322053Y-99890002D02*
X195739340Y-101472715D01*
X198848002Y-99890002D02*
X197322053Y-99890002D01*
X199541999Y-98579999D02*
X199229999Y-98891999D01*
X199725000Y-97955000D02*
X199725000Y-98437000D01*
X199582001Y-98579999D02*
X199541999Y-98579999D01*
X199229999Y-99508005D02*
X198848002Y-99890002D01*
D25*
X204530000Y-94320000D02*
X202710000Y-94320000D01*
X206600000Y-97470000D02*
X206600000Y-96390000D01*
X202710000Y-94320000D02*
X201480000Y-95550000D01*
X206600000Y-96390000D02*
X204530000Y-94320000D01*
D24*
X205315000Y-106240000D02*
X205930002Y-106240000D01*
X206240000Y-106549998D02*
X206240000Y-106790000D01*
X205930002Y-106240000D02*
X206240000Y-106549998D01*
X206040000Y-108390000D02*
X207060000Y-107370000D01*
X204115000Y-108065000D02*
X204440000Y-108390000D01*
X204440000Y-108390000D02*
X206040000Y-108390000D01*
X204115000Y-107440000D02*
X204115000Y-108065000D01*
X209140000Y-103935000D02*
X209140000Y-102550000D01*
X209545000Y-104340000D02*
X209140000Y-103935000D01*
X207155000Y-107370000D02*
X207060000Y-107370000D01*
X208130000Y-106395000D02*
X207155000Y-107370000D01*
X208250000Y-106395000D02*
X208130000Y-106395000D01*
X209070000Y-105575000D02*
X208250000Y-106395000D01*
X208575000Y-104340000D02*
X209070000Y-104835000D01*
X209070000Y-104835000D02*
X209070000Y-105575000D01*
X208430000Y-105245000D02*
X207450000Y-105245000D01*
X207450000Y-105245000D02*
X207370000Y-105325000D01*
X207370000Y-106090000D02*
X207370000Y-105325000D01*
X207060000Y-106400000D02*
X207370000Y-106090000D01*
X207370000Y-105325000D02*
X206530700Y-105325000D01*
X206115700Y-105740000D02*
X205315000Y-105740000D01*
X206530700Y-105325000D02*
X206115700Y-105740000D01*
X206505000Y-104300000D02*
X206505000Y-104767856D01*
X206032856Y-105240000D02*
X205315000Y-105240000D01*
X206505000Y-104767856D02*
X206032856Y-105240000D01*
X206560000Y-104355000D02*
X206505000Y-104300000D01*
X207370000Y-104355000D02*
X206560000Y-104355000D01*
X205580000Y-104300000D02*
X205550000Y-104300000D01*
X205535000Y-104300000D02*
X205535000Y-103895000D01*
X205535000Y-103895000D02*
X205150000Y-103510000D01*
X203660000Y-101910000D02*
X204440000Y-102690000D01*
X203660000Y-100990000D02*
X203660000Y-101910000D01*
X205100000Y-101050000D02*
X206600000Y-102550000D01*
X204610000Y-101050000D02*
X205100000Y-101050000D01*
X204635000Y-100915000D02*
X204635000Y-99870000D01*
X204620000Y-100930000D02*
X204635000Y-100915000D01*
X203100000Y-99870000D02*
X202830000Y-100140000D01*
X203665000Y-99870000D02*
X203100000Y-99870000D01*
G36*
X203880731Y-108395002D02*
G01*
X204109747Y-108624018D01*
X204119712Y-108644769D01*
X204173563Y-108687835D01*
X204189661Y-108703933D01*
X204208490Y-108715767D01*
X204261915Y-108758492D01*
X204284810Y-108763735D01*
X204304732Y-108776257D01*
X204373356Y-108784015D01*
X204395121Y-108789000D01*
X204417448Y-108789000D01*
X204485619Y-108796707D01*
X204507689Y-108789000D01*
X205971954Y-108789000D01*
X205993671Y-108796626D01*
X206062204Y-108789000D01*
X206084969Y-108789000D01*
X206106657Y-108784053D01*
X206134949Y-108780905D01*
X205612582Y-109124004D01*
X205061581Y-109440812D01*
X204492785Y-109724371D01*
X204333898Y-109792135D01*
X204333898Y-109754000D01*
X203659000Y-109754000D01*
X203659000Y-109054102D01*
X203711000Y-109054102D01*
X203711000Y-109702000D01*
X204333898Y-109702000D01*
X204333898Y-109548638D01*
X204297303Y-109364664D01*
X204187567Y-109200433D01*
X204023336Y-109090697D01*
X203839362Y-109054102D01*
X203711000Y-109054102D01*
X203659000Y-109054102D01*
X203530638Y-109054102D01*
X203346664Y-109090697D01*
X203182433Y-109200433D01*
X203165499Y-109225777D01*
X203033826Y-109137796D01*
X202869361Y-109105082D01*
X202560639Y-109105082D01*
X202396174Y-109137796D01*
X202248481Y-109236481D01*
X202198699Y-109310985D01*
X202198699Y-109267000D01*
X201437801Y-109267000D01*
X201437801Y-109215000D01*
X202198699Y-109215000D01*
X202198699Y-109104249D01*
X202178561Y-109003011D01*
X203007946Y-109003011D01*
X203029663Y-109010637D01*
X203098196Y-109003011D01*
X203120961Y-109003011D01*
X203142643Y-108998065D01*
X203210629Y-108990499D01*
X203230525Y-108978018D01*
X203253468Y-108972785D01*
X203307490Y-108929737D01*
X203326393Y-108917880D01*
X203342173Y-108902100D01*
X203395835Y-108859339D01*
X203405994Y-108838278D01*
X203849019Y-108395252D01*
X203865170Y-108387496D01*
X203880731Y-108395002D01*
G37*
X203880731Y-108395002D02*
X204109747Y-108624018D01*
X204119712Y-108644769D01*
X204173563Y-108687835D01*
X204189661Y-108703933D01*
X204208490Y-108715767D01*
X204261915Y-108758492D01*
X204284810Y-108763735D01*
X204304732Y-108776257D01*
X204373356Y-108784015D01*
X204395121Y-108789000D01*
X204417448Y-108789000D01*
X204485619Y-108796707D01*
X204507689Y-108789000D01*
X205971954Y-108789000D01*
X205993671Y-108796626D01*
X206062204Y-108789000D01*
X206084969Y-108789000D01*
X206106657Y-108784053D01*
X206134949Y-108780905D01*
X205612582Y-109124004D01*
X205061581Y-109440812D01*
X204492785Y-109724371D01*
X204333898Y-109792135D01*
X204333898Y-109754000D01*
X203659000Y-109754000D01*
X203659000Y-109054102D01*
X203711000Y-109054102D01*
X203711000Y-109702000D01*
X204333898Y-109702000D01*
X204333898Y-109548638D01*
X204297303Y-109364664D01*
X204187567Y-109200433D01*
X204023336Y-109090697D01*
X203839362Y-109054102D01*
X203711000Y-109054102D01*
X203659000Y-109054102D01*
X203530638Y-109054102D01*
X203346664Y-109090697D01*
X203182433Y-109200433D01*
X203165499Y-109225777D01*
X203033826Y-109137796D01*
X202869361Y-109105082D01*
X202560639Y-109105082D01*
X202396174Y-109137796D01*
X202248481Y-109236481D01*
X202198699Y-109310985D01*
X202198699Y-109267000D01*
X201437801Y-109267000D01*
X201437801Y-109215000D01*
X202198699Y-109215000D01*
X202198699Y-109104249D01*
X202178561Y-109003011D01*
X203007946Y-109003011D01*
X203029663Y-109010637D01*
X203098196Y-109003011D01*
X203120961Y-109003011D01*
X203142643Y-108998065D01*
X203210629Y-108990499D01*
X203230525Y-108978018D01*
X203253468Y-108972785D01*
X203307490Y-108929737D01*
X203326393Y-108917880D01*
X203342173Y-108902100D01*
X203395835Y-108859339D01*
X203405994Y-108838278D01*
X203849019Y-108395252D01*
X203865170Y-108387496D01*
X203880731Y-108395002D01*
G36*
X196005796Y-108037826D02*
G01*
X196104481Y-108185519D01*
X196132140Y-108204000D01*
X196104481Y-108222481D01*
X196005796Y-108370174D01*
X195973082Y-108534639D01*
X195973082Y-108843361D01*
X196005796Y-109007826D01*
X196104481Y-109155519D01*
X196197000Y-109217338D01*
X196197001Y-109563460D01*
X196083580Y-109518048D01*
X195903106Y-109441772D01*
X195724047Y-109362042D01*
X195624868Y-109315597D01*
X195469000Y-109159730D01*
X195469000Y-108435270D01*
X195982676Y-107921595D01*
X196005796Y-108037826D01*
G37*
X196005796Y-108037826D02*
X196104481Y-108185519D01*
X196132140Y-108204000D01*
X196104481Y-108222481D01*
X196005796Y-108370174D01*
X195973082Y-108534639D01*
X195973082Y-108843361D01*
X196005796Y-109007826D01*
X196104481Y-109155519D01*
X196197000Y-109217338D01*
X196197001Y-109563460D01*
X196083580Y-109518048D01*
X195903106Y-109441772D01*
X195724047Y-109362042D01*
X195624868Y-109315597D01*
X195469000Y-109159730D01*
X195469000Y-108435270D01*
X195982676Y-107921595D01*
X196005796Y-108037826D01*
G36*
X190936919Y-103435149D02*
G01*
X191019469Y-103292167D01*
X191196487Y-103469185D01*
X191204441Y-103509173D01*
X191265003Y-103599811D01*
X191771879Y-104106688D01*
X191265003Y-104613564D01*
X191204441Y-104704201D01*
X191181236Y-104820865D01*
X191204441Y-104937529D01*
X191265003Y-105028166D01*
X191476782Y-105239945D01*
X191561772Y-105296734D01*
X191618557Y-105381719D01*
X191830336Y-105593498D01*
X191915321Y-105650283D01*
X191972110Y-105735273D01*
X192183889Y-105947052D01*
X192268876Y-106003839D01*
X192325663Y-106088826D01*
X192537442Y-106300605D01*
X192622432Y-106357394D01*
X192679217Y-106442379D01*
X192890996Y-106654158D01*
X192975981Y-106710943D01*
X193032770Y-106795933D01*
X193244549Y-107007712D01*
X193329539Y-107064501D01*
X193386324Y-107149486D01*
X193598103Y-107361265D01*
X193683088Y-107418050D01*
X193739877Y-107503040D01*
X193951656Y-107714819D01*
X194042293Y-107775381D01*
X194158957Y-107798586D01*
X194275621Y-107775381D01*
X194366258Y-107714819D01*
X194873135Y-107207944D01*
X195220460Y-107555269D01*
X194835982Y-107939747D01*
X194815231Y-107949712D01*
X194772157Y-108003573D01*
X194756066Y-108019664D01*
X194744235Y-108038489D01*
X194701508Y-108091916D01*
X194696265Y-108114811D01*
X194683743Y-108134733D01*
X194675985Y-108203357D01*
X194671000Y-108225122D01*
X194671000Y-108247449D01*
X194663293Y-108315620D01*
X194671000Y-108337690D01*
X194671001Y-108666729D01*
X191122153Y-105117882D01*
X191122153Y-104451199D01*
X191129779Y-104429482D01*
X191122153Y-104360949D01*
X191122153Y-104338183D01*
X191117207Y-104316501D01*
X191109641Y-104248515D01*
X191097160Y-104228619D01*
X191091927Y-104205676D01*
X191048884Y-104151661D01*
X191037021Y-104132750D01*
X191021234Y-104116963D01*
X190978480Y-104063309D01*
X190957425Y-104053153D01*
X190540458Y-103636186D01*
X190680731Y-103598600D01*
X190900149Y-103471919D01*
X190373231Y-102945000D01*
X190410000Y-102908231D01*
X190936919Y-103435149D01*
G37*
X190936919Y-103435149D02*
X191019469Y-103292167D01*
X191196487Y-103469185D01*
X191204441Y-103509173D01*
X191265003Y-103599811D01*
X191771879Y-104106688D01*
X191265003Y-104613564D01*
X191204441Y-104704201D01*
X191181236Y-104820865D01*
X191204441Y-104937529D01*
X191265003Y-105028166D01*
X191476782Y-105239945D01*
X191561772Y-105296734D01*
X191618557Y-105381719D01*
X191830336Y-105593498D01*
X191915321Y-105650283D01*
X191972110Y-105735273D01*
X192183889Y-105947052D01*
X192268876Y-106003839D01*
X192325663Y-106088826D01*
X192537442Y-106300605D01*
X192622432Y-106357394D01*
X192679217Y-106442379D01*
X192890996Y-106654158D01*
X192975981Y-106710943D01*
X193032770Y-106795933D01*
X193244549Y-107007712D01*
X193329539Y-107064501D01*
X193386324Y-107149486D01*
X193598103Y-107361265D01*
X193683088Y-107418050D01*
X193739877Y-107503040D01*
X193951656Y-107714819D01*
X194042293Y-107775381D01*
X194158957Y-107798586D01*
X194275621Y-107775381D01*
X194366258Y-107714819D01*
X194873135Y-107207944D01*
X195220460Y-107555269D01*
X194835982Y-107939747D01*
X194815231Y-107949712D01*
X194772157Y-108003573D01*
X194756066Y-108019664D01*
X194744235Y-108038489D01*
X194701508Y-108091916D01*
X194696265Y-108114811D01*
X194683743Y-108134733D01*
X194675985Y-108203357D01*
X194671000Y-108225122D01*
X194671000Y-108247449D01*
X194663293Y-108315620D01*
X194671000Y-108337690D01*
X194671001Y-108666729D01*
X191122153Y-105117882D01*
X191122153Y-104451199D01*
X191129779Y-104429482D01*
X191122153Y-104360949D01*
X191122153Y-104338183D01*
X191117207Y-104316501D01*
X191109641Y-104248515D01*
X191097160Y-104228619D01*
X191091927Y-104205676D01*
X191048884Y-104151661D01*
X191037021Y-104132750D01*
X191021234Y-104116963D01*
X190978480Y-104063309D01*
X190957425Y-104053153D01*
X190540458Y-103636186D01*
X190680731Y-103598600D01*
X190900149Y-103471919D01*
X190373231Y-102945000D01*
X190410000Y-102908231D01*
X190936919Y-103435149D01*
G36*
X199532697Y-106746664D02*
G01*
X199496102Y-106930638D01*
X199496102Y-107084000D01*
X200171000Y-107084000D01*
X200171000Y-107136000D01*
X199496102Y-107136000D01*
X199496102Y-107289362D01*
X199532697Y-107473336D01*
X199642433Y-107637567D01*
X199663964Y-107651954D01*
X199610356Y-107694672D01*
X199600199Y-107715729D01*
X199382178Y-107933750D01*
X199361430Y-107943714D01*
X199318362Y-107997567D01*
X199302266Y-108013664D01*
X199290435Y-108032487D01*
X199247708Y-108085914D01*
X199242463Y-108108813D01*
X199229941Y-108128737D01*
X199226285Y-108161083D01*
X199225449Y-108161083D01*
X199118535Y-108182349D01*
X199019632Y-108248434D01*
X198953547Y-108347337D01*
X198932281Y-108454251D01*
X198932281Y-108573811D01*
X198677388Y-108318918D01*
X198759361Y-108318918D01*
X198923826Y-108286204D01*
X199071519Y-108187519D01*
X199170204Y-108039826D01*
X199202918Y-107875361D01*
X199202918Y-107516639D01*
X199170204Y-107352174D01*
X199071519Y-107204481D01*
X198993971Y-107152665D01*
X198991489Y-107130362D01*
X198979007Y-107110466D01*
X198973773Y-107087522D01*
X198939000Y-107043885D01*
X198939000Y-106897918D01*
X199099361Y-106897918D01*
X199263826Y-106865204D01*
X199411519Y-106766519D01*
X199456634Y-106699000D01*
X199564545Y-106699000D01*
X199532697Y-106746664D01*
G37*
X199532697Y-106746664D02*
X199496102Y-106930638D01*
X199496102Y-107084000D01*
X200171000Y-107084000D01*
X200171000Y-107136000D01*
X199496102Y-107136000D01*
X199496102Y-107289362D01*
X199532697Y-107473336D01*
X199642433Y-107637567D01*
X199663964Y-107651954D01*
X199610356Y-107694672D01*
X199600199Y-107715729D01*
X199382178Y-107933750D01*
X199361430Y-107943714D01*
X199318362Y-107997567D01*
X199302266Y-108013664D01*
X199290435Y-108032487D01*
X199247708Y-108085914D01*
X199242463Y-108108813D01*
X199229941Y-108128737D01*
X199226285Y-108161083D01*
X199225449Y-108161083D01*
X199118535Y-108182349D01*
X199019632Y-108248434D01*
X198953547Y-108347337D01*
X198932281Y-108454251D01*
X198932281Y-108573811D01*
X198677388Y-108318918D01*
X198759361Y-108318918D01*
X198923826Y-108286204D01*
X199071519Y-108187519D01*
X199170204Y-108039826D01*
X199202918Y-107875361D01*
X199202918Y-107516639D01*
X199170204Y-107352174D01*
X199071519Y-107204481D01*
X198993971Y-107152665D01*
X198991489Y-107130362D01*
X198979007Y-107110466D01*
X198973773Y-107087522D01*
X198939000Y-107043885D01*
X198939000Y-106897918D01*
X199099361Y-106897918D01*
X199263826Y-106865204D01*
X199411519Y-106766519D01*
X199456634Y-106699000D01*
X199564545Y-106699000D01*
X199532697Y-106746664D01*
G36*
X205849030Y-107255939D02*
G01*
X206031970Y-107361559D01*
X206240000Y-107398240D01*
X206437082Y-107363489D01*
X206437082Y-107428646D01*
X205874729Y-107991000D01*
X205095775Y-107991000D01*
X205118898Y-107874751D01*
X205118898Y-107466000D01*
X204589000Y-107466000D01*
X204589000Y-107414000D01*
X205118898Y-107414000D01*
X205118898Y-107192918D01*
X205749750Y-107192918D01*
X205789513Y-107185009D01*
X205849030Y-107255939D01*
G37*
X205849030Y-107255939D02*
X206031970Y-107361559D01*
X206240000Y-107398240D01*
X206437082Y-107363489D01*
X206437082Y-107428646D01*
X205874729Y-107991000D01*
X205095775Y-107991000D01*
X205118898Y-107874751D01*
X205118898Y-107466000D01*
X204589000Y-107466000D01*
X204589000Y-107414000D01*
X205118898Y-107414000D01*
X205118898Y-107192918D01*
X205749750Y-107192918D01*
X205789513Y-107185009D01*
X205849030Y-107255939D01*
G36*
X199326391Y-104746466D02*
G01*
X199283336Y-104717697D01*
X199099362Y-104681102D01*
X198946000Y-104681102D01*
X198946000Y-105304000D01*
X199593898Y-105304000D01*
X199593898Y-105175638D01*
X199557303Y-104991664D01*
X199521398Y-104937929D01*
X200184434Y-105600964D01*
X200229673Y-105628974D01*
X200252383Y-105650461D01*
X200284412Y-105685008D01*
X200293977Y-105691504D01*
X200602059Y-105901000D01*
X199456634Y-105901000D01*
X199422223Y-105849501D01*
X199447567Y-105832567D01*
X199557303Y-105668336D01*
X199593898Y-105484362D01*
X199593898Y-105356000D01*
X198246102Y-105356000D01*
X198246102Y-105484362D01*
X198282697Y-105668336D01*
X198392433Y-105832567D01*
X198417777Y-105849501D01*
X198383366Y-105901000D01*
X197608433Y-105901000D01*
X197774159Y-105735273D01*
X197830948Y-105650283D01*
X197915933Y-105593498D01*
X198127712Y-105381719D01*
X198184497Y-105296734D01*
X198246102Y-105255570D01*
X198246102Y-105304000D01*
X198894000Y-105304000D01*
X198894000Y-104681102D01*
X198740638Y-104681102D01*
X198556664Y-104717697D01*
X198545938Y-104724864D01*
X198541828Y-104704201D01*
X198481266Y-104613564D01*
X197974391Y-104106688D01*
X198248541Y-103832537D01*
X199326391Y-104746466D01*
G37*
X199326391Y-104746466D02*
X199283336Y-104717697D01*
X199099362Y-104681102D01*
X198946000Y-104681102D01*
X198946000Y-105304000D01*
X199593898Y-105304000D01*
X199593898Y-105175638D01*
X199557303Y-104991664D01*
X199521398Y-104937929D01*
X200184434Y-105600964D01*
X200229673Y-105628974D01*
X200252383Y-105650461D01*
X200284412Y-105685008D01*
X200293977Y-105691504D01*
X200602059Y-105901000D01*
X199456634Y-105901000D01*
X199422223Y-105849501D01*
X199447567Y-105832567D01*
X199557303Y-105668336D01*
X199593898Y-105484362D01*
X199593898Y-105356000D01*
X198246102Y-105356000D01*
X198246102Y-105484362D01*
X198282697Y-105668336D01*
X198392433Y-105832567D01*
X198417777Y-105849501D01*
X198383366Y-105901000D01*
X197608433Y-105901000D01*
X197774159Y-105735273D01*
X197830948Y-105650283D01*
X197915933Y-105593498D01*
X198127712Y-105381719D01*
X198184497Y-105296734D01*
X198246102Y-105255570D01*
X198246102Y-105304000D01*
X198894000Y-105304000D01*
X198894000Y-104681102D01*
X198740638Y-104681102D01*
X198556664Y-104717697D01*
X198545938Y-104724864D01*
X198541828Y-104704201D01*
X198481266Y-104613564D01*
X197974391Y-104106688D01*
X198248541Y-103832537D01*
X199326391Y-104746466D01*
G36*
X204163481Y-101481519D02*
G01*
X204311174Y-101580204D01*
X204475639Y-101612918D01*
X204784361Y-101612918D01*
X204948826Y-101580204D01*
X205019027Y-101533298D01*
X205564633Y-102078905D01*
X205499490Y-102230898D01*
X205452640Y-102451302D01*
X205449494Y-102676611D01*
X205490171Y-102898238D01*
X205573121Y-103107745D01*
X205695183Y-103297150D01*
X205851710Y-103459238D01*
X206036739Y-103587837D01*
X206243223Y-103678047D01*
X206291940Y-103688758D01*
X206186174Y-103709796D01*
X206054501Y-103797777D01*
X206037567Y-103772433D01*
X205873336Y-103662697D01*
X205689362Y-103626102D01*
X205561000Y-103626102D01*
X205561000Y-104326000D01*
X205509000Y-104326000D01*
X205509000Y-103626102D01*
X205380638Y-103626102D01*
X205196664Y-103662697D01*
X205032433Y-103772433D01*
X205007534Y-103809696D01*
X205001488Y-103755362D01*
X204989007Y-103735466D01*
X204983774Y-103712523D01*
X204940728Y-103658504D01*
X204928870Y-103639598D01*
X204913085Y-103623813D01*
X204870328Y-103570156D01*
X204849269Y-103559998D01*
X204679363Y-103390093D01*
X204674801Y-103377029D01*
X204643400Y-103345573D01*
X204624043Y-103318797D01*
X204615329Y-103311152D01*
X204573642Y-103274676D01*
X204648030Y-103261559D01*
X204830970Y-103155939D01*
X204966751Y-102994119D01*
X205039000Y-102795620D01*
X205039000Y-102584380D01*
X204966751Y-102385881D01*
X204830970Y-102224061D01*
X204648030Y-102118441D01*
X204440000Y-102081760D01*
X204402622Y-102088351D01*
X204059000Y-101744729D01*
X204059000Y-101526634D01*
X204126519Y-101481519D01*
X204145000Y-101453860D01*
X204163481Y-101481519D01*
G37*
X204163481Y-101481519D02*
X204311174Y-101580204D01*
X204475639Y-101612918D01*
X204784361Y-101612918D01*
X204948826Y-101580204D01*
X205019027Y-101533298D01*
X205564633Y-102078905D01*
X205499490Y-102230898D01*
X205452640Y-102451302D01*
X205449494Y-102676611D01*
X205490171Y-102898238D01*
X205573121Y-103107745D01*
X205695183Y-103297150D01*
X205851710Y-103459238D01*
X206036739Y-103587837D01*
X206243223Y-103678047D01*
X206291940Y-103688758D01*
X206186174Y-103709796D01*
X206054501Y-103797777D01*
X206037567Y-103772433D01*
X205873336Y-103662697D01*
X205689362Y-103626102D01*
X205561000Y-103626102D01*
X205561000Y-104326000D01*
X205509000Y-104326000D01*
X205509000Y-103626102D01*
X205380638Y-103626102D01*
X205196664Y-103662697D01*
X205032433Y-103772433D01*
X205007534Y-103809696D01*
X205001488Y-103755362D01*
X204989007Y-103735466D01*
X204983774Y-103712523D01*
X204940728Y-103658504D01*
X204928870Y-103639598D01*
X204913085Y-103623813D01*
X204870328Y-103570156D01*
X204849269Y-103559998D01*
X204679363Y-103390093D01*
X204674801Y-103377029D01*
X204643400Y-103345573D01*
X204624043Y-103318797D01*
X204615329Y-103311152D01*
X204573642Y-103274676D01*
X204648030Y-103261559D01*
X204830970Y-103155939D01*
X204966751Y-102994119D01*
X205039000Y-102795620D01*
X205039000Y-102584380D01*
X204966751Y-102385881D01*
X204830970Y-102224061D01*
X204648030Y-102118441D01*
X204440000Y-102081760D01*
X204402622Y-102088351D01*
X204059000Y-101744729D01*
X204059000Y-101526634D01*
X204126519Y-101481519D01*
X204145000Y-101453860D01*
X204163481Y-101481519D01*
G36*
X203523296Y-89883929D02*
G01*
X204117043Y-90110690D01*
X204696282Y-90372256D01*
X205259004Y-90667723D01*
X205803205Y-90996038D01*
X206326990Y-91356060D01*
X206828502Y-91746510D01*
X207305958Y-92166002D01*
X207757702Y-92613080D01*
X208182146Y-93086173D01*
X208577775Y-93583591D01*
X208943205Y-94103594D01*
X209277170Y-94644383D01*
X209578460Y-95203997D01*
X209846027Y-95780488D01*
X210078947Y-96371865D01*
X210276367Y-96975965D01*
X210437632Y-97590778D01*
X210562142Y-98214033D01*
X210649471Y-98843574D01*
X210699308Y-99477183D01*
X210711481Y-100112649D01*
X210685947Y-100747695D01*
X210622794Y-101380134D01*
X210522243Y-102007717D01*
X210384657Y-102628199D01*
X210210509Y-103239447D01*
X210016983Y-103791997D01*
X209883336Y-103702697D01*
X209699362Y-103666102D01*
X209648233Y-103666102D01*
X209736756Y-103626225D01*
X209923826Y-103494506D01*
X210082614Y-103329790D01*
X210207391Y-103138019D01*
X210293652Y-102926112D01*
X210357326Y-102606000D01*
X209166000Y-102606000D01*
X209166000Y-103729868D01*
X209114000Y-103764613D01*
X209114000Y-102606000D01*
X207938330Y-102606000D01*
X207956490Y-102803626D01*
X208020128Y-103023389D01*
X208124175Y-103227152D01*
X208264875Y-103407565D01*
X208437152Y-103558116D01*
X208634790Y-103673375D01*
X208798295Y-103730794D01*
X208729361Y-103717082D01*
X208420639Y-103717082D01*
X208256174Y-103749796D01*
X208108481Y-103848481D01*
X208009796Y-103996174D01*
X207981022Y-104140832D01*
X207960204Y-104036174D01*
X207861519Y-103888481D01*
X207713826Y-103789796D01*
X207549361Y-103757082D01*
X207190639Y-103757082D01*
X207026174Y-103789796D01*
X206979757Y-103820810D01*
X206971519Y-103808481D01*
X206823826Y-103709796D01*
X206817185Y-103708475D01*
X206910483Y-103692024D01*
X207120563Y-103610539D01*
X207310815Y-103489801D01*
X207473992Y-103334410D01*
X207603880Y-103150283D01*
X207695529Y-102944434D01*
X207745605Y-102724024D01*
X207747979Y-102554000D01*
X207937711Y-102554000D01*
X209114000Y-102554000D01*
X209166000Y-102554000D01*
X210355849Y-102554000D01*
X210296040Y-102241950D01*
X210211260Y-102029447D01*
X210087826Y-101836810D01*
X209930192Y-101670989D01*
X209744046Y-101537966D01*
X209536105Y-101442543D01*
X209313870Y-101388163D01*
X209166000Y-101380803D01*
X209166000Y-102554000D01*
X209114000Y-102554000D01*
X209114000Y-101372737D01*
X208858826Y-101408826D01*
X208642435Y-101483125D01*
X208443998Y-101597002D01*
X208270674Y-101746347D01*
X208128718Y-101925773D01*
X208023251Y-102128805D01*
X207958080Y-102348117D01*
X207937711Y-102554000D01*
X207747979Y-102554000D01*
X207749181Y-102468020D01*
X207705278Y-102246296D01*
X207619411Y-102037969D01*
X207494715Y-101850288D01*
X207335941Y-101690401D01*
X207149135Y-101564397D01*
X206941411Y-101477079D01*
X206720684Y-101431770D01*
X206495359Y-101430197D01*
X206274021Y-101472419D01*
X206140598Y-101526326D01*
X205430253Y-100815982D01*
X205420288Y-100795231D01*
X205366431Y-100752160D01*
X205350336Y-100736066D01*
X205331514Y-100724237D01*
X205278087Y-100681509D01*
X205255188Y-100676264D01*
X205235264Y-100663742D01*
X205197857Y-100659513D01*
X205195204Y-100646174D01*
X205096519Y-100498481D01*
X205034000Y-100456707D01*
X205034000Y-100406634D01*
X205101519Y-100361519D01*
X205200204Y-100213826D01*
X205215562Y-100136611D01*
X205449494Y-100136611D01*
X205490171Y-100358238D01*
X205573121Y-100567745D01*
X205695183Y-100757150D01*
X205851710Y-100919238D01*
X206036739Y-101047837D01*
X206243223Y-101138047D01*
X206463296Y-101186433D01*
X206688577Y-101191152D01*
X206910483Y-101152024D01*
X207120563Y-101070539D01*
X207310815Y-100949801D01*
X207473992Y-100794410D01*
X207603880Y-100610283D01*
X207695529Y-100404434D01*
X207745605Y-100184024D01*
X207746267Y-100136611D01*
X207989494Y-100136611D01*
X208030171Y-100358238D01*
X208113121Y-100567745D01*
X208235183Y-100757150D01*
X208391710Y-100919238D01*
X208576739Y-101047837D01*
X208783223Y-101138047D01*
X209003296Y-101186433D01*
X209228577Y-101191152D01*
X209450483Y-101152024D01*
X209660563Y-101070539D01*
X209850815Y-100949801D01*
X210013992Y-100794410D01*
X210143880Y-100610283D01*
X210235529Y-100404434D01*
X210285605Y-100184024D01*
X210289181Y-99928020D01*
X210245278Y-99706296D01*
X210159411Y-99497969D01*
X210034715Y-99310288D01*
X209875941Y-99150401D01*
X209689135Y-99024397D01*
X209481411Y-98937079D01*
X209260684Y-98891770D01*
X209035359Y-98890197D01*
X208814021Y-98932420D01*
X208605100Y-99016829D01*
X208416552Y-99140212D01*
X208255560Y-99297867D01*
X208128256Y-99483789D01*
X208039490Y-99690898D01*
X207992640Y-99911302D01*
X207989494Y-100136611D01*
X207746267Y-100136611D01*
X207749181Y-99928020D01*
X207705278Y-99706296D01*
X207619411Y-99497969D01*
X207494715Y-99310288D01*
X207335941Y-99150401D01*
X207149135Y-99024397D01*
X206941411Y-98937079D01*
X206720684Y-98891770D01*
X206495359Y-98890197D01*
X206274021Y-98932420D01*
X206065100Y-99016829D01*
X205876552Y-99140212D01*
X205715560Y-99297867D01*
X205588256Y-99483789D01*
X205499490Y-99690898D01*
X205452640Y-99911302D01*
X205449494Y-100136611D01*
X205215562Y-100136611D01*
X205232918Y-100049361D01*
X205232918Y-99690639D01*
X205200204Y-99526174D01*
X205101519Y-99378481D01*
X204953826Y-99279796D01*
X204789361Y-99247082D01*
X204480639Y-99247082D01*
X204470248Y-99249149D01*
X204477362Y-99245125D01*
X204536783Y-99218043D01*
X204534343Y-99212892D01*
X204546248Y-99206157D01*
X204548456Y-99204893D01*
X204549414Y-99204339D01*
X204556769Y-99199914D01*
X204595175Y-99175915D01*
X204601485Y-99171841D01*
X204602395Y-99171235D01*
X204605378Y-99169217D01*
X204642196Y-99143912D01*
X204647053Y-99140488D01*
X204647933Y-99139853D01*
X204652075Y-99136798D01*
X204687551Y-99110069D01*
X204689001Y-99108968D01*
X204689872Y-99108302D01*
X204697215Y-99102470D01*
X204732205Y-99073611D01*
X204737864Y-99068803D01*
X204738689Y-99068081D01*
X204741352Y-99065718D01*
X204774480Y-99035902D01*
X204778294Y-99032398D01*
X204779099Y-99031643D01*
X204783419Y-99027497D01*
X204815181Y-98996286D01*
X204816760Y-98994721D01*
X204817539Y-98993941D01*
X204823718Y-98987542D01*
X204854660Y-98954359D01*
X204860060Y-98948382D01*
X204860789Y-98947549D01*
X204862806Y-98945216D01*
X204891679Y-98911399D01*
X204894590Y-98907927D01*
X204895286Y-98907082D01*
X204899368Y-98901994D01*
X204927252Y-98866310D01*
X204933038Y-98858610D01*
X204933685Y-98857714D01*
X204934569Y-98856483D01*
X204960498Y-98820127D01*
X204965056Y-98813518D01*
X204965666Y-98812603D01*
X204967335Y-98810066D01*
X204974369Y-98799237D01*
X204979399Y-98802066D01*
X205010428Y-98743726D01*
X205044886Y-98690679D01*
X205040262Y-98687632D01*
X205047821Y-98673420D01*
X205050758Y-98667724D01*
X205051251Y-98666740D01*
X205053342Y-98662457D01*
X205072599Y-98622071D01*
X205074962Y-98616969D01*
X205075408Y-98615978D01*
X205077585Y-98611003D01*
X205095089Y-98569777D01*
X205097128Y-98564828D01*
X205097533Y-98563816D01*
X205099622Y-98558419D01*
X205149022Y-98426287D01*
X205144004Y-98424280D01*
X205148782Y-98407044D01*
X205151113Y-98397993D01*
X205151368Y-98396925D01*
X205151762Y-98395242D01*
X205154924Y-98381550D01*
X205160648Y-98382431D01*
X205176953Y-98265427D01*
X205178725Y-98248684D01*
X205178978Y-98245195D01*
X205179643Y-98226789D01*
X205179643Y-96173211D01*
X205178978Y-96154805D01*
X205178725Y-96151317D01*
X205176956Y-96134594D01*
X205160484Y-96016323D01*
X205154658Y-96017294D01*
X205151757Y-96004734D01*
X205151365Y-96003063D01*
X205151115Y-96002012D01*
X205148788Y-95992977D01*
X205144681Y-95978160D01*
X205149970Y-95976211D01*
X205099599Y-95841538D01*
X205097523Y-95836173D01*
X205097120Y-95835167D01*
X205095102Y-95830268D01*
X205077608Y-95789041D01*
X205075411Y-95784017D01*
X205074958Y-95783011D01*
X205072561Y-95777840D01*
X205041080Y-95711869D01*
X205044881Y-95709364D01*
X205026031Y-95680333D01*
X205011039Y-95648916D01*
X205006900Y-95650869D01*
X204967368Y-95589985D01*
X204965673Y-95587407D01*
X204965056Y-95586482D01*
X204960498Y-95579873D01*
X204934569Y-95543517D01*
X204933685Y-95542286D01*
X204933042Y-95541396D01*
X204927279Y-95533724D01*
X204899388Y-95498021D01*
X204895285Y-95492906D01*
X204894588Y-95492060D01*
X204891649Y-95488555D01*
X204862764Y-95454737D01*
X204860775Y-95452437D01*
X204860049Y-95451607D01*
X204854623Y-95445601D01*
X204823678Y-95412425D01*
X204817525Y-95406055D01*
X204816750Y-95405279D01*
X204815171Y-95403714D01*
X204811127Y-95399740D01*
X204815682Y-95395184D01*
X204758677Y-95348198D01*
X204713827Y-95304125D01*
X204709932Y-95308020D01*
X204697135Y-95297473D01*
X204689856Y-95291694D01*
X204688991Y-95291032D01*
X204687541Y-95289931D01*
X204652065Y-95263202D01*
X204647923Y-95260147D01*
X204647042Y-95259511D01*
X204642211Y-95256106D01*
X204605413Y-95230808D01*
X204602404Y-95228771D01*
X204601488Y-95228160D01*
X204595151Y-95224069D01*
X204556725Y-95200065D01*
X204549397Y-95195657D01*
X204548465Y-95195117D01*
X204546283Y-95193867D01*
X204534325Y-95187101D01*
X204536769Y-95181940D01*
X204477383Y-95154881D01*
X204434937Y-95130864D01*
X204435451Y-95129494D01*
X204427603Y-95126714D01*
X204421730Y-95123391D01*
X204421146Y-95124427D01*
X204298744Y-95081072D01*
X204294250Y-95079528D01*
X204293206Y-95079180D01*
X204287118Y-95077235D01*
X204244274Y-95064139D01*
X204239793Y-95062815D01*
X204238744Y-95062515D01*
X204232561Y-95060832D01*
X204189149Y-95049602D01*
X204184356Y-95048413D01*
X204183297Y-95048160D01*
X204177254Y-95046799D01*
X204133382Y-95037475D01*
X204128092Y-95036408D01*
X204127011Y-95036202D01*
X204121406Y-95035199D01*
X204076987Y-95027763D01*
X204069350Y-95026604D01*
X204068238Y-95026453D01*
X204064702Y-95025996D01*
X204035553Y-95022436D01*
X204021345Y-95021104D01*
X204018285Y-95020903D01*
X204001622Y-95020357D01*
X203318510Y-95020357D01*
X203252537Y-95029045D01*
X203237955Y-95032953D01*
X203150014Y-95073295D01*
X203066934Y-95162832D01*
X203054589Y-95184213D01*
X203020357Y-95311966D01*
X203020357Y-95716102D01*
X203001000Y-95716102D01*
X203001000Y-97173898D01*
X203020357Y-97173898D01*
X203020357Y-97257386D01*
X203011173Y-97251249D01*
X202884751Y-97226102D01*
X202751000Y-97226102D01*
X202751000Y-98683898D01*
X202884751Y-98683898D01*
X203011173Y-98658751D01*
X203020357Y-98652614D01*
X203020357Y-99081490D01*
X203029045Y-99147463D01*
X203032953Y-99162045D01*
X203073295Y-99249986D01*
X203162832Y-99333066D01*
X203170138Y-99337284D01*
X203162433Y-99342433D01*
X203052697Y-99506664D01*
X203016102Y-99690638D01*
X203016102Y-99844000D01*
X203691000Y-99844000D01*
X203691000Y-99896000D01*
X203016102Y-99896000D01*
X203016102Y-100049362D01*
X203052697Y-100233336D01*
X203162433Y-100397567D01*
X203253471Y-100458397D01*
X203193481Y-100498481D01*
X203094796Y-100646174D01*
X203062082Y-100810639D01*
X203062082Y-101169361D01*
X203094796Y-101333826D01*
X203193481Y-101481519D01*
X203261001Y-101526634D01*
X203261001Y-101841953D01*
X203253374Y-101863670D01*
X203261001Y-101932213D01*
X203261001Y-101954970D01*
X203265946Y-101976649D01*
X203273512Y-102044637D01*
X203285993Y-102064533D01*
X203291227Y-102087478D01*
X203334271Y-102141495D01*
X203346131Y-102160401D01*
X203361916Y-102176186D01*
X203404672Y-102229843D01*
X203425728Y-102240000D01*
X203667733Y-102482005D01*
X203482841Y-102320224D01*
X203474329Y-102307798D01*
X201980428Y-100813898D01*
X202009000Y-100813898D01*
X202009000Y-100166000D01*
X202061000Y-100166000D01*
X202061000Y-100813898D01*
X202189362Y-100813898D01*
X202373336Y-100777303D01*
X202537567Y-100667567D01*
X202647303Y-100503336D01*
X202683898Y-100319362D01*
X202683898Y-100166000D01*
X202061000Y-100166000D01*
X202009000Y-100166000D01*
X202009000Y-99466102D01*
X202061000Y-99466102D01*
X202061000Y-100114000D01*
X202683898Y-100114000D01*
X202683898Y-99960638D01*
X202647303Y-99776664D01*
X202537567Y-99612433D01*
X202373336Y-99502697D01*
X202189362Y-99466102D01*
X202061000Y-99466102D01*
X202009000Y-99466102D01*
X201880638Y-99466102D01*
X201739000Y-99494276D01*
X201739000Y-98664011D01*
X201733209Y-98632918D01*
X201884750Y-98632918D01*
X201975000Y-98614967D01*
X202065250Y-98632918D01*
X202384750Y-98632918D01*
X202396629Y-98630555D01*
X202438827Y-98658751D01*
X202565249Y-98683898D01*
X202699000Y-98683898D01*
X202699000Y-97226102D01*
X202565249Y-97226102D01*
X202438827Y-97251249D01*
X202396629Y-97279445D01*
X202384750Y-97277082D01*
X202065250Y-97277082D01*
X201975000Y-97295033D01*
X201884750Y-97277082D01*
X201853831Y-97277082D01*
X201861257Y-97265268D01*
X201869015Y-97196644D01*
X201874000Y-97174879D01*
X201874000Y-97152552D01*
X201877350Y-97122918D01*
X202134750Y-97122918D01*
X202225000Y-97104967D01*
X202315250Y-97122918D01*
X202634750Y-97122918D01*
X202646629Y-97120555D01*
X202688827Y-97148751D01*
X202815249Y-97173898D01*
X202949000Y-97173898D01*
X202949000Y-95716102D01*
X202815249Y-95716102D01*
X202688827Y-95741249D01*
X202646629Y-95769445D01*
X202634750Y-95767082D01*
X202315250Y-95767082D01*
X202225000Y-95785033D01*
X202134750Y-95767082D01*
X202039321Y-95767082D01*
X202937404Y-94869000D01*
X204302597Y-94869000D01*
X205780678Y-96347082D01*
X205740250Y-96347082D01*
X205633336Y-96368348D01*
X205534433Y-96434433D01*
X205468348Y-96533336D01*
X205447082Y-96640250D01*
X205447082Y-98359750D01*
X205468348Y-98466664D01*
X205534433Y-98565567D01*
X205633336Y-98631652D01*
X205740250Y-98652918D01*
X207459750Y-98652918D01*
X207566664Y-98631652D01*
X207665567Y-98565567D01*
X207731652Y-98466664D01*
X207752918Y-98359750D01*
X207752918Y-97596611D01*
X207989494Y-97596611D01*
X208030171Y-97818238D01*
X208113121Y-98027745D01*
X208235183Y-98217150D01*
X208391710Y-98379238D01*
X208576739Y-98507837D01*
X208783223Y-98598047D01*
X209003296Y-98646433D01*
X209228577Y-98651152D01*
X209450483Y-98612024D01*
X209660563Y-98530539D01*
X209850815Y-98409801D01*
X210013992Y-98254410D01*
X210143880Y-98070283D01*
X210235529Y-97864434D01*
X210285605Y-97644024D01*
X210289181Y-97388020D01*
X210245278Y-97166296D01*
X210159411Y-96957969D01*
X210034715Y-96770288D01*
X209875941Y-96610401D01*
X209689135Y-96484397D01*
X209481411Y-96397079D01*
X209260684Y-96351770D01*
X209035359Y-96350197D01*
X208814021Y-96392420D01*
X208605100Y-96476829D01*
X208416552Y-96600212D01*
X208255560Y-96757867D01*
X208128256Y-96943789D01*
X208039490Y-97150898D01*
X207992640Y-97371302D01*
X207989494Y-97596611D01*
X207752918Y-97596611D01*
X207752918Y-96640250D01*
X207731652Y-96533336D01*
X207665567Y-96434433D01*
X207566664Y-96368348D01*
X207459750Y-96347082D01*
X207149000Y-96347082D01*
X207149000Y-96339008D01*
X207147154Y-96329098D01*
X207144642Y-96262164D01*
X207129605Y-96234868D01*
X207121052Y-96188944D01*
X207013737Y-96014846D01*
X206961619Y-95975215D01*
X204983111Y-93996708D01*
X204978372Y-93987012D01*
X204909882Y-93923479D01*
X204882144Y-93895742D01*
X204873844Y-93890049D01*
X204824727Y-93844485D01*
X204794788Y-93835816D01*
X204756270Y-93809393D01*
X204557281Y-93762171D01*
X204492405Y-93771000D01*
X202801796Y-93771000D01*
X202791588Y-93767495D01*
X202789925Y-93767557D01*
X202956847Y-93474912D01*
X202958643Y-93468981D01*
X202962369Y-93463863D01*
X202966892Y-93453232D01*
X203106773Y-93125286D01*
X203107876Y-93119186D01*
X203110941Y-93113758D01*
X203114245Y-93102646D01*
X203215521Y-92760746D01*
X203215916Y-92754561D01*
X203218381Y-92748710D01*
X203220351Y-92737344D01*
X203281649Y-92386120D01*
X203281330Y-92379929D01*
X203283073Y-92373949D01*
X203283754Y-92362376D01*
X203304281Y-92006378D01*
X203299000Y-91974990D01*
X203299000Y-89813198D01*
X203523296Y-89883929D01*
G37*
X203523296Y-89883929D02*
X204117043Y-90110690D01*
X204696282Y-90372256D01*
X205259004Y-90667723D01*
X205803205Y-90996038D01*
X206326990Y-91356060D01*
X206828502Y-91746510D01*
X207305958Y-92166002D01*
X207757702Y-92613080D01*
X208182146Y-93086173D01*
X208577775Y-93583591D01*
X208943205Y-94103594D01*
X209277170Y-94644383D01*
X209578460Y-95203997D01*
X209846027Y-95780488D01*
X210078947Y-96371865D01*
X210276367Y-96975965D01*
X210437632Y-97590778D01*
X210562142Y-98214033D01*
X210649471Y-98843574D01*
X210699308Y-99477183D01*
X210711481Y-100112649D01*
X210685947Y-100747695D01*
X210622794Y-101380134D01*
X210522243Y-102007717D01*
X210384657Y-102628199D01*
X210210509Y-103239447D01*
X210016983Y-103791997D01*
X209883336Y-103702697D01*
X209699362Y-103666102D01*
X209648233Y-103666102D01*
X209736756Y-103626225D01*
X209923826Y-103494506D01*
X210082614Y-103329790D01*
X210207391Y-103138019D01*
X210293652Y-102926112D01*
X210357326Y-102606000D01*
X209166000Y-102606000D01*
X209166000Y-103729868D01*
X209114000Y-103764613D01*
X209114000Y-102606000D01*
X207938330Y-102606000D01*
X207956490Y-102803626D01*
X208020128Y-103023389D01*
X208124175Y-103227152D01*
X208264875Y-103407565D01*
X208437152Y-103558116D01*
X208634790Y-103673375D01*
X208798295Y-103730794D01*
X208729361Y-103717082D01*
X208420639Y-103717082D01*
X208256174Y-103749796D01*
X208108481Y-103848481D01*
X208009796Y-103996174D01*
X207981022Y-104140832D01*
X207960204Y-104036174D01*
X207861519Y-103888481D01*
X207713826Y-103789796D01*
X207549361Y-103757082D01*
X207190639Y-103757082D01*
X207026174Y-103789796D01*
X206979757Y-103820810D01*
X206971519Y-103808481D01*
X206823826Y-103709796D01*
X206817185Y-103708475D01*
X206910483Y-103692024D01*
X207120563Y-103610539D01*
X207310815Y-103489801D01*
X207473992Y-103334410D01*
X207603880Y-103150283D01*
X207695529Y-102944434D01*
X207745605Y-102724024D01*
X207747979Y-102554000D01*
X207937711Y-102554000D01*
X209114000Y-102554000D01*
X209166000Y-102554000D01*
X210355849Y-102554000D01*
X210296040Y-102241950D01*
X210211260Y-102029447D01*
X210087826Y-101836810D01*
X209930192Y-101670989D01*
X209744046Y-101537966D01*
X209536105Y-101442543D01*
X209313870Y-101388163D01*
X209166000Y-101380803D01*
X209166000Y-102554000D01*
X209114000Y-102554000D01*
X209114000Y-101372737D01*
X208858826Y-101408826D01*
X208642435Y-101483125D01*
X208443998Y-101597002D01*
X208270674Y-101746347D01*
X208128718Y-101925773D01*
X208023251Y-102128805D01*
X207958080Y-102348117D01*
X207937711Y-102554000D01*
X207747979Y-102554000D01*
X207749181Y-102468020D01*
X207705278Y-102246296D01*
X207619411Y-102037969D01*
X207494715Y-101850288D01*
X207335941Y-101690401D01*
X207149135Y-101564397D01*
X206941411Y-101477079D01*
X206720684Y-101431770D01*
X206495359Y-101430197D01*
X206274021Y-101472419D01*
X206140598Y-101526326D01*
X205430253Y-100815982D01*
X205420288Y-100795231D01*
X205366431Y-100752160D01*
X205350336Y-100736066D01*
X205331514Y-100724237D01*
X205278087Y-100681509D01*
X205255188Y-100676264D01*
X205235264Y-100663742D01*
X205197857Y-100659513D01*
X205195204Y-100646174D01*
X205096519Y-100498481D01*
X205034000Y-100456707D01*
X205034000Y-100406634D01*
X205101519Y-100361519D01*
X205200204Y-100213826D01*
X205215562Y-100136611D01*
X205449494Y-100136611D01*
X205490171Y-100358238D01*
X205573121Y-100567745D01*
X205695183Y-100757150D01*
X205851710Y-100919238D01*
X206036739Y-101047837D01*
X206243223Y-101138047D01*
X206463296Y-101186433D01*
X206688577Y-101191152D01*
X206910483Y-101152024D01*
X207120563Y-101070539D01*
X207310815Y-100949801D01*
X207473992Y-100794410D01*
X207603880Y-100610283D01*
X207695529Y-100404434D01*
X207745605Y-100184024D01*
X207746267Y-100136611D01*
X207989494Y-100136611D01*
X208030171Y-100358238D01*
X208113121Y-100567745D01*
X208235183Y-100757150D01*
X208391710Y-100919238D01*
X208576739Y-101047837D01*
X208783223Y-101138047D01*
X209003296Y-101186433D01*
X209228577Y-101191152D01*
X209450483Y-101152024D01*
X209660563Y-101070539D01*
X209850815Y-100949801D01*
X210013992Y-100794410D01*
X210143880Y-100610283D01*
X210235529Y-100404434D01*
X210285605Y-100184024D01*
X210289181Y-99928020D01*
X210245278Y-99706296D01*
X210159411Y-99497969D01*
X210034715Y-99310288D01*
X209875941Y-99150401D01*
X209689135Y-99024397D01*
X209481411Y-98937079D01*
X209260684Y-98891770D01*
X209035359Y-98890197D01*
X208814021Y-98932420D01*
X208605100Y-99016829D01*
X208416552Y-99140212D01*
X208255560Y-99297867D01*
X208128256Y-99483789D01*
X208039490Y-99690898D01*
X207992640Y-99911302D01*
X207989494Y-100136611D01*
X207746267Y-100136611D01*
X207749181Y-99928020D01*
X207705278Y-99706296D01*
X207619411Y-99497969D01*
X207494715Y-99310288D01*
X207335941Y-99150401D01*
X207149135Y-99024397D01*
X206941411Y-98937079D01*
X206720684Y-98891770D01*
X206495359Y-98890197D01*
X206274021Y-98932420D01*
X206065100Y-99016829D01*
X205876552Y-99140212D01*
X205715560Y-99297867D01*
X205588256Y-99483789D01*
X205499490Y-99690898D01*
X205452640Y-99911302D01*
X205449494Y-100136611D01*
X205215562Y-100136611D01*
X205232918Y-100049361D01*
X205232918Y-99690639D01*
X205200204Y-99526174D01*
X205101519Y-99378481D01*
X204953826Y-99279796D01*
X204789361Y-99247082D01*
X204480639Y-99247082D01*
X204470248Y-99249149D01*
X204477362Y-99245125D01*
X204536783Y-99218043D01*
X204534343Y-99212892D01*
X204546248Y-99206157D01*
X204548456Y-99204893D01*
X204549414Y-99204339D01*
X204556769Y-99199914D01*
X204595175Y-99175915D01*
X204601485Y-99171841D01*
X204602395Y-99171235D01*
X204605378Y-99169217D01*
X204642196Y-99143912D01*
X204647053Y-99140488D01*
X204647933Y-99139853D01*
X204652075Y-99136798D01*
X204687551Y-99110069D01*
X204689001Y-99108968D01*
X204689872Y-99108302D01*
X204697215Y-99102470D01*
X204732205Y-99073611D01*
X204737864Y-99068803D01*
X204738689Y-99068081D01*
X204741352Y-99065718D01*
X204774480Y-99035902D01*
X204778294Y-99032398D01*
X204779099Y-99031643D01*
X204783419Y-99027497D01*
X204815181Y-98996286D01*
X204816760Y-98994721D01*
X204817539Y-98993941D01*
X204823718Y-98987542D01*
X204854660Y-98954359D01*
X204860060Y-98948382D01*
X204860789Y-98947549D01*
X204862806Y-98945216D01*
X204891679Y-98911399D01*
X204894590Y-98907927D01*
X204895286Y-98907082D01*
X204899368Y-98901994D01*
X204927252Y-98866310D01*
X204933038Y-98858610D01*
X204933685Y-98857714D01*
X204934569Y-98856483D01*
X204960498Y-98820127D01*
X204965056Y-98813518D01*
X204965666Y-98812603D01*
X204967335Y-98810066D01*
X204974369Y-98799237D01*
X204979399Y-98802066D01*
X205010428Y-98743726D01*
X205044886Y-98690679D01*
X205040262Y-98687632D01*
X205047821Y-98673420D01*
X205050758Y-98667724D01*
X205051251Y-98666740D01*
X205053342Y-98662457D01*
X205072599Y-98622071D01*
X205074962Y-98616969D01*
X205075408Y-98615978D01*
X205077585Y-98611003D01*
X205095089Y-98569777D01*
X205097128Y-98564828D01*
X205097533Y-98563816D01*
X205099622Y-98558419D01*
X205149022Y-98426287D01*
X205144004Y-98424280D01*
X205148782Y-98407044D01*
X205151113Y-98397993D01*
X205151368Y-98396925D01*
X205151762Y-98395242D01*
X205154924Y-98381550D01*
X205160648Y-98382431D01*
X205176953Y-98265427D01*
X205178725Y-98248684D01*
X205178978Y-98245195D01*
X205179643Y-98226789D01*
X205179643Y-96173211D01*
X205178978Y-96154805D01*
X205178725Y-96151317D01*
X205176956Y-96134594D01*
X205160484Y-96016323D01*
X205154658Y-96017294D01*
X205151757Y-96004734D01*
X205151365Y-96003063D01*
X205151115Y-96002012D01*
X205148788Y-95992977D01*
X205144681Y-95978160D01*
X205149970Y-95976211D01*
X205099599Y-95841538D01*
X205097523Y-95836173D01*
X205097120Y-95835167D01*
X205095102Y-95830268D01*
X205077608Y-95789041D01*
X205075411Y-95784017D01*
X205074958Y-95783011D01*
X205072561Y-95777840D01*
X205041080Y-95711869D01*
X205044881Y-95709364D01*
X205026031Y-95680333D01*
X205011039Y-95648916D01*
X205006900Y-95650869D01*
X204967368Y-95589985D01*
X204965673Y-95587407D01*
X204965056Y-95586482D01*
X204960498Y-95579873D01*
X204934569Y-95543517D01*
X204933685Y-95542286D01*
X204933042Y-95541396D01*
X204927279Y-95533724D01*
X204899388Y-95498021D01*
X204895285Y-95492906D01*
X204894588Y-95492060D01*
X204891649Y-95488555D01*
X204862764Y-95454737D01*
X204860775Y-95452437D01*
X204860049Y-95451607D01*
X204854623Y-95445601D01*
X204823678Y-95412425D01*
X204817525Y-95406055D01*
X204816750Y-95405279D01*
X204815171Y-95403714D01*
X204811127Y-95399740D01*
X204815682Y-95395184D01*
X204758677Y-95348198D01*
X204713827Y-95304125D01*
X204709932Y-95308020D01*
X204697135Y-95297473D01*
X204689856Y-95291694D01*
X204688991Y-95291032D01*
X204687541Y-95289931D01*
X204652065Y-95263202D01*
X204647923Y-95260147D01*
X204647042Y-95259511D01*
X204642211Y-95256106D01*
X204605413Y-95230808D01*
X204602404Y-95228771D01*
X204601488Y-95228160D01*
X204595151Y-95224069D01*
X204556725Y-95200065D01*
X204549397Y-95195657D01*
X204548465Y-95195117D01*
X204546283Y-95193867D01*
X204534325Y-95187101D01*
X204536769Y-95181940D01*
X204477383Y-95154881D01*
X204434937Y-95130864D01*
X204435451Y-95129494D01*
X204427603Y-95126714D01*
X204421730Y-95123391D01*
X204421146Y-95124427D01*
X204298744Y-95081072D01*
X204294250Y-95079528D01*
X204293206Y-95079180D01*
X204287118Y-95077235D01*
X204244274Y-95064139D01*
X204239793Y-95062815D01*
X204238744Y-95062515D01*
X204232561Y-95060832D01*
X204189149Y-95049602D01*
X204184356Y-95048413D01*
X204183297Y-95048160D01*
X204177254Y-95046799D01*
X204133382Y-95037475D01*
X204128092Y-95036408D01*
X204127011Y-95036202D01*
X204121406Y-95035199D01*
X204076987Y-95027763D01*
X204069350Y-95026604D01*
X204068238Y-95026453D01*
X204064702Y-95025996D01*
X204035553Y-95022436D01*
X204021345Y-95021104D01*
X204018285Y-95020903D01*
X204001622Y-95020357D01*
X203318510Y-95020357D01*
X203252537Y-95029045D01*
X203237955Y-95032953D01*
X203150014Y-95073295D01*
X203066934Y-95162832D01*
X203054589Y-95184213D01*
X203020357Y-95311966D01*
X203020357Y-95716102D01*
X203001000Y-95716102D01*
X203001000Y-97173898D01*
X203020357Y-97173898D01*
X203020357Y-97257386D01*
X203011173Y-97251249D01*
X202884751Y-97226102D01*
X202751000Y-97226102D01*
X202751000Y-98683898D01*
X202884751Y-98683898D01*
X203011173Y-98658751D01*
X203020357Y-98652614D01*
X203020357Y-99081490D01*
X203029045Y-99147463D01*
X203032953Y-99162045D01*
X203073295Y-99249986D01*
X203162832Y-99333066D01*
X203170138Y-99337284D01*
X203162433Y-99342433D01*
X203052697Y-99506664D01*
X203016102Y-99690638D01*
X203016102Y-99844000D01*
X203691000Y-99844000D01*
X203691000Y-99896000D01*
X203016102Y-99896000D01*
X203016102Y-100049362D01*
X203052697Y-100233336D01*
X203162433Y-100397567D01*
X203253471Y-100458397D01*
X203193481Y-100498481D01*
X203094796Y-100646174D01*
X203062082Y-100810639D01*
X203062082Y-101169361D01*
X203094796Y-101333826D01*
X203193481Y-101481519D01*
X203261001Y-101526634D01*
X203261001Y-101841953D01*
X203253374Y-101863670D01*
X203261001Y-101932213D01*
X203261001Y-101954970D01*
X203265946Y-101976649D01*
X203273512Y-102044637D01*
X203285993Y-102064533D01*
X203291227Y-102087478D01*
X203334271Y-102141495D01*
X203346131Y-102160401D01*
X203361916Y-102176186D01*
X203404672Y-102229843D01*
X203425728Y-102240000D01*
X203667733Y-102482005D01*
X203482841Y-102320224D01*
X203474329Y-102307798D01*
X201980428Y-100813898D01*
X202009000Y-100813898D01*
X202009000Y-100166000D01*
X202061000Y-100166000D01*
X202061000Y-100813898D01*
X202189362Y-100813898D01*
X202373336Y-100777303D01*
X202537567Y-100667567D01*
X202647303Y-100503336D01*
X202683898Y-100319362D01*
X202683898Y-100166000D01*
X202061000Y-100166000D01*
X202009000Y-100166000D01*
X202009000Y-99466102D01*
X202061000Y-99466102D01*
X202061000Y-100114000D01*
X202683898Y-100114000D01*
X202683898Y-99960638D01*
X202647303Y-99776664D01*
X202537567Y-99612433D01*
X202373336Y-99502697D01*
X202189362Y-99466102D01*
X202061000Y-99466102D01*
X202009000Y-99466102D01*
X201880638Y-99466102D01*
X201739000Y-99494276D01*
X201739000Y-98664011D01*
X201733209Y-98632918D01*
X201884750Y-98632918D01*
X201975000Y-98614967D01*
X202065250Y-98632918D01*
X202384750Y-98632918D01*
X202396629Y-98630555D01*
X202438827Y-98658751D01*
X202565249Y-98683898D01*
X202699000Y-98683898D01*
X202699000Y-97226102D01*
X202565249Y-97226102D01*
X202438827Y-97251249D01*
X202396629Y-97279445D01*
X202384750Y-97277082D01*
X202065250Y-97277082D01*
X201975000Y-97295033D01*
X201884750Y-97277082D01*
X201853831Y-97277082D01*
X201861257Y-97265268D01*
X201869015Y-97196644D01*
X201874000Y-97174879D01*
X201874000Y-97152552D01*
X201877350Y-97122918D01*
X202134750Y-97122918D01*
X202225000Y-97104967D01*
X202315250Y-97122918D01*
X202634750Y-97122918D01*
X202646629Y-97120555D01*
X202688827Y-97148751D01*
X202815249Y-97173898D01*
X202949000Y-97173898D01*
X202949000Y-95716102D01*
X202815249Y-95716102D01*
X202688827Y-95741249D01*
X202646629Y-95769445D01*
X202634750Y-95767082D01*
X202315250Y-95767082D01*
X202225000Y-95785033D01*
X202134750Y-95767082D01*
X202039321Y-95767082D01*
X202937404Y-94869000D01*
X204302597Y-94869000D01*
X205780678Y-96347082D01*
X205740250Y-96347082D01*
X205633336Y-96368348D01*
X205534433Y-96434433D01*
X205468348Y-96533336D01*
X205447082Y-96640250D01*
X205447082Y-98359750D01*
X205468348Y-98466664D01*
X205534433Y-98565567D01*
X205633336Y-98631652D01*
X205740250Y-98652918D01*
X207459750Y-98652918D01*
X207566664Y-98631652D01*
X207665567Y-98565567D01*
X207731652Y-98466664D01*
X207752918Y-98359750D01*
X207752918Y-97596611D01*
X207989494Y-97596611D01*
X208030171Y-97818238D01*
X208113121Y-98027745D01*
X208235183Y-98217150D01*
X208391710Y-98379238D01*
X208576739Y-98507837D01*
X208783223Y-98598047D01*
X209003296Y-98646433D01*
X209228577Y-98651152D01*
X209450483Y-98612024D01*
X209660563Y-98530539D01*
X209850815Y-98409801D01*
X210013992Y-98254410D01*
X210143880Y-98070283D01*
X210235529Y-97864434D01*
X210285605Y-97644024D01*
X210289181Y-97388020D01*
X210245278Y-97166296D01*
X210159411Y-96957969D01*
X210034715Y-96770288D01*
X209875941Y-96610401D01*
X209689135Y-96484397D01*
X209481411Y-96397079D01*
X209260684Y-96351770D01*
X209035359Y-96350197D01*
X208814021Y-96392420D01*
X208605100Y-96476829D01*
X208416552Y-96600212D01*
X208255560Y-96757867D01*
X208128256Y-96943789D01*
X208039490Y-97150898D01*
X207992640Y-97371302D01*
X207989494Y-97596611D01*
X207752918Y-97596611D01*
X207752918Y-96640250D01*
X207731652Y-96533336D01*
X207665567Y-96434433D01*
X207566664Y-96368348D01*
X207459750Y-96347082D01*
X207149000Y-96347082D01*
X207149000Y-96339008D01*
X207147154Y-96329098D01*
X207144642Y-96262164D01*
X207129605Y-96234868D01*
X207121052Y-96188944D01*
X207013737Y-96014846D01*
X206961619Y-95975215D01*
X204983111Y-93996708D01*
X204978372Y-93987012D01*
X204909882Y-93923479D01*
X204882144Y-93895742D01*
X204873844Y-93890049D01*
X204824727Y-93844485D01*
X204794788Y-93835816D01*
X204756270Y-93809393D01*
X204557281Y-93762171D01*
X204492405Y-93771000D01*
X202801796Y-93771000D01*
X202791588Y-93767495D01*
X202789925Y-93767557D01*
X202956847Y-93474912D01*
X202958643Y-93468981D01*
X202962369Y-93463863D01*
X202966892Y-93453232D01*
X203106773Y-93125286D01*
X203107876Y-93119186D01*
X203110941Y-93113758D01*
X203114245Y-93102646D01*
X203215521Y-92760746D01*
X203215916Y-92754561D01*
X203218381Y-92748710D01*
X203220351Y-92737344D01*
X203281649Y-92386120D01*
X203281330Y-92379929D01*
X203283073Y-92373949D01*
X203283754Y-92362376D01*
X203304281Y-92006378D01*
X203299000Y-91974990D01*
X203299000Y-89813198D01*
X203523296Y-89883929D01*
G36*
X197321102Y-100560638D02*
G01*
X197321102Y-100714000D01*
X197996000Y-100714000D01*
X197996000Y-101413898D01*
X198124362Y-101413898D01*
X198308336Y-101377303D01*
X198472567Y-101267567D01*
X198489501Y-101242223D01*
X198621174Y-101330204D01*
X198785639Y-101362918D01*
X199094361Y-101362918D01*
X199258826Y-101330204D01*
X199362998Y-101260599D01*
X198726708Y-101896889D01*
X198717012Y-101901628D01*
X198653471Y-101970126D01*
X198625744Y-101997854D01*
X198620048Y-102006157D01*
X198574486Y-102055274D01*
X198565817Y-102085210D01*
X198539392Y-102123731D01*
X198492171Y-102322719D01*
X198501000Y-102387595D01*
X198501001Y-103063102D01*
X198497496Y-103073310D01*
X198501001Y-103166665D01*
X198501001Y-103205885D01*
X198502845Y-103215789D01*
X198502913Y-103217606D01*
X198481266Y-103185209D01*
X198269487Y-102973430D01*
X198184497Y-102916641D01*
X198127712Y-102831656D01*
X197915933Y-102619877D01*
X197830948Y-102563092D01*
X197774159Y-102478102D01*
X197562380Y-102266323D01*
X197477390Y-102209534D01*
X197420605Y-102124549D01*
X197208826Y-101912770D01*
X197123841Y-101855985D01*
X197067052Y-101770995D01*
X196855273Y-101559216D01*
X196770286Y-101502429D01*
X196713499Y-101417442D01*
X196536192Y-101240135D01*
X197010327Y-100766000D01*
X197321102Y-100766000D01*
X197321102Y-100919362D01*
X197357697Y-101103336D01*
X197467433Y-101267567D01*
X197631664Y-101377303D01*
X197815638Y-101413898D01*
X197944000Y-101413898D01*
X197944000Y-100766000D01*
X197321102Y-100766000D01*
X197010327Y-100766000D01*
X197347277Y-100429050D01*
X197321102Y-100560638D01*
G37*
X197321102Y-100560638D02*
X197321102Y-100714000D01*
X197996000Y-100714000D01*
X197996000Y-101413898D01*
X198124362Y-101413898D01*
X198308336Y-101377303D01*
X198472567Y-101267567D01*
X198489501Y-101242223D01*
X198621174Y-101330204D01*
X198785639Y-101362918D01*
X199094361Y-101362918D01*
X199258826Y-101330204D01*
X199362998Y-101260599D01*
X198726708Y-101896889D01*
X198717012Y-101901628D01*
X198653471Y-101970126D01*
X198625744Y-101997854D01*
X198620048Y-102006157D01*
X198574486Y-102055274D01*
X198565817Y-102085210D01*
X198539392Y-102123731D01*
X198492171Y-102322719D01*
X198501000Y-102387595D01*
X198501001Y-103063102D01*
X198497496Y-103073310D01*
X198501001Y-103166665D01*
X198501001Y-103205885D01*
X198502845Y-103215789D01*
X198502913Y-103217606D01*
X198481266Y-103185209D01*
X198269487Y-102973430D01*
X198184497Y-102916641D01*
X198127712Y-102831656D01*
X197915933Y-102619877D01*
X197830948Y-102563092D01*
X197774159Y-102478102D01*
X197562380Y-102266323D01*
X197477390Y-102209534D01*
X197420605Y-102124549D01*
X197208826Y-101912770D01*
X197123841Y-101855985D01*
X197067052Y-101770995D01*
X196855273Y-101559216D01*
X196770286Y-101502429D01*
X196713499Y-101417442D01*
X196536192Y-101240135D01*
X197010327Y-100766000D01*
X197321102Y-100766000D01*
X197321102Y-100919362D01*
X197357697Y-101103336D01*
X197467433Y-101267567D01*
X197631664Y-101377303D01*
X197815638Y-101413898D01*
X197944000Y-101413898D01*
X197944000Y-100766000D01*
X197321102Y-100766000D01*
X197010327Y-100766000D01*
X197347277Y-100429050D01*
X197321102Y-100560638D01*
G36*
X195182433Y-95067567D02*
G01*
X195346664Y-95177303D01*
X195530638Y-95213898D01*
X195621127Y-95213898D01*
X195604825Y-95224085D01*
X195598515Y-95228159D01*
X195597605Y-95228765D01*
X195594622Y-95230783D01*
X195557804Y-95256088D01*
X195552947Y-95259512D01*
X195552067Y-95260147D01*
X195547925Y-95263202D01*
X195512449Y-95289931D01*
X195510999Y-95291032D01*
X195510128Y-95291698D01*
X195502785Y-95297530D01*
X195467795Y-95326389D01*
X195462136Y-95331197D01*
X195461311Y-95331919D01*
X195458648Y-95334282D01*
X195425520Y-95364098D01*
X195421706Y-95367602D01*
X195420901Y-95368357D01*
X195416581Y-95372503D01*
X195384819Y-95403714D01*
X195383240Y-95405279D01*
X195382461Y-95406059D01*
X195376282Y-95412458D01*
X195345340Y-95445641D01*
X195339940Y-95451618D01*
X195339211Y-95452451D01*
X195337194Y-95454784D01*
X195308321Y-95488601D01*
X195305410Y-95492073D01*
X195304714Y-95492918D01*
X195300632Y-95498006D01*
X195272748Y-95533690D01*
X195266962Y-95541390D01*
X195266315Y-95542286D01*
X195265431Y-95543517D01*
X195239502Y-95579873D01*
X195234944Y-95586482D01*
X195234334Y-95587397D01*
X195232665Y-95589934D01*
X195225631Y-95600763D01*
X195220601Y-95597934D01*
X195189572Y-95656274D01*
X195155114Y-95709321D01*
X195159738Y-95712368D01*
X195152179Y-95726580D01*
X195149242Y-95732276D01*
X195148749Y-95733260D01*
X195146658Y-95737543D01*
X195127401Y-95777929D01*
X195125038Y-95783031D01*
X195124592Y-95784022D01*
X195122415Y-95788997D01*
X195104911Y-95830223D01*
X195102872Y-95835172D01*
X195102467Y-95836184D01*
X195100378Y-95841581D01*
X195050978Y-95973713D01*
X195055996Y-95975720D01*
X195051218Y-95992956D01*
X195048887Y-96002007D01*
X195048632Y-96003075D01*
X195048238Y-96004758D01*
X195045076Y-96018450D01*
X195039352Y-96017569D01*
X195023047Y-96134573D01*
X195021275Y-96151316D01*
X195021022Y-96154805D01*
X195020357Y-96173211D01*
X195020357Y-98226789D01*
X195021022Y-98245195D01*
X195021275Y-98248683D01*
X195023044Y-98265406D01*
X195039516Y-98383677D01*
X195045342Y-98382706D01*
X195048243Y-98395266D01*
X195048635Y-98396937D01*
X195048885Y-98397988D01*
X195051212Y-98407023D01*
X195055319Y-98421840D01*
X195050030Y-98423789D01*
X195100401Y-98558462D01*
X195102477Y-98563827D01*
X195102880Y-98564833D01*
X195104898Y-98569732D01*
X195122392Y-98610959D01*
X195124589Y-98615983D01*
X195125042Y-98616989D01*
X195127439Y-98622160D01*
X195158920Y-98688131D01*
X195155119Y-98690636D01*
X195173969Y-98719667D01*
X195188961Y-98751084D01*
X195193100Y-98749131D01*
X195232632Y-98810015D01*
X195234327Y-98812593D01*
X195234944Y-98813518D01*
X195239502Y-98820127D01*
X195265431Y-98856483D01*
X195266315Y-98857714D01*
X195266958Y-98858604D01*
X195272721Y-98866276D01*
X195300612Y-98901979D01*
X195304715Y-98907094D01*
X195305412Y-98907940D01*
X195308351Y-98911445D01*
X195337236Y-98945263D01*
X195339225Y-98947563D01*
X195339951Y-98948393D01*
X195345377Y-98954399D01*
X195376322Y-98987575D01*
X195382475Y-98993945D01*
X195383250Y-98994721D01*
X195384829Y-98996286D01*
X195388873Y-99000260D01*
X195384318Y-99004816D01*
X195441323Y-99051802D01*
X195486173Y-99095875D01*
X195490068Y-99091980D01*
X195502865Y-99102527D01*
X195510144Y-99108306D01*
X195511009Y-99108968D01*
X195512459Y-99110069D01*
X195547935Y-99136798D01*
X195552077Y-99139853D01*
X195552958Y-99140489D01*
X195557789Y-99143894D01*
X195594587Y-99169192D01*
X195597596Y-99171229D01*
X195598512Y-99171840D01*
X195604849Y-99175931D01*
X195643275Y-99199935D01*
X195650603Y-99204343D01*
X195651535Y-99204883D01*
X195653717Y-99206133D01*
X195665675Y-99212899D01*
X195663231Y-99218060D01*
X195722617Y-99245119D01*
X195765063Y-99269136D01*
X195764549Y-99270506D01*
X195772397Y-99273286D01*
X195778270Y-99276609D01*
X195778854Y-99275573D01*
X195901256Y-99318928D01*
X195905750Y-99320472D01*
X195906794Y-99320820D01*
X195912882Y-99322765D01*
X195955726Y-99335861D01*
X195960207Y-99337185D01*
X195961256Y-99337485D01*
X195967439Y-99339168D01*
X196010851Y-99350398D01*
X196015644Y-99351587D01*
X196016703Y-99351840D01*
X196022746Y-99353201D01*
X196066618Y-99362525D01*
X196071908Y-99363592D01*
X196072989Y-99363798D01*
X196078594Y-99364801D01*
X196123013Y-99372237D01*
X196130650Y-99373396D01*
X196131762Y-99373547D01*
X196135298Y-99374004D01*
X196164447Y-99377564D01*
X196178655Y-99378896D01*
X196181715Y-99379097D01*
X196198378Y-99379643D01*
X196561033Y-99379643D01*
X195510637Y-100430040D01*
X195470649Y-100437994D01*
X195380011Y-100498556D01*
X194873135Y-101005432D01*
X194366258Y-100498556D01*
X194275621Y-100437994D01*
X194158957Y-100414789D01*
X194042293Y-100437994D01*
X193951656Y-100498556D01*
X193774349Y-100675864D01*
X193729000Y-100630515D01*
X193729000Y-98910042D01*
X193736626Y-98888325D01*
X193729000Y-98819788D01*
X193729000Y-98797026D01*
X193724054Y-98775347D01*
X193716489Y-98707359D01*
X193704007Y-98687462D01*
X193698773Y-98664518D01*
X193655729Y-98610501D01*
X193643869Y-98591594D01*
X193628085Y-98575810D01*
X193585328Y-98522152D01*
X193564271Y-98511995D01*
X192628257Y-97575982D01*
X192618292Y-97555231D01*
X192564435Y-97512160D01*
X192548340Y-97496066D01*
X192529518Y-97484237D01*
X192476091Y-97441509D01*
X192453192Y-97436264D01*
X192433268Y-97423742D01*
X192364645Y-97415985D01*
X192342882Y-97411000D01*
X192320555Y-97411000D01*
X192252384Y-97403293D01*
X192230314Y-97411000D01*
X191044171Y-97411000D01*
X191041652Y-97398337D01*
X190975567Y-97299433D01*
X190876664Y-97233348D01*
X190769750Y-97212082D01*
X190631993Y-97212082D01*
X190779580Y-97138820D01*
X190912209Y-97019400D01*
X191007839Y-96868712D01*
X191059575Y-96697353D01*
X191061561Y-96507710D01*
X191630272Y-95939000D01*
X191656662Y-95939000D01*
X191718481Y-96031519D01*
X191866174Y-96130204D01*
X192030639Y-96162918D01*
X192339361Y-96162918D01*
X192503826Y-96130204D01*
X192635499Y-96042223D01*
X192652433Y-96067567D01*
X192816664Y-96177303D01*
X193000638Y-96213898D01*
X193129000Y-96213898D01*
X193129000Y-95566000D01*
X193181000Y-95566000D01*
X193181000Y-96213898D01*
X193309362Y-96213898D01*
X193493336Y-96177303D01*
X193657567Y-96067567D01*
X193767303Y-95903336D01*
X193803898Y-95719362D01*
X193803898Y-95566000D01*
X193181000Y-95566000D01*
X193129000Y-95566000D01*
X193129000Y-95514000D01*
X193803898Y-95514000D01*
X193803898Y-95360638D01*
X193767303Y-95176664D01*
X193698637Y-95073898D01*
X193799751Y-95073898D01*
X193926173Y-95048751D01*
X194003449Y-94997117D01*
X194704549Y-94997117D01*
X194811463Y-94975851D01*
X194821718Y-94968999D01*
X194826753Y-94968999D01*
X194848470Y-94976625D01*
X194917003Y-94968999D01*
X194939768Y-94968999D01*
X194961456Y-94964052D01*
X195029434Y-94956487D01*
X195049331Y-94944006D01*
X195072278Y-94938771D01*
X195088002Y-94926241D01*
X195182433Y-95067567D01*
G37*
X195182433Y-95067567D02*
X195346664Y-95177303D01*
X195530638Y-95213898D01*
X195621127Y-95213898D01*
X195604825Y-95224085D01*
X195598515Y-95228159D01*
X195597605Y-95228765D01*
X195594622Y-95230783D01*
X195557804Y-95256088D01*
X195552947Y-95259512D01*
X195552067Y-95260147D01*
X195547925Y-95263202D01*
X195512449Y-95289931D01*
X195510999Y-95291032D01*
X195510128Y-95291698D01*
X195502785Y-95297530D01*
X195467795Y-95326389D01*
X195462136Y-95331197D01*
X195461311Y-95331919D01*
X195458648Y-95334282D01*
X195425520Y-95364098D01*
X195421706Y-95367602D01*
X195420901Y-95368357D01*
X195416581Y-95372503D01*
X195384819Y-95403714D01*
X195383240Y-95405279D01*
X195382461Y-95406059D01*
X195376282Y-95412458D01*
X195345340Y-95445641D01*
X195339940Y-95451618D01*
X195339211Y-95452451D01*
X195337194Y-95454784D01*
X195308321Y-95488601D01*
X195305410Y-95492073D01*
X195304714Y-95492918D01*
X195300632Y-95498006D01*
X195272748Y-95533690D01*
X195266962Y-95541390D01*
X195266315Y-95542286D01*
X195265431Y-95543517D01*
X195239502Y-95579873D01*
X195234944Y-95586482D01*
X195234334Y-95587397D01*
X195232665Y-95589934D01*
X195225631Y-95600763D01*
X195220601Y-95597934D01*
X195189572Y-95656274D01*
X195155114Y-95709321D01*
X195159738Y-95712368D01*
X195152179Y-95726580D01*
X195149242Y-95732276D01*
X195148749Y-95733260D01*
X195146658Y-95737543D01*
X195127401Y-95777929D01*
X195125038Y-95783031D01*
X195124592Y-95784022D01*
X195122415Y-95788997D01*
X195104911Y-95830223D01*
X195102872Y-95835172D01*
X195102467Y-95836184D01*
X195100378Y-95841581D01*
X195050978Y-95973713D01*
X195055996Y-95975720D01*
X195051218Y-95992956D01*
X195048887Y-96002007D01*
X195048632Y-96003075D01*
X195048238Y-96004758D01*
X195045076Y-96018450D01*
X195039352Y-96017569D01*
X195023047Y-96134573D01*
X195021275Y-96151316D01*
X195021022Y-96154805D01*
X195020357Y-96173211D01*
X195020357Y-98226789D01*
X195021022Y-98245195D01*
X195021275Y-98248683D01*
X195023044Y-98265406D01*
X195039516Y-98383677D01*
X195045342Y-98382706D01*
X195048243Y-98395266D01*
X195048635Y-98396937D01*
X195048885Y-98397988D01*
X195051212Y-98407023D01*
X195055319Y-98421840D01*
X195050030Y-98423789D01*
X195100401Y-98558462D01*
X195102477Y-98563827D01*
X195102880Y-98564833D01*
X195104898Y-98569732D01*
X195122392Y-98610959D01*
X195124589Y-98615983D01*
X195125042Y-98616989D01*
X195127439Y-98622160D01*
X195158920Y-98688131D01*
X195155119Y-98690636D01*
X195173969Y-98719667D01*
X195188961Y-98751084D01*
X195193100Y-98749131D01*
X195232632Y-98810015D01*
X195234327Y-98812593D01*
X195234944Y-98813518D01*
X195239502Y-98820127D01*
X195265431Y-98856483D01*
X195266315Y-98857714D01*
X195266958Y-98858604D01*
X195272721Y-98866276D01*
X195300612Y-98901979D01*
X195304715Y-98907094D01*
X195305412Y-98907940D01*
X195308351Y-98911445D01*
X195337236Y-98945263D01*
X195339225Y-98947563D01*
X195339951Y-98948393D01*
X195345377Y-98954399D01*
X195376322Y-98987575D01*
X195382475Y-98993945D01*
X195383250Y-98994721D01*
X195384829Y-98996286D01*
X195388873Y-99000260D01*
X195384318Y-99004816D01*
X195441323Y-99051802D01*
X195486173Y-99095875D01*
X195490068Y-99091980D01*
X195502865Y-99102527D01*
X195510144Y-99108306D01*
X195511009Y-99108968D01*
X195512459Y-99110069D01*
X195547935Y-99136798D01*
X195552077Y-99139853D01*
X195552958Y-99140489D01*
X195557789Y-99143894D01*
X195594587Y-99169192D01*
X195597596Y-99171229D01*
X195598512Y-99171840D01*
X195604849Y-99175931D01*
X195643275Y-99199935D01*
X195650603Y-99204343D01*
X195651535Y-99204883D01*
X195653717Y-99206133D01*
X195665675Y-99212899D01*
X195663231Y-99218060D01*
X195722617Y-99245119D01*
X195765063Y-99269136D01*
X195764549Y-99270506D01*
X195772397Y-99273286D01*
X195778270Y-99276609D01*
X195778854Y-99275573D01*
X195901256Y-99318928D01*
X195905750Y-99320472D01*
X195906794Y-99320820D01*
X195912882Y-99322765D01*
X195955726Y-99335861D01*
X195960207Y-99337185D01*
X195961256Y-99337485D01*
X195967439Y-99339168D01*
X196010851Y-99350398D01*
X196015644Y-99351587D01*
X196016703Y-99351840D01*
X196022746Y-99353201D01*
X196066618Y-99362525D01*
X196071908Y-99363592D01*
X196072989Y-99363798D01*
X196078594Y-99364801D01*
X196123013Y-99372237D01*
X196130650Y-99373396D01*
X196131762Y-99373547D01*
X196135298Y-99374004D01*
X196164447Y-99377564D01*
X196178655Y-99378896D01*
X196181715Y-99379097D01*
X196198378Y-99379643D01*
X196561033Y-99379643D01*
X195510637Y-100430040D01*
X195470649Y-100437994D01*
X195380011Y-100498556D01*
X194873135Y-101005432D01*
X194366258Y-100498556D01*
X194275621Y-100437994D01*
X194158957Y-100414789D01*
X194042293Y-100437994D01*
X193951656Y-100498556D01*
X193774349Y-100675864D01*
X193729000Y-100630515D01*
X193729000Y-98910042D01*
X193736626Y-98888325D01*
X193729000Y-98819788D01*
X193729000Y-98797026D01*
X193724054Y-98775347D01*
X193716489Y-98707359D01*
X193704007Y-98687462D01*
X193698773Y-98664518D01*
X193655729Y-98610501D01*
X193643869Y-98591594D01*
X193628085Y-98575810D01*
X193585328Y-98522152D01*
X193564271Y-98511995D01*
X192628257Y-97575982D01*
X192618292Y-97555231D01*
X192564435Y-97512160D01*
X192548340Y-97496066D01*
X192529518Y-97484237D01*
X192476091Y-97441509D01*
X192453192Y-97436264D01*
X192433268Y-97423742D01*
X192364645Y-97415985D01*
X192342882Y-97411000D01*
X192320555Y-97411000D01*
X192252384Y-97403293D01*
X192230314Y-97411000D01*
X191044171Y-97411000D01*
X191041652Y-97398337D01*
X190975567Y-97299433D01*
X190876664Y-97233348D01*
X190769750Y-97212082D01*
X190631993Y-97212082D01*
X190779580Y-97138820D01*
X190912209Y-97019400D01*
X191007839Y-96868712D01*
X191059575Y-96697353D01*
X191061561Y-96507710D01*
X191630272Y-95939000D01*
X191656662Y-95939000D01*
X191718481Y-96031519D01*
X191866174Y-96130204D01*
X192030639Y-96162918D01*
X192339361Y-96162918D01*
X192503826Y-96130204D01*
X192635499Y-96042223D01*
X192652433Y-96067567D01*
X192816664Y-96177303D01*
X193000638Y-96213898D01*
X193129000Y-96213898D01*
X193129000Y-95566000D01*
X193181000Y-95566000D01*
X193181000Y-96213898D01*
X193309362Y-96213898D01*
X193493336Y-96177303D01*
X193657567Y-96067567D01*
X193767303Y-95903336D01*
X193803898Y-95719362D01*
X193803898Y-95566000D01*
X193181000Y-95566000D01*
X193129000Y-95566000D01*
X193129000Y-95514000D01*
X193803898Y-95514000D01*
X193803898Y-95360638D01*
X193767303Y-95176664D01*
X193698637Y-95073898D01*
X193799751Y-95073898D01*
X193926173Y-95048751D01*
X194003449Y-94997117D01*
X194704549Y-94997117D01*
X194811463Y-94975851D01*
X194821718Y-94968999D01*
X194826753Y-94968999D01*
X194848470Y-94976625D01*
X194917003Y-94968999D01*
X194939768Y-94968999D01*
X194961456Y-94964052D01*
X195029434Y-94956487D01*
X195049331Y-94944006D01*
X195072278Y-94938771D01*
X195088002Y-94926241D01*
X195182433Y-95067567D01*
G36*
X192931001Y-99007269D02*
G01*
X192931001Y-99227955D01*
X192833336Y-99162697D01*
X192649362Y-99126102D01*
X192496000Y-99126102D01*
X192496000Y-99801000D01*
X192444000Y-99801000D01*
X192444000Y-99126102D01*
X192290638Y-99126102D01*
X192244487Y-99135282D01*
X192244044Y-99133338D01*
X192236478Y-99065352D01*
X192223997Y-99045456D01*
X192218764Y-99022513D01*
X192175718Y-98968494D01*
X192163860Y-98949588D01*
X192148075Y-98933803D01*
X192105318Y-98880146D01*
X192084261Y-98869989D01*
X192059000Y-98844728D01*
X192059000Y-98704380D01*
X191986751Y-98505881D01*
X191850970Y-98344061D01*
X191668030Y-98238441D01*
X191501060Y-98209000D01*
X192132733Y-98209000D01*
X192931001Y-99007269D01*
G37*
X192931001Y-99007269D02*
X192931001Y-99227955D01*
X192833336Y-99162697D01*
X192649362Y-99126102D01*
X192496000Y-99126102D01*
X192496000Y-99801000D01*
X192444000Y-99801000D01*
X192444000Y-99126102D01*
X192290638Y-99126102D01*
X192244487Y-99135282D01*
X192244044Y-99133338D01*
X192236478Y-99065352D01*
X192223997Y-99045456D01*
X192218764Y-99022513D01*
X192175718Y-98968494D01*
X192163860Y-98949588D01*
X192148075Y-98933803D01*
X192105318Y-98880146D01*
X192084261Y-98869989D01*
X192059000Y-98844728D01*
X192059000Y-98704380D01*
X191986751Y-98505881D01*
X191850970Y-98344061D01*
X191668030Y-98238441D01*
X191501060Y-98209000D01*
X192132733Y-98209000D01*
X192931001Y-99007269D01*
G36*
X197551829Y-95716102D02*
G01*
X197501000Y-95716102D01*
X197501000Y-97173898D01*
X197634751Y-97173898D01*
X197761173Y-97148751D01*
X197803371Y-97120555D01*
X197815250Y-97122918D01*
X198134750Y-97122918D01*
X198225000Y-97104967D01*
X198315250Y-97122918D01*
X198417812Y-97122918D01*
X198411066Y-97129664D01*
X198399231Y-97148494D01*
X198356509Y-97201914D01*
X198351265Y-97224811D01*
X198338743Y-97244734D01*
X198335086Y-97277082D01*
X198065250Y-97277082D01*
X197975000Y-97295033D01*
X197884750Y-97277082D01*
X197565250Y-97277082D01*
X197553371Y-97279445D01*
X197511173Y-97251249D01*
X197384751Y-97226102D01*
X197251000Y-97226102D01*
X197251000Y-98683898D01*
X197384751Y-98683898D01*
X197511173Y-98658751D01*
X197553371Y-98630555D01*
X197565250Y-98632918D01*
X197884750Y-98632918D01*
X197975000Y-98614967D01*
X198065250Y-98632918D01*
X198384750Y-98632918D01*
X198475000Y-98614967D01*
X198539285Y-98627753D01*
X198421959Y-98648441D01*
X198239019Y-98754061D01*
X198124115Y-98891000D01*
X197282993Y-98891000D01*
X197261276Y-98883374D01*
X197192743Y-98891000D01*
X197179643Y-98891000D01*
X197179643Y-98683898D01*
X197199000Y-98683898D01*
X197199000Y-97226102D01*
X197179643Y-97226102D01*
X197179643Y-97142614D01*
X197188827Y-97148751D01*
X197315249Y-97173898D01*
X197449000Y-97173898D01*
X197449000Y-95716102D01*
X197315249Y-95716102D01*
X197188827Y-95741249D01*
X197179643Y-95747386D01*
X197179643Y-95343915D01*
X197551829Y-95716102D01*
G37*
X197551829Y-95716102D02*
X197501000Y-95716102D01*
X197501000Y-97173898D01*
X197634751Y-97173898D01*
X197761173Y-97148751D01*
X197803371Y-97120555D01*
X197815250Y-97122918D01*
X198134750Y-97122918D01*
X198225000Y-97104967D01*
X198315250Y-97122918D01*
X198417812Y-97122918D01*
X198411066Y-97129664D01*
X198399231Y-97148494D01*
X198356509Y-97201914D01*
X198351265Y-97224811D01*
X198338743Y-97244734D01*
X198335086Y-97277082D01*
X198065250Y-97277082D01*
X197975000Y-97295033D01*
X197884750Y-97277082D01*
X197565250Y-97277082D01*
X197553371Y-97279445D01*
X197511173Y-97251249D01*
X197384751Y-97226102D01*
X197251000Y-97226102D01*
X197251000Y-98683898D01*
X197384751Y-98683898D01*
X197511173Y-98658751D01*
X197553371Y-98630555D01*
X197565250Y-98632918D01*
X197884750Y-98632918D01*
X197975000Y-98614967D01*
X198065250Y-98632918D01*
X198384750Y-98632918D01*
X198475000Y-98614967D01*
X198539285Y-98627753D01*
X198421959Y-98648441D01*
X198239019Y-98754061D01*
X198124115Y-98891000D01*
X197282993Y-98891000D01*
X197261276Y-98883374D01*
X197192743Y-98891000D01*
X197179643Y-98891000D01*
X197179643Y-98683898D01*
X197199000Y-98683898D01*
X197199000Y-97226102D01*
X197179643Y-97226102D01*
X197179643Y-97142614D01*
X197188827Y-97148751D01*
X197315249Y-97173898D01*
X197449000Y-97173898D01*
X197449000Y-95716102D01*
X197315249Y-95716102D01*
X197188827Y-95741249D01*
X197179643Y-95747386D01*
X197179643Y-95343915D01*
X197551829Y-95716102D01*
G36*
X196856085Y-95020357D02*
G01*
X196269112Y-95020357D01*
X196347303Y-94903336D01*
X196383898Y-94719362D01*
X196383898Y-94591000D01*
X195684000Y-94591000D01*
X195684000Y-94539000D01*
X196374729Y-94539000D01*
X196856085Y-95020357D01*
G37*
X196856085Y-95020357D02*
X196269112Y-95020357D01*
X196347303Y-94903336D01*
X196383898Y-94719362D01*
X196383898Y-94591000D01*
X195684000Y-94591000D01*
X195684000Y-94539000D01*
X196374729Y-94539000D01*
X196856085Y-95020357D01*
G36*
X196701000Y-91968419D02*
G01*
X196695731Y-91993099D01*
X196695893Y-92004691D01*
X196697539Y-92109512D01*
X196697506Y-92109750D01*
X196698541Y-92121269D01*
X196714024Y-92294754D01*
X196569319Y-92150049D01*
X196600204Y-92103826D01*
X196632918Y-91939361D01*
X196632918Y-91580639D01*
X196600204Y-91416174D01*
X196501519Y-91268481D01*
X196353826Y-91169796D01*
X196189361Y-91137082D01*
X195880639Y-91137082D01*
X195716174Y-91169796D01*
X195584501Y-91257777D01*
X195567567Y-91232433D01*
X195403336Y-91122697D01*
X195219362Y-91086102D01*
X195091000Y-91086102D01*
X195091000Y-92433898D01*
X195219362Y-92433898D01*
X195403336Y-92397303D01*
X195567567Y-92287567D01*
X195584501Y-92262223D01*
X195647353Y-92304219D01*
X195648512Y-92314637D01*
X195660993Y-92334533D01*
X195666227Y-92357478D01*
X195709271Y-92411495D01*
X195721131Y-92430401D01*
X195736916Y-92446186D01*
X195779674Y-92499845D01*
X195800732Y-92510002D01*
X196411209Y-93120481D01*
X196411210Y-93446939D01*
X196325253Y-93360982D01*
X196315288Y-93340231D01*
X196312502Y-93338003D01*
X196300204Y-93276174D01*
X196201519Y-93128481D01*
X196053826Y-93029796D01*
X195889361Y-92997082D01*
X195682594Y-92997082D01*
X195651432Y-92972161D01*
X195635337Y-92956067D01*
X195616515Y-92944238D01*
X195563088Y-92901510D01*
X195540189Y-92896265D01*
X195520265Y-92883743D01*
X195451642Y-92875986D01*
X195429879Y-92871001D01*
X195407552Y-92871001D01*
X195339381Y-92863294D01*
X195317311Y-92871001D01*
X195002551Y-92871001D01*
X194934380Y-92863294D01*
X194912310Y-92871001D01*
X194821718Y-92871001D01*
X194811463Y-92864149D01*
X194704549Y-92842883D01*
X194003449Y-92842883D01*
X193926173Y-92791249D01*
X193799751Y-92766102D01*
X193416000Y-92766102D01*
X193416000Y-93946000D01*
X193364000Y-93946000D01*
X193364000Y-92766102D01*
X192980249Y-92766102D01*
X192853827Y-92791249D01*
X192776551Y-92842883D01*
X192075451Y-92842883D01*
X192021983Y-92853518D01*
X192425751Y-92425089D01*
X192888328Y-91989217D01*
X193131394Y-91786000D01*
X194416102Y-91786000D01*
X194416102Y-91939362D01*
X194452697Y-92123336D01*
X194562433Y-92287567D01*
X194726664Y-92397303D01*
X194910638Y-92433898D01*
X195039000Y-92433898D01*
X195039000Y-91786000D01*
X194416102Y-91786000D01*
X193131394Y-91786000D01*
X193375926Y-91581558D01*
X193377169Y-91580638D01*
X194416102Y-91580638D01*
X194416102Y-91734000D01*
X195039000Y-91734000D01*
X195039000Y-91086102D01*
X194910638Y-91086102D01*
X194726664Y-91122697D01*
X194562433Y-91232433D01*
X194452697Y-91396664D01*
X194416102Y-91580638D01*
X193377169Y-91580638D01*
X193886863Y-91203518D01*
X194419309Y-90856455D01*
X194971406Y-90541578D01*
X195541202Y-90259998D01*
X196126686Y-90012710D01*
X196701002Y-89809362D01*
X196701000Y-91968419D01*
G37*
X196701000Y-91968419D02*
X196695731Y-91993099D01*
X196695893Y-92004691D01*
X196697539Y-92109512D01*
X196697506Y-92109750D01*
X196698541Y-92121269D01*
X196714024Y-92294754D01*
X196569319Y-92150049D01*
X196600204Y-92103826D01*
X196632918Y-91939361D01*
X196632918Y-91580639D01*
X196600204Y-91416174D01*
X196501519Y-91268481D01*
X196353826Y-91169796D01*
X196189361Y-91137082D01*
X195880639Y-91137082D01*
X195716174Y-91169796D01*
X195584501Y-91257777D01*
X195567567Y-91232433D01*
X195403336Y-91122697D01*
X195219362Y-91086102D01*
X195091000Y-91086102D01*
X195091000Y-92433898D01*
X195219362Y-92433898D01*
X195403336Y-92397303D01*
X195567567Y-92287567D01*
X195584501Y-92262223D01*
X195647353Y-92304219D01*
X195648512Y-92314637D01*
X195660993Y-92334533D01*
X195666227Y-92357478D01*
X195709271Y-92411495D01*
X195721131Y-92430401D01*
X195736916Y-92446186D01*
X195779674Y-92499845D01*
X195800732Y-92510002D01*
X196411209Y-93120481D01*
X196411210Y-93446939D01*
X196325253Y-93360982D01*
X196315288Y-93340231D01*
X196312502Y-93338003D01*
X196300204Y-93276174D01*
X196201519Y-93128481D01*
X196053826Y-93029796D01*
X195889361Y-92997082D01*
X195682594Y-92997082D01*
X195651432Y-92972161D01*
X195635337Y-92956067D01*
X195616515Y-92944238D01*
X195563088Y-92901510D01*
X195540189Y-92896265D01*
X195520265Y-92883743D01*
X195451642Y-92875986D01*
X195429879Y-92871001D01*
X195407552Y-92871001D01*
X195339381Y-92863294D01*
X195317311Y-92871001D01*
X195002551Y-92871001D01*
X194934380Y-92863294D01*
X194912310Y-92871001D01*
X194821718Y-92871001D01*
X194811463Y-92864149D01*
X194704549Y-92842883D01*
X194003449Y-92842883D01*
X193926173Y-92791249D01*
X193799751Y-92766102D01*
X193416000Y-92766102D01*
X193416000Y-93946000D01*
X193364000Y-93946000D01*
X193364000Y-92766102D01*
X192980249Y-92766102D01*
X192853827Y-92791249D01*
X192776551Y-92842883D01*
X192075451Y-92842883D01*
X192021983Y-92853518D01*
X192425751Y-92425089D01*
X192888328Y-91989217D01*
X193131394Y-91786000D01*
X194416102Y-91786000D01*
X194416102Y-91939362D01*
X194452697Y-92123336D01*
X194562433Y-92287567D01*
X194726664Y-92397303D01*
X194910638Y-92433898D01*
X195039000Y-92433898D01*
X195039000Y-91786000D01*
X194416102Y-91786000D01*
X193131394Y-91786000D01*
X193375926Y-91581558D01*
X193377169Y-91580638D01*
X194416102Y-91580638D01*
X194416102Y-91734000D01*
X195039000Y-91734000D01*
X195039000Y-91086102D01*
X194910638Y-91086102D01*
X194726664Y-91122697D01*
X194562433Y-91232433D01*
X194452697Y-91396664D01*
X194416102Y-91580638D01*
X193377169Y-91580638D01*
X193886863Y-91203518D01*
X194419309Y-90856455D01*
X194971406Y-90541578D01*
X195541202Y-90259998D01*
X196126686Y-90012710D01*
X196701002Y-89809362D01*
X196701000Y-91968419D01*
M02*
