G04 #@! TF.GenerationSoftware,KiCad,Pcbnew,5.99.0-unknown-4135f0c~100~ubuntu18.04.1*
G04 #@! TF.CreationDate,2019-10-31T15:23:41-04:00*
G04 #@! TF.ProjectId,bias,62696173-2e6b-4696-9361-645f70636258,rev?*
G04 #@! TF.SameCoordinates,Original*
G04 #@! TF.FileFunction,Soldermask,Top*
G04 #@! TF.FilePolarity,Negative*
%FSLAX46Y46*%
G04 Gerber Fmt 4.6, Leading zero omitted, Abs format (unit mm)*
G04 Created by KiCad (PCBNEW 5.99.0-unknown-4135f0c~100~ubuntu18.04.1) date 2019-10-31 15:23:41*
%MOMM*%
%LPD*%
G04 APERTURE LIST*
%ADD10R,0.300000X0.750000*%
%ADD11O,1.700000X1.700000*%
%ADD12R,1.700000X1.700000*%
%ADD13R,0.700000X0.700000*%
%ADD14C,0.704800*%
%ADD15C,0.400000*%
%ADD16R,0.850000X0.300000*%
%ADD17R,0.300000X0.850000*%
%ADD18R,1.550000X1.550000*%
%ADD19R,0.800000X1.600000*%
%ADD20R,0.762000X0.254000*%
%ADD21R,0.729800X0.248400*%
G04 APERTURE END LIST*
G36*
X204000061Y-95324504D02*
G01*
X204027491Y-95327854D01*
X204027513Y-95327857D01*
X204070643Y-95335077D01*
X204070664Y-95335081D01*
X204113434Y-95344171D01*
X204113455Y-95344176D01*
X204155785Y-95355126D01*
X204155806Y-95355132D01*
X204197616Y-95367912D01*
X204197637Y-95367919D01*
X204238857Y-95382519D01*
X204238877Y-95382526D01*
X204279417Y-95398906D01*
X204279437Y-95398915D01*
X204319227Y-95417045D01*
X204319247Y-95417054D01*
X204358207Y-95436904D01*
X204358226Y-95436915D01*
X204396276Y-95458445D01*
X204396295Y-95458456D01*
X204433385Y-95481626D01*
X204433403Y-95481638D01*
X204469433Y-95506408D01*
X204469451Y-95506421D01*
X204504371Y-95532731D01*
X204504388Y-95532744D01*
X204538128Y-95560554D01*
X204538145Y-95560568D01*
X204570635Y-95589828D01*
X204570650Y-95589843D01*
X204601840Y-95620493D01*
X204601856Y-95620509D01*
X204631676Y-95652479D01*
X204631690Y-95652495D01*
X204660090Y-95685745D01*
X204660104Y-95685762D01*
X204687024Y-95720222D01*
X204687037Y-95720240D01*
X204712427Y-95755840D01*
X204712439Y-95755858D01*
X204736249Y-95792528D01*
X204736261Y-95792546D01*
X204758461Y-95830216D01*
X204758472Y-95830235D01*
X204778992Y-95868845D01*
X204779001Y-95868865D01*
X204797831Y-95908325D01*
X204797840Y-95908345D01*
X204814920Y-95948595D01*
X204814928Y-95948615D01*
X204830248Y-95989575D01*
X204830256Y-95989595D01*
X204843766Y-96031175D01*
X204843772Y-96031196D01*
X204855452Y-96073336D01*
X204855457Y-96073357D01*
X204865297Y-96115957D01*
X204865302Y-96115979D01*
X204873272Y-96158969D01*
X204873275Y-96158991D01*
X204875495Y-96174931D01*
X204875500Y-96175000D01*
X204875500Y-98225000D01*
X204875495Y-98225069D01*
X204873275Y-98240999D01*
X204873272Y-98241021D01*
X204865302Y-98284011D01*
X204865297Y-98284033D01*
X204855457Y-98326643D01*
X204855452Y-98326664D01*
X204843772Y-98368794D01*
X204843766Y-98368814D01*
X204830256Y-98410404D01*
X204830248Y-98410425D01*
X204814938Y-98451375D01*
X204814930Y-98451395D01*
X204797840Y-98491645D01*
X204797831Y-98491665D01*
X204779011Y-98531135D01*
X204779001Y-98531155D01*
X204758471Y-98569755D01*
X204758461Y-98569774D01*
X204736271Y-98607454D01*
X204736259Y-98607472D01*
X204712439Y-98644142D01*
X204712427Y-98644160D01*
X204687037Y-98679760D01*
X204687024Y-98679778D01*
X204660104Y-98714228D01*
X204660090Y-98714245D01*
X204631700Y-98747495D01*
X204631686Y-98747511D01*
X204601866Y-98779491D01*
X204601850Y-98779507D01*
X204570660Y-98810157D01*
X204570644Y-98810172D01*
X204538144Y-98839422D01*
X204538128Y-98839436D01*
X204504398Y-98867256D01*
X204504381Y-98867269D01*
X204469461Y-98893579D01*
X204469443Y-98893592D01*
X204433403Y-98918362D01*
X204433385Y-98918374D01*
X204396305Y-98941544D01*
X204396286Y-98941555D01*
X204358226Y-98963085D01*
X204358207Y-98963096D01*
X204319247Y-98982946D01*
X204319227Y-98982955D01*
X204279447Y-99001085D01*
X204279427Y-99001094D01*
X204238887Y-99017474D01*
X204238867Y-99017481D01*
X204197647Y-99032081D01*
X204197626Y-99032088D01*
X204155806Y-99044868D01*
X204155785Y-99044874D01*
X204113455Y-99055824D01*
X204113434Y-99055829D01*
X204070664Y-99064919D01*
X204070643Y-99064923D01*
X204027523Y-99072143D01*
X204027501Y-99072146D01*
X204000061Y-99075496D01*
X204000000Y-99075500D01*
X203325000Y-99075500D01*
X203324567Y-99075250D01*
X203324500Y-99075000D01*
X203324500Y-95325000D01*
X203324750Y-95324567D01*
X203325000Y-95324500D01*
X204000000Y-95324500D01*
X204000061Y-95324504D01*
G37*
G36*
X196875433Y-95324750D02*
G01*
X196875500Y-95325000D01*
X196875500Y-99075000D01*
X196875250Y-99075433D01*
X196875000Y-99075500D01*
X196200000Y-99075500D01*
X196199939Y-99075496D01*
X196172509Y-99072146D01*
X196172487Y-99072143D01*
X196129357Y-99064923D01*
X196129336Y-99064919D01*
X196086566Y-99055829D01*
X196086545Y-99055824D01*
X196044215Y-99044874D01*
X196044194Y-99044868D01*
X196002384Y-99032088D01*
X196002363Y-99032081D01*
X195961143Y-99017481D01*
X195961123Y-99017474D01*
X195920583Y-99001094D01*
X195920563Y-99001085D01*
X195880773Y-98982955D01*
X195880753Y-98982946D01*
X195841793Y-98963096D01*
X195841774Y-98963085D01*
X195803724Y-98941555D01*
X195803705Y-98941544D01*
X195766615Y-98918374D01*
X195766597Y-98918362D01*
X195730567Y-98893592D01*
X195730549Y-98893579D01*
X195695629Y-98867269D01*
X195695612Y-98867256D01*
X195661872Y-98839446D01*
X195661855Y-98839432D01*
X195629365Y-98810172D01*
X195629350Y-98810157D01*
X195598160Y-98779507D01*
X195598144Y-98779491D01*
X195568324Y-98747521D01*
X195568310Y-98747505D01*
X195539910Y-98714255D01*
X195539896Y-98714238D01*
X195512976Y-98679778D01*
X195512963Y-98679760D01*
X195487573Y-98644160D01*
X195487561Y-98644142D01*
X195463751Y-98607472D01*
X195463739Y-98607454D01*
X195441539Y-98569784D01*
X195441528Y-98569765D01*
X195421008Y-98531155D01*
X195420999Y-98531135D01*
X195402169Y-98491675D01*
X195402160Y-98491655D01*
X195385080Y-98451405D01*
X195385072Y-98451385D01*
X195369752Y-98410425D01*
X195369744Y-98410405D01*
X195356234Y-98368825D01*
X195356228Y-98368804D01*
X195344548Y-98326664D01*
X195344543Y-98326643D01*
X195334703Y-98284043D01*
X195334698Y-98284021D01*
X195326728Y-98241031D01*
X195326725Y-98241009D01*
X195324505Y-98225069D01*
X195324500Y-98225000D01*
X195324500Y-96175000D01*
X195324505Y-96174931D01*
X195326725Y-96159001D01*
X195326728Y-96158979D01*
X195334698Y-96115989D01*
X195334703Y-96115967D01*
X195344543Y-96073357D01*
X195344548Y-96073336D01*
X195356228Y-96031206D01*
X195356234Y-96031186D01*
X195369744Y-95989596D01*
X195369752Y-95989575D01*
X195385062Y-95948625D01*
X195385070Y-95948605D01*
X195402160Y-95908355D01*
X195402169Y-95908335D01*
X195420989Y-95868865D01*
X195420999Y-95868845D01*
X195441529Y-95830245D01*
X195441539Y-95830226D01*
X195463729Y-95792546D01*
X195463741Y-95792528D01*
X195487561Y-95755858D01*
X195487573Y-95755840D01*
X195512963Y-95720240D01*
X195512976Y-95720222D01*
X195539896Y-95685772D01*
X195539910Y-95685755D01*
X195568300Y-95652505D01*
X195568314Y-95652489D01*
X195598134Y-95620509D01*
X195598150Y-95620493D01*
X195629340Y-95589843D01*
X195629356Y-95589828D01*
X195661856Y-95560578D01*
X195661872Y-95560564D01*
X195695602Y-95532744D01*
X195695619Y-95532731D01*
X195730539Y-95506421D01*
X195730557Y-95506408D01*
X195766597Y-95481638D01*
X195766615Y-95481626D01*
X195803695Y-95458456D01*
X195803714Y-95458445D01*
X195841774Y-95436915D01*
X195841793Y-95436904D01*
X195880753Y-95417054D01*
X195880773Y-95417045D01*
X195920553Y-95398915D01*
X195920573Y-95398906D01*
X195961113Y-95382526D01*
X195961133Y-95382519D01*
X196002353Y-95367919D01*
X196002374Y-95367912D01*
X196044194Y-95355132D01*
X196044215Y-95355126D01*
X196086545Y-95344176D01*
X196086566Y-95344171D01*
X196129336Y-95335081D01*
X196129357Y-95335077D01*
X196172477Y-95327857D01*
X196172499Y-95327854D01*
X196199939Y-95324504D01*
X196200000Y-95324500D01*
X196875000Y-95324500D01*
X196875433Y-95324750D01*
G37*
D10*
X197475000Y-96445000D03*
X197975000Y-96445000D03*
X198475000Y-96445000D03*
X198975000Y-96445000D03*
X199475000Y-96445000D03*
X199975000Y-96445000D03*
X200475000Y-96445000D03*
X200975000Y-96445000D03*
X201475000Y-96445000D03*
X201975000Y-96445000D03*
X202475000Y-96445000D03*
X202975000Y-96445000D03*
X202725000Y-97955000D03*
X202225000Y-97955000D03*
X201725000Y-97955000D03*
X201225000Y-97955000D03*
X200725000Y-97955000D03*
X200225000Y-97955000D03*
X199725000Y-97955000D03*
X199225000Y-97955000D03*
X198725000Y-97955000D03*
X198225000Y-97955000D03*
X197725000Y-97955000D03*
X197225000Y-97955000D03*
G36*
X196668378Y-98392049D02*
G01*
X196694387Y-98463508D01*
X196704445Y-98538885D01*
X196698081Y-98614663D01*
X196675594Y-98687308D01*
X196638032Y-98753429D01*
X196587148Y-98809941D01*
X196525315Y-98854209D01*
X196455419Y-98884166D01*
X196380721Y-98898415D01*
X196304706Y-98896292D01*
X196230920Y-98877896D01*
X196162805Y-98844082D01*
X196118427Y-98808402D01*
X195601215Y-98291189D01*
X195541622Y-98207950D01*
X195515613Y-98136491D01*
X195505555Y-98061114D01*
X195511919Y-97985337D01*
X195534406Y-97912692D01*
X195571968Y-97846571D01*
X195622852Y-97790059D01*
X195684685Y-97745791D01*
X195754581Y-97715834D01*
X195829279Y-97701585D01*
X195905293Y-97703708D01*
X195979079Y-97722104D01*
X196047194Y-97755918D01*
X196091572Y-97791598D01*
X196608785Y-98308810D01*
X196668378Y-98392049D01*
G37*
G36*
X204658378Y-96192049D02*
G01*
X204684387Y-96263508D01*
X204694445Y-96338885D01*
X204688081Y-96414663D01*
X204665594Y-96487308D01*
X204628032Y-96553429D01*
X204577148Y-96609941D01*
X204515315Y-96654209D01*
X204445419Y-96684166D01*
X204370721Y-96698415D01*
X204294706Y-96696292D01*
X204220920Y-96677896D01*
X204152805Y-96644082D01*
X204108427Y-96608402D01*
X203591215Y-96091189D01*
X203531622Y-96007950D01*
X203505613Y-95936491D01*
X203495555Y-95861114D01*
X203501919Y-95785337D01*
X203524406Y-95712692D01*
X203561968Y-95646571D01*
X203612852Y-95590059D01*
X203674685Y-95545791D01*
X203744581Y-95515834D01*
X203819279Y-95501585D01*
X203895293Y-95503708D01*
X203969079Y-95522104D01*
X204037194Y-95555918D01*
X204081572Y-95591598D01*
X204598785Y-96108810D01*
X204658378Y-96192049D01*
G37*
G36*
X196197049Y-95536622D02*
G01*
X196268508Y-95510613D01*
X196343885Y-95500555D01*
X196419663Y-95506919D01*
X196492308Y-95529406D01*
X196558429Y-95566968D01*
X196614941Y-95617852D01*
X196659209Y-95679685D01*
X196689166Y-95749581D01*
X196703415Y-95824279D01*
X196701292Y-95900294D01*
X196682896Y-95974080D01*
X196649082Y-96042195D01*
X196613402Y-96086573D01*
X196096189Y-96603785D01*
X196012950Y-96663378D01*
X195941491Y-96689387D01*
X195866114Y-96699445D01*
X195790337Y-96693081D01*
X195717692Y-96670594D01*
X195651571Y-96633032D01*
X195595059Y-96582148D01*
X195550791Y-96520315D01*
X195520834Y-96450419D01*
X195506585Y-96375721D01*
X195508708Y-96299707D01*
X195527104Y-96225921D01*
X195560918Y-96157806D01*
X195596598Y-96113428D01*
X196113810Y-95596215D01*
X196197049Y-95536622D01*
G37*
G36*
X204187049Y-97736622D02*
G01*
X204258508Y-97710613D01*
X204333885Y-97700555D01*
X204409663Y-97706919D01*
X204482308Y-97729406D01*
X204548429Y-97766968D01*
X204604941Y-97817852D01*
X204649209Y-97879685D01*
X204679166Y-97949581D01*
X204693415Y-98024279D01*
X204691292Y-98100294D01*
X204672896Y-98174080D01*
X204639082Y-98242195D01*
X204603402Y-98286573D01*
X204086189Y-98803785D01*
X204002950Y-98863378D01*
X203931491Y-98889387D01*
X203856114Y-98899445D01*
X203780337Y-98893081D01*
X203707692Y-98870594D01*
X203641571Y-98833032D01*
X203585059Y-98782148D01*
X203540791Y-98720315D01*
X203510834Y-98650419D01*
X203496585Y-98575721D01*
X203498708Y-98499707D01*
X203517104Y-98425921D01*
X203550918Y-98357806D01*
X203586598Y-98313428D01*
X204103810Y-97796215D01*
X204187049Y-97736622D01*
G37*
D11*
X209140000Y-102580000D03*
X206600000Y-102580000D03*
X209140000Y-100040000D03*
X206600000Y-100040000D03*
X209140000Y-97500000D03*
D12*
X206600000Y-97500000D03*
G36*
X205738946Y-103991228D02*
G01*
X205786798Y-104023202D01*
X205818772Y-104071054D01*
X205830000Y-104127500D01*
X205830000Y-104472500D01*
X205818772Y-104528946D01*
X205786798Y-104576798D01*
X205738946Y-104608772D01*
X205682500Y-104620000D01*
X205387500Y-104620000D01*
X205331054Y-104608772D01*
X205283202Y-104576798D01*
X205251228Y-104528946D01*
X205240000Y-104472500D01*
X205240000Y-104127500D01*
X205251228Y-104071054D01*
X205283202Y-104023202D01*
X205331054Y-103991228D01*
X205387500Y-103980000D01*
X205682500Y-103980000D01*
X205738946Y-103991228D01*
G37*
G36*
X206708946Y-103991228D02*
G01*
X206756798Y-104023202D01*
X206788772Y-104071054D01*
X206800000Y-104127500D01*
X206800000Y-104472500D01*
X206788772Y-104528946D01*
X206756798Y-104576798D01*
X206708946Y-104608772D01*
X206652500Y-104620000D01*
X206357500Y-104620000D01*
X206301054Y-104608772D01*
X206253202Y-104576798D01*
X206221228Y-104528946D01*
X206210000Y-104472500D01*
X206210000Y-104127500D01*
X206221228Y-104071054D01*
X206253202Y-104023202D01*
X206301054Y-103991228D01*
X206357500Y-103980000D01*
X206652500Y-103980000D01*
X206708946Y-103991228D01*
G37*
G36*
X199148946Y-105046228D02*
G01*
X199196798Y-105078202D01*
X199228772Y-105126054D01*
X199240000Y-105182500D01*
X199240000Y-105477500D01*
X199228772Y-105533946D01*
X199196798Y-105581798D01*
X199148946Y-105613772D01*
X199092500Y-105625000D01*
X198747500Y-105625000D01*
X198691054Y-105613772D01*
X198643202Y-105581798D01*
X198611228Y-105533946D01*
X198600000Y-105477500D01*
X198600000Y-105182500D01*
X198611228Y-105126054D01*
X198643202Y-105078202D01*
X198691054Y-105046228D01*
X198747500Y-105035000D01*
X199092500Y-105035000D01*
X199148946Y-105046228D01*
G37*
G36*
X199148946Y-106016228D02*
G01*
X199196798Y-106048202D01*
X199228772Y-106096054D01*
X199240000Y-106152500D01*
X199240000Y-106447500D01*
X199228772Y-106503946D01*
X199196798Y-106551798D01*
X199148946Y-106583772D01*
X199092500Y-106595000D01*
X198747500Y-106595000D01*
X198691054Y-106583772D01*
X198643202Y-106551798D01*
X198611228Y-106503946D01*
X198600000Y-106447500D01*
X198600000Y-106152500D01*
X198611228Y-106096054D01*
X198643202Y-106048202D01*
X198691054Y-106016228D01*
X198747500Y-106005000D01*
X199092500Y-106005000D01*
X199148946Y-106016228D01*
G37*
G36*
X195268946Y-91451228D02*
G01*
X195316798Y-91483202D01*
X195348772Y-91531054D01*
X195360000Y-91587500D01*
X195360000Y-91932500D01*
X195348772Y-91988946D01*
X195316798Y-92036798D01*
X195268946Y-92068772D01*
X195212500Y-92080000D01*
X194917500Y-92080000D01*
X194861054Y-92068772D01*
X194813202Y-92036798D01*
X194781228Y-91988946D01*
X194770000Y-91932500D01*
X194770000Y-91587500D01*
X194781228Y-91531054D01*
X194813202Y-91483202D01*
X194861054Y-91451228D01*
X194917500Y-91440000D01*
X195212500Y-91440000D01*
X195268946Y-91451228D01*
G37*
G36*
X196238946Y-91451228D02*
G01*
X196286798Y-91483202D01*
X196318772Y-91531054D01*
X196330000Y-91587500D01*
X196330000Y-91932500D01*
X196318772Y-91988946D01*
X196286798Y-92036798D01*
X196238946Y-92068772D01*
X196182500Y-92080000D01*
X195887500Y-92080000D01*
X195831054Y-92068772D01*
X195783202Y-92036798D01*
X195751228Y-91988946D01*
X195740000Y-91932500D01*
X195740000Y-91587500D01*
X195751228Y-91531054D01*
X195783202Y-91483202D01*
X195831054Y-91451228D01*
X195887500Y-91440000D01*
X196182500Y-91440000D01*
X196238946Y-91451228D01*
G37*
G36*
X198173946Y-100431228D02*
G01*
X198221798Y-100463202D01*
X198253772Y-100511054D01*
X198265000Y-100567500D01*
X198265000Y-100912500D01*
X198253772Y-100968946D01*
X198221798Y-101016798D01*
X198173946Y-101048772D01*
X198117500Y-101060000D01*
X197822500Y-101060000D01*
X197766054Y-101048772D01*
X197718202Y-101016798D01*
X197686228Y-100968946D01*
X197675000Y-100912500D01*
X197675000Y-100567500D01*
X197686228Y-100511054D01*
X197718202Y-100463202D01*
X197766054Y-100431228D01*
X197822500Y-100420000D01*
X198117500Y-100420000D01*
X198173946Y-100431228D01*
G37*
G36*
X199143946Y-100431228D02*
G01*
X199191798Y-100463202D01*
X199223772Y-100511054D01*
X199235000Y-100567500D01*
X199235000Y-100912500D01*
X199223772Y-100968946D01*
X199191798Y-101016798D01*
X199143946Y-101048772D01*
X199087500Y-101060000D01*
X198792500Y-101060000D01*
X198736054Y-101048772D01*
X198688202Y-101016798D01*
X198656228Y-100968946D01*
X198645000Y-100912500D01*
X198645000Y-100567500D01*
X198656228Y-100511054D01*
X198688202Y-100463202D01*
X198736054Y-100431228D01*
X198792500Y-100420000D01*
X199087500Y-100420000D01*
X199143946Y-100431228D01*
G37*
G36*
X197838946Y-107387228D02*
G01*
X197886798Y-107419202D01*
X197918772Y-107467054D01*
X197930000Y-107523500D01*
X197930000Y-107868500D01*
X197918772Y-107924946D01*
X197886798Y-107972798D01*
X197838946Y-108004772D01*
X197782500Y-108016000D01*
X197487500Y-108016000D01*
X197431054Y-108004772D01*
X197383202Y-107972798D01*
X197351228Y-107924946D01*
X197340000Y-107868500D01*
X197340000Y-107523500D01*
X197351228Y-107467054D01*
X197383202Y-107419202D01*
X197431054Y-107387228D01*
X197487500Y-107376000D01*
X197782500Y-107376000D01*
X197838946Y-107387228D01*
G37*
G36*
X198808946Y-107387228D02*
G01*
X198856798Y-107419202D01*
X198888772Y-107467054D01*
X198900000Y-107523500D01*
X198900000Y-107868500D01*
X198888772Y-107924946D01*
X198856798Y-107972798D01*
X198808946Y-108004772D01*
X198752500Y-108016000D01*
X198457500Y-108016000D01*
X198401054Y-108004772D01*
X198353202Y-107972798D01*
X198321228Y-107924946D01*
X198310000Y-107868500D01*
X198310000Y-107523500D01*
X198321228Y-107467054D01*
X198353202Y-107419202D01*
X198401054Y-107387228D01*
X198457500Y-107376000D01*
X198752500Y-107376000D01*
X198808946Y-107387228D01*
G37*
G36*
X209748946Y-104031228D02*
G01*
X209796798Y-104063202D01*
X209828772Y-104111054D01*
X209840000Y-104167500D01*
X209840000Y-104512500D01*
X209828772Y-104568946D01*
X209796798Y-104616798D01*
X209748946Y-104648772D01*
X209692500Y-104660000D01*
X209397500Y-104660000D01*
X209341054Y-104648772D01*
X209293202Y-104616798D01*
X209261228Y-104568946D01*
X209250000Y-104512500D01*
X209250000Y-104167500D01*
X209261228Y-104111054D01*
X209293202Y-104063202D01*
X209341054Y-104031228D01*
X209397500Y-104020000D01*
X209692500Y-104020000D01*
X209748946Y-104031228D01*
G37*
G36*
X208778946Y-104031228D02*
G01*
X208826798Y-104063202D01*
X208858772Y-104111054D01*
X208870000Y-104167500D01*
X208870000Y-104512500D01*
X208858772Y-104568946D01*
X208826798Y-104616798D01*
X208778946Y-104648772D01*
X208722500Y-104660000D01*
X208427500Y-104660000D01*
X208371054Y-104648772D01*
X208323202Y-104616798D01*
X208291228Y-104568946D01*
X208280000Y-104512500D01*
X208280000Y-104167500D01*
X208291228Y-104111054D01*
X208323202Y-104063202D01*
X208371054Y-104031228D01*
X208427500Y-104020000D01*
X208722500Y-104020000D01*
X208778946Y-104031228D01*
G37*
G36*
X208658946Y-105931228D02*
G01*
X208706798Y-105963202D01*
X208738772Y-106011054D01*
X208750000Y-106067500D01*
X208750000Y-106362500D01*
X208738772Y-106418946D01*
X208706798Y-106466798D01*
X208658946Y-106498772D01*
X208602500Y-106510000D01*
X208257500Y-106510000D01*
X208201054Y-106498772D01*
X208153202Y-106466798D01*
X208121228Y-106418946D01*
X208110000Y-106362500D01*
X208110000Y-106067500D01*
X208121228Y-106011054D01*
X208153202Y-105963202D01*
X208201054Y-105931228D01*
X208257500Y-105920000D01*
X208602500Y-105920000D01*
X208658946Y-105931228D01*
G37*
G36*
X208658946Y-104961228D02*
G01*
X208706798Y-104993202D01*
X208738772Y-105041054D01*
X208750000Y-105097500D01*
X208750000Y-105392500D01*
X208738772Y-105448946D01*
X208706798Y-105496798D01*
X208658946Y-105528772D01*
X208602500Y-105540000D01*
X208257500Y-105540000D01*
X208201054Y-105528772D01*
X208153202Y-105496798D01*
X208121228Y-105448946D01*
X208110000Y-105392500D01*
X208110000Y-105097500D01*
X208121228Y-105041054D01*
X208153202Y-104993202D01*
X208201054Y-104961228D01*
X208257500Y-104950000D01*
X208602500Y-104950000D01*
X208658946Y-104961228D01*
G37*
G36*
X207598946Y-105041228D02*
G01*
X207646798Y-105073202D01*
X207678772Y-105121054D01*
X207690000Y-105177500D01*
X207690000Y-105472500D01*
X207678772Y-105528946D01*
X207646798Y-105576798D01*
X207598946Y-105608772D01*
X207542500Y-105620000D01*
X207197500Y-105620000D01*
X207141054Y-105608772D01*
X207093202Y-105576798D01*
X207061228Y-105528946D01*
X207050000Y-105472500D01*
X207050000Y-105177500D01*
X207061228Y-105121054D01*
X207093202Y-105073202D01*
X207141054Y-105041228D01*
X207197500Y-105030000D01*
X207542500Y-105030000D01*
X207598946Y-105041228D01*
G37*
G36*
X207598946Y-104071228D02*
G01*
X207646798Y-104103202D01*
X207678772Y-104151054D01*
X207690000Y-104207500D01*
X207690000Y-104502500D01*
X207678772Y-104558946D01*
X207646798Y-104606798D01*
X207598946Y-104638772D01*
X207542500Y-104650000D01*
X207197500Y-104650000D01*
X207141054Y-104638772D01*
X207093202Y-104606798D01*
X207061228Y-104558946D01*
X207050000Y-104502500D01*
X207050000Y-104207500D01*
X207061228Y-104151054D01*
X207093202Y-104103202D01*
X207141054Y-104071228D01*
X207197500Y-104060000D01*
X207542500Y-104060000D01*
X207598946Y-104071228D01*
G37*
G36*
X203863946Y-100681228D02*
G01*
X203911798Y-100713202D01*
X203943772Y-100761054D01*
X203955000Y-100817500D01*
X203955000Y-101162500D01*
X203943772Y-101218946D01*
X203911798Y-101266798D01*
X203863946Y-101298772D01*
X203807500Y-101310000D01*
X203512500Y-101310000D01*
X203456054Y-101298772D01*
X203408202Y-101266798D01*
X203376228Y-101218946D01*
X203365000Y-101162500D01*
X203365000Y-100817500D01*
X203376228Y-100761054D01*
X203408202Y-100713202D01*
X203456054Y-100681228D01*
X203512500Y-100670000D01*
X203807500Y-100670000D01*
X203863946Y-100681228D01*
G37*
G36*
X204833946Y-100681228D02*
G01*
X204881798Y-100713202D01*
X204913772Y-100761054D01*
X204925000Y-100817500D01*
X204925000Y-101162500D01*
X204913772Y-101218946D01*
X204881798Y-101266798D01*
X204833946Y-101298772D01*
X204777500Y-101310000D01*
X204482500Y-101310000D01*
X204426054Y-101298772D01*
X204378202Y-101266798D01*
X204346228Y-101218946D01*
X204335000Y-101162500D01*
X204335000Y-100817500D01*
X204346228Y-100761054D01*
X204378202Y-100713202D01*
X204426054Y-100681228D01*
X204482500Y-100670000D01*
X204777500Y-100670000D01*
X204833946Y-100681228D01*
G37*
G36*
X200348946Y-106801228D02*
G01*
X200396798Y-106833202D01*
X200428772Y-106881054D01*
X200440000Y-106937500D01*
X200440000Y-107282500D01*
X200428772Y-107338946D01*
X200396798Y-107386798D01*
X200348946Y-107418772D01*
X200292500Y-107430000D01*
X199997500Y-107430000D01*
X199941054Y-107418772D01*
X199893202Y-107386798D01*
X199861228Y-107338946D01*
X199850000Y-107282500D01*
X199850000Y-106937500D01*
X199861228Y-106881054D01*
X199893202Y-106833202D01*
X199941054Y-106801228D01*
X199997500Y-106790000D01*
X200292500Y-106790000D01*
X200348946Y-106801228D01*
G37*
G36*
X201318946Y-106801228D02*
G01*
X201366798Y-106833202D01*
X201398772Y-106881054D01*
X201410000Y-106937500D01*
X201410000Y-107282500D01*
X201398772Y-107338946D01*
X201366798Y-107386798D01*
X201318946Y-107418772D01*
X201262500Y-107430000D01*
X200967500Y-107430000D01*
X200911054Y-107418772D01*
X200863202Y-107386798D01*
X200831228Y-107338946D01*
X200820000Y-107282500D01*
X200820000Y-106937500D01*
X200831228Y-106881054D01*
X200863202Y-106833202D01*
X200911054Y-106801228D01*
X200967500Y-106790000D01*
X201262500Y-106790000D01*
X201318946Y-106801228D01*
G37*
G36*
X196824946Y-107435228D02*
G01*
X196872798Y-107467202D01*
X196904772Y-107515054D01*
X196916000Y-107571500D01*
X196916000Y-107866500D01*
X196904772Y-107922946D01*
X196872798Y-107970798D01*
X196824946Y-108002772D01*
X196768500Y-108014000D01*
X196423500Y-108014000D01*
X196367054Y-108002772D01*
X196319202Y-107970798D01*
X196287228Y-107922946D01*
X196276000Y-107866500D01*
X196276000Y-107571500D01*
X196287228Y-107515054D01*
X196319202Y-107467202D01*
X196367054Y-107435228D01*
X196423500Y-107424000D01*
X196768500Y-107424000D01*
X196824946Y-107435228D01*
G37*
G36*
X196824946Y-108405228D02*
G01*
X196872798Y-108437202D01*
X196904772Y-108485054D01*
X196916000Y-108541500D01*
X196916000Y-108836500D01*
X196904772Y-108892946D01*
X196872798Y-108940798D01*
X196824946Y-108972772D01*
X196768500Y-108984000D01*
X196423500Y-108984000D01*
X196367054Y-108972772D01*
X196319202Y-108940798D01*
X196287228Y-108892946D01*
X196276000Y-108836500D01*
X196276000Y-108541500D01*
X196287228Y-108485054D01*
X196319202Y-108437202D01*
X196367054Y-108405228D01*
X196423500Y-108394000D01*
X196768500Y-108394000D01*
X196824946Y-108405228D01*
G37*
D13*
X190410000Y-97865000D03*
X190410000Y-99135000D03*
X190410000Y-100405000D03*
D14*
X190410000Y-96595000D03*
D13*
X190410000Y-101675000D03*
D14*
X190410000Y-102945000D03*
G36*
X193861972Y-100917636D02*
G01*
X194158957Y-100620651D01*
X194858992Y-101320686D01*
X194562007Y-101617671D01*
X193861972Y-100917636D01*
G37*
G36*
X197362151Y-103795560D02*
G01*
X198062186Y-103095525D01*
X198359171Y-103392510D01*
X197659136Y-104092545D01*
X197362151Y-103795560D01*
G37*
G36*
X194887277Y-106892689D02*
G01*
X195184262Y-106595704D01*
X195884297Y-107295739D01*
X195587312Y-107592724D01*
X194887277Y-106892689D01*
G37*
G36*
X192610392Y-104106687D02*
G01*
X194873134Y-101843945D01*
X197135876Y-104106687D01*
X194873134Y-106369429D01*
X192610392Y-104106687D01*
G37*
D15*
X194873134Y-102692474D03*
X195580241Y-103399581D03*
X196287348Y-104106687D03*
X194166028Y-103399581D03*
X194873134Y-104106687D03*
X195580241Y-104813794D03*
X193458921Y-104106687D03*
X194166028Y-104813794D03*
X194873134Y-105520901D03*
G36*
X191387098Y-104820865D02*
G01*
X192087133Y-104120830D01*
X192384118Y-104417815D01*
X191684083Y-105117850D01*
X191387098Y-104820865D01*
G37*
G36*
X191740652Y-105174418D02*
G01*
X192440687Y-104474383D01*
X192737672Y-104771368D01*
X192037637Y-105471403D01*
X191740652Y-105174418D01*
G37*
G36*
X192094205Y-105527972D02*
G01*
X192794240Y-104827937D01*
X193091225Y-105124922D01*
X192391190Y-105824957D01*
X192094205Y-105527972D01*
G37*
G36*
X192447758Y-105881525D02*
G01*
X193147793Y-105181490D01*
X193444778Y-105478475D01*
X192744743Y-106178510D01*
X192447758Y-105881525D01*
G37*
G36*
X192801312Y-106235078D02*
G01*
X193501347Y-105535043D01*
X193798332Y-105832028D01*
X193098297Y-106532063D01*
X192801312Y-106235078D01*
G37*
G36*
X193154865Y-106588632D02*
G01*
X193854900Y-105888597D01*
X194151885Y-106185582D01*
X193451850Y-106885617D01*
X193154865Y-106588632D01*
G37*
G36*
X193508419Y-106942185D02*
G01*
X194208454Y-106242150D01*
X194505439Y-106539135D01*
X193805404Y-107239170D01*
X193508419Y-106942185D01*
G37*
G36*
X193861972Y-107295739D02*
G01*
X194562007Y-106595704D01*
X194858992Y-106892689D01*
X194158957Y-107592724D01*
X193861972Y-107295739D01*
G37*
G36*
X195240830Y-106539135D02*
G01*
X195537815Y-106242150D01*
X196237850Y-106942185D01*
X195940865Y-107239170D01*
X195240830Y-106539135D01*
G37*
G36*
X195594384Y-106185582D02*
G01*
X195891369Y-105888597D01*
X196591404Y-106588632D01*
X196294419Y-106885617D01*
X195594384Y-106185582D01*
G37*
G36*
X195947937Y-105832028D02*
G01*
X196244922Y-105535043D01*
X196944957Y-106235078D01*
X196647972Y-106532063D01*
X195947937Y-105832028D01*
G37*
G36*
X196301490Y-105478475D02*
G01*
X196598475Y-105181490D01*
X197298510Y-105881525D01*
X197001525Y-106178510D01*
X196301490Y-105478475D01*
G37*
G36*
X196655044Y-105124922D02*
G01*
X196952029Y-104827937D01*
X197652064Y-105527972D01*
X197355079Y-105824957D01*
X196655044Y-105124922D01*
G37*
G36*
X197008597Y-104771368D02*
G01*
X197305582Y-104474383D01*
X198005617Y-105174418D01*
X197708632Y-105471403D01*
X197008597Y-104771368D01*
G37*
G36*
X197362151Y-104417815D02*
G01*
X197659136Y-104120830D01*
X198359171Y-104820865D01*
X198062186Y-105117850D01*
X197362151Y-104417815D01*
G37*
G36*
X197008597Y-103442007D02*
G01*
X197708632Y-102741972D01*
X198005617Y-103038957D01*
X197305582Y-103738992D01*
X197008597Y-103442007D01*
G37*
G36*
X196655044Y-103088453D02*
G01*
X197355079Y-102388418D01*
X197652064Y-102685403D01*
X196952029Y-103385438D01*
X196655044Y-103088453D01*
G37*
G36*
X196301490Y-102734900D02*
G01*
X197001525Y-102034865D01*
X197298510Y-102331850D01*
X196598475Y-103031885D01*
X196301490Y-102734900D01*
G37*
G36*
X195947937Y-102381346D02*
G01*
X196647972Y-101681311D01*
X196944957Y-101978296D01*
X196244922Y-102678331D01*
X195947937Y-102381346D01*
G37*
G36*
X195594384Y-102027793D02*
G01*
X196294419Y-101327758D01*
X196591404Y-101624743D01*
X195891369Y-102324778D01*
X195594384Y-102027793D01*
G37*
G36*
X195240830Y-101674240D02*
G01*
X195940865Y-100974205D01*
X196237850Y-101271190D01*
X195537815Y-101971225D01*
X195240830Y-101674240D01*
G37*
G36*
X194887277Y-101320686D02*
G01*
X195587312Y-100620651D01*
X195884297Y-100917636D01*
X195184262Y-101617671D01*
X194887277Y-101320686D01*
G37*
G36*
X193508419Y-101271190D02*
G01*
X193805404Y-100974205D01*
X194505439Y-101674240D01*
X194208454Y-101971225D01*
X193508419Y-101271190D01*
G37*
G36*
X193154865Y-101624743D02*
G01*
X193451850Y-101327758D01*
X194151885Y-102027793D01*
X193854900Y-102324778D01*
X193154865Y-101624743D01*
G37*
G36*
X192801312Y-101978296D02*
G01*
X193098297Y-101681311D01*
X193798332Y-102381346D01*
X193501347Y-102678331D01*
X192801312Y-101978296D01*
G37*
G36*
X192447758Y-102331850D02*
G01*
X192744743Y-102034865D01*
X193444778Y-102734900D01*
X193147793Y-103031885D01*
X192447758Y-102331850D01*
G37*
G36*
X192094205Y-102685403D02*
G01*
X192391190Y-102388418D01*
X193091225Y-103088453D01*
X192794240Y-103385438D01*
X192094205Y-102685403D01*
G37*
G36*
X191740652Y-103038957D02*
G01*
X192037637Y-102741972D01*
X192737672Y-103442007D01*
X192440687Y-103738992D01*
X191740652Y-103038957D01*
G37*
G36*
X191387098Y-103392510D02*
G01*
X191684083Y-103095525D01*
X192384118Y-103795560D01*
X192087133Y-104092545D01*
X191387098Y-103392510D01*
G37*
D16*
X205315000Y-106740000D03*
X205315000Y-106240000D03*
X205315000Y-105740000D03*
X205315000Y-105240000D03*
D17*
X204615000Y-104540000D03*
X204115000Y-104540000D03*
X203615000Y-104540000D03*
X203115000Y-104540000D03*
D16*
X202415000Y-105240000D03*
X202415000Y-105740000D03*
X202415000Y-106240000D03*
X202415000Y-106740000D03*
D17*
X203115000Y-107440000D03*
X203615000Y-107440000D03*
X204115000Y-107440000D03*
X204615000Y-107440000D03*
D18*
X203865000Y-105990000D03*
G36*
X193358946Y-95231228D02*
G01*
X193406798Y-95263202D01*
X193438772Y-95311054D01*
X193450000Y-95367500D01*
X193450000Y-95712500D01*
X193438772Y-95768946D01*
X193406798Y-95816798D01*
X193358946Y-95848772D01*
X193302500Y-95860000D01*
X193007500Y-95860000D01*
X192951054Y-95848772D01*
X192903202Y-95816798D01*
X192871228Y-95768946D01*
X192860000Y-95712500D01*
X192860000Y-95367500D01*
X192871228Y-95311054D01*
X192903202Y-95263202D01*
X192951054Y-95231228D01*
X193007500Y-95220000D01*
X193302500Y-95220000D01*
X193358946Y-95231228D01*
G37*
G36*
X192388946Y-95231228D02*
G01*
X192436798Y-95263202D01*
X192468772Y-95311054D01*
X192480000Y-95367500D01*
X192480000Y-95712500D01*
X192468772Y-95768946D01*
X192436798Y-95816798D01*
X192388946Y-95848772D01*
X192332500Y-95860000D01*
X192037500Y-95860000D01*
X191981054Y-95848772D01*
X191933202Y-95816798D01*
X191901228Y-95768946D01*
X191890000Y-95712500D01*
X191890000Y-95367500D01*
X191901228Y-95311054D01*
X191933202Y-95263202D01*
X191981054Y-95231228D01*
X192037500Y-95220000D01*
X192332500Y-95220000D01*
X192388946Y-95231228D01*
G37*
G36*
X195938946Y-94281228D02*
G01*
X195986798Y-94313202D01*
X196018772Y-94361054D01*
X196030000Y-94417500D01*
X196030000Y-94712500D01*
X196018772Y-94768946D01*
X195986798Y-94816798D01*
X195938946Y-94848772D01*
X195882500Y-94860000D01*
X195537500Y-94860000D01*
X195481054Y-94848772D01*
X195433202Y-94816798D01*
X195401228Y-94768946D01*
X195390000Y-94712500D01*
X195390000Y-94417500D01*
X195401228Y-94361054D01*
X195433202Y-94313202D01*
X195481054Y-94281228D01*
X195537500Y-94270000D01*
X195882500Y-94270000D01*
X195938946Y-94281228D01*
G37*
G36*
X195938946Y-93311228D02*
G01*
X195986798Y-93343202D01*
X196018772Y-93391054D01*
X196030000Y-93447500D01*
X196030000Y-93742500D01*
X196018772Y-93798946D01*
X195986798Y-93846798D01*
X195938946Y-93878772D01*
X195882500Y-93890000D01*
X195537500Y-93890000D01*
X195481054Y-93878772D01*
X195433202Y-93846798D01*
X195401228Y-93798946D01*
X195390000Y-93742500D01*
X195390000Y-93447500D01*
X195401228Y-93391054D01*
X195433202Y-93343202D01*
X195481054Y-93311228D01*
X195537500Y-93300000D01*
X195882500Y-93300000D01*
X195938946Y-93311228D01*
G37*
G36*
X192698946Y-99491228D02*
G01*
X192746798Y-99523202D01*
X192778772Y-99571054D01*
X192790000Y-99627500D01*
X192790000Y-99922500D01*
X192778772Y-99978946D01*
X192746798Y-100026798D01*
X192698946Y-100058772D01*
X192642500Y-100070000D01*
X192297500Y-100070000D01*
X192241054Y-100058772D01*
X192193202Y-100026798D01*
X192161228Y-99978946D01*
X192150000Y-99922500D01*
X192150000Y-99627500D01*
X192161228Y-99571054D01*
X192193202Y-99523202D01*
X192241054Y-99491228D01*
X192297500Y-99480000D01*
X192642500Y-99480000D01*
X192698946Y-99491228D01*
G37*
G36*
X192698946Y-100461228D02*
G01*
X192746798Y-100493202D01*
X192778772Y-100541054D01*
X192790000Y-100597500D01*
X192790000Y-100892500D01*
X192778772Y-100948946D01*
X192746798Y-100996798D01*
X192698946Y-101028772D01*
X192642500Y-101040000D01*
X192297500Y-101040000D01*
X192241054Y-101028772D01*
X192193202Y-100996798D01*
X192161228Y-100948946D01*
X192150000Y-100892500D01*
X192150000Y-100597500D01*
X192161228Y-100541054D01*
X192193202Y-100493202D01*
X192241054Y-100461228D01*
X192297500Y-100450000D01*
X192642500Y-100450000D01*
X192698946Y-100461228D01*
G37*
G36*
X203868946Y-99561228D02*
G01*
X203916798Y-99593202D01*
X203948772Y-99641054D01*
X203960000Y-99697500D01*
X203960000Y-100042500D01*
X203948772Y-100098946D01*
X203916798Y-100146798D01*
X203868946Y-100178772D01*
X203812500Y-100190000D01*
X203517500Y-100190000D01*
X203461054Y-100178772D01*
X203413202Y-100146798D01*
X203381228Y-100098946D01*
X203370000Y-100042500D01*
X203370000Y-99697500D01*
X203381228Y-99641054D01*
X203413202Y-99593202D01*
X203461054Y-99561228D01*
X203517500Y-99550000D01*
X203812500Y-99550000D01*
X203868946Y-99561228D01*
G37*
G36*
X204838946Y-99561228D02*
G01*
X204886798Y-99593202D01*
X204918772Y-99641054D01*
X204930000Y-99697500D01*
X204930000Y-100042500D01*
X204918772Y-100098946D01*
X204886798Y-100146798D01*
X204838946Y-100178772D01*
X204782500Y-100190000D01*
X204487500Y-100190000D01*
X204431054Y-100178772D01*
X204383202Y-100146798D01*
X204351228Y-100098946D01*
X204340000Y-100042500D01*
X204340000Y-99697500D01*
X204351228Y-99641054D01*
X204383202Y-99593202D01*
X204431054Y-99561228D01*
X204487500Y-99550000D01*
X204782500Y-99550000D01*
X204838946Y-99561228D01*
G37*
G36*
X207288946Y-107086228D02*
G01*
X207336798Y-107118202D01*
X207368772Y-107166054D01*
X207380000Y-107222500D01*
X207380000Y-107517500D01*
X207368772Y-107573946D01*
X207336798Y-107621798D01*
X207288946Y-107653772D01*
X207232500Y-107665000D01*
X206887500Y-107665000D01*
X206831054Y-107653772D01*
X206783202Y-107621798D01*
X206751228Y-107573946D01*
X206740000Y-107517500D01*
X206740000Y-107222500D01*
X206751228Y-107166054D01*
X206783202Y-107118202D01*
X206831054Y-107086228D01*
X206887500Y-107075000D01*
X207232500Y-107075000D01*
X207288946Y-107086228D01*
G37*
G36*
X207288946Y-106116228D02*
G01*
X207336798Y-106148202D01*
X207368772Y-106196054D01*
X207380000Y-106252500D01*
X207380000Y-106547500D01*
X207368772Y-106603946D01*
X207336798Y-106651798D01*
X207288946Y-106683772D01*
X207232500Y-106695000D01*
X206887500Y-106695000D01*
X206831054Y-106683772D01*
X206783202Y-106651798D01*
X206751228Y-106603946D01*
X206740000Y-106547500D01*
X206740000Y-106252500D01*
X206751228Y-106196054D01*
X206783202Y-106148202D01*
X206831054Y-106116228D01*
X206887500Y-106105000D01*
X207232500Y-106105000D01*
X207288946Y-106116228D01*
G37*
G36*
X202238946Y-99831228D02*
G01*
X202286798Y-99863202D01*
X202318772Y-99911054D01*
X202330000Y-99967500D01*
X202330000Y-100312500D01*
X202318772Y-100368946D01*
X202286798Y-100416798D01*
X202238946Y-100448772D01*
X202182500Y-100460000D01*
X201887500Y-100460000D01*
X201831054Y-100448772D01*
X201783202Y-100416798D01*
X201751228Y-100368946D01*
X201740000Y-100312500D01*
X201740000Y-99967500D01*
X201751228Y-99911054D01*
X201783202Y-99863202D01*
X201831054Y-99831228D01*
X201887500Y-99820000D01*
X202182500Y-99820000D01*
X202238946Y-99831228D01*
G37*
G36*
X201268946Y-99831228D02*
G01*
X201316798Y-99863202D01*
X201348772Y-99911054D01*
X201360000Y-99967500D01*
X201360000Y-100312500D01*
X201348772Y-100368946D01*
X201316798Y-100416798D01*
X201268946Y-100448772D01*
X201212500Y-100460000D01*
X200917500Y-100460000D01*
X200861054Y-100448772D01*
X200813202Y-100416798D01*
X200781228Y-100368946D01*
X200770000Y-100312500D01*
X200770000Y-99967500D01*
X200781228Y-99911054D01*
X200813202Y-99863202D01*
X200861054Y-99831228D01*
X200917500Y-99820000D01*
X201212500Y-99820000D01*
X201268946Y-99831228D01*
G37*
G36*
X203888946Y-109419228D02*
G01*
X203936798Y-109451202D01*
X203968772Y-109499054D01*
X203980000Y-109555500D01*
X203980000Y-109900500D01*
X203968772Y-109956946D01*
X203936798Y-110004798D01*
X203888946Y-110036772D01*
X203832500Y-110048000D01*
X203537500Y-110048000D01*
X203481054Y-110036772D01*
X203433202Y-110004798D01*
X203401228Y-109956946D01*
X203390000Y-109900500D01*
X203390000Y-109555500D01*
X203401228Y-109499054D01*
X203433202Y-109451202D01*
X203481054Y-109419228D01*
X203537500Y-109408000D01*
X203832500Y-109408000D01*
X203888946Y-109419228D01*
G37*
G36*
X202918946Y-109419228D02*
G01*
X202966798Y-109451202D01*
X202998772Y-109499054D01*
X203010000Y-109555500D01*
X203010000Y-109900500D01*
X202998772Y-109956946D01*
X202966798Y-110004798D01*
X202918946Y-110036772D01*
X202862500Y-110048000D01*
X202567500Y-110048000D01*
X202511054Y-110036772D01*
X202463202Y-110004798D01*
X202431228Y-109956946D01*
X202420000Y-109900500D01*
X202420000Y-109555500D01*
X202431228Y-109499054D01*
X202463202Y-109451202D01*
X202511054Y-109419228D01*
X202567500Y-109408000D01*
X202862500Y-109408000D01*
X202918946Y-109419228D01*
G37*
D19*
X200540000Y-109241000D03*
D20*
X199616199Y-108591001D03*
X199616199Y-109241000D03*
X199616199Y-109890999D03*
X201463801Y-109890999D03*
X201463801Y-109241000D03*
X201463801Y-108591001D03*
G36*
X201655645Y-100943776D02*
G01*
X201736751Y-100997969D01*
X203257031Y-102518249D01*
X203311224Y-102599355D01*
X203330254Y-102695026D01*
X203311224Y-102790697D01*
X203257031Y-102871803D01*
X202726701Y-103402133D01*
X202645595Y-103456326D01*
X202549924Y-103475356D01*
X202454253Y-103456326D01*
X202373147Y-103402133D01*
X200852867Y-101881853D01*
X200798674Y-101800747D01*
X200779644Y-101705076D01*
X200798674Y-101609405D01*
X200852867Y-101528299D01*
X201383197Y-100997969D01*
X201464303Y-100943776D01*
X201559974Y-100924746D01*
X201655645Y-100943776D01*
G37*
G36*
X199675747Y-102923674D02*
G01*
X199756853Y-102977867D01*
X201277133Y-104498147D01*
X201331326Y-104579253D01*
X201350356Y-104674924D01*
X201331326Y-104770595D01*
X201277133Y-104851701D01*
X200746803Y-105382031D01*
X200665697Y-105436224D01*
X200570026Y-105455254D01*
X200474355Y-105436224D01*
X200393249Y-105382031D01*
X198872969Y-103861751D01*
X198818776Y-103780645D01*
X198799746Y-103684974D01*
X198818776Y-103589303D01*
X198872969Y-103508197D01*
X199403299Y-102977867D01*
X199484405Y-102923674D01*
X199580076Y-102904644D01*
X199675747Y-102923674D01*
G37*
D21*
X192450101Y-93270001D03*
X192450101Y-93920000D03*
X192450101Y-94569999D03*
X194329899Y-94569999D03*
X194329899Y-93920000D03*
X194329899Y-93270001D03*
D19*
X193390000Y-93920000D03*
M02*
