G04 #@! TF.GenerationSoftware,KiCad,Pcbnew,(5.99.0-417-g8bd2765f3)*
G04 #@! TF.CreationDate,2020-07-21T00:47:38-04:00*
G04 #@! TF.ProjectId,bias,62696173-2e6b-4696-9361-645f70636258,rev?*
G04 #@! TF.SameCoordinates,Original*
G04 #@! TF.FileFunction,Copper,L1,Top*
G04 #@! TF.FilePolarity,Positive*
%FSLAX46Y46*%
G04 Gerber Fmt 4.6, Leading zero omitted, Abs format (unit mm)*
G04 Created by KiCad (PCBNEW (5.99.0-417-g8bd2765f3)) date 2020-07-21 00:47:38*
%MOMM*%
%LPD*%
G04 APERTURE LIST*
%ADD10C,0.100000*%
%ADD11R,0.700000X0.700000*%
%ADD12C,0.704800*%
%ADD13C,0.200000*%
%ADD14R,0.850000X0.300000*%
%ADD15R,0.300000X0.850000*%
%ADD16R,1.550000X1.550000*%
%ADD17O,1.700000X1.200000*%
%ADD18R,0.270000X1.150000*%
%ADD19R,1.400000X0.300000*%
%ADD20R,1.700000X1.700000*%
%ADD21O,1.700000X1.700000*%
%ADD22R,0.800000X1.600000*%
%ADD23R,0.729800X0.248400*%
%ADD24C,0.600000*%
%ADD25C,0.200000*%
%ADD26C,0.500000*%
%ADD27C,0.250000*%
G04 APERTURE END LIST*
D10*
G36*
X201664200Y-106700400D02*
G01*
X201664200Y-106950400D01*
X200414200Y-106100400D01*
X201264200Y-105200400D01*
X201664200Y-106700400D01*
G37*
G36*
X204729080Y-104556560D02*
G01*
X204187920Y-104645600D01*
X202364200Y-104100400D01*
X203164200Y-103150400D01*
X204729080Y-104556560D01*
G37*
G04 #@! TA.AperFunction,SMDPad,CuDef*
G36*
X199098146Y-105706628D02*
G01*
X199145998Y-105738602D01*
X199177972Y-105786454D01*
X199189200Y-105842900D01*
X199189200Y-106137900D01*
X199177972Y-106194346D01*
X199145998Y-106242198D01*
X199098146Y-106274172D01*
X199041700Y-106285400D01*
X198696700Y-106285400D01*
X198640254Y-106274172D01*
X198592402Y-106242198D01*
X198560428Y-106194346D01*
X198549200Y-106137900D01*
X198549200Y-105842900D01*
X198560428Y-105786454D01*
X198592402Y-105738602D01*
X198640254Y-105706628D01*
X198696700Y-105695400D01*
X199041700Y-105695400D01*
X199098146Y-105706628D01*
G37*
G04 #@! TD.AperFunction*
G04 #@! TA.AperFunction,SMDPad,CuDef*
G36*
X199098146Y-106676628D02*
G01*
X199145998Y-106708602D01*
X199177972Y-106756454D01*
X199189200Y-106812900D01*
X199189200Y-107107900D01*
X199177972Y-107164346D01*
X199145998Y-107212198D01*
X199098146Y-107244172D01*
X199041700Y-107255400D01*
X198696700Y-107255400D01*
X198640254Y-107244172D01*
X198592402Y-107212198D01*
X198560428Y-107164346D01*
X198549200Y-107107900D01*
X198549200Y-106812900D01*
X198560428Y-106756454D01*
X198592402Y-106708602D01*
X198640254Y-106676628D01*
X198696700Y-106665400D01*
X199041700Y-106665400D01*
X199098146Y-106676628D01*
G37*
G04 #@! TD.AperFunction*
G04 #@! TA.AperFunction,SMDPad,CuDef*
G36*
X195218946Y-92041228D02*
G01*
X195266798Y-92073202D01*
X195298772Y-92121054D01*
X195310000Y-92177500D01*
X195310000Y-92522500D01*
X195298772Y-92578946D01*
X195266798Y-92626798D01*
X195218946Y-92658772D01*
X195162500Y-92670000D01*
X194867500Y-92670000D01*
X194811054Y-92658772D01*
X194763202Y-92626798D01*
X194731228Y-92578946D01*
X194720000Y-92522500D01*
X194720000Y-92177500D01*
X194731228Y-92121054D01*
X194763202Y-92073202D01*
X194811054Y-92041228D01*
X194867500Y-92030000D01*
X195162500Y-92030000D01*
X195218946Y-92041228D01*
G37*
G04 #@! TD.AperFunction*
G04 #@! TA.AperFunction,SMDPad,CuDef*
G36*
X196188946Y-92041228D02*
G01*
X196236798Y-92073202D01*
X196268772Y-92121054D01*
X196280000Y-92177500D01*
X196280000Y-92522500D01*
X196268772Y-92578946D01*
X196236798Y-92626798D01*
X196188946Y-92658772D01*
X196132500Y-92670000D01*
X195837500Y-92670000D01*
X195781054Y-92658772D01*
X195733202Y-92626798D01*
X195701228Y-92578946D01*
X195690000Y-92522500D01*
X195690000Y-92177500D01*
X195701228Y-92121054D01*
X195733202Y-92073202D01*
X195781054Y-92041228D01*
X195837500Y-92030000D01*
X196132500Y-92030000D01*
X196188946Y-92041228D01*
G37*
G04 #@! TD.AperFunction*
G04 #@! TA.AperFunction,SMDPad,CuDef*
G36*
X198123146Y-101091628D02*
G01*
X198170998Y-101123602D01*
X198202972Y-101171454D01*
X198214200Y-101227900D01*
X198214200Y-101572900D01*
X198202972Y-101629346D01*
X198170998Y-101677198D01*
X198123146Y-101709172D01*
X198066700Y-101720400D01*
X197771700Y-101720400D01*
X197715254Y-101709172D01*
X197667402Y-101677198D01*
X197635428Y-101629346D01*
X197624200Y-101572900D01*
X197624200Y-101227900D01*
X197635428Y-101171454D01*
X197667402Y-101123602D01*
X197715254Y-101091628D01*
X197771700Y-101080400D01*
X198066700Y-101080400D01*
X198123146Y-101091628D01*
G37*
G04 #@! TD.AperFunction*
G04 #@! TA.AperFunction,SMDPad,CuDef*
G36*
X199093146Y-101091628D02*
G01*
X199140998Y-101123602D01*
X199172972Y-101171454D01*
X199184200Y-101227900D01*
X199184200Y-101572900D01*
X199172972Y-101629346D01*
X199140998Y-101677198D01*
X199093146Y-101709172D01*
X199036700Y-101720400D01*
X198741700Y-101720400D01*
X198685254Y-101709172D01*
X198637402Y-101677198D01*
X198605428Y-101629346D01*
X198594200Y-101572900D01*
X198594200Y-101227900D01*
X198605428Y-101171454D01*
X198637402Y-101123602D01*
X198685254Y-101091628D01*
X198741700Y-101080400D01*
X199036700Y-101080400D01*
X199093146Y-101091628D01*
G37*
G04 #@! TD.AperFunction*
G04 #@! TA.AperFunction,SMDPad,CuDef*
G36*
X197788146Y-107666628D02*
G01*
X197835998Y-107698602D01*
X197867972Y-107746454D01*
X197879200Y-107802900D01*
X197879200Y-108147900D01*
X197867972Y-108204346D01*
X197835998Y-108252198D01*
X197788146Y-108284172D01*
X197731700Y-108295400D01*
X197436700Y-108295400D01*
X197380254Y-108284172D01*
X197332402Y-108252198D01*
X197300428Y-108204346D01*
X197289200Y-108147900D01*
X197289200Y-107802900D01*
X197300428Y-107746454D01*
X197332402Y-107698602D01*
X197380254Y-107666628D01*
X197436700Y-107655400D01*
X197731700Y-107655400D01*
X197788146Y-107666628D01*
G37*
G04 #@! TD.AperFunction*
G04 #@! TA.AperFunction,SMDPad,CuDef*
G36*
X198758146Y-107666628D02*
G01*
X198805998Y-107698602D01*
X198837972Y-107746454D01*
X198849200Y-107802900D01*
X198849200Y-108147900D01*
X198837972Y-108204346D01*
X198805998Y-108252198D01*
X198758146Y-108284172D01*
X198701700Y-108295400D01*
X198406700Y-108295400D01*
X198350254Y-108284172D01*
X198302402Y-108252198D01*
X198270428Y-108204346D01*
X198259200Y-108147900D01*
X198259200Y-107802900D01*
X198270428Y-107746454D01*
X198302402Y-107698602D01*
X198350254Y-107666628D01*
X198406700Y-107655400D01*
X198701700Y-107655400D01*
X198758146Y-107666628D01*
G37*
G04 #@! TD.AperFunction*
G04 #@! TA.AperFunction,SMDPad,CuDef*
G36*
X209698146Y-104691628D02*
G01*
X209745998Y-104723602D01*
X209777972Y-104771454D01*
X209789200Y-104827900D01*
X209789200Y-105172900D01*
X209777972Y-105229346D01*
X209745998Y-105277198D01*
X209698146Y-105309172D01*
X209641700Y-105320400D01*
X209346700Y-105320400D01*
X209290254Y-105309172D01*
X209242402Y-105277198D01*
X209210428Y-105229346D01*
X209199200Y-105172900D01*
X209199200Y-104827900D01*
X209210428Y-104771454D01*
X209242402Y-104723602D01*
X209290254Y-104691628D01*
X209346700Y-104680400D01*
X209641700Y-104680400D01*
X209698146Y-104691628D01*
G37*
G04 #@! TD.AperFunction*
G04 #@! TA.AperFunction,SMDPad,CuDef*
G36*
X208728146Y-104691628D02*
G01*
X208775998Y-104723602D01*
X208807972Y-104771454D01*
X208819200Y-104827900D01*
X208819200Y-105172900D01*
X208807972Y-105229346D01*
X208775998Y-105277198D01*
X208728146Y-105309172D01*
X208671700Y-105320400D01*
X208376700Y-105320400D01*
X208320254Y-105309172D01*
X208272402Y-105277198D01*
X208240428Y-105229346D01*
X208229200Y-105172900D01*
X208229200Y-104827900D01*
X208240428Y-104771454D01*
X208272402Y-104723602D01*
X208320254Y-104691628D01*
X208376700Y-104680400D01*
X208671700Y-104680400D01*
X208728146Y-104691628D01*
G37*
G04 #@! TD.AperFunction*
G04 #@! TA.AperFunction,SMDPad,CuDef*
G36*
X208608146Y-106591628D02*
G01*
X208655998Y-106623602D01*
X208687972Y-106671454D01*
X208699200Y-106727900D01*
X208699200Y-107022900D01*
X208687972Y-107079346D01*
X208655998Y-107127198D01*
X208608146Y-107159172D01*
X208551700Y-107170400D01*
X208206700Y-107170400D01*
X208150254Y-107159172D01*
X208102402Y-107127198D01*
X208070428Y-107079346D01*
X208059200Y-107022900D01*
X208059200Y-106727900D01*
X208070428Y-106671454D01*
X208102402Y-106623602D01*
X208150254Y-106591628D01*
X208206700Y-106580400D01*
X208551700Y-106580400D01*
X208608146Y-106591628D01*
G37*
G04 #@! TD.AperFunction*
G04 #@! TA.AperFunction,SMDPad,CuDef*
G36*
X208608146Y-105621628D02*
G01*
X208655998Y-105653602D01*
X208687972Y-105701454D01*
X208699200Y-105757900D01*
X208699200Y-106052900D01*
X208687972Y-106109346D01*
X208655998Y-106157198D01*
X208608146Y-106189172D01*
X208551700Y-106200400D01*
X208206700Y-106200400D01*
X208150254Y-106189172D01*
X208102402Y-106157198D01*
X208070428Y-106109346D01*
X208059200Y-106052900D01*
X208059200Y-105757900D01*
X208070428Y-105701454D01*
X208102402Y-105653602D01*
X208150254Y-105621628D01*
X208206700Y-105610400D01*
X208551700Y-105610400D01*
X208608146Y-105621628D01*
G37*
G04 #@! TD.AperFunction*
G04 #@! TA.AperFunction,SMDPad,CuDef*
G36*
X207548146Y-105701628D02*
G01*
X207595998Y-105733602D01*
X207627972Y-105781454D01*
X207639200Y-105837900D01*
X207639200Y-106132900D01*
X207627972Y-106189346D01*
X207595998Y-106237198D01*
X207548146Y-106269172D01*
X207491700Y-106280400D01*
X207146700Y-106280400D01*
X207090254Y-106269172D01*
X207042402Y-106237198D01*
X207010428Y-106189346D01*
X206999200Y-106132900D01*
X206999200Y-105837900D01*
X207010428Y-105781454D01*
X207042402Y-105733602D01*
X207090254Y-105701628D01*
X207146700Y-105690400D01*
X207491700Y-105690400D01*
X207548146Y-105701628D01*
G37*
G04 #@! TD.AperFunction*
G04 #@! TA.AperFunction,SMDPad,CuDef*
G36*
X207548146Y-104731628D02*
G01*
X207595998Y-104763602D01*
X207627972Y-104811454D01*
X207639200Y-104867900D01*
X207639200Y-105162900D01*
X207627972Y-105219346D01*
X207595998Y-105267198D01*
X207548146Y-105299172D01*
X207491700Y-105310400D01*
X207146700Y-105310400D01*
X207090254Y-105299172D01*
X207042402Y-105267198D01*
X207010428Y-105219346D01*
X206999200Y-105162900D01*
X206999200Y-104867900D01*
X207010428Y-104811454D01*
X207042402Y-104763602D01*
X207090254Y-104731628D01*
X207146700Y-104720400D01*
X207491700Y-104720400D01*
X207548146Y-104731628D01*
G37*
G04 #@! TD.AperFunction*
G04 #@! TA.AperFunction,SMDPad,CuDef*
G36*
X203813146Y-101341628D02*
G01*
X203860998Y-101373602D01*
X203892972Y-101421454D01*
X203904200Y-101477900D01*
X203904200Y-101822900D01*
X203892972Y-101879346D01*
X203860998Y-101927198D01*
X203813146Y-101959172D01*
X203756700Y-101970400D01*
X203461700Y-101970400D01*
X203405254Y-101959172D01*
X203357402Y-101927198D01*
X203325428Y-101879346D01*
X203314200Y-101822900D01*
X203314200Y-101477900D01*
X203325428Y-101421454D01*
X203357402Y-101373602D01*
X203405254Y-101341628D01*
X203461700Y-101330400D01*
X203756700Y-101330400D01*
X203813146Y-101341628D01*
G37*
G04 #@! TD.AperFunction*
G04 #@! TA.AperFunction,SMDPad,CuDef*
G36*
X204783146Y-101341628D02*
G01*
X204830998Y-101373602D01*
X204862972Y-101421454D01*
X204874200Y-101477900D01*
X204874200Y-101822900D01*
X204862972Y-101879346D01*
X204830998Y-101927198D01*
X204783146Y-101959172D01*
X204726700Y-101970400D01*
X204431700Y-101970400D01*
X204375254Y-101959172D01*
X204327402Y-101927198D01*
X204295428Y-101879346D01*
X204284200Y-101822900D01*
X204284200Y-101477900D01*
X204295428Y-101421454D01*
X204327402Y-101373602D01*
X204375254Y-101341628D01*
X204431700Y-101330400D01*
X204726700Y-101330400D01*
X204783146Y-101341628D01*
G37*
G04 #@! TD.AperFunction*
G04 #@! TA.AperFunction,SMDPad,CuDef*
G36*
X200298146Y-107461628D02*
G01*
X200345998Y-107493602D01*
X200377972Y-107541454D01*
X200389200Y-107597900D01*
X200389200Y-107942900D01*
X200377972Y-107999346D01*
X200345998Y-108047198D01*
X200298146Y-108079172D01*
X200241700Y-108090400D01*
X199946700Y-108090400D01*
X199890254Y-108079172D01*
X199842402Y-108047198D01*
X199810428Y-107999346D01*
X199799200Y-107942900D01*
X199799200Y-107597900D01*
X199810428Y-107541454D01*
X199842402Y-107493602D01*
X199890254Y-107461628D01*
X199946700Y-107450400D01*
X200241700Y-107450400D01*
X200298146Y-107461628D01*
G37*
G04 #@! TD.AperFunction*
G04 #@! TA.AperFunction,SMDPad,CuDef*
G36*
X201268146Y-107461628D02*
G01*
X201315998Y-107493602D01*
X201347972Y-107541454D01*
X201359200Y-107597900D01*
X201359200Y-107942900D01*
X201347972Y-107999346D01*
X201315998Y-108047198D01*
X201268146Y-108079172D01*
X201211700Y-108090400D01*
X200916700Y-108090400D01*
X200860254Y-108079172D01*
X200812402Y-108047198D01*
X200780428Y-107999346D01*
X200769200Y-107942900D01*
X200769200Y-107597900D01*
X200780428Y-107541454D01*
X200812402Y-107493602D01*
X200860254Y-107461628D01*
X200916700Y-107450400D01*
X201211700Y-107450400D01*
X201268146Y-107461628D01*
G37*
G04 #@! TD.AperFunction*
G04 #@! TA.AperFunction,SMDPad,CuDef*
G36*
X195248146Y-109063628D02*
G01*
X195295998Y-109095602D01*
X195327972Y-109143454D01*
X195339200Y-109199900D01*
X195339200Y-109544900D01*
X195327972Y-109601346D01*
X195295998Y-109649198D01*
X195248146Y-109681172D01*
X195191700Y-109692400D01*
X194896700Y-109692400D01*
X194840254Y-109681172D01*
X194792402Y-109649198D01*
X194760428Y-109601346D01*
X194749200Y-109544900D01*
X194749200Y-109199900D01*
X194760428Y-109143454D01*
X194792402Y-109095602D01*
X194840254Y-109063628D01*
X194896700Y-109052400D01*
X195191700Y-109052400D01*
X195248146Y-109063628D01*
G37*
G04 #@! TD.AperFunction*
G04 #@! TA.AperFunction,SMDPad,CuDef*
G36*
X196218146Y-109063628D02*
G01*
X196265998Y-109095602D01*
X196297972Y-109143454D01*
X196309200Y-109199900D01*
X196309200Y-109544900D01*
X196297972Y-109601346D01*
X196265998Y-109649198D01*
X196218146Y-109681172D01*
X196161700Y-109692400D01*
X195866700Y-109692400D01*
X195810254Y-109681172D01*
X195762402Y-109649198D01*
X195730428Y-109601346D01*
X195719200Y-109544900D01*
X195719200Y-109199900D01*
X195730428Y-109143454D01*
X195762402Y-109095602D01*
X195810254Y-109063628D01*
X195866700Y-109052400D01*
X196161700Y-109052400D01*
X196218146Y-109063628D01*
G37*
G04 #@! TD.AperFunction*
D11*
X190359200Y-98525400D03*
X190359200Y-99795400D03*
X190359200Y-101065400D03*
D12*
X190359200Y-97255400D03*
D11*
X190359200Y-102335400D03*
D12*
X190359200Y-103605400D03*
G04 #@! TA.AperFunction,SMDPad,CuDef*
G36*
X193910167Y-101578036D02*
G01*
X194108157Y-101380046D01*
X194709197Y-101981086D01*
X194511207Y-102179076D01*
X193910167Y-101578036D01*
G37*
G04 #@! TD.AperFunction*
G04 #@! TA.AperFunction,SMDPad,CuDef*
G36*
X197410346Y-104455960D02*
G01*
X198011386Y-103854920D01*
X198209376Y-104052910D01*
X197608336Y-104653950D01*
X197410346Y-104455960D01*
G37*
G04 #@! TD.AperFunction*
G04 #@! TA.AperFunction,SMDPad,CuDef*
G36*
X194935472Y-107553089D02*
G01*
X195133462Y-107355099D01*
X195734502Y-107956139D01*
X195536512Y-108154129D01*
X194935472Y-107553089D01*
G37*
G04 #@! TD.AperFunction*
G04 #@! TA.AperFunction,SMDPad,CuDef*
G36*
X192559592Y-104767087D02*
G01*
X194822334Y-102504345D01*
X197085076Y-104767087D01*
X194822334Y-107029829D01*
X192559592Y-104767087D01*
G37*
G04 #@! TD.AperFunction*
D13*
X194822334Y-103352874D03*
X195529441Y-104059981D03*
X196236548Y-104767087D03*
X194115228Y-104059981D03*
X194822334Y-104767087D03*
X195529441Y-105474194D03*
X193408121Y-104767087D03*
X194115228Y-105474194D03*
X194822334Y-106181301D03*
G04 #@! TA.AperFunction,SMDPad,CuDef*
G36*
X191435293Y-105481265D02*
G01*
X192036333Y-104880225D01*
X192234323Y-105078215D01*
X191633283Y-105679255D01*
X191435293Y-105481265D01*
G37*
G04 #@! TD.AperFunction*
G04 #@! TA.AperFunction,SMDPad,CuDef*
G36*
X191788847Y-105834818D02*
G01*
X192389887Y-105233778D01*
X192587877Y-105431768D01*
X191986837Y-106032808D01*
X191788847Y-105834818D01*
G37*
G04 #@! TD.AperFunction*
G04 #@! TA.AperFunction,SMDPad,CuDef*
G36*
X192142400Y-106188372D02*
G01*
X192743440Y-105587332D01*
X192941430Y-105785322D01*
X192340390Y-106386362D01*
X192142400Y-106188372D01*
G37*
G04 #@! TD.AperFunction*
G04 #@! TA.AperFunction,SMDPad,CuDef*
G36*
X192495953Y-106541925D02*
G01*
X193096993Y-105940885D01*
X193294983Y-106138875D01*
X192693943Y-106739915D01*
X192495953Y-106541925D01*
G37*
G04 #@! TD.AperFunction*
G04 #@! TA.AperFunction,SMDPad,CuDef*
G36*
X192849507Y-106895478D02*
G01*
X193450547Y-106294438D01*
X193648537Y-106492428D01*
X193047497Y-107093468D01*
X192849507Y-106895478D01*
G37*
G04 #@! TD.AperFunction*
G04 #@! TA.AperFunction,SMDPad,CuDef*
G36*
X193203060Y-107249032D02*
G01*
X193804100Y-106647992D01*
X194002090Y-106845982D01*
X193401050Y-107447022D01*
X193203060Y-107249032D01*
G37*
G04 #@! TD.AperFunction*
G04 #@! TA.AperFunction,SMDPad,CuDef*
G36*
X193556614Y-107602585D02*
G01*
X194157654Y-107001545D01*
X194355644Y-107199535D01*
X193754604Y-107800575D01*
X193556614Y-107602585D01*
G37*
G04 #@! TD.AperFunction*
G04 #@! TA.AperFunction,SMDPad,CuDef*
G36*
X193910167Y-107956139D02*
G01*
X194511207Y-107355099D01*
X194709197Y-107553089D01*
X194108157Y-108154129D01*
X193910167Y-107956139D01*
G37*
G04 #@! TD.AperFunction*
G04 #@! TA.AperFunction,SMDPad,CuDef*
G36*
X195289025Y-107199535D02*
G01*
X195487015Y-107001545D01*
X196088055Y-107602585D01*
X195890065Y-107800575D01*
X195289025Y-107199535D01*
G37*
G04 #@! TD.AperFunction*
G04 #@! TA.AperFunction,SMDPad,CuDef*
G36*
X195642579Y-106845982D02*
G01*
X195840569Y-106647992D01*
X196441609Y-107249032D01*
X196243619Y-107447022D01*
X195642579Y-106845982D01*
G37*
G04 #@! TD.AperFunction*
G04 #@! TA.AperFunction,SMDPad,CuDef*
G36*
X195996132Y-106492428D02*
G01*
X196194122Y-106294438D01*
X196795162Y-106895478D01*
X196597172Y-107093468D01*
X195996132Y-106492428D01*
G37*
G04 #@! TD.AperFunction*
G04 #@! TA.AperFunction,SMDPad,CuDef*
G36*
X196349685Y-106138875D02*
G01*
X196547675Y-105940885D01*
X197148715Y-106541925D01*
X196950725Y-106739915D01*
X196349685Y-106138875D01*
G37*
G04 #@! TD.AperFunction*
G04 #@! TA.AperFunction,SMDPad,CuDef*
G36*
X196703239Y-105785322D02*
G01*
X196901229Y-105587332D01*
X197502269Y-106188372D01*
X197304279Y-106386362D01*
X196703239Y-105785322D01*
G37*
G04 #@! TD.AperFunction*
G04 #@! TA.AperFunction,SMDPad,CuDef*
G36*
X197056792Y-105431768D02*
G01*
X197254782Y-105233778D01*
X197855822Y-105834818D01*
X197657832Y-106032808D01*
X197056792Y-105431768D01*
G37*
G04 #@! TD.AperFunction*
G04 #@! TA.AperFunction,SMDPad,CuDef*
G36*
X197410346Y-105078215D02*
G01*
X197608336Y-104880225D01*
X198209376Y-105481265D01*
X198011386Y-105679255D01*
X197410346Y-105078215D01*
G37*
G04 #@! TD.AperFunction*
G04 #@! TA.AperFunction,SMDPad,CuDef*
G36*
X197056792Y-104102407D02*
G01*
X197657832Y-103501367D01*
X197855822Y-103699357D01*
X197254782Y-104300397D01*
X197056792Y-104102407D01*
G37*
G04 #@! TD.AperFunction*
G04 #@! TA.AperFunction,SMDPad,CuDef*
G36*
X196703239Y-103748853D02*
G01*
X197304279Y-103147813D01*
X197502269Y-103345803D01*
X196901229Y-103946843D01*
X196703239Y-103748853D01*
G37*
G04 #@! TD.AperFunction*
G04 #@! TA.AperFunction,SMDPad,CuDef*
G36*
X196349685Y-103395300D02*
G01*
X196950725Y-102794260D01*
X197148715Y-102992250D01*
X196547675Y-103593290D01*
X196349685Y-103395300D01*
G37*
G04 #@! TD.AperFunction*
G04 #@! TA.AperFunction,SMDPad,CuDef*
G36*
X195996132Y-103041746D02*
G01*
X196597172Y-102440706D01*
X196795162Y-102638696D01*
X196194122Y-103239736D01*
X195996132Y-103041746D01*
G37*
G04 #@! TD.AperFunction*
G04 #@! TA.AperFunction,SMDPad,CuDef*
G36*
X195642579Y-102688193D02*
G01*
X196243619Y-102087153D01*
X196441609Y-102285143D01*
X195840569Y-102886183D01*
X195642579Y-102688193D01*
G37*
G04 #@! TD.AperFunction*
G04 #@! TA.AperFunction,SMDPad,CuDef*
G36*
X195289025Y-102334640D02*
G01*
X195890065Y-101733600D01*
X196088055Y-101931590D01*
X195487015Y-102532630D01*
X195289025Y-102334640D01*
G37*
G04 #@! TD.AperFunction*
G04 #@! TA.AperFunction,SMDPad,CuDef*
G36*
X194935472Y-101981086D02*
G01*
X195536512Y-101380046D01*
X195734502Y-101578036D01*
X195133462Y-102179076D01*
X194935472Y-101981086D01*
G37*
G04 #@! TD.AperFunction*
G04 #@! TA.AperFunction,SMDPad,CuDef*
G36*
X193556614Y-101931590D02*
G01*
X193754604Y-101733600D01*
X194355644Y-102334640D01*
X194157654Y-102532630D01*
X193556614Y-101931590D01*
G37*
G04 #@! TD.AperFunction*
G04 #@! TA.AperFunction,SMDPad,CuDef*
G36*
X193203060Y-102285143D02*
G01*
X193401050Y-102087153D01*
X194002090Y-102688193D01*
X193804100Y-102886183D01*
X193203060Y-102285143D01*
G37*
G04 #@! TD.AperFunction*
G04 #@! TA.AperFunction,SMDPad,CuDef*
G36*
X192849507Y-102638696D02*
G01*
X193047497Y-102440706D01*
X193648537Y-103041746D01*
X193450547Y-103239736D01*
X192849507Y-102638696D01*
G37*
G04 #@! TD.AperFunction*
G04 #@! TA.AperFunction,SMDPad,CuDef*
G36*
X192495953Y-102992250D02*
G01*
X192693943Y-102794260D01*
X193294983Y-103395300D01*
X193096993Y-103593290D01*
X192495953Y-102992250D01*
G37*
G04 #@! TD.AperFunction*
G04 #@! TA.AperFunction,SMDPad,CuDef*
G36*
X192142400Y-103345803D02*
G01*
X192340390Y-103147813D01*
X192941430Y-103748853D01*
X192743440Y-103946843D01*
X192142400Y-103345803D01*
G37*
G04 #@! TD.AperFunction*
G04 #@! TA.AperFunction,SMDPad,CuDef*
G36*
X191788847Y-103699357D02*
G01*
X191986837Y-103501367D01*
X192587877Y-104102407D01*
X192389887Y-104300397D01*
X191788847Y-103699357D01*
G37*
G04 #@! TD.AperFunction*
G04 #@! TA.AperFunction,SMDPad,CuDef*
G36*
X191435293Y-104052910D02*
G01*
X191633283Y-103854920D01*
X192234323Y-104455960D01*
X192036333Y-104653950D01*
X191435293Y-104052910D01*
G37*
G04 #@! TD.AperFunction*
D14*
X205264200Y-107400400D03*
X205264200Y-106900400D03*
X205264200Y-106400400D03*
X205264200Y-105900400D03*
D15*
X204564200Y-105200400D03*
X204064200Y-105200400D03*
X203564200Y-105200400D03*
X203064200Y-105200400D03*
D14*
X202364200Y-105900400D03*
X202364200Y-106400400D03*
X202364200Y-106900400D03*
X202364200Y-107400400D03*
D15*
X203064200Y-108100400D03*
X203564200Y-108100400D03*
X204064200Y-108100400D03*
X204564200Y-108100400D03*
D16*
X203814200Y-106650400D03*
G04 #@! TA.AperFunction,SMDPad,CuDef*
G36*
X193220946Y-95017428D02*
G01*
X193268798Y-95049402D01*
X193300772Y-95097254D01*
X193312000Y-95153700D01*
X193312000Y-95498700D01*
X193300772Y-95555146D01*
X193268798Y-95602998D01*
X193220946Y-95634972D01*
X193164500Y-95646200D01*
X192869500Y-95646200D01*
X192813054Y-95634972D01*
X192765202Y-95602998D01*
X192733228Y-95555146D01*
X192722000Y-95498700D01*
X192722000Y-95153700D01*
X192733228Y-95097254D01*
X192765202Y-95049402D01*
X192813054Y-95017428D01*
X192869500Y-95006200D01*
X193164500Y-95006200D01*
X193220946Y-95017428D01*
G37*
G04 #@! TD.AperFunction*
G04 #@! TA.AperFunction,SMDPad,CuDef*
G36*
X192250946Y-95017428D02*
G01*
X192298798Y-95049402D01*
X192330772Y-95097254D01*
X192342000Y-95153700D01*
X192342000Y-95498700D01*
X192330772Y-95555146D01*
X192298798Y-95602998D01*
X192250946Y-95634972D01*
X192194500Y-95646200D01*
X191899500Y-95646200D01*
X191843054Y-95634972D01*
X191795202Y-95602998D01*
X191763228Y-95555146D01*
X191752000Y-95498700D01*
X191752000Y-95153700D01*
X191763228Y-95097254D01*
X191795202Y-95049402D01*
X191843054Y-95017428D01*
X191899500Y-95006200D01*
X192194500Y-95006200D01*
X192250946Y-95017428D01*
G37*
G04 #@! TD.AperFunction*
G04 #@! TA.AperFunction,SMDPad,CuDef*
G36*
X195868346Y-94239628D02*
G01*
X195916198Y-94271602D01*
X195948172Y-94319454D01*
X195959400Y-94375900D01*
X195959400Y-94670900D01*
X195948172Y-94727346D01*
X195916198Y-94775198D01*
X195868346Y-94807172D01*
X195811900Y-94818400D01*
X195466900Y-94818400D01*
X195410454Y-94807172D01*
X195362602Y-94775198D01*
X195330628Y-94727346D01*
X195319400Y-94670900D01*
X195319400Y-94375900D01*
X195330628Y-94319454D01*
X195362602Y-94271602D01*
X195410454Y-94239628D01*
X195466900Y-94228400D01*
X195811900Y-94228400D01*
X195868346Y-94239628D01*
G37*
G04 #@! TD.AperFunction*
G04 #@! TA.AperFunction,SMDPad,CuDef*
G36*
X195868346Y-93269628D02*
G01*
X195916198Y-93301602D01*
X195948172Y-93349454D01*
X195959400Y-93405900D01*
X195959400Y-93700900D01*
X195948172Y-93757346D01*
X195916198Y-93805198D01*
X195868346Y-93837172D01*
X195811900Y-93848400D01*
X195466900Y-93848400D01*
X195410454Y-93837172D01*
X195362602Y-93805198D01*
X195330628Y-93757346D01*
X195319400Y-93700900D01*
X195319400Y-93405900D01*
X195330628Y-93349454D01*
X195362602Y-93301602D01*
X195410454Y-93269628D01*
X195466900Y-93258400D01*
X195811900Y-93258400D01*
X195868346Y-93269628D01*
G37*
G04 #@! TD.AperFunction*
G04 #@! TA.AperFunction,SMDPad,CuDef*
G36*
X192648146Y-100151628D02*
G01*
X192695998Y-100183602D01*
X192727972Y-100231454D01*
X192739200Y-100287900D01*
X192739200Y-100582900D01*
X192727972Y-100639346D01*
X192695998Y-100687198D01*
X192648146Y-100719172D01*
X192591700Y-100730400D01*
X192246700Y-100730400D01*
X192190254Y-100719172D01*
X192142402Y-100687198D01*
X192110428Y-100639346D01*
X192099200Y-100582900D01*
X192099200Y-100287900D01*
X192110428Y-100231454D01*
X192142402Y-100183602D01*
X192190254Y-100151628D01*
X192246700Y-100140400D01*
X192591700Y-100140400D01*
X192648146Y-100151628D01*
G37*
G04 #@! TD.AperFunction*
G04 #@! TA.AperFunction,SMDPad,CuDef*
G36*
X192648146Y-101121628D02*
G01*
X192695998Y-101153602D01*
X192727972Y-101201454D01*
X192739200Y-101257900D01*
X192739200Y-101552900D01*
X192727972Y-101609346D01*
X192695998Y-101657198D01*
X192648146Y-101689172D01*
X192591700Y-101700400D01*
X192246700Y-101700400D01*
X192190254Y-101689172D01*
X192142402Y-101657198D01*
X192110428Y-101609346D01*
X192099200Y-101552900D01*
X192099200Y-101257900D01*
X192110428Y-101201454D01*
X192142402Y-101153602D01*
X192190254Y-101121628D01*
X192246700Y-101110400D01*
X192591700Y-101110400D01*
X192648146Y-101121628D01*
G37*
G04 #@! TD.AperFunction*
G04 #@! TA.AperFunction,SMDPad,CuDef*
G36*
X203807946Y-100402228D02*
G01*
X203855798Y-100434202D01*
X203887772Y-100482054D01*
X203899000Y-100538500D01*
X203899000Y-100883500D01*
X203887772Y-100939946D01*
X203855798Y-100987798D01*
X203807946Y-101019772D01*
X203751500Y-101031000D01*
X203456500Y-101031000D01*
X203400054Y-101019772D01*
X203352202Y-100987798D01*
X203320228Y-100939946D01*
X203309000Y-100883500D01*
X203309000Y-100538500D01*
X203320228Y-100482054D01*
X203352202Y-100434202D01*
X203400054Y-100402228D01*
X203456500Y-100391000D01*
X203751500Y-100391000D01*
X203807946Y-100402228D01*
G37*
G04 #@! TD.AperFunction*
G04 #@! TA.AperFunction,SMDPad,CuDef*
G36*
X204777946Y-100402228D02*
G01*
X204825798Y-100434202D01*
X204857772Y-100482054D01*
X204869000Y-100538500D01*
X204869000Y-100883500D01*
X204857772Y-100939946D01*
X204825798Y-100987798D01*
X204777946Y-101019772D01*
X204721500Y-101031000D01*
X204426500Y-101031000D01*
X204370054Y-101019772D01*
X204322202Y-100987798D01*
X204290228Y-100939946D01*
X204279000Y-100883500D01*
X204279000Y-100538500D01*
X204290228Y-100482054D01*
X204322202Y-100434202D01*
X204370054Y-100402228D01*
X204426500Y-100391000D01*
X204721500Y-100391000D01*
X204777946Y-100402228D01*
G37*
G04 #@! TD.AperFunction*
G04 #@! TA.AperFunction,SMDPad,CuDef*
G36*
X207238146Y-107746628D02*
G01*
X207285998Y-107778602D01*
X207317972Y-107826454D01*
X207329200Y-107882900D01*
X207329200Y-108177900D01*
X207317972Y-108234346D01*
X207285998Y-108282198D01*
X207238146Y-108314172D01*
X207181700Y-108325400D01*
X206836700Y-108325400D01*
X206780254Y-108314172D01*
X206732402Y-108282198D01*
X206700428Y-108234346D01*
X206689200Y-108177900D01*
X206689200Y-107882900D01*
X206700428Y-107826454D01*
X206732402Y-107778602D01*
X206780254Y-107746628D01*
X206836700Y-107735400D01*
X207181700Y-107735400D01*
X207238146Y-107746628D01*
G37*
G04 #@! TD.AperFunction*
G04 #@! TA.AperFunction,SMDPad,CuDef*
G36*
X207238146Y-106776628D02*
G01*
X207285998Y-106808602D01*
X207317972Y-106856454D01*
X207329200Y-106912900D01*
X207329200Y-107207900D01*
X207317972Y-107264346D01*
X207285998Y-107312198D01*
X207238146Y-107344172D01*
X207181700Y-107355400D01*
X206836700Y-107355400D01*
X206780254Y-107344172D01*
X206732402Y-107312198D01*
X206700428Y-107264346D01*
X206689200Y-107207900D01*
X206689200Y-106912900D01*
X206700428Y-106856454D01*
X206732402Y-106808602D01*
X206780254Y-106776628D01*
X206836700Y-106765400D01*
X207181700Y-106765400D01*
X207238146Y-106776628D01*
G37*
G04 #@! TD.AperFunction*
G04 #@! TA.AperFunction,SMDPad,CuDef*
G36*
X202188146Y-100491628D02*
G01*
X202235998Y-100523602D01*
X202267972Y-100571454D01*
X202279200Y-100627900D01*
X202279200Y-100972900D01*
X202267972Y-101029346D01*
X202235998Y-101077198D01*
X202188146Y-101109172D01*
X202131700Y-101120400D01*
X201836700Y-101120400D01*
X201780254Y-101109172D01*
X201732402Y-101077198D01*
X201700428Y-101029346D01*
X201689200Y-100972900D01*
X201689200Y-100627900D01*
X201700428Y-100571454D01*
X201732402Y-100523602D01*
X201780254Y-100491628D01*
X201836700Y-100480400D01*
X202131700Y-100480400D01*
X202188146Y-100491628D01*
G37*
G04 #@! TD.AperFunction*
G04 #@! TA.AperFunction,SMDPad,CuDef*
G36*
X201218146Y-100491628D02*
G01*
X201265998Y-100523602D01*
X201297972Y-100571454D01*
X201309200Y-100627900D01*
X201309200Y-100972900D01*
X201297972Y-101029346D01*
X201265998Y-101077198D01*
X201218146Y-101109172D01*
X201161700Y-101120400D01*
X200866700Y-101120400D01*
X200810254Y-101109172D01*
X200762402Y-101077198D01*
X200730428Y-101029346D01*
X200719200Y-100972900D01*
X200719200Y-100627900D01*
X200730428Y-100571454D01*
X200762402Y-100523602D01*
X200810254Y-100491628D01*
X200866700Y-100480400D01*
X201161700Y-100480400D01*
X201218146Y-100491628D01*
G37*
G04 #@! TD.AperFunction*
G04 #@! TA.AperFunction,SMDPad,CuDef*
G36*
X199647146Y-108682628D02*
G01*
X199694998Y-108714602D01*
X199726972Y-108762454D01*
X199738200Y-108818900D01*
X199738200Y-109163900D01*
X199726972Y-109220346D01*
X199694998Y-109268198D01*
X199647146Y-109300172D01*
X199590700Y-109311400D01*
X199295700Y-109311400D01*
X199239254Y-109300172D01*
X199191402Y-109268198D01*
X199159428Y-109220346D01*
X199148200Y-109163900D01*
X199148200Y-108818900D01*
X199159428Y-108762454D01*
X199191402Y-108714602D01*
X199239254Y-108682628D01*
X199295700Y-108671400D01*
X199590700Y-108671400D01*
X199647146Y-108682628D01*
G37*
G04 #@! TD.AperFunction*
G04 #@! TA.AperFunction,SMDPad,CuDef*
G36*
X198677146Y-108682628D02*
G01*
X198724998Y-108714602D01*
X198756972Y-108762454D01*
X198768200Y-108818900D01*
X198768200Y-109163900D01*
X198756972Y-109220346D01*
X198724998Y-109268198D01*
X198677146Y-109300172D01*
X198620700Y-109311400D01*
X198325700Y-109311400D01*
X198269254Y-109300172D01*
X198221402Y-109268198D01*
X198189428Y-109220346D01*
X198178200Y-109163900D01*
X198178200Y-108818900D01*
X198189428Y-108762454D01*
X198221402Y-108714602D01*
X198269254Y-108682628D01*
X198325700Y-108671400D01*
X198620700Y-108671400D01*
X198677146Y-108682628D01*
G37*
G04 #@! TD.AperFunction*
D17*
X195559240Y-96202680D03*
X203759239Y-96202680D03*
X195559240Y-99142680D03*
X203759239Y-99142680D03*
D18*
X196909240Y-95847680D03*
X197409240Y-95847680D03*
X197909240Y-95847680D03*
X198409240Y-95847680D03*
X198909240Y-95847680D03*
X199409240Y-95847680D03*
X199909240Y-95847680D03*
X200409240Y-95847680D03*
X200909240Y-95847680D03*
X201409240Y-95847680D03*
X201909240Y-95847680D03*
X202409240Y-95847680D03*
X202409240Y-99347680D03*
X201909240Y-99347680D03*
X201409240Y-99347680D03*
X200909240Y-99347680D03*
X200409240Y-99347680D03*
X199909240Y-99347680D03*
X199409240Y-99347680D03*
X198909240Y-99347680D03*
X198409240Y-99347680D03*
X197909240Y-99347680D03*
X197409240Y-99347680D03*
X196909240Y-99347680D03*
D19*
X198282200Y-109896400D03*
X198282200Y-110396400D03*
X198282200Y-110896400D03*
X198282200Y-111396400D03*
X198282200Y-111896400D03*
X202682200Y-111896400D03*
X202682200Y-111396400D03*
X202682200Y-110896400D03*
X202682200Y-110396400D03*
X202682200Y-109896400D03*
D20*
X207391000Y-98260000D03*
D21*
X209931000Y-98260000D03*
X207391000Y-100800000D03*
X209931000Y-100800000D03*
X207391000Y-103340000D03*
X209931000Y-103340000D03*
G04 #@! TA.AperFunction,SMDPad,CuDef*
G36*
X199624947Y-103584074D02*
G01*
X199706053Y-103638267D01*
X201226333Y-105158547D01*
X201280526Y-105239653D01*
X201299556Y-105335324D01*
X201280526Y-105430995D01*
X201226333Y-105512101D01*
X200696003Y-106042431D01*
X200614897Y-106096624D01*
X200519226Y-106115654D01*
X200423555Y-106096624D01*
X200342449Y-106042431D01*
X198822169Y-104522151D01*
X198767976Y-104441045D01*
X198748946Y-104345374D01*
X198767976Y-104249703D01*
X198822169Y-104168597D01*
X199352499Y-103638267D01*
X199433605Y-103584074D01*
X199529276Y-103565044D01*
X199624947Y-103584074D01*
G37*
G04 #@! TD.AperFunction*
G04 #@! TA.AperFunction,SMDPad,CuDef*
G36*
X201604845Y-101604176D02*
G01*
X201685951Y-101658369D01*
X203206231Y-103178649D01*
X203260424Y-103259755D01*
X203279454Y-103355426D01*
X203260424Y-103451097D01*
X203206231Y-103532203D01*
X202675901Y-104062533D01*
X202594795Y-104116726D01*
X202499124Y-104135756D01*
X202403453Y-104116726D01*
X202322347Y-104062533D01*
X200802067Y-102542253D01*
X200747874Y-102461147D01*
X200728844Y-102365476D01*
X200747874Y-102269805D01*
X200802067Y-102188699D01*
X201332397Y-101658369D01*
X201413503Y-101604176D01*
X201509174Y-101585146D01*
X201604845Y-101604176D01*
G37*
G04 #@! TD.AperFunction*
D22*
X193319400Y-93878400D03*
D23*
X194259299Y-93228401D03*
X194259299Y-93878400D03*
X194259299Y-94528399D03*
X192379501Y-94528399D03*
X192379501Y-93878400D03*
X192379501Y-93228401D03*
D24*
X190365500Y-98519100D03*
X190359200Y-99795400D03*
X190359200Y-101065400D03*
X195076399Y-93228401D03*
X199720200Y-111404400D03*
X204038200Y-109880400D03*
X206189202Y-107423638D03*
X193329400Y-93458400D03*
X203414200Y-106250400D03*
X203414200Y-107100400D03*
X204264200Y-107100400D03*
X206919200Y-94670400D03*
X199466200Y-107731128D03*
X202779200Y-100800400D03*
X197889200Y-102320400D03*
X193869200Y-92490400D03*
X196347600Y-94167000D03*
X193319400Y-94348400D03*
X192389200Y-99500400D03*
X199789200Y-106370400D03*
X208229200Y-96260400D03*
X204240000Y-90670000D03*
X195009200Y-100570400D03*
X202329200Y-105310400D03*
X202272406Y-108195168D03*
X191409200Y-99470400D03*
X197815200Y-108991400D03*
X194005200Y-109245400D03*
X205509200Y-108420400D03*
X204233742Y-106254173D03*
X204389200Y-103350400D03*
X206197200Y-105435400D03*
X198409240Y-97343280D03*
X200909240Y-97388360D03*
X203789280Y-94320360D03*
X195950840Y-101097080D03*
X199877680Y-100543360D03*
X199928480Y-98059240D03*
X199329040Y-96931480D03*
X191759400Y-93878400D03*
D25*
X204579200Y-101650400D02*
X205701400Y-101650400D01*
X205701400Y-101650400D02*
X207391000Y-103340000D01*
X190999201Y-103418828D02*
X191834808Y-104254435D01*
X190909200Y-101065400D02*
X190359200Y-101065400D01*
X190999168Y-101155368D02*
X190909200Y-101065400D01*
X190999168Y-102069644D02*
X190999168Y-101155368D01*
X190999201Y-103418828D02*
X190999201Y-102069677D01*
X190999201Y-102069677D02*
X190999168Y-102069644D01*
X190365500Y-98519100D02*
X190359200Y-98525400D01*
X195044200Y-109372400D02*
X194132200Y-109372400D01*
X194132200Y-109372400D02*
X194005200Y-109245400D01*
X194005200Y-109245400D02*
X195334987Y-107915613D01*
X195334987Y-107915613D02*
X195334987Y-107754614D01*
X190672353Y-105943553D02*
X190703353Y-105943553D01*
X190703353Y-105943553D02*
X194005200Y-109245400D01*
X197815200Y-108991400D02*
X198473200Y-108991400D01*
X197053200Y-110067400D02*
X197053200Y-107975400D01*
X197053200Y-107975400D02*
X197053200Y-107351506D01*
X197053200Y-107975400D02*
X197584200Y-107975400D01*
X197053200Y-107351506D02*
X196395647Y-106693953D01*
X198282200Y-110396400D02*
X197382200Y-110396400D01*
X197382200Y-110396400D02*
X197053200Y-110067400D01*
X195076399Y-93228401D02*
X194909400Y-93228401D01*
X199443200Y-108991400D02*
X199443200Y-107754128D01*
X199443200Y-107754128D02*
X199466200Y-107731128D01*
X198473200Y-108991400D02*
X198473200Y-108056400D01*
X198473200Y-108056400D02*
X198554200Y-107975400D01*
X198473200Y-108991400D02*
X198473200Y-109705400D01*
X198473200Y-109705400D02*
X198282200Y-109896400D01*
X196014200Y-109372400D02*
X196014200Y-109692400D01*
X197382200Y-110896400D02*
X198282200Y-110896400D01*
X196014200Y-109692400D02*
X197218200Y-110896400D01*
X197218200Y-110896400D02*
X197382200Y-110896400D01*
X196014200Y-109372400D02*
X196014200Y-109052400D01*
X196014200Y-109052400D02*
X196545200Y-108521400D01*
X196545200Y-108521400D02*
X196545200Y-107550613D01*
X196545200Y-107550613D02*
X196042094Y-107047507D01*
X198282200Y-111396400D02*
X199712200Y-111396400D01*
X199712200Y-111396400D02*
X199720200Y-111404400D01*
X202682200Y-109896400D02*
X204022200Y-109896400D01*
X204022200Y-109896400D02*
X204038200Y-109880400D01*
X201498200Y-111612400D02*
X201498200Y-109690398D01*
X201498200Y-109690398D02*
X201924187Y-109264411D01*
X201924187Y-109264411D02*
X203025191Y-109264411D01*
X202682200Y-111896400D02*
X201782200Y-111896400D01*
X201782200Y-111896400D02*
X201498200Y-111612400D01*
X203025191Y-109264411D02*
X203564200Y-108725400D01*
X206189202Y-107423638D02*
X206189202Y-106999374D01*
X206189202Y-106999374D02*
X206090228Y-106900400D01*
X206090228Y-106900400D02*
X205879202Y-106900400D01*
X203564200Y-106400400D02*
X203564200Y-105200400D01*
X203814200Y-106650400D02*
X203564200Y-106400400D01*
X203064200Y-105485398D02*
X203064200Y-105200400D01*
X203814200Y-106650400D02*
X203089201Y-105925401D01*
X203089201Y-105510399D02*
X203064200Y-105485398D01*
X203089201Y-105925401D02*
X203089201Y-105510399D01*
X204539199Y-107375399D02*
X204264200Y-107100400D01*
X204539199Y-108075399D02*
X204539199Y-107375399D01*
X204564200Y-108100400D02*
X204539199Y-108075399D01*
X203264200Y-106400400D02*
X203414200Y-106250400D01*
X202364200Y-106400400D02*
X203264200Y-106400400D01*
X200094200Y-107770400D02*
X199367744Y-107770400D01*
X199367744Y-107770400D02*
X199328472Y-107731128D01*
X201984200Y-100800400D02*
X202779200Y-100800400D01*
X197919200Y-101400400D02*
X197919200Y-102290400D01*
X197919200Y-102290400D02*
X197889200Y-102320400D01*
X195014200Y-92420400D02*
X193939200Y-92420400D01*
X193939200Y-92420400D02*
X193869200Y-92490400D01*
X195639400Y-94523400D02*
X195639400Y-94618400D01*
X193319400Y-94528399D02*
X193319400Y-94348400D01*
X192379501Y-94528399D02*
X193319400Y-94528399D01*
X193084400Y-94113400D02*
X193319400Y-93878400D01*
X193084400Y-95498400D02*
X193084400Y-94113400D01*
X193319400Y-94348400D02*
X193319400Y-93878400D01*
X194822334Y-104413533D02*
X194822334Y-104767087D01*
X193249022Y-102840221D02*
X194822334Y-104413533D01*
X194822334Y-106534854D02*
X194822334Y-104767087D01*
X195688540Y-107401060D02*
X194822334Y-106534854D01*
X192419200Y-99530400D02*
X192389200Y-99500400D01*
X192419200Y-100435400D02*
X192419200Y-99530400D01*
X199409200Y-105990400D02*
X199789200Y-106370400D01*
X198869200Y-105990400D02*
X199409200Y-105990400D01*
X203564200Y-108725400D02*
X203564200Y-108100400D01*
X201739200Y-107400400D02*
X202364200Y-107400400D01*
X201647076Y-107400400D02*
X201739200Y-107400400D01*
X201207076Y-106960400D02*
X201647076Y-107400400D01*
X196749200Y-106340400D02*
X197369200Y-106960400D01*
X197369200Y-106960400D02*
X201207076Y-106960400D01*
X200741878Y-105207976D02*
X199734251Y-104200349D01*
X201739200Y-106900400D02*
X201031878Y-106193078D01*
X200741878Y-105553078D02*
X200741878Y-105207976D01*
X202364200Y-106900400D02*
X201739200Y-106900400D01*
X201031878Y-105847976D02*
X200024251Y-104840349D01*
X201031878Y-106193078D02*
X201031878Y-105847976D01*
D26*
X198999200Y-103815298D02*
X200024251Y-104840349D01*
X198999200Y-103010400D02*
X198999200Y-103815298D01*
X201139200Y-100870400D02*
X198999200Y-103010400D01*
D25*
X195639400Y-93553400D02*
X195314401Y-93228401D01*
X194824199Y-94528399D02*
X194259299Y-94528399D01*
X194924200Y-94428398D02*
X194824199Y-94528399D01*
X194924200Y-93243201D02*
X194924200Y-94428398D01*
X194909400Y-93228401D02*
X194924200Y-93243201D01*
X195314401Y-93228401D02*
X195076399Y-93228401D01*
X194909400Y-93228401D02*
X194259299Y-93228401D01*
X202364200Y-105900400D02*
X202364200Y-105345400D01*
X202364200Y-105345400D02*
X202329200Y-105310400D01*
X201064200Y-107770400D02*
X201350900Y-107770400D01*
X201350900Y-107770400D02*
X201775668Y-108195168D01*
X201775668Y-108195168D02*
X202272406Y-108195168D01*
X202721776Y-103228078D02*
X201714149Y-102220451D01*
X204064200Y-104425400D02*
X203864200Y-104225400D01*
X204239200Y-104225400D02*
X203864200Y-104225400D01*
X203011776Y-103868078D02*
X202004149Y-102860451D01*
X203506878Y-103868078D02*
X203011776Y-103868078D01*
X207049200Y-104990400D02*
X207059200Y-104980400D01*
X207059200Y-104980400D02*
X207214200Y-104980400D01*
X191399212Y-103111732D02*
X192188362Y-103900882D01*
X191399212Y-101903988D02*
X191399212Y-103111732D01*
X191399179Y-101903955D02*
X191399212Y-101903988D01*
X191399179Y-100410379D02*
X191399179Y-101903955D01*
X190359200Y-99795400D02*
X190784200Y-99795400D01*
X190784200Y-99795400D02*
X191399179Y-100410379D01*
X191379400Y-95158400D02*
X191379400Y-94118400D01*
X191619400Y-93878400D02*
X191759400Y-93878400D01*
X191379400Y-94118400D02*
X191619400Y-93878400D01*
X191814601Y-93228401D02*
X191379400Y-93663602D01*
X191379400Y-93663602D02*
X191379400Y-94118400D01*
X192379501Y-93228401D02*
X191814601Y-93228401D01*
X192541915Y-103547328D02*
X191799223Y-102804636D01*
X191799190Y-99860390D02*
X191409200Y-99470400D01*
X191799223Y-102804636D02*
X191799223Y-101738299D01*
X191799223Y-101738299D02*
X191799190Y-101738266D01*
X191799190Y-101738266D02*
X191799190Y-99860390D01*
X189878355Y-104249554D02*
X190672353Y-105043553D01*
X189706799Y-97907801D02*
X189706799Y-103724617D01*
X189812637Y-104059601D02*
X189878355Y-104249554D01*
X190359200Y-97255400D02*
X189706799Y-97907801D01*
X189749756Y-103865987D02*
X189812637Y-104059601D01*
X189706799Y-103724617D02*
X189715787Y-103754198D01*
X190672353Y-105043553D02*
X190672353Y-105943553D01*
X189715787Y-103754198D02*
X189749756Y-103865987D01*
X191414200Y-96200400D02*
X190359200Y-97255400D01*
X195334987Y-107754614D02*
X195334987Y-107766187D01*
X192419200Y-102717507D02*
X192419200Y-101405400D01*
X192895468Y-103193775D02*
X192419200Y-102717507D01*
X192247204Y-98470400D02*
X190414200Y-98470400D01*
X193956129Y-102133115D02*
X193279200Y-101456186D01*
X190414200Y-98470400D02*
X190365500Y-98519100D01*
X193279200Y-99502396D02*
X192247204Y-98470400D01*
X193279200Y-101456186D02*
X193279200Y-99502396D01*
X199069200Y-101400400D02*
X198889200Y-101400400D01*
X197271253Y-100550402D02*
X195688540Y-102133115D01*
X198797202Y-100550402D02*
X197271253Y-100550402D01*
X199179199Y-100168405D02*
X198797202Y-100550402D01*
X205264200Y-106900400D02*
X205879202Y-106900400D01*
X205989200Y-109050400D02*
X207009200Y-108030400D01*
X204064200Y-108725400D02*
X204389200Y-109050400D01*
X204389200Y-109050400D02*
X205989200Y-109050400D01*
X204064200Y-108100400D02*
X204064200Y-108725400D01*
X207104200Y-108030400D02*
X207009200Y-108030400D01*
X208079200Y-107055400D02*
X207104200Y-108030400D01*
X208199200Y-107055400D02*
X208079200Y-107055400D01*
X209019200Y-106235400D02*
X208199200Y-107055400D01*
X208524200Y-105000400D02*
X209019200Y-105495400D01*
X209019200Y-105495400D02*
X209019200Y-106235400D01*
X208379200Y-105905400D02*
X207399200Y-105905400D01*
X207399200Y-105905400D02*
X207319200Y-105985400D01*
X207319200Y-106750400D02*
X207319200Y-105985400D01*
X207009200Y-107060400D02*
X207319200Y-106750400D01*
X207319200Y-105985400D02*
X206479900Y-105985400D01*
X206064900Y-106400400D02*
X205264200Y-106400400D01*
X206479900Y-105985400D02*
X206064900Y-106400400D01*
X207319200Y-105015400D02*
X206509200Y-105015400D01*
X203609200Y-102570400D02*
X204389200Y-103350400D01*
X203609200Y-101650400D02*
X203609200Y-102570400D01*
X204584200Y-101575400D02*
X204584200Y-100530400D01*
X204569200Y-101590400D02*
X204584200Y-101575400D01*
X203049200Y-100530400D02*
X202779200Y-100800400D01*
X203614200Y-100530400D02*
X203049200Y-100530400D01*
X205773200Y-105859400D02*
X206197200Y-105435400D01*
X205773200Y-105900400D02*
X205773200Y-105859400D01*
X205773200Y-105900400D02*
X205264200Y-105900400D01*
X206509200Y-105123400D02*
X206509200Y-105015400D01*
X206197200Y-105435400D02*
X206509200Y-105123400D01*
X195991200Y-94523400D02*
X196347600Y-94167000D01*
X195639400Y-94523400D02*
X195991200Y-94523400D01*
X199409240Y-100082040D02*
X199409240Y-99307040D01*
X199322875Y-100168405D02*
X199409240Y-100082040D01*
X199179199Y-100168405D02*
X199322875Y-100168405D01*
D27*
X201099389Y-95038929D02*
X201092639Y-95045679D01*
X201246105Y-94980400D02*
X201099389Y-95038929D01*
X202845841Y-94895679D02*
X202761120Y-94980400D01*
X200909240Y-98522680D02*
X200909240Y-97388360D01*
X200909240Y-99347680D02*
X200909240Y-98522680D01*
X198409240Y-99347680D02*
X198409240Y-97343280D01*
D25*
X199409240Y-98572680D02*
X199400160Y-98563600D01*
X199409240Y-99347680D02*
X199409240Y-98572680D01*
X199400160Y-98563600D02*
X199400160Y-97759520D01*
X199909240Y-97250440D02*
X199909240Y-95847680D01*
X199400160Y-97759520D02*
X199909240Y-97250440D01*
D27*
X200909240Y-100695440D02*
X201014200Y-100800400D01*
X200909240Y-99347680D02*
X200909240Y-100695440D01*
X200909240Y-95229078D02*
X201099389Y-95038929D01*
X200909240Y-95847680D02*
X200909240Y-95229078D01*
X198409240Y-97343280D02*
X198409240Y-95847680D01*
X200909240Y-97388360D02*
X200909240Y-95847680D01*
D26*
X203752540Y-94863920D02*
X202835780Y-94863920D01*
D25*
X198076032Y-94932232D02*
X195984200Y-92840400D01*
X198612394Y-94932232D02*
X198076032Y-94932232D01*
X195984200Y-92840400D02*
X195984200Y-92420400D01*
X198909240Y-95229078D02*
X198612394Y-94932232D01*
X198909240Y-95847680D02*
X198909240Y-95229078D01*
X195659200Y-96102720D02*
X195559240Y-96202680D01*
X195639400Y-94523400D02*
X195639400Y-95400720D01*
X195009200Y-99692720D02*
X195559240Y-99142680D01*
X195009200Y-100570400D02*
X195009200Y-99692720D01*
X202409240Y-98572680D02*
X202409240Y-95847680D01*
X202409240Y-99347680D02*
X202409240Y-98572680D01*
X203404239Y-95847680D02*
X203759239Y-96202680D01*
X202409240Y-95847680D02*
X203404239Y-95847680D01*
X203554239Y-99347680D02*
X203759239Y-99142680D01*
X202409240Y-99347680D02*
X203554239Y-99347680D01*
X195764240Y-99347680D02*
X195559240Y-99142680D01*
X196909240Y-99347680D02*
X195764240Y-99347680D01*
X196554240Y-96202680D02*
X196909240Y-95847680D01*
X195559240Y-96202680D02*
X196554240Y-96202680D01*
X199909240Y-98572680D02*
X199908160Y-98571600D01*
X199909240Y-99347680D02*
X199909240Y-98572680D01*
X195334987Y-101712933D02*
X195950840Y-101097080D01*
X195334987Y-101779561D02*
X195334987Y-101712933D01*
X199877680Y-99379240D02*
X199909240Y-99347680D01*
X199877680Y-100543360D02*
X199877680Y-99379240D01*
X199928480Y-98553440D02*
X199928480Y-98059240D01*
X199909240Y-98572680D02*
X199928480Y-98553440D01*
X199390000Y-95866920D02*
X199409240Y-95847680D01*
X199390000Y-96901000D02*
X199390000Y-95866920D01*
X200409240Y-100791762D02*
X200409240Y-100082040D01*
X199800602Y-101400400D02*
X200409240Y-100791762D01*
X200409240Y-100082040D02*
X200409240Y-99307040D01*
X198889200Y-101400400D02*
X199800602Y-101400400D01*
D26*
X203752540Y-94863920D02*
X205675338Y-94863920D01*
X203789280Y-94869000D02*
X203789280Y-94320360D01*
X202143099Y-94863920D02*
X201873859Y-94863920D01*
X202835780Y-94863920D02*
X202143099Y-94863920D01*
D27*
X201754948Y-94982831D02*
X201247287Y-94982831D01*
X201873859Y-94863920D02*
X201754948Y-94982831D01*
X204064200Y-105200400D02*
X204064200Y-104425400D01*
X204229600Y-104190800D02*
X203763880Y-104190800D01*
X204564200Y-104525400D02*
X204229600Y-104190800D01*
D25*
X203864200Y-104225400D02*
X203763880Y-104190800D01*
D27*
X204564200Y-105200400D02*
X204564200Y-104525400D01*
D25*
X203763880Y-104190800D02*
X203506878Y-103868078D01*
X191759400Y-93878400D02*
X192379501Y-93878400D01*
D27*
X195639400Y-96122520D02*
X195559240Y-96202680D01*
X195639400Y-95400720D02*
X195639400Y-96122520D01*
D25*
X193084400Y-95498400D02*
X193104200Y-95518200D01*
X191399200Y-95178200D02*
X191379400Y-95158400D01*
X204300200Y-111396400D02*
X204208899Y-111396400D01*
X204604978Y-111091622D02*
X204300200Y-111396400D01*
X209622346Y-105941692D02*
X209622346Y-106963254D01*
X211175600Y-102133400D02*
X211175600Y-104373339D01*
X210603199Y-101550399D02*
X210603199Y-101560999D01*
X209753200Y-100700400D02*
X210603199Y-101550399D01*
X210603199Y-101560999D02*
X211175600Y-102133400D01*
X211175600Y-104373339D02*
X211168844Y-104395194D01*
X211168844Y-104395194D02*
X209622346Y-105941692D01*
X204208899Y-111396400D02*
X202682200Y-111396400D01*
X209622346Y-106963254D02*
X205679376Y-110906224D01*
X205679376Y-110906224D02*
X205536986Y-110989541D01*
X205536986Y-110989541D02*
X205354847Y-111091622D01*
X205354847Y-111091622D02*
X204604978Y-111091622D01*
D26*
X207213200Y-96423480D02*
X207213200Y-98160400D01*
X205685399Y-94895679D02*
X207213200Y-96423480D01*
D25*
X209494200Y-103499400D02*
X209753200Y-103240400D01*
X209494200Y-105000400D02*
X209494200Y-103499400D01*
X191414200Y-95875400D02*
X191399200Y-95860400D01*
X191414200Y-96200400D02*
X191414200Y-95875400D01*
X191399200Y-95290600D02*
X191434800Y-95326200D01*
X191434800Y-95326200D02*
X192047000Y-95326200D01*
X191399200Y-95290600D02*
X191399200Y-95178200D01*
X191399200Y-95860400D02*
X191399200Y-95290600D01*
X196909240Y-98572680D02*
X196909240Y-95847680D01*
X196909240Y-99347680D02*
X196909240Y-98572680D01*
G36*
X196650530Y-91939905D02*
G01*
X196644922Y-91965851D01*
X196645084Y-91977406D01*
X196645968Y-92044580D01*
X196645881Y-92045175D01*
X196645994Y-92046569D01*
X196646005Y-92047381D01*
X196646088Y-92047725D01*
X196646818Y-92056705D01*
X196675552Y-92412620D01*
X196677412Y-92418532D01*
X196677221Y-92424844D01*
X196679488Y-92436243D01*
X196748929Y-92786441D01*
X196751456Y-92792101D01*
X196751995Y-92798425D01*
X196755538Y-92809407D01*
X196864786Y-93149355D01*
X196867947Y-93154687D01*
X196869198Y-93160852D01*
X196869427Y-93161356D01*
X196490801Y-92782730D01*
X196550204Y-92693826D01*
X196582918Y-92529361D01*
X196582918Y-92170639D01*
X196550204Y-92006174D01*
X196451519Y-91858481D01*
X196303826Y-91759796D01*
X196139361Y-91727082D01*
X195830639Y-91727082D01*
X195666174Y-91759796D01*
X195534501Y-91847777D01*
X195517567Y-91822433D01*
X195353336Y-91712697D01*
X195169362Y-91676102D01*
X195041000Y-91676102D01*
X195041000Y-92376000D01*
X194366102Y-92376000D01*
X194366102Y-92529362D01*
X194402697Y-92713336D01*
X194461461Y-92801283D01*
X193932849Y-92801283D01*
X193855573Y-92749649D01*
X193729151Y-92724502D01*
X193345400Y-92724502D01*
X193345400Y-93904400D01*
X193293400Y-93904400D01*
X193293400Y-92724502D01*
X192909649Y-92724502D01*
X192783227Y-92749649D01*
X192705951Y-92801283D01*
X192004851Y-92801283D01*
X191897937Y-92822549D01*
X191887682Y-92829401D01*
X191882647Y-92829401D01*
X191860930Y-92821775D01*
X191792397Y-92829401D01*
X191769631Y-92829401D01*
X191747949Y-92834347D01*
X191679963Y-92841913D01*
X191660067Y-92854394D01*
X191637124Y-92859627D01*
X191583105Y-92902673D01*
X191564199Y-92914531D01*
X191548414Y-92930316D01*
X191494757Y-92973073D01*
X191484600Y-92994130D01*
X191145380Y-93333350D01*
X191124630Y-93343315D01*
X191081557Y-93397175D01*
X191065466Y-93413266D01*
X191053635Y-93432091D01*
X191010908Y-93485518D01*
X191005665Y-93508413D01*
X190993143Y-93528335D01*
X190985385Y-93596959D01*
X190980400Y-93618724D01*
X190980400Y-93641051D01*
X190972693Y-93709221D01*
X190980400Y-93731292D01*
X190980401Y-94084714D01*
X190980401Y-94095840D01*
X190972693Y-94164020D01*
X190980401Y-94186093D01*
X190980400Y-95090354D01*
X190972774Y-95112071D01*
X190980400Y-95180604D01*
X190980400Y-95203369D01*
X190985346Y-95225051D01*
X190992912Y-95293037D01*
X190999098Y-95302897D01*
X191000200Y-95312804D01*
X191000200Y-95336607D01*
X191000201Y-95336611D01*
X191000200Y-95792354D01*
X190992574Y-95814071D01*
X191000200Y-95882604D01*
X191000200Y-95905369D01*
X191005146Y-95927051D01*
X191012712Y-95995036D01*
X191015200Y-95999002D01*
X191015200Y-96035128D01*
X190443086Y-96607243D01*
X190407355Y-96599648D01*
X190229237Y-96610855D01*
X190060693Y-96669548D01*
X189914142Y-96771403D01*
X189800381Y-96908917D01*
X189727790Y-97071959D01*
X189701719Y-97248515D01*
X189712946Y-97337383D01*
X189472781Y-97577548D01*
X189452030Y-97587513D01*
X189408956Y-97641374D01*
X189392865Y-97657465D01*
X189381034Y-97676290D01*
X189338307Y-97729717D01*
X189333064Y-97752612D01*
X189320542Y-97772534D01*
X189312784Y-97841158D01*
X189307799Y-97862923D01*
X189307799Y-97885250D01*
X189300092Y-97953421D01*
X189307799Y-97975491D01*
X189307800Y-103647941D01*
X189302450Y-103661352D01*
X189307800Y-103737833D01*
X189307800Y-103769585D01*
X189311004Y-103783630D01*
X189311987Y-103797675D01*
X189320896Y-103826999D01*
X189338026Y-103902094D01*
X189347219Y-103913631D01*
X189348101Y-103916533D01*
X189348103Y-103916536D01*
X189356065Y-103942739D01*
X189356404Y-103946544D01*
X189369099Y-103985634D01*
X189381067Y-104025017D01*
X189382972Y-104028350D01*
X189420483Y-104143850D01*
X189420895Y-104147647D01*
X189434315Y-104186437D01*
X189447041Y-104225623D01*
X189449017Y-104228932D01*
X189486714Y-104337891D01*
X189491866Y-104384191D01*
X189529140Y-104443609D01*
X189587877Y-104537850D01*
X189627480Y-104562949D01*
X190273353Y-105208824D01*
X190273354Y-105932320D01*
X190273265Y-106034224D01*
X190293293Y-106075932D01*
X190303581Y-106121030D01*
X190332189Y-106156933D01*
X190352065Y-106198322D01*
X190388196Y-106227217D01*
X190417026Y-106263396D01*
X190458375Y-106283342D01*
X190494267Y-106312045D01*
X190511527Y-106315998D01*
X193406200Y-109210672D01*
X193406200Y-109351020D01*
X193478449Y-109549519D01*
X193614230Y-109711339D01*
X193797170Y-109816959D01*
X194005200Y-109853640D01*
X194213230Y-109816959D01*
X194292142Y-109771400D01*
X194515862Y-109771400D01*
X194577681Y-109863919D01*
X194725374Y-109962604D01*
X194889839Y-109995318D01*
X195198561Y-109995318D01*
X195363026Y-109962604D01*
X195510719Y-109863919D01*
X195529200Y-109836260D01*
X195547681Y-109863919D01*
X195695374Y-109962604D01*
X195723827Y-109968264D01*
X195758872Y-110012243D01*
X195779928Y-110022400D01*
X196887949Y-111130422D01*
X196897912Y-111151169D01*
X196951759Y-111194232D01*
X196967862Y-111210334D01*
X196986691Y-111222168D01*
X197040114Y-111264892D01*
X197063012Y-111270136D01*
X197082934Y-111282658D01*
X197151556Y-111290415D01*
X197173321Y-111295400D01*
X197195648Y-111295400D01*
X197228302Y-111299092D01*
X197228302Y-111370400D01*
X199336098Y-111370400D01*
X199336098Y-111236649D01*
X199310951Y-111110227D01*
X199282755Y-111068029D01*
X199285118Y-111056150D01*
X199285118Y-110736650D01*
X199267167Y-110646400D01*
X199285118Y-110556150D01*
X199285118Y-110236650D01*
X199267167Y-110146400D01*
X199285118Y-110056150D01*
X199285118Y-109736650D01*
X199270188Y-109661588D01*
X199288838Y-109665298D01*
X199417200Y-109665298D01*
X199417200Y-109017400D01*
X199469200Y-109017400D01*
X199469200Y-109665298D01*
X199597562Y-109665298D01*
X199781536Y-109628703D01*
X199945767Y-109518967D01*
X200055503Y-109354736D01*
X200092098Y-109170762D01*
X200092098Y-109017400D01*
X199469200Y-109017400D01*
X199417200Y-109017400D01*
X199417200Y-108317502D01*
X199288838Y-108317502D01*
X199104864Y-108354097D01*
X199089039Y-108364671D01*
X199119404Y-108319226D01*
X199152118Y-108154761D01*
X199152118Y-107796400D01*
X199445302Y-107796400D01*
X199445302Y-107949762D01*
X199481897Y-108133736D01*
X199591633Y-108297967D01*
X199630749Y-108324103D01*
X199597562Y-108317502D01*
X199469200Y-108317502D01*
X199469200Y-108965400D01*
X200092098Y-108965400D01*
X200092098Y-108812038D01*
X200055503Y-108628064D01*
X199945767Y-108463833D01*
X199906651Y-108437697D01*
X199939838Y-108444298D01*
X200068200Y-108444298D01*
X200068200Y-107796400D01*
X199445302Y-107796400D01*
X199152118Y-107796400D01*
X199152118Y-107796039D01*
X199119404Y-107631574D01*
X199067887Y-107554474D01*
X199213026Y-107525604D01*
X199360719Y-107426919D01*
X199405834Y-107359400D01*
X199513745Y-107359400D01*
X199481897Y-107407064D01*
X199445302Y-107591038D01*
X199445302Y-107744400D01*
X200120200Y-107744400D01*
X200120200Y-108444298D01*
X200248562Y-108444298D01*
X200432536Y-108407703D01*
X200596767Y-108297967D01*
X200613701Y-108272623D01*
X200745374Y-108360604D01*
X200909839Y-108393318D01*
X201218561Y-108393318D01*
X201377861Y-108361631D01*
X201445415Y-108429186D01*
X201455380Y-108449937D01*
X201509232Y-108493004D01*
X201525332Y-108509103D01*
X201544156Y-108520933D01*
X201597582Y-108563660D01*
X201620478Y-108568903D01*
X201640400Y-108581425D01*
X201709026Y-108589183D01*
X201730790Y-108594168D01*
X201753117Y-108594168D01*
X201821288Y-108601875D01*
X201829368Y-108599054D01*
X201881436Y-108661107D01*
X202064376Y-108766727D01*
X202272406Y-108803408D01*
X202480436Y-108766727D01*
X202650312Y-108668650D01*
X202698633Y-108740967D01*
X202797536Y-108807052D01*
X202898247Y-108827084D01*
X202859920Y-108865411D01*
X201992233Y-108865411D01*
X201970516Y-108857785D01*
X201901979Y-108865411D01*
X201879217Y-108865411D01*
X201857538Y-108870357D01*
X201789550Y-108877922D01*
X201769653Y-108890404D01*
X201746709Y-108895638D01*
X201692692Y-108938682D01*
X201673785Y-108950542D01*
X201658001Y-108966326D01*
X201604343Y-109009083D01*
X201594185Y-109030142D01*
X201264183Y-109360145D01*
X201243432Y-109370110D01*
X201200365Y-109423962D01*
X201184266Y-109440062D01*
X201172431Y-109458892D01*
X201129709Y-109512312D01*
X201124465Y-109535209D01*
X201111943Y-109555132D01*
X201104183Y-109623767D01*
X201099201Y-109645520D01*
X201099201Y-109667838D01*
X201091493Y-109736018D01*
X201099201Y-109758091D01*
X201099200Y-111544354D01*
X201091574Y-111566071D01*
X201099200Y-111634604D01*
X201099200Y-111657369D01*
X201104146Y-111679051D01*
X201111712Y-111747037D01*
X201124193Y-111766933D01*
X201129426Y-111789876D01*
X201172472Y-111843896D01*
X201184331Y-111862801D01*
X201200112Y-111878583D01*
X201242872Y-111932244D01*
X201263932Y-111942402D01*
X201451947Y-112130418D01*
X201461912Y-112151169D01*
X201515764Y-112194236D01*
X201531864Y-112210335D01*
X201550688Y-112222165D01*
X201604114Y-112264892D01*
X201627010Y-112270135D01*
X201646932Y-112282657D01*
X201715558Y-112290415D01*
X201737322Y-112295400D01*
X201759649Y-112295400D01*
X201827820Y-112303107D01*
X201828071Y-112303019D01*
X201865536Y-112328052D01*
X201972450Y-112349318D01*
X201986656Y-112349318D01*
X201438147Y-112433563D01*
X200769531Y-112497141D01*
X200098364Y-112522124D01*
X199426880Y-112508432D01*
X198757262Y-112456106D01*
X198091840Y-112365330D01*
X198009985Y-112349318D01*
X198991950Y-112349318D01*
X199098864Y-112328052D01*
X199197767Y-112261967D01*
X199263852Y-112163064D01*
X199285118Y-112056150D01*
X199285118Y-111736650D01*
X199282755Y-111724771D01*
X199310951Y-111682573D01*
X199336098Y-111556151D01*
X199336098Y-111422400D01*
X197228302Y-111422400D01*
X197228302Y-111556151D01*
X197253449Y-111682573D01*
X197281645Y-111724771D01*
X197279282Y-111736650D01*
X197279282Y-112056150D01*
X197300548Y-112163064D01*
X197332375Y-112210696D01*
X196782067Y-112069727D01*
X196142100Y-111865879D01*
X195514946Y-111625538D01*
X194902677Y-111349497D01*
X194307281Y-111038652D01*
X193730799Y-110694070D01*
X193175095Y-110316864D01*
X192642009Y-109908284D01*
X192133365Y-109469728D01*
X191650774Y-109002583D01*
X191195897Y-108508462D01*
X190770205Y-107988955D01*
X190375134Y-107445823D01*
X190011973Y-106880834D01*
X189681940Y-106295880D01*
X189386132Y-105692910D01*
X189125510Y-105073876D01*
X188900970Y-104440914D01*
X188713226Y-103796031D01*
X188562922Y-103141442D01*
X188450550Y-102479297D01*
X188376476Y-101811740D01*
X188340954Y-101141068D01*
X188344097Y-100469418D01*
X188385895Y-99799119D01*
X188466216Y-99132278D01*
X188584784Y-98471193D01*
X188741207Y-97818047D01*
X188934971Y-97174979D01*
X189165435Y-96544122D01*
X189431832Y-95927573D01*
X189733274Y-95327390D01*
X190068773Y-94745543D01*
X190437190Y-94184003D01*
X190837341Y-93644573D01*
X191267868Y-93129086D01*
X191727371Y-92639221D01*
X192214298Y-92176630D01*
X192221380Y-92170638D01*
X194366102Y-92170638D01*
X194366102Y-92324000D01*
X194989000Y-92324000D01*
X194989000Y-91676102D01*
X194860638Y-91676102D01*
X194676664Y-91712697D01*
X194512433Y-91822433D01*
X194402697Y-91986664D01*
X194366102Y-92170638D01*
X192221380Y-92170638D01*
X192727032Y-91742846D01*
X193263916Y-91339276D01*
X193823120Y-90967294D01*
X194402809Y-90628118D01*
X195001085Y-90322862D01*
X195615911Y-90052565D01*
X196245295Y-89818102D01*
X196673802Y-89686014D01*
X196650530Y-91939905D01*
G37*
X196650530Y-91939905D02*
X196644922Y-91965851D01*
X196645084Y-91977406D01*
X196645968Y-92044580D01*
X196645881Y-92045175D01*
X196645994Y-92046569D01*
X196646005Y-92047381D01*
X196646088Y-92047725D01*
X196646818Y-92056705D01*
X196675552Y-92412620D01*
X196677412Y-92418532D01*
X196677221Y-92424844D01*
X196679488Y-92436243D01*
X196748929Y-92786441D01*
X196751456Y-92792101D01*
X196751995Y-92798425D01*
X196755538Y-92809407D01*
X196864786Y-93149355D01*
X196867947Y-93154687D01*
X196869198Y-93160852D01*
X196869427Y-93161356D01*
X196490801Y-92782730D01*
X196550204Y-92693826D01*
X196582918Y-92529361D01*
X196582918Y-92170639D01*
X196550204Y-92006174D01*
X196451519Y-91858481D01*
X196303826Y-91759796D01*
X196139361Y-91727082D01*
X195830639Y-91727082D01*
X195666174Y-91759796D01*
X195534501Y-91847777D01*
X195517567Y-91822433D01*
X195353336Y-91712697D01*
X195169362Y-91676102D01*
X195041000Y-91676102D01*
X195041000Y-92376000D01*
X194366102Y-92376000D01*
X194366102Y-92529362D01*
X194402697Y-92713336D01*
X194461461Y-92801283D01*
X193932849Y-92801283D01*
X193855573Y-92749649D01*
X193729151Y-92724502D01*
X193345400Y-92724502D01*
X193345400Y-93904400D01*
X193293400Y-93904400D01*
X193293400Y-92724502D01*
X192909649Y-92724502D01*
X192783227Y-92749649D01*
X192705951Y-92801283D01*
X192004851Y-92801283D01*
X191897937Y-92822549D01*
X191887682Y-92829401D01*
X191882647Y-92829401D01*
X191860930Y-92821775D01*
X191792397Y-92829401D01*
X191769631Y-92829401D01*
X191747949Y-92834347D01*
X191679963Y-92841913D01*
X191660067Y-92854394D01*
X191637124Y-92859627D01*
X191583105Y-92902673D01*
X191564199Y-92914531D01*
X191548414Y-92930316D01*
X191494757Y-92973073D01*
X191484600Y-92994130D01*
X191145380Y-93333350D01*
X191124630Y-93343315D01*
X191081557Y-93397175D01*
X191065466Y-93413266D01*
X191053635Y-93432091D01*
X191010908Y-93485518D01*
X191005665Y-93508413D01*
X190993143Y-93528335D01*
X190985385Y-93596959D01*
X190980400Y-93618724D01*
X190980400Y-93641051D01*
X190972693Y-93709221D01*
X190980400Y-93731292D01*
X190980401Y-94084714D01*
X190980401Y-94095840D01*
X190972693Y-94164020D01*
X190980401Y-94186093D01*
X190980400Y-95090354D01*
X190972774Y-95112071D01*
X190980400Y-95180604D01*
X190980400Y-95203369D01*
X190985346Y-95225051D01*
X190992912Y-95293037D01*
X190999098Y-95302897D01*
X191000200Y-95312804D01*
X191000200Y-95336607D01*
X191000201Y-95336611D01*
X191000200Y-95792354D01*
X190992574Y-95814071D01*
X191000200Y-95882604D01*
X191000200Y-95905369D01*
X191005146Y-95927051D01*
X191012712Y-95995036D01*
X191015200Y-95999002D01*
X191015200Y-96035128D01*
X190443086Y-96607243D01*
X190407355Y-96599648D01*
X190229237Y-96610855D01*
X190060693Y-96669548D01*
X189914142Y-96771403D01*
X189800381Y-96908917D01*
X189727790Y-97071959D01*
X189701719Y-97248515D01*
X189712946Y-97337383D01*
X189472781Y-97577548D01*
X189452030Y-97587513D01*
X189408956Y-97641374D01*
X189392865Y-97657465D01*
X189381034Y-97676290D01*
X189338307Y-97729717D01*
X189333064Y-97752612D01*
X189320542Y-97772534D01*
X189312784Y-97841158D01*
X189307799Y-97862923D01*
X189307799Y-97885250D01*
X189300092Y-97953421D01*
X189307799Y-97975491D01*
X189307800Y-103647941D01*
X189302450Y-103661352D01*
X189307800Y-103737833D01*
X189307800Y-103769585D01*
X189311004Y-103783630D01*
X189311987Y-103797675D01*
X189320896Y-103826999D01*
X189338026Y-103902094D01*
X189347219Y-103913631D01*
X189348101Y-103916533D01*
X189348103Y-103916536D01*
X189356065Y-103942739D01*
X189356404Y-103946544D01*
X189369099Y-103985634D01*
X189381067Y-104025017D01*
X189382972Y-104028350D01*
X189420483Y-104143850D01*
X189420895Y-104147647D01*
X189434315Y-104186437D01*
X189447041Y-104225623D01*
X189449017Y-104228932D01*
X189486714Y-104337891D01*
X189491866Y-104384191D01*
X189529140Y-104443609D01*
X189587877Y-104537850D01*
X189627480Y-104562949D01*
X190273353Y-105208824D01*
X190273354Y-105932320D01*
X190273265Y-106034224D01*
X190293293Y-106075932D01*
X190303581Y-106121030D01*
X190332189Y-106156933D01*
X190352065Y-106198322D01*
X190388196Y-106227217D01*
X190417026Y-106263396D01*
X190458375Y-106283342D01*
X190494267Y-106312045D01*
X190511527Y-106315998D01*
X193406200Y-109210672D01*
X193406200Y-109351020D01*
X193478449Y-109549519D01*
X193614230Y-109711339D01*
X193797170Y-109816959D01*
X194005200Y-109853640D01*
X194213230Y-109816959D01*
X194292142Y-109771400D01*
X194515862Y-109771400D01*
X194577681Y-109863919D01*
X194725374Y-109962604D01*
X194889839Y-109995318D01*
X195198561Y-109995318D01*
X195363026Y-109962604D01*
X195510719Y-109863919D01*
X195529200Y-109836260D01*
X195547681Y-109863919D01*
X195695374Y-109962604D01*
X195723827Y-109968264D01*
X195758872Y-110012243D01*
X195779928Y-110022400D01*
X196887949Y-111130422D01*
X196897912Y-111151169D01*
X196951759Y-111194232D01*
X196967862Y-111210334D01*
X196986691Y-111222168D01*
X197040114Y-111264892D01*
X197063012Y-111270136D01*
X197082934Y-111282658D01*
X197151556Y-111290415D01*
X197173321Y-111295400D01*
X197195648Y-111295400D01*
X197228302Y-111299092D01*
X197228302Y-111370400D01*
X199336098Y-111370400D01*
X199336098Y-111236649D01*
X199310951Y-111110227D01*
X199282755Y-111068029D01*
X199285118Y-111056150D01*
X199285118Y-110736650D01*
X199267167Y-110646400D01*
X199285118Y-110556150D01*
X199285118Y-110236650D01*
X199267167Y-110146400D01*
X199285118Y-110056150D01*
X199285118Y-109736650D01*
X199270188Y-109661588D01*
X199288838Y-109665298D01*
X199417200Y-109665298D01*
X199417200Y-109017400D01*
X199469200Y-109017400D01*
X199469200Y-109665298D01*
X199597562Y-109665298D01*
X199781536Y-109628703D01*
X199945767Y-109518967D01*
X200055503Y-109354736D01*
X200092098Y-109170762D01*
X200092098Y-109017400D01*
X199469200Y-109017400D01*
X199417200Y-109017400D01*
X199417200Y-108317502D01*
X199288838Y-108317502D01*
X199104864Y-108354097D01*
X199089039Y-108364671D01*
X199119404Y-108319226D01*
X199152118Y-108154761D01*
X199152118Y-107796400D01*
X199445302Y-107796400D01*
X199445302Y-107949762D01*
X199481897Y-108133736D01*
X199591633Y-108297967D01*
X199630749Y-108324103D01*
X199597562Y-108317502D01*
X199469200Y-108317502D01*
X199469200Y-108965400D01*
X200092098Y-108965400D01*
X200092098Y-108812038D01*
X200055503Y-108628064D01*
X199945767Y-108463833D01*
X199906651Y-108437697D01*
X199939838Y-108444298D01*
X200068200Y-108444298D01*
X200068200Y-107796400D01*
X199445302Y-107796400D01*
X199152118Y-107796400D01*
X199152118Y-107796039D01*
X199119404Y-107631574D01*
X199067887Y-107554474D01*
X199213026Y-107525604D01*
X199360719Y-107426919D01*
X199405834Y-107359400D01*
X199513745Y-107359400D01*
X199481897Y-107407064D01*
X199445302Y-107591038D01*
X199445302Y-107744400D01*
X200120200Y-107744400D01*
X200120200Y-108444298D01*
X200248562Y-108444298D01*
X200432536Y-108407703D01*
X200596767Y-108297967D01*
X200613701Y-108272623D01*
X200745374Y-108360604D01*
X200909839Y-108393318D01*
X201218561Y-108393318D01*
X201377861Y-108361631D01*
X201445415Y-108429186D01*
X201455380Y-108449937D01*
X201509232Y-108493004D01*
X201525332Y-108509103D01*
X201544156Y-108520933D01*
X201597582Y-108563660D01*
X201620478Y-108568903D01*
X201640400Y-108581425D01*
X201709026Y-108589183D01*
X201730790Y-108594168D01*
X201753117Y-108594168D01*
X201821288Y-108601875D01*
X201829368Y-108599054D01*
X201881436Y-108661107D01*
X202064376Y-108766727D01*
X202272406Y-108803408D01*
X202480436Y-108766727D01*
X202650312Y-108668650D01*
X202698633Y-108740967D01*
X202797536Y-108807052D01*
X202898247Y-108827084D01*
X202859920Y-108865411D01*
X201992233Y-108865411D01*
X201970516Y-108857785D01*
X201901979Y-108865411D01*
X201879217Y-108865411D01*
X201857538Y-108870357D01*
X201789550Y-108877922D01*
X201769653Y-108890404D01*
X201746709Y-108895638D01*
X201692692Y-108938682D01*
X201673785Y-108950542D01*
X201658001Y-108966326D01*
X201604343Y-109009083D01*
X201594185Y-109030142D01*
X201264183Y-109360145D01*
X201243432Y-109370110D01*
X201200365Y-109423962D01*
X201184266Y-109440062D01*
X201172431Y-109458892D01*
X201129709Y-109512312D01*
X201124465Y-109535209D01*
X201111943Y-109555132D01*
X201104183Y-109623767D01*
X201099201Y-109645520D01*
X201099201Y-109667838D01*
X201091493Y-109736018D01*
X201099201Y-109758091D01*
X201099200Y-111544354D01*
X201091574Y-111566071D01*
X201099200Y-111634604D01*
X201099200Y-111657369D01*
X201104146Y-111679051D01*
X201111712Y-111747037D01*
X201124193Y-111766933D01*
X201129426Y-111789876D01*
X201172472Y-111843896D01*
X201184331Y-111862801D01*
X201200112Y-111878583D01*
X201242872Y-111932244D01*
X201263932Y-111942402D01*
X201451947Y-112130418D01*
X201461912Y-112151169D01*
X201515764Y-112194236D01*
X201531864Y-112210335D01*
X201550688Y-112222165D01*
X201604114Y-112264892D01*
X201627010Y-112270135D01*
X201646932Y-112282657D01*
X201715558Y-112290415D01*
X201737322Y-112295400D01*
X201759649Y-112295400D01*
X201827820Y-112303107D01*
X201828071Y-112303019D01*
X201865536Y-112328052D01*
X201972450Y-112349318D01*
X201986656Y-112349318D01*
X201438147Y-112433563D01*
X200769531Y-112497141D01*
X200098364Y-112522124D01*
X199426880Y-112508432D01*
X198757262Y-112456106D01*
X198091840Y-112365330D01*
X198009985Y-112349318D01*
X198991950Y-112349318D01*
X199098864Y-112328052D01*
X199197767Y-112261967D01*
X199263852Y-112163064D01*
X199285118Y-112056150D01*
X199285118Y-111736650D01*
X199282755Y-111724771D01*
X199310951Y-111682573D01*
X199336098Y-111556151D01*
X199336098Y-111422400D01*
X197228302Y-111422400D01*
X197228302Y-111556151D01*
X197253449Y-111682573D01*
X197281645Y-111724771D01*
X197279282Y-111736650D01*
X197279282Y-112056150D01*
X197300548Y-112163064D01*
X197332375Y-112210696D01*
X196782067Y-112069727D01*
X196142100Y-111865879D01*
X195514946Y-111625538D01*
X194902677Y-111349497D01*
X194307281Y-111038652D01*
X193730799Y-110694070D01*
X193175095Y-110316864D01*
X192642009Y-109908284D01*
X192133365Y-109469728D01*
X191650774Y-109002583D01*
X191195897Y-108508462D01*
X190770205Y-107988955D01*
X190375134Y-107445823D01*
X190011973Y-106880834D01*
X189681940Y-106295880D01*
X189386132Y-105692910D01*
X189125510Y-105073876D01*
X188900970Y-104440914D01*
X188713226Y-103796031D01*
X188562922Y-103141442D01*
X188450550Y-102479297D01*
X188376476Y-101811740D01*
X188340954Y-101141068D01*
X188344097Y-100469418D01*
X188385895Y-99799119D01*
X188466216Y-99132278D01*
X188584784Y-98471193D01*
X188741207Y-97818047D01*
X188934971Y-97174979D01*
X189165435Y-96544122D01*
X189431832Y-95927573D01*
X189733274Y-95327390D01*
X190068773Y-94745543D01*
X190437190Y-94184003D01*
X190837341Y-93644573D01*
X191267868Y-93129086D01*
X191727371Y-92639221D01*
X192214298Y-92176630D01*
X192221380Y-92170638D01*
X194366102Y-92170638D01*
X194366102Y-92324000D01*
X194989000Y-92324000D01*
X194989000Y-91676102D01*
X194860638Y-91676102D01*
X194676664Y-91712697D01*
X194512433Y-91822433D01*
X194402697Y-91986664D01*
X194366102Y-92170638D01*
X192221380Y-92170638D01*
X192727032Y-91742846D01*
X193263916Y-91339276D01*
X193823120Y-90967294D01*
X194402809Y-90628118D01*
X195001085Y-90322862D01*
X195615911Y-90052565D01*
X196245295Y-89818102D01*
X196673802Y-89686014D01*
X196650530Y-91939905D01*
G36*
X205433549Y-110587780D02*
G01*
X205338697Y-110643281D01*
X205250660Y-110692622D01*
X204673024Y-110692622D01*
X204651307Y-110684996D01*
X204582774Y-110692622D01*
X204560008Y-110692622D01*
X204538326Y-110697568D01*
X204470340Y-110705134D01*
X204450444Y-110717615D01*
X204427501Y-110722848D01*
X204373482Y-110765894D01*
X204354576Y-110777752D01*
X204338791Y-110793537D01*
X204285134Y-110836294D01*
X204274976Y-110857353D01*
X204134930Y-110997400D01*
X203685118Y-110997400D01*
X203685118Y-110736650D01*
X203667167Y-110646400D01*
X203685118Y-110556150D01*
X203685118Y-110236650D01*
X203682755Y-110224771D01*
X203710951Y-110182573D01*
X203736098Y-110056151D01*
X203736098Y-109922400D01*
X202656200Y-109922400D01*
X202656200Y-109870400D01*
X203736098Y-109870400D01*
X203736098Y-109736649D01*
X203710951Y-109610227D01*
X203633815Y-109494785D01*
X203518373Y-109417649D01*
X203449852Y-109404019D01*
X203798219Y-109055652D01*
X203814370Y-109047896D01*
X203829931Y-109055402D01*
X204058947Y-109284418D01*
X204068912Y-109305169D01*
X204122763Y-109348235D01*
X204138861Y-109364333D01*
X204157690Y-109376167D01*
X204211115Y-109418892D01*
X204234010Y-109424135D01*
X204253932Y-109436657D01*
X204322556Y-109444415D01*
X204344321Y-109449400D01*
X204366648Y-109449400D01*
X204434819Y-109457107D01*
X204456889Y-109449400D01*
X205921154Y-109449400D01*
X205942871Y-109457026D01*
X206011404Y-109449400D01*
X206034169Y-109449400D01*
X206055857Y-109444453D01*
X206123835Y-109436888D01*
X206143732Y-109424407D01*
X206166679Y-109419172D01*
X206220698Y-109376126D01*
X206239601Y-109364269D01*
X206255381Y-109348489D01*
X206309045Y-109305727D01*
X206319202Y-109284669D01*
X206975554Y-108628318D01*
X207188561Y-108628318D01*
X207353026Y-108595604D01*
X207500719Y-108496919D01*
X207599404Y-108349226D01*
X207632118Y-108184761D01*
X207632118Y-108066753D01*
X208225554Y-107473318D01*
X208548010Y-107473318D01*
X205433549Y-110587780D01*
G37*
X205433549Y-110587780D02*
X205338697Y-110643281D01*
X205250660Y-110692622D01*
X204673024Y-110692622D01*
X204651307Y-110684996D01*
X204582774Y-110692622D01*
X204560008Y-110692622D01*
X204538326Y-110697568D01*
X204470340Y-110705134D01*
X204450444Y-110717615D01*
X204427501Y-110722848D01*
X204373482Y-110765894D01*
X204354576Y-110777752D01*
X204338791Y-110793537D01*
X204285134Y-110836294D01*
X204274976Y-110857353D01*
X204134930Y-110997400D01*
X203685118Y-110997400D01*
X203685118Y-110736650D01*
X203667167Y-110646400D01*
X203685118Y-110556150D01*
X203685118Y-110236650D01*
X203682755Y-110224771D01*
X203710951Y-110182573D01*
X203736098Y-110056151D01*
X203736098Y-109922400D01*
X202656200Y-109922400D01*
X202656200Y-109870400D01*
X203736098Y-109870400D01*
X203736098Y-109736649D01*
X203710951Y-109610227D01*
X203633815Y-109494785D01*
X203518373Y-109417649D01*
X203449852Y-109404019D01*
X203798219Y-109055652D01*
X203814370Y-109047896D01*
X203829931Y-109055402D01*
X204058947Y-109284418D01*
X204068912Y-109305169D01*
X204122763Y-109348235D01*
X204138861Y-109364333D01*
X204157690Y-109376167D01*
X204211115Y-109418892D01*
X204234010Y-109424135D01*
X204253932Y-109436657D01*
X204322556Y-109444415D01*
X204344321Y-109449400D01*
X204366648Y-109449400D01*
X204434819Y-109457107D01*
X204456889Y-109449400D01*
X205921154Y-109449400D01*
X205942871Y-109457026D01*
X206011404Y-109449400D01*
X206034169Y-109449400D01*
X206055857Y-109444453D01*
X206123835Y-109436888D01*
X206143732Y-109424407D01*
X206166679Y-109419172D01*
X206220698Y-109376126D01*
X206239601Y-109364269D01*
X206255381Y-109348489D01*
X206309045Y-109305727D01*
X206319202Y-109284669D01*
X206975554Y-108628318D01*
X207188561Y-108628318D01*
X207353026Y-108595604D01*
X207500719Y-108496919D01*
X207599404Y-108349226D01*
X207632118Y-108184761D01*
X207632118Y-108066753D01*
X208225554Y-107473318D01*
X208548010Y-107473318D01*
X205433549Y-110587780D01*
G36*
X205798232Y-107889577D02*
G01*
X205981172Y-107995197D01*
X206189202Y-108031878D01*
X206386282Y-107997128D01*
X206386282Y-108089046D01*
X205823929Y-108651400D01*
X205044975Y-108651400D01*
X205068098Y-108535151D01*
X205068098Y-108126400D01*
X204538200Y-108126400D01*
X204538200Y-108074400D01*
X205068098Y-108074400D01*
X205068098Y-107853318D01*
X205698950Y-107853318D01*
X205757958Y-107841581D01*
X205798232Y-107889577D01*
G37*
X205798232Y-107889577D02*
X205981172Y-107995197D01*
X206189202Y-108031878D01*
X206386282Y-107997128D01*
X206386282Y-108089046D01*
X205823929Y-108651400D01*
X205044975Y-108651400D01*
X205068098Y-108535151D01*
X205068098Y-108126400D01*
X204538200Y-108126400D01*
X204538200Y-108074400D01*
X205068098Y-108074400D01*
X205068098Y-107853318D01*
X205698950Y-107853318D01*
X205757958Y-107841581D01*
X205798232Y-107889577D01*
G36*
X190886119Y-104095549D02*
G01*
X190968669Y-103952567D01*
X191145687Y-104129585D01*
X191153641Y-104169573D01*
X191214203Y-104260211D01*
X191721079Y-104767088D01*
X191214203Y-105273964D01*
X191153641Y-105364601D01*
X191130436Y-105481265D01*
X191153641Y-105597929D01*
X191214203Y-105688566D01*
X191425982Y-105900345D01*
X191510972Y-105957134D01*
X191567757Y-106042119D01*
X191779536Y-106253898D01*
X191864521Y-106310683D01*
X191921310Y-106395673D01*
X192133089Y-106607452D01*
X192218076Y-106664239D01*
X192274863Y-106749226D01*
X192486642Y-106961005D01*
X192571632Y-107017794D01*
X192628417Y-107102779D01*
X192840196Y-107314558D01*
X192925181Y-107371343D01*
X192981970Y-107456333D01*
X193193749Y-107668112D01*
X193278739Y-107724901D01*
X193335524Y-107809886D01*
X193547303Y-108021665D01*
X193632288Y-108078450D01*
X193689077Y-108163440D01*
X193900856Y-108375219D01*
X193991493Y-108435781D01*
X194108157Y-108458986D01*
X194224821Y-108435781D01*
X194302354Y-108383975D01*
X194042578Y-108643751D01*
X194005200Y-108637160D01*
X193967823Y-108643751D01*
X191071353Y-105747282D01*
X191071353Y-105111599D01*
X191078979Y-105089882D01*
X191071353Y-105021349D01*
X191071353Y-104998583D01*
X191066407Y-104976901D01*
X191058841Y-104908915D01*
X191046360Y-104889019D01*
X191041127Y-104866076D01*
X190998084Y-104812061D01*
X190986221Y-104793150D01*
X190970434Y-104777363D01*
X190927680Y-104723709D01*
X190906625Y-104713553D01*
X190489658Y-104296586D01*
X190629931Y-104259000D01*
X190849349Y-104132319D01*
X190322431Y-103605400D01*
X190359200Y-103568631D01*
X190886119Y-104095549D01*
G37*
X190886119Y-104095549D02*
X190968669Y-103952567D01*
X191145687Y-104129585D01*
X191153641Y-104169573D01*
X191214203Y-104260211D01*
X191721079Y-104767088D01*
X191214203Y-105273964D01*
X191153641Y-105364601D01*
X191130436Y-105481265D01*
X191153641Y-105597929D01*
X191214203Y-105688566D01*
X191425982Y-105900345D01*
X191510972Y-105957134D01*
X191567757Y-106042119D01*
X191779536Y-106253898D01*
X191864521Y-106310683D01*
X191921310Y-106395673D01*
X192133089Y-106607452D01*
X192218076Y-106664239D01*
X192274863Y-106749226D01*
X192486642Y-106961005D01*
X192571632Y-107017794D01*
X192628417Y-107102779D01*
X192840196Y-107314558D01*
X192925181Y-107371343D01*
X192981970Y-107456333D01*
X193193749Y-107668112D01*
X193278739Y-107724901D01*
X193335524Y-107809886D01*
X193547303Y-108021665D01*
X193632288Y-108078450D01*
X193689077Y-108163440D01*
X193900856Y-108375219D01*
X193991493Y-108435781D01*
X194108157Y-108458986D01*
X194224821Y-108435781D01*
X194302354Y-108383975D01*
X194042578Y-108643751D01*
X194005200Y-108637160D01*
X193967823Y-108643751D01*
X191071353Y-105747282D01*
X191071353Y-105111599D01*
X191078979Y-105089882D01*
X191071353Y-105021349D01*
X191071353Y-104998583D01*
X191066407Y-104976901D01*
X191058841Y-104908915D01*
X191046360Y-104889019D01*
X191041127Y-104866076D01*
X190998084Y-104812061D01*
X190986221Y-104793150D01*
X190970434Y-104777363D01*
X190927680Y-104723709D01*
X190906625Y-104713553D01*
X190489658Y-104296586D01*
X190629931Y-104259000D01*
X190849349Y-104132319D01*
X190322431Y-103605400D01*
X190359200Y-103568631D01*
X190886119Y-104095549D01*
G36*
X198556232Y-104661598D02*
G01*
X198604871Y-104732601D01*
X199286273Y-105414003D01*
X199232536Y-105378097D01*
X199048562Y-105341502D01*
X198895200Y-105341502D01*
X198895200Y-105964400D01*
X199543098Y-105964400D01*
X199543098Y-105836038D01*
X199506503Y-105652064D01*
X199470597Y-105598327D01*
X200133634Y-106261364D01*
X200178873Y-106289374D01*
X200201583Y-106310861D01*
X200233612Y-106345408D01*
X200243177Y-106351904D01*
X200551259Y-106561400D01*
X199405834Y-106561400D01*
X199371423Y-106509901D01*
X199396767Y-106492967D01*
X199506503Y-106328736D01*
X199543098Y-106144762D01*
X199543098Y-106016400D01*
X198195302Y-106016400D01*
X198195302Y-106144762D01*
X198231897Y-106328736D01*
X198341633Y-106492967D01*
X198366977Y-106509901D01*
X198332566Y-106561400D01*
X197557633Y-106561400D01*
X197723359Y-106395673D01*
X197780148Y-106310683D01*
X197865133Y-106253898D01*
X198076912Y-106042119D01*
X198133697Y-105957134D01*
X198195302Y-105915970D01*
X198195302Y-105964400D01*
X198843200Y-105964400D01*
X198843200Y-105341502D01*
X198689838Y-105341502D01*
X198505864Y-105378097D01*
X198495138Y-105385264D01*
X198491028Y-105364601D01*
X198430466Y-105273964D01*
X197923591Y-104767088D01*
X198270964Y-104419713D01*
X198556232Y-104661598D01*
G37*
X198556232Y-104661598D02*
X198604871Y-104732601D01*
X199286273Y-105414003D01*
X199232536Y-105378097D01*
X199048562Y-105341502D01*
X198895200Y-105341502D01*
X198895200Y-105964400D01*
X199543098Y-105964400D01*
X199543098Y-105836038D01*
X199506503Y-105652064D01*
X199470597Y-105598327D01*
X200133634Y-106261364D01*
X200178873Y-106289374D01*
X200201583Y-106310861D01*
X200233612Y-106345408D01*
X200243177Y-106351904D01*
X200551259Y-106561400D01*
X199405834Y-106561400D01*
X199371423Y-106509901D01*
X199396767Y-106492967D01*
X199506503Y-106328736D01*
X199543098Y-106144762D01*
X199543098Y-106016400D01*
X198195302Y-106016400D01*
X198195302Y-106144762D01*
X198231897Y-106328736D01*
X198341633Y-106492967D01*
X198366977Y-106509901D01*
X198332566Y-106561400D01*
X197557633Y-106561400D01*
X197723359Y-106395673D01*
X197780148Y-106310683D01*
X197865133Y-106253898D01*
X198076912Y-106042119D01*
X198133697Y-105957134D01*
X198195302Y-105915970D01*
X198195302Y-105964400D01*
X198843200Y-105964400D01*
X198843200Y-105341502D01*
X198689838Y-105341502D01*
X198505864Y-105378097D01*
X198495138Y-105385264D01*
X198491028Y-105364601D01*
X198430466Y-105273964D01*
X197923591Y-104767088D01*
X198270964Y-104419713D01*
X198556232Y-104661598D01*
G36*
X203569043Y-89756507D02*
G01*
X204202282Y-89980353D01*
X204821584Y-90240279D01*
X205424897Y-90535423D01*
X206010205Y-90864799D01*
X206575588Y-91227323D01*
X207119182Y-91621806D01*
X207639143Y-92046907D01*
X208133781Y-92501242D01*
X208601452Y-92983304D01*
X209040605Y-93491498D01*
X209449744Y-94024085D01*
X209827579Y-94579387D01*
X210172798Y-95155480D01*
X210484311Y-95750542D01*
X210761026Y-96362490D01*
X211002066Y-96989381D01*
X211206621Y-97629109D01*
X211374017Y-98279569D01*
X211503678Y-98938520D01*
X211595205Y-99603934D01*
X211648271Y-100273442D01*
X211662709Y-100944927D01*
X211638471Y-101616121D01*
X211575637Y-102284805D01*
X211574600Y-102291607D01*
X211574600Y-102201446D01*
X211582226Y-102179729D01*
X211574600Y-102111196D01*
X211574600Y-102088430D01*
X211569654Y-102066748D01*
X211562088Y-101998762D01*
X211549607Y-101978866D01*
X211544374Y-101955923D01*
X211501331Y-101901908D01*
X211489468Y-101882997D01*
X211473681Y-101867210D01*
X211430927Y-101813556D01*
X211409870Y-101803399D01*
X210947779Y-101341309D01*
X211026529Y-101164434D01*
X211076605Y-100944024D01*
X211080181Y-100688020D01*
X211036278Y-100466296D01*
X210950411Y-100257969D01*
X210825715Y-100070288D01*
X210666941Y-99910401D01*
X210480135Y-99784397D01*
X210272411Y-99697079D01*
X210051684Y-99651770D01*
X209826359Y-99650197D01*
X209605021Y-99692420D01*
X209396100Y-99776829D01*
X209207552Y-99900212D01*
X209046560Y-100057867D01*
X208919256Y-100243789D01*
X208830490Y-100450898D01*
X208783640Y-100671302D01*
X208780494Y-100896611D01*
X208821171Y-101118238D01*
X208904121Y-101327745D01*
X209026183Y-101517150D01*
X209182710Y-101679238D01*
X209367739Y-101807837D01*
X209574223Y-101898047D01*
X209794296Y-101946433D01*
X210019577Y-101951152D01*
X210241483Y-101912024D01*
X210341733Y-101873140D01*
X210347871Y-101880842D01*
X210368927Y-101890999D01*
X210776600Y-102298672D01*
X210776600Y-102489275D01*
X210721192Y-102430989D01*
X210535046Y-102297966D01*
X210327105Y-102202543D01*
X210104870Y-102148163D01*
X209957000Y-102140803D01*
X209957000Y-103366000D01*
X208729330Y-103366000D01*
X208747490Y-103563626D01*
X208811128Y-103783389D01*
X208915175Y-103987152D01*
X209055875Y-104167565D01*
X209228152Y-104318116D01*
X209267280Y-104340935D01*
X209155864Y-104363097D01*
X208991633Y-104472833D01*
X208974699Y-104498177D01*
X208843026Y-104410196D01*
X208678561Y-104377482D01*
X208369839Y-104377482D01*
X208205374Y-104410196D01*
X208057681Y-104508881D01*
X207958996Y-104656574D01*
X207930222Y-104801232D01*
X207909404Y-104696574D01*
X207810719Y-104548881D01*
X207673220Y-104457007D01*
X207701483Y-104452024D01*
X207911563Y-104370539D01*
X208101815Y-104249801D01*
X208264992Y-104094410D01*
X208394880Y-103910283D01*
X208486529Y-103704434D01*
X208536605Y-103484024D01*
X208538979Y-103314000D01*
X208728711Y-103314000D01*
X209905000Y-103314000D01*
X209905000Y-102132737D01*
X209649826Y-102168826D01*
X209433435Y-102243125D01*
X209234998Y-102357002D01*
X209061674Y-102506347D01*
X208919718Y-102685773D01*
X208814251Y-102888805D01*
X208749080Y-103108117D01*
X208728711Y-103314000D01*
X208538979Y-103314000D01*
X208540181Y-103228020D01*
X208496278Y-103006296D01*
X208410411Y-102797969D01*
X208285715Y-102610288D01*
X208126941Y-102450401D01*
X207940135Y-102324397D01*
X207732411Y-102237079D01*
X207511684Y-102191770D01*
X207286359Y-102190197D01*
X207065021Y-102232420D01*
X206910230Y-102294959D01*
X206031653Y-101416382D01*
X206021688Y-101395631D01*
X205967831Y-101352560D01*
X205951736Y-101336466D01*
X205932914Y-101324637D01*
X205879487Y-101281909D01*
X205856588Y-101276664D01*
X205836664Y-101264142D01*
X205768041Y-101256385D01*
X205746278Y-101251400D01*
X205723951Y-101251400D01*
X205655780Y-101243693D01*
X205633710Y-101251400D01*
X205107538Y-101251400D01*
X205057698Y-101176809D01*
X205139204Y-101054826D01*
X205170674Y-100896611D01*
X206240494Y-100896611D01*
X206281171Y-101118238D01*
X206364121Y-101327745D01*
X206486183Y-101517150D01*
X206642710Y-101679238D01*
X206827739Y-101807837D01*
X207034223Y-101898047D01*
X207254296Y-101946433D01*
X207479577Y-101951152D01*
X207701483Y-101912024D01*
X207911563Y-101830539D01*
X208101815Y-101709801D01*
X208264992Y-101554410D01*
X208394880Y-101370283D01*
X208486529Y-101164434D01*
X208536605Y-100944024D01*
X208540181Y-100688020D01*
X208496278Y-100466296D01*
X208410411Y-100257969D01*
X208285715Y-100070288D01*
X208126941Y-99910401D01*
X207940135Y-99784397D01*
X207732411Y-99697079D01*
X207511684Y-99651770D01*
X207286359Y-99650197D01*
X207065021Y-99692420D01*
X206856100Y-99776829D01*
X206667552Y-99900212D01*
X206506560Y-100057867D01*
X206379256Y-100243789D01*
X206290490Y-100450898D01*
X206243640Y-100671302D01*
X206240494Y-100896611D01*
X205170674Y-100896611D01*
X205171918Y-100890361D01*
X205171918Y-100531639D01*
X205139204Y-100367174D01*
X205040519Y-100219481D01*
X204892826Y-100120796D01*
X204728361Y-100088082D01*
X204419639Y-100088082D01*
X204255174Y-100120796D01*
X204123501Y-100208777D01*
X204106567Y-100183433D01*
X203969249Y-100091680D01*
X204060738Y-100091680D01*
X204214224Y-100075006D01*
X204409646Y-100009240D01*
X204586386Y-99903043D01*
X204736199Y-99761371D01*
X204852096Y-99590835D01*
X204928669Y-99399390D01*
X204966863Y-99168680D01*
X203733239Y-99168680D01*
X203733239Y-98193680D01*
X203785239Y-98193680D01*
X203785239Y-99116680D01*
X204958188Y-99116680D01*
X204951554Y-98990059D01*
X204896798Y-98791270D01*
X204800634Y-98608877D01*
X204667546Y-98451389D01*
X204503744Y-98326154D01*
X204314328Y-98237828D01*
X204047653Y-98193680D01*
X203785239Y-98193680D01*
X203733239Y-98193680D01*
X203457740Y-98193680D01*
X203304254Y-98210354D01*
X203108832Y-98276120D01*
X202932092Y-98382317D01*
X202789711Y-98516960D01*
X202680413Y-98443929D01*
X202553991Y-98418782D01*
X202435240Y-98418782D01*
X202435240Y-99373680D01*
X202383240Y-99373680D01*
X202383240Y-98418782D01*
X202264489Y-98418782D01*
X202138067Y-98443929D01*
X202088988Y-98476723D01*
X202053991Y-98469762D01*
X201764490Y-98469762D01*
X201659240Y-98490697D01*
X201553990Y-98469762D01*
X201333240Y-98469762D01*
X201333240Y-97814935D01*
X201435991Y-97692479D01*
X201508240Y-97493980D01*
X201508240Y-97282740D01*
X201435991Y-97084241D01*
X201333240Y-96961785D01*
X201333240Y-96725598D01*
X201553990Y-96725598D01*
X201659240Y-96704663D01*
X201764490Y-96725598D01*
X202053991Y-96725598D01*
X202088988Y-96718637D01*
X202138067Y-96751431D01*
X202264489Y-96776578D01*
X202383240Y-96776578D01*
X202383240Y-95821680D01*
X202435240Y-95821680D01*
X202435240Y-96776578D01*
X202553991Y-96776578D01*
X202680413Y-96751431D01*
X202713921Y-96729042D01*
X202717844Y-96736483D01*
X202850932Y-96893971D01*
X203014734Y-97019206D01*
X203204150Y-97107532D01*
X203470825Y-97151680D01*
X203733239Y-97151680D01*
X203733239Y-96176680D01*
X203785239Y-96176680D01*
X203785239Y-97151680D01*
X204060738Y-97151680D01*
X204214224Y-97135006D01*
X204409646Y-97069240D01*
X204586386Y-96963043D01*
X204736199Y-96821372D01*
X204746087Y-96806823D01*
X204823475Y-96876138D01*
X204978275Y-96950140D01*
X205147623Y-96977720D01*
X205317905Y-96956660D01*
X205475430Y-96888657D01*
X205607539Y-96779173D01*
X205703609Y-96637010D01*
X205756105Y-96473012D01*
X205758527Y-96288007D01*
X205710342Y-96122689D01*
X205618026Y-95978062D01*
X205488829Y-95865157D01*
X205333137Y-95793053D01*
X205163465Y-95767543D01*
X204993453Y-95790681D01*
X204889349Y-95837140D01*
X204800634Y-95668877D01*
X204667546Y-95511389D01*
X204538753Y-95412920D01*
X205426237Y-95412920D01*
X206664200Y-96650884D01*
X206664200Y-97107082D01*
X206531250Y-97107082D01*
X206424336Y-97128348D01*
X206325433Y-97194433D01*
X206259348Y-97293336D01*
X206238082Y-97400250D01*
X206238082Y-99119750D01*
X206259348Y-99226664D01*
X206325433Y-99325567D01*
X206424336Y-99391652D01*
X206531250Y-99412918D01*
X208250750Y-99412918D01*
X208357664Y-99391652D01*
X208456567Y-99325567D01*
X208522652Y-99226664D01*
X208543918Y-99119750D01*
X208543918Y-98356611D01*
X208780494Y-98356611D01*
X208821171Y-98578238D01*
X208904121Y-98787745D01*
X209026183Y-98977150D01*
X209182710Y-99139238D01*
X209367739Y-99267837D01*
X209574223Y-99358047D01*
X209794296Y-99406433D01*
X210019577Y-99411152D01*
X210241483Y-99372024D01*
X210451563Y-99290539D01*
X210641815Y-99169801D01*
X210804992Y-99014410D01*
X210934880Y-98830283D01*
X211026529Y-98624434D01*
X211076605Y-98404024D01*
X211080181Y-98148020D01*
X211036278Y-97926296D01*
X210950411Y-97717969D01*
X210825715Y-97530288D01*
X210666941Y-97370401D01*
X210480135Y-97244397D01*
X210272411Y-97157079D01*
X210051684Y-97111770D01*
X209826359Y-97110197D01*
X209605021Y-97152420D01*
X209396100Y-97236829D01*
X209207552Y-97360212D01*
X209046560Y-97517867D01*
X208919256Y-97703789D01*
X208830490Y-97910898D01*
X208783640Y-98131302D01*
X208780494Y-98356611D01*
X208543918Y-98356611D01*
X208543918Y-97400250D01*
X208522652Y-97293336D01*
X208456567Y-97194433D01*
X208357664Y-97128348D01*
X208250750Y-97107082D01*
X207762200Y-97107082D01*
X207762200Y-96515272D01*
X207765704Y-96505066D01*
X207762200Y-96411738D01*
X207762200Y-96372488D01*
X207760354Y-96362578D01*
X207757842Y-96295644D01*
X207742805Y-96268348D01*
X207734252Y-96222424D01*
X207626937Y-96048326D01*
X207574820Y-96008696D01*
X206149197Y-94583074D01*
X206123709Y-94530931D01*
X205970065Y-94388406D01*
X205716299Y-94314920D01*
X204388280Y-94314920D01*
X204388280Y-94214740D01*
X204316031Y-94016241D01*
X204180250Y-93854421D01*
X203997310Y-93748801D01*
X203789280Y-93712120D01*
X203581250Y-93748801D01*
X203398310Y-93854421D01*
X203262529Y-94016241D01*
X203190280Y-94214740D01*
X203190280Y-94314920D01*
X202277217Y-94314920D01*
X202481463Y-94098818D01*
X202484612Y-94093479D01*
X202489396Y-94089427D01*
X202496342Y-94080145D01*
X202710170Y-93794152D01*
X202712685Y-93788486D01*
X202716961Y-93783922D01*
X202722797Y-93773905D01*
X202902343Y-93465218D01*
X202904189Y-93459303D01*
X202907948Y-93454230D01*
X202912571Y-93443624D01*
X202912572Y-93443624D01*
X203055436Y-93116377D01*
X203056591Y-93110285D01*
X203059759Y-93104784D01*
X203063114Y-93093750D01*
X203167420Y-92752253D01*
X203167867Y-92746065D01*
X203170330Y-92740356D01*
X203172435Y-92728957D01*
X203236810Y-92377668D01*
X203236543Y-92371473D01*
X203238341Y-92365494D01*
X203239116Y-92353927D01*
X203262686Y-91997588D01*
X203257835Y-91967187D01*
X203293111Y-89676507D01*
X203569043Y-89756507D01*
G37*
X203569043Y-89756507D02*
X204202282Y-89980353D01*
X204821584Y-90240279D01*
X205424897Y-90535423D01*
X206010205Y-90864799D01*
X206575588Y-91227323D01*
X207119182Y-91621806D01*
X207639143Y-92046907D01*
X208133781Y-92501242D01*
X208601452Y-92983304D01*
X209040605Y-93491498D01*
X209449744Y-94024085D01*
X209827579Y-94579387D01*
X210172798Y-95155480D01*
X210484311Y-95750542D01*
X210761026Y-96362490D01*
X211002066Y-96989381D01*
X211206621Y-97629109D01*
X211374017Y-98279569D01*
X211503678Y-98938520D01*
X211595205Y-99603934D01*
X211648271Y-100273442D01*
X211662709Y-100944927D01*
X211638471Y-101616121D01*
X211575637Y-102284805D01*
X211574600Y-102291607D01*
X211574600Y-102201446D01*
X211582226Y-102179729D01*
X211574600Y-102111196D01*
X211574600Y-102088430D01*
X211569654Y-102066748D01*
X211562088Y-101998762D01*
X211549607Y-101978866D01*
X211544374Y-101955923D01*
X211501331Y-101901908D01*
X211489468Y-101882997D01*
X211473681Y-101867210D01*
X211430927Y-101813556D01*
X211409870Y-101803399D01*
X210947779Y-101341309D01*
X211026529Y-101164434D01*
X211076605Y-100944024D01*
X211080181Y-100688020D01*
X211036278Y-100466296D01*
X210950411Y-100257969D01*
X210825715Y-100070288D01*
X210666941Y-99910401D01*
X210480135Y-99784397D01*
X210272411Y-99697079D01*
X210051684Y-99651770D01*
X209826359Y-99650197D01*
X209605021Y-99692420D01*
X209396100Y-99776829D01*
X209207552Y-99900212D01*
X209046560Y-100057867D01*
X208919256Y-100243789D01*
X208830490Y-100450898D01*
X208783640Y-100671302D01*
X208780494Y-100896611D01*
X208821171Y-101118238D01*
X208904121Y-101327745D01*
X209026183Y-101517150D01*
X209182710Y-101679238D01*
X209367739Y-101807837D01*
X209574223Y-101898047D01*
X209794296Y-101946433D01*
X210019577Y-101951152D01*
X210241483Y-101912024D01*
X210341733Y-101873140D01*
X210347871Y-101880842D01*
X210368927Y-101890999D01*
X210776600Y-102298672D01*
X210776600Y-102489275D01*
X210721192Y-102430989D01*
X210535046Y-102297966D01*
X210327105Y-102202543D01*
X210104870Y-102148163D01*
X209957000Y-102140803D01*
X209957000Y-103366000D01*
X208729330Y-103366000D01*
X208747490Y-103563626D01*
X208811128Y-103783389D01*
X208915175Y-103987152D01*
X209055875Y-104167565D01*
X209228152Y-104318116D01*
X209267280Y-104340935D01*
X209155864Y-104363097D01*
X208991633Y-104472833D01*
X208974699Y-104498177D01*
X208843026Y-104410196D01*
X208678561Y-104377482D01*
X208369839Y-104377482D01*
X208205374Y-104410196D01*
X208057681Y-104508881D01*
X207958996Y-104656574D01*
X207930222Y-104801232D01*
X207909404Y-104696574D01*
X207810719Y-104548881D01*
X207673220Y-104457007D01*
X207701483Y-104452024D01*
X207911563Y-104370539D01*
X208101815Y-104249801D01*
X208264992Y-104094410D01*
X208394880Y-103910283D01*
X208486529Y-103704434D01*
X208536605Y-103484024D01*
X208538979Y-103314000D01*
X208728711Y-103314000D01*
X209905000Y-103314000D01*
X209905000Y-102132737D01*
X209649826Y-102168826D01*
X209433435Y-102243125D01*
X209234998Y-102357002D01*
X209061674Y-102506347D01*
X208919718Y-102685773D01*
X208814251Y-102888805D01*
X208749080Y-103108117D01*
X208728711Y-103314000D01*
X208538979Y-103314000D01*
X208540181Y-103228020D01*
X208496278Y-103006296D01*
X208410411Y-102797969D01*
X208285715Y-102610288D01*
X208126941Y-102450401D01*
X207940135Y-102324397D01*
X207732411Y-102237079D01*
X207511684Y-102191770D01*
X207286359Y-102190197D01*
X207065021Y-102232420D01*
X206910230Y-102294959D01*
X206031653Y-101416382D01*
X206021688Y-101395631D01*
X205967831Y-101352560D01*
X205951736Y-101336466D01*
X205932914Y-101324637D01*
X205879487Y-101281909D01*
X205856588Y-101276664D01*
X205836664Y-101264142D01*
X205768041Y-101256385D01*
X205746278Y-101251400D01*
X205723951Y-101251400D01*
X205655780Y-101243693D01*
X205633710Y-101251400D01*
X205107538Y-101251400D01*
X205057698Y-101176809D01*
X205139204Y-101054826D01*
X205170674Y-100896611D01*
X206240494Y-100896611D01*
X206281171Y-101118238D01*
X206364121Y-101327745D01*
X206486183Y-101517150D01*
X206642710Y-101679238D01*
X206827739Y-101807837D01*
X207034223Y-101898047D01*
X207254296Y-101946433D01*
X207479577Y-101951152D01*
X207701483Y-101912024D01*
X207911563Y-101830539D01*
X208101815Y-101709801D01*
X208264992Y-101554410D01*
X208394880Y-101370283D01*
X208486529Y-101164434D01*
X208536605Y-100944024D01*
X208540181Y-100688020D01*
X208496278Y-100466296D01*
X208410411Y-100257969D01*
X208285715Y-100070288D01*
X208126941Y-99910401D01*
X207940135Y-99784397D01*
X207732411Y-99697079D01*
X207511684Y-99651770D01*
X207286359Y-99650197D01*
X207065021Y-99692420D01*
X206856100Y-99776829D01*
X206667552Y-99900212D01*
X206506560Y-100057867D01*
X206379256Y-100243789D01*
X206290490Y-100450898D01*
X206243640Y-100671302D01*
X206240494Y-100896611D01*
X205170674Y-100896611D01*
X205171918Y-100890361D01*
X205171918Y-100531639D01*
X205139204Y-100367174D01*
X205040519Y-100219481D01*
X204892826Y-100120796D01*
X204728361Y-100088082D01*
X204419639Y-100088082D01*
X204255174Y-100120796D01*
X204123501Y-100208777D01*
X204106567Y-100183433D01*
X203969249Y-100091680D01*
X204060738Y-100091680D01*
X204214224Y-100075006D01*
X204409646Y-100009240D01*
X204586386Y-99903043D01*
X204736199Y-99761371D01*
X204852096Y-99590835D01*
X204928669Y-99399390D01*
X204966863Y-99168680D01*
X203733239Y-99168680D01*
X203733239Y-98193680D01*
X203785239Y-98193680D01*
X203785239Y-99116680D01*
X204958188Y-99116680D01*
X204951554Y-98990059D01*
X204896798Y-98791270D01*
X204800634Y-98608877D01*
X204667546Y-98451389D01*
X204503744Y-98326154D01*
X204314328Y-98237828D01*
X204047653Y-98193680D01*
X203785239Y-98193680D01*
X203733239Y-98193680D01*
X203457740Y-98193680D01*
X203304254Y-98210354D01*
X203108832Y-98276120D01*
X202932092Y-98382317D01*
X202789711Y-98516960D01*
X202680413Y-98443929D01*
X202553991Y-98418782D01*
X202435240Y-98418782D01*
X202435240Y-99373680D01*
X202383240Y-99373680D01*
X202383240Y-98418782D01*
X202264489Y-98418782D01*
X202138067Y-98443929D01*
X202088988Y-98476723D01*
X202053991Y-98469762D01*
X201764490Y-98469762D01*
X201659240Y-98490697D01*
X201553990Y-98469762D01*
X201333240Y-98469762D01*
X201333240Y-97814935D01*
X201435991Y-97692479D01*
X201508240Y-97493980D01*
X201508240Y-97282740D01*
X201435991Y-97084241D01*
X201333240Y-96961785D01*
X201333240Y-96725598D01*
X201553990Y-96725598D01*
X201659240Y-96704663D01*
X201764490Y-96725598D01*
X202053991Y-96725598D01*
X202088988Y-96718637D01*
X202138067Y-96751431D01*
X202264489Y-96776578D01*
X202383240Y-96776578D01*
X202383240Y-95821680D01*
X202435240Y-95821680D01*
X202435240Y-96776578D01*
X202553991Y-96776578D01*
X202680413Y-96751431D01*
X202713921Y-96729042D01*
X202717844Y-96736483D01*
X202850932Y-96893971D01*
X203014734Y-97019206D01*
X203204150Y-97107532D01*
X203470825Y-97151680D01*
X203733239Y-97151680D01*
X203733239Y-96176680D01*
X203785239Y-96176680D01*
X203785239Y-97151680D01*
X204060738Y-97151680D01*
X204214224Y-97135006D01*
X204409646Y-97069240D01*
X204586386Y-96963043D01*
X204736199Y-96821372D01*
X204746087Y-96806823D01*
X204823475Y-96876138D01*
X204978275Y-96950140D01*
X205147623Y-96977720D01*
X205317905Y-96956660D01*
X205475430Y-96888657D01*
X205607539Y-96779173D01*
X205703609Y-96637010D01*
X205756105Y-96473012D01*
X205758527Y-96288007D01*
X205710342Y-96122689D01*
X205618026Y-95978062D01*
X205488829Y-95865157D01*
X205333137Y-95793053D01*
X205163465Y-95767543D01*
X204993453Y-95790681D01*
X204889349Y-95837140D01*
X204800634Y-95668877D01*
X204667546Y-95511389D01*
X204538753Y-95412920D01*
X205426237Y-95412920D01*
X206664200Y-96650884D01*
X206664200Y-97107082D01*
X206531250Y-97107082D01*
X206424336Y-97128348D01*
X206325433Y-97194433D01*
X206259348Y-97293336D01*
X206238082Y-97400250D01*
X206238082Y-99119750D01*
X206259348Y-99226664D01*
X206325433Y-99325567D01*
X206424336Y-99391652D01*
X206531250Y-99412918D01*
X208250750Y-99412918D01*
X208357664Y-99391652D01*
X208456567Y-99325567D01*
X208522652Y-99226664D01*
X208543918Y-99119750D01*
X208543918Y-98356611D01*
X208780494Y-98356611D01*
X208821171Y-98578238D01*
X208904121Y-98787745D01*
X209026183Y-98977150D01*
X209182710Y-99139238D01*
X209367739Y-99267837D01*
X209574223Y-99358047D01*
X209794296Y-99406433D01*
X210019577Y-99411152D01*
X210241483Y-99372024D01*
X210451563Y-99290539D01*
X210641815Y-99169801D01*
X210804992Y-99014410D01*
X210934880Y-98830283D01*
X211026529Y-98624434D01*
X211076605Y-98404024D01*
X211080181Y-98148020D01*
X211036278Y-97926296D01*
X210950411Y-97717969D01*
X210825715Y-97530288D01*
X210666941Y-97370401D01*
X210480135Y-97244397D01*
X210272411Y-97157079D01*
X210051684Y-97111770D01*
X209826359Y-97110197D01*
X209605021Y-97152420D01*
X209396100Y-97236829D01*
X209207552Y-97360212D01*
X209046560Y-97517867D01*
X208919256Y-97703789D01*
X208830490Y-97910898D01*
X208783640Y-98131302D01*
X208780494Y-98356611D01*
X208543918Y-98356611D01*
X208543918Y-97400250D01*
X208522652Y-97293336D01*
X208456567Y-97194433D01*
X208357664Y-97128348D01*
X208250750Y-97107082D01*
X207762200Y-97107082D01*
X207762200Y-96515272D01*
X207765704Y-96505066D01*
X207762200Y-96411738D01*
X207762200Y-96372488D01*
X207760354Y-96362578D01*
X207757842Y-96295644D01*
X207742805Y-96268348D01*
X207734252Y-96222424D01*
X207626937Y-96048326D01*
X207574820Y-96008696D01*
X206149197Y-94583074D01*
X206123709Y-94530931D01*
X205970065Y-94388406D01*
X205716299Y-94314920D01*
X204388280Y-94314920D01*
X204388280Y-94214740D01*
X204316031Y-94016241D01*
X204180250Y-93854421D01*
X203997310Y-93748801D01*
X203789280Y-93712120D01*
X203581250Y-93748801D01*
X203398310Y-93854421D01*
X203262529Y-94016241D01*
X203190280Y-94214740D01*
X203190280Y-94314920D01*
X202277217Y-94314920D01*
X202481463Y-94098818D01*
X202484612Y-94093479D01*
X202489396Y-94089427D01*
X202496342Y-94080145D01*
X202710170Y-93794152D01*
X202712685Y-93788486D01*
X202716961Y-93783922D01*
X202722797Y-93773905D01*
X202902343Y-93465218D01*
X202904189Y-93459303D01*
X202907948Y-93454230D01*
X202912571Y-93443624D01*
X202912572Y-93443624D01*
X203055436Y-93116377D01*
X203056591Y-93110285D01*
X203059759Y-93104784D01*
X203063114Y-93093750D01*
X203167420Y-92752253D01*
X203167867Y-92746065D01*
X203170330Y-92740356D01*
X203172435Y-92728957D01*
X203236810Y-92377668D01*
X203236543Y-92371473D01*
X203238341Y-92365494D01*
X203239116Y-92353927D01*
X203262686Y-91997588D01*
X203257835Y-91967187D01*
X203293111Y-89676507D01*
X203569043Y-89756507D01*
G36*
X197270302Y-101221038D02*
G01*
X197270302Y-101374400D01*
X197945200Y-101374400D01*
X197945200Y-102074298D01*
X198073562Y-102074298D01*
X198257536Y-102037703D01*
X198421767Y-101927967D01*
X198438701Y-101902623D01*
X198570374Y-101990604D01*
X198734839Y-102023318D01*
X199043561Y-102023318D01*
X199208026Y-101990604D01*
X199312199Y-101920998D01*
X198675908Y-102557289D01*
X198666212Y-102562028D01*
X198602671Y-102630526D01*
X198574944Y-102658254D01*
X198569248Y-102666557D01*
X198523686Y-102715674D01*
X198515017Y-102745610D01*
X198488592Y-102784131D01*
X198441371Y-102983119D01*
X198450200Y-103047995D01*
X198450201Y-103723502D01*
X198446696Y-103733710D01*
X198450201Y-103827065D01*
X198450201Y-103866285D01*
X198452045Y-103876189D01*
X198452113Y-103878006D01*
X198430466Y-103845609D01*
X198218687Y-103633830D01*
X198133697Y-103577041D01*
X198076912Y-103492056D01*
X197865133Y-103280277D01*
X197780148Y-103223492D01*
X197723359Y-103138502D01*
X197511580Y-102926723D01*
X197426590Y-102869934D01*
X197369805Y-102784949D01*
X197158026Y-102573170D01*
X197073041Y-102516385D01*
X197016252Y-102431395D01*
X196804473Y-102219616D01*
X196719486Y-102162829D01*
X196662699Y-102077842D01*
X196485392Y-101900535D01*
X196959527Y-101426400D01*
X197270302Y-101426400D01*
X197270302Y-101579762D01*
X197306897Y-101763736D01*
X197416633Y-101927967D01*
X197580864Y-102037703D01*
X197764838Y-102074298D01*
X197893200Y-102074298D01*
X197893200Y-101426400D01*
X197270302Y-101426400D01*
X196959527Y-101426400D01*
X197296477Y-101089450D01*
X197270302Y-101221038D01*
G37*
X197270302Y-101221038D02*
X197270302Y-101374400D01*
X197945200Y-101374400D01*
X197945200Y-102074298D01*
X198073562Y-102074298D01*
X198257536Y-102037703D01*
X198421767Y-101927967D01*
X198438701Y-101902623D01*
X198570374Y-101990604D01*
X198734839Y-102023318D01*
X199043561Y-102023318D01*
X199208026Y-101990604D01*
X199312199Y-101920998D01*
X198675908Y-102557289D01*
X198666212Y-102562028D01*
X198602671Y-102630526D01*
X198574944Y-102658254D01*
X198569248Y-102666557D01*
X198523686Y-102715674D01*
X198515017Y-102745610D01*
X198488592Y-102784131D01*
X198441371Y-102983119D01*
X198450200Y-103047995D01*
X198450201Y-103723502D01*
X198446696Y-103733710D01*
X198450201Y-103827065D01*
X198450201Y-103866285D01*
X198452045Y-103876189D01*
X198452113Y-103878006D01*
X198430466Y-103845609D01*
X198218687Y-103633830D01*
X198133697Y-103577041D01*
X198076912Y-103492056D01*
X197865133Y-103280277D01*
X197780148Y-103223492D01*
X197723359Y-103138502D01*
X197511580Y-102926723D01*
X197426590Y-102869934D01*
X197369805Y-102784949D01*
X197158026Y-102573170D01*
X197073041Y-102516385D01*
X197016252Y-102431395D01*
X196804473Y-102219616D01*
X196719486Y-102162829D01*
X196662699Y-102077842D01*
X196485392Y-101900535D01*
X196959527Y-101426400D01*
X197270302Y-101426400D01*
X197270302Y-101579762D01*
X197306897Y-101763736D01*
X197416633Y-101927967D01*
X197580864Y-102037703D01*
X197764838Y-102074298D01*
X197893200Y-102074298D01*
X197893200Y-101426400D01*
X197270302Y-101426400D01*
X196959527Y-101426400D01*
X197296477Y-101089450D01*
X197270302Y-101221038D01*
G36*
X203014734Y-99959206D02*
G01*
X203204150Y-100047532D01*
X203309513Y-100064975D01*
X203265664Y-100073697D01*
X203101433Y-100183433D01*
X202991697Y-100347664D01*
X202955102Y-100531638D01*
X202955102Y-100685000D01*
X203630000Y-100685000D01*
X203630000Y-100737000D01*
X202955102Y-100737000D01*
X202955102Y-100890362D01*
X202991697Y-101074336D01*
X203095435Y-101229590D01*
X203043996Y-101306574D01*
X203011282Y-101471039D01*
X203011282Y-101829761D01*
X203043996Y-101994226D01*
X203142681Y-102141919D01*
X203210201Y-102187034D01*
X203210201Y-102502353D01*
X203202574Y-102524070D01*
X203210201Y-102592613D01*
X203210201Y-102615370D01*
X203215146Y-102637049D01*
X203222712Y-102705037D01*
X203235193Y-102724933D01*
X203240427Y-102747878D01*
X203283471Y-102801895D01*
X203295331Y-102820801D01*
X203311116Y-102836586D01*
X203353872Y-102890243D01*
X203374928Y-102900400D01*
X203675269Y-103200741D01*
X203434817Y-102984677D01*
X203423529Y-102968199D01*
X202521810Y-102066479D01*
X201940718Y-101474298D01*
X201958200Y-101474298D01*
X201958200Y-100826400D01*
X202010200Y-100826400D01*
X202010200Y-101474298D01*
X202138562Y-101474298D01*
X202322536Y-101437703D01*
X202486767Y-101327967D01*
X202596503Y-101163736D01*
X202633098Y-100979762D01*
X202633098Y-100826400D01*
X202010200Y-100826400D01*
X201958200Y-100826400D01*
X201958200Y-100774400D01*
X202633098Y-100774400D01*
X202633098Y-100621038D01*
X202596503Y-100437064D01*
X202489269Y-100276578D01*
X202553991Y-100276578D01*
X202680413Y-100251431D01*
X202795855Y-100174295D01*
X202872991Y-100058853D01*
X202898138Y-99932431D01*
X202898138Y-99870062D01*
X203014734Y-99959206D01*
G37*
X203014734Y-99959206D02*
X203204150Y-100047532D01*
X203309513Y-100064975D01*
X203265664Y-100073697D01*
X203101433Y-100183433D01*
X202991697Y-100347664D01*
X202955102Y-100531638D01*
X202955102Y-100685000D01*
X203630000Y-100685000D01*
X203630000Y-100737000D01*
X202955102Y-100737000D01*
X202955102Y-100890362D01*
X202991697Y-101074336D01*
X203095435Y-101229590D01*
X203043996Y-101306574D01*
X203011282Y-101471039D01*
X203011282Y-101829761D01*
X203043996Y-101994226D01*
X203142681Y-102141919D01*
X203210201Y-102187034D01*
X203210201Y-102502353D01*
X203202574Y-102524070D01*
X203210201Y-102592613D01*
X203210201Y-102615370D01*
X203215146Y-102637049D01*
X203222712Y-102705037D01*
X203235193Y-102724933D01*
X203240427Y-102747878D01*
X203283471Y-102801895D01*
X203295331Y-102820801D01*
X203311116Y-102836586D01*
X203353872Y-102890243D01*
X203374928Y-102900400D01*
X203675269Y-103200741D01*
X203434817Y-102984677D01*
X203423529Y-102968199D01*
X202521810Y-102066479D01*
X201940718Y-101474298D01*
X201958200Y-101474298D01*
X201958200Y-100826400D01*
X202010200Y-100826400D01*
X202010200Y-101474298D01*
X202138562Y-101474298D01*
X202322536Y-101437703D01*
X202486767Y-101327967D01*
X202596503Y-101163736D01*
X202633098Y-100979762D01*
X202633098Y-100826400D01*
X202010200Y-100826400D01*
X201958200Y-100826400D01*
X201958200Y-100774400D01*
X202633098Y-100774400D01*
X202633098Y-100621038D01*
X202596503Y-100437064D01*
X202489269Y-100276578D01*
X202553991Y-100276578D01*
X202680413Y-100251431D01*
X202795855Y-100174295D01*
X202872991Y-100058853D01*
X202898138Y-99932431D01*
X202898138Y-99870062D01*
X203014734Y-99959206D01*
G36*
X197549290Y-94969762D02*
G01*
X197264489Y-94969762D01*
X197229492Y-94976723D01*
X197180413Y-94943929D01*
X197053991Y-94918782D01*
X196935240Y-94918782D01*
X196935240Y-96776578D01*
X197053991Y-96776578D01*
X197180413Y-96751431D01*
X197229492Y-96718637D01*
X197264489Y-96725598D01*
X197553990Y-96725598D01*
X197659240Y-96704663D01*
X197764490Y-96725598D01*
X197985240Y-96725598D01*
X197985240Y-96916705D01*
X197882489Y-97039161D01*
X197810240Y-97237660D01*
X197810240Y-97448900D01*
X197882489Y-97647399D01*
X197985241Y-97769856D01*
X197985240Y-98469762D01*
X197764490Y-98469762D01*
X197659240Y-98490697D01*
X197553990Y-98469762D01*
X197264489Y-98469762D01*
X197229492Y-98476723D01*
X197180413Y-98443929D01*
X197053991Y-98418782D01*
X196935240Y-98418782D01*
X196935240Y-100276578D01*
X196974620Y-100276578D01*
X196951409Y-100295074D01*
X196941252Y-100316131D01*
X196471583Y-100785801D01*
X196341810Y-100631141D01*
X196158870Y-100525521D01*
X195950840Y-100488840D01*
X195742810Y-100525521D01*
X195559870Y-100631141D01*
X195424089Y-100792961D01*
X195351840Y-100991460D01*
X195351840Y-101131809D01*
X195100970Y-101382680D01*
X195080219Y-101392645D01*
X195037150Y-101446499D01*
X195021053Y-101462597D01*
X195013410Y-101474757D01*
X194822335Y-101665832D01*
X194315458Y-101158956D01*
X194224821Y-101098394D01*
X194108157Y-101075189D01*
X193991493Y-101098394D01*
X193900856Y-101158956D01*
X193723549Y-101336264D01*
X193678200Y-101290915D01*
X193678200Y-99570442D01*
X193685826Y-99548725D01*
X193678200Y-99480188D01*
X193678200Y-99457426D01*
X193673254Y-99435747D01*
X193665689Y-99367759D01*
X193653207Y-99347862D01*
X193647973Y-99324918D01*
X193604929Y-99270901D01*
X193593069Y-99251994D01*
X193577285Y-99236210D01*
X193534528Y-99182552D01*
X193513471Y-99172395D01*
X193509756Y-99168680D01*
X194360291Y-99168680D01*
X194366925Y-99295301D01*
X194421681Y-99494090D01*
X194517845Y-99676483D01*
X194650933Y-99833971D01*
X194814735Y-99959206D01*
X195004151Y-100047532D01*
X195270826Y-100091680D01*
X195533240Y-100091680D01*
X195533240Y-99168680D01*
X194360291Y-99168680D01*
X193509756Y-99168680D01*
X193457756Y-99116680D01*
X194351616Y-99116680D01*
X195533240Y-99116680D01*
X195533240Y-98193680D01*
X195585240Y-98193680D01*
X195585240Y-100091680D01*
X195860739Y-100091680D01*
X196014225Y-100075006D01*
X196209647Y-100009240D01*
X196386387Y-99903043D01*
X196420342Y-99870933D01*
X196420342Y-99932431D01*
X196445489Y-100058853D01*
X196522625Y-100174295D01*
X196638067Y-100251431D01*
X196764489Y-100276578D01*
X196883240Y-100276578D01*
X196883240Y-98418782D01*
X196764489Y-98418782D01*
X196638067Y-98443929D01*
X196525056Y-98519441D01*
X196467547Y-98451389D01*
X196303745Y-98326154D01*
X196114329Y-98237828D01*
X195847654Y-98193680D01*
X195585240Y-98193680D01*
X195533240Y-98193680D01*
X195257741Y-98193680D01*
X195104255Y-98210354D01*
X194908833Y-98276120D01*
X194732093Y-98382317D01*
X194582280Y-98523989D01*
X194466383Y-98694525D01*
X194389810Y-98885970D01*
X194351616Y-99116680D01*
X193457756Y-99116680D01*
X192577457Y-98236382D01*
X192567492Y-98215631D01*
X192513635Y-98172560D01*
X192497540Y-98156466D01*
X192478718Y-98144637D01*
X192425291Y-98101909D01*
X192402392Y-98096664D01*
X192382468Y-98084142D01*
X192313845Y-98076385D01*
X192292082Y-98071400D01*
X192269755Y-98071400D01*
X192201584Y-98063693D01*
X192179514Y-98071400D01*
X190993371Y-98071400D01*
X190990852Y-98058737D01*
X190924767Y-97959833D01*
X190825864Y-97893748D01*
X190718950Y-97872482D01*
X190581193Y-97872482D01*
X190728780Y-97799220D01*
X190861409Y-97679800D01*
X190957039Y-97529112D01*
X191008775Y-97357753D01*
X191010761Y-97168110D01*
X191648221Y-96530651D01*
X191668968Y-96520688D01*
X191712033Y-96466839D01*
X191728133Y-96450738D01*
X191728206Y-96450621D01*
X193559129Y-96450621D01*
X193605126Y-96615919D01*
X193695668Y-96761663D01*
X193823475Y-96876138D01*
X193978275Y-96950140D01*
X194147623Y-96977720D01*
X194317905Y-96956660D01*
X194475430Y-96888657D01*
X194576005Y-96805306D01*
X194650933Y-96893971D01*
X194814735Y-97019206D01*
X195004151Y-97107532D01*
X195270826Y-97151680D01*
X195533240Y-97151680D01*
X195533240Y-95253680D01*
X195585240Y-95253680D01*
X195585240Y-97151680D01*
X195860739Y-97151680D01*
X196014225Y-97135006D01*
X196209647Y-97069240D01*
X196386387Y-96963043D01*
X196536200Y-96821371D01*
X196600700Y-96726463D01*
X196638067Y-96751431D01*
X196764489Y-96776578D01*
X196883240Y-96776578D01*
X196883240Y-94918782D01*
X196764489Y-94918782D01*
X196638067Y-94943929D01*
X196522625Y-95021065D01*
X196445489Y-95136507D01*
X196420342Y-95262929D01*
X196420342Y-95475298D01*
X196303745Y-95386154D01*
X196114329Y-95297828D01*
X195847654Y-95253680D01*
X195585240Y-95253680D01*
X195533240Y-95253680D01*
X195257741Y-95253680D01*
X195104255Y-95270354D01*
X194908833Y-95336120D01*
X194732093Y-95442317D01*
X194582280Y-95583989D01*
X194466383Y-95754525D01*
X194432557Y-95839096D01*
X194333137Y-95793053D01*
X194163465Y-95767543D01*
X193993453Y-95790681D01*
X193836769Y-95860605D01*
X193706009Y-95971694D01*
X193611683Y-96115019D01*
X193561375Y-96279056D01*
X193559129Y-96450621D01*
X191728206Y-96450621D01*
X191739966Y-96431912D01*
X191782692Y-96378486D01*
X191787935Y-96355590D01*
X191800457Y-96335668D01*
X191808215Y-96267044D01*
X191813200Y-96245279D01*
X191813200Y-96222952D01*
X191820907Y-96154781D01*
X191813200Y-96132711D01*
X191813200Y-95943446D01*
X191816525Y-95933978D01*
X191892639Y-95949118D01*
X192201361Y-95949118D01*
X192365826Y-95916404D01*
X192497499Y-95828423D01*
X192514433Y-95853767D01*
X192678664Y-95963503D01*
X192862638Y-96000098D01*
X192991000Y-96000098D01*
X192991000Y-95352200D01*
X193043000Y-95352200D01*
X193043000Y-96000098D01*
X193171362Y-96000098D01*
X193355336Y-95963503D01*
X193519567Y-95853767D01*
X193629303Y-95689536D01*
X193665898Y-95505562D01*
X193665898Y-95352200D01*
X193043000Y-95352200D01*
X192991000Y-95352200D01*
X192991000Y-95300200D01*
X193665898Y-95300200D01*
X193665898Y-95146838D01*
X193643114Y-95032298D01*
X193729151Y-95032298D01*
X193855573Y-95007151D01*
X193932849Y-94955517D01*
X194633949Y-94955517D01*
X194740863Y-94934251D01*
X194751118Y-94927399D01*
X194756153Y-94927399D01*
X194777870Y-94935025D01*
X194846403Y-94927399D01*
X194869168Y-94927399D01*
X194890856Y-94922452D01*
X194958834Y-94914887D01*
X194978731Y-94902406D01*
X195001678Y-94897171D01*
X195017402Y-94884641D01*
X195111833Y-95025967D01*
X195276064Y-95135703D01*
X195460038Y-95172298D01*
X195613400Y-95172298D01*
X195613400Y-94549400D01*
X195665400Y-94549400D01*
X195665400Y-95172298D01*
X195818762Y-95172298D01*
X196002736Y-95135703D01*
X196166967Y-95025967D01*
X196276703Y-94861736D01*
X196313298Y-94677762D01*
X196313298Y-94549400D01*
X195665400Y-94549400D01*
X195613400Y-94549400D01*
X195613400Y-94497400D01*
X196313298Y-94497400D01*
X196313298Y-94369038D01*
X196276703Y-94185064D01*
X196166967Y-94020833D01*
X196141623Y-94003899D01*
X196229604Y-93872226D01*
X196262318Y-93707761D01*
X196262318Y-93682789D01*
X197549290Y-94969762D01*
G37*
X197549290Y-94969762D02*
X197264489Y-94969762D01*
X197229492Y-94976723D01*
X197180413Y-94943929D01*
X197053991Y-94918782D01*
X196935240Y-94918782D01*
X196935240Y-96776578D01*
X197053991Y-96776578D01*
X197180413Y-96751431D01*
X197229492Y-96718637D01*
X197264489Y-96725598D01*
X197553990Y-96725598D01*
X197659240Y-96704663D01*
X197764490Y-96725598D01*
X197985240Y-96725598D01*
X197985240Y-96916705D01*
X197882489Y-97039161D01*
X197810240Y-97237660D01*
X197810240Y-97448900D01*
X197882489Y-97647399D01*
X197985241Y-97769856D01*
X197985240Y-98469762D01*
X197764490Y-98469762D01*
X197659240Y-98490697D01*
X197553990Y-98469762D01*
X197264489Y-98469762D01*
X197229492Y-98476723D01*
X197180413Y-98443929D01*
X197053991Y-98418782D01*
X196935240Y-98418782D01*
X196935240Y-100276578D01*
X196974620Y-100276578D01*
X196951409Y-100295074D01*
X196941252Y-100316131D01*
X196471583Y-100785801D01*
X196341810Y-100631141D01*
X196158870Y-100525521D01*
X195950840Y-100488840D01*
X195742810Y-100525521D01*
X195559870Y-100631141D01*
X195424089Y-100792961D01*
X195351840Y-100991460D01*
X195351840Y-101131809D01*
X195100970Y-101382680D01*
X195080219Y-101392645D01*
X195037150Y-101446499D01*
X195021053Y-101462597D01*
X195013410Y-101474757D01*
X194822335Y-101665832D01*
X194315458Y-101158956D01*
X194224821Y-101098394D01*
X194108157Y-101075189D01*
X193991493Y-101098394D01*
X193900856Y-101158956D01*
X193723549Y-101336264D01*
X193678200Y-101290915D01*
X193678200Y-99570442D01*
X193685826Y-99548725D01*
X193678200Y-99480188D01*
X193678200Y-99457426D01*
X193673254Y-99435747D01*
X193665689Y-99367759D01*
X193653207Y-99347862D01*
X193647973Y-99324918D01*
X193604929Y-99270901D01*
X193593069Y-99251994D01*
X193577285Y-99236210D01*
X193534528Y-99182552D01*
X193513471Y-99172395D01*
X193509756Y-99168680D01*
X194360291Y-99168680D01*
X194366925Y-99295301D01*
X194421681Y-99494090D01*
X194517845Y-99676483D01*
X194650933Y-99833971D01*
X194814735Y-99959206D01*
X195004151Y-100047532D01*
X195270826Y-100091680D01*
X195533240Y-100091680D01*
X195533240Y-99168680D01*
X194360291Y-99168680D01*
X193509756Y-99168680D01*
X193457756Y-99116680D01*
X194351616Y-99116680D01*
X195533240Y-99116680D01*
X195533240Y-98193680D01*
X195585240Y-98193680D01*
X195585240Y-100091680D01*
X195860739Y-100091680D01*
X196014225Y-100075006D01*
X196209647Y-100009240D01*
X196386387Y-99903043D01*
X196420342Y-99870933D01*
X196420342Y-99932431D01*
X196445489Y-100058853D01*
X196522625Y-100174295D01*
X196638067Y-100251431D01*
X196764489Y-100276578D01*
X196883240Y-100276578D01*
X196883240Y-98418782D01*
X196764489Y-98418782D01*
X196638067Y-98443929D01*
X196525056Y-98519441D01*
X196467547Y-98451389D01*
X196303745Y-98326154D01*
X196114329Y-98237828D01*
X195847654Y-98193680D01*
X195585240Y-98193680D01*
X195533240Y-98193680D01*
X195257741Y-98193680D01*
X195104255Y-98210354D01*
X194908833Y-98276120D01*
X194732093Y-98382317D01*
X194582280Y-98523989D01*
X194466383Y-98694525D01*
X194389810Y-98885970D01*
X194351616Y-99116680D01*
X193457756Y-99116680D01*
X192577457Y-98236382D01*
X192567492Y-98215631D01*
X192513635Y-98172560D01*
X192497540Y-98156466D01*
X192478718Y-98144637D01*
X192425291Y-98101909D01*
X192402392Y-98096664D01*
X192382468Y-98084142D01*
X192313845Y-98076385D01*
X192292082Y-98071400D01*
X192269755Y-98071400D01*
X192201584Y-98063693D01*
X192179514Y-98071400D01*
X190993371Y-98071400D01*
X190990852Y-98058737D01*
X190924767Y-97959833D01*
X190825864Y-97893748D01*
X190718950Y-97872482D01*
X190581193Y-97872482D01*
X190728780Y-97799220D01*
X190861409Y-97679800D01*
X190957039Y-97529112D01*
X191008775Y-97357753D01*
X191010761Y-97168110D01*
X191648221Y-96530651D01*
X191668968Y-96520688D01*
X191712033Y-96466839D01*
X191728133Y-96450738D01*
X191728206Y-96450621D01*
X193559129Y-96450621D01*
X193605126Y-96615919D01*
X193695668Y-96761663D01*
X193823475Y-96876138D01*
X193978275Y-96950140D01*
X194147623Y-96977720D01*
X194317905Y-96956660D01*
X194475430Y-96888657D01*
X194576005Y-96805306D01*
X194650933Y-96893971D01*
X194814735Y-97019206D01*
X195004151Y-97107532D01*
X195270826Y-97151680D01*
X195533240Y-97151680D01*
X195533240Y-95253680D01*
X195585240Y-95253680D01*
X195585240Y-97151680D01*
X195860739Y-97151680D01*
X196014225Y-97135006D01*
X196209647Y-97069240D01*
X196386387Y-96963043D01*
X196536200Y-96821371D01*
X196600700Y-96726463D01*
X196638067Y-96751431D01*
X196764489Y-96776578D01*
X196883240Y-96776578D01*
X196883240Y-94918782D01*
X196764489Y-94918782D01*
X196638067Y-94943929D01*
X196522625Y-95021065D01*
X196445489Y-95136507D01*
X196420342Y-95262929D01*
X196420342Y-95475298D01*
X196303745Y-95386154D01*
X196114329Y-95297828D01*
X195847654Y-95253680D01*
X195585240Y-95253680D01*
X195533240Y-95253680D01*
X195257741Y-95253680D01*
X195104255Y-95270354D01*
X194908833Y-95336120D01*
X194732093Y-95442317D01*
X194582280Y-95583989D01*
X194466383Y-95754525D01*
X194432557Y-95839096D01*
X194333137Y-95793053D01*
X194163465Y-95767543D01*
X193993453Y-95790681D01*
X193836769Y-95860605D01*
X193706009Y-95971694D01*
X193611683Y-96115019D01*
X193561375Y-96279056D01*
X193559129Y-96450621D01*
X191728206Y-96450621D01*
X191739966Y-96431912D01*
X191782692Y-96378486D01*
X191787935Y-96355590D01*
X191800457Y-96335668D01*
X191808215Y-96267044D01*
X191813200Y-96245279D01*
X191813200Y-96222952D01*
X191820907Y-96154781D01*
X191813200Y-96132711D01*
X191813200Y-95943446D01*
X191816525Y-95933978D01*
X191892639Y-95949118D01*
X192201361Y-95949118D01*
X192365826Y-95916404D01*
X192497499Y-95828423D01*
X192514433Y-95853767D01*
X192678664Y-95963503D01*
X192862638Y-96000098D01*
X192991000Y-96000098D01*
X192991000Y-95352200D01*
X193043000Y-95352200D01*
X193043000Y-96000098D01*
X193171362Y-96000098D01*
X193355336Y-95963503D01*
X193519567Y-95853767D01*
X193629303Y-95689536D01*
X193665898Y-95505562D01*
X193665898Y-95352200D01*
X193043000Y-95352200D01*
X192991000Y-95352200D01*
X192991000Y-95300200D01*
X193665898Y-95300200D01*
X193665898Y-95146838D01*
X193643114Y-95032298D01*
X193729151Y-95032298D01*
X193855573Y-95007151D01*
X193932849Y-94955517D01*
X194633949Y-94955517D01*
X194740863Y-94934251D01*
X194751118Y-94927399D01*
X194756153Y-94927399D01*
X194777870Y-94935025D01*
X194846403Y-94927399D01*
X194869168Y-94927399D01*
X194890856Y-94922452D01*
X194958834Y-94914887D01*
X194978731Y-94902406D01*
X195001678Y-94897171D01*
X195017402Y-94884641D01*
X195111833Y-95025967D01*
X195276064Y-95135703D01*
X195460038Y-95172298D01*
X195613400Y-95172298D01*
X195613400Y-94549400D01*
X195665400Y-94549400D01*
X195665400Y-95172298D01*
X195818762Y-95172298D01*
X196002736Y-95135703D01*
X196166967Y-95025967D01*
X196276703Y-94861736D01*
X196313298Y-94677762D01*
X196313298Y-94549400D01*
X195665400Y-94549400D01*
X195613400Y-94549400D01*
X195613400Y-94497400D01*
X196313298Y-94497400D01*
X196313298Y-94369038D01*
X196276703Y-94185064D01*
X196166967Y-94020833D01*
X196141623Y-94003899D01*
X196229604Y-93872226D01*
X196262318Y-93707761D01*
X196262318Y-93682789D01*
X197549290Y-94969762D01*
G36*
X192880201Y-99667669D02*
G01*
X192880201Y-99888355D01*
X192782536Y-99823097D01*
X192598562Y-99786502D01*
X192445200Y-99786502D01*
X192445200Y-100461400D01*
X192393200Y-100461400D01*
X192393200Y-99786502D01*
X192239838Y-99786502D01*
X192193687Y-99795682D01*
X192193244Y-99793738D01*
X192185678Y-99725752D01*
X192173197Y-99705856D01*
X192167964Y-99682913D01*
X192124918Y-99628894D01*
X192113060Y-99609988D01*
X192097275Y-99594203D01*
X192054518Y-99540546D01*
X192033461Y-99530389D01*
X192008200Y-99505128D01*
X192008200Y-99364780D01*
X191935951Y-99166281D01*
X191800170Y-99004461D01*
X191617230Y-98898841D01*
X191450260Y-98869400D01*
X192081933Y-98869400D01*
X192880201Y-99667669D01*
G37*
X192880201Y-99667669D02*
X192880201Y-99888355D01*
X192782536Y-99823097D01*
X192598562Y-99786502D01*
X192445200Y-99786502D01*
X192445200Y-100461400D01*
X192393200Y-100461400D01*
X192393200Y-99786502D01*
X192239838Y-99786502D01*
X192193687Y-99795682D01*
X192193244Y-99793738D01*
X192185678Y-99725752D01*
X192173197Y-99705856D01*
X192167964Y-99682913D01*
X192124918Y-99628894D01*
X192113060Y-99609988D01*
X192097275Y-99594203D01*
X192054518Y-99540546D01*
X192033461Y-99530389D01*
X192008200Y-99505128D01*
X192008200Y-99364780D01*
X191935951Y-99166281D01*
X191800170Y-99004461D01*
X191617230Y-98898841D01*
X191450260Y-98869400D01*
X192081933Y-98869400D01*
X192880201Y-99667669D01*
M02*
