G04 #@! TF.GenerationSoftware,KiCad,Pcbnew,5.99.0-unknown-4135f0c~100~ubuntu18.04.1*
G04 #@! TF.CreationDate,2019-10-31T15:23:41-04:00*
G04 #@! TF.ProjectId,bias,62696173-2e6b-4696-9361-645f70636258,rev?*
G04 #@! TF.SameCoordinates,Original*
G04 #@! TF.FileFunction,Soldermask,Bot*
G04 #@! TF.FilePolarity,Negative*
%FSLAX46Y46*%
G04 Gerber Fmt 4.6, Leading zero omitted, Abs format (unit mm)*
G04 Created by KiCad (PCBNEW 5.99.0-unknown-4135f0c~100~ubuntu18.04.1) date 2019-10-31 15:23:41*
%MOMM*%
%LPD*%
G04 APERTURE LIST*
%ADD10O,1.700000X1.700000*%
%ADD11R,1.700000X1.700000*%
%ADD12C,0.704800*%
%ADD13C,0.400000*%
G04 APERTURE END LIST*
G36*
X204000061Y-95324504D02*
G01*
X204027491Y-95327854D01*
X204027513Y-95327857D01*
X204070643Y-95335077D01*
X204070664Y-95335081D01*
X204113434Y-95344171D01*
X204113455Y-95344176D01*
X204155785Y-95355126D01*
X204155806Y-95355132D01*
X204197616Y-95367912D01*
X204197637Y-95367919D01*
X204238857Y-95382519D01*
X204238877Y-95382526D01*
X204279417Y-95398906D01*
X204279437Y-95398915D01*
X204319227Y-95417045D01*
X204319247Y-95417054D01*
X204358207Y-95436904D01*
X204358226Y-95436915D01*
X204396276Y-95458445D01*
X204396295Y-95458456D01*
X204433385Y-95481626D01*
X204433403Y-95481638D01*
X204469433Y-95506408D01*
X204469451Y-95506421D01*
X204504371Y-95532731D01*
X204504388Y-95532744D01*
X204538128Y-95560554D01*
X204538145Y-95560568D01*
X204570635Y-95589828D01*
X204570650Y-95589843D01*
X204601840Y-95620493D01*
X204601856Y-95620509D01*
X204631676Y-95652479D01*
X204631690Y-95652495D01*
X204660090Y-95685745D01*
X204660104Y-95685762D01*
X204687024Y-95720222D01*
X204687037Y-95720240D01*
X204712427Y-95755840D01*
X204712439Y-95755858D01*
X204736249Y-95792528D01*
X204736261Y-95792546D01*
X204758461Y-95830216D01*
X204758472Y-95830235D01*
X204778992Y-95868845D01*
X204779001Y-95868865D01*
X204797831Y-95908325D01*
X204797840Y-95908345D01*
X204814920Y-95948595D01*
X204814928Y-95948615D01*
X204830248Y-95989575D01*
X204830256Y-95989595D01*
X204843766Y-96031175D01*
X204843772Y-96031196D01*
X204855452Y-96073336D01*
X204855457Y-96073357D01*
X204865297Y-96115957D01*
X204865302Y-96115979D01*
X204873272Y-96158969D01*
X204873275Y-96158991D01*
X204875495Y-96174931D01*
X204875500Y-96175000D01*
X204875500Y-98225000D01*
X204875495Y-98225069D01*
X204873275Y-98240999D01*
X204873272Y-98241021D01*
X204865302Y-98284011D01*
X204865297Y-98284033D01*
X204855457Y-98326643D01*
X204855452Y-98326664D01*
X204843772Y-98368794D01*
X204843766Y-98368814D01*
X204830256Y-98410404D01*
X204830248Y-98410425D01*
X204814938Y-98451375D01*
X204814930Y-98451395D01*
X204797840Y-98491645D01*
X204797831Y-98491665D01*
X204779011Y-98531135D01*
X204779001Y-98531155D01*
X204758471Y-98569755D01*
X204758461Y-98569774D01*
X204736271Y-98607454D01*
X204736259Y-98607472D01*
X204712439Y-98644142D01*
X204712427Y-98644160D01*
X204687037Y-98679760D01*
X204687024Y-98679778D01*
X204660104Y-98714228D01*
X204660090Y-98714245D01*
X204631700Y-98747495D01*
X204631686Y-98747511D01*
X204601866Y-98779491D01*
X204601850Y-98779507D01*
X204570660Y-98810157D01*
X204570644Y-98810172D01*
X204538144Y-98839422D01*
X204538128Y-98839436D01*
X204504398Y-98867256D01*
X204504381Y-98867269D01*
X204469461Y-98893579D01*
X204469443Y-98893592D01*
X204433403Y-98918362D01*
X204433385Y-98918374D01*
X204396305Y-98941544D01*
X204396286Y-98941555D01*
X204358226Y-98963085D01*
X204358207Y-98963096D01*
X204319247Y-98982946D01*
X204319227Y-98982955D01*
X204279447Y-99001085D01*
X204279427Y-99001094D01*
X204238887Y-99017474D01*
X204238867Y-99017481D01*
X204197647Y-99032081D01*
X204197626Y-99032088D01*
X204155806Y-99044868D01*
X204155785Y-99044874D01*
X204113455Y-99055824D01*
X204113434Y-99055829D01*
X204070664Y-99064919D01*
X204070643Y-99064923D01*
X204027523Y-99072143D01*
X204027501Y-99072146D01*
X204000061Y-99075496D01*
X204000000Y-99075500D01*
X203325000Y-99075500D01*
X203324567Y-99075250D01*
X203324500Y-99075000D01*
X203324500Y-95325000D01*
X203324750Y-95324567D01*
X203325000Y-95324500D01*
X204000000Y-95324500D01*
X204000061Y-95324504D01*
G37*
G36*
X196875433Y-95324750D02*
G01*
X196875500Y-95325000D01*
X196875500Y-99075000D01*
X196875250Y-99075433D01*
X196875000Y-99075500D01*
X196200000Y-99075500D01*
X196199939Y-99075496D01*
X196172509Y-99072146D01*
X196172487Y-99072143D01*
X196129357Y-99064923D01*
X196129336Y-99064919D01*
X196086566Y-99055829D01*
X196086545Y-99055824D01*
X196044215Y-99044874D01*
X196044194Y-99044868D01*
X196002384Y-99032088D01*
X196002363Y-99032081D01*
X195961143Y-99017481D01*
X195961123Y-99017474D01*
X195920583Y-99001094D01*
X195920563Y-99001085D01*
X195880773Y-98982955D01*
X195880753Y-98982946D01*
X195841793Y-98963096D01*
X195841774Y-98963085D01*
X195803724Y-98941555D01*
X195803705Y-98941544D01*
X195766615Y-98918374D01*
X195766597Y-98918362D01*
X195730567Y-98893592D01*
X195730549Y-98893579D01*
X195695629Y-98867269D01*
X195695612Y-98867256D01*
X195661872Y-98839446D01*
X195661855Y-98839432D01*
X195629365Y-98810172D01*
X195629350Y-98810157D01*
X195598160Y-98779507D01*
X195598144Y-98779491D01*
X195568324Y-98747521D01*
X195568310Y-98747505D01*
X195539910Y-98714255D01*
X195539896Y-98714238D01*
X195512976Y-98679778D01*
X195512963Y-98679760D01*
X195487573Y-98644160D01*
X195487561Y-98644142D01*
X195463751Y-98607472D01*
X195463739Y-98607454D01*
X195441539Y-98569784D01*
X195441528Y-98569765D01*
X195421008Y-98531155D01*
X195420999Y-98531135D01*
X195402169Y-98491675D01*
X195402160Y-98491655D01*
X195385080Y-98451405D01*
X195385072Y-98451385D01*
X195369752Y-98410425D01*
X195369744Y-98410405D01*
X195356234Y-98368825D01*
X195356228Y-98368804D01*
X195344548Y-98326664D01*
X195344543Y-98326643D01*
X195334703Y-98284043D01*
X195334698Y-98284021D01*
X195326728Y-98241031D01*
X195326725Y-98241009D01*
X195324505Y-98225069D01*
X195324500Y-98225000D01*
X195324500Y-96175000D01*
X195324505Y-96174931D01*
X195326725Y-96159001D01*
X195326728Y-96158979D01*
X195334698Y-96115989D01*
X195334703Y-96115967D01*
X195344543Y-96073357D01*
X195344548Y-96073336D01*
X195356228Y-96031206D01*
X195356234Y-96031186D01*
X195369744Y-95989596D01*
X195369752Y-95989575D01*
X195385062Y-95948625D01*
X195385070Y-95948605D01*
X195402160Y-95908355D01*
X195402169Y-95908335D01*
X195420989Y-95868865D01*
X195420999Y-95868845D01*
X195441529Y-95830245D01*
X195441539Y-95830226D01*
X195463729Y-95792546D01*
X195463741Y-95792528D01*
X195487561Y-95755858D01*
X195487573Y-95755840D01*
X195512963Y-95720240D01*
X195512976Y-95720222D01*
X195539896Y-95685772D01*
X195539910Y-95685755D01*
X195568300Y-95652505D01*
X195568314Y-95652489D01*
X195598134Y-95620509D01*
X195598150Y-95620493D01*
X195629340Y-95589843D01*
X195629356Y-95589828D01*
X195661856Y-95560578D01*
X195661872Y-95560564D01*
X195695602Y-95532744D01*
X195695619Y-95532731D01*
X195730539Y-95506421D01*
X195730557Y-95506408D01*
X195766597Y-95481638D01*
X195766615Y-95481626D01*
X195803695Y-95458456D01*
X195803714Y-95458445D01*
X195841774Y-95436915D01*
X195841793Y-95436904D01*
X195880753Y-95417054D01*
X195880773Y-95417045D01*
X195920553Y-95398915D01*
X195920573Y-95398906D01*
X195961113Y-95382526D01*
X195961133Y-95382519D01*
X196002353Y-95367919D01*
X196002374Y-95367912D01*
X196044194Y-95355132D01*
X196044215Y-95355126D01*
X196086545Y-95344176D01*
X196086566Y-95344171D01*
X196129336Y-95335081D01*
X196129357Y-95335077D01*
X196172477Y-95327857D01*
X196172499Y-95327854D01*
X196199939Y-95324504D01*
X196200000Y-95324500D01*
X196875000Y-95324500D01*
X196875433Y-95324750D01*
G37*
G36*
X196668378Y-98392049D02*
G01*
X196694387Y-98463508D01*
X196704445Y-98538885D01*
X196698081Y-98614663D01*
X196675594Y-98687308D01*
X196638032Y-98753429D01*
X196587148Y-98809941D01*
X196525315Y-98854209D01*
X196455419Y-98884166D01*
X196380721Y-98898415D01*
X196304706Y-98896292D01*
X196230920Y-98877896D01*
X196162805Y-98844082D01*
X196118427Y-98808402D01*
X195601215Y-98291189D01*
X195541622Y-98207950D01*
X195515613Y-98136491D01*
X195505555Y-98061114D01*
X195511919Y-97985337D01*
X195534406Y-97912692D01*
X195571968Y-97846571D01*
X195622852Y-97790059D01*
X195684685Y-97745791D01*
X195754581Y-97715834D01*
X195829279Y-97701585D01*
X195905293Y-97703708D01*
X195979079Y-97722104D01*
X196047194Y-97755918D01*
X196091572Y-97791598D01*
X196608785Y-98308810D01*
X196668378Y-98392049D01*
G37*
G36*
X204658378Y-96192049D02*
G01*
X204684387Y-96263508D01*
X204694445Y-96338885D01*
X204688081Y-96414663D01*
X204665594Y-96487308D01*
X204628032Y-96553429D01*
X204577148Y-96609941D01*
X204515315Y-96654209D01*
X204445419Y-96684166D01*
X204370721Y-96698415D01*
X204294706Y-96696292D01*
X204220920Y-96677896D01*
X204152805Y-96644082D01*
X204108427Y-96608402D01*
X203591215Y-96091189D01*
X203531622Y-96007950D01*
X203505613Y-95936491D01*
X203495555Y-95861114D01*
X203501919Y-95785337D01*
X203524406Y-95712692D01*
X203561968Y-95646571D01*
X203612852Y-95590059D01*
X203674685Y-95545791D01*
X203744581Y-95515834D01*
X203819279Y-95501585D01*
X203895293Y-95503708D01*
X203969079Y-95522104D01*
X204037194Y-95555918D01*
X204081572Y-95591598D01*
X204598785Y-96108810D01*
X204658378Y-96192049D01*
G37*
G36*
X196197049Y-95536622D02*
G01*
X196268508Y-95510613D01*
X196343885Y-95500555D01*
X196419663Y-95506919D01*
X196492308Y-95529406D01*
X196558429Y-95566968D01*
X196614941Y-95617852D01*
X196659209Y-95679685D01*
X196689166Y-95749581D01*
X196703415Y-95824279D01*
X196701292Y-95900294D01*
X196682896Y-95974080D01*
X196649082Y-96042195D01*
X196613402Y-96086573D01*
X196096189Y-96603785D01*
X196012950Y-96663378D01*
X195941491Y-96689387D01*
X195866114Y-96699445D01*
X195790337Y-96693081D01*
X195717692Y-96670594D01*
X195651571Y-96633032D01*
X195595059Y-96582148D01*
X195550791Y-96520315D01*
X195520834Y-96450419D01*
X195506585Y-96375721D01*
X195508708Y-96299707D01*
X195527104Y-96225921D01*
X195560918Y-96157806D01*
X195596598Y-96113428D01*
X196113810Y-95596215D01*
X196197049Y-95536622D01*
G37*
G36*
X204187049Y-97736622D02*
G01*
X204258508Y-97710613D01*
X204333885Y-97700555D01*
X204409663Y-97706919D01*
X204482308Y-97729406D01*
X204548429Y-97766968D01*
X204604941Y-97817852D01*
X204649209Y-97879685D01*
X204679166Y-97949581D01*
X204693415Y-98024279D01*
X204691292Y-98100294D01*
X204672896Y-98174080D01*
X204639082Y-98242195D01*
X204603402Y-98286573D01*
X204086189Y-98803785D01*
X204002950Y-98863378D01*
X203931491Y-98889387D01*
X203856114Y-98899445D01*
X203780337Y-98893081D01*
X203707692Y-98870594D01*
X203641571Y-98833032D01*
X203585059Y-98782148D01*
X203540791Y-98720315D01*
X203510834Y-98650419D01*
X203496585Y-98575721D01*
X203498708Y-98499707D01*
X203517104Y-98425921D01*
X203550918Y-98357806D01*
X203586598Y-98313428D01*
X204103810Y-97796215D01*
X204187049Y-97736622D01*
G37*
D10*
X209140000Y-102580000D03*
X206600000Y-102580000D03*
X209140000Y-100040000D03*
X206600000Y-100040000D03*
X209140000Y-97500000D03*
D11*
X206600000Y-97500000D03*
D12*
X190410000Y-96595000D03*
X190410000Y-102945000D03*
D13*
X194873134Y-102692474D03*
X195580241Y-103399581D03*
X196287348Y-104106687D03*
X194166028Y-103399581D03*
X194873134Y-104106687D03*
X195580241Y-104813794D03*
X193458921Y-104106687D03*
X194166028Y-104813794D03*
X194873134Y-105520901D03*
M02*
