G04 #@! TF.GenerationSoftware,KiCad,Pcbnew,(5.99.0-11526-gd613292b67)*
G04 #@! TF.CreationDate,2021-07-26T19:59:08-04:00*
G04 #@! TF.ProjectId,bias,62696173-2e6b-4696-9361-645f70636258,rev?*
G04 #@! TF.SameCoordinates,Original*
G04 #@! TF.FileFunction,Copper,L3,Inr*
G04 #@! TF.FilePolarity,Positive*
%FSLAX46Y46*%
G04 Gerber Fmt 4.6, Leading zero omitted, Abs format (unit mm)*
G04 Created by KiCad (PCBNEW (5.99.0-11526-gd613292b67)) date 2021-07-26 19:59:08*
%MOMM*%
%LPD*%
G01*
G04 APERTURE LIST*
G04 #@! TA.AperFunction,ComponentPad*
%ADD10C,0.704800*%
G04 #@! TD*
G04 #@! TA.AperFunction,ComponentPad*
%ADD11C,0.200000*%
G04 #@! TD*
G04 #@! TA.AperFunction,ComponentPad*
%ADD12O,1.700000X1.200000*%
G04 #@! TD*
G04 #@! TA.AperFunction,ComponentPad*
%ADD13R,1.700000X1.700000*%
G04 #@! TD*
G04 #@! TA.AperFunction,ComponentPad*
%ADD14O,1.700000X1.700000*%
G04 #@! TD*
G04 #@! TA.AperFunction,ViaPad*
%ADD15C,0.600000*%
G04 #@! TD*
G04 #@! TA.AperFunction,Conductor*
%ADD16C,0.500000*%
G04 #@! TD*
G04 #@! TA.AperFunction,Conductor*
%ADD17C,0.254000*%
G04 #@! TD*
G04 APERTURE END LIST*
D10*
X190359200Y-97255400D03*
X190359200Y-103605400D03*
D11*
X194822334Y-104767087D03*
X194822334Y-103352874D03*
X196236548Y-104767087D03*
X195529441Y-104059981D03*
X193408121Y-104767087D03*
X194115228Y-104059981D03*
X195529441Y-105474194D03*
X194115228Y-105474194D03*
X194822334Y-106181301D03*
D12*
X195559240Y-99142680D03*
X195559240Y-96202680D03*
X203759239Y-99142680D03*
X203759239Y-96202680D03*
D13*
X207391000Y-98260000D03*
D14*
X209931000Y-98260000D03*
X207391000Y-100800000D03*
X209931000Y-100800000D03*
X207391000Y-103340000D03*
X209931000Y-103340000D03*
D15*
X204240000Y-90670000D03*
X193869200Y-92490400D03*
X208229200Y-96260400D03*
X206919200Y-94670400D03*
X203414200Y-107100400D03*
X203414200Y-106250400D03*
X204264200Y-107100400D03*
X204233742Y-106254173D03*
X204100000Y-109900000D03*
X192450000Y-100000000D03*
X193319400Y-94348400D03*
X193329400Y-93458400D03*
X196347600Y-94167000D03*
X196900000Y-111400000D03*
X199275000Y-102050000D03*
X200650000Y-107575000D03*
X200225000Y-101325000D03*
X200800000Y-108875000D03*
X206275000Y-107975000D03*
X202025000Y-108200000D03*
X199400000Y-107075000D03*
X198400000Y-97600000D03*
X200925000Y-97550000D03*
X195076399Y-93228401D03*
X198850000Y-101075000D03*
X202329200Y-105310400D03*
X205425000Y-105600000D03*
X206200000Y-105600000D03*
X190359200Y-101065400D03*
X191125000Y-99225000D03*
X194525000Y-109300000D03*
X197815200Y-108991400D03*
X191759400Y-93878400D03*
X191950000Y-99150000D03*
X190365500Y-98519100D03*
X199877680Y-100543360D03*
X195950840Y-101097080D03*
X199325000Y-98225000D03*
X200025000Y-96975000D03*
D16*
X207391000Y-98260000D02*
X207391000Y-98291000D01*
D17*
X203564028Y-89777778D02*
X204197654Y-90001918D01*
X204297334Y-90043798D01*
X204172146Y-90043033D01*
X204136751Y-90047882D01*
X203998904Y-90087279D01*
X203966294Y-90101866D01*
X203845045Y-90178368D01*
X203817838Y-90201523D01*
X203722935Y-90308981D01*
X203703322Y-90338839D01*
X203642392Y-90468614D01*
X203631947Y-90502779D01*
X203609891Y-90644439D01*
X203609455Y-90680160D01*
X203628044Y-90822316D01*
X203637651Y-90856725D01*
X203695391Y-90987949D01*
X203714269Y-91018278D01*
X203806519Y-91128023D01*
X203833151Y-91151835D01*
X203952494Y-91231277D01*
X203984740Y-91246657D01*
X204121584Y-91289409D01*
X204156847Y-91295121D01*
X204300189Y-91297749D01*
X204335641Y-91293333D01*
X204473959Y-91255623D01*
X204506746Y-91241435D01*
X204628920Y-91166420D01*
X204656407Y-91143600D01*
X204752616Y-91037309D01*
X204772592Y-91007692D01*
X204835102Y-90878671D01*
X204845964Y-90844638D01*
X204869750Y-90703259D01*
X204871487Y-90683894D01*
X204871638Y-90671540D01*
X204870374Y-90652138D01*
X204850050Y-90510220D01*
X204840024Y-90475931D01*
X204780685Y-90345421D01*
X204761437Y-90315324D01*
X204667853Y-90206715D01*
X204651827Y-90192735D01*
X204817295Y-90262255D01*
X205420854Y-90557909D01*
X206006361Y-90887909D01*
X206571862Y-91251162D01*
X207115426Y-91646422D01*
X207635297Y-92072414D01*
X208129712Y-92527694D01*
X208597009Y-93010728D01*
X209035687Y-93519967D01*
X209444209Y-94053630D01*
X209821272Y-94610011D01*
X210165585Y-95187205D01*
X210476019Y-95783317D01*
X210751536Y-96396363D01*
X210991207Y-97024266D01*
X211194244Y-97664964D01*
X211359969Y-98316323D01*
X211487825Y-98976148D01*
X211577387Y-99642240D01*
X211628359Y-100312417D01*
X211640570Y-100984407D01*
X211613978Y-101655970D01*
X211548672Y-102324906D01*
X211444873Y-102988927D01*
X211302921Y-103645875D01*
X211123292Y-104293531D01*
X210906586Y-104929740D01*
X210653530Y-105552368D01*
X210364953Y-106159372D01*
X210041837Y-106748692D01*
X209685237Y-107318401D01*
X209296353Y-107866577D01*
X208876489Y-108391390D01*
X208427034Y-108891097D01*
X207949498Y-109364025D01*
X207445452Y-109808616D01*
X206916579Y-110223384D01*
X206364667Y-110606925D01*
X205791533Y-110957982D01*
X205199102Y-111275372D01*
X204589341Y-111558042D01*
X203964267Y-111805057D01*
X203325986Y-112015585D01*
X202676637Y-112188920D01*
X202018344Y-112324495D01*
X201353340Y-112421851D01*
X200683809Y-112480668D01*
X200012006Y-112500746D01*
X199340179Y-112482021D01*
X198981017Y-112451198D01*
X198995966Y-109910160D01*
X203469455Y-109910160D01*
X203488044Y-110052316D01*
X203497651Y-110086725D01*
X203555391Y-110217949D01*
X203574269Y-110248278D01*
X203666519Y-110358023D01*
X203693151Y-110381835D01*
X203812494Y-110461277D01*
X203844740Y-110476657D01*
X203981584Y-110519409D01*
X204016847Y-110525121D01*
X204160189Y-110527749D01*
X204195641Y-110523333D01*
X204333959Y-110485623D01*
X204366746Y-110471435D01*
X204488920Y-110396420D01*
X204516407Y-110373600D01*
X204612616Y-110267309D01*
X204632592Y-110237692D01*
X204695102Y-110108671D01*
X204705964Y-110074638D01*
X204729750Y-109933259D01*
X204731487Y-109913894D01*
X204731638Y-109901540D01*
X204730374Y-109882138D01*
X204710050Y-109740220D01*
X204700024Y-109705931D01*
X204640685Y-109575421D01*
X204621437Y-109545324D01*
X204527853Y-109436715D01*
X204500932Y-109413231D01*
X204380627Y-109335253D01*
X204348197Y-109320268D01*
X204210841Y-109279190D01*
X204175509Y-109273909D01*
X204032146Y-109273033D01*
X203996751Y-109277882D01*
X203858904Y-109317279D01*
X203826294Y-109331866D01*
X203705045Y-109408368D01*
X203677838Y-109431523D01*
X203582935Y-109538981D01*
X203563322Y-109568839D01*
X203502392Y-109698614D01*
X203491947Y-109732779D01*
X203469891Y-109874439D01*
X203469455Y-109910160D01*
X198995966Y-109910160D01*
X199001996Y-108885160D01*
X200169455Y-108885160D01*
X200188044Y-109027316D01*
X200197651Y-109061725D01*
X200255391Y-109192949D01*
X200274269Y-109223278D01*
X200366519Y-109333023D01*
X200393151Y-109356835D01*
X200512494Y-109436277D01*
X200544740Y-109451657D01*
X200681584Y-109494409D01*
X200716847Y-109500121D01*
X200860189Y-109502749D01*
X200895641Y-109498333D01*
X201033959Y-109460623D01*
X201066746Y-109446435D01*
X201188920Y-109371420D01*
X201216407Y-109348600D01*
X201312616Y-109242309D01*
X201332592Y-109212692D01*
X201395102Y-109083671D01*
X201405964Y-109049638D01*
X201429750Y-108908259D01*
X201431487Y-108888894D01*
X201431638Y-108876540D01*
X201430374Y-108857138D01*
X201410050Y-108715220D01*
X201400024Y-108680931D01*
X201340685Y-108550421D01*
X201321437Y-108520324D01*
X201227853Y-108411715D01*
X201200932Y-108388231D01*
X201080627Y-108310253D01*
X201048197Y-108295268D01*
X200910841Y-108254190D01*
X200875509Y-108248909D01*
X200732146Y-108248033D01*
X200696751Y-108252882D01*
X200558904Y-108292279D01*
X200526294Y-108306866D01*
X200405045Y-108383368D01*
X200377838Y-108406523D01*
X200282935Y-108513981D01*
X200263322Y-108543839D01*
X200202392Y-108673614D01*
X200191947Y-108707779D01*
X200169891Y-108849439D01*
X200169455Y-108885160D01*
X199001996Y-108885160D01*
X199005967Y-108210160D01*
X201394455Y-108210160D01*
X201413044Y-108352316D01*
X201422651Y-108386725D01*
X201480391Y-108517949D01*
X201499269Y-108548278D01*
X201591519Y-108658023D01*
X201618151Y-108681835D01*
X201737494Y-108761277D01*
X201769740Y-108776657D01*
X201906584Y-108819409D01*
X201941847Y-108825121D01*
X202085189Y-108827749D01*
X202120641Y-108823333D01*
X202258959Y-108785623D01*
X202291746Y-108771435D01*
X202413920Y-108696420D01*
X202441407Y-108673600D01*
X202537616Y-108567309D01*
X202557592Y-108537692D01*
X202620102Y-108408671D01*
X202630964Y-108374638D01*
X202654750Y-108233259D01*
X202656487Y-108213894D01*
X202656638Y-108201540D01*
X202655374Y-108182138D01*
X202635050Y-108040220D01*
X202625024Y-108005931D01*
X202615580Y-107985160D01*
X205644455Y-107985160D01*
X205663044Y-108127316D01*
X205672651Y-108161725D01*
X205730391Y-108292949D01*
X205749269Y-108323278D01*
X205841519Y-108433023D01*
X205868151Y-108456835D01*
X205987494Y-108536277D01*
X206019740Y-108551657D01*
X206156584Y-108594409D01*
X206191847Y-108600121D01*
X206335189Y-108602749D01*
X206370641Y-108598333D01*
X206508959Y-108560623D01*
X206541746Y-108546435D01*
X206663920Y-108471420D01*
X206691407Y-108448600D01*
X206787616Y-108342309D01*
X206807592Y-108312692D01*
X206870102Y-108183671D01*
X206880964Y-108149638D01*
X206904750Y-108008259D01*
X206906487Y-107988894D01*
X206906638Y-107976540D01*
X206905374Y-107957138D01*
X206885050Y-107815220D01*
X206875024Y-107780931D01*
X206815685Y-107650421D01*
X206796437Y-107620324D01*
X206702853Y-107511715D01*
X206675932Y-107488231D01*
X206555627Y-107410253D01*
X206523197Y-107395268D01*
X206385841Y-107354190D01*
X206350509Y-107348909D01*
X206207146Y-107348033D01*
X206171751Y-107352882D01*
X206033904Y-107392279D01*
X206001294Y-107406866D01*
X205880045Y-107483368D01*
X205852838Y-107506523D01*
X205757935Y-107613981D01*
X205738322Y-107643839D01*
X205677392Y-107773614D01*
X205666947Y-107807779D01*
X205644891Y-107949439D01*
X205644455Y-107985160D01*
X202615580Y-107985160D01*
X202565685Y-107875421D01*
X202546437Y-107845324D01*
X202452853Y-107736715D01*
X202425932Y-107713231D01*
X202305627Y-107635253D01*
X202273197Y-107620268D01*
X202135841Y-107579190D01*
X202100509Y-107573909D01*
X201957146Y-107573033D01*
X201921751Y-107577882D01*
X201783904Y-107617279D01*
X201751294Y-107631866D01*
X201630045Y-107708368D01*
X201602838Y-107731523D01*
X201507935Y-107838981D01*
X201488322Y-107868839D01*
X201427392Y-107998614D01*
X201416947Y-108032779D01*
X201394891Y-108174439D01*
X201394455Y-108210160D01*
X199005967Y-108210160D01*
X199009746Y-107567882D01*
X199112494Y-107636277D01*
X199144740Y-107651657D01*
X199281584Y-107694409D01*
X199316847Y-107700121D01*
X199460189Y-107702749D01*
X199495641Y-107698333D01*
X199633959Y-107660623D01*
X199666746Y-107646435D01*
X199766542Y-107585160D01*
X200019455Y-107585160D01*
X200038044Y-107727316D01*
X200047651Y-107761725D01*
X200105391Y-107892949D01*
X200124269Y-107923278D01*
X200216519Y-108033023D01*
X200243151Y-108056835D01*
X200362494Y-108136277D01*
X200394740Y-108151657D01*
X200531584Y-108194409D01*
X200566847Y-108200121D01*
X200710189Y-108202749D01*
X200745641Y-108198333D01*
X200883959Y-108160623D01*
X200916746Y-108146435D01*
X201038920Y-108071420D01*
X201066407Y-108048600D01*
X201162616Y-107942309D01*
X201182592Y-107912692D01*
X201245102Y-107783671D01*
X201255964Y-107749638D01*
X201279750Y-107608259D01*
X201281487Y-107588894D01*
X201281638Y-107576540D01*
X201280374Y-107557138D01*
X201260050Y-107415220D01*
X201250024Y-107380931D01*
X201190685Y-107250421D01*
X201171437Y-107220324D01*
X201077853Y-107111715D01*
X201050932Y-107088231D01*
X200930627Y-107010253D01*
X200898197Y-106995268D01*
X200760841Y-106954190D01*
X200725509Y-106948909D01*
X200582146Y-106948033D01*
X200546751Y-106952882D01*
X200408904Y-106992279D01*
X200376294Y-107006866D01*
X200255045Y-107083368D01*
X200227838Y-107106523D01*
X200132935Y-107213981D01*
X200113322Y-107243839D01*
X200052392Y-107373614D01*
X200041947Y-107407779D01*
X200019891Y-107549439D01*
X200019455Y-107585160D01*
X199766542Y-107585160D01*
X199788920Y-107571420D01*
X199816407Y-107548600D01*
X199912616Y-107442309D01*
X199932592Y-107412692D01*
X199995102Y-107283671D01*
X200005964Y-107249638D01*
X200029750Y-107108259D01*
X200031487Y-107088894D01*
X200031638Y-107076540D01*
X200030374Y-107057138D01*
X200010050Y-106915220D01*
X200000024Y-106880931D01*
X199940685Y-106750421D01*
X199921437Y-106720324D01*
X199827853Y-106611715D01*
X199800932Y-106588231D01*
X199680627Y-106510253D01*
X199648197Y-106495268D01*
X199510841Y-106454190D01*
X199475509Y-106448909D01*
X199332146Y-106448033D01*
X199296751Y-106452882D01*
X199158904Y-106492279D01*
X199126294Y-106506866D01*
X199015577Y-106576723D01*
X199024301Y-105093883D01*
X201404387Y-107112003D01*
X201469281Y-107140802D01*
X201486131Y-107141900D01*
X202718631Y-107139400D01*
X202784864Y-107119806D01*
X202802244Y-107252716D01*
X202811851Y-107287125D01*
X202869591Y-107418349D01*
X202888469Y-107448678D01*
X202980719Y-107558423D01*
X203007351Y-107582235D01*
X203126694Y-107661677D01*
X203158940Y-107677057D01*
X203295784Y-107719809D01*
X203331047Y-107725521D01*
X203474389Y-107728149D01*
X203509841Y-107723733D01*
X203648159Y-107686023D01*
X203680946Y-107671835D01*
X203803120Y-107596820D01*
X203830607Y-107574000D01*
X203838450Y-107565336D01*
X203857351Y-107582235D01*
X203976694Y-107661677D01*
X204008940Y-107677057D01*
X204145784Y-107719809D01*
X204181047Y-107725521D01*
X204324389Y-107728149D01*
X204359841Y-107723733D01*
X204498159Y-107686023D01*
X204530946Y-107671835D01*
X204653120Y-107596820D01*
X204680607Y-107574000D01*
X204776816Y-107467709D01*
X204796792Y-107438092D01*
X204859302Y-107309071D01*
X204870164Y-107275038D01*
X204893950Y-107133659D01*
X204895687Y-107114294D01*
X204895838Y-107101940D01*
X204894574Y-107082538D01*
X204874250Y-106940620D01*
X204864224Y-106906331D01*
X204804885Y-106775821D01*
X204785637Y-106745724D01*
X204711636Y-106659842D01*
X204746358Y-106621482D01*
X204766334Y-106591865D01*
X204828844Y-106462844D01*
X204839706Y-106428811D01*
X204863492Y-106287432D01*
X204865229Y-106268067D01*
X204865380Y-106255713D01*
X204864116Y-106236311D01*
X204843792Y-106094393D01*
X204833766Y-106060104D01*
X204774427Y-105929594D01*
X204755179Y-105899497D01*
X204661595Y-105790888D01*
X204634674Y-105767404D01*
X204514369Y-105689426D01*
X204481939Y-105674441D01*
X204344583Y-105633363D01*
X204309251Y-105628082D01*
X204165888Y-105627206D01*
X204130493Y-105632055D01*
X203992646Y-105671452D01*
X203960036Y-105686039D01*
X203838787Y-105762541D01*
X203826181Y-105773270D01*
X203815132Y-105763631D01*
X203694827Y-105685653D01*
X203662397Y-105670668D01*
X203525041Y-105629590D01*
X203489709Y-105624309D01*
X203346346Y-105623433D01*
X203310951Y-105628282D01*
X203173104Y-105667679D01*
X203140494Y-105682266D01*
X203019245Y-105758768D01*
X202992038Y-105781923D01*
X202897135Y-105889381D01*
X202877522Y-105919239D01*
X202816592Y-106049014D01*
X202806147Y-106083179D01*
X202789415Y-106190646D01*
X202760971Y-105767026D01*
X202841816Y-105677709D01*
X202861792Y-105648092D01*
X202880170Y-105610160D01*
X204794455Y-105610160D01*
X204813044Y-105752316D01*
X204822651Y-105786725D01*
X204880391Y-105917949D01*
X204899269Y-105948278D01*
X204991519Y-106058023D01*
X205018151Y-106081835D01*
X205137494Y-106161277D01*
X205169740Y-106176657D01*
X205306584Y-106219409D01*
X205341847Y-106225121D01*
X205485189Y-106227749D01*
X205520641Y-106223333D01*
X205658959Y-106185623D01*
X205691746Y-106171435D01*
X205813920Y-106096420D01*
X205814428Y-106095998D01*
X205912494Y-106161277D01*
X205944740Y-106176657D01*
X206081584Y-106219409D01*
X206116847Y-106225121D01*
X206260189Y-106227749D01*
X206295641Y-106223333D01*
X206433959Y-106185623D01*
X206466746Y-106171435D01*
X206588920Y-106096420D01*
X206616407Y-106073600D01*
X206712616Y-105967309D01*
X206732592Y-105937692D01*
X206795102Y-105808671D01*
X206805964Y-105774638D01*
X206829750Y-105633259D01*
X206831487Y-105613894D01*
X206831638Y-105601540D01*
X206830374Y-105582138D01*
X206810050Y-105440220D01*
X206800024Y-105405931D01*
X206740685Y-105275421D01*
X206721437Y-105245324D01*
X206627853Y-105136715D01*
X206600932Y-105113231D01*
X206480627Y-105035253D01*
X206448197Y-105020268D01*
X206310841Y-104979190D01*
X206275509Y-104973909D01*
X206132146Y-104973033D01*
X206096751Y-104977882D01*
X205958904Y-105017279D01*
X205926294Y-105031866D01*
X205811827Y-105104089D01*
X205705627Y-105035253D01*
X205673197Y-105020268D01*
X205535841Y-104979190D01*
X205500509Y-104973909D01*
X205357146Y-104973033D01*
X205321751Y-104977882D01*
X205183904Y-105017279D01*
X205151294Y-105031866D01*
X205030045Y-105108368D01*
X205002838Y-105131523D01*
X204907935Y-105238981D01*
X204888322Y-105268839D01*
X204827392Y-105398614D01*
X204816947Y-105432779D01*
X204794891Y-105574439D01*
X204794455Y-105610160D01*
X202880170Y-105610160D01*
X202924302Y-105519071D01*
X202935164Y-105485038D01*
X202958950Y-105343659D01*
X202960687Y-105324294D01*
X202960838Y-105311940D01*
X202959574Y-105292538D01*
X202939250Y-105150620D01*
X202929224Y-105116331D01*
X202869885Y-104985821D01*
X202850637Y-104955724D01*
X202803665Y-104901210D01*
X202819203Y-104732230D01*
X204082458Y-103825772D01*
X204126143Y-103769806D01*
X204132636Y-103699107D01*
X204098934Y-103635151D01*
X203805195Y-103335806D01*
X206209962Y-103335806D01*
X206227201Y-103541097D01*
X206231640Y-103565283D01*
X206288425Y-103763316D01*
X206297477Y-103786180D01*
X206391645Y-103969412D01*
X206404967Y-103990083D01*
X206532932Y-104151535D01*
X206550014Y-104169224D01*
X206706901Y-104302745D01*
X206727094Y-104316779D01*
X206906928Y-104417285D01*
X206929462Y-104427130D01*
X207125393Y-104490792D01*
X207149411Y-104496073D01*
X207353976Y-104520465D01*
X207378561Y-104520980D01*
X207583967Y-104505175D01*
X207608184Y-104500905D01*
X207806609Y-104445504D01*
X207829536Y-104436611D01*
X208013421Y-104343724D01*
X208034183Y-104330548D01*
X208196524Y-104203714D01*
X208214333Y-104186755D01*
X208348946Y-104030803D01*
X208363120Y-104010709D01*
X208464879Y-103831581D01*
X208474881Y-103809116D01*
X208539909Y-103613635D01*
X208545357Y-103589655D01*
X208571177Y-103385266D01*
X208572159Y-103371235D01*
X208572571Y-103341761D01*
X208572321Y-103335806D01*
X208749962Y-103335806D01*
X208767201Y-103541097D01*
X208771640Y-103565283D01*
X208828425Y-103763316D01*
X208837477Y-103786180D01*
X208931645Y-103969412D01*
X208944967Y-103990083D01*
X209072932Y-104151535D01*
X209090014Y-104169224D01*
X209246901Y-104302745D01*
X209267094Y-104316779D01*
X209446928Y-104417285D01*
X209469462Y-104427130D01*
X209665393Y-104490792D01*
X209689411Y-104496073D01*
X209893976Y-104520465D01*
X209918561Y-104520980D01*
X210123967Y-104505175D01*
X210148184Y-104500905D01*
X210346609Y-104445504D01*
X210369536Y-104436611D01*
X210553421Y-104343724D01*
X210574183Y-104330548D01*
X210736524Y-104203714D01*
X210754333Y-104186755D01*
X210888946Y-104030803D01*
X210903120Y-104010709D01*
X211004879Y-103831581D01*
X211014881Y-103809116D01*
X211079909Y-103613635D01*
X211085357Y-103589655D01*
X211111177Y-103385266D01*
X211112159Y-103371235D01*
X211112571Y-103341761D01*
X211111982Y-103327705D01*
X211091879Y-103122675D01*
X211087102Y-103098552D01*
X211027557Y-102901331D01*
X211018187Y-102878596D01*
X210921470Y-102696696D01*
X210907861Y-102676213D01*
X210777654Y-102516564D01*
X210760326Y-102499115D01*
X210601590Y-102367797D01*
X210581204Y-102354046D01*
X210399984Y-102256061D01*
X210377314Y-102246532D01*
X210180513Y-102185612D01*
X210156424Y-102180667D01*
X209951539Y-102159133D01*
X209926950Y-102158962D01*
X209721784Y-102177633D01*
X209697628Y-102182240D01*
X209499997Y-102240406D01*
X209477196Y-102249619D01*
X209294626Y-102345065D01*
X209274050Y-102358529D01*
X209113495Y-102487618D01*
X209095926Y-102504824D01*
X208963503Y-102662639D01*
X208949609Y-102682929D01*
X208850361Y-102863461D01*
X208840674Y-102886064D01*
X208778382Y-103082434D01*
X208773269Y-103106487D01*
X208750305Y-103311217D01*
X208749962Y-103335806D01*
X208572321Y-103335806D01*
X208571982Y-103327705D01*
X208551879Y-103122675D01*
X208547102Y-103098552D01*
X208487557Y-102901331D01*
X208478187Y-102878596D01*
X208381470Y-102696696D01*
X208367861Y-102676213D01*
X208237654Y-102516564D01*
X208220326Y-102499115D01*
X208061590Y-102367797D01*
X208041204Y-102354046D01*
X207859984Y-102256061D01*
X207837314Y-102246532D01*
X207640513Y-102185612D01*
X207616424Y-102180667D01*
X207411539Y-102159133D01*
X207386950Y-102158962D01*
X207181784Y-102177633D01*
X207157628Y-102182240D01*
X206959997Y-102240406D01*
X206937196Y-102249619D01*
X206754626Y-102345065D01*
X206734050Y-102358529D01*
X206573495Y-102487618D01*
X206555926Y-102504824D01*
X206423503Y-102662639D01*
X206409609Y-102682929D01*
X206310361Y-102863461D01*
X206300674Y-102886064D01*
X206238382Y-103082434D01*
X206233269Y-103106487D01*
X206210305Y-103311217D01*
X206209962Y-103335806D01*
X203805195Y-103335806D01*
X201478934Y-100965151D01*
X201416946Y-100930538D01*
X201346085Y-100934933D01*
X201298230Y-100966012D01*
X200840806Y-101441139D01*
X200854750Y-101358259D01*
X200856487Y-101338894D01*
X200856638Y-101326540D01*
X200855374Y-101307138D01*
X200835050Y-101165220D01*
X200825024Y-101130931D01*
X200765685Y-101000421D01*
X200746437Y-100970324D01*
X200652853Y-100861715D01*
X200625932Y-100838231D01*
X200505627Y-100760253D01*
X200474716Y-100745970D01*
X200483644Y-100717998D01*
X200507430Y-100576619D01*
X200509167Y-100557254D01*
X200509318Y-100544900D01*
X200508054Y-100525498D01*
X200487730Y-100383580D01*
X200477704Y-100349291D01*
X200418365Y-100218781D01*
X200399117Y-100188684D01*
X200305533Y-100080075D01*
X200278612Y-100056591D01*
X200158307Y-99978613D01*
X200125877Y-99963628D01*
X199988521Y-99922550D01*
X199953189Y-99917269D01*
X199809826Y-99916393D01*
X199774431Y-99921242D01*
X199636584Y-99960639D01*
X199603974Y-99975226D01*
X199482725Y-100051728D01*
X199455518Y-100074883D01*
X199360615Y-100182341D01*
X199341002Y-100212199D01*
X199280072Y-100341974D01*
X199269627Y-100376139D01*
X199247571Y-100517799D01*
X199247135Y-100553520D01*
X199265724Y-100695676D01*
X199275331Y-100730085D01*
X199333071Y-100861309D01*
X199351949Y-100891638D01*
X199444199Y-101001383D01*
X199470831Y-101025195D01*
X199590174Y-101104637D01*
X199622420Y-101120017D01*
X199628229Y-101121832D01*
X199627392Y-101123614D01*
X199616947Y-101157779D01*
X199594891Y-101299439D01*
X199594455Y-101335160D01*
X199613044Y-101477316D01*
X199622651Y-101511725D01*
X199633098Y-101535467D01*
X199555627Y-101485253D01*
X199523197Y-101470268D01*
X199385841Y-101429190D01*
X199350509Y-101423909D01*
X199207146Y-101423033D01*
X199171751Y-101427882D01*
X199033904Y-101467279D01*
X199001294Y-101481866D01*
X198998307Y-101483750D01*
X198972015Y-101460696D01*
X198919000Y-101449000D01*
X196473836Y-101449000D01*
X196483432Y-101434772D01*
X196545942Y-101305751D01*
X196556804Y-101271718D01*
X196580590Y-101130339D01*
X196582327Y-101110974D01*
X196582478Y-101098620D01*
X196581214Y-101079218D01*
X196560890Y-100937300D01*
X196550864Y-100903011D01*
X196491525Y-100772501D01*
X196472277Y-100742404D01*
X196378693Y-100633795D01*
X196351772Y-100610311D01*
X196231467Y-100532333D01*
X196199037Y-100517348D01*
X196061681Y-100476270D01*
X196026349Y-100470989D01*
X195882986Y-100470113D01*
X195847591Y-100474962D01*
X195709744Y-100514359D01*
X195677134Y-100528946D01*
X195555885Y-100605448D01*
X195528678Y-100628603D01*
X195433775Y-100736061D01*
X195414162Y-100765919D01*
X195353232Y-100895694D01*
X195342787Y-100929859D01*
X195320731Y-101071519D01*
X195320295Y-101107240D01*
X195338884Y-101249396D01*
X195348491Y-101283805D01*
X195406231Y-101415029D01*
X195425109Y-101445358D01*
X195428170Y-101449000D01*
X193457195Y-101449000D01*
X193460739Y-99150226D01*
X194378385Y-99150226D01*
X194397157Y-99328833D01*
X194403189Y-99356268D01*
X194461065Y-99526278D01*
X194473025Y-99551695D01*
X194567128Y-99704657D01*
X194584422Y-99726792D01*
X194710075Y-99855105D01*
X194731844Y-99872859D01*
X194882802Y-99970145D01*
X194907962Y-99982635D01*
X195076723Y-100044059D01*
X195104026Y-100050665D01*
X195242731Y-100068187D01*
X195258523Y-100069180D01*
X195854395Y-100069180D01*
X195868440Y-100068395D01*
X196001757Y-100053441D01*
X196029149Y-100047217D01*
X196198750Y-99988156D01*
X196224083Y-99976019D01*
X196376385Y-99880850D01*
X196398399Y-99863402D01*
X196525831Y-99736856D01*
X196543432Y-99714964D01*
X196639662Y-99563330D01*
X196651976Y-99538083D01*
X196712220Y-99368898D01*
X196718635Y-99341550D01*
X196739899Y-99163223D01*
X196739990Y-99150226D01*
X202578384Y-99150226D01*
X202597156Y-99328833D01*
X202603188Y-99356268D01*
X202661064Y-99526278D01*
X202673024Y-99551695D01*
X202767127Y-99704657D01*
X202784421Y-99726792D01*
X202910074Y-99855105D01*
X202931843Y-99872859D01*
X203082801Y-99970145D01*
X203107961Y-99982635D01*
X203276722Y-100044059D01*
X203304025Y-100050665D01*
X203442730Y-100068187D01*
X203458522Y-100069180D01*
X204054394Y-100069180D01*
X204068439Y-100068395D01*
X204201756Y-100053441D01*
X204229148Y-100047217D01*
X204398749Y-99988156D01*
X204424082Y-99976019D01*
X204576384Y-99880850D01*
X204598398Y-99863402D01*
X204725830Y-99736856D01*
X204743431Y-99714964D01*
X204839661Y-99563330D01*
X204851975Y-99538083D01*
X204912219Y-99368898D01*
X204918634Y-99341550D01*
X204939898Y-99163223D01*
X204940094Y-99135134D01*
X204921322Y-98956527D01*
X204915290Y-98929092D01*
X204857414Y-98759082D01*
X204845454Y-98733665D01*
X204751351Y-98580703D01*
X204734057Y-98558568D01*
X204690413Y-98514000D01*
X205907001Y-98514000D01*
X205907001Y-99158088D01*
X205907738Y-99171693D01*
X205914485Y-99233812D01*
X205921766Y-99264437D01*
X205972846Y-99400692D01*
X205990002Y-99432027D01*
X206077270Y-99548469D01*
X206102531Y-99573730D01*
X206218973Y-99660998D01*
X206250308Y-99678154D01*
X206386563Y-99729234D01*
X206417185Y-99736515D01*
X206479303Y-99743263D01*
X206492911Y-99744000D01*
X206871432Y-99744000D01*
X206754626Y-99805065D01*
X206734050Y-99818529D01*
X206573495Y-99947618D01*
X206555926Y-99964824D01*
X206423503Y-100122639D01*
X206409609Y-100142929D01*
X206310361Y-100323461D01*
X206300674Y-100346064D01*
X206238382Y-100542434D01*
X206233269Y-100566487D01*
X206210305Y-100771217D01*
X206209962Y-100795806D01*
X206227201Y-101001097D01*
X206231640Y-101025283D01*
X206288425Y-101223316D01*
X206297477Y-101246180D01*
X206391645Y-101429412D01*
X206404967Y-101450083D01*
X206532932Y-101611535D01*
X206550014Y-101629224D01*
X206706901Y-101762745D01*
X206727094Y-101776779D01*
X206906928Y-101877285D01*
X206929462Y-101887130D01*
X207125393Y-101950792D01*
X207149411Y-101956073D01*
X207353976Y-101980465D01*
X207378561Y-101980980D01*
X207583967Y-101965175D01*
X207608184Y-101960905D01*
X207806609Y-101905504D01*
X207829536Y-101896611D01*
X208013421Y-101803724D01*
X208034183Y-101790548D01*
X208196524Y-101663714D01*
X208214333Y-101646755D01*
X208348946Y-101490803D01*
X208363120Y-101470709D01*
X208464879Y-101291581D01*
X208474881Y-101269116D01*
X208539909Y-101073635D01*
X208545357Y-101049655D01*
X208571177Y-100845266D01*
X208572159Y-100831235D01*
X208572571Y-100801761D01*
X208572321Y-100795806D01*
X208749962Y-100795806D01*
X208767201Y-101001097D01*
X208771640Y-101025283D01*
X208828425Y-101223316D01*
X208837477Y-101246180D01*
X208931645Y-101429412D01*
X208944967Y-101450083D01*
X209072932Y-101611535D01*
X209090014Y-101629224D01*
X209246901Y-101762745D01*
X209267094Y-101776779D01*
X209446928Y-101877285D01*
X209469462Y-101887130D01*
X209665393Y-101950792D01*
X209689411Y-101956073D01*
X209893976Y-101980465D01*
X209918561Y-101980980D01*
X210123967Y-101965175D01*
X210148184Y-101960905D01*
X210346609Y-101905504D01*
X210369536Y-101896611D01*
X210553421Y-101803724D01*
X210574183Y-101790548D01*
X210736524Y-101663714D01*
X210754333Y-101646755D01*
X210888946Y-101490803D01*
X210903120Y-101470709D01*
X211004879Y-101291581D01*
X211014881Y-101269116D01*
X211079909Y-101073635D01*
X211085357Y-101049655D01*
X211111177Y-100845266D01*
X211112159Y-100831235D01*
X211112571Y-100801761D01*
X211111982Y-100787705D01*
X211091879Y-100582675D01*
X211087102Y-100558552D01*
X211027557Y-100361331D01*
X211018187Y-100338596D01*
X210921470Y-100156696D01*
X210907861Y-100136213D01*
X210777654Y-99976564D01*
X210760326Y-99959115D01*
X210601590Y-99827797D01*
X210581204Y-99814046D01*
X210399984Y-99716061D01*
X210377314Y-99706532D01*
X210180513Y-99645612D01*
X210156424Y-99640667D01*
X209951539Y-99619133D01*
X209926950Y-99618962D01*
X209721784Y-99637633D01*
X209697628Y-99642240D01*
X209499997Y-99700406D01*
X209477196Y-99709619D01*
X209294626Y-99805065D01*
X209274050Y-99818529D01*
X209113495Y-99947618D01*
X209095926Y-99964824D01*
X208963503Y-100122639D01*
X208949609Y-100142929D01*
X208850361Y-100323461D01*
X208840674Y-100346064D01*
X208778382Y-100542434D01*
X208773269Y-100566487D01*
X208750305Y-100771217D01*
X208749962Y-100795806D01*
X208572321Y-100795806D01*
X208571982Y-100787705D01*
X208551879Y-100582675D01*
X208547102Y-100558552D01*
X208487557Y-100361331D01*
X208478187Y-100338596D01*
X208381470Y-100156696D01*
X208367861Y-100136213D01*
X208237654Y-99976564D01*
X208220326Y-99959115D01*
X208061590Y-99827797D01*
X208041204Y-99814046D01*
X207911655Y-99743999D01*
X208289088Y-99743999D01*
X208302693Y-99743262D01*
X208364812Y-99736515D01*
X208395437Y-99729234D01*
X208531692Y-99678154D01*
X208563027Y-99660998D01*
X208679469Y-99573730D01*
X208704730Y-99548469D01*
X208791998Y-99432027D01*
X208809154Y-99400692D01*
X208860234Y-99264437D01*
X208867515Y-99233815D01*
X208874263Y-99171697D01*
X208875000Y-99158089D01*
X208875000Y-98779192D01*
X208931645Y-98889412D01*
X208944967Y-98910083D01*
X209072932Y-99071535D01*
X209090014Y-99089224D01*
X209246901Y-99222745D01*
X209267094Y-99236779D01*
X209446928Y-99337285D01*
X209469462Y-99347130D01*
X209665393Y-99410792D01*
X209689411Y-99416073D01*
X209893976Y-99440465D01*
X209918561Y-99440980D01*
X210123967Y-99425175D01*
X210148184Y-99420905D01*
X210346609Y-99365504D01*
X210369536Y-99356611D01*
X210553421Y-99263724D01*
X210574183Y-99250548D01*
X210736524Y-99123714D01*
X210754333Y-99106755D01*
X210888946Y-98950803D01*
X210903120Y-98930709D01*
X211004879Y-98751581D01*
X211014881Y-98729116D01*
X211079909Y-98533635D01*
X211085357Y-98509655D01*
X211111177Y-98305266D01*
X211112159Y-98291235D01*
X211112571Y-98261761D01*
X211111982Y-98247705D01*
X211091879Y-98042675D01*
X211087102Y-98018552D01*
X211027557Y-97821331D01*
X211018187Y-97798596D01*
X210921470Y-97616696D01*
X210907861Y-97596213D01*
X210777654Y-97436564D01*
X210760326Y-97419115D01*
X210601590Y-97287797D01*
X210581204Y-97274046D01*
X210399984Y-97176061D01*
X210377314Y-97166532D01*
X210180513Y-97105612D01*
X210156424Y-97100667D01*
X209951539Y-97079133D01*
X209926950Y-97078962D01*
X209721784Y-97097633D01*
X209697628Y-97102240D01*
X209499997Y-97160406D01*
X209477196Y-97169619D01*
X209294626Y-97265065D01*
X209274050Y-97278529D01*
X209113495Y-97407618D01*
X209095926Y-97424824D01*
X208963503Y-97582639D01*
X208949609Y-97602929D01*
X208874999Y-97738644D01*
X208874999Y-97361912D01*
X208874262Y-97348307D01*
X208867515Y-97286188D01*
X208860234Y-97255563D01*
X208809154Y-97119308D01*
X208791998Y-97087973D01*
X208704730Y-96971531D01*
X208679469Y-96946270D01*
X208563027Y-96859002D01*
X208531692Y-96841846D01*
X208499374Y-96829730D01*
X208618120Y-96756820D01*
X208645607Y-96734000D01*
X208741816Y-96627709D01*
X208761792Y-96598092D01*
X208824302Y-96469071D01*
X208835164Y-96435038D01*
X208858950Y-96293659D01*
X208860687Y-96274294D01*
X208860838Y-96261940D01*
X208859574Y-96242538D01*
X208839250Y-96100620D01*
X208829224Y-96066331D01*
X208769885Y-95935821D01*
X208750637Y-95905724D01*
X208657053Y-95797115D01*
X208630132Y-95773631D01*
X208509827Y-95695653D01*
X208477397Y-95680668D01*
X208340041Y-95639590D01*
X208304709Y-95634309D01*
X208161346Y-95633433D01*
X208125951Y-95638282D01*
X207988104Y-95677679D01*
X207955494Y-95692266D01*
X207834245Y-95768768D01*
X207807038Y-95791923D01*
X207712135Y-95899381D01*
X207692522Y-95929239D01*
X207631592Y-96059014D01*
X207621147Y-96093179D01*
X207599091Y-96234839D01*
X207598655Y-96270560D01*
X207617244Y-96412716D01*
X207626851Y-96447125D01*
X207684591Y-96578349D01*
X207703469Y-96608678D01*
X207795719Y-96718423D01*
X207822351Y-96742235D01*
X207873075Y-96776000D01*
X207645000Y-96776000D01*
X207576879Y-96796002D01*
X207530386Y-96849658D01*
X207519000Y-96902000D01*
X207519000Y-98388000D01*
X206033001Y-98388000D01*
X205964880Y-98408002D01*
X205918387Y-98461658D01*
X205907001Y-98514000D01*
X204690413Y-98514000D01*
X204608404Y-98430255D01*
X204586635Y-98412501D01*
X204435677Y-98315215D01*
X204410517Y-98302725D01*
X204241756Y-98241301D01*
X204214453Y-98234695D01*
X204075748Y-98217173D01*
X204059956Y-98216180D01*
X203464084Y-98216180D01*
X203450039Y-98216965D01*
X203316722Y-98231919D01*
X203289330Y-98238143D01*
X203119729Y-98297204D01*
X203094396Y-98309341D01*
X202942094Y-98404510D01*
X202920080Y-98421958D01*
X202792648Y-98548504D01*
X202775047Y-98570396D01*
X202678817Y-98722030D01*
X202666503Y-98747277D01*
X202606259Y-98916462D01*
X202599844Y-98943810D01*
X202578580Y-99122137D01*
X202578384Y-99150226D01*
X196739990Y-99150226D01*
X196740095Y-99135134D01*
X196721323Y-98956527D01*
X196715291Y-98929092D01*
X196657415Y-98759082D01*
X196645455Y-98733665D01*
X196551352Y-98580703D01*
X196534058Y-98558568D01*
X196408405Y-98430255D01*
X196386636Y-98412501D01*
X196235678Y-98315215D01*
X196210518Y-98302725D01*
X196041757Y-98241301D01*
X196016376Y-98235160D01*
X198694455Y-98235160D01*
X198713044Y-98377316D01*
X198722651Y-98411725D01*
X198780391Y-98542949D01*
X198799269Y-98573278D01*
X198891519Y-98683023D01*
X198918151Y-98706835D01*
X199037494Y-98786277D01*
X199069740Y-98801657D01*
X199206584Y-98844409D01*
X199241847Y-98850121D01*
X199385189Y-98852749D01*
X199420641Y-98848333D01*
X199558959Y-98810623D01*
X199591746Y-98796435D01*
X199713920Y-98721420D01*
X199741407Y-98698600D01*
X199837616Y-98592309D01*
X199857592Y-98562692D01*
X199920102Y-98433671D01*
X199930964Y-98399638D01*
X199954750Y-98258259D01*
X199956487Y-98238894D01*
X199956638Y-98226540D01*
X199955374Y-98207138D01*
X199935050Y-98065220D01*
X199925024Y-98030931D01*
X199865685Y-97900421D01*
X199846437Y-97870324D01*
X199752853Y-97761715D01*
X199725932Y-97738231D01*
X199605627Y-97660253D01*
X199573197Y-97645268D01*
X199435841Y-97604190D01*
X199400509Y-97598909D01*
X199257146Y-97598033D01*
X199221751Y-97602882D01*
X199083904Y-97642279D01*
X199051294Y-97656866D01*
X198930045Y-97733368D01*
X198902838Y-97756523D01*
X198807935Y-97863981D01*
X198788322Y-97893839D01*
X198727392Y-98023614D01*
X198716947Y-98057779D01*
X198694891Y-98199439D01*
X198694455Y-98235160D01*
X196016376Y-98235160D01*
X196014454Y-98234695D01*
X195875749Y-98217173D01*
X195859957Y-98216180D01*
X195264085Y-98216180D01*
X195250040Y-98216965D01*
X195116723Y-98231919D01*
X195089331Y-98238143D01*
X194919730Y-98297204D01*
X194894397Y-98309341D01*
X194742095Y-98404510D01*
X194720081Y-98421958D01*
X194592649Y-98548504D01*
X194575048Y-98570396D01*
X194478818Y-98722030D01*
X194466504Y-98747277D01*
X194406260Y-98916462D01*
X194399845Y-98943810D01*
X194378581Y-99122137D01*
X194378385Y-99150226D01*
X193460739Y-99150226D01*
X193465005Y-96382840D01*
X193528695Y-96382840D01*
X193547284Y-96524996D01*
X193556891Y-96559405D01*
X193614631Y-96690629D01*
X193633509Y-96720958D01*
X193725759Y-96830703D01*
X193752391Y-96854515D01*
X193871734Y-96933957D01*
X193903980Y-96949337D01*
X194040824Y-96992089D01*
X194076087Y-96997801D01*
X194219429Y-97000429D01*
X194254881Y-96996013D01*
X194393199Y-96958303D01*
X194425986Y-96944115D01*
X194548160Y-96869100D01*
X194575647Y-96846280D01*
X194607844Y-96810709D01*
X194710075Y-96915105D01*
X194731844Y-96932859D01*
X194882802Y-97030145D01*
X194907962Y-97042635D01*
X195076723Y-97104059D01*
X195104026Y-97110665D01*
X195242731Y-97128187D01*
X195258523Y-97129180D01*
X195854395Y-97129180D01*
X195868440Y-97128395D01*
X196001757Y-97113441D01*
X196029149Y-97107217D01*
X196198750Y-97048156D01*
X196224083Y-97036019D01*
X196305474Y-96985160D01*
X199394455Y-96985160D01*
X199413044Y-97127316D01*
X199422651Y-97161725D01*
X199480391Y-97292949D01*
X199499269Y-97323278D01*
X199591519Y-97433023D01*
X199618151Y-97456835D01*
X199737494Y-97536277D01*
X199769740Y-97551657D01*
X199906584Y-97594409D01*
X199941847Y-97600121D01*
X200085189Y-97602749D01*
X200120641Y-97598333D01*
X200258959Y-97560623D01*
X200291746Y-97546435D01*
X200413920Y-97471420D01*
X200441407Y-97448600D01*
X200519873Y-97361911D01*
X205907000Y-97361911D01*
X205907000Y-98006000D01*
X205927002Y-98074121D01*
X205980658Y-98120614D01*
X206033000Y-98132000D01*
X207137000Y-98132000D01*
X207205121Y-98111998D01*
X207251614Y-98058342D01*
X207263000Y-98006000D01*
X207263000Y-96902001D01*
X207242998Y-96833880D01*
X207189342Y-96787387D01*
X207137000Y-96776001D01*
X206492912Y-96776001D01*
X206479307Y-96776738D01*
X206417188Y-96783485D01*
X206386563Y-96790766D01*
X206250308Y-96841846D01*
X206218973Y-96859002D01*
X206102531Y-96946270D01*
X206077270Y-96971531D01*
X205990002Y-97087973D01*
X205972846Y-97119308D01*
X205921766Y-97255563D01*
X205914485Y-97286185D01*
X205907737Y-97348303D01*
X205907000Y-97361911D01*
X200519873Y-97361911D01*
X200537616Y-97342309D01*
X200557592Y-97312692D01*
X200620102Y-97183671D01*
X200630964Y-97149638D01*
X200654750Y-97008259D01*
X200656487Y-96988894D01*
X200656638Y-96976540D01*
X200655374Y-96957138D01*
X200635050Y-96815220D01*
X200625024Y-96780931D01*
X200565685Y-96650421D01*
X200546437Y-96620324D01*
X200452853Y-96511715D01*
X200425932Y-96488231D01*
X200305627Y-96410253D01*
X200273197Y-96395268D01*
X200135841Y-96354190D01*
X200100509Y-96348909D01*
X199957146Y-96348033D01*
X199921751Y-96352882D01*
X199783904Y-96392279D01*
X199751294Y-96406866D01*
X199630045Y-96483368D01*
X199602838Y-96506523D01*
X199507935Y-96613981D01*
X199488322Y-96643839D01*
X199427392Y-96773614D01*
X199416947Y-96807779D01*
X199394891Y-96949439D01*
X199394455Y-96985160D01*
X196305474Y-96985160D01*
X196376385Y-96940850D01*
X196398399Y-96923402D01*
X196525831Y-96796856D01*
X196543432Y-96774964D01*
X196639662Y-96623330D01*
X196651976Y-96598083D01*
X196712220Y-96428898D01*
X196718635Y-96401550D01*
X196739899Y-96223223D01*
X196739990Y-96210226D01*
X202578384Y-96210226D01*
X202597156Y-96388833D01*
X202603188Y-96416268D01*
X202661064Y-96586278D01*
X202673024Y-96611695D01*
X202767127Y-96764657D01*
X202784421Y-96786792D01*
X202910074Y-96915105D01*
X202931843Y-96932859D01*
X203082801Y-97030145D01*
X203107961Y-97042635D01*
X203276722Y-97104059D01*
X203304025Y-97110665D01*
X203442730Y-97128187D01*
X203458522Y-97129180D01*
X204054394Y-97129180D01*
X204068439Y-97128395D01*
X204201756Y-97113441D01*
X204229148Y-97107217D01*
X204398749Y-97048156D01*
X204424082Y-97036019D01*
X204576384Y-96940850D01*
X204598398Y-96923402D01*
X204710284Y-96812294D01*
X204725759Y-96830703D01*
X204752391Y-96854515D01*
X204871734Y-96933957D01*
X204903980Y-96949337D01*
X205040824Y-96992089D01*
X205076087Y-96997801D01*
X205219429Y-97000429D01*
X205254881Y-96996013D01*
X205393199Y-96958303D01*
X205425986Y-96944115D01*
X205548160Y-96869100D01*
X205575647Y-96846280D01*
X205671856Y-96739989D01*
X205691832Y-96710372D01*
X205754342Y-96581351D01*
X205765204Y-96547318D01*
X205788990Y-96405939D01*
X205790727Y-96386574D01*
X205790878Y-96374220D01*
X205789614Y-96354818D01*
X205769290Y-96212900D01*
X205759264Y-96178611D01*
X205699925Y-96048101D01*
X205680677Y-96018004D01*
X205587093Y-95909395D01*
X205560172Y-95885911D01*
X205439867Y-95807933D01*
X205407437Y-95792948D01*
X205270081Y-95751870D01*
X205234749Y-95746589D01*
X205091386Y-95745713D01*
X205055991Y-95750562D01*
X204918144Y-95789959D01*
X204885534Y-95804546D01*
X204858313Y-95821721D01*
X204857414Y-95819081D01*
X204845454Y-95793665D01*
X204751351Y-95640703D01*
X204734057Y-95618568D01*
X204608404Y-95490255D01*
X204586635Y-95472501D01*
X204435677Y-95375215D01*
X204410517Y-95362725D01*
X204241756Y-95301301D01*
X204214453Y-95294695D01*
X204075748Y-95277173D01*
X204059956Y-95276180D01*
X203464084Y-95276180D01*
X203450039Y-95276965D01*
X203316722Y-95291919D01*
X203289330Y-95298143D01*
X203119729Y-95357204D01*
X203094396Y-95369341D01*
X202942094Y-95464510D01*
X202920080Y-95481958D01*
X202792648Y-95608504D01*
X202775047Y-95630396D01*
X202678817Y-95782030D01*
X202666503Y-95807277D01*
X202606259Y-95976462D01*
X202599844Y-96003810D01*
X202578580Y-96182137D01*
X202578384Y-96210226D01*
X196739990Y-96210226D01*
X196740095Y-96195134D01*
X196721323Y-96016527D01*
X196715291Y-95989092D01*
X196657415Y-95819082D01*
X196645455Y-95793665D01*
X196551352Y-95640703D01*
X196534058Y-95618568D01*
X196408405Y-95490255D01*
X196386636Y-95472501D01*
X196235678Y-95375215D01*
X196210518Y-95362725D01*
X196041757Y-95301301D01*
X196014454Y-95294695D01*
X195875749Y-95277173D01*
X195859957Y-95276180D01*
X195264085Y-95276180D01*
X195250040Y-95276965D01*
X195116723Y-95291919D01*
X195089331Y-95298143D01*
X194919730Y-95357204D01*
X194894397Y-95369341D01*
X194742095Y-95464510D01*
X194720081Y-95481958D01*
X194592649Y-95608504D01*
X194575048Y-95630396D01*
X194478818Y-95782030D01*
X194466504Y-95807277D01*
X194461319Y-95821838D01*
X194439867Y-95807933D01*
X194407437Y-95792948D01*
X194270081Y-95751870D01*
X194234749Y-95746589D01*
X194091386Y-95745713D01*
X194055991Y-95750562D01*
X193918144Y-95789959D01*
X193885534Y-95804546D01*
X193764285Y-95881048D01*
X193737078Y-95904203D01*
X193642175Y-96011661D01*
X193622562Y-96041519D01*
X193561632Y-96171294D01*
X193551187Y-96205459D01*
X193529131Y-96347119D01*
X193528695Y-96382840D01*
X193465005Y-96382840D01*
X193467202Y-94957512D01*
X193553359Y-94934023D01*
X193586146Y-94919835D01*
X193708320Y-94844820D01*
X193735807Y-94822000D01*
X193832016Y-94715709D01*
X193851992Y-94686092D01*
X193914502Y-94557071D01*
X193925364Y-94523038D01*
X193949150Y-94381659D01*
X193950887Y-94362294D01*
X193951038Y-94349940D01*
X193949774Y-94330538D01*
X193929450Y-94188620D01*
X193926099Y-94177160D01*
X195717055Y-94177160D01*
X195735644Y-94319316D01*
X195745251Y-94353725D01*
X195802991Y-94484949D01*
X195821869Y-94515278D01*
X195914119Y-94625023D01*
X195940751Y-94648835D01*
X196060094Y-94728277D01*
X196092340Y-94743657D01*
X196229184Y-94786409D01*
X196264447Y-94792121D01*
X196407789Y-94794749D01*
X196443241Y-94790333D01*
X196581559Y-94752623D01*
X196614346Y-94738435D01*
X196736520Y-94663420D01*
X196764007Y-94640600D01*
X196860216Y-94534309D01*
X196880192Y-94504692D01*
X196942702Y-94375671D01*
X196953564Y-94341638D01*
X196977350Y-94200259D01*
X196979087Y-94180894D01*
X196979238Y-94168540D01*
X196977974Y-94149138D01*
X196957650Y-94007220D01*
X196947624Y-93972931D01*
X196888285Y-93842421D01*
X196869037Y-93812324D01*
X196775453Y-93703715D01*
X196748532Y-93680231D01*
X196628227Y-93602253D01*
X196595797Y-93587268D01*
X196458441Y-93546190D01*
X196423109Y-93540909D01*
X196279746Y-93540033D01*
X196244351Y-93544882D01*
X196106504Y-93584279D01*
X196073894Y-93598866D01*
X195952645Y-93675368D01*
X195925438Y-93698523D01*
X195830535Y-93805981D01*
X195810922Y-93835839D01*
X195749992Y-93965614D01*
X195739547Y-93999779D01*
X195717491Y-94141439D01*
X195717055Y-94177160D01*
X193926099Y-94177160D01*
X193919424Y-94154331D01*
X193860085Y-94023821D01*
X193840837Y-93993724D01*
X193767244Y-93908316D01*
X193842016Y-93825709D01*
X193861992Y-93796092D01*
X193924502Y-93667071D01*
X193935364Y-93633038D01*
X193959150Y-93491659D01*
X193960887Y-93472294D01*
X193961038Y-93459940D01*
X193959774Y-93440538D01*
X193939450Y-93298620D01*
X193929424Y-93264331D01*
X193870085Y-93133821D01*
X193859240Y-93116863D01*
X193929389Y-93118149D01*
X193964841Y-93113733D01*
X194103159Y-93076023D01*
X194135946Y-93061835D01*
X194258120Y-92986820D01*
X194285607Y-92964000D01*
X194381816Y-92857709D01*
X194401792Y-92828092D01*
X194464302Y-92699071D01*
X194475164Y-92665038D01*
X194498950Y-92523659D01*
X194500687Y-92504294D01*
X194500838Y-92491940D01*
X194499574Y-92472538D01*
X194479250Y-92330620D01*
X194469224Y-92296331D01*
X194409885Y-92165821D01*
X194390637Y-92135724D01*
X194297053Y-92027115D01*
X194270132Y-92003631D01*
X194149827Y-91925653D01*
X194117397Y-91910668D01*
X193980041Y-91869590D01*
X193944709Y-91864309D01*
X193801346Y-91863433D01*
X193765951Y-91868282D01*
X193628104Y-91907679D01*
X193595494Y-91922266D01*
X193474245Y-91998768D01*
X193471760Y-92000883D01*
X193472958Y-91223395D01*
X193974145Y-90900029D01*
X194558980Y-90568853D01*
X195161978Y-90271968D01*
X195781070Y-90010392D01*
X196414247Y-89784975D01*
X196646480Y-89717120D01*
X196623580Y-91934985D01*
X196621216Y-91945342D01*
X196618057Y-91973554D01*
X196618058Y-91974270D01*
X196619154Y-91983800D01*
X196618845Y-91983818D01*
X196638542Y-92326944D01*
X196640052Y-92340452D01*
X196697007Y-92681934D01*
X196699963Y-92695200D01*
X196793369Y-93028561D01*
X196797736Y-93041432D01*
X196926505Y-93362792D01*
X196932234Y-93375117D01*
X197094869Y-93680738D01*
X197101892Y-93692375D01*
X197296501Y-93978699D01*
X197304736Y-93989512D01*
X197529053Y-94253209D01*
X197538405Y-94263071D01*
X197789820Y-94501071D01*
X197800180Y-94509869D01*
X198075769Y-94719404D01*
X198087017Y-94727035D01*
X198383572Y-94905667D01*
X198395576Y-94912042D01*
X198709647Y-95057691D01*
X198722267Y-95062735D01*
X199050198Y-95173707D01*
X199063289Y-95177363D01*
X199401266Y-95252367D01*
X199414675Y-95254592D01*
X199758765Y-95292755D01*
X199772334Y-95293523D01*
X200118532Y-95294401D01*
X200132106Y-95293702D01*
X200476385Y-95257285D01*
X200489805Y-95255128D01*
X200828158Y-95181839D01*
X200841267Y-95178250D01*
X201169757Y-95068942D01*
X201182403Y-95063961D01*
X201497209Y-94919907D01*
X201509245Y-94913593D01*
X201806702Y-94736468D01*
X201817988Y-94728895D01*
X201882234Y-94680560D01*
X206288655Y-94680560D01*
X206307244Y-94822716D01*
X206316851Y-94857125D01*
X206374591Y-94988349D01*
X206393469Y-95018678D01*
X206485719Y-95128423D01*
X206512351Y-95152235D01*
X206631694Y-95231677D01*
X206663940Y-95247057D01*
X206800784Y-95289809D01*
X206836047Y-95295521D01*
X206979389Y-95298149D01*
X207014841Y-95293733D01*
X207153159Y-95256023D01*
X207185946Y-95241835D01*
X207308120Y-95166820D01*
X207335607Y-95144000D01*
X207431816Y-95037709D01*
X207451792Y-95008092D01*
X207514302Y-94879071D01*
X207525164Y-94845038D01*
X207548950Y-94703659D01*
X207550687Y-94684294D01*
X207550838Y-94671940D01*
X207549574Y-94652538D01*
X207529250Y-94510620D01*
X207519224Y-94476331D01*
X207459885Y-94345821D01*
X207440637Y-94315724D01*
X207347053Y-94207115D01*
X207320132Y-94183631D01*
X207199827Y-94105653D01*
X207167397Y-94090668D01*
X207030041Y-94049590D01*
X206994709Y-94044309D01*
X206851346Y-94043433D01*
X206815951Y-94048282D01*
X206678104Y-94087679D01*
X206645494Y-94102266D01*
X206524245Y-94178768D01*
X206497038Y-94201923D01*
X206402135Y-94309381D01*
X206382522Y-94339239D01*
X206321592Y-94469014D01*
X206311147Y-94503179D01*
X206289091Y-94644839D01*
X206288655Y-94680560D01*
X201882234Y-94680560D01*
X202094636Y-94520760D01*
X202105041Y-94512014D01*
X202357660Y-94275292D01*
X202367062Y-94265477D01*
X202592714Y-94002921D01*
X202601004Y-93992151D01*
X202797062Y-93706818D01*
X202804144Y-93695217D01*
X202968327Y-93390425D01*
X202974118Y-93378129D01*
X203104516Y-93057426D01*
X203108948Y-93044577D01*
X203204043Y-92711694D01*
X203207067Y-92698443D01*
X203265752Y-92357254D01*
X203267330Y-92343754D01*
X203288712Y-92001613D01*
X203288446Y-92001596D01*
X203289593Y-91992321D01*
X203289600Y-91991605D01*
X203286683Y-91963390D01*
X203285014Y-91955779D01*
X203319647Y-89706906D01*
X203564028Y-89777778D02*
X203319647Y-89706906D01*
G04 #@! TA.AperFunction,Conductor*
G36*
X203564028Y-89777778D02*
G01*
X204197654Y-90001918D01*
X204297334Y-90043798D01*
X204172146Y-90043033D01*
X204136751Y-90047882D01*
X203998904Y-90087279D01*
X203966294Y-90101866D01*
X203845045Y-90178368D01*
X203817838Y-90201523D01*
X203722935Y-90308981D01*
X203703322Y-90338839D01*
X203642392Y-90468614D01*
X203631947Y-90502779D01*
X203609891Y-90644439D01*
X203609455Y-90680160D01*
X203628044Y-90822316D01*
X203637651Y-90856725D01*
X203695391Y-90987949D01*
X203714269Y-91018278D01*
X203806519Y-91128023D01*
X203833151Y-91151835D01*
X203952494Y-91231277D01*
X203984740Y-91246657D01*
X204121584Y-91289409D01*
X204156847Y-91295121D01*
X204300189Y-91297749D01*
X204335641Y-91293333D01*
X204473959Y-91255623D01*
X204506746Y-91241435D01*
X204628920Y-91166420D01*
X204656407Y-91143600D01*
X204752616Y-91037309D01*
X204772592Y-91007692D01*
X204835102Y-90878671D01*
X204845964Y-90844638D01*
X204869750Y-90703259D01*
X204871487Y-90683894D01*
X204871638Y-90671540D01*
X204870374Y-90652138D01*
X204850050Y-90510220D01*
X204840024Y-90475931D01*
X204780685Y-90345421D01*
X204761437Y-90315324D01*
X204667853Y-90206715D01*
X204651827Y-90192735D01*
X204817295Y-90262255D01*
X205420854Y-90557909D01*
X206006361Y-90887909D01*
X206571862Y-91251162D01*
X207115426Y-91646422D01*
X207635297Y-92072414D01*
X208129712Y-92527694D01*
X208597009Y-93010728D01*
X209035687Y-93519967D01*
X209444209Y-94053630D01*
X209821272Y-94610011D01*
X210165585Y-95187205D01*
X210476019Y-95783317D01*
X210751536Y-96396363D01*
X210991207Y-97024266D01*
X211194244Y-97664964D01*
X211359969Y-98316323D01*
X211487825Y-98976148D01*
X211577387Y-99642240D01*
X211628359Y-100312417D01*
X211640570Y-100984407D01*
X211613978Y-101655970D01*
X211548672Y-102324906D01*
X211444873Y-102988927D01*
X211302921Y-103645875D01*
X211123292Y-104293531D01*
X210906586Y-104929740D01*
X210653530Y-105552368D01*
X210364953Y-106159372D01*
X210041837Y-106748692D01*
X209685237Y-107318401D01*
X209296353Y-107866577D01*
X208876489Y-108391390D01*
X208427034Y-108891097D01*
X207949498Y-109364025D01*
X207445452Y-109808616D01*
X206916579Y-110223384D01*
X206364667Y-110606925D01*
X205791533Y-110957982D01*
X205199102Y-111275372D01*
X204589341Y-111558042D01*
X203964267Y-111805057D01*
X203325986Y-112015585D01*
X202676637Y-112188920D01*
X202018344Y-112324495D01*
X201353340Y-112421851D01*
X200683809Y-112480668D01*
X200012006Y-112500746D01*
X199340179Y-112482021D01*
X198981017Y-112451198D01*
X198995966Y-109910160D01*
X203469455Y-109910160D01*
X203488044Y-110052316D01*
X203497651Y-110086725D01*
X203555391Y-110217949D01*
X203574269Y-110248278D01*
X203666519Y-110358023D01*
X203693151Y-110381835D01*
X203812494Y-110461277D01*
X203844740Y-110476657D01*
X203981584Y-110519409D01*
X204016847Y-110525121D01*
X204160189Y-110527749D01*
X204195641Y-110523333D01*
X204333959Y-110485623D01*
X204366746Y-110471435D01*
X204488920Y-110396420D01*
X204516407Y-110373600D01*
X204612616Y-110267309D01*
X204632592Y-110237692D01*
X204695102Y-110108671D01*
X204705964Y-110074638D01*
X204729750Y-109933259D01*
X204731487Y-109913894D01*
X204731638Y-109901540D01*
X204730374Y-109882138D01*
X204710050Y-109740220D01*
X204700024Y-109705931D01*
X204640685Y-109575421D01*
X204621437Y-109545324D01*
X204527853Y-109436715D01*
X204500932Y-109413231D01*
X204380627Y-109335253D01*
X204348197Y-109320268D01*
X204210841Y-109279190D01*
X204175509Y-109273909D01*
X204032146Y-109273033D01*
X203996751Y-109277882D01*
X203858904Y-109317279D01*
X203826294Y-109331866D01*
X203705045Y-109408368D01*
X203677838Y-109431523D01*
X203582935Y-109538981D01*
X203563322Y-109568839D01*
X203502392Y-109698614D01*
X203491947Y-109732779D01*
X203469891Y-109874439D01*
X203469455Y-109910160D01*
X198995966Y-109910160D01*
X199001996Y-108885160D01*
X200169455Y-108885160D01*
X200188044Y-109027316D01*
X200197651Y-109061725D01*
X200255391Y-109192949D01*
X200274269Y-109223278D01*
X200366519Y-109333023D01*
X200393151Y-109356835D01*
X200512494Y-109436277D01*
X200544740Y-109451657D01*
X200681584Y-109494409D01*
X200716847Y-109500121D01*
X200860189Y-109502749D01*
X200895641Y-109498333D01*
X201033959Y-109460623D01*
X201066746Y-109446435D01*
X201188920Y-109371420D01*
X201216407Y-109348600D01*
X201312616Y-109242309D01*
X201332592Y-109212692D01*
X201395102Y-109083671D01*
X201405964Y-109049638D01*
X201429750Y-108908259D01*
X201431487Y-108888894D01*
X201431638Y-108876540D01*
X201430374Y-108857138D01*
X201410050Y-108715220D01*
X201400024Y-108680931D01*
X201340685Y-108550421D01*
X201321437Y-108520324D01*
X201227853Y-108411715D01*
X201200932Y-108388231D01*
X201080627Y-108310253D01*
X201048197Y-108295268D01*
X200910841Y-108254190D01*
X200875509Y-108248909D01*
X200732146Y-108248033D01*
X200696751Y-108252882D01*
X200558904Y-108292279D01*
X200526294Y-108306866D01*
X200405045Y-108383368D01*
X200377838Y-108406523D01*
X200282935Y-108513981D01*
X200263322Y-108543839D01*
X200202392Y-108673614D01*
X200191947Y-108707779D01*
X200169891Y-108849439D01*
X200169455Y-108885160D01*
X199001996Y-108885160D01*
X199005967Y-108210160D01*
X201394455Y-108210160D01*
X201413044Y-108352316D01*
X201422651Y-108386725D01*
X201480391Y-108517949D01*
X201499269Y-108548278D01*
X201591519Y-108658023D01*
X201618151Y-108681835D01*
X201737494Y-108761277D01*
X201769740Y-108776657D01*
X201906584Y-108819409D01*
X201941847Y-108825121D01*
X202085189Y-108827749D01*
X202120641Y-108823333D01*
X202258959Y-108785623D01*
X202291746Y-108771435D01*
X202413920Y-108696420D01*
X202441407Y-108673600D01*
X202537616Y-108567309D01*
X202557592Y-108537692D01*
X202620102Y-108408671D01*
X202630964Y-108374638D01*
X202654750Y-108233259D01*
X202656487Y-108213894D01*
X202656638Y-108201540D01*
X202655374Y-108182138D01*
X202635050Y-108040220D01*
X202625024Y-108005931D01*
X202615580Y-107985160D01*
X205644455Y-107985160D01*
X205663044Y-108127316D01*
X205672651Y-108161725D01*
X205730391Y-108292949D01*
X205749269Y-108323278D01*
X205841519Y-108433023D01*
X205868151Y-108456835D01*
X205987494Y-108536277D01*
X206019740Y-108551657D01*
X206156584Y-108594409D01*
X206191847Y-108600121D01*
X206335189Y-108602749D01*
X206370641Y-108598333D01*
X206508959Y-108560623D01*
X206541746Y-108546435D01*
X206663920Y-108471420D01*
X206691407Y-108448600D01*
X206787616Y-108342309D01*
X206807592Y-108312692D01*
X206870102Y-108183671D01*
X206880964Y-108149638D01*
X206904750Y-108008259D01*
X206906487Y-107988894D01*
X206906638Y-107976540D01*
X206905374Y-107957138D01*
X206885050Y-107815220D01*
X206875024Y-107780931D01*
X206815685Y-107650421D01*
X206796437Y-107620324D01*
X206702853Y-107511715D01*
X206675932Y-107488231D01*
X206555627Y-107410253D01*
X206523197Y-107395268D01*
X206385841Y-107354190D01*
X206350509Y-107348909D01*
X206207146Y-107348033D01*
X206171751Y-107352882D01*
X206033904Y-107392279D01*
X206001294Y-107406866D01*
X205880045Y-107483368D01*
X205852838Y-107506523D01*
X205757935Y-107613981D01*
X205738322Y-107643839D01*
X205677392Y-107773614D01*
X205666947Y-107807779D01*
X205644891Y-107949439D01*
X205644455Y-107985160D01*
X202615580Y-107985160D01*
X202565685Y-107875421D01*
X202546437Y-107845324D01*
X202452853Y-107736715D01*
X202425932Y-107713231D01*
X202305627Y-107635253D01*
X202273197Y-107620268D01*
X202135841Y-107579190D01*
X202100509Y-107573909D01*
X201957146Y-107573033D01*
X201921751Y-107577882D01*
X201783904Y-107617279D01*
X201751294Y-107631866D01*
X201630045Y-107708368D01*
X201602838Y-107731523D01*
X201507935Y-107838981D01*
X201488322Y-107868839D01*
X201427392Y-107998614D01*
X201416947Y-108032779D01*
X201394891Y-108174439D01*
X201394455Y-108210160D01*
X199005967Y-108210160D01*
X199009746Y-107567882D01*
X199112494Y-107636277D01*
X199144740Y-107651657D01*
X199281584Y-107694409D01*
X199316847Y-107700121D01*
X199460189Y-107702749D01*
X199495641Y-107698333D01*
X199633959Y-107660623D01*
X199666746Y-107646435D01*
X199766542Y-107585160D01*
X200019455Y-107585160D01*
X200038044Y-107727316D01*
X200047651Y-107761725D01*
X200105391Y-107892949D01*
X200124269Y-107923278D01*
X200216519Y-108033023D01*
X200243151Y-108056835D01*
X200362494Y-108136277D01*
X200394740Y-108151657D01*
X200531584Y-108194409D01*
X200566847Y-108200121D01*
X200710189Y-108202749D01*
X200745641Y-108198333D01*
X200883959Y-108160623D01*
X200916746Y-108146435D01*
X201038920Y-108071420D01*
X201066407Y-108048600D01*
X201162616Y-107942309D01*
X201182592Y-107912692D01*
X201245102Y-107783671D01*
X201255964Y-107749638D01*
X201279750Y-107608259D01*
X201281487Y-107588894D01*
X201281638Y-107576540D01*
X201280374Y-107557138D01*
X201260050Y-107415220D01*
X201250024Y-107380931D01*
X201190685Y-107250421D01*
X201171437Y-107220324D01*
X201077853Y-107111715D01*
X201050932Y-107088231D01*
X200930627Y-107010253D01*
X200898197Y-106995268D01*
X200760841Y-106954190D01*
X200725509Y-106948909D01*
X200582146Y-106948033D01*
X200546751Y-106952882D01*
X200408904Y-106992279D01*
X200376294Y-107006866D01*
X200255045Y-107083368D01*
X200227838Y-107106523D01*
X200132935Y-107213981D01*
X200113322Y-107243839D01*
X200052392Y-107373614D01*
X200041947Y-107407779D01*
X200019891Y-107549439D01*
X200019455Y-107585160D01*
X199766542Y-107585160D01*
X199788920Y-107571420D01*
X199816407Y-107548600D01*
X199912616Y-107442309D01*
X199932592Y-107412692D01*
X199995102Y-107283671D01*
X200005964Y-107249638D01*
X200029750Y-107108259D01*
X200031487Y-107088894D01*
X200031638Y-107076540D01*
X200030374Y-107057138D01*
X200010050Y-106915220D01*
X200000024Y-106880931D01*
X199940685Y-106750421D01*
X199921437Y-106720324D01*
X199827853Y-106611715D01*
X199800932Y-106588231D01*
X199680627Y-106510253D01*
X199648197Y-106495268D01*
X199510841Y-106454190D01*
X199475509Y-106448909D01*
X199332146Y-106448033D01*
X199296751Y-106452882D01*
X199158904Y-106492279D01*
X199126294Y-106506866D01*
X199015577Y-106576723D01*
X199024301Y-105093883D01*
X201404387Y-107112003D01*
X201469281Y-107140802D01*
X201486131Y-107141900D01*
X202718631Y-107139400D01*
X202784864Y-107119806D01*
X202802244Y-107252716D01*
X202811851Y-107287125D01*
X202869591Y-107418349D01*
X202888469Y-107448678D01*
X202980719Y-107558423D01*
X203007351Y-107582235D01*
X203126694Y-107661677D01*
X203158940Y-107677057D01*
X203295784Y-107719809D01*
X203331047Y-107725521D01*
X203474389Y-107728149D01*
X203509841Y-107723733D01*
X203648159Y-107686023D01*
X203680946Y-107671835D01*
X203803120Y-107596820D01*
X203830607Y-107574000D01*
X203838450Y-107565336D01*
X203857351Y-107582235D01*
X203976694Y-107661677D01*
X204008940Y-107677057D01*
X204145784Y-107719809D01*
X204181047Y-107725521D01*
X204324389Y-107728149D01*
X204359841Y-107723733D01*
X204498159Y-107686023D01*
X204530946Y-107671835D01*
X204653120Y-107596820D01*
X204680607Y-107574000D01*
X204776816Y-107467709D01*
X204796792Y-107438092D01*
X204859302Y-107309071D01*
X204870164Y-107275038D01*
X204893950Y-107133659D01*
X204895687Y-107114294D01*
X204895838Y-107101940D01*
X204894574Y-107082538D01*
X204874250Y-106940620D01*
X204864224Y-106906331D01*
X204804885Y-106775821D01*
X204785637Y-106745724D01*
X204711636Y-106659842D01*
X204746358Y-106621482D01*
X204766334Y-106591865D01*
X204828844Y-106462844D01*
X204839706Y-106428811D01*
X204863492Y-106287432D01*
X204865229Y-106268067D01*
X204865380Y-106255713D01*
X204864116Y-106236311D01*
X204843792Y-106094393D01*
X204833766Y-106060104D01*
X204774427Y-105929594D01*
X204755179Y-105899497D01*
X204661595Y-105790888D01*
X204634674Y-105767404D01*
X204514369Y-105689426D01*
X204481939Y-105674441D01*
X204344583Y-105633363D01*
X204309251Y-105628082D01*
X204165888Y-105627206D01*
X204130493Y-105632055D01*
X203992646Y-105671452D01*
X203960036Y-105686039D01*
X203838787Y-105762541D01*
X203826181Y-105773270D01*
X203815132Y-105763631D01*
X203694827Y-105685653D01*
X203662397Y-105670668D01*
X203525041Y-105629590D01*
X203489709Y-105624309D01*
X203346346Y-105623433D01*
X203310951Y-105628282D01*
X203173104Y-105667679D01*
X203140494Y-105682266D01*
X203019245Y-105758768D01*
X202992038Y-105781923D01*
X202897135Y-105889381D01*
X202877522Y-105919239D01*
X202816592Y-106049014D01*
X202806147Y-106083179D01*
X202789415Y-106190646D01*
X202760971Y-105767026D01*
X202841816Y-105677709D01*
X202861792Y-105648092D01*
X202880170Y-105610160D01*
X204794455Y-105610160D01*
X204813044Y-105752316D01*
X204822651Y-105786725D01*
X204880391Y-105917949D01*
X204899269Y-105948278D01*
X204991519Y-106058023D01*
X205018151Y-106081835D01*
X205137494Y-106161277D01*
X205169740Y-106176657D01*
X205306584Y-106219409D01*
X205341847Y-106225121D01*
X205485189Y-106227749D01*
X205520641Y-106223333D01*
X205658959Y-106185623D01*
X205691746Y-106171435D01*
X205813920Y-106096420D01*
X205814428Y-106095998D01*
X205912494Y-106161277D01*
X205944740Y-106176657D01*
X206081584Y-106219409D01*
X206116847Y-106225121D01*
X206260189Y-106227749D01*
X206295641Y-106223333D01*
X206433959Y-106185623D01*
X206466746Y-106171435D01*
X206588920Y-106096420D01*
X206616407Y-106073600D01*
X206712616Y-105967309D01*
X206732592Y-105937692D01*
X206795102Y-105808671D01*
X206805964Y-105774638D01*
X206829750Y-105633259D01*
X206831487Y-105613894D01*
X206831638Y-105601540D01*
X206830374Y-105582138D01*
X206810050Y-105440220D01*
X206800024Y-105405931D01*
X206740685Y-105275421D01*
X206721437Y-105245324D01*
X206627853Y-105136715D01*
X206600932Y-105113231D01*
X206480627Y-105035253D01*
X206448197Y-105020268D01*
X206310841Y-104979190D01*
X206275509Y-104973909D01*
X206132146Y-104973033D01*
X206096751Y-104977882D01*
X205958904Y-105017279D01*
X205926294Y-105031866D01*
X205811827Y-105104089D01*
X205705627Y-105035253D01*
X205673197Y-105020268D01*
X205535841Y-104979190D01*
X205500509Y-104973909D01*
X205357146Y-104973033D01*
X205321751Y-104977882D01*
X205183904Y-105017279D01*
X205151294Y-105031866D01*
X205030045Y-105108368D01*
X205002838Y-105131523D01*
X204907935Y-105238981D01*
X204888322Y-105268839D01*
X204827392Y-105398614D01*
X204816947Y-105432779D01*
X204794891Y-105574439D01*
X204794455Y-105610160D01*
X202880170Y-105610160D01*
X202924302Y-105519071D01*
X202935164Y-105485038D01*
X202958950Y-105343659D01*
X202960687Y-105324294D01*
X202960838Y-105311940D01*
X202959574Y-105292538D01*
X202939250Y-105150620D01*
X202929224Y-105116331D01*
X202869885Y-104985821D01*
X202850637Y-104955724D01*
X202803665Y-104901210D01*
X202819203Y-104732230D01*
X204082458Y-103825772D01*
X204126143Y-103769806D01*
X204132636Y-103699107D01*
X204098934Y-103635151D01*
X203805195Y-103335806D01*
X206209962Y-103335806D01*
X206227201Y-103541097D01*
X206231640Y-103565283D01*
X206288425Y-103763316D01*
X206297477Y-103786180D01*
X206391645Y-103969412D01*
X206404967Y-103990083D01*
X206532932Y-104151535D01*
X206550014Y-104169224D01*
X206706901Y-104302745D01*
X206727094Y-104316779D01*
X206906928Y-104417285D01*
X206929462Y-104427130D01*
X207125393Y-104490792D01*
X207149411Y-104496073D01*
X207353976Y-104520465D01*
X207378561Y-104520980D01*
X207583967Y-104505175D01*
X207608184Y-104500905D01*
X207806609Y-104445504D01*
X207829536Y-104436611D01*
X208013421Y-104343724D01*
X208034183Y-104330548D01*
X208196524Y-104203714D01*
X208214333Y-104186755D01*
X208348946Y-104030803D01*
X208363120Y-104010709D01*
X208464879Y-103831581D01*
X208474881Y-103809116D01*
X208539909Y-103613635D01*
X208545357Y-103589655D01*
X208571177Y-103385266D01*
X208572159Y-103371235D01*
X208572571Y-103341761D01*
X208572321Y-103335806D01*
X208749962Y-103335806D01*
X208767201Y-103541097D01*
X208771640Y-103565283D01*
X208828425Y-103763316D01*
X208837477Y-103786180D01*
X208931645Y-103969412D01*
X208944967Y-103990083D01*
X209072932Y-104151535D01*
X209090014Y-104169224D01*
X209246901Y-104302745D01*
X209267094Y-104316779D01*
X209446928Y-104417285D01*
X209469462Y-104427130D01*
X209665393Y-104490792D01*
X209689411Y-104496073D01*
X209893976Y-104520465D01*
X209918561Y-104520980D01*
X210123967Y-104505175D01*
X210148184Y-104500905D01*
X210346609Y-104445504D01*
X210369536Y-104436611D01*
X210553421Y-104343724D01*
X210574183Y-104330548D01*
X210736524Y-104203714D01*
X210754333Y-104186755D01*
X210888946Y-104030803D01*
X210903120Y-104010709D01*
X211004879Y-103831581D01*
X211014881Y-103809116D01*
X211079909Y-103613635D01*
X211085357Y-103589655D01*
X211111177Y-103385266D01*
X211112159Y-103371235D01*
X211112571Y-103341761D01*
X211111982Y-103327705D01*
X211091879Y-103122675D01*
X211087102Y-103098552D01*
X211027557Y-102901331D01*
X211018187Y-102878596D01*
X210921470Y-102696696D01*
X210907861Y-102676213D01*
X210777654Y-102516564D01*
X210760326Y-102499115D01*
X210601590Y-102367797D01*
X210581204Y-102354046D01*
X210399984Y-102256061D01*
X210377314Y-102246532D01*
X210180513Y-102185612D01*
X210156424Y-102180667D01*
X209951539Y-102159133D01*
X209926950Y-102158962D01*
X209721784Y-102177633D01*
X209697628Y-102182240D01*
X209499997Y-102240406D01*
X209477196Y-102249619D01*
X209294626Y-102345065D01*
X209274050Y-102358529D01*
X209113495Y-102487618D01*
X209095926Y-102504824D01*
X208963503Y-102662639D01*
X208949609Y-102682929D01*
X208850361Y-102863461D01*
X208840674Y-102886064D01*
X208778382Y-103082434D01*
X208773269Y-103106487D01*
X208750305Y-103311217D01*
X208749962Y-103335806D01*
X208572321Y-103335806D01*
X208571982Y-103327705D01*
X208551879Y-103122675D01*
X208547102Y-103098552D01*
X208487557Y-102901331D01*
X208478187Y-102878596D01*
X208381470Y-102696696D01*
X208367861Y-102676213D01*
X208237654Y-102516564D01*
X208220326Y-102499115D01*
X208061590Y-102367797D01*
X208041204Y-102354046D01*
X207859984Y-102256061D01*
X207837314Y-102246532D01*
X207640513Y-102185612D01*
X207616424Y-102180667D01*
X207411539Y-102159133D01*
X207386950Y-102158962D01*
X207181784Y-102177633D01*
X207157628Y-102182240D01*
X206959997Y-102240406D01*
X206937196Y-102249619D01*
X206754626Y-102345065D01*
X206734050Y-102358529D01*
X206573495Y-102487618D01*
X206555926Y-102504824D01*
X206423503Y-102662639D01*
X206409609Y-102682929D01*
X206310361Y-102863461D01*
X206300674Y-102886064D01*
X206238382Y-103082434D01*
X206233269Y-103106487D01*
X206210305Y-103311217D01*
X206209962Y-103335806D01*
X203805195Y-103335806D01*
X201478934Y-100965151D01*
X201416946Y-100930538D01*
X201346085Y-100934933D01*
X201298230Y-100966012D01*
X200840806Y-101441139D01*
X200854750Y-101358259D01*
X200856487Y-101338894D01*
X200856638Y-101326540D01*
X200855374Y-101307138D01*
X200835050Y-101165220D01*
X200825024Y-101130931D01*
X200765685Y-101000421D01*
X200746437Y-100970324D01*
X200652853Y-100861715D01*
X200625932Y-100838231D01*
X200505627Y-100760253D01*
X200474716Y-100745970D01*
X200483644Y-100717998D01*
X200507430Y-100576619D01*
X200509167Y-100557254D01*
X200509318Y-100544900D01*
X200508054Y-100525498D01*
X200487730Y-100383580D01*
X200477704Y-100349291D01*
X200418365Y-100218781D01*
X200399117Y-100188684D01*
X200305533Y-100080075D01*
X200278612Y-100056591D01*
X200158307Y-99978613D01*
X200125877Y-99963628D01*
X199988521Y-99922550D01*
X199953189Y-99917269D01*
X199809826Y-99916393D01*
X199774431Y-99921242D01*
X199636584Y-99960639D01*
X199603974Y-99975226D01*
X199482725Y-100051728D01*
X199455518Y-100074883D01*
X199360615Y-100182341D01*
X199341002Y-100212199D01*
X199280072Y-100341974D01*
X199269627Y-100376139D01*
X199247571Y-100517799D01*
X199247135Y-100553520D01*
X199265724Y-100695676D01*
X199275331Y-100730085D01*
X199333071Y-100861309D01*
X199351949Y-100891638D01*
X199444199Y-101001383D01*
X199470831Y-101025195D01*
X199590174Y-101104637D01*
X199622420Y-101120017D01*
X199628229Y-101121832D01*
X199627392Y-101123614D01*
X199616947Y-101157779D01*
X199594891Y-101299439D01*
X199594455Y-101335160D01*
X199613044Y-101477316D01*
X199622651Y-101511725D01*
X199633098Y-101535467D01*
X199555627Y-101485253D01*
X199523197Y-101470268D01*
X199385841Y-101429190D01*
X199350509Y-101423909D01*
X199207146Y-101423033D01*
X199171751Y-101427882D01*
X199033904Y-101467279D01*
X199001294Y-101481866D01*
X198998307Y-101483750D01*
X198972015Y-101460696D01*
X198919000Y-101449000D01*
X196473836Y-101449000D01*
X196483432Y-101434772D01*
X196545942Y-101305751D01*
X196556804Y-101271718D01*
X196580590Y-101130339D01*
X196582327Y-101110974D01*
X196582478Y-101098620D01*
X196581214Y-101079218D01*
X196560890Y-100937300D01*
X196550864Y-100903011D01*
X196491525Y-100772501D01*
X196472277Y-100742404D01*
X196378693Y-100633795D01*
X196351772Y-100610311D01*
X196231467Y-100532333D01*
X196199037Y-100517348D01*
X196061681Y-100476270D01*
X196026349Y-100470989D01*
X195882986Y-100470113D01*
X195847591Y-100474962D01*
X195709744Y-100514359D01*
X195677134Y-100528946D01*
X195555885Y-100605448D01*
X195528678Y-100628603D01*
X195433775Y-100736061D01*
X195414162Y-100765919D01*
X195353232Y-100895694D01*
X195342787Y-100929859D01*
X195320731Y-101071519D01*
X195320295Y-101107240D01*
X195338884Y-101249396D01*
X195348491Y-101283805D01*
X195406231Y-101415029D01*
X195425109Y-101445358D01*
X195428170Y-101449000D01*
X193457195Y-101449000D01*
X193460739Y-99150226D01*
X194378385Y-99150226D01*
X194397157Y-99328833D01*
X194403189Y-99356268D01*
X194461065Y-99526278D01*
X194473025Y-99551695D01*
X194567128Y-99704657D01*
X194584422Y-99726792D01*
X194710075Y-99855105D01*
X194731844Y-99872859D01*
X194882802Y-99970145D01*
X194907962Y-99982635D01*
X195076723Y-100044059D01*
X195104026Y-100050665D01*
X195242731Y-100068187D01*
X195258523Y-100069180D01*
X195854395Y-100069180D01*
X195868440Y-100068395D01*
X196001757Y-100053441D01*
X196029149Y-100047217D01*
X196198750Y-99988156D01*
X196224083Y-99976019D01*
X196376385Y-99880850D01*
X196398399Y-99863402D01*
X196525831Y-99736856D01*
X196543432Y-99714964D01*
X196639662Y-99563330D01*
X196651976Y-99538083D01*
X196712220Y-99368898D01*
X196718635Y-99341550D01*
X196739899Y-99163223D01*
X196739990Y-99150226D01*
X202578384Y-99150226D01*
X202597156Y-99328833D01*
X202603188Y-99356268D01*
X202661064Y-99526278D01*
X202673024Y-99551695D01*
X202767127Y-99704657D01*
X202784421Y-99726792D01*
X202910074Y-99855105D01*
X202931843Y-99872859D01*
X203082801Y-99970145D01*
X203107961Y-99982635D01*
X203276722Y-100044059D01*
X203304025Y-100050665D01*
X203442730Y-100068187D01*
X203458522Y-100069180D01*
X204054394Y-100069180D01*
X204068439Y-100068395D01*
X204201756Y-100053441D01*
X204229148Y-100047217D01*
X204398749Y-99988156D01*
X204424082Y-99976019D01*
X204576384Y-99880850D01*
X204598398Y-99863402D01*
X204725830Y-99736856D01*
X204743431Y-99714964D01*
X204839661Y-99563330D01*
X204851975Y-99538083D01*
X204912219Y-99368898D01*
X204918634Y-99341550D01*
X204939898Y-99163223D01*
X204940094Y-99135134D01*
X204921322Y-98956527D01*
X204915290Y-98929092D01*
X204857414Y-98759082D01*
X204845454Y-98733665D01*
X204751351Y-98580703D01*
X204734057Y-98558568D01*
X204690413Y-98514000D01*
X205907001Y-98514000D01*
X205907001Y-99158088D01*
X205907738Y-99171693D01*
X205914485Y-99233812D01*
X205921766Y-99264437D01*
X205972846Y-99400692D01*
X205990002Y-99432027D01*
X206077270Y-99548469D01*
X206102531Y-99573730D01*
X206218973Y-99660998D01*
X206250308Y-99678154D01*
X206386563Y-99729234D01*
X206417185Y-99736515D01*
X206479303Y-99743263D01*
X206492911Y-99744000D01*
X206871432Y-99744000D01*
X206754626Y-99805065D01*
X206734050Y-99818529D01*
X206573495Y-99947618D01*
X206555926Y-99964824D01*
X206423503Y-100122639D01*
X206409609Y-100142929D01*
X206310361Y-100323461D01*
X206300674Y-100346064D01*
X206238382Y-100542434D01*
X206233269Y-100566487D01*
X206210305Y-100771217D01*
X206209962Y-100795806D01*
X206227201Y-101001097D01*
X206231640Y-101025283D01*
X206288425Y-101223316D01*
X206297477Y-101246180D01*
X206391645Y-101429412D01*
X206404967Y-101450083D01*
X206532932Y-101611535D01*
X206550014Y-101629224D01*
X206706901Y-101762745D01*
X206727094Y-101776779D01*
X206906928Y-101877285D01*
X206929462Y-101887130D01*
X207125393Y-101950792D01*
X207149411Y-101956073D01*
X207353976Y-101980465D01*
X207378561Y-101980980D01*
X207583967Y-101965175D01*
X207608184Y-101960905D01*
X207806609Y-101905504D01*
X207829536Y-101896611D01*
X208013421Y-101803724D01*
X208034183Y-101790548D01*
X208196524Y-101663714D01*
X208214333Y-101646755D01*
X208348946Y-101490803D01*
X208363120Y-101470709D01*
X208464879Y-101291581D01*
X208474881Y-101269116D01*
X208539909Y-101073635D01*
X208545357Y-101049655D01*
X208571177Y-100845266D01*
X208572159Y-100831235D01*
X208572571Y-100801761D01*
X208572321Y-100795806D01*
X208749962Y-100795806D01*
X208767201Y-101001097D01*
X208771640Y-101025283D01*
X208828425Y-101223316D01*
X208837477Y-101246180D01*
X208931645Y-101429412D01*
X208944967Y-101450083D01*
X209072932Y-101611535D01*
X209090014Y-101629224D01*
X209246901Y-101762745D01*
X209267094Y-101776779D01*
X209446928Y-101877285D01*
X209469462Y-101887130D01*
X209665393Y-101950792D01*
X209689411Y-101956073D01*
X209893976Y-101980465D01*
X209918561Y-101980980D01*
X210123967Y-101965175D01*
X210148184Y-101960905D01*
X210346609Y-101905504D01*
X210369536Y-101896611D01*
X210553421Y-101803724D01*
X210574183Y-101790548D01*
X210736524Y-101663714D01*
X210754333Y-101646755D01*
X210888946Y-101490803D01*
X210903120Y-101470709D01*
X211004879Y-101291581D01*
X211014881Y-101269116D01*
X211079909Y-101073635D01*
X211085357Y-101049655D01*
X211111177Y-100845266D01*
X211112159Y-100831235D01*
X211112571Y-100801761D01*
X211111982Y-100787705D01*
X211091879Y-100582675D01*
X211087102Y-100558552D01*
X211027557Y-100361331D01*
X211018187Y-100338596D01*
X210921470Y-100156696D01*
X210907861Y-100136213D01*
X210777654Y-99976564D01*
X210760326Y-99959115D01*
X210601590Y-99827797D01*
X210581204Y-99814046D01*
X210399984Y-99716061D01*
X210377314Y-99706532D01*
X210180513Y-99645612D01*
X210156424Y-99640667D01*
X209951539Y-99619133D01*
X209926950Y-99618962D01*
X209721784Y-99637633D01*
X209697628Y-99642240D01*
X209499997Y-99700406D01*
X209477196Y-99709619D01*
X209294626Y-99805065D01*
X209274050Y-99818529D01*
X209113495Y-99947618D01*
X209095926Y-99964824D01*
X208963503Y-100122639D01*
X208949609Y-100142929D01*
X208850361Y-100323461D01*
X208840674Y-100346064D01*
X208778382Y-100542434D01*
X208773269Y-100566487D01*
X208750305Y-100771217D01*
X208749962Y-100795806D01*
X208572321Y-100795806D01*
X208571982Y-100787705D01*
X208551879Y-100582675D01*
X208547102Y-100558552D01*
X208487557Y-100361331D01*
X208478187Y-100338596D01*
X208381470Y-100156696D01*
X208367861Y-100136213D01*
X208237654Y-99976564D01*
X208220326Y-99959115D01*
X208061590Y-99827797D01*
X208041204Y-99814046D01*
X207911655Y-99743999D01*
X208289088Y-99743999D01*
X208302693Y-99743262D01*
X208364812Y-99736515D01*
X208395437Y-99729234D01*
X208531692Y-99678154D01*
X208563027Y-99660998D01*
X208679469Y-99573730D01*
X208704730Y-99548469D01*
X208791998Y-99432027D01*
X208809154Y-99400692D01*
X208860234Y-99264437D01*
X208867515Y-99233815D01*
X208874263Y-99171697D01*
X208875000Y-99158089D01*
X208875000Y-98779192D01*
X208931645Y-98889412D01*
X208944967Y-98910083D01*
X209072932Y-99071535D01*
X209090014Y-99089224D01*
X209246901Y-99222745D01*
X209267094Y-99236779D01*
X209446928Y-99337285D01*
X209469462Y-99347130D01*
X209665393Y-99410792D01*
X209689411Y-99416073D01*
X209893976Y-99440465D01*
X209918561Y-99440980D01*
X210123967Y-99425175D01*
X210148184Y-99420905D01*
X210346609Y-99365504D01*
X210369536Y-99356611D01*
X210553421Y-99263724D01*
X210574183Y-99250548D01*
X210736524Y-99123714D01*
X210754333Y-99106755D01*
X210888946Y-98950803D01*
X210903120Y-98930709D01*
X211004879Y-98751581D01*
X211014881Y-98729116D01*
X211079909Y-98533635D01*
X211085357Y-98509655D01*
X211111177Y-98305266D01*
X211112159Y-98291235D01*
X211112571Y-98261761D01*
X211111982Y-98247705D01*
X211091879Y-98042675D01*
X211087102Y-98018552D01*
X211027557Y-97821331D01*
X211018187Y-97798596D01*
X210921470Y-97616696D01*
X210907861Y-97596213D01*
X210777654Y-97436564D01*
X210760326Y-97419115D01*
X210601590Y-97287797D01*
X210581204Y-97274046D01*
X210399984Y-97176061D01*
X210377314Y-97166532D01*
X210180513Y-97105612D01*
X210156424Y-97100667D01*
X209951539Y-97079133D01*
X209926950Y-97078962D01*
X209721784Y-97097633D01*
X209697628Y-97102240D01*
X209499997Y-97160406D01*
X209477196Y-97169619D01*
X209294626Y-97265065D01*
X209274050Y-97278529D01*
X209113495Y-97407618D01*
X209095926Y-97424824D01*
X208963503Y-97582639D01*
X208949609Y-97602929D01*
X208874999Y-97738644D01*
X208874999Y-97361912D01*
X208874262Y-97348307D01*
X208867515Y-97286188D01*
X208860234Y-97255563D01*
X208809154Y-97119308D01*
X208791998Y-97087973D01*
X208704730Y-96971531D01*
X208679469Y-96946270D01*
X208563027Y-96859002D01*
X208531692Y-96841846D01*
X208499374Y-96829730D01*
X208618120Y-96756820D01*
X208645607Y-96734000D01*
X208741816Y-96627709D01*
X208761792Y-96598092D01*
X208824302Y-96469071D01*
X208835164Y-96435038D01*
X208858950Y-96293659D01*
X208860687Y-96274294D01*
X208860838Y-96261940D01*
X208859574Y-96242538D01*
X208839250Y-96100620D01*
X208829224Y-96066331D01*
X208769885Y-95935821D01*
X208750637Y-95905724D01*
X208657053Y-95797115D01*
X208630132Y-95773631D01*
X208509827Y-95695653D01*
X208477397Y-95680668D01*
X208340041Y-95639590D01*
X208304709Y-95634309D01*
X208161346Y-95633433D01*
X208125951Y-95638282D01*
X207988104Y-95677679D01*
X207955494Y-95692266D01*
X207834245Y-95768768D01*
X207807038Y-95791923D01*
X207712135Y-95899381D01*
X207692522Y-95929239D01*
X207631592Y-96059014D01*
X207621147Y-96093179D01*
X207599091Y-96234839D01*
X207598655Y-96270560D01*
X207617244Y-96412716D01*
X207626851Y-96447125D01*
X207684591Y-96578349D01*
X207703469Y-96608678D01*
X207795719Y-96718423D01*
X207822351Y-96742235D01*
X207873075Y-96776000D01*
X207645000Y-96776000D01*
X207576879Y-96796002D01*
X207530386Y-96849658D01*
X207519000Y-96902000D01*
X207519000Y-98388000D01*
X206033001Y-98388000D01*
X205964880Y-98408002D01*
X205918387Y-98461658D01*
X205907001Y-98514000D01*
X204690413Y-98514000D01*
X204608404Y-98430255D01*
X204586635Y-98412501D01*
X204435677Y-98315215D01*
X204410517Y-98302725D01*
X204241756Y-98241301D01*
X204214453Y-98234695D01*
X204075748Y-98217173D01*
X204059956Y-98216180D01*
X203464084Y-98216180D01*
X203450039Y-98216965D01*
X203316722Y-98231919D01*
X203289330Y-98238143D01*
X203119729Y-98297204D01*
X203094396Y-98309341D01*
X202942094Y-98404510D01*
X202920080Y-98421958D01*
X202792648Y-98548504D01*
X202775047Y-98570396D01*
X202678817Y-98722030D01*
X202666503Y-98747277D01*
X202606259Y-98916462D01*
X202599844Y-98943810D01*
X202578580Y-99122137D01*
X202578384Y-99150226D01*
X196739990Y-99150226D01*
X196740095Y-99135134D01*
X196721323Y-98956527D01*
X196715291Y-98929092D01*
X196657415Y-98759082D01*
X196645455Y-98733665D01*
X196551352Y-98580703D01*
X196534058Y-98558568D01*
X196408405Y-98430255D01*
X196386636Y-98412501D01*
X196235678Y-98315215D01*
X196210518Y-98302725D01*
X196041757Y-98241301D01*
X196016376Y-98235160D01*
X198694455Y-98235160D01*
X198713044Y-98377316D01*
X198722651Y-98411725D01*
X198780391Y-98542949D01*
X198799269Y-98573278D01*
X198891519Y-98683023D01*
X198918151Y-98706835D01*
X199037494Y-98786277D01*
X199069740Y-98801657D01*
X199206584Y-98844409D01*
X199241847Y-98850121D01*
X199385189Y-98852749D01*
X199420641Y-98848333D01*
X199558959Y-98810623D01*
X199591746Y-98796435D01*
X199713920Y-98721420D01*
X199741407Y-98698600D01*
X199837616Y-98592309D01*
X199857592Y-98562692D01*
X199920102Y-98433671D01*
X199930964Y-98399638D01*
X199954750Y-98258259D01*
X199956487Y-98238894D01*
X199956638Y-98226540D01*
X199955374Y-98207138D01*
X199935050Y-98065220D01*
X199925024Y-98030931D01*
X199865685Y-97900421D01*
X199846437Y-97870324D01*
X199752853Y-97761715D01*
X199725932Y-97738231D01*
X199605627Y-97660253D01*
X199573197Y-97645268D01*
X199435841Y-97604190D01*
X199400509Y-97598909D01*
X199257146Y-97598033D01*
X199221751Y-97602882D01*
X199083904Y-97642279D01*
X199051294Y-97656866D01*
X198930045Y-97733368D01*
X198902838Y-97756523D01*
X198807935Y-97863981D01*
X198788322Y-97893839D01*
X198727392Y-98023614D01*
X198716947Y-98057779D01*
X198694891Y-98199439D01*
X198694455Y-98235160D01*
X196016376Y-98235160D01*
X196014454Y-98234695D01*
X195875749Y-98217173D01*
X195859957Y-98216180D01*
X195264085Y-98216180D01*
X195250040Y-98216965D01*
X195116723Y-98231919D01*
X195089331Y-98238143D01*
X194919730Y-98297204D01*
X194894397Y-98309341D01*
X194742095Y-98404510D01*
X194720081Y-98421958D01*
X194592649Y-98548504D01*
X194575048Y-98570396D01*
X194478818Y-98722030D01*
X194466504Y-98747277D01*
X194406260Y-98916462D01*
X194399845Y-98943810D01*
X194378581Y-99122137D01*
X194378385Y-99150226D01*
X193460739Y-99150226D01*
X193465005Y-96382840D01*
X193528695Y-96382840D01*
X193547284Y-96524996D01*
X193556891Y-96559405D01*
X193614631Y-96690629D01*
X193633509Y-96720958D01*
X193725759Y-96830703D01*
X193752391Y-96854515D01*
X193871734Y-96933957D01*
X193903980Y-96949337D01*
X194040824Y-96992089D01*
X194076087Y-96997801D01*
X194219429Y-97000429D01*
X194254881Y-96996013D01*
X194393199Y-96958303D01*
X194425986Y-96944115D01*
X194548160Y-96869100D01*
X194575647Y-96846280D01*
X194607844Y-96810709D01*
X194710075Y-96915105D01*
X194731844Y-96932859D01*
X194882802Y-97030145D01*
X194907962Y-97042635D01*
X195076723Y-97104059D01*
X195104026Y-97110665D01*
X195242731Y-97128187D01*
X195258523Y-97129180D01*
X195854395Y-97129180D01*
X195868440Y-97128395D01*
X196001757Y-97113441D01*
X196029149Y-97107217D01*
X196198750Y-97048156D01*
X196224083Y-97036019D01*
X196305474Y-96985160D01*
X199394455Y-96985160D01*
X199413044Y-97127316D01*
X199422651Y-97161725D01*
X199480391Y-97292949D01*
X199499269Y-97323278D01*
X199591519Y-97433023D01*
X199618151Y-97456835D01*
X199737494Y-97536277D01*
X199769740Y-97551657D01*
X199906584Y-97594409D01*
X199941847Y-97600121D01*
X200085189Y-97602749D01*
X200120641Y-97598333D01*
X200258959Y-97560623D01*
X200291746Y-97546435D01*
X200413920Y-97471420D01*
X200441407Y-97448600D01*
X200519873Y-97361911D01*
X205907000Y-97361911D01*
X205907000Y-98006000D01*
X205927002Y-98074121D01*
X205980658Y-98120614D01*
X206033000Y-98132000D01*
X207137000Y-98132000D01*
X207205121Y-98111998D01*
X207251614Y-98058342D01*
X207263000Y-98006000D01*
X207263000Y-96902001D01*
X207242998Y-96833880D01*
X207189342Y-96787387D01*
X207137000Y-96776001D01*
X206492912Y-96776001D01*
X206479307Y-96776738D01*
X206417188Y-96783485D01*
X206386563Y-96790766D01*
X206250308Y-96841846D01*
X206218973Y-96859002D01*
X206102531Y-96946270D01*
X206077270Y-96971531D01*
X205990002Y-97087973D01*
X205972846Y-97119308D01*
X205921766Y-97255563D01*
X205914485Y-97286185D01*
X205907737Y-97348303D01*
X205907000Y-97361911D01*
X200519873Y-97361911D01*
X200537616Y-97342309D01*
X200557592Y-97312692D01*
X200620102Y-97183671D01*
X200630964Y-97149638D01*
X200654750Y-97008259D01*
X200656487Y-96988894D01*
X200656638Y-96976540D01*
X200655374Y-96957138D01*
X200635050Y-96815220D01*
X200625024Y-96780931D01*
X200565685Y-96650421D01*
X200546437Y-96620324D01*
X200452853Y-96511715D01*
X200425932Y-96488231D01*
X200305627Y-96410253D01*
X200273197Y-96395268D01*
X200135841Y-96354190D01*
X200100509Y-96348909D01*
X199957146Y-96348033D01*
X199921751Y-96352882D01*
X199783904Y-96392279D01*
X199751294Y-96406866D01*
X199630045Y-96483368D01*
X199602838Y-96506523D01*
X199507935Y-96613981D01*
X199488322Y-96643839D01*
X199427392Y-96773614D01*
X199416947Y-96807779D01*
X199394891Y-96949439D01*
X199394455Y-96985160D01*
X196305474Y-96985160D01*
X196376385Y-96940850D01*
X196398399Y-96923402D01*
X196525831Y-96796856D01*
X196543432Y-96774964D01*
X196639662Y-96623330D01*
X196651976Y-96598083D01*
X196712220Y-96428898D01*
X196718635Y-96401550D01*
X196739899Y-96223223D01*
X196739990Y-96210226D01*
X202578384Y-96210226D01*
X202597156Y-96388833D01*
X202603188Y-96416268D01*
X202661064Y-96586278D01*
X202673024Y-96611695D01*
X202767127Y-96764657D01*
X202784421Y-96786792D01*
X202910074Y-96915105D01*
X202931843Y-96932859D01*
X203082801Y-97030145D01*
X203107961Y-97042635D01*
X203276722Y-97104059D01*
X203304025Y-97110665D01*
X203442730Y-97128187D01*
X203458522Y-97129180D01*
X204054394Y-97129180D01*
X204068439Y-97128395D01*
X204201756Y-97113441D01*
X204229148Y-97107217D01*
X204398749Y-97048156D01*
X204424082Y-97036019D01*
X204576384Y-96940850D01*
X204598398Y-96923402D01*
X204710284Y-96812294D01*
X204725759Y-96830703D01*
X204752391Y-96854515D01*
X204871734Y-96933957D01*
X204903980Y-96949337D01*
X205040824Y-96992089D01*
X205076087Y-96997801D01*
X205219429Y-97000429D01*
X205254881Y-96996013D01*
X205393199Y-96958303D01*
X205425986Y-96944115D01*
X205548160Y-96869100D01*
X205575647Y-96846280D01*
X205671856Y-96739989D01*
X205691832Y-96710372D01*
X205754342Y-96581351D01*
X205765204Y-96547318D01*
X205788990Y-96405939D01*
X205790727Y-96386574D01*
X205790878Y-96374220D01*
X205789614Y-96354818D01*
X205769290Y-96212900D01*
X205759264Y-96178611D01*
X205699925Y-96048101D01*
X205680677Y-96018004D01*
X205587093Y-95909395D01*
X205560172Y-95885911D01*
X205439867Y-95807933D01*
X205407437Y-95792948D01*
X205270081Y-95751870D01*
X205234749Y-95746589D01*
X205091386Y-95745713D01*
X205055991Y-95750562D01*
X204918144Y-95789959D01*
X204885534Y-95804546D01*
X204858313Y-95821721D01*
X204857414Y-95819081D01*
X204845454Y-95793665D01*
X204751351Y-95640703D01*
X204734057Y-95618568D01*
X204608404Y-95490255D01*
X204586635Y-95472501D01*
X204435677Y-95375215D01*
X204410517Y-95362725D01*
X204241756Y-95301301D01*
X204214453Y-95294695D01*
X204075748Y-95277173D01*
X204059956Y-95276180D01*
X203464084Y-95276180D01*
X203450039Y-95276965D01*
X203316722Y-95291919D01*
X203289330Y-95298143D01*
X203119729Y-95357204D01*
X203094396Y-95369341D01*
X202942094Y-95464510D01*
X202920080Y-95481958D01*
X202792648Y-95608504D01*
X202775047Y-95630396D01*
X202678817Y-95782030D01*
X202666503Y-95807277D01*
X202606259Y-95976462D01*
X202599844Y-96003810D01*
X202578580Y-96182137D01*
X202578384Y-96210226D01*
X196739990Y-96210226D01*
X196740095Y-96195134D01*
X196721323Y-96016527D01*
X196715291Y-95989092D01*
X196657415Y-95819082D01*
X196645455Y-95793665D01*
X196551352Y-95640703D01*
X196534058Y-95618568D01*
X196408405Y-95490255D01*
X196386636Y-95472501D01*
X196235678Y-95375215D01*
X196210518Y-95362725D01*
X196041757Y-95301301D01*
X196014454Y-95294695D01*
X195875749Y-95277173D01*
X195859957Y-95276180D01*
X195264085Y-95276180D01*
X195250040Y-95276965D01*
X195116723Y-95291919D01*
X195089331Y-95298143D01*
X194919730Y-95357204D01*
X194894397Y-95369341D01*
X194742095Y-95464510D01*
X194720081Y-95481958D01*
X194592649Y-95608504D01*
X194575048Y-95630396D01*
X194478818Y-95782030D01*
X194466504Y-95807277D01*
X194461319Y-95821838D01*
X194439867Y-95807933D01*
X194407437Y-95792948D01*
X194270081Y-95751870D01*
X194234749Y-95746589D01*
X194091386Y-95745713D01*
X194055991Y-95750562D01*
X193918144Y-95789959D01*
X193885534Y-95804546D01*
X193764285Y-95881048D01*
X193737078Y-95904203D01*
X193642175Y-96011661D01*
X193622562Y-96041519D01*
X193561632Y-96171294D01*
X193551187Y-96205459D01*
X193529131Y-96347119D01*
X193528695Y-96382840D01*
X193465005Y-96382840D01*
X193467202Y-94957512D01*
X193553359Y-94934023D01*
X193586146Y-94919835D01*
X193708320Y-94844820D01*
X193735807Y-94822000D01*
X193832016Y-94715709D01*
X193851992Y-94686092D01*
X193914502Y-94557071D01*
X193925364Y-94523038D01*
X193949150Y-94381659D01*
X193950887Y-94362294D01*
X193951038Y-94349940D01*
X193949774Y-94330538D01*
X193929450Y-94188620D01*
X193926099Y-94177160D01*
X195717055Y-94177160D01*
X195735644Y-94319316D01*
X195745251Y-94353725D01*
X195802991Y-94484949D01*
X195821869Y-94515278D01*
X195914119Y-94625023D01*
X195940751Y-94648835D01*
X196060094Y-94728277D01*
X196092340Y-94743657D01*
X196229184Y-94786409D01*
X196264447Y-94792121D01*
X196407789Y-94794749D01*
X196443241Y-94790333D01*
X196581559Y-94752623D01*
X196614346Y-94738435D01*
X196736520Y-94663420D01*
X196764007Y-94640600D01*
X196860216Y-94534309D01*
X196880192Y-94504692D01*
X196942702Y-94375671D01*
X196953564Y-94341638D01*
X196977350Y-94200259D01*
X196979087Y-94180894D01*
X196979238Y-94168540D01*
X196977974Y-94149138D01*
X196957650Y-94007220D01*
X196947624Y-93972931D01*
X196888285Y-93842421D01*
X196869037Y-93812324D01*
X196775453Y-93703715D01*
X196748532Y-93680231D01*
X196628227Y-93602253D01*
X196595797Y-93587268D01*
X196458441Y-93546190D01*
X196423109Y-93540909D01*
X196279746Y-93540033D01*
X196244351Y-93544882D01*
X196106504Y-93584279D01*
X196073894Y-93598866D01*
X195952645Y-93675368D01*
X195925438Y-93698523D01*
X195830535Y-93805981D01*
X195810922Y-93835839D01*
X195749992Y-93965614D01*
X195739547Y-93999779D01*
X195717491Y-94141439D01*
X195717055Y-94177160D01*
X193926099Y-94177160D01*
X193919424Y-94154331D01*
X193860085Y-94023821D01*
X193840837Y-93993724D01*
X193767244Y-93908316D01*
X193842016Y-93825709D01*
X193861992Y-93796092D01*
X193924502Y-93667071D01*
X193935364Y-93633038D01*
X193959150Y-93491659D01*
X193960887Y-93472294D01*
X193961038Y-93459940D01*
X193959774Y-93440538D01*
X193939450Y-93298620D01*
X193929424Y-93264331D01*
X193870085Y-93133821D01*
X193859240Y-93116863D01*
X193929389Y-93118149D01*
X193964841Y-93113733D01*
X194103159Y-93076023D01*
X194135946Y-93061835D01*
X194258120Y-92986820D01*
X194285607Y-92964000D01*
X194381816Y-92857709D01*
X194401792Y-92828092D01*
X194464302Y-92699071D01*
X194475164Y-92665038D01*
X194498950Y-92523659D01*
X194500687Y-92504294D01*
X194500838Y-92491940D01*
X194499574Y-92472538D01*
X194479250Y-92330620D01*
X194469224Y-92296331D01*
X194409885Y-92165821D01*
X194390637Y-92135724D01*
X194297053Y-92027115D01*
X194270132Y-92003631D01*
X194149827Y-91925653D01*
X194117397Y-91910668D01*
X193980041Y-91869590D01*
X193944709Y-91864309D01*
X193801346Y-91863433D01*
X193765951Y-91868282D01*
X193628104Y-91907679D01*
X193595494Y-91922266D01*
X193474245Y-91998768D01*
X193471760Y-92000883D01*
X193472958Y-91223395D01*
X193974145Y-90900029D01*
X194558980Y-90568853D01*
X195161978Y-90271968D01*
X195781070Y-90010392D01*
X196414247Y-89784975D01*
X196646480Y-89717120D01*
X196623580Y-91934985D01*
X196621216Y-91945342D01*
X196618057Y-91973554D01*
X196618058Y-91974270D01*
X196619154Y-91983800D01*
X196618845Y-91983818D01*
X196638542Y-92326944D01*
X196640052Y-92340452D01*
X196697007Y-92681934D01*
X196699963Y-92695200D01*
X196793369Y-93028561D01*
X196797736Y-93041432D01*
X196926505Y-93362792D01*
X196932234Y-93375117D01*
X197094869Y-93680738D01*
X197101892Y-93692375D01*
X197296501Y-93978699D01*
X197304736Y-93989512D01*
X197529053Y-94253209D01*
X197538405Y-94263071D01*
X197789820Y-94501071D01*
X197800180Y-94509869D01*
X198075769Y-94719404D01*
X198087017Y-94727035D01*
X198383572Y-94905667D01*
X198395576Y-94912042D01*
X198709647Y-95057691D01*
X198722267Y-95062735D01*
X199050198Y-95173707D01*
X199063289Y-95177363D01*
X199401266Y-95252367D01*
X199414675Y-95254592D01*
X199758765Y-95292755D01*
X199772334Y-95293523D01*
X200118532Y-95294401D01*
X200132106Y-95293702D01*
X200476385Y-95257285D01*
X200489805Y-95255128D01*
X200828158Y-95181839D01*
X200841267Y-95178250D01*
X201169757Y-95068942D01*
X201182403Y-95063961D01*
X201497209Y-94919907D01*
X201509245Y-94913593D01*
X201806702Y-94736468D01*
X201817988Y-94728895D01*
X201882234Y-94680560D01*
X206288655Y-94680560D01*
X206307244Y-94822716D01*
X206316851Y-94857125D01*
X206374591Y-94988349D01*
X206393469Y-95018678D01*
X206485719Y-95128423D01*
X206512351Y-95152235D01*
X206631694Y-95231677D01*
X206663940Y-95247057D01*
X206800784Y-95289809D01*
X206836047Y-95295521D01*
X206979389Y-95298149D01*
X207014841Y-95293733D01*
X207153159Y-95256023D01*
X207185946Y-95241835D01*
X207308120Y-95166820D01*
X207335607Y-95144000D01*
X207431816Y-95037709D01*
X207451792Y-95008092D01*
X207514302Y-94879071D01*
X207525164Y-94845038D01*
X207548950Y-94703659D01*
X207550687Y-94684294D01*
X207550838Y-94671940D01*
X207549574Y-94652538D01*
X207529250Y-94510620D01*
X207519224Y-94476331D01*
X207459885Y-94345821D01*
X207440637Y-94315724D01*
X207347053Y-94207115D01*
X207320132Y-94183631D01*
X207199827Y-94105653D01*
X207167397Y-94090668D01*
X207030041Y-94049590D01*
X206994709Y-94044309D01*
X206851346Y-94043433D01*
X206815951Y-94048282D01*
X206678104Y-94087679D01*
X206645494Y-94102266D01*
X206524245Y-94178768D01*
X206497038Y-94201923D01*
X206402135Y-94309381D01*
X206382522Y-94339239D01*
X206321592Y-94469014D01*
X206311147Y-94503179D01*
X206289091Y-94644839D01*
X206288655Y-94680560D01*
X201882234Y-94680560D01*
X202094636Y-94520760D01*
X202105041Y-94512014D01*
X202357660Y-94275292D01*
X202367062Y-94265477D01*
X202592714Y-94002921D01*
X202601004Y-93992151D01*
X202797062Y-93706818D01*
X202804144Y-93695217D01*
X202968327Y-93390425D01*
X202974118Y-93378129D01*
X203104516Y-93057426D01*
X203108948Y-93044577D01*
X203204043Y-92711694D01*
X203207067Y-92698443D01*
X203265752Y-92357254D01*
X203267330Y-92343754D01*
X203288712Y-92001613D01*
X203288446Y-92001596D01*
X203289593Y-91992321D01*
X203289600Y-91991605D01*
X203286683Y-91963390D01*
X203285014Y-91955779D01*
X203319647Y-89706906D01*
X203564028Y-89777778D01*
G37*
G04 #@! TD.AperFunction*
X192999000Y-92926037D02*
X192934445Y-92966768D01*
X192907238Y-92989923D01*
X192812335Y-93097381D01*
X192792722Y-93127239D01*
X192731792Y-93257014D01*
X192721347Y-93291179D01*
X192699291Y-93432839D01*
X192698855Y-93468560D01*
X192717444Y-93610716D01*
X192727051Y-93645125D01*
X192784791Y-93776349D01*
X192803669Y-93806678D01*
X192880843Y-93898487D01*
X192802335Y-93987381D01*
X192782722Y-94017239D01*
X192721792Y-94147014D01*
X192711347Y-94181179D01*
X192689291Y-94322839D01*
X192688855Y-94358560D01*
X192707444Y-94500716D01*
X192717051Y-94535125D01*
X192774791Y-94666349D01*
X192793669Y-94696678D01*
X192885919Y-94806423D01*
X192912551Y-94830235D01*
X192999000Y-94887781D01*
X192999000Y-99693709D01*
X192990685Y-99675421D01*
X192971437Y-99645324D01*
X192877853Y-99536715D01*
X192850932Y-99513231D01*
X192730627Y-99435253D01*
X192698197Y-99420268D01*
X192560841Y-99379190D01*
X192525509Y-99373909D01*
X192382146Y-99373033D01*
X192346751Y-99377882D01*
X192208904Y-99417279D01*
X192176294Y-99431866D01*
X192055045Y-99508368D01*
X192027838Y-99531523D01*
X191932935Y-99638981D01*
X191913322Y-99668839D01*
X191852392Y-99798614D01*
X191841947Y-99832779D01*
X191819891Y-99974439D01*
X191819455Y-100010160D01*
X191838044Y-100152316D01*
X191847651Y-100186725D01*
X191905391Y-100317949D01*
X191924269Y-100348278D01*
X192016519Y-100458023D01*
X192043151Y-100481835D01*
X192162494Y-100561277D01*
X192194740Y-100576657D01*
X192331584Y-100619409D01*
X192366847Y-100625121D01*
X192510189Y-100627749D01*
X192545641Y-100623333D01*
X192683959Y-100585623D01*
X192716746Y-100571435D01*
X192838920Y-100496420D01*
X192866407Y-100473600D01*
X192962616Y-100367309D01*
X192982592Y-100337692D01*
X192999000Y-100303826D01*
X192999000Y-101900000D01*
X193019002Y-101968121D01*
X193072658Y-102014614D01*
X193124403Y-102025999D01*
X198358175Y-102050804D01*
X198354647Y-104023514D01*
X198181355Y-104203512D01*
X198148518Y-104266458D01*
X198154926Y-104337165D01*
X198190637Y-104387003D01*
X198353748Y-104525309D01*
X198339703Y-112376800D01*
X198005321Y-112328534D01*
X197346773Y-112194288D01*
X196697049Y-112022253D01*
X196058366Y-111813018D01*
X195432801Y-111567265D01*
X195092107Y-111410160D01*
X196269455Y-111410160D01*
X196288044Y-111552316D01*
X196297651Y-111586725D01*
X196355391Y-111717949D01*
X196374269Y-111748278D01*
X196466519Y-111858023D01*
X196493151Y-111881835D01*
X196612494Y-111961277D01*
X196644740Y-111976657D01*
X196781584Y-112019409D01*
X196816847Y-112025121D01*
X196960189Y-112027749D01*
X196995641Y-112023333D01*
X197133959Y-111985623D01*
X197166746Y-111971435D01*
X197288920Y-111896420D01*
X197316407Y-111873600D01*
X197412616Y-111767309D01*
X197432592Y-111737692D01*
X197495102Y-111608671D01*
X197505964Y-111574638D01*
X197529750Y-111433259D01*
X197531487Y-111413894D01*
X197531638Y-111401540D01*
X197530374Y-111382138D01*
X197510050Y-111240220D01*
X197500024Y-111205931D01*
X197440685Y-111075421D01*
X197421437Y-111045324D01*
X197327853Y-110936715D01*
X197300932Y-110913231D01*
X197180627Y-110835253D01*
X197148197Y-110820268D01*
X197010841Y-110779190D01*
X196975509Y-110773909D01*
X196832146Y-110773033D01*
X196796751Y-110777882D01*
X196658904Y-110817279D01*
X196626294Y-110831866D01*
X196505045Y-110908368D01*
X196477838Y-110931523D01*
X196382935Y-111038981D01*
X196363322Y-111068839D01*
X196302392Y-111198614D01*
X196291947Y-111232779D01*
X196269891Y-111374439D01*
X196269455Y-111410160D01*
X195092107Y-111410160D01*
X194822458Y-111285816D01*
X194229383Y-110969616D01*
X193655563Y-110619727D01*
X193102864Y-110237286D01*
X192573177Y-109823599D01*
X192068228Y-109380016D01*
X191589730Y-108908041D01*
X191139272Y-108409241D01*
X190718360Y-107885287D01*
X190328363Y-107337879D01*
X189970633Y-106768916D01*
X189646318Y-106180225D01*
X189636376Y-106159421D01*
X194393112Y-106159421D01*
X194393112Y-106203181D01*
X194411514Y-106307544D01*
X194426481Y-106348664D01*
X194479467Y-106440439D01*
X194507595Y-106473961D01*
X194588775Y-106542079D01*
X194626672Y-106563959D01*
X194726254Y-106600203D01*
X194769348Y-106607801D01*
X194875320Y-106607801D01*
X194918414Y-106600203D01*
X195017996Y-106563959D01*
X195055893Y-106542079D01*
X195137073Y-106473961D01*
X195165201Y-106440439D01*
X195218187Y-106348664D01*
X195233154Y-106307544D01*
X195251556Y-106203181D01*
X195251556Y-106159421D01*
X195233154Y-106055058D01*
X195218187Y-106013938D01*
X195165201Y-105922163D01*
X195137073Y-105888641D01*
X195055893Y-105820523D01*
X195017996Y-105798643D01*
X194918414Y-105762399D01*
X194875320Y-105754801D01*
X194769348Y-105754801D01*
X194726254Y-105762399D01*
X194626672Y-105798643D01*
X194588775Y-105820523D01*
X194507595Y-105888641D01*
X194479467Y-105922163D01*
X194426481Y-106013938D01*
X194411514Y-106055058D01*
X194393112Y-106159421D01*
X189636376Y-106159421D01*
X189356527Y-105573819D01*
X189306858Y-105452314D01*
X193686006Y-105452314D01*
X193686006Y-105496074D01*
X193704408Y-105600437D01*
X193719375Y-105641557D01*
X193772361Y-105733332D01*
X193800489Y-105766854D01*
X193881669Y-105834972D01*
X193919566Y-105856852D01*
X194019148Y-105893096D01*
X194062242Y-105900694D01*
X194168214Y-105900694D01*
X194211308Y-105893096D01*
X194310890Y-105856852D01*
X194348787Y-105834972D01*
X194429967Y-105766854D01*
X194458095Y-105733332D01*
X194511081Y-105641557D01*
X194526048Y-105600437D01*
X194544450Y-105496074D01*
X194544450Y-105452314D01*
X195100219Y-105452314D01*
X195100219Y-105496074D01*
X195118621Y-105600437D01*
X195133588Y-105641557D01*
X195186574Y-105733332D01*
X195214702Y-105766854D01*
X195295882Y-105834972D01*
X195333779Y-105856852D01*
X195433361Y-105893096D01*
X195476455Y-105900694D01*
X195582427Y-105900694D01*
X195625521Y-105893096D01*
X195725103Y-105856852D01*
X195763000Y-105834972D01*
X195844180Y-105766854D01*
X195872308Y-105733332D01*
X195925294Y-105641557D01*
X195940261Y-105600437D01*
X195958663Y-105496074D01*
X195958663Y-105452314D01*
X195940261Y-105347951D01*
X195925294Y-105306831D01*
X195872308Y-105215056D01*
X195844180Y-105181534D01*
X195763000Y-105113416D01*
X195725103Y-105091536D01*
X195625521Y-105055292D01*
X195582427Y-105047694D01*
X195476455Y-105047694D01*
X195433361Y-105055292D01*
X195333779Y-105091536D01*
X195295882Y-105113416D01*
X195214702Y-105181534D01*
X195186574Y-105215056D01*
X195133588Y-105306831D01*
X195118621Y-105347951D01*
X195100219Y-105452314D01*
X194544450Y-105452314D01*
X194526048Y-105347951D01*
X194511081Y-105306831D01*
X194458095Y-105215056D01*
X194429967Y-105181534D01*
X194348787Y-105113416D01*
X194310890Y-105091536D01*
X194211308Y-105055292D01*
X194168214Y-105047694D01*
X194062242Y-105047694D01*
X194019148Y-105055292D01*
X193919566Y-105091536D01*
X193881669Y-105113416D01*
X193800489Y-105181534D01*
X193772361Y-105215056D01*
X193719375Y-105306831D01*
X193704408Y-105347951D01*
X193686006Y-105452314D01*
X189306858Y-105452314D01*
X189102210Y-104951681D01*
X189031416Y-104745207D01*
X192978899Y-104745207D01*
X192978899Y-104788967D01*
X192997301Y-104893330D01*
X193012268Y-104934450D01*
X193065254Y-105026225D01*
X193093382Y-105059747D01*
X193174562Y-105127865D01*
X193212459Y-105149745D01*
X193312041Y-105185989D01*
X193355135Y-105193587D01*
X193461107Y-105193587D01*
X193504201Y-105185989D01*
X193603783Y-105149745D01*
X193641680Y-105127865D01*
X193722860Y-105059747D01*
X193750988Y-105026225D01*
X193803974Y-104934450D01*
X193818941Y-104893330D01*
X193837343Y-104788967D01*
X193837343Y-104745207D01*
X194393112Y-104745207D01*
X194393112Y-104788967D01*
X194411514Y-104893330D01*
X194426481Y-104934450D01*
X194479467Y-105026225D01*
X194507595Y-105059747D01*
X194588775Y-105127865D01*
X194626672Y-105149745D01*
X194726254Y-105185989D01*
X194769348Y-105193587D01*
X194875320Y-105193587D01*
X194918414Y-105185989D01*
X195017996Y-105149745D01*
X195055893Y-105127865D01*
X195137073Y-105059747D01*
X195165201Y-105026225D01*
X195218187Y-104934450D01*
X195233154Y-104893330D01*
X195251556Y-104788967D01*
X195251556Y-104745207D01*
X195807326Y-104745207D01*
X195807326Y-104788967D01*
X195825728Y-104893330D01*
X195840695Y-104934450D01*
X195893681Y-105026225D01*
X195921809Y-105059747D01*
X196002989Y-105127865D01*
X196040886Y-105149745D01*
X196140468Y-105185989D01*
X196183562Y-105193587D01*
X196289534Y-105193587D01*
X196332628Y-105185989D01*
X196432210Y-105149745D01*
X196470107Y-105127865D01*
X196551287Y-105059747D01*
X196579415Y-105026225D01*
X196632401Y-104934450D01*
X196647368Y-104893330D01*
X196665770Y-104788967D01*
X196665770Y-104745207D01*
X196647368Y-104640844D01*
X196632401Y-104599724D01*
X196579415Y-104507949D01*
X196551287Y-104474427D01*
X196470107Y-104406309D01*
X196432210Y-104384429D01*
X196332628Y-104348185D01*
X196289534Y-104340587D01*
X196183562Y-104340587D01*
X196140468Y-104348185D01*
X196040886Y-104384429D01*
X196002989Y-104406309D01*
X195921809Y-104474427D01*
X195893681Y-104507949D01*
X195840695Y-104599724D01*
X195825728Y-104640844D01*
X195807326Y-104745207D01*
X195251556Y-104745207D01*
X195233154Y-104640844D01*
X195218187Y-104599724D01*
X195165201Y-104507949D01*
X195137073Y-104474427D01*
X195055893Y-104406309D01*
X195017996Y-104384429D01*
X194918414Y-104348185D01*
X194875320Y-104340587D01*
X194769348Y-104340587D01*
X194726254Y-104348185D01*
X194626672Y-104384429D01*
X194588775Y-104406309D01*
X194507595Y-104474427D01*
X194479467Y-104507949D01*
X194426481Y-104599724D01*
X194411514Y-104640844D01*
X194393112Y-104745207D01*
X193837343Y-104745207D01*
X193818941Y-104640844D01*
X193803974Y-104599724D01*
X193750988Y-104507949D01*
X193722860Y-104474427D01*
X193641680Y-104406309D01*
X193603783Y-104384429D01*
X193504201Y-104348185D01*
X193461107Y-104340587D01*
X193355135Y-104340587D01*
X193312041Y-104348185D01*
X193212459Y-104384429D01*
X193174562Y-104406309D01*
X193093382Y-104474427D01*
X193065254Y-104507949D01*
X193012268Y-104599724D01*
X192997301Y-104640844D01*
X192978899Y-104745207D01*
X189031416Y-104745207D01*
X188884226Y-104315919D01*
X188703294Y-103668626D01*
X188685911Y-103588954D01*
X189676607Y-103588954D01*
X189676607Y-103621846D01*
X189695609Y-103766182D01*
X189704122Y-103797955D01*
X189759834Y-103932454D01*
X189776280Y-103960939D01*
X189864904Y-104076437D01*
X189888163Y-104099696D01*
X190003660Y-104188320D01*
X190032146Y-104204766D01*
X190166646Y-104260478D01*
X190198418Y-104268991D01*
X190342754Y-104287993D01*
X190375646Y-104287993D01*
X190519982Y-104268991D01*
X190551754Y-104260478D01*
X190686254Y-104204766D01*
X190714740Y-104188320D01*
X190830237Y-104099696D01*
X190853496Y-104076437D01*
X190882912Y-104038101D01*
X193686006Y-104038101D01*
X193686006Y-104081861D01*
X193704408Y-104186224D01*
X193719375Y-104227344D01*
X193772361Y-104319119D01*
X193800489Y-104352641D01*
X193881669Y-104420759D01*
X193919566Y-104442639D01*
X194019148Y-104478883D01*
X194062242Y-104486481D01*
X194168214Y-104486481D01*
X194211308Y-104478883D01*
X194310890Y-104442639D01*
X194348787Y-104420759D01*
X194429967Y-104352641D01*
X194458095Y-104319119D01*
X194511081Y-104227344D01*
X194526048Y-104186224D01*
X194544450Y-104081861D01*
X194544450Y-104038101D01*
X195100219Y-104038101D01*
X195100219Y-104081861D01*
X195118621Y-104186224D01*
X195133588Y-104227344D01*
X195186574Y-104319119D01*
X195214702Y-104352641D01*
X195295882Y-104420759D01*
X195333779Y-104442639D01*
X195433361Y-104478883D01*
X195476455Y-104486481D01*
X195582427Y-104486481D01*
X195625521Y-104478883D01*
X195725103Y-104442639D01*
X195763000Y-104420759D01*
X195844180Y-104352641D01*
X195872308Y-104319119D01*
X195925294Y-104227344D01*
X195940261Y-104186224D01*
X195958663Y-104081861D01*
X195958663Y-104038101D01*
X195940261Y-103933738D01*
X195925294Y-103892618D01*
X195872308Y-103800843D01*
X195844180Y-103767321D01*
X195763000Y-103699203D01*
X195725103Y-103677323D01*
X195625521Y-103641079D01*
X195582427Y-103633481D01*
X195476455Y-103633481D01*
X195433361Y-103641079D01*
X195333779Y-103677323D01*
X195295882Y-103699203D01*
X195214702Y-103767321D01*
X195186574Y-103800843D01*
X195133588Y-103892618D01*
X195118621Y-103933738D01*
X195100219Y-104038101D01*
X194544450Y-104038101D01*
X194526048Y-103933738D01*
X194511081Y-103892618D01*
X194458095Y-103800843D01*
X194429967Y-103767321D01*
X194348787Y-103699203D01*
X194310890Y-103677323D01*
X194211308Y-103641079D01*
X194168214Y-103633481D01*
X194062242Y-103633481D01*
X194019148Y-103641079D01*
X193919566Y-103677323D01*
X193881669Y-103699203D01*
X193800489Y-103767321D01*
X193772361Y-103800843D01*
X193719375Y-103892618D01*
X193704408Y-103933738D01*
X193686006Y-104038101D01*
X190882912Y-104038101D01*
X190942120Y-103960939D01*
X190958566Y-103932454D01*
X191014278Y-103797955D01*
X191022791Y-103766182D01*
X191041793Y-103621846D01*
X191041793Y-103588954D01*
X191022791Y-103444618D01*
X191014278Y-103412845D01*
X190980374Y-103330994D01*
X194393112Y-103330994D01*
X194393112Y-103374754D01*
X194411514Y-103479117D01*
X194426481Y-103520237D01*
X194479467Y-103612012D01*
X194507595Y-103645534D01*
X194588775Y-103713652D01*
X194626672Y-103735532D01*
X194726254Y-103771776D01*
X194769348Y-103779374D01*
X194875320Y-103779374D01*
X194918414Y-103771776D01*
X195017996Y-103735532D01*
X195055893Y-103713652D01*
X195137073Y-103645534D01*
X195165201Y-103612012D01*
X195218187Y-103520237D01*
X195233154Y-103479117D01*
X195251556Y-103374754D01*
X195251556Y-103330994D01*
X195233154Y-103226631D01*
X195218187Y-103185511D01*
X195165201Y-103093736D01*
X195137073Y-103060214D01*
X195055893Y-102992096D01*
X195017996Y-102970216D01*
X194918414Y-102933972D01*
X194875320Y-102926374D01*
X194769348Y-102926374D01*
X194726254Y-102933972D01*
X194626672Y-102970216D01*
X194588775Y-102992096D01*
X194507595Y-103060214D01*
X194479467Y-103093736D01*
X194426481Y-103185511D01*
X194411514Y-103226631D01*
X194393112Y-103330994D01*
X190980374Y-103330994D01*
X190958566Y-103278346D01*
X190942120Y-103249861D01*
X190853496Y-103134363D01*
X190830237Y-103111104D01*
X190714740Y-103022480D01*
X190686254Y-103006034D01*
X190551754Y-102950322D01*
X190519982Y-102941809D01*
X190375646Y-102922807D01*
X190342754Y-102922807D01*
X190198418Y-102941809D01*
X190166645Y-102950322D01*
X190032146Y-103006034D01*
X190003661Y-103022480D01*
X189888163Y-103111104D01*
X189864904Y-103134363D01*
X189776280Y-103249861D01*
X189759834Y-103278346D01*
X189704122Y-103412845D01*
X189695609Y-103444618D01*
X189676607Y-103588954D01*
X188685911Y-103588954D01*
X188560021Y-103011975D01*
X188454883Y-102348149D01*
X188388231Y-101679361D01*
X188363105Y-101075560D01*
X189728655Y-101075560D01*
X189747244Y-101217716D01*
X189756851Y-101252125D01*
X189814591Y-101383349D01*
X189833469Y-101413678D01*
X189925719Y-101523423D01*
X189952351Y-101547235D01*
X190071694Y-101626677D01*
X190103940Y-101642057D01*
X190240784Y-101684809D01*
X190276047Y-101690521D01*
X190419389Y-101693149D01*
X190454841Y-101688733D01*
X190593159Y-101651023D01*
X190625946Y-101636835D01*
X190748120Y-101561820D01*
X190775607Y-101539000D01*
X190871816Y-101432709D01*
X190891792Y-101403092D01*
X190954302Y-101274071D01*
X190965164Y-101240038D01*
X190988950Y-101098659D01*
X190990687Y-101079294D01*
X190990838Y-101066940D01*
X190989574Y-101047538D01*
X190969250Y-100905620D01*
X190959224Y-100871331D01*
X190899885Y-100740821D01*
X190880637Y-100710724D01*
X190787053Y-100602115D01*
X190760132Y-100578631D01*
X190639827Y-100500653D01*
X190607397Y-100485668D01*
X190470041Y-100444590D01*
X190434709Y-100439309D01*
X190291346Y-100438433D01*
X190255951Y-100443282D01*
X190118104Y-100482679D01*
X190085494Y-100497266D01*
X189964245Y-100573768D01*
X189937038Y-100596923D01*
X189842135Y-100704381D01*
X189822522Y-100734239D01*
X189761592Y-100864014D01*
X189751147Y-100898179D01*
X189729091Y-101039839D01*
X189728655Y-101075560D01*
X188363105Y-101075560D01*
X188360288Y-101007852D01*
X188371144Y-100335822D01*
X188420766Y-99665570D01*
X188508989Y-98999273D01*
X188599082Y-98529260D01*
X189734955Y-98529260D01*
X189753544Y-98671416D01*
X189763151Y-98705825D01*
X189820891Y-98837049D01*
X189839769Y-98867378D01*
X189932019Y-98977123D01*
X189958651Y-99000935D01*
X190077994Y-99080377D01*
X190110240Y-99095757D01*
X190247084Y-99138509D01*
X190282347Y-99144221D01*
X190425689Y-99146849D01*
X190461141Y-99142433D01*
X190505656Y-99130297D01*
X190494891Y-99199439D01*
X190494455Y-99235160D01*
X190513044Y-99377316D01*
X190522651Y-99411725D01*
X190580391Y-99542949D01*
X190599269Y-99573278D01*
X190691519Y-99683023D01*
X190718151Y-99706835D01*
X190837494Y-99786277D01*
X190869740Y-99801657D01*
X191006584Y-99844409D01*
X191041847Y-99850121D01*
X191185189Y-99852749D01*
X191220641Y-99848333D01*
X191358959Y-99810623D01*
X191391746Y-99796435D01*
X191513920Y-99721420D01*
X191541407Y-99698600D01*
X191637616Y-99592309D01*
X191657592Y-99562692D01*
X191720102Y-99433671D01*
X191730964Y-99399638D01*
X191754750Y-99258259D01*
X191756487Y-99238894D01*
X191756638Y-99226540D01*
X191755374Y-99207138D01*
X191735050Y-99065220D01*
X191725024Y-99030931D01*
X191665685Y-98900421D01*
X191646437Y-98870324D01*
X191552853Y-98761715D01*
X191525932Y-98738231D01*
X191405627Y-98660253D01*
X191373197Y-98645268D01*
X191235841Y-98604190D01*
X191200509Y-98598909D01*
X191057146Y-98598033D01*
X191021751Y-98602882D01*
X190984982Y-98613391D01*
X190995250Y-98552359D01*
X190996987Y-98532994D01*
X190997138Y-98520640D01*
X190995874Y-98501238D01*
X190975550Y-98359320D01*
X190965524Y-98325031D01*
X190906185Y-98194521D01*
X190886937Y-98164424D01*
X190840218Y-98110204D01*
X190867675Y-98086867D01*
X190888324Y-98018940D01*
X190868972Y-97950632D01*
X190851425Y-97928645D01*
X190448295Y-97525515D01*
X190385983Y-97491489D01*
X190315168Y-97496554D01*
X190270105Y-97525515D01*
X189866975Y-97928645D01*
X189832949Y-97990957D01*
X189838014Y-98061772D01*
X189880561Y-98118608D01*
X189882362Y-98119665D01*
X189848435Y-98158081D01*
X189828822Y-98187939D01*
X189767892Y-98317714D01*
X189757447Y-98351879D01*
X189735391Y-98493539D01*
X189734955Y-98529260D01*
X188599082Y-98529260D01*
X188635514Y-98339198D01*
X188799927Y-97687508D01*
X188940050Y-97242230D01*
X189368751Y-97242230D01*
X189368751Y-97268570D01*
X189387656Y-97448443D01*
X189393133Y-97474209D01*
X189449023Y-97646220D01*
X189459738Y-97670285D01*
X189488746Y-97720527D01*
X189540129Y-97769520D01*
X189609842Y-97782955D01*
X189675753Y-97756568D01*
X189686959Y-97746621D01*
X190089085Y-97344495D01*
X190123111Y-97282183D01*
X190119280Y-97228617D01*
X190595289Y-97228617D01*
X190600354Y-97299432D01*
X190629315Y-97344495D01*
X191031441Y-97746621D01*
X191093753Y-97780647D01*
X191164568Y-97775582D01*
X191221404Y-97733035D01*
X191229654Y-97720527D01*
X191258662Y-97670285D01*
X191269377Y-97646220D01*
X191325267Y-97474209D01*
X191330744Y-97448443D01*
X191349649Y-97268570D01*
X191349649Y-97242230D01*
X191330744Y-97062357D01*
X191325267Y-97036591D01*
X191269377Y-96864580D01*
X191258662Y-96840515D01*
X191229654Y-96790273D01*
X191178271Y-96741280D01*
X191108558Y-96727845D01*
X191042647Y-96754232D01*
X191031441Y-96764179D01*
X190629315Y-97166305D01*
X190595289Y-97228617D01*
X190119280Y-97228617D01*
X190118046Y-97211368D01*
X190089085Y-97166305D01*
X189686959Y-96764179D01*
X189624647Y-96730153D01*
X189553832Y-96735218D01*
X189496996Y-96777765D01*
X189488746Y-96790273D01*
X189459738Y-96840515D01*
X189449023Y-96864580D01*
X189393133Y-97036591D01*
X189387656Y-97062357D01*
X189368751Y-97242230D01*
X188940050Y-97242230D01*
X189001672Y-97046409D01*
X189212065Y-96491862D01*
X189830077Y-96491862D01*
X189849430Y-96560170D01*
X189866976Y-96582156D01*
X190270105Y-96985285D01*
X190332417Y-97019311D01*
X190403232Y-97014246D01*
X190448295Y-96985285D01*
X190851425Y-96582155D01*
X190885451Y-96519843D01*
X190880386Y-96449028D01*
X190837839Y-96392192D01*
X190813579Y-96377953D01*
X190677792Y-96317497D01*
X190652740Y-96309357D01*
X190475829Y-96271753D01*
X190449632Y-96269000D01*
X190268768Y-96269000D01*
X190242571Y-96271753D01*
X190065660Y-96309357D01*
X190040607Y-96317498D01*
X189904821Y-96377955D01*
X189850726Y-96423935D01*
X189830077Y-96491862D01*
X189212065Y-96491862D01*
X189240079Y-96418024D01*
X189514366Y-95804416D01*
X189823590Y-95207693D01*
X190166748Y-94629796D01*
X190542685Y-94072665D01*
X190950146Y-93538162D01*
X191387775Y-93028066D01*
X191854114Y-92544073D01*
X192347602Y-92087808D01*
X192866606Y-91660778D01*
X192999000Y-91564098D01*
X192999000Y-92926037D02*
X192999000Y-91564098D01*
G04 #@! TA.AperFunction,Conductor*
G36*
X192999000Y-92926037D02*
G01*
X192934445Y-92966768D01*
X192907238Y-92989923D01*
X192812335Y-93097381D01*
X192792722Y-93127239D01*
X192731792Y-93257014D01*
X192721347Y-93291179D01*
X192699291Y-93432839D01*
X192698855Y-93468560D01*
X192717444Y-93610716D01*
X192727051Y-93645125D01*
X192784791Y-93776349D01*
X192803669Y-93806678D01*
X192880843Y-93898487D01*
X192802335Y-93987381D01*
X192782722Y-94017239D01*
X192721792Y-94147014D01*
X192711347Y-94181179D01*
X192689291Y-94322839D01*
X192688855Y-94358560D01*
X192707444Y-94500716D01*
X192717051Y-94535125D01*
X192774791Y-94666349D01*
X192793669Y-94696678D01*
X192885919Y-94806423D01*
X192912551Y-94830235D01*
X192999000Y-94887781D01*
X192999000Y-99693709D01*
X192990685Y-99675421D01*
X192971437Y-99645324D01*
X192877853Y-99536715D01*
X192850932Y-99513231D01*
X192730627Y-99435253D01*
X192698197Y-99420268D01*
X192560841Y-99379190D01*
X192525509Y-99373909D01*
X192382146Y-99373033D01*
X192346751Y-99377882D01*
X192208904Y-99417279D01*
X192176294Y-99431866D01*
X192055045Y-99508368D01*
X192027838Y-99531523D01*
X191932935Y-99638981D01*
X191913322Y-99668839D01*
X191852392Y-99798614D01*
X191841947Y-99832779D01*
X191819891Y-99974439D01*
X191819455Y-100010160D01*
X191838044Y-100152316D01*
X191847651Y-100186725D01*
X191905391Y-100317949D01*
X191924269Y-100348278D01*
X192016519Y-100458023D01*
X192043151Y-100481835D01*
X192162494Y-100561277D01*
X192194740Y-100576657D01*
X192331584Y-100619409D01*
X192366847Y-100625121D01*
X192510189Y-100627749D01*
X192545641Y-100623333D01*
X192683959Y-100585623D01*
X192716746Y-100571435D01*
X192838920Y-100496420D01*
X192866407Y-100473600D01*
X192962616Y-100367309D01*
X192982592Y-100337692D01*
X192999000Y-100303826D01*
X192999000Y-101900000D01*
X193019002Y-101968121D01*
X193072658Y-102014614D01*
X193124403Y-102025999D01*
X198358175Y-102050804D01*
X198354647Y-104023514D01*
X198181355Y-104203512D01*
X198148518Y-104266458D01*
X198154926Y-104337165D01*
X198190637Y-104387003D01*
X198353748Y-104525309D01*
X198339703Y-112376800D01*
X198005321Y-112328534D01*
X197346773Y-112194288D01*
X196697049Y-112022253D01*
X196058366Y-111813018D01*
X195432801Y-111567265D01*
X195092107Y-111410160D01*
X196269455Y-111410160D01*
X196288044Y-111552316D01*
X196297651Y-111586725D01*
X196355391Y-111717949D01*
X196374269Y-111748278D01*
X196466519Y-111858023D01*
X196493151Y-111881835D01*
X196612494Y-111961277D01*
X196644740Y-111976657D01*
X196781584Y-112019409D01*
X196816847Y-112025121D01*
X196960189Y-112027749D01*
X196995641Y-112023333D01*
X197133959Y-111985623D01*
X197166746Y-111971435D01*
X197288920Y-111896420D01*
X197316407Y-111873600D01*
X197412616Y-111767309D01*
X197432592Y-111737692D01*
X197495102Y-111608671D01*
X197505964Y-111574638D01*
X197529750Y-111433259D01*
X197531487Y-111413894D01*
X197531638Y-111401540D01*
X197530374Y-111382138D01*
X197510050Y-111240220D01*
X197500024Y-111205931D01*
X197440685Y-111075421D01*
X197421437Y-111045324D01*
X197327853Y-110936715D01*
X197300932Y-110913231D01*
X197180627Y-110835253D01*
X197148197Y-110820268D01*
X197010841Y-110779190D01*
X196975509Y-110773909D01*
X196832146Y-110773033D01*
X196796751Y-110777882D01*
X196658904Y-110817279D01*
X196626294Y-110831866D01*
X196505045Y-110908368D01*
X196477838Y-110931523D01*
X196382935Y-111038981D01*
X196363322Y-111068839D01*
X196302392Y-111198614D01*
X196291947Y-111232779D01*
X196269891Y-111374439D01*
X196269455Y-111410160D01*
X195092107Y-111410160D01*
X194822458Y-111285816D01*
X194229383Y-110969616D01*
X193655563Y-110619727D01*
X193102864Y-110237286D01*
X192573177Y-109823599D01*
X192068228Y-109380016D01*
X191589730Y-108908041D01*
X191139272Y-108409241D01*
X190718360Y-107885287D01*
X190328363Y-107337879D01*
X189970633Y-106768916D01*
X189646318Y-106180225D01*
X189636376Y-106159421D01*
X194393112Y-106159421D01*
X194393112Y-106203181D01*
X194411514Y-106307544D01*
X194426481Y-106348664D01*
X194479467Y-106440439D01*
X194507595Y-106473961D01*
X194588775Y-106542079D01*
X194626672Y-106563959D01*
X194726254Y-106600203D01*
X194769348Y-106607801D01*
X194875320Y-106607801D01*
X194918414Y-106600203D01*
X195017996Y-106563959D01*
X195055893Y-106542079D01*
X195137073Y-106473961D01*
X195165201Y-106440439D01*
X195218187Y-106348664D01*
X195233154Y-106307544D01*
X195251556Y-106203181D01*
X195251556Y-106159421D01*
X195233154Y-106055058D01*
X195218187Y-106013938D01*
X195165201Y-105922163D01*
X195137073Y-105888641D01*
X195055893Y-105820523D01*
X195017996Y-105798643D01*
X194918414Y-105762399D01*
X194875320Y-105754801D01*
X194769348Y-105754801D01*
X194726254Y-105762399D01*
X194626672Y-105798643D01*
X194588775Y-105820523D01*
X194507595Y-105888641D01*
X194479467Y-105922163D01*
X194426481Y-106013938D01*
X194411514Y-106055058D01*
X194393112Y-106159421D01*
X189636376Y-106159421D01*
X189356527Y-105573819D01*
X189306858Y-105452314D01*
X193686006Y-105452314D01*
X193686006Y-105496074D01*
X193704408Y-105600437D01*
X193719375Y-105641557D01*
X193772361Y-105733332D01*
X193800489Y-105766854D01*
X193881669Y-105834972D01*
X193919566Y-105856852D01*
X194019148Y-105893096D01*
X194062242Y-105900694D01*
X194168214Y-105900694D01*
X194211308Y-105893096D01*
X194310890Y-105856852D01*
X194348787Y-105834972D01*
X194429967Y-105766854D01*
X194458095Y-105733332D01*
X194511081Y-105641557D01*
X194526048Y-105600437D01*
X194544450Y-105496074D01*
X194544450Y-105452314D01*
X195100219Y-105452314D01*
X195100219Y-105496074D01*
X195118621Y-105600437D01*
X195133588Y-105641557D01*
X195186574Y-105733332D01*
X195214702Y-105766854D01*
X195295882Y-105834972D01*
X195333779Y-105856852D01*
X195433361Y-105893096D01*
X195476455Y-105900694D01*
X195582427Y-105900694D01*
X195625521Y-105893096D01*
X195725103Y-105856852D01*
X195763000Y-105834972D01*
X195844180Y-105766854D01*
X195872308Y-105733332D01*
X195925294Y-105641557D01*
X195940261Y-105600437D01*
X195958663Y-105496074D01*
X195958663Y-105452314D01*
X195940261Y-105347951D01*
X195925294Y-105306831D01*
X195872308Y-105215056D01*
X195844180Y-105181534D01*
X195763000Y-105113416D01*
X195725103Y-105091536D01*
X195625521Y-105055292D01*
X195582427Y-105047694D01*
X195476455Y-105047694D01*
X195433361Y-105055292D01*
X195333779Y-105091536D01*
X195295882Y-105113416D01*
X195214702Y-105181534D01*
X195186574Y-105215056D01*
X195133588Y-105306831D01*
X195118621Y-105347951D01*
X195100219Y-105452314D01*
X194544450Y-105452314D01*
X194526048Y-105347951D01*
X194511081Y-105306831D01*
X194458095Y-105215056D01*
X194429967Y-105181534D01*
X194348787Y-105113416D01*
X194310890Y-105091536D01*
X194211308Y-105055292D01*
X194168214Y-105047694D01*
X194062242Y-105047694D01*
X194019148Y-105055292D01*
X193919566Y-105091536D01*
X193881669Y-105113416D01*
X193800489Y-105181534D01*
X193772361Y-105215056D01*
X193719375Y-105306831D01*
X193704408Y-105347951D01*
X193686006Y-105452314D01*
X189306858Y-105452314D01*
X189102210Y-104951681D01*
X189031416Y-104745207D01*
X192978899Y-104745207D01*
X192978899Y-104788967D01*
X192997301Y-104893330D01*
X193012268Y-104934450D01*
X193065254Y-105026225D01*
X193093382Y-105059747D01*
X193174562Y-105127865D01*
X193212459Y-105149745D01*
X193312041Y-105185989D01*
X193355135Y-105193587D01*
X193461107Y-105193587D01*
X193504201Y-105185989D01*
X193603783Y-105149745D01*
X193641680Y-105127865D01*
X193722860Y-105059747D01*
X193750988Y-105026225D01*
X193803974Y-104934450D01*
X193818941Y-104893330D01*
X193837343Y-104788967D01*
X193837343Y-104745207D01*
X194393112Y-104745207D01*
X194393112Y-104788967D01*
X194411514Y-104893330D01*
X194426481Y-104934450D01*
X194479467Y-105026225D01*
X194507595Y-105059747D01*
X194588775Y-105127865D01*
X194626672Y-105149745D01*
X194726254Y-105185989D01*
X194769348Y-105193587D01*
X194875320Y-105193587D01*
X194918414Y-105185989D01*
X195017996Y-105149745D01*
X195055893Y-105127865D01*
X195137073Y-105059747D01*
X195165201Y-105026225D01*
X195218187Y-104934450D01*
X195233154Y-104893330D01*
X195251556Y-104788967D01*
X195251556Y-104745207D01*
X195807326Y-104745207D01*
X195807326Y-104788967D01*
X195825728Y-104893330D01*
X195840695Y-104934450D01*
X195893681Y-105026225D01*
X195921809Y-105059747D01*
X196002989Y-105127865D01*
X196040886Y-105149745D01*
X196140468Y-105185989D01*
X196183562Y-105193587D01*
X196289534Y-105193587D01*
X196332628Y-105185989D01*
X196432210Y-105149745D01*
X196470107Y-105127865D01*
X196551287Y-105059747D01*
X196579415Y-105026225D01*
X196632401Y-104934450D01*
X196647368Y-104893330D01*
X196665770Y-104788967D01*
X196665770Y-104745207D01*
X196647368Y-104640844D01*
X196632401Y-104599724D01*
X196579415Y-104507949D01*
X196551287Y-104474427D01*
X196470107Y-104406309D01*
X196432210Y-104384429D01*
X196332628Y-104348185D01*
X196289534Y-104340587D01*
X196183562Y-104340587D01*
X196140468Y-104348185D01*
X196040886Y-104384429D01*
X196002989Y-104406309D01*
X195921809Y-104474427D01*
X195893681Y-104507949D01*
X195840695Y-104599724D01*
X195825728Y-104640844D01*
X195807326Y-104745207D01*
X195251556Y-104745207D01*
X195233154Y-104640844D01*
X195218187Y-104599724D01*
X195165201Y-104507949D01*
X195137073Y-104474427D01*
X195055893Y-104406309D01*
X195017996Y-104384429D01*
X194918414Y-104348185D01*
X194875320Y-104340587D01*
X194769348Y-104340587D01*
X194726254Y-104348185D01*
X194626672Y-104384429D01*
X194588775Y-104406309D01*
X194507595Y-104474427D01*
X194479467Y-104507949D01*
X194426481Y-104599724D01*
X194411514Y-104640844D01*
X194393112Y-104745207D01*
X193837343Y-104745207D01*
X193818941Y-104640844D01*
X193803974Y-104599724D01*
X193750988Y-104507949D01*
X193722860Y-104474427D01*
X193641680Y-104406309D01*
X193603783Y-104384429D01*
X193504201Y-104348185D01*
X193461107Y-104340587D01*
X193355135Y-104340587D01*
X193312041Y-104348185D01*
X193212459Y-104384429D01*
X193174562Y-104406309D01*
X193093382Y-104474427D01*
X193065254Y-104507949D01*
X193012268Y-104599724D01*
X192997301Y-104640844D01*
X192978899Y-104745207D01*
X189031416Y-104745207D01*
X188884226Y-104315919D01*
X188703294Y-103668626D01*
X188685911Y-103588954D01*
X189676607Y-103588954D01*
X189676607Y-103621846D01*
X189695609Y-103766182D01*
X189704122Y-103797955D01*
X189759834Y-103932454D01*
X189776280Y-103960939D01*
X189864904Y-104076437D01*
X189888163Y-104099696D01*
X190003660Y-104188320D01*
X190032146Y-104204766D01*
X190166646Y-104260478D01*
X190198418Y-104268991D01*
X190342754Y-104287993D01*
X190375646Y-104287993D01*
X190519982Y-104268991D01*
X190551754Y-104260478D01*
X190686254Y-104204766D01*
X190714740Y-104188320D01*
X190830237Y-104099696D01*
X190853496Y-104076437D01*
X190882912Y-104038101D01*
X193686006Y-104038101D01*
X193686006Y-104081861D01*
X193704408Y-104186224D01*
X193719375Y-104227344D01*
X193772361Y-104319119D01*
X193800489Y-104352641D01*
X193881669Y-104420759D01*
X193919566Y-104442639D01*
X194019148Y-104478883D01*
X194062242Y-104486481D01*
X194168214Y-104486481D01*
X194211308Y-104478883D01*
X194310890Y-104442639D01*
X194348787Y-104420759D01*
X194429967Y-104352641D01*
X194458095Y-104319119D01*
X194511081Y-104227344D01*
X194526048Y-104186224D01*
X194544450Y-104081861D01*
X194544450Y-104038101D01*
X195100219Y-104038101D01*
X195100219Y-104081861D01*
X195118621Y-104186224D01*
X195133588Y-104227344D01*
X195186574Y-104319119D01*
X195214702Y-104352641D01*
X195295882Y-104420759D01*
X195333779Y-104442639D01*
X195433361Y-104478883D01*
X195476455Y-104486481D01*
X195582427Y-104486481D01*
X195625521Y-104478883D01*
X195725103Y-104442639D01*
X195763000Y-104420759D01*
X195844180Y-104352641D01*
X195872308Y-104319119D01*
X195925294Y-104227344D01*
X195940261Y-104186224D01*
X195958663Y-104081861D01*
X195958663Y-104038101D01*
X195940261Y-103933738D01*
X195925294Y-103892618D01*
X195872308Y-103800843D01*
X195844180Y-103767321D01*
X195763000Y-103699203D01*
X195725103Y-103677323D01*
X195625521Y-103641079D01*
X195582427Y-103633481D01*
X195476455Y-103633481D01*
X195433361Y-103641079D01*
X195333779Y-103677323D01*
X195295882Y-103699203D01*
X195214702Y-103767321D01*
X195186574Y-103800843D01*
X195133588Y-103892618D01*
X195118621Y-103933738D01*
X195100219Y-104038101D01*
X194544450Y-104038101D01*
X194526048Y-103933738D01*
X194511081Y-103892618D01*
X194458095Y-103800843D01*
X194429967Y-103767321D01*
X194348787Y-103699203D01*
X194310890Y-103677323D01*
X194211308Y-103641079D01*
X194168214Y-103633481D01*
X194062242Y-103633481D01*
X194019148Y-103641079D01*
X193919566Y-103677323D01*
X193881669Y-103699203D01*
X193800489Y-103767321D01*
X193772361Y-103800843D01*
X193719375Y-103892618D01*
X193704408Y-103933738D01*
X193686006Y-104038101D01*
X190882912Y-104038101D01*
X190942120Y-103960939D01*
X190958566Y-103932454D01*
X191014278Y-103797955D01*
X191022791Y-103766182D01*
X191041793Y-103621846D01*
X191041793Y-103588954D01*
X191022791Y-103444618D01*
X191014278Y-103412845D01*
X190980374Y-103330994D01*
X194393112Y-103330994D01*
X194393112Y-103374754D01*
X194411514Y-103479117D01*
X194426481Y-103520237D01*
X194479467Y-103612012D01*
X194507595Y-103645534D01*
X194588775Y-103713652D01*
X194626672Y-103735532D01*
X194726254Y-103771776D01*
X194769348Y-103779374D01*
X194875320Y-103779374D01*
X194918414Y-103771776D01*
X195017996Y-103735532D01*
X195055893Y-103713652D01*
X195137073Y-103645534D01*
X195165201Y-103612012D01*
X195218187Y-103520237D01*
X195233154Y-103479117D01*
X195251556Y-103374754D01*
X195251556Y-103330994D01*
X195233154Y-103226631D01*
X195218187Y-103185511D01*
X195165201Y-103093736D01*
X195137073Y-103060214D01*
X195055893Y-102992096D01*
X195017996Y-102970216D01*
X194918414Y-102933972D01*
X194875320Y-102926374D01*
X194769348Y-102926374D01*
X194726254Y-102933972D01*
X194626672Y-102970216D01*
X194588775Y-102992096D01*
X194507595Y-103060214D01*
X194479467Y-103093736D01*
X194426481Y-103185511D01*
X194411514Y-103226631D01*
X194393112Y-103330994D01*
X190980374Y-103330994D01*
X190958566Y-103278346D01*
X190942120Y-103249861D01*
X190853496Y-103134363D01*
X190830237Y-103111104D01*
X190714740Y-103022480D01*
X190686254Y-103006034D01*
X190551754Y-102950322D01*
X190519982Y-102941809D01*
X190375646Y-102922807D01*
X190342754Y-102922807D01*
X190198418Y-102941809D01*
X190166645Y-102950322D01*
X190032146Y-103006034D01*
X190003661Y-103022480D01*
X189888163Y-103111104D01*
X189864904Y-103134363D01*
X189776280Y-103249861D01*
X189759834Y-103278346D01*
X189704122Y-103412845D01*
X189695609Y-103444618D01*
X189676607Y-103588954D01*
X188685911Y-103588954D01*
X188560021Y-103011975D01*
X188454883Y-102348149D01*
X188388231Y-101679361D01*
X188363105Y-101075560D01*
X189728655Y-101075560D01*
X189747244Y-101217716D01*
X189756851Y-101252125D01*
X189814591Y-101383349D01*
X189833469Y-101413678D01*
X189925719Y-101523423D01*
X189952351Y-101547235D01*
X190071694Y-101626677D01*
X190103940Y-101642057D01*
X190240784Y-101684809D01*
X190276047Y-101690521D01*
X190419389Y-101693149D01*
X190454841Y-101688733D01*
X190593159Y-101651023D01*
X190625946Y-101636835D01*
X190748120Y-101561820D01*
X190775607Y-101539000D01*
X190871816Y-101432709D01*
X190891792Y-101403092D01*
X190954302Y-101274071D01*
X190965164Y-101240038D01*
X190988950Y-101098659D01*
X190990687Y-101079294D01*
X190990838Y-101066940D01*
X190989574Y-101047538D01*
X190969250Y-100905620D01*
X190959224Y-100871331D01*
X190899885Y-100740821D01*
X190880637Y-100710724D01*
X190787053Y-100602115D01*
X190760132Y-100578631D01*
X190639827Y-100500653D01*
X190607397Y-100485668D01*
X190470041Y-100444590D01*
X190434709Y-100439309D01*
X190291346Y-100438433D01*
X190255951Y-100443282D01*
X190118104Y-100482679D01*
X190085494Y-100497266D01*
X189964245Y-100573768D01*
X189937038Y-100596923D01*
X189842135Y-100704381D01*
X189822522Y-100734239D01*
X189761592Y-100864014D01*
X189751147Y-100898179D01*
X189729091Y-101039839D01*
X189728655Y-101075560D01*
X188363105Y-101075560D01*
X188360288Y-101007852D01*
X188371144Y-100335822D01*
X188420766Y-99665570D01*
X188508989Y-98999273D01*
X188599082Y-98529260D01*
X189734955Y-98529260D01*
X189753544Y-98671416D01*
X189763151Y-98705825D01*
X189820891Y-98837049D01*
X189839769Y-98867378D01*
X189932019Y-98977123D01*
X189958651Y-99000935D01*
X190077994Y-99080377D01*
X190110240Y-99095757D01*
X190247084Y-99138509D01*
X190282347Y-99144221D01*
X190425689Y-99146849D01*
X190461141Y-99142433D01*
X190505656Y-99130297D01*
X190494891Y-99199439D01*
X190494455Y-99235160D01*
X190513044Y-99377316D01*
X190522651Y-99411725D01*
X190580391Y-99542949D01*
X190599269Y-99573278D01*
X190691519Y-99683023D01*
X190718151Y-99706835D01*
X190837494Y-99786277D01*
X190869740Y-99801657D01*
X191006584Y-99844409D01*
X191041847Y-99850121D01*
X191185189Y-99852749D01*
X191220641Y-99848333D01*
X191358959Y-99810623D01*
X191391746Y-99796435D01*
X191513920Y-99721420D01*
X191541407Y-99698600D01*
X191637616Y-99592309D01*
X191657592Y-99562692D01*
X191720102Y-99433671D01*
X191730964Y-99399638D01*
X191754750Y-99258259D01*
X191756487Y-99238894D01*
X191756638Y-99226540D01*
X191755374Y-99207138D01*
X191735050Y-99065220D01*
X191725024Y-99030931D01*
X191665685Y-98900421D01*
X191646437Y-98870324D01*
X191552853Y-98761715D01*
X191525932Y-98738231D01*
X191405627Y-98660253D01*
X191373197Y-98645268D01*
X191235841Y-98604190D01*
X191200509Y-98598909D01*
X191057146Y-98598033D01*
X191021751Y-98602882D01*
X190984982Y-98613391D01*
X190995250Y-98552359D01*
X190996987Y-98532994D01*
X190997138Y-98520640D01*
X190995874Y-98501238D01*
X190975550Y-98359320D01*
X190965524Y-98325031D01*
X190906185Y-98194521D01*
X190886937Y-98164424D01*
X190840218Y-98110204D01*
X190867675Y-98086867D01*
X190888324Y-98018940D01*
X190868972Y-97950632D01*
X190851425Y-97928645D01*
X190448295Y-97525515D01*
X190385983Y-97491489D01*
X190315168Y-97496554D01*
X190270105Y-97525515D01*
X189866975Y-97928645D01*
X189832949Y-97990957D01*
X189838014Y-98061772D01*
X189880561Y-98118608D01*
X189882362Y-98119665D01*
X189848435Y-98158081D01*
X189828822Y-98187939D01*
X189767892Y-98317714D01*
X189757447Y-98351879D01*
X189735391Y-98493539D01*
X189734955Y-98529260D01*
X188599082Y-98529260D01*
X188635514Y-98339198D01*
X188799927Y-97687508D01*
X188940050Y-97242230D01*
X189368751Y-97242230D01*
X189368751Y-97268570D01*
X189387656Y-97448443D01*
X189393133Y-97474209D01*
X189449023Y-97646220D01*
X189459738Y-97670285D01*
X189488746Y-97720527D01*
X189540129Y-97769520D01*
X189609842Y-97782955D01*
X189675753Y-97756568D01*
X189686959Y-97746621D01*
X190089085Y-97344495D01*
X190123111Y-97282183D01*
X190119280Y-97228617D01*
X190595289Y-97228617D01*
X190600354Y-97299432D01*
X190629315Y-97344495D01*
X191031441Y-97746621D01*
X191093753Y-97780647D01*
X191164568Y-97775582D01*
X191221404Y-97733035D01*
X191229654Y-97720527D01*
X191258662Y-97670285D01*
X191269377Y-97646220D01*
X191325267Y-97474209D01*
X191330744Y-97448443D01*
X191349649Y-97268570D01*
X191349649Y-97242230D01*
X191330744Y-97062357D01*
X191325267Y-97036591D01*
X191269377Y-96864580D01*
X191258662Y-96840515D01*
X191229654Y-96790273D01*
X191178271Y-96741280D01*
X191108558Y-96727845D01*
X191042647Y-96754232D01*
X191031441Y-96764179D01*
X190629315Y-97166305D01*
X190595289Y-97228617D01*
X190119280Y-97228617D01*
X190118046Y-97211368D01*
X190089085Y-97166305D01*
X189686959Y-96764179D01*
X189624647Y-96730153D01*
X189553832Y-96735218D01*
X189496996Y-96777765D01*
X189488746Y-96790273D01*
X189459738Y-96840515D01*
X189449023Y-96864580D01*
X189393133Y-97036591D01*
X189387656Y-97062357D01*
X189368751Y-97242230D01*
X188940050Y-97242230D01*
X189001672Y-97046409D01*
X189212065Y-96491862D01*
X189830077Y-96491862D01*
X189849430Y-96560170D01*
X189866976Y-96582156D01*
X190270105Y-96985285D01*
X190332417Y-97019311D01*
X190403232Y-97014246D01*
X190448295Y-96985285D01*
X190851425Y-96582155D01*
X190885451Y-96519843D01*
X190880386Y-96449028D01*
X190837839Y-96392192D01*
X190813579Y-96377953D01*
X190677792Y-96317497D01*
X190652740Y-96309357D01*
X190475829Y-96271753D01*
X190449632Y-96269000D01*
X190268768Y-96269000D01*
X190242571Y-96271753D01*
X190065660Y-96309357D01*
X190040607Y-96317498D01*
X189904821Y-96377955D01*
X189850726Y-96423935D01*
X189830077Y-96491862D01*
X189212065Y-96491862D01*
X189240079Y-96418024D01*
X189514366Y-95804416D01*
X189823590Y-95207693D01*
X190166748Y-94629796D01*
X190542685Y-94072665D01*
X190950146Y-93538162D01*
X191387775Y-93028066D01*
X191854114Y-92544073D01*
X192347602Y-92087808D01*
X192866606Y-91660778D01*
X192999000Y-91564098D01*
X192999000Y-92926037D01*
G37*
G04 #@! TD.AperFunction*
M02*
