G04 #@! TF.GenerationSoftware,KiCad,Pcbnew,(5.99.0-417-g8bd2765f3)*
G04 #@! TF.CreationDate,2020-07-21T00:47:38-04:00*
G04 #@! TF.ProjectId,bias,62696173-2e6b-4696-9361-645f70636258,rev?*
G04 #@! TF.SameCoordinates,Original*
G04 #@! TF.FileFunction,Soldermask,Top*
G04 #@! TF.FilePolarity,Negative*
%FSLAX46Y46*%
G04 Gerber Fmt 4.6, Leading zero omitted, Abs format (unit mm)*
G04 Created by KiCad (PCBNEW (5.99.0-417-g8bd2765f3)) date 2020-07-21 00:47:38*
%MOMM*%
%LPD*%
G04 APERTURE LIST*
%ADD10R,0.700000X0.700000*%
%ADD11C,0.704800*%
%ADD12C,0.400000*%
%ADD13R,0.850000X0.300000*%
%ADD14R,0.300000X0.850000*%
%ADD15R,1.550000X1.550000*%
%ADD16C,0.600000*%
%ADD17O,1.700000X1.200000*%
%ADD18R,0.270000X1.150000*%
%ADD19R,1.400000X0.300000*%
%ADD20R,1.700000X1.700000*%
%ADD21O,1.700000X1.700000*%
%ADD22R,0.800000X1.600000*%
%ADD23R,0.729800X0.248400*%
G04 APERTURE END LIST*
G36*
X199098146Y-105706628D02*
G01*
X199145998Y-105738602D01*
X199177972Y-105786454D01*
X199189200Y-105842900D01*
X199189200Y-106137900D01*
X199177972Y-106194346D01*
X199145998Y-106242198D01*
X199098146Y-106274172D01*
X199041700Y-106285400D01*
X198696700Y-106285400D01*
X198640254Y-106274172D01*
X198592402Y-106242198D01*
X198560428Y-106194346D01*
X198549200Y-106137900D01*
X198549200Y-105842900D01*
X198560428Y-105786454D01*
X198592402Y-105738602D01*
X198640254Y-105706628D01*
X198696700Y-105695400D01*
X199041700Y-105695400D01*
X199098146Y-105706628D01*
G37*
G36*
X199098146Y-106676628D02*
G01*
X199145998Y-106708602D01*
X199177972Y-106756454D01*
X199189200Y-106812900D01*
X199189200Y-107107900D01*
X199177972Y-107164346D01*
X199145998Y-107212198D01*
X199098146Y-107244172D01*
X199041700Y-107255400D01*
X198696700Y-107255400D01*
X198640254Y-107244172D01*
X198592402Y-107212198D01*
X198560428Y-107164346D01*
X198549200Y-107107900D01*
X198549200Y-106812900D01*
X198560428Y-106756454D01*
X198592402Y-106708602D01*
X198640254Y-106676628D01*
X198696700Y-106665400D01*
X199041700Y-106665400D01*
X199098146Y-106676628D01*
G37*
G36*
X195218946Y-92041228D02*
G01*
X195266798Y-92073202D01*
X195298772Y-92121054D01*
X195310000Y-92177500D01*
X195310000Y-92522500D01*
X195298772Y-92578946D01*
X195266798Y-92626798D01*
X195218946Y-92658772D01*
X195162500Y-92670000D01*
X194867500Y-92670000D01*
X194811054Y-92658772D01*
X194763202Y-92626798D01*
X194731228Y-92578946D01*
X194720000Y-92522500D01*
X194720000Y-92177500D01*
X194731228Y-92121054D01*
X194763202Y-92073202D01*
X194811054Y-92041228D01*
X194867500Y-92030000D01*
X195162500Y-92030000D01*
X195218946Y-92041228D01*
G37*
G36*
X196188946Y-92041228D02*
G01*
X196236798Y-92073202D01*
X196268772Y-92121054D01*
X196280000Y-92177500D01*
X196280000Y-92522500D01*
X196268772Y-92578946D01*
X196236798Y-92626798D01*
X196188946Y-92658772D01*
X196132500Y-92670000D01*
X195837500Y-92670000D01*
X195781054Y-92658772D01*
X195733202Y-92626798D01*
X195701228Y-92578946D01*
X195690000Y-92522500D01*
X195690000Y-92177500D01*
X195701228Y-92121054D01*
X195733202Y-92073202D01*
X195781054Y-92041228D01*
X195837500Y-92030000D01*
X196132500Y-92030000D01*
X196188946Y-92041228D01*
G37*
G36*
X198123146Y-101091628D02*
G01*
X198170998Y-101123602D01*
X198202972Y-101171454D01*
X198214200Y-101227900D01*
X198214200Y-101572900D01*
X198202972Y-101629346D01*
X198170998Y-101677198D01*
X198123146Y-101709172D01*
X198066700Y-101720400D01*
X197771700Y-101720400D01*
X197715254Y-101709172D01*
X197667402Y-101677198D01*
X197635428Y-101629346D01*
X197624200Y-101572900D01*
X197624200Y-101227900D01*
X197635428Y-101171454D01*
X197667402Y-101123602D01*
X197715254Y-101091628D01*
X197771700Y-101080400D01*
X198066700Y-101080400D01*
X198123146Y-101091628D01*
G37*
G36*
X199093146Y-101091628D02*
G01*
X199140998Y-101123602D01*
X199172972Y-101171454D01*
X199184200Y-101227900D01*
X199184200Y-101572900D01*
X199172972Y-101629346D01*
X199140998Y-101677198D01*
X199093146Y-101709172D01*
X199036700Y-101720400D01*
X198741700Y-101720400D01*
X198685254Y-101709172D01*
X198637402Y-101677198D01*
X198605428Y-101629346D01*
X198594200Y-101572900D01*
X198594200Y-101227900D01*
X198605428Y-101171454D01*
X198637402Y-101123602D01*
X198685254Y-101091628D01*
X198741700Y-101080400D01*
X199036700Y-101080400D01*
X199093146Y-101091628D01*
G37*
G36*
X197788146Y-107666628D02*
G01*
X197835998Y-107698602D01*
X197867972Y-107746454D01*
X197879200Y-107802900D01*
X197879200Y-108147900D01*
X197867972Y-108204346D01*
X197835998Y-108252198D01*
X197788146Y-108284172D01*
X197731700Y-108295400D01*
X197436700Y-108295400D01*
X197380254Y-108284172D01*
X197332402Y-108252198D01*
X197300428Y-108204346D01*
X197289200Y-108147900D01*
X197289200Y-107802900D01*
X197300428Y-107746454D01*
X197332402Y-107698602D01*
X197380254Y-107666628D01*
X197436700Y-107655400D01*
X197731700Y-107655400D01*
X197788146Y-107666628D01*
G37*
G36*
X198758146Y-107666628D02*
G01*
X198805998Y-107698602D01*
X198837972Y-107746454D01*
X198849200Y-107802900D01*
X198849200Y-108147900D01*
X198837972Y-108204346D01*
X198805998Y-108252198D01*
X198758146Y-108284172D01*
X198701700Y-108295400D01*
X198406700Y-108295400D01*
X198350254Y-108284172D01*
X198302402Y-108252198D01*
X198270428Y-108204346D01*
X198259200Y-108147900D01*
X198259200Y-107802900D01*
X198270428Y-107746454D01*
X198302402Y-107698602D01*
X198350254Y-107666628D01*
X198406700Y-107655400D01*
X198701700Y-107655400D01*
X198758146Y-107666628D01*
G37*
G36*
X209698146Y-104691628D02*
G01*
X209745998Y-104723602D01*
X209777972Y-104771454D01*
X209789200Y-104827900D01*
X209789200Y-105172900D01*
X209777972Y-105229346D01*
X209745998Y-105277198D01*
X209698146Y-105309172D01*
X209641700Y-105320400D01*
X209346700Y-105320400D01*
X209290254Y-105309172D01*
X209242402Y-105277198D01*
X209210428Y-105229346D01*
X209199200Y-105172900D01*
X209199200Y-104827900D01*
X209210428Y-104771454D01*
X209242402Y-104723602D01*
X209290254Y-104691628D01*
X209346700Y-104680400D01*
X209641700Y-104680400D01*
X209698146Y-104691628D01*
G37*
G36*
X208728146Y-104691628D02*
G01*
X208775998Y-104723602D01*
X208807972Y-104771454D01*
X208819200Y-104827900D01*
X208819200Y-105172900D01*
X208807972Y-105229346D01*
X208775998Y-105277198D01*
X208728146Y-105309172D01*
X208671700Y-105320400D01*
X208376700Y-105320400D01*
X208320254Y-105309172D01*
X208272402Y-105277198D01*
X208240428Y-105229346D01*
X208229200Y-105172900D01*
X208229200Y-104827900D01*
X208240428Y-104771454D01*
X208272402Y-104723602D01*
X208320254Y-104691628D01*
X208376700Y-104680400D01*
X208671700Y-104680400D01*
X208728146Y-104691628D01*
G37*
G36*
X208608146Y-106591628D02*
G01*
X208655998Y-106623602D01*
X208687972Y-106671454D01*
X208699200Y-106727900D01*
X208699200Y-107022900D01*
X208687972Y-107079346D01*
X208655998Y-107127198D01*
X208608146Y-107159172D01*
X208551700Y-107170400D01*
X208206700Y-107170400D01*
X208150254Y-107159172D01*
X208102402Y-107127198D01*
X208070428Y-107079346D01*
X208059200Y-107022900D01*
X208059200Y-106727900D01*
X208070428Y-106671454D01*
X208102402Y-106623602D01*
X208150254Y-106591628D01*
X208206700Y-106580400D01*
X208551700Y-106580400D01*
X208608146Y-106591628D01*
G37*
G36*
X208608146Y-105621628D02*
G01*
X208655998Y-105653602D01*
X208687972Y-105701454D01*
X208699200Y-105757900D01*
X208699200Y-106052900D01*
X208687972Y-106109346D01*
X208655998Y-106157198D01*
X208608146Y-106189172D01*
X208551700Y-106200400D01*
X208206700Y-106200400D01*
X208150254Y-106189172D01*
X208102402Y-106157198D01*
X208070428Y-106109346D01*
X208059200Y-106052900D01*
X208059200Y-105757900D01*
X208070428Y-105701454D01*
X208102402Y-105653602D01*
X208150254Y-105621628D01*
X208206700Y-105610400D01*
X208551700Y-105610400D01*
X208608146Y-105621628D01*
G37*
G36*
X207548146Y-105701628D02*
G01*
X207595998Y-105733602D01*
X207627972Y-105781454D01*
X207639200Y-105837900D01*
X207639200Y-106132900D01*
X207627972Y-106189346D01*
X207595998Y-106237198D01*
X207548146Y-106269172D01*
X207491700Y-106280400D01*
X207146700Y-106280400D01*
X207090254Y-106269172D01*
X207042402Y-106237198D01*
X207010428Y-106189346D01*
X206999200Y-106132900D01*
X206999200Y-105837900D01*
X207010428Y-105781454D01*
X207042402Y-105733602D01*
X207090254Y-105701628D01*
X207146700Y-105690400D01*
X207491700Y-105690400D01*
X207548146Y-105701628D01*
G37*
G36*
X207548146Y-104731628D02*
G01*
X207595998Y-104763602D01*
X207627972Y-104811454D01*
X207639200Y-104867900D01*
X207639200Y-105162900D01*
X207627972Y-105219346D01*
X207595998Y-105267198D01*
X207548146Y-105299172D01*
X207491700Y-105310400D01*
X207146700Y-105310400D01*
X207090254Y-105299172D01*
X207042402Y-105267198D01*
X207010428Y-105219346D01*
X206999200Y-105162900D01*
X206999200Y-104867900D01*
X207010428Y-104811454D01*
X207042402Y-104763602D01*
X207090254Y-104731628D01*
X207146700Y-104720400D01*
X207491700Y-104720400D01*
X207548146Y-104731628D01*
G37*
G36*
X203813146Y-101341628D02*
G01*
X203860998Y-101373602D01*
X203892972Y-101421454D01*
X203904200Y-101477900D01*
X203904200Y-101822900D01*
X203892972Y-101879346D01*
X203860998Y-101927198D01*
X203813146Y-101959172D01*
X203756700Y-101970400D01*
X203461700Y-101970400D01*
X203405254Y-101959172D01*
X203357402Y-101927198D01*
X203325428Y-101879346D01*
X203314200Y-101822900D01*
X203314200Y-101477900D01*
X203325428Y-101421454D01*
X203357402Y-101373602D01*
X203405254Y-101341628D01*
X203461700Y-101330400D01*
X203756700Y-101330400D01*
X203813146Y-101341628D01*
G37*
G36*
X204783146Y-101341628D02*
G01*
X204830998Y-101373602D01*
X204862972Y-101421454D01*
X204874200Y-101477900D01*
X204874200Y-101822900D01*
X204862972Y-101879346D01*
X204830998Y-101927198D01*
X204783146Y-101959172D01*
X204726700Y-101970400D01*
X204431700Y-101970400D01*
X204375254Y-101959172D01*
X204327402Y-101927198D01*
X204295428Y-101879346D01*
X204284200Y-101822900D01*
X204284200Y-101477900D01*
X204295428Y-101421454D01*
X204327402Y-101373602D01*
X204375254Y-101341628D01*
X204431700Y-101330400D01*
X204726700Y-101330400D01*
X204783146Y-101341628D01*
G37*
G36*
X200298146Y-107461628D02*
G01*
X200345998Y-107493602D01*
X200377972Y-107541454D01*
X200389200Y-107597900D01*
X200389200Y-107942900D01*
X200377972Y-107999346D01*
X200345998Y-108047198D01*
X200298146Y-108079172D01*
X200241700Y-108090400D01*
X199946700Y-108090400D01*
X199890254Y-108079172D01*
X199842402Y-108047198D01*
X199810428Y-107999346D01*
X199799200Y-107942900D01*
X199799200Y-107597900D01*
X199810428Y-107541454D01*
X199842402Y-107493602D01*
X199890254Y-107461628D01*
X199946700Y-107450400D01*
X200241700Y-107450400D01*
X200298146Y-107461628D01*
G37*
G36*
X201268146Y-107461628D02*
G01*
X201315998Y-107493602D01*
X201347972Y-107541454D01*
X201359200Y-107597900D01*
X201359200Y-107942900D01*
X201347972Y-107999346D01*
X201315998Y-108047198D01*
X201268146Y-108079172D01*
X201211700Y-108090400D01*
X200916700Y-108090400D01*
X200860254Y-108079172D01*
X200812402Y-108047198D01*
X200780428Y-107999346D01*
X200769200Y-107942900D01*
X200769200Y-107597900D01*
X200780428Y-107541454D01*
X200812402Y-107493602D01*
X200860254Y-107461628D01*
X200916700Y-107450400D01*
X201211700Y-107450400D01*
X201268146Y-107461628D01*
G37*
G36*
X195248146Y-109063628D02*
G01*
X195295998Y-109095602D01*
X195327972Y-109143454D01*
X195339200Y-109199900D01*
X195339200Y-109544900D01*
X195327972Y-109601346D01*
X195295998Y-109649198D01*
X195248146Y-109681172D01*
X195191700Y-109692400D01*
X194896700Y-109692400D01*
X194840254Y-109681172D01*
X194792402Y-109649198D01*
X194760428Y-109601346D01*
X194749200Y-109544900D01*
X194749200Y-109199900D01*
X194760428Y-109143454D01*
X194792402Y-109095602D01*
X194840254Y-109063628D01*
X194896700Y-109052400D01*
X195191700Y-109052400D01*
X195248146Y-109063628D01*
G37*
G36*
X196218146Y-109063628D02*
G01*
X196265998Y-109095602D01*
X196297972Y-109143454D01*
X196309200Y-109199900D01*
X196309200Y-109544900D01*
X196297972Y-109601346D01*
X196265998Y-109649198D01*
X196218146Y-109681172D01*
X196161700Y-109692400D01*
X195866700Y-109692400D01*
X195810254Y-109681172D01*
X195762402Y-109649198D01*
X195730428Y-109601346D01*
X195719200Y-109544900D01*
X195719200Y-109199900D01*
X195730428Y-109143454D01*
X195762402Y-109095602D01*
X195810254Y-109063628D01*
X195866700Y-109052400D01*
X196161700Y-109052400D01*
X196218146Y-109063628D01*
G37*
D10*
X190359200Y-98525400D03*
X190359200Y-99795400D03*
X190359200Y-101065400D03*
D11*
X190359200Y-97255400D03*
D10*
X190359200Y-102335400D03*
D11*
X190359200Y-103605400D03*
G36*
X193811172Y-101578036D02*
G01*
X194108157Y-101281051D01*
X194808192Y-101981086D01*
X194511207Y-102278071D01*
X193811172Y-101578036D01*
G37*
G36*
X197311351Y-104455960D02*
G01*
X198011386Y-103755925D01*
X198308371Y-104052910D01*
X197608336Y-104752945D01*
X197311351Y-104455960D01*
G37*
G36*
X194836477Y-107553089D02*
G01*
X195133462Y-107256104D01*
X195833497Y-107956139D01*
X195536512Y-108253124D01*
X194836477Y-107553089D01*
G37*
G36*
X192559592Y-104767087D02*
G01*
X194822334Y-102504345D01*
X197085076Y-104767087D01*
X194822334Y-107029829D01*
X192559592Y-104767087D01*
G37*
D12*
X194822334Y-103352874D03*
X195529441Y-104059981D03*
X196236548Y-104767087D03*
X194115228Y-104059981D03*
X194822334Y-104767087D03*
X195529441Y-105474194D03*
X193408121Y-104767087D03*
X194115228Y-105474194D03*
X194822334Y-106181301D03*
G36*
X191336298Y-105481265D02*
G01*
X192036333Y-104781230D01*
X192333318Y-105078215D01*
X191633283Y-105778250D01*
X191336298Y-105481265D01*
G37*
G36*
X191689852Y-105834818D02*
G01*
X192389887Y-105134783D01*
X192686872Y-105431768D01*
X191986837Y-106131803D01*
X191689852Y-105834818D01*
G37*
G36*
X192043405Y-106188372D02*
G01*
X192743440Y-105488337D01*
X193040425Y-105785322D01*
X192340390Y-106485357D01*
X192043405Y-106188372D01*
G37*
G36*
X192396958Y-106541925D02*
G01*
X193096993Y-105841890D01*
X193393978Y-106138875D01*
X192693943Y-106838910D01*
X192396958Y-106541925D01*
G37*
G36*
X192750512Y-106895478D02*
G01*
X193450547Y-106195443D01*
X193747532Y-106492428D01*
X193047497Y-107192463D01*
X192750512Y-106895478D01*
G37*
G36*
X193104065Y-107249032D02*
G01*
X193804100Y-106548997D01*
X194101085Y-106845982D01*
X193401050Y-107546017D01*
X193104065Y-107249032D01*
G37*
G36*
X193457619Y-107602585D02*
G01*
X194157654Y-106902550D01*
X194454639Y-107199535D01*
X193754604Y-107899570D01*
X193457619Y-107602585D01*
G37*
G36*
X193811172Y-107956139D02*
G01*
X194511207Y-107256104D01*
X194808192Y-107553089D01*
X194108157Y-108253124D01*
X193811172Y-107956139D01*
G37*
G36*
X195190030Y-107199535D02*
G01*
X195487015Y-106902550D01*
X196187050Y-107602585D01*
X195890065Y-107899570D01*
X195190030Y-107199535D01*
G37*
G36*
X195543584Y-106845982D02*
G01*
X195840569Y-106548997D01*
X196540604Y-107249032D01*
X196243619Y-107546017D01*
X195543584Y-106845982D01*
G37*
G36*
X195897137Y-106492428D02*
G01*
X196194122Y-106195443D01*
X196894157Y-106895478D01*
X196597172Y-107192463D01*
X195897137Y-106492428D01*
G37*
G36*
X196250690Y-106138875D02*
G01*
X196547675Y-105841890D01*
X197247710Y-106541925D01*
X196950725Y-106838910D01*
X196250690Y-106138875D01*
G37*
G36*
X196604244Y-105785322D02*
G01*
X196901229Y-105488337D01*
X197601264Y-106188372D01*
X197304279Y-106485357D01*
X196604244Y-105785322D01*
G37*
G36*
X196957797Y-105431768D02*
G01*
X197254782Y-105134783D01*
X197954817Y-105834818D01*
X197657832Y-106131803D01*
X196957797Y-105431768D01*
G37*
G36*
X197311351Y-105078215D02*
G01*
X197608336Y-104781230D01*
X198308371Y-105481265D01*
X198011386Y-105778250D01*
X197311351Y-105078215D01*
G37*
G36*
X196957797Y-104102407D02*
G01*
X197657832Y-103402372D01*
X197954817Y-103699357D01*
X197254782Y-104399392D01*
X196957797Y-104102407D01*
G37*
G36*
X196604244Y-103748853D02*
G01*
X197304279Y-103048818D01*
X197601264Y-103345803D01*
X196901229Y-104045838D01*
X196604244Y-103748853D01*
G37*
G36*
X196250690Y-103395300D02*
G01*
X196950725Y-102695265D01*
X197247710Y-102992250D01*
X196547675Y-103692285D01*
X196250690Y-103395300D01*
G37*
G36*
X195897137Y-103041746D02*
G01*
X196597172Y-102341711D01*
X196894157Y-102638696D01*
X196194122Y-103338731D01*
X195897137Y-103041746D01*
G37*
G36*
X195543584Y-102688193D02*
G01*
X196243619Y-101988158D01*
X196540604Y-102285143D01*
X195840569Y-102985178D01*
X195543584Y-102688193D01*
G37*
G36*
X195190030Y-102334640D02*
G01*
X195890065Y-101634605D01*
X196187050Y-101931590D01*
X195487015Y-102631625D01*
X195190030Y-102334640D01*
G37*
G36*
X194836477Y-101981086D02*
G01*
X195536512Y-101281051D01*
X195833497Y-101578036D01*
X195133462Y-102278071D01*
X194836477Y-101981086D01*
G37*
G36*
X193457619Y-101931590D02*
G01*
X193754604Y-101634605D01*
X194454639Y-102334640D01*
X194157654Y-102631625D01*
X193457619Y-101931590D01*
G37*
G36*
X193104065Y-102285143D02*
G01*
X193401050Y-101988158D01*
X194101085Y-102688193D01*
X193804100Y-102985178D01*
X193104065Y-102285143D01*
G37*
G36*
X192750512Y-102638696D02*
G01*
X193047497Y-102341711D01*
X193747532Y-103041746D01*
X193450547Y-103338731D01*
X192750512Y-102638696D01*
G37*
G36*
X192396958Y-102992250D02*
G01*
X192693943Y-102695265D01*
X193393978Y-103395300D01*
X193096993Y-103692285D01*
X192396958Y-102992250D01*
G37*
G36*
X192043405Y-103345803D02*
G01*
X192340390Y-103048818D01*
X193040425Y-103748853D01*
X192743440Y-104045838D01*
X192043405Y-103345803D01*
G37*
G36*
X191689852Y-103699357D02*
G01*
X191986837Y-103402372D01*
X192686872Y-104102407D01*
X192389887Y-104399392D01*
X191689852Y-103699357D01*
G37*
G36*
X191336298Y-104052910D02*
G01*
X191633283Y-103755925D01*
X192333318Y-104455960D01*
X192036333Y-104752945D01*
X191336298Y-104052910D01*
G37*
D13*
X205264200Y-107400400D03*
X205264200Y-106900400D03*
X205264200Y-106400400D03*
X205264200Y-105900400D03*
D14*
X204564200Y-105200400D03*
X204064200Y-105200400D03*
X203564200Y-105200400D03*
X203064200Y-105200400D03*
D13*
X202364200Y-105900400D03*
X202364200Y-106400400D03*
X202364200Y-106900400D03*
X202364200Y-107400400D03*
D14*
X203064200Y-108100400D03*
X203564200Y-108100400D03*
X204064200Y-108100400D03*
X204564200Y-108100400D03*
D15*
X203814200Y-106650400D03*
G36*
X193220946Y-95017428D02*
G01*
X193268798Y-95049402D01*
X193300772Y-95097254D01*
X193312000Y-95153700D01*
X193312000Y-95498700D01*
X193300772Y-95555146D01*
X193268798Y-95602998D01*
X193220946Y-95634972D01*
X193164500Y-95646200D01*
X192869500Y-95646200D01*
X192813054Y-95634972D01*
X192765202Y-95602998D01*
X192733228Y-95555146D01*
X192722000Y-95498700D01*
X192722000Y-95153700D01*
X192733228Y-95097254D01*
X192765202Y-95049402D01*
X192813054Y-95017428D01*
X192869500Y-95006200D01*
X193164500Y-95006200D01*
X193220946Y-95017428D01*
G37*
G36*
X192250946Y-95017428D02*
G01*
X192298798Y-95049402D01*
X192330772Y-95097254D01*
X192342000Y-95153700D01*
X192342000Y-95498700D01*
X192330772Y-95555146D01*
X192298798Y-95602998D01*
X192250946Y-95634972D01*
X192194500Y-95646200D01*
X191899500Y-95646200D01*
X191843054Y-95634972D01*
X191795202Y-95602998D01*
X191763228Y-95555146D01*
X191752000Y-95498700D01*
X191752000Y-95153700D01*
X191763228Y-95097254D01*
X191795202Y-95049402D01*
X191843054Y-95017428D01*
X191899500Y-95006200D01*
X192194500Y-95006200D01*
X192250946Y-95017428D01*
G37*
G36*
X195868346Y-94239628D02*
G01*
X195916198Y-94271602D01*
X195948172Y-94319454D01*
X195959400Y-94375900D01*
X195959400Y-94670900D01*
X195948172Y-94727346D01*
X195916198Y-94775198D01*
X195868346Y-94807172D01*
X195811900Y-94818400D01*
X195466900Y-94818400D01*
X195410454Y-94807172D01*
X195362602Y-94775198D01*
X195330628Y-94727346D01*
X195319400Y-94670900D01*
X195319400Y-94375900D01*
X195330628Y-94319454D01*
X195362602Y-94271602D01*
X195410454Y-94239628D01*
X195466900Y-94228400D01*
X195811900Y-94228400D01*
X195868346Y-94239628D01*
G37*
G36*
X195868346Y-93269628D02*
G01*
X195916198Y-93301602D01*
X195948172Y-93349454D01*
X195959400Y-93405900D01*
X195959400Y-93700900D01*
X195948172Y-93757346D01*
X195916198Y-93805198D01*
X195868346Y-93837172D01*
X195811900Y-93848400D01*
X195466900Y-93848400D01*
X195410454Y-93837172D01*
X195362602Y-93805198D01*
X195330628Y-93757346D01*
X195319400Y-93700900D01*
X195319400Y-93405900D01*
X195330628Y-93349454D01*
X195362602Y-93301602D01*
X195410454Y-93269628D01*
X195466900Y-93258400D01*
X195811900Y-93258400D01*
X195868346Y-93269628D01*
G37*
G36*
X192648146Y-100151628D02*
G01*
X192695998Y-100183602D01*
X192727972Y-100231454D01*
X192739200Y-100287900D01*
X192739200Y-100582900D01*
X192727972Y-100639346D01*
X192695998Y-100687198D01*
X192648146Y-100719172D01*
X192591700Y-100730400D01*
X192246700Y-100730400D01*
X192190254Y-100719172D01*
X192142402Y-100687198D01*
X192110428Y-100639346D01*
X192099200Y-100582900D01*
X192099200Y-100287900D01*
X192110428Y-100231454D01*
X192142402Y-100183602D01*
X192190254Y-100151628D01*
X192246700Y-100140400D01*
X192591700Y-100140400D01*
X192648146Y-100151628D01*
G37*
G36*
X192648146Y-101121628D02*
G01*
X192695998Y-101153602D01*
X192727972Y-101201454D01*
X192739200Y-101257900D01*
X192739200Y-101552900D01*
X192727972Y-101609346D01*
X192695998Y-101657198D01*
X192648146Y-101689172D01*
X192591700Y-101700400D01*
X192246700Y-101700400D01*
X192190254Y-101689172D01*
X192142402Y-101657198D01*
X192110428Y-101609346D01*
X192099200Y-101552900D01*
X192099200Y-101257900D01*
X192110428Y-101201454D01*
X192142402Y-101153602D01*
X192190254Y-101121628D01*
X192246700Y-101110400D01*
X192591700Y-101110400D01*
X192648146Y-101121628D01*
G37*
G36*
X203807946Y-100402228D02*
G01*
X203855798Y-100434202D01*
X203887772Y-100482054D01*
X203899000Y-100538500D01*
X203899000Y-100883500D01*
X203887772Y-100939946D01*
X203855798Y-100987798D01*
X203807946Y-101019772D01*
X203751500Y-101031000D01*
X203456500Y-101031000D01*
X203400054Y-101019772D01*
X203352202Y-100987798D01*
X203320228Y-100939946D01*
X203309000Y-100883500D01*
X203309000Y-100538500D01*
X203320228Y-100482054D01*
X203352202Y-100434202D01*
X203400054Y-100402228D01*
X203456500Y-100391000D01*
X203751500Y-100391000D01*
X203807946Y-100402228D01*
G37*
G36*
X204777946Y-100402228D02*
G01*
X204825798Y-100434202D01*
X204857772Y-100482054D01*
X204869000Y-100538500D01*
X204869000Y-100883500D01*
X204857772Y-100939946D01*
X204825798Y-100987798D01*
X204777946Y-101019772D01*
X204721500Y-101031000D01*
X204426500Y-101031000D01*
X204370054Y-101019772D01*
X204322202Y-100987798D01*
X204290228Y-100939946D01*
X204279000Y-100883500D01*
X204279000Y-100538500D01*
X204290228Y-100482054D01*
X204322202Y-100434202D01*
X204370054Y-100402228D01*
X204426500Y-100391000D01*
X204721500Y-100391000D01*
X204777946Y-100402228D01*
G37*
G36*
X207238146Y-107746628D02*
G01*
X207285998Y-107778602D01*
X207317972Y-107826454D01*
X207329200Y-107882900D01*
X207329200Y-108177900D01*
X207317972Y-108234346D01*
X207285998Y-108282198D01*
X207238146Y-108314172D01*
X207181700Y-108325400D01*
X206836700Y-108325400D01*
X206780254Y-108314172D01*
X206732402Y-108282198D01*
X206700428Y-108234346D01*
X206689200Y-108177900D01*
X206689200Y-107882900D01*
X206700428Y-107826454D01*
X206732402Y-107778602D01*
X206780254Y-107746628D01*
X206836700Y-107735400D01*
X207181700Y-107735400D01*
X207238146Y-107746628D01*
G37*
G36*
X207238146Y-106776628D02*
G01*
X207285998Y-106808602D01*
X207317972Y-106856454D01*
X207329200Y-106912900D01*
X207329200Y-107207900D01*
X207317972Y-107264346D01*
X207285998Y-107312198D01*
X207238146Y-107344172D01*
X207181700Y-107355400D01*
X206836700Y-107355400D01*
X206780254Y-107344172D01*
X206732402Y-107312198D01*
X206700428Y-107264346D01*
X206689200Y-107207900D01*
X206689200Y-106912900D01*
X206700428Y-106856454D01*
X206732402Y-106808602D01*
X206780254Y-106776628D01*
X206836700Y-106765400D01*
X207181700Y-106765400D01*
X207238146Y-106776628D01*
G37*
G36*
X202188146Y-100491628D02*
G01*
X202235998Y-100523602D01*
X202267972Y-100571454D01*
X202279200Y-100627900D01*
X202279200Y-100972900D01*
X202267972Y-101029346D01*
X202235998Y-101077198D01*
X202188146Y-101109172D01*
X202131700Y-101120400D01*
X201836700Y-101120400D01*
X201780254Y-101109172D01*
X201732402Y-101077198D01*
X201700428Y-101029346D01*
X201689200Y-100972900D01*
X201689200Y-100627900D01*
X201700428Y-100571454D01*
X201732402Y-100523602D01*
X201780254Y-100491628D01*
X201836700Y-100480400D01*
X202131700Y-100480400D01*
X202188146Y-100491628D01*
G37*
G36*
X201218146Y-100491628D02*
G01*
X201265998Y-100523602D01*
X201297972Y-100571454D01*
X201309200Y-100627900D01*
X201309200Y-100972900D01*
X201297972Y-101029346D01*
X201265998Y-101077198D01*
X201218146Y-101109172D01*
X201161700Y-101120400D01*
X200866700Y-101120400D01*
X200810254Y-101109172D01*
X200762402Y-101077198D01*
X200730428Y-101029346D01*
X200719200Y-100972900D01*
X200719200Y-100627900D01*
X200730428Y-100571454D01*
X200762402Y-100523602D01*
X200810254Y-100491628D01*
X200866700Y-100480400D01*
X201161700Y-100480400D01*
X201218146Y-100491628D01*
G37*
G36*
X199647146Y-108682628D02*
G01*
X199694998Y-108714602D01*
X199726972Y-108762454D01*
X199738200Y-108818900D01*
X199738200Y-109163900D01*
X199726972Y-109220346D01*
X199694998Y-109268198D01*
X199647146Y-109300172D01*
X199590700Y-109311400D01*
X199295700Y-109311400D01*
X199239254Y-109300172D01*
X199191402Y-109268198D01*
X199159428Y-109220346D01*
X199148200Y-109163900D01*
X199148200Y-108818900D01*
X199159428Y-108762454D01*
X199191402Y-108714602D01*
X199239254Y-108682628D01*
X199295700Y-108671400D01*
X199590700Y-108671400D01*
X199647146Y-108682628D01*
G37*
G36*
X198677146Y-108682628D02*
G01*
X198724998Y-108714602D01*
X198756972Y-108762454D01*
X198768200Y-108818900D01*
X198768200Y-109163900D01*
X198756972Y-109220346D01*
X198724998Y-109268198D01*
X198677146Y-109300172D01*
X198620700Y-109311400D01*
X198325700Y-109311400D01*
X198269254Y-109300172D01*
X198221402Y-109268198D01*
X198189428Y-109220346D01*
X198178200Y-109163900D01*
X198178200Y-108818900D01*
X198189428Y-108762454D01*
X198221402Y-108714602D01*
X198269254Y-108682628D01*
X198325700Y-108671400D01*
X198620700Y-108671400D01*
X198677146Y-108682628D01*
G37*
D16*
X194159240Y-96372680D03*
X205159240Y-96372680D03*
D17*
X195559240Y-96202680D03*
X203759239Y-96202680D03*
X195559240Y-99142680D03*
X203759239Y-99142680D03*
D18*
X196909240Y-95847680D03*
X197409240Y-95847680D03*
X197909240Y-95847680D03*
X198409240Y-95847680D03*
X198909240Y-95847680D03*
X199409240Y-95847680D03*
X199909240Y-95847680D03*
X200409240Y-95847680D03*
X200909240Y-95847680D03*
X201409240Y-95847680D03*
X201909240Y-95847680D03*
X202409240Y-95847680D03*
X202409240Y-99347680D03*
X201909240Y-99347680D03*
X201409240Y-99347680D03*
X200909240Y-99347680D03*
X200409240Y-99347680D03*
X199909240Y-99347680D03*
X199409240Y-99347680D03*
X198909240Y-99347680D03*
X198409240Y-99347680D03*
X197909240Y-99347680D03*
X197409240Y-99347680D03*
X196909240Y-99347680D03*
D19*
X198282200Y-109896400D03*
X198282200Y-110396400D03*
X198282200Y-110896400D03*
X198282200Y-111396400D03*
X198282200Y-111896400D03*
X202682200Y-111896400D03*
X202682200Y-111396400D03*
X202682200Y-110896400D03*
X202682200Y-110396400D03*
X202682200Y-109896400D03*
D20*
X207391000Y-98260000D03*
D21*
X209931000Y-98260000D03*
X207391000Y-100800000D03*
X209931000Y-100800000D03*
X207391000Y-103340000D03*
X209931000Y-103340000D03*
G36*
X199624947Y-103584074D02*
G01*
X199706053Y-103638267D01*
X201226333Y-105158547D01*
X201280526Y-105239653D01*
X201299556Y-105335324D01*
X201280526Y-105430995D01*
X201226333Y-105512101D01*
X200696003Y-106042431D01*
X200614897Y-106096624D01*
X200519226Y-106115654D01*
X200423555Y-106096624D01*
X200342449Y-106042431D01*
X198822169Y-104522151D01*
X198767976Y-104441045D01*
X198748946Y-104345374D01*
X198767976Y-104249703D01*
X198822169Y-104168597D01*
X199352499Y-103638267D01*
X199433605Y-103584074D01*
X199529276Y-103565044D01*
X199624947Y-103584074D01*
G37*
G36*
X201604845Y-101604176D02*
G01*
X201685951Y-101658369D01*
X203206231Y-103178649D01*
X203260424Y-103259755D01*
X203279454Y-103355426D01*
X203260424Y-103451097D01*
X203206231Y-103532203D01*
X202675901Y-104062533D01*
X202594795Y-104116726D01*
X202499124Y-104135756D01*
X202403453Y-104116726D01*
X202322347Y-104062533D01*
X200802067Y-102542253D01*
X200747874Y-102461147D01*
X200728844Y-102365476D01*
X200747874Y-102269805D01*
X200802067Y-102188699D01*
X201332397Y-101658369D01*
X201413503Y-101604176D01*
X201509174Y-101585146D01*
X201604845Y-101604176D01*
G37*
D22*
X193319400Y-93878400D03*
D23*
X194259299Y-93228401D03*
X194259299Y-93878400D03*
X194259299Y-94528399D03*
X192379501Y-94528399D03*
X192379501Y-93878400D03*
X192379501Y-93228401D03*
M02*
