M48
; DRILL file {KiCad (5.99.0-417-g8bd2765f3)} date 7/20/2020 9:22:47 PM
; FORMAT={-:-/ absolute / inch / decimal}
; #@! TF.CreationDate,2020-07-20T21:22:47-04:00
; #@! TF.GenerationSoftware,Kicad,Pcbnew,(5.99.0-417-g8bd2765f3)
; #@! TF.FileFunction,Plated,1,4,PTH
FMAT,2
INCH
T1C0.0079
T2C0.0118
T3C0.0315
T4C0.0394
%
G90
G05
T1
X7.6145Y-4.1247
X7.6423Y-4.0968
X7.6423Y-4.1525
X7.6702Y-4.069
X7.6702Y-4.1247
X7.6702Y-4.1804
X7.698Y-4.0968
X7.698Y-4.1525
X7.7258Y-4.1247
T2
X7.4945Y-3.929
X7.4945Y-3.979
X7.4947Y-3.8787
X7.5358Y-3.9162
X7.5496Y-3.696
X7.5744Y-3.9173
X7.611Y-3.7145
X7.6114Y-3.6795
X7.6326Y-3.6414
X7.638Y-4.301
X7.6775Y-3.9595
X7.6802Y-3.6704
X7.7146Y-3.9802
X7.7302Y-3.7074
X7.788Y-4.291
X7.7909Y-4.0284
X7.8114Y-3.8324
X7.8476Y-3.8162
X7.853Y-4.2414
X7.863Y-4.386
X7.8657Y-4.1878
X7.8692Y-3.9584
X7.8712Y-3.8606
X7.9098Y-3.8342
X7.9635Y-4.2597
X7.9657Y-4.1461
X7.9834Y-3.9685
X8.0084Y-4.1831
X8.0084Y-4.2166
X8.0232Y-3.7134
X8.033Y-4.326
X8.0407Y-4.1832
X8.0409Y-3.5697
X8.0419Y-4.2166
X8.0468Y-4.0689
X8.0909Y-4.2685
X8.1177Y-4.2293
X8.118Y-4.151
X8.1464Y-3.7272
X8.198Y-3.7898
X7.4945Y-3.829
X7.4945Y-4.079
T4
X8.165Y-3.866
X8.165Y-3.966
X8.165Y-4.066
X8.265Y-3.866
X8.265Y-3.966
X8.265Y-4.066
T3
G00X7.6893Y-3.7875
M15
G01X7.709Y-3.7875
M16
G05
G00X7.6893Y-3.9033
M15
G01X7.709Y-3.9033
M16
G05
G00X8.0122Y-3.7875
M15
G01X8.0319Y-3.7875
M16
G05
G00X8.0122Y-3.9033
M15
G01X8.0319Y-3.9033
M16
G05
T0
M30
