G04 #@! TF.GenerationSoftware,KiCad,Pcbnew,(5.99.0-11526-gd613292b67)*
G04 #@! TF.CreationDate,2021-07-26T19:59:08-04:00*
G04 #@! TF.ProjectId,bias,62696173-2e6b-4696-9361-645f70636258,rev?*
G04 #@! TF.SameCoordinates,Original*
G04 #@! TF.FileFunction,Soldermask,Top*
G04 #@! TF.FilePolarity,Negative*
%FSLAX46Y46*%
G04 Gerber Fmt 4.6, Leading zero omitted, Abs format (unit mm)*
G04 Created by KiCad (PCBNEW (5.99.0-11526-gd613292b67)) date 2021-07-26 19:59:08*
%MOMM*%
%LPD*%
G01*
G04 APERTURE LIST*
G04 Aperture macros list*
%AMRoundRect*
0 Rectangle with rounded corners*
0 $1 Rounding radius*
0 $2 $3 $4 $5 $6 $7 $8 $9 X,Y pos of 4 corners*
0 Add a 4 corners polygon primitive as box body*
4,1,4,$2,$3,$4,$5,$6,$7,$8,$9,$2,$3,0*
0 Add four circle primitives for the rounded corners*
1,1,$1+$1,$2,$3*
1,1,$1+$1,$4,$5*
1,1,$1+$1,$6,$7*
1,1,$1+$1,$8,$9*
0 Add four rect primitives between the rounded corners*
20,1,$1+$1,$2,$3,$4,$5,0*
20,1,$1+$1,$4,$5,$6,$7,0*
20,1,$1+$1,$6,$7,$8,$9,0*
20,1,$1+$1,$8,$9,$2,$3,0*%
%AMRotRect*
0 Rectangle, with rotation*
0 The origin of the aperture is its center*
0 $1 length*
0 $2 width*
0 $3 Rotation angle, in degrees counterclockwise*
0 Add horizontal line*
21,1,$1,$2,0,0,$3*%
G04 Aperture macros list end*
%ADD10RoundRect,0.147500X-0.172500X0.147500X-0.172500X-0.147500X0.172500X-0.147500X0.172500X0.147500X0*%
%ADD11RoundRect,0.147500X0.172500X-0.147500X0.172500X0.147500X-0.172500X0.147500X-0.172500X-0.147500X0*%
%ADD12RoundRect,0.147500X-0.147500X-0.172500X0.147500X-0.172500X0.147500X0.172500X-0.147500X0.172500X0*%
%ADD13RoundRect,0.147500X0.147500X0.172500X-0.147500X0.172500X-0.147500X-0.172500X0.147500X-0.172500X0*%
%ADD14C,0.704800*%
%ADD15R,0.700000X0.700000*%
%ADD16R,0.850000X0.300000*%
%ADD17R,0.300000X0.850000*%
%ADD18R,1.550000X1.550000*%
%ADD19RoundRect,0.218750X-0.256250X0.218750X-0.256250X-0.218750X0.256250X-0.218750X0.256250X0.218750X0*%
%ADD20RoundRect,0.070000X-0.399515X-0.201525X-0.201525X-0.399515X0.399515X0.201525X0.201525X0.399515X0*%
%ADD21RoundRect,0.070000X-0.399515X0.201525X0.201525X-0.399515X0.399515X-0.201525X-0.201525X0.399515X0*%
%ADD22C,0.400000*%
%ADD23RotRect,3.200000X3.200000X315.000000*%
%ADD24R,1.400000X0.300000*%
%ADD25RoundRect,0.250000X0.494975X-1.025305X1.025305X-0.494975X-0.494975X1.025305X-1.025305X0.494975X0*%
%ADD26C,0.600000*%
%ADD27R,0.270000X1.150000*%
%ADD28O,1.700000X1.200000*%
%ADD29R,0.729800X0.248400*%
%ADD30R,0.800000X1.600000*%
%ADD31R,1.700000X1.700000*%
%ADD32O,1.700000X1.700000*%
%ADD33RoundRect,0.218750X0.026517X-0.335876X0.335876X-0.026517X-0.026517X0.335876X-0.335876X0.026517X0*%
%ADD34RoundRect,0.147500X-0.017678X0.226274X-0.226274X0.017678X0.017678X-0.226274X0.226274X-0.017678X0*%
G04 APERTURE END LIST*
D10*
X206800000Y-105595000D03*
X206800000Y-106565000D03*
D11*
X209730000Y-105885000D03*
X209730000Y-104915000D03*
D10*
X205680000Y-103225000D03*
X205680000Y-104195000D03*
D11*
X198869200Y-106960400D03*
X198869200Y-105990400D03*
D12*
X202590000Y-100825000D03*
X203560000Y-100825000D03*
D13*
X195985000Y-92225000D03*
X195015000Y-92225000D03*
X198554200Y-107975400D03*
X197584200Y-107975400D03*
D14*
X190359200Y-97255400D03*
D15*
X190359200Y-98525400D03*
X190359200Y-99795400D03*
X190359200Y-101065400D03*
X190359200Y-102335400D03*
D14*
X190359200Y-103605400D03*
D16*
X205264200Y-107400400D03*
X205264200Y-106900400D03*
X205264200Y-106400400D03*
X205264200Y-105900400D03*
D17*
X204564200Y-105200400D03*
X204064200Y-105200400D03*
X203564200Y-105200400D03*
X203064200Y-105200400D03*
D16*
X202364200Y-105900400D03*
X202364200Y-106400400D03*
X202364200Y-106900400D03*
X202364200Y-107400400D03*
D17*
X203064200Y-108100400D03*
X203564200Y-108100400D03*
X204064200Y-108100400D03*
X204564200Y-108100400D03*
D18*
X203814200Y-106650400D03*
D12*
X191940000Y-95325000D03*
X192910000Y-95325000D03*
D11*
X192419200Y-101405400D03*
X192419200Y-100435400D03*
D12*
X198473200Y-108991400D03*
X199443200Y-108991400D03*
X195165000Y-109325000D03*
X196135000Y-109325000D03*
D19*
X200800000Y-106612500D03*
X200800000Y-108187500D03*
D20*
X191834808Y-105279740D03*
X192188362Y-105633293D03*
X192541915Y-105986847D03*
X192895468Y-106340400D03*
X193249022Y-106693953D03*
X193602575Y-107047507D03*
X193956129Y-107401060D03*
X194309682Y-107754614D03*
D21*
X195334987Y-107754614D03*
X195688540Y-107401060D03*
X196042094Y-107047507D03*
X196395647Y-106693953D03*
X196749200Y-106340400D03*
X197102754Y-105986847D03*
X197456307Y-105633293D03*
X197809861Y-105279740D03*
D20*
X197809861Y-104254435D03*
X197456307Y-103900882D03*
X197102754Y-103547328D03*
X196749200Y-103193775D03*
X196395647Y-102840221D03*
X196042094Y-102486668D03*
X195688540Y-102133115D03*
X195334987Y-101779561D03*
D21*
X194309682Y-101779561D03*
X193956129Y-102133115D03*
X193602575Y-102486668D03*
X193249022Y-102840221D03*
X192895468Y-103193775D03*
X192541915Y-103547328D03*
X192188362Y-103900882D03*
X191834808Y-104254435D03*
D22*
X194822334Y-104767087D03*
X194822334Y-103352874D03*
X196236548Y-104767087D03*
X195529441Y-104059981D03*
X193408121Y-104767087D03*
X194115228Y-104059981D03*
X195529441Y-105474194D03*
X194115228Y-105474194D03*
X194822334Y-106181301D03*
D23*
X194822334Y-104767087D03*
D24*
X198282200Y-109896400D03*
X198282200Y-110396400D03*
X198282200Y-110896400D03*
X198282200Y-111396400D03*
X198282200Y-111896400D03*
X202682200Y-111896400D03*
X202682200Y-111396400D03*
X202682200Y-110896400D03*
X202682200Y-110396400D03*
X202682200Y-109896400D03*
D25*
X200135051Y-104939949D03*
X202114949Y-102960051D03*
D10*
X195639400Y-93553400D03*
X195639400Y-94523400D03*
D26*
X194159240Y-96372680D03*
X205159240Y-96372680D03*
D27*
X196909240Y-95847680D03*
X197409240Y-95847680D03*
X197909240Y-95847680D03*
X198409240Y-95847680D03*
X198909240Y-95847680D03*
X199409240Y-95847680D03*
X199909240Y-95847680D03*
X200409240Y-95847680D03*
X200909240Y-95847680D03*
X201409240Y-95847680D03*
X201909240Y-95847680D03*
X202409240Y-95847680D03*
X202409240Y-99347680D03*
X201909240Y-99347680D03*
X201409240Y-99347680D03*
X200909240Y-99347680D03*
X200409240Y-99347680D03*
X199909240Y-99347680D03*
X199409240Y-99347680D03*
X198909240Y-99347680D03*
X198409240Y-99347680D03*
X197909240Y-99347680D03*
X197409240Y-99347680D03*
X196909240Y-99347680D03*
D28*
X195559240Y-99142680D03*
X195559240Y-96202680D03*
X203759239Y-99142680D03*
X203759239Y-96202680D03*
D29*
X192379501Y-93228401D03*
X192379501Y-93878400D03*
X192379501Y-94528399D03*
X194259299Y-94528399D03*
X194259299Y-93878400D03*
X194259299Y-93228401D03*
D30*
X193319400Y-93878400D03*
D11*
X204600000Y-101810000D03*
X204600000Y-100840000D03*
D31*
X207391000Y-98260000D03*
D32*
X209931000Y-98260000D03*
X207391000Y-100800000D03*
X209931000Y-100800000D03*
X207391000Y-103340000D03*
X209931000Y-103340000D03*
D11*
X208670000Y-107175000D03*
X208670000Y-106205000D03*
D33*
X198618153Y-102831847D03*
X199731847Y-101718153D03*
D11*
X207750000Y-108125000D03*
X207750000Y-107155000D03*
D10*
X205650000Y-101295000D03*
X205650000Y-102265000D03*
D12*
X205365000Y-108475000D03*
X206335000Y-108475000D03*
D34*
X198417947Y-101232053D03*
X197732053Y-101917947D03*
M02*
