G04 #@! TF.GenerationSoftware,KiCad,Pcbnew,5.99.0-unknown-4135f0c~100~ubuntu18.04.1*
G04 #@! TF.CreationDate,2019-10-31T15:23:41-04:00*
G04 #@! TF.ProjectId,bias,62696173-2e6b-4696-9361-645f70636258,rev?*
G04 #@! TF.SameCoordinates,Original*
G04 #@! TF.FileFunction,Legend,Top*
G04 #@! TF.FilePolarity,Positive*
%FSLAX46Y46*%
G04 Gerber Fmt 4.6, Leading zero omitted, Abs format (unit mm)*
G04 Created by KiCad (PCBNEW 5.99.0-unknown-4135f0c~100~ubuntu18.04.1) date 2019-10-31 15:23:41*
%MOMM*%
%LPD*%
G04 APERTURE LIST*
%ADD10C,0.100000*%
%ADD11C,0.200000*%
%ADD12C,0.120000*%
%ADD13C,0.127000*%
%ADD14C,0.150000*%
%ADD15C,0.250000*%
%ADD16C,0.152400*%
G04 APERTURE END LIST*
D10*
X205230000Y-95181428D02*
X205372857Y-95581428D01*
X205515714Y-95181428D01*
X206058571Y-95581428D02*
X205715714Y-95581428D01*
X205887142Y-95581428D02*
X205887142Y-94981428D01*
X205830000Y-95067142D01*
X205772857Y-95124285D01*
X205715714Y-95152857D01*
X206430000Y-94981428D02*
X206487142Y-94981428D01*
X206544285Y-95010000D01*
X206572857Y-95038571D01*
X206601428Y-95095714D01*
X206630000Y-95210000D01*
X206630000Y-95352857D01*
X206601428Y-95467142D01*
X206572857Y-95524285D01*
X206544285Y-95552857D01*
X206487142Y-95581428D01*
X206430000Y-95581428D01*
X206372857Y-95552857D01*
X206344285Y-95524285D01*
X206315714Y-95467142D01*
X206287142Y-95352857D01*
X206287142Y-95210000D01*
X206315714Y-95095714D01*
X206344285Y-95038571D01*
X206372857Y-95010000D01*
X206430000Y-94981428D01*
X207001428Y-94981428D02*
X207058571Y-94981428D01*
X207115714Y-95010000D01*
X207144285Y-95038571D01*
X207172857Y-95095714D01*
X207201428Y-95210000D01*
X207201428Y-95352857D01*
X207172857Y-95467142D01*
X207144285Y-95524285D01*
X207115714Y-95552857D01*
X207058571Y-95581428D01*
X207001428Y-95581428D01*
X206944285Y-95552857D01*
X206915714Y-95524285D01*
X206887142Y-95467142D01*
X206858571Y-95352857D01*
X206858571Y-95210000D01*
X206887142Y-95095714D01*
X206915714Y-95038571D01*
X206944285Y-95010000D01*
X207001428Y-94981428D01*
D11*
X203444761Y-92829761D02*
X203587619Y-92877380D01*
X203825714Y-92877380D01*
X203920952Y-92829761D01*
X203968571Y-92782142D01*
X204016190Y-92686904D01*
X204016190Y-92591666D01*
X203968571Y-92496428D01*
X203920952Y-92448809D01*
X203825714Y-92401190D01*
X203635238Y-92353571D01*
X203540000Y-92305952D01*
X203492380Y-92258333D01*
X203444761Y-92163095D01*
X203444761Y-92067857D01*
X203492380Y-91972619D01*
X203540000Y-91925000D01*
X203635238Y-91877380D01*
X203873333Y-91877380D01*
X204016190Y-91925000D01*
X204444761Y-92877380D02*
X204444761Y-92210714D01*
X204444761Y-91877380D02*
X204397142Y-91925000D01*
X204444761Y-91972619D01*
X204492380Y-91925000D01*
X204444761Y-91877380D01*
X204444761Y-91972619D01*
X204920952Y-92877380D02*
X204920952Y-91877380D01*
X205301904Y-91877380D01*
X205397142Y-91925000D01*
X205444761Y-91972619D01*
X205492380Y-92067857D01*
X205492380Y-92210714D01*
X205444761Y-92305952D01*
X205397142Y-92353571D01*
X205301904Y-92401190D01*
X204920952Y-92401190D01*
X205920952Y-92877380D02*
X205920952Y-91877380D01*
X206254285Y-92591666D01*
X206587619Y-91877380D01*
X206587619Y-92877380D01*
X204016190Y-93963571D02*
X204159047Y-94011190D01*
X204206666Y-94058809D01*
X204254285Y-94154047D01*
X204254285Y-94296904D01*
X204206666Y-94392142D01*
X204159047Y-94439761D01*
X204063809Y-94487380D01*
X203682857Y-94487380D01*
X203682857Y-93487380D01*
X204016190Y-93487380D01*
X204111428Y-93535000D01*
X204159047Y-93582619D01*
X204206666Y-93677857D01*
X204206666Y-93773095D01*
X204159047Y-93868333D01*
X204111428Y-93915952D01*
X204016190Y-93963571D01*
X203682857Y-93963571D01*
X204682857Y-94487380D02*
X204682857Y-93820714D01*
X204682857Y-93487380D02*
X204635238Y-93535000D01*
X204682857Y-93582619D01*
X204730476Y-93535000D01*
X204682857Y-93487380D01*
X204682857Y-93582619D01*
X205587619Y-94487380D02*
X205587619Y-93963571D01*
X205540000Y-93868333D01*
X205444761Y-93820714D01*
X205254285Y-93820714D01*
X205159047Y-93868333D01*
X205587619Y-94439761D02*
X205492380Y-94487380D01*
X205254285Y-94487380D01*
X205159047Y-94439761D01*
X205111428Y-94344523D01*
X205111428Y-94249285D01*
X205159047Y-94154047D01*
X205254285Y-94106428D01*
X205492380Y-94106428D01*
X205587619Y-94058809D01*
X206016190Y-94439761D02*
X206111428Y-94487380D01*
X206301904Y-94487380D01*
X206397142Y-94439761D01*
X206444761Y-94344523D01*
X206444761Y-94296904D01*
X206397142Y-94201666D01*
X206301904Y-94154047D01*
X206159047Y-94154047D01*
X206063809Y-94106428D01*
X206016190Y-94011190D01*
X206016190Y-93963571D01*
X206063809Y-93868333D01*
X206159047Y-93820714D01*
X206301904Y-93820714D01*
X206397142Y-93868333D01*
D12*
X203010749Y-89407366D02*
G75*
G02X196980000Y-89410000I-3010749J-10592634D01*
G01*
D13*
X197300000Y-95630000D02*
X202900000Y-95630000D01*
X197300000Y-98770000D02*
X202900000Y-98770000D01*
D11*
X197575000Y-95200000D02*
G75*
G03X197575000Y-95200000I-100000J0D01*
G01*
X202875000Y-99200000D02*
G75*
G03X202875000Y-99200000I-100000J0D01*
G01*
D12*
X205270000Y-96170000D02*
X206600000Y-96170000D01*
X205270000Y-97500000D02*
X205270000Y-96170000D01*
X207870000Y-96170000D02*
X210470000Y-96170000D01*
X207870000Y-98770000D02*
X207870000Y-96170000D01*
X205270000Y-98770000D02*
X207870000Y-98770000D01*
X210470000Y-96170000D02*
X210470000Y-103910000D01*
X205270000Y-98770000D02*
X205270000Y-103910000D01*
X205270000Y-103910000D02*
X210470000Y-103910000D01*
D14*
X189775000Y-103580000D02*
X189775000Y-95960000D01*
X189775000Y-95960000D02*
X191045000Y-95960000D01*
X191045000Y-95960000D02*
X191045000Y-103580000D01*
X191045000Y-103580000D02*
X189775000Y-103580000D01*
X190948815Y-96595000D02*
G75*
G03X190948815Y-96595000I-538815J0D01*
G01*
X189902000Y-97230000D02*
X189902000Y-96087000D01*
X189902000Y-96087000D02*
X190918000Y-96087000D01*
X190918000Y-96087000D02*
X190918000Y-97230000D01*
X190918000Y-97230000D02*
X189902000Y-97230000D01*
X189902000Y-97103000D02*
X190918000Y-97103000D01*
D10*
X191620443Y-103682423D02*
X191479022Y-103823845D01*
X191479022Y-103823845D02*
X191479022Y-104389530D01*
X191479022Y-104389530D02*
X191620443Y-104530952D01*
X191620443Y-104530952D02*
X191479022Y-104672373D01*
X195155977Y-107500800D02*
X194873134Y-107783643D01*
X194873134Y-107783643D02*
X194590292Y-107500800D01*
X194873134Y-100429732D02*
X194590292Y-100712575D01*
X194873134Y-100429732D02*
X195155977Y-100712575D01*
X198267247Y-103823845D02*
X198550090Y-104106687D01*
X198550090Y-104106687D02*
X198267247Y-104389530D01*
D15*
X205865000Y-107490000D02*
G75*
G03X205865000Y-107490000I-125000J0D01*
G01*
D12*
X199240000Y-108041000D02*
X200540000Y-108041000D01*
X201600942Y-104577389D02*
X202452389Y-103725942D01*
X199677611Y-102654058D02*
X200529058Y-101802611D01*
D16*
X192828462Y-92793000D02*
X192263000Y-92793000D01*
M02*
