G04 #@! TF.GenerationSoftware,KiCad,Pcbnew,5.99.0-unknown-4135f0c~100~ubuntu18.04.1*
G04 #@! TF.CreationDate,2019-10-31T15:23:41-04:00*
G04 #@! TF.ProjectId,bias,62696173-2e6b-4696-9361-645f70636258,rev?*
G04 #@! TF.SameCoordinates,Original*
G04 #@! TF.FileFunction,Copper,L2,Bot*
G04 #@! TF.FilePolarity,Positive*
%FSLAX46Y46*%
G04 Gerber Fmt 4.6, Leading zero omitted, Abs format (unit mm)*
G04 Created by KiCad (PCBNEW 5.99.0-unknown-4135f0c~100~ubuntu18.04.1) date 2019-10-31 15:23:41*
%MOMM*%
%LPD*%
G04 APERTURE LIST*
%ADD10O,1.700000X1.700000*%
%ADD11R,1.700000X1.700000*%
%ADD12C,0.704800*%
%ADD13C,0.200000*%
%ADD14C,0.600000*%
%ADD15C,0.200000*%
G04 APERTURE END LIST*
G04 #@! TA.AperFunction,ComponentPad*
G36*
X204000061Y-95324504D02*
G01*
X204027491Y-95327854D01*
X204027513Y-95327857D01*
X204070643Y-95335077D01*
X204070664Y-95335081D01*
X204113434Y-95344171D01*
X204113455Y-95344176D01*
X204155785Y-95355126D01*
X204155806Y-95355132D01*
X204197616Y-95367912D01*
X204197637Y-95367919D01*
X204238857Y-95382519D01*
X204238877Y-95382526D01*
X204279417Y-95398906D01*
X204279437Y-95398915D01*
X204319227Y-95417045D01*
X204319247Y-95417054D01*
X204358207Y-95436904D01*
X204358226Y-95436915D01*
X204396276Y-95458445D01*
X204396295Y-95458456D01*
X204433385Y-95481626D01*
X204433403Y-95481638D01*
X204469433Y-95506408D01*
X204469451Y-95506421D01*
X204504371Y-95532731D01*
X204504388Y-95532744D01*
X204538128Y-95560554D01*
X204538145Y-95560568D01*
X204570635Y-95589828D01*
X204570650Y-95589843D01*
X204601840Y-95620493D01*
X204601856Y-95620509D01*
X204631676Y-95652479D01*
X204631690Y-95652495D01*
X204660090Y-95685745D01*
X204660104Y-95685762D01*
X204687024Y-95720222D01*
X204687037Y-95720240D01*
X204712427Y-95755840D01*
X204712439Y-95755858D01*
X204736249Y-95792528D01*
X204736261Y-95792546D01*
X204758461Y-95830216D01*
X204758472Y-95830235D01*
X204778992Y-95868845D01*
X204779001Y-95868865D01*
X204797831Y-95908325D01*
X204797840Y-95908345D01*
X204814920Y-95948595D01*
X204814928Y-95948615D01*
X204830248Y-95989575D01*
X204830256Y-95989595D01*
X204843766Y-96031175D01*
X204843772Y-96031196D01*
X204855452Y-96073336D01*
X204855457Y-96073357D01*
X204865297Y-96115957D01*
X204865302Y-96115979D01*
X204873272Y-96158969D01*
X204873275Y-96158991D01*
X204875495Y-96174931D01*
X204875500Y-96175000D01*
X204875500Y-98225000D01*
X204875495Y-98225069D01*
X204873275Y-98240999D01*
X204873272Y-98241021D01*
X204865302Y-98284011D01*
X204865297Y-98284033D01*
X204855457Y-98326643D01*
X204855452Y-98326664D01*
X204843772Y-98368794D01*
X204843766Y-98368814D01*
X204830256Y-98410404D01*
X204830248Y-98410425D01*
X204814938Y-98451375D01*
X204814930Y-98451395D01*
X204797840Y-98491645D01*
X204797831Y-98491665D01*
X204779011Y-98531135D01*
X204779001Y-98531155D01*
X204758471Y-98569755D01*
X204758461Y-98569774D01*
X204736271Y-98607454D01*
X204736259Y-98607472D01*
X204712439Y-98644142D01*
X204712427Y-98644160D01*
X204687037Y-98679760D01*
X204687024Y-98679778D01*
X204660104Y-98714228D01*
X204660090Y-98714245D01*
X204631700Y-98747495D01*
X204631686Y-98747511D01*
X204601866Y-98779491D01*
X204601850Y-98779507D01*
X204570660Y-98810157D01*
X204570644Y-98810172D01*
X204538144Y-98839422D01*
X204538128Y-98839436D01*
X204504398Y-98867256D01*
X204504381Y-98867269D01*
X204469461Y-98893579D01*
X204469443Y-98893592D01*
X204433403Y-98918362D01*
X204433385Y-98918374D01*
X204396305Y-98941544D01*
X204396286Y-98941555D01*
X204358226Y-98963085D01*
X204358207Y-98963096D01*
X204319247Y-98982946D01*
X204319227Y-98982955D01*
X204279447Y-99001085D01*
X204279427Y-99001094D01*
X204238887Y-99017474D01*
X204238867Y-99017481D01*
X204197647Y-99032081D01*
X204197626Y-99032088D01*
X204155806Y-99044868D01*
X204155785Y-99044874D01*
X204113455Y-99055824D01*
X204113434Y-99055829D01*
X204070664Y-99064919D01*
X204070643Y-99064923D01*
X204027523Y-99072143D01*
X204027501Y-99072146D01*
X204000061Y-99075496D01*
X204000000Y-99075500D01*
X203325000Y-99075500D01*
X203324567Y-99075250D01*
X203324500Y-99075000D01*
X203324500Y-95325000D01*
X203324750Y-95324567D01*
X203325000Y-95324500D01*
X204000000Y-95324500D01*
X204000061Y-95324504D01*
G37*
G04 #@! TD.AperFunction*
G04 #@! TA.AperFunction,ComponentPad*
G36*
X196875433Y-95324750D02*
G01*
X196875500Y-95325000D01*
X196875500Y-99075000D01*
X196875250Y-99075433D01*
X196875000Y-99075500D01*
X196200000Y-99075500D01*
X196199939Y-99075496D01*
X196172509Y-99072146D01*
X196172487Y-99072143D01*
X196129357Y-99064923D01*
X196129336Y-99064919D01*
X196086566Y-99055829D01*
X196086545Y-99055824D01*
X196044215Y-99044874D01*
X196044194Y-99044868D01*
X196002384Y-99032088D01*
X196002363Y-99032081D01*
X195961143Y-99017481D01*
X195961123Y-99017474D01*
X195920583Y-99001094D01*
X195920563Y-99001085D01*
X195880773Y-98982955D01*
X195880753Y-98982946D01*
X195841793Y-98963096D01*
X195841774Y-98963085D01*
X195803724Y-98941555D01*
X195803705Y-98941544D01*
X195766615Y-98918374D01*
X195766597Y-98918362D01*
X195730567Y-98893592D01*
X195730549Y-98893579D01*
X195695629Y-98867269D01*
X195695612Y-98867256D01*
X195661872Y-98839446D01*
X195661855Y-98839432D01*
X195629365Y-98810172D01*
X195629350Y-98810157D01*
X195598160Y-98779507D01*
X195598144Y-98779491D01*
X195568324Y-98747521D01*
X195568310Y-98747505D01*
X195539910Y-98714255D01*
X195539896Y-98714238D01*
X195512976Y-98679778D01*
X195512963Y-98679760D01*
X195487573Y-98644160D01*
X195487561Y-98644142D01*
X195463751Y-98607472D01*
X195463739Y-98607454D01*
X195441539Y-98569784D01*
X195441528Y-98569765D01*
X195421008Y-98531155D01*
X195420999Y-98531135D01*
X195402169Y-98491675D01*
X195402160Y-98491655D01*
X195385080Y-98451405D01*
X195385072Y-98451385D01*
X195369752Y-98410425D01*
X195369744Y-98410405D01*
X195356234Y-98368825D01*
X195356228Y-98368804D01*
X195344548Y-98326664D01*
X195344543Y-98326643D01*
X195334703Y-98284043D01*
X195334698Y-98284021D01*
X195326728Y-98241031D01*
X195326725Y-98241009D01*
X195324505Y-98225069D01*
X195324500Y-98225000D01*
X195324500Y-96175000D01*
X195324505Y-96174931D01*
X195326725Y-96159001D01*
X195326728Y-96158979D01*
X195334698Y-96115989D01*
X195334703Y-96115967D01*
X195344543Y-96073357D01*
X195344548Y-96073336D01*
X195356228Y-96031206D01*
X195356234Y-96031186D01*
X195369744Y-95989596D01*
X195369752Y-95989575D01*
X195385062Y-95948625D01*
X195385070Y-95948605D01*
X195402160Y-95908355D01*
X195402169Y-95908335D01*
X195420989Y-95868865D01*
X195420999Y-95868845D01*
X195441529Y-95830245D01*
X195441539Y-95830226D01*
X195463729Y-95792546D01*
X195463741Y-95792528D01*
X195487561Y-95755858D01*
X195487573Y-95755840D01*
X195512963Y-95720240D01*
X195512976Y-95720222D01*
X195539896Y-95685772D01*
X195539910Y-95685755D01*
X195568300Y-95652505D01*
X195568314Y-95652489D01*
X195598134Y-95620509D01*
X195598150Y-95620493D01*
X195629340Y-95589843D01*
X195629356Y-95589828D01*
X195661856Y-95560578D01*
X195661872Y-95560564D01*
X195695602Y-95532744D01*
X195695619Y-95532731D01*
X195730539Y-95506421D01*
X195730557Y-95506408D01*
X195766597Y-95481638D01*
X195766615Y-95481626D01*
X195803695Y-95458456D01*
X195803714Y-95458445D01*
X195841774Y-95436915D01*
X195841793Y-95436904D01*
X195880753Y-95417054D01*
X195880773Y-95417045D01*
X195920553Y-95398915D01*
X195920573Y-95398906D01*
X195961113Y-95382526D01*
X195961133Y-95382519D01*
X196002353Y-95367919D01*
X196002374Y-95367912D01*
X196044194Y-95355132D01*
X196044215Y-95355126D01*
X196086545Y-95344176D01*
X196086566Y-95344171D01*
X196129336Y-95335081D01*
X196129357Y-95335077D01*
X196172477Y-95327857D01*
X196172499Y-95327854D01*
X196199939Y-95324504D01*
X196200000Y-95324500D01*
X196875000Y-95324500D01*
X196875433Y-95324750D01*
G37*
G04 #@! TD.AperFunction*
G04 #@! TA.AperFunction,ComponentPad*
G36*
X196668378Y-98392049D02*
G01*
X196694387Y-98463508D01*
X196704445Y-98538885D01*
X196698081Y-98614663D01*
X196675594Y-98687308D01*
X196638032Y-98753429D01*
X196587148Y-98809941D01*
X196525315Y-98854209D01*
X196455419Y-98884166D01*
X196380721Y-98898415D01*
X196304706Y-98896292D01*
X196230920Y-98877896D01*
X196162805Y-98844082D01*
X196118427Y-98808402D01*
X195601215Y-98291189D01*
X195541622Y-98207950D01*
X195515613Y-98136491D01*
X195505555Y-98061114D01*
X195511919Y-97985337D01*
X195534406Y-97912692D01*
X195571968Y-97846571D01*
X195622852Y-97790059D01*
X195684685Y-97745791D01*
X195754581Y-97715834D01*
X195829279Y-97701585D01*
X195905293Y-97703708D01*
X195979079Y-97722104D01*
X196047194Y-97755918D01*
X196091572Y-97791598D01*
X196608785Y-98308810D01*
X196668378Y-98392049D01*
G37*
G04 #@! TD.AperFunction*
G04 #@! TA.AperFunction,ComponentPad*
G36*
X204658378Y-96192049D02*
G01*
X204684387Y-96263508D01*
X204694445Y-96338885D01*
X204688081Y-96414663D01*
X204665594Y-96487308D01*
X204628032Y-96553429D01*
X204577148Y-96609941D01*
X204515315Y-96654209D01*
X204445419Y-96684166D01*
X204370721Y-96698415D01*
X204294706Y-96696292D01*
X204220920Y-96677896D01*
X204152805Y-96644082D01*
X204108427Y-96608402D01*
X203591215Y-96091189D01*
X203531622Y-96007950D01*
X203505613Y-95936491D01*
X203495555Y-95861114D01*
X203501919Y-95785337D01*
X203524406Y-95712692D01*
X203561968Y-95646571D01*
X203612852Y-95590059D01*
X203674685Y-95545791D01*
X203744581Y-95515834D01*
X203819279Y-95501585D01*
X203895293Y-95503708D01*
X203969079Y-95522104D01*
X204037194Y-95555918D01*
X204081572Y-95591598D01*
X204598785Y-96108810D01*
X204658378Y-96192049D01*
G37*
G04 #@! TD.AperFunction*
G04 #@! TA.AperFunction,ComponentPad*
G36*
X196197049Y-95536622D02*
G01*
X196268508Y-95510613D01*
X196343885Y-95500555D01*
X196419663Y-95506919D01*
X196492308Y-95529406D01*
X196558429Y-95566968D01*
X196614941Y-95617852D01*
X196659209Y-95679685D01*
X196689166Y-95749581D01*
X196703415Y-95824279D01*
X196701292Y-95900294D01*
X196682896Y-95974080D01*
X196649082Y-96042195D01*
X196613402Y-96086573D01*
X196096189Y-96603785D01*
X196012950Y-96663378D01*
X195941491Y-96689387D01*
X195866114Y-96699445D01*
X195790337Y-96693081D01*
X195717692Y-96670594D01*
X195651571Y-96633032D01*
X195595059Y-96582148D01*
X195550791Y-96520315D01*
X195520834Y-96450419D01*
X195506585Y-96375721D01*
X195508708Y-96299707D01*
X195527104Y-96225921D01*
X195560918Y-96157806D01*
X195596598Y-96113428D01*
X196113810Y-95596215D01*
X196197049Y-95536622D01*
G37*
G04 #@! TD.AperFunction*
G04 #@! TA.AperFunction,ComponentPad*
G36*
X204187049Y-97736622D02*
G01*
X204258508Y-97710613D01*
X204333885Y-97700555D01*
X204409663Y-97706919D01*
X204482308Y-97729406D01*
X204548429Y-97766968D01*
X204604941Y-97817852D01*
X204649209Y-97879685D01*
X204679166Y-97949581D01*
X204693415Y-98024279D01*
X204691292Y-98100294D01*
X204672896Y-98174080D01*
X204639082Y-98242195D01*
X204603402Y-98286573D01*
X204086189Y-98803785D01*
X204002950Y-98863378D01*
X203931491Y-98889387D01*
X203856114Y-98899445D01*
X203780337Y-98893081D01*
X203707692Y-98870594D01*
X203641571Y-98833032D01*
X203585059Y-98782148D01*
X203540791Y-98720315D01*
X203510834Y-98650419D01*
X203496585Y-98575721D01*
X203498708Y-98499707D01*
X203517104Y-98425921D01*
X203550918Y-98357806D01*
X203586598Y-98313428D01*
X204103810Y-97796215D01*
X204187049Y-97736622D01*
G37*
G04 #@! TD.AperFunction*
D10*
X209140000Y-102580000D03*
X206600000Y-102580000D03*
X209140000Y-100040000D03*
X206600000Y-100040000D03*
X209140000Y-97500000D03*
D11*
X206600000Y-97500000D03*
D12*
X190410000Y-96595000D03*
X190410000Y-102945000D03*
D13*
X194873134Y-102692474D03*
X195580241Y-103399581D03*
X196287348Y-104106687D03*
X194166028Y-103399581D03*
X194873134Y-104106687D03*
X195580241Y-104813794D03*
X193458921Y-104106687D03*
X194166028Y-104813794D03*
X194873134Y-105520901D03*
D14*
X193400000Y-93500000D03*
X203465000Y-105590000D03*
X203465000Y-106440000D03*
X204315000Y-106440000D03*
X200540000Y-109241000D03*
X206970000Y-94010000D03*
X199379272Y-107070728D03*
X202830000Y-100140000D03*
X197940000Y-101660000D03*
X193920000Y-91830000D03*
X195100000Y-95270000D03*
X193390000Y-94390000D03*
X192440000Y-98840000D03*
X199840000Y-105710000D03*
X208280000Y-95600000D03*
X204240000Y-90670000D03*
X191910000Y-96620000D03*
X195060000Y-99910000D03*
X202950000Y-97259984D03*
X197206021Y-97242532D03*
X203708000Y-108966000D03*
X195600000Y-108770000D03*
X202380000Y-104650000D03*
X202323206Y-107534768D03*
X191460000Y-98810000D03*
X198340000Y-107000000D03*
X197631999Y-110220106D03*
X200600000Y-95569998D03*
X199840000Y-99170000D03*
X198629989Y-99220000D03*
X206240000Y-106790000D03*
X205560000Y-107760000D03*
X204284542Y-105593773D03*
X205150000Y-103510000D03*
X204440000Y-102690000D03*
D15*
X202679999Y-107177975D02*
X202323206Y-107534768D01*
X202679999Y-104949999D02*
X202679999Y-107177975D01*
X202380000Y-104650000D02*
X202679999Y-104949999D01*
X191460000Y-97645000D02*
X190410000Y-96595000D01*
X191460000Y-98810000D02*
X191460000Y-97645000D01*
X197711893Y-110300000D02*
X197631999Y-110220106D01*
X198820000Y-107480000D02*
X198820000Y-108650000D01*
X198340000Y-107000000D02*
X198820000Y-107480000D01*
X199470000Y-109300000D02*
X199470000Y-110120000D01*
X198820000Y-108650000D02*
X199470000Y-109300000D01*
X199290000Y-110300000D02*
X197711893Y-110300000D01*
X199470000Y-110120000D02*
X199290000Y-110300000D01*
X199790000Y-99220000D02*
X199840000Y-99170000D01*
X200600000Y-98410000D02*
X199840000Y-99170000D01*
X198629989Y-99220000D02*
X199790000Y-99220000D01*
X200600000Y-95569998D02*
X200600000Y-98410000D01*
X206340000Y-102950000D02*
X205910000Y-102520000D01*
X204470000Y-102690000D02*
X204440000Y-102690000D01*
X206220000Y-105468002D02*
X204440000Y-103688002D01*
X204440000Y-103688002D02*
X204440000Y-102690000D01*
X206220000Y-106860000D02*
X206220000Y-105468002D01*
G36*
X196701000Y-91968419D02*
G01*
X196695731Y-91993099D01*
X196695893Y-92004691D01*
X196697539Y-92109512D01*
X196697506Y-92109750D01*
X196698541Y-92121269D01*
X196730235Y-92476388D01*
X196732146Y-92482288D01*
X196732011Y-92488479D01*
X196734340Y-92499835D01*
X196806660Y-92849049D01*
X196809236Y-92854689D01*
X196809817Y-92860890D01*
X196813444Y-92871900D01*
X196925411Y-93210459D01*
X196928617Y-93215764D01*
X196929896Y-93221806D01*
X196934754Y-93232332D01*
X197084913Y-93555818D01*
X197088706Y-93560717D01*
X197090749Y-93566804D01*
X197096765Y-93576565D01*
X197283052Y-93880560D01*
X197287384Y-93884992D01*
X197290051Y-93890672D01*
X197297204Y-93899799D01*
X197517205Y-94180376D01*
X197522020Y-94184282D01*
X197525310Y-94189599D01*
X197533459Y-94197845D01*
X197784266Y-94451292D01*
X197789495Y-94454616D01*
X197793416Y-94459573D01*
X197802445Y-94466797D01*
X198080692Y-94689715D01*
X198086272Y-94692419D01*
X198090721Y-94696875D01*
X198100535Y-94703029D01*
X198402562Y-94892491D01*
X198408413Y-94894534D01*
X198413390Y-94898486D01*
X198423802Y-94903435D01*
X198745603Y-95056926D01*
X198751651Y-95058284D01*
X198756999Y-95061606D01*
X198767977Y-95065363D01*
X199105271Y-95180845D01*
X199111437Y-95181498D01*
X199117133Y-95184185D01*
X199128449Y-95186650D01*
X199476797Y-95262601D01*
X199482995Y-95262542D01*
X199488893Y-95264532D01*
X199500426Y-95265698D01*
X199855259Y-95301115D01*
X199861411Y-95300343D01*
X199867473Y-95301637D01*
X199879064Y-95301475D01*
X200061335Y-95298612D01*
X200001000Y-95464378D01*
X200001000Y-95675618D01*
X200073249Y-95874117D01*
X200201000Y-96026368D01*
X200201001Y-98244728D01*
X199877379Y-98568351D01*
X199840000Y-98561760D01*
X199631970Y-98598441D01*
X199449030Y-98704061D01*
X199350908Y-98821000D01*
X199077127Y-98821000D01*
X199020959Y-98754061D01*
X198838019Y-98648441D01*
X198629989Y-98611760D01*
X198421959Y-98648441D01*
X198239019Y-98754061D01*
X198103238Y-98915881D01*
X198030989Y-99114380D01*
X198030989Y-99325620D01*
X198103238Y-99524119D01*
X198239019Y-99685939D01*
X198421959Y-99791559D01*
X198629989Y-99828240D01*
X198838019Y-99791559D01*
X199020959Y-99685939D01*
X199077127Y-99619000D01*
X199434817Y-99619000D01*
X199449030Y-99635939D01*
X199631970Y-99741559D01*
X199840000Y-99778240D01*
X200048030Y-99741559D01*
X200230970Y-99635939D01*
X200366751Y-99474119D01*
X200439000Y-99275620D01*
X200439000Y-99135270D01*
X200834018Y-98740253D01*
X200854769Y-98730288D01*
X200897835Y-98676437D01*
X200913933Y-98660339D01*
X200925767Y-98641510D01*
X200968492Y-98588085D01*
X200973735Y-98565190D01*
X200986257Y-98545268D01*
X200994015Y-98476644D01*
X200999000Y-98454879D01*
X200999000Y-98432552D01*
X201006707Y-98364381D01*
X200999000Y-98342311D01*
X200999000Y-96026368D01*
X201126751Y-95874117D01*
X201199000Y-95675618D01*
X201199000Y-95464378D01*
X201143526Y-95311966D01*
X203020357Y-95311966D01*
X203020357Y-99081490D01*
X203029045Y-99147463D01*
X203032953Y-99162045D01*
X203073295Y-99249986D01*
X203162832Y-99333066D01*
X203184213Y-99345411D01*
X203311966Y-99379643D01*
X204001622Y-99379643D01*
X204018285Y-99379097D01*
X204021344Y-99378896D01*
X204035541Y-99377565D01*
X204064698Y-99374006D01*
X204068246Y-99373548D01*
X204069367Y-99373395D01*
X204077013Y-99372233D01*
X204121407Y-99364800D01*
X204127003Y-99363799D01*
X204128092Y-99363592D01*
X204133382Y-99362525D01*
X204177254Y-99353201D01*
X204183297Y-99351840D01*
X204184356Y-99351587D01*
X204189149Y-99350398D01*
X204232561Y-99339168D01*
X204238744Y-99337485D01*
X204239791Y-99337186D01*
X204244256Y-99335866D01*
X204287110Y-99322770D01*
X204293215Y-99320820D01*
X204294260Y-99320472D01*
X204298754Y-99318928D01*
X204422169Y-99275214D01*
X204422663Y-99276067D01*
X204427524Y-99273317D01*
X204435461Y-99270506D01*
X204434942Y-99269121D01*
X204477362Y-99245125D01*
X204536783Y-99218043D01*
X204534343Y-99212892D01*
X204546248Y-99206157D01*
X204548456Y-99204893D01*
X204549414Y-99204339D01*
X204556769Y-99199914D01*
X204595175Y-99175915D01*
X204601485Y-99171841D01*
X204602395Y-99171235D01*
X204605378Y-99169217D01*
X204642196Y-99143912D01*
X204647053Y-99140488D01*
X204647933Y-99139853D01*
X204652075Y-99136798D01*
X204687551Y-99110069D01*
X204689001Y-99108968D01*
X204689872Y-99108302D01*
X204697215Y-99102470D01*
X204732205Y-99073611D01*
X204737864Y-99068803D01*
X204738689Y-99068081D01*
X204741352Y-99065718D01*
X204774480Y-99035902D01*
X204778294Y-99032398D01*
X204779099Y-99031643D01*
X204783419Y-99027497D01*
X204815181Y-98996286D01*
X204816760Y-98994721D01*
X204817539Y-98993941D01*
X204823718Y-98987542D01*
X204854660Y-98954359D01*
X204860060Y-98948382D01*
X204860789Y-98947549D01*
X204862806Y-98945216D01*
X204891679Y-98911399D01*
X204894590Y-98907927D01*
X204895286Y-98907082D01*
X204899368Y-98901994D01*
X204927252Y-98866310D01*
X204933038Y-98858610D01*
X204933685Y-98857714D01*
X204934569Y-98856483D01*
X204960498Y-98820127D01*
X204965056Y-98813518D01*
X204965666Y-98812603D01*
X204967335Y-98810066D01*
X204974369Y-98799237D01*
X204979399Y-98802066D01*
X205010428Y-98743726D01*
X205044886Y-98690679D01*
X205040262Y-98687632D01*
X205047821Y-98673420D01*
X205050758Y-98667724D01*
X205051251Y-98666740D01*
X205053342Y-98662457D01*
X205072599Y-98622071D01*
X205074962Y-98616969D01*
X205075408Y-98615978D01*
X205077585Y-98611003D01*
X205095089Y-98569777D01*
X205097128Y-98564828D01*
X205097533Y-98563816D01*
X205099622Y-98558419D01*
X205149022Y-98426287D01*
X205144004Y-98424280D01*
X205148782Y-98407044D01*
X205151113Y-98397993D01*
X205151368Y-98396925D01*
X205151762Y-98395242D01*
X205154924Y-98381550D01*
X205160648Y-98382431D01*
X205176953Y-98265427D01*
X205178725Y-98248684D01*
X205178978Y-98245195D01*
X205179643Y-98226789D01*
X205179643Y-96640250D01*
X205447082Y-96640250D01*
X205447082Y-98359750D01*
X205468348Y-98466664D01*
X205534433Y-98565567D01*
X205633336Y-98631652D01*
X205740250Y-98652918D01*
X207459750Y-98652918D01*
X207566664Y-98631652D01*
X207665567Y-98565567D01*
X207731652Y-98466664D01*
X207752918Y-98359750D01*
X207752918Y-97596611D01*
X207989494Y-97596611D01*
X208030171Y-97818238D01*
X208113121Y-98027745D01*
X208235183Y-98217150D01*
X208391710Y-98379238D01*
X208576739Y-98507837D01*
X208783223Y-98598047D01*
X209003296Y-98646433D01*
X209228577Y-98651152D01*
X209450483Y-98612024D01*
X209660563Y-98530539D01*
X209850815Y-98409801D01*
X210013992Y-98254410D01*
X210143880Y-98070283D01*
X210235529Y-97864434D01*
X210285605Y-97644024D01*
X210289181Y-97388020D01*
X210245278Y-97166296D01*
X210159411Y-96957969D01*
X210034715Y-96770288D01*
X209875941Y-96610401D01*
X209689135Y-96484397D01*
X209481411Y-96397079D01*
X209260684Y-96351770D01*
X209035359Y-96350197D01*
X208814021Y-96392420D01*
X208605100Y-96476829D01*
X208416552Y-96600212D01*
X208255560Y-96757867D01*
X208128256Y-96943789D01*
X208039490Y-97150898D01*
X207992640Y-97371302D01*
X207989494Y-97596611D01*
X207752918Y-97596611D01*
X207752918Y-96640250D01*
X207731652Y-96533336D01*
X207665567Y-96434433D01*
X207566664Y-96368348D01*
X207459750Y-96347082D01*
X205740250Y-96347082D01*
X205633336Y-96368348D01*
X205534433Y-96434433D01*
X205468348Y-96533336D01*
X205447082Y-96640250D01*
X205179643Y-96640250D01*
X205179643Y-96173211D01*
X205178978Y-96154805D01*
X205178725Y-96151317D01*
X205176956Y-96134594D01*
X205160484Y-96016323D01*
X205154658Y-96017294D01*
X205151757Y-96004734D01*
X205151365Y-96003063D01*
X205151115Y-96002012D01*
X205148788Y-95992977D01*
X205144681Y-95978160D01*
X205149970Y-95976211D01*
X205099599Y-95841538D01*
X205097523Y-95836173D01*
X205097120Y-95835167D01*
X205095102Y-95830268D01*
X205077608Y-95789041D01*
X205075411Y-95784017D01*
X205074958Y-95783011D01*
X205072561Y-95777840D01*
X205041080Y-95711869D01*
X205044881Y-95709364D01*
X205026031Y-95680333D01*
X205011039Y-95648916D01*
X205006900Y-95650869D01*
X204967368Y-95589985D01*
X204965673Y-95587407D01*
X204965056Y-95586482D01*
X204960498Y-95579873D01*
X204934569Y-95543517D01*
X204933685Y-95542286D01*
X204933042Y-95541396D01*
X204927279Y-95533724D01*
X204899388Y-95498021D01*
X204895285Y-95492906D01*
X204894588Y-95492060D01*
X204891649Y-95488555D01*
X204862764Y-95454737D01*
X204860775Y-95452437D01*
X204860049Y-95451607D01*
X204854623Y-95445601D01*
X204823678Y-95412425D01*
X204817525Y-95406055D01*
X204816750Y-95405279D01*
X204815171Y-95403714D01*
X204811127Y-95399740D01*
X204815682Y-95395184D01*
X204758677Y-95348198D01*
X204713827Y-95304125D01*
X204709932Y-95308020D01*
X204697135Y-95297473D01*
X204689856Y-95291694D01*
X204688991Y-95291032D01*
X204687541Y-95289931D01*
X204652065Y-95263202D01*
X204647923Y-95260147D01*
X204647042Y-95259511D01*
X204642211Y-95256106D01*
X204605413Y-95230808D01*
X204602404Y-95228771D01*
X204601488Y-95228160D01*
X204595151Y-95224069D01*
X204556725Y-95200065D01*
X204549397Y-95195657D01*
X204548465Y-95195117D01*
X204546283Y-95193867D01*
X204534325Y-95187101D01*
X204536769Y-95181940D01*
X204477383Y-95154881D01*
X204434937Y-95130864D01*
X204435451Y-95129494D01*
X204427603Y-95126714D01*
X204421730Y-95123391D01*
X204421146Y-95124427D01*
X204298744Y-95081072D01*
X204294250Y-95079528D01*
X204293206Y-95079180D01*
X204287118Y-95077235D01*
X204244274Y-95064139D01*
X204239793Y-95062815D01*
X204238744Y-95062515D01*
X204232561Y-95060832D01*
X204189149Y-95049602D01*
X204184356Y-95048413D01*
X204183297Y-95048160D01*
X204177254Y-95046799D01*
X204133382Y-95037475D01*
X204128092Y-95036408D01*
X204127011Y-95036202D01*
X204121406Y-95035199D01*
X204076987Y-95027763D01*
X204069350Y-95026604D01*
X204068238Y-95026453D01*
X204064702Y-95025996D01*
X204035553Y-95022436D01*
X204021345Y-95021104D01*
X204018285Y-95020903D01*
X204001622Y-95020357D01*
X203318510Y-95020357D01*
X203252537Y-95029045D01*
X203237955Y-95032953D01*
X203150014Y-95073295D01*
X203066934Y-95162832D01*
X203054589Y-95184213D01*
X203020357Y-95311966D01*
X201143526Y-95311966D01*
X201126751Y-95265879D01*
X201021762Y-95140756D01*
X201338143Y-95021205D01*
X201343310Y-95017779D01*
X201349389Y-95016224D01*
X201359691Y-95010911D01*
X201676527Y-94847379D01*
X201681264Y-94843383D01*
X201687180Y-94841118D01*
X201696839Y-94834614D01*
X201992683Y-94635815D01*
X201996929Y-94631302D01*
X202002570Y-94628359D01*
X202011432Y-94620768D01*
X202282431Y-94389314D01*
X202286134Y-94384337D01*
X202291291Y-94380839D01*
X202299191Y-94372357D01*
X202541925Y-94111143D01*
X202545029Y-94105779D01*
X202549820Y-94101650D01*
X202556658Y-94092328D01*
X202767729Y-93804990D01*
X202770196Y-93799302D01*
X202774405Y-93794733D01*
X202780164Y-93784671D01*
X202956847Y-93474912D01*
X202958643Y-93468981D01*
X202962369Y-93463863D01*
X202966892Y-93453232D01*
X203106773Y-93125286D01*
X203107876Y-93119186D01*
X203110941Y-93113758D01*
X203114245Y-93102646D01*
X203215521Y-92760746D01*
X203215916Y-92754561D01*
X203218381Y-92748710D01*
X203220351Y-92737344D01*
X203281649Y-92386120D01*
X203281330Y-92379929D01*
X203283073Y-92373949D01*
X203283754Y-92362376D01*
X203304281Y-92006378D01*
X203299000Y-91974990D01*
X203299000Y-89813198D01*
X203523296Y-89883929D01*
X204117043Y-90110690D01*
X204696282Y-90372256D01*
X205259004Y-90667723D01*
X205803205Y-90996038D01*
X206326990Y-91356060D01*
X206828502Y-91746510D01*
X207305958Y-92166002D01*
X207757702Y-92613080D01*
X208182146Y-93086173D01*
X208577775Y-93583591D01*
X208943205Y-94103594D01*
X209277170Y-94644383D01*
X209578460Y-95203997D01*
X209846027Y-95780488D01*
X210078947Y-96371865D01*
X210276367Y-96975965D01*
X210437632Y-97590778D01*
X210562142Y-98214033D01*
X210649471Y-98843574D01*
X210699308Y-99477183D01*
X210711481Y-100112649D01*
X210685947Y-100747695D01*
X210622794Y-101380134D01*
X210522243Y-102007717D01*
X210384657Y-102628199D01*
X210210509Y-103239447D01*
X210000418Y-103839291D01*
X209755114Y-104425639D01*
X209475479Y-104996382D01*
X209162480Y-105549550D01*
X208817233Y-106083168D01*
X208440941Y-106595380D01*
X208034932Y-107084377D01*
X207600643Y-107548427D01*
X207139591Y-107985909D01*
X206653398Y-108395286D01*
X206143821Y-108775077D01*
X205612582Y-109124004D01*
X205061581Y-109440812D01*
X204492785Y-109724371D01*
X203908146Y-109973712D01*
X203309775Y-110187929D01*
X202699718Y-110366293D01*
X202080199Y-110508154D01*
X201453326Y-110613028D01*
X200821357Y-110680539D01*
X200186496Y-110710449D01*
X199550929Y-110702656D01*
X199385788Y-110690811D01*
X199424635Y-110686488D01*
X199444532Y-110674007D01*
X199467479Y-110668772D01*
X199521498Y-110625726D01*
X199540401Y-110613869D01*
X199556181Y-110598089D01*
X199609844Y-110555328D01*
X199620002Y-110534269D01*
X199704018Y-110450253D01*
X199724769Y-110440288D01*
X199767840Y-110386431D01*
X199783933Y-110370337D01*
X199795759Y-110351520D01*
X199838492Y-110298086D01*
X199843735Y-110275190D01*
X199856257Y-110255268D01*
X199864015Y-110186644D01*
X199869000Y-110164879D01*
X199869000Y-110142552D01*
X199876707Y-110074381D01*
X199869000Y-110052311D01*
X199869000Y-109368046D01*
X199876626Y-109346329D01*
X199869000Y-109277792D01*
X199869000Y-109255030D01*
X199864054Y-109233351D01*
X199856489Y-109165363D01*
X199844007Y-109145467D01*
X199838773Y-109122521D01*
X199795731Y-109068508D01*
X199783869Y-109049598D01*
X199768081Y-109033810D01*
X199725327Y-108980156D01*
X199704272Y-108970000D01*
X199219000Y-108484729D01*
X199219000Y-107548047D01*
X199226627Y-107526330D01*
X199219000Y-107457787D01*
X199219000Y-107435030D01*
X199214055Y-107413351D01*
X199206489Y-107345362D01*
X199194007Y-107325466D01*
X199188773Y-107302521D01*
X199145731Y-107248508D01*
X199133869Y-107229598D01*
X199118081Y-107213810D01*
X199075327Y-107160156D01*
X199054272Y-107150000D01*
X198939000Y-107034728D01*
X198939000Y-106894380D01*
X198866751Y-106695881D01*
X198730970Y-106534061D01*
X198548030Y-106428441D01*
X198340000Y-106391760D01*
X198131970Y-106428441D01*
X197949030Y-106534061D01*
X197813249Y-106695881D01*
X197741000Y-106894380D01*
X197741000Y-107105620D01*
X197813249Y-107304119D01*
X197949030Y-107465939D01*
X198131970Y-107571559D01*
X198340000Y-107608240D01*
X198377379Y-107601649D01*
X198421000Y-107645271D01*
X198421001Y-108581951D01*
X198413374Y-108603671D01*
X198421001Y-108672213D01*
X198421001Y-108694970D01*
X198425946Y-108716649D01*
X198433512Y-108784637D01*
X198445993Y-108804533D01*
X198451227Y-108827478D01*
X198494271Y-108881495D01*
X198506131Y-108900401D01*
X198521916Y-108916186D01*
X198564672Y-108969843D01*
X198585728Y-108980000D01*
X199071000Y-109465272D01*
X199071001Y-109901000D01*
X198146175Y-109901000D01*
X198022969Y-109754167D01*
X197840029Y-109648547D01*
X197631999Y-109611866D01*
X197423969Y-109648547D01*
X197241029Y-109754167D01*
X197105248Y-109915987D01*
X197032999Y-110114486D01*
X197032999Y-110292540D01*
X196441435Y-110103719D01*
X195848458Y-109874877D01*
X195270140Y-109611292D01*
X194708450Y-109313861D01*
X194165393Y-108983646D01*
X193642883Y-108621808D01*
X193142730Y-108229603D01*
X192666727Y-107808432D01*
X192216561Y-107359795D01*
X191793769Y-106885222D01*
X191399872Y-106386416D01*
X191036272Y-105865161D01*
X191033507Y-105860648D01*
X194534801Y-105860648D01*
X194756086Y-105960796D01*
X194904887Y-105974994D01*
X195050262Y-105940226D01*
X195197677Y-105846858D01*
X194873134Y-105522315D01*
X194534801Y-105860648D01*
X191033507Y-105860648D01*
X190822896Y-105516928D01*
X194417951Y-105516928D01*
X194441205Y-105664585D01*
X194540362Y-105852259D01*
X194871720Y-105520901D01*
X194874548Y-105520901D01*
X195224268Y-105870622D01*
X195320993Y-105602697D01*
X195322351Y-105446934D01*
X195273929Y-105305097D01*
X195193820Y-105201629D01*
X194874548Y-105520901D01*
X194871720Y-105520901D01*
X194542079Y-105191259D01*
X194443778Y-105369701D01*
X194417951Y-105516928D01*
X190822896Y-105516928D01*
X190704198Y-105323211D01*
X190613613Y-105153541D01*
X193827695Y-105153541D01*
X194048980Y-105253689D01*
X194197781Y-105267887D01*
X194343156Y-105233119D01*
X194428809Y-105178869D01*
X194532516Y-105178869D01*
X194873134Y-105519487D01*
X195196465Y-105196156D01*
X195131717Y-105153541D01*
X195241908Y-105153541D01*
X195463193Y-105253689D01*
X195611994Y-105267887D01*
X195757369Y-105233119D01*
X195904784Y-105139751D01*
X195580241Y-104815208D01*
X195241908Y-105153541D01*
X195131717Y-105153541D01*
X195057556Y-105104732D01*
X194912807Y-105067432D01*
X194763782Y-105079030D01*
X194532516Y-105178869D01*
X194428809Y-105178869D01*
X194490571Y-105139751D01*
X194166028Y-104815208D01*
X193827695Y-105153541D01*
X190613613Y-105153541D01*
X190430102Y-104809821D01*
X193710845Y-104809821D01*
X193734099Y-104957478D01*
X193833256Y-105145152D01*
X194164614Y-104813794D01*
X194167442Y-104813794D01*
X194517162Y-105163515D01*
X194613887Y-104895590D01*
X194614634Y-104809821D01*
X195125058Y-104809821D01*
X195148312Y-104957478D01*
X195247469Y-105145152D01*
X195578827Y-104813794D01*
X195581655Y-104813794D01*
X195931375Y-105163515D01*
X196028100Y-104895590D01*
X196029458Y-104739827D01*
X195981036Y-104597990D01*
X195900927Y-104494522D01*
X195581655Y-104813794D01*
X195578827Y-104813794D01*
X195249186Y-104484152D01*
X195150885Y-104662594D01*
X195125058Y-104809821D01*
X194614634Y-104809821D01*
X194615245Y-104739827D01*
X194566823Y-104597990D01*
X194486714Y-104494522D01*
X194167442Y-104813794D01*
X194164614Y-104813794D01*
X193834973Y-104484152D01*
X193736672Y-104662594D01*
X193710845Y-104809821D01*
X190430102Y-104809821D01*
X190404864Y-104762550D01*
X190259484Y-104446434D01*
X193120588Y-104446434D01*
X193341873Y-104546582D01*
X193490674Y-104560780D01*
X193636049Y-104526012D01*
X193721702Y-104471762D01*
X193825410Y-104471762D01*
X194166028Y-104812380D01*
X194489359Y-104489049D01*
X194424611Y-104446434D01*
X194534801Y-104446434D01*
X194756086Y-104546582D01*
X194904887Y-104560780D01*
X195050262Y-104526012D01*
X195135915Y-104471762D01*
X195239623Y-104471762D01*
X195580241Y-104812380D01*
X195903572Y-104489049D01*
X195838824Y-104446434D01*
X195949015Y-104446434D01*
X196170300Y-104546582D01*
X196319101Y-104560780D01*
X196464476Y-104526012D01*
X196611891Y-104432644D01*
X196287348Y-104108101D01*
X195949015Y-104446434D01*
X195838824Y-104446434D01*
X195764663Y-104397625D01*
X195619914Y-104360325D01*
X195470889Y-104371923D01*
X195239623Y-104471762D01*
X195135915Y-104471762D01*
X195197677Y-104432644D01*
X194873134Y-104108101D01*
X194534801Y-104446434D01*
X194424611Y-104446434D01*
X194350450Y-104397625D01*
X194205701Y-104360325D01*
X194056676Y-104371923D01*
X193825410Y-104471762D01*
X193721702Y-104471762D01*
X193783464Y-104432644D01*
X193458921Y-104108101D01*
X193120588Y-104446434D01*
X190259484Y-104446434D01*
X190139300Y-104185107D01*
X190107181Y-104102714D01*
X193003738Y-104102714D01*
X193026992Y-104250371D01*
X193126149Y-104438045D01*
X193457507Y-104106687D01*
X193460335Y-104106687D01*
X193810055Y-104456408D01*
X193906780Y-104188483D01*
X193907527Y-104102714D01*
X194417951Y-104102714D01*
X194441205Y-104250371D01*
X194540362Y-104438045D01*
X194871720Y-104106687D01*
X194874548Y-104106687D01*
X195224268Y-104456408D01*
X195320993Y-104188483D01*
X195321740Y-104102714D01*
X195832165Y-104102714D01*
X195855419Y-104250371D01*
X195954576Y-104438045D01*
X196285934Y-104106687D01*
X196288762Y-104106687D01*
X196638482Y-104456408D01*
X196735207Y-104188483D01*
X196736565Y-104032720D01*
X196688143Y-103890883D01*
X196608034Y-103787415D01*
X196288762Y-104106687D01*
X196285934Y-104106687D01*
X195956293Y-103777045D01*
X195857992Y-103955487D01*
X195832165Y-104102714D01*
X195321740Y-104102714D01*
X195322351Y-104032720D01*
X195273929Y-103890883D01*
X195193820Y-103787415D01*
X194874548Y-104106687D01*
X194871720Y-104106687D01*
X194542079Y-103777045D01*
X194443778Y-103955487D01*
X194417951Y-104102714D01*
X193907527Y-104102714D01*
X193908138Y-104032720D01*
X193859716Y-103890883D01*
X193779607Y-103787415D01*
X193460335Y-104106687D01*
X193457507Y-104106687D01*
X193127866Y-103777045D01*
X193029565Y-103955487D01*
X193003738Y-104102714D01*
X190107181Y-104102714D01*
X189975396Y-103764655D01*
X193118303Y-103764655D01*
X193458921Y-104105273D01*
X193782252Y-103781942D01*
X193717505Y-103739328D01*
X193827695Y-103739328D01*
X194048980Y-103839476D01*
X194197781Y-103853674D01*
X194343156Y-103818906D01*
X194428810Y-103764655D01*
X194532516Y-103764655D01*
X194873134Y-104105273D01*
X195196465Y-103781942D01*
X195131718Y-103739328D01*
X195241908Y-103739328D01*
X195463193Y-103839476D01*
X195611994Y-103853674D01*
X195757369Y-103818906D01*
X195843023Y-103764655D01*
X195946730Y-103764655D01*
X196287348Y-104105273D01*
X196610679Y-103781942D01*
X196584646Y-103764808D01*
X198168665Y-103764808D01*
X201490640Y-106581574D01*
X202281000Y-106579971D01*
X202281000Y-106933970D01*
X202115176Y-106963209D01*
X201932236Y-107068829D01*
X201796455Y-107230649D01*
X201724206Y-107429148D01*
X201724206Y-107640388D01*
X201796455Y-107838887D01*
X201932236Y-108000707D01*
X202115176Y-108106327D01*
X202323206Y-108143008D01*
X202531236Y-108106327D01*
X202714176Y-108000707D01*
X202849957Y-107838887D01*
X202922206Y-107640388D01*
X202922206Y-107504295D01*
X202934768Y-107498263D01*
X202977834Y-107444412D01*
X202993932Y-107428314D01*
X203005766Y-107409485D01*
X203048491Y-107356060D01*
X203053734Y-107333165D01*
X203066256Y-107313243D01*
X203074014Y-107244619D01*
X203078999Y-107222854D01*
X203078999Y-107200527D01*
X203086706Y-107132356D01*
X203078999Y-107110286D01*
X203078999Y-105018045D01*
X203086625Y-104996328D01*
X203078999Y-104927791D01*
X203078999Y-104905029D01*
X203074053Y-104883350D01*
X203066488Y-104815362D01*
X203054006Y-104795466D01*
X203048772Y-104772520D01*
X203005730Y-104718507D01*
X202993868Y-104699597D01*
X202979000Y-104684728D01*
X202979000Y-104544380D01*
X202906751Y-104345881D01*
X202828177Y-104252239D01*
X202834445Y-104184081D01*
X204041001Y-103318307D01*
X204041000Y-103619956D01*
X204033374Y-103641673D01*
X204041000Y-103710206D01*
X204041000Y-103732971D01*
X204045946Y-103754653D01*
X204053512Y-103822639D01*
X204065993Y-103842535D01*
X204071226Y-103865478D01*
X204114272Y-103919498D01*
X204126131Y-103938403D01*
X204141913Y-103954185D01*
X204184671Y-104007844D01*
X204205728Y-104018002D01*
X205821001Y-105633275D01*
X205821000Y-106357466D01*
X205713249Y-106485881D01*
X205641000Y-106684380D01*
X205641000Y-106895620D01*
X205713249Y-107094119D01*
X205849030Y-107255939D01*
X206031970Y-107361559D01*
X206240000Y-107398240D01*
X206448030Y-107361559D01*
X206630970Y-107255939D01*
X206766751Y-107094119D01*
X206839000Y-106895620D01*
X206839000Y-106684380D01*
X206766751Y-106485881D01*
X206630970Y-106324061D01*
X206619000Y-106317150D01*
X206619000Y-105536048D01*
X206626626Y-105514331D01*
X206619000Y-105445798D01*
X206619000Y-105423032D01*
X206614054Y-105401350D01*
X206606488Y-105333364D01*
X206594007Y-105313468D01*
X206588774Y-105290525D01*
X206545728Y-105236506D01*
X206533870Y-105217600D01*
X206518085Y-105201815D01*
X206475328Y-105148158D01*
X206454271Y-105138001D01*
X204839000Y-103522731D01*
X204839000Y-103146370D01*
X204966751Y-102994119D01*
X205039000Y-102795620D01*
X205039000Y-102676611D01*
X205449494Y-102676611D01*
X205490171Y-102898238D01*
X205573121Y-103107745D01*
X205695183Y-103297150D01*
X205851710Y-103459238D01*
X206036739Y-103587837D01*
X206243223Y-103678047D01*
X206463296Y-103726433D01*
X206688577Y-103731152D01*
X206910483Y-103692024D01*
X207120563Y-103610539D01*
X207310815Y-103489801D01*
X207473992Y-103334410D01*
X207603880Y-103150283D01*
X207695529Y-102944434D01*
X207745605Y-102724024D01*
X207747252Y-102606000D01*
X207938330Y-102606000D01*
X207956490Y-102803626D01*
X208020128Y-103023389D01*
X208124175Y-103227152D01*
X208264875Y-103407565D01*
X208437152Y-103558116D01*
X208634790Y-103673375D01*
X208850657Y-103749182D01*
X209114000Y-103788303D01*
X209114000Y-102606000D01*
X209166000Y-102606000D01*
X209166000Y-103778993D01*
X209305546Y-103773022D01*
X209528154Y-103720194D01*
X209736756Y-103626225D01*
X209923826Y-103494506D01*
X210082614Y-103329790D01*
X210207391Y-103138019D01*
X210293652Y-102926112D01*
X210357326Y-102606000D01*
X209166000Y-102606000D01*
X209114000Y-102606000D01*
X207938330Y-102606000D01*
X207747252Y-102606000D01*
X207747979Y-102554000D01*
X207937711Y-102554000D01*
X209114000Y-102554000D01*
X209166000Y-102554000D01*
X210355849Y-102554000D01*
X210296040Y-102241950D01*
X210211260Y-102029447D01*
X210087826Y-101836810D01*
X209930192Y-101670989D01*
X209744046Y-101537966D01*
X209536105Y-101442543D01*
X209313870Y-101388163D01*
X209166000Y-101380803D01*
X209166000Y-102554000D01*
X209114000Y-102554000D01*
X209114000Y-101372737D01*
X208858826Y-101408826D01*
X208642435Y-101483125D01*
X208443998Y-101597002D01*
X208270674Y-101746347D01*
X208128718Y-101925773D01*
X208023251Y-102128805D01*
X207958080Y-102348117D01*
X207937711Y-102554000D01*
X207747979Y-102554000D01*
X207749181Y-102468020D01*
X207705278Y-102246296D01*
X207619411Y-102037969D01*
X207494715Y-101850288D01*
X207335941Y-101690401D01*
X207149135Y-101564397D01*
X206941411Y-101477079D01*
X206720684Y-101431770D01*
X206495359Y-101430197D01*
X206274021Y-101472420D01*
X206065100Y-101556829D01*
X205876552Y-101680212D01*
X205715560Y-101837867D01*
X205588256Y-102023789D01*
X205499490Y-102230898D01*
X205452640Y-102451302D01*
X205449494Y-102676611D01*
X205039000Y-102676611D01*
X205039000Y-102584380D01*
X204966751Y-102385881D01*
X204830970Y-102224061D01*
X204648030Y-102118441D01*
X204440000Y-102081760D01*
X204231970Y-102118441D01*
X204049030Y-102224061D01*
X203913249Y-102385881D01*
X203841000Y-102584380D01*
X203841000Y-102795620D01*
X203864167Y-102859271D01*
X201429323Y-100377961D01*
X198168665Y-103764808D01*
X196584646Y-103764808D01*
X196471770Y-103690518D01*
X196327021Y-103653218D01*
X196177996Y-103664816D01*
X195946730Y-103764655D01*
X195843023Y-103764655D01*
X195904784Y-103725538D01*
X195580241Y-103400995D01*
X195241908Y-103739328D01*
X195131718Y-103739328D01*
X195057556Y-103690518D01*
X194912807Y-103653218D01*
X194763782Y-103664816D01*
X194532516Y-103764655D01*
X194428810Y-103764655D01*
X194490571Y-103725538D01*
X194166028Y-103400995D01*
X193827695Y-103739328D01*
X193717505Y-103739328D01*
X193643343Y-103690518D01*
X193498594Y-103653218D01*
X193349569Y-103664816D01*
X193118303Y-103764655D01*
X189975396Y-103764655D01*
X189908455Y-103592939D01*
X189869373Y-103471919D01*
X189919851Y-103471919D01*
X190139269Y-103598600D01*
X190317659Y-103646400D01*
X190502341Y-103646400D01*
X190680731Y-103598600D01*
X190900149Y-103471919D01*
X190410000Y-102981770D01*
X189919851Y-103471919D01*
X189869373Y-103471919D01*
X189825021Y-103334585D01*
X189883081Y-103435149D01*
X190373230Y-102945000D01*
X190446770Y-102945000D01*
X190936919Y-103435149D01*
X190959747Y-103395608D01*
X193710845Y-103395608D01*
X193734099Y-103543265D01*
X193833256Y-103730939D01*
X194164614Y-103399581D01*
X194167442Y-103399581D01*
X194517162Y-103749302D01*
X194613887Y-103481377D01*
X194614634Y-103395608D01*
X195125058Y-103395608D01*
X195148312Y-103543265D01*
X195247469Y-103730939D01*
X195578827Y-103399581D01*
X195581655Y-103399581D01*
X195931375Y-103749302D01*
X196028100Y-103481377D01*
X196029458Y-103325614D01*
X195981036Y-103183777D01*
X195900927Y-103080309D01*
X195581655Y-103399581D01*
X195578827Y-103399581D01*
X195249186Y-103069939D01*
X195150885Y-103248381D01*
X195125058Y-103395608D01*
X194614634Y-103395608D01*
X194615245Y-103325614D01*
X194566823Y-103183777D01*
X194486714Y-103080309D01*
X194167442Y-103399581D01*
X194164614Y-103399581D01*
X193834973Y-103069939D01*
X193736672Y-103248381D01*
X193710845Y-103395608D01*
X190959747Y-103395608D01*
X191063600Y-103215731D01*
X191105985Y-103057549D01*
X193825410Y-103057549D01*
X194166028Y-103398167D01*
X194489359Y-103074836D01*
X194424611Y-103032221D01*
X194534801Y-103032221D01*
X194756086Y-103132369D01*
X194904887Y-103146567D01*
X195050262Y-103111799D01*
X195135915Y-103057549D01*
X195239623Y-103057549D01*
X195580241Y-103398167D01*
X195903572Y-103074836D01*
X195764663Y-102983412D01*
X195619914Y-102946112D01*
X195470889Y-102957710D01*
X195239623Y-103057549D01*
X195135915Y-103057549D01*
X195197677Y-103018431D01*
X194873134Y-102693888D01*
X194534801Y-103032221D01*
X194424611Y-103032221D01*
X194350450Y-102983412D01*
X194205701Y-102946112D01*
X194056676Y-102957710D01*
X193825410Y-103057549D01*
X191105985Y-103057549D01*
X191111400Y-103037341D01*
X191111400Y-102852659D01*
X191067414Y-102688501D01*
X194417951Y-102688501D01*
X194441205Y-102836158D01*
X194540362Y-103023832D01*
X194871720Y-102692474D01*
X194874548Y-102692474D01*
X195224268Y-103042195D01*
X195320993Y-102774270D01*
X195322351Y-102618507D01*
X195273929Y-102476670D01*
X195193820Y-102373202D01*
X194874548Y-102692474D01*
X194871720Y-102692474D01*
X194542079Y-102362832D01*
X194443778Y-102541274D01*
X194417951Y-102688501D01*
X191067414Y-102688501D01*
X191063600Y-102674269D01*
X190936919Y-102454851D01*
X190446770Y-102945000D01*
X190373230Y-102945000D01*
X189883081Y-102454851D01*
X189756400Y-102674269D01*
X189708600Y-102852659D01*
X189708600Y-102970594D01*
X189565737Y-102418081D01*
X189919851Y-102418081D01*
X190410000Y-102908230D01*
X190900149Y-102418081D01*
X190782995Y-102350442D01*
X194532516Y-102350442D01*
X194873134Y-102691060D01*
X195196465Y-102367729D01*
X195057556Y-102276305D01*
X194912807Y-102239005D01*
X194763782Y-102250603D01*
X194532516Y-102350442D01*
X190782995Y-102350442D01*
X190680731Y-102291400D01*
X190502341Y-102243600D01*
X190317659Y-102243600D01*
X190139269Y-102291400D01*
X189919851Y-102418081D01*
X189565737Y-102418081D01*
X189554025Y-102372786D01*
X189431690Y-101749100D01*
X189346559Y-101119242D01*
X189298933Y-100485464D01*
X189293468Y-100136611D01*
X205449494Y-100136611D01*
X205490171Y-100358238D01*
X205573121Y-100567745D01*
X205695183Y-100757150D01*
X205851710Y-100919238D01*
X206036739Y-101047837D01*
X206243223Y-101138047D01*
X206463296Y-101186433D01*
X206688577Y-101191152D01*
X206910483Y-101152024D01*
X207120563Y-101070539D01*
X207310815Y-100949801D01*
X207473992Y-100794410D01*
X207603880Y-100610283D01*
X207695529Y-100404434D01*
X207745605Y-100184024D01*
X207746267Y-100136611D01*
X207989494Y-100136611D01*
X208030171Y-100358238D01*
X208113121Y-100567745D01*
X208235183Y-100757150D01*
X208391710Y-100919238D01*
X208576739Y-101047837D01*
X208783223Y-101138047D01*
X209003296Y-101186433D01*
X209228577Y-101191152D01*
X209450483Y-101152024D01*
X209660563Y-101070539D01*
X209850815Y-100949801D01*
X210013992Y-100794410D01*
X210143880Y-100610283D01*
X210235529Y-100404434D01*
X210285605Y-100184024D01*
X210289181Y-99928020D01*
X210245278Y-99706296D01*
X210159411Y-99497969D01*
X210034715Y-99310288D01*
X209875941Y-99150401D01*
X209689135Y-99024397D01*
X209481411Y-98937079D01*
X209260684Y-98891770D01*
X209035359Y-98890197D01*
X208814021Y-98932420D01*
X208605100Y-99016829D01*
X208416552Y-99140212D01*
X208255560Y-99297867D01*
X208128256Y-99483789D01*
X208039490Y-99690898D01*
X207992640Y-99911302D01*
X207989494Y-100136611D01*
X207746267Y-100136611D01*
X207749181Y-99928020D01*
X207705278Y-99706296D01*
X207619411Y-99497969D01*
X207494715Y-99310288D01*
X207335941Y-99150401D01*
X207149135Y-99024397D01*
X206941411Y-98937079D01*
X206720684Y-98891770D01*
X206495359Y-98890197D01*
X206274021Y-98932420D01*
X206065100Y-99016829D01*
X205876552Y-99140212D01*
X205715560Y-99297867D01*
X205588256Y-99483789D01*
X205499490Y-99690898D01*
X205452640Y-99911302D01*
X205449494Y-100136611D01*
X189293468Y-100136611D01*
X189288977Y-99849962D01*
X189316729Y-99214987D01*
X189382087Y-98582801D01*
X189484827Y-97955580D01*
X189624582Y-97335567D01*
X189783398Y-96785425D01*
X189844047Y-96929704D01*
X189954904Y-97069569D01*
X190099290Y-97174473D01*
X190266567Y-97236682D01*
X190444411Y-97251617D01*
X190493064Y-97242336D01*
X191061001Y-97810273D01*
X191061000Y-98353630D01*
X190933249Y-98505881D01*
X190861000Y-98704380D01*
X190861000Y-98915620D01*
X190933249Y-99114119D01*
X191069030Y-99275939D01*
X191251970Y-99381559D01*
X191460000Y-99418240D01*
X191668030Y-99381559D01*
X191850970Y-99275939D01*
X191986751Y-99114119D01*
X192059000Y-98915620D01*
X192059000Y-98704380D01*
X191986751Y-98505881D01*
X191859000Y-98353630D01*
X191859000Y-97713046D01*
X191866626Y-97691329D01*
X191859000Y-97622796D01*
X191859000Y-97600030D01*
X191854054Y-97578348D01*
X191846488Y-97510362D01*
X191834007Y-97490466D01*
X191828774Y-97467523D01*
X191785728Y-97413504D01*
X191773870Y-97394598D01*
X191758085Y-97378813D01*
X191715328Y-97325156D01*
X191694271Y-97314999D01*
X191059752Y-96680480D01*
X191061576Y-96506274D01*
X191013440Y-96333868D01*
X190920987Y-96181210D01*
X190912469Y-96173211D01*
X195020357Y-96173211D01*
X195020357Y-98226789D01*
X195021022Y-98245195D01*
X195021275Y-98248683D01*
X195023044Y-98265406D01*
X195039516Y-98383677D01*
X195045342Y-98382706D01*
X195048243Y-98395266D01*
X195048635Y-98396937D01*
X195048885Y-98397988D01*
X195051212Y-98407023D01*
X195055319Y-98421840D01*
X195050030Y-98423789D01*
X195100401Y-98558462D01*
X195102477Y-98563827D01*
X195102880Y-98564833D01*
X195104898Y-98569732D01*
X195122392Y-98610959D01*
X195124589Y-98615983D01*
X195125042Y-98616989D01*
X195127439Y-98622160D01*
X195158920Y-98688131D01*
X195155119Y-98690636D01*
X195173969Y-98719667D01*
X195188961Y-98751084D01*
X195193100Y-98749131D01*
X195232632Y-98810015D01*
X195234327Y-98812593D01*
X195234944Y-98813518D01*
X195239502Y-98820127D01*
X195265431Y-98856483D01*
X195266315Y-98857714D01*
X195266958Y-98858604D01*
X195272721Y-98866276D01*
X195300612Y-98901979D01*
X195304715Y-98907094D01*
X195305412Y-98907940D01*
X195308351Y-98911445D01*
X195337236Y-98945263D01*
X195339225Y-98947563D01*
X195339951Y-98948393D01*
X195345377Y-98954399D01*
X195376322Y-98987575D01*
X195382475Y-98993945D01*
X195383250Y-98994721D01*
X195384829Y-98996286D01*
X195388873Y-99000260D01*
X195384318Y-99004816D01*
X195441323Y-99051802D01*
X195486173Y-99095875D01*
X195490068Y-99091980D01*
X195502865Y-99102527D01*
X195510144Y-99108306D01*
X195511009Y-99108968D01*
X195512459Y-99110069D01*
X195547935Y-99136798D01*
X195552077Y-99139853D01*
X195552958Y-99140489D01*
X195557789Y-99143894D01*
X195594587Y-99169192D01*
X195597596Y-99171229D01*
X195598512Y-99171840D01*
X195604849Y-99175931D01*
X195643275Y-99199935D01*
X195650603Y-99204343D01*
X195651535Y-99204883D01*
X195653717Y-99206133D01*
X195665675Y-99212899D01*
X195663231Y-99218060D01*
X195722617Y-99245119D01*
X195765063Y-99269136D01*
X195764549Y-99270506D01*
X195772397Y-99273286D01*
X195778270Y-99276609D01*
X195778854Y-99275573D01*
X195901256Y-99318928D01*
X195905750Y-99320472D01*
X195906794Y-99320820D01*
X195912882Y-99322765D01*
X195955726Y-99335861D01*
X195960207Y-99337185D01*
X195961256Y-99337485D01*
X195967439Y-99339168D01*
X196010851Y-99350398D01*
X196015644Y-99351587D01*
X196016703Y-99351840D01*
X196022746Y-99353201D01*
X196066618Y-99362525D01*
X196071908Y-99363592D01*
X196072989Y-99363798D01*
X196078594Y-99364801D01*
X196123013Y-99372237D01*
X196130650Y-99373396D01*
X196131762Y-99373547D01*
X196135298Y-99374004D01*
X196164447Y-99377564D01*
X196178655Y-99378896D01*
X196181715Y-99379097D01*
X196198378Y-99379643D01*
X196881490Y-99379643D01*
X196947463Y-99370955D01*
X196962045Y-99367047D01*
X197049986Y-99326705D01*
X197133066Y-99237168D01*
X197145411Y-99215787D01*
X197179643Y-99088034D01*
X197179643Y-95318510D01*
X197170955Y-95252537D01*
X197167047Y-95237955D01*
X197126705Y-95150014D01*
X197037168Y-95066934D01*
X197015787Y-95054589D01*
X196888034Y-95020357D01*
X196198378Y-95020357D01*
X196181715Y-95020903D01*
X196178656Y-95021104D01*
X196164459Y-95022435D01*
X196135302Y-95025994D01*
X196131754Y-95026452D01*
X196130633Y-95026605D01*
X196122987Y-95027767D01*
X196078593Y-95035200D01*
X196072997Y-95036201D01*
X196071908Y-95036408D01*
X196066618Y-95037475D01*
X196022746Y-95046799D01*
X196016703Y-95048160D01*
X196015644Y-95048413D01*
X196010851Y-95049602D01*
X195967439Y-95060832D01*
X195961256Y-95062515D01*
X195960209Y-95062814D01*
X195955744Y-95064134D01*
X195912890Y-95077230D01*
X195906785Y-95079180D01*
X195905740Y-95079528D01*
X195901246Y-95081072D01*
X195777831Y-95124786D01*
X195777337Y-95123933D01*
X195772476Y-95126683D01*
X195764539Y-95129494D01*
X195765058Y-95130879D01*
X195722638Y-95154875D01*
X195663217Y-95181957D01*
X195665657Y-95187108D01*
X195653752Y-95193843D01*
X195651544Y-95195107D01*
X195650586Y-95195661D01*
X195643231Y-95200086D01*
X195604825Y-95224085D01*
X195598515Y-95228159D01*
X195597605Y-95228765D01*
X195594622Y-95230783D01*
X195557804Y-95256088D01*
X195552947Y-95259512D01*
X195552067Y-95260147D01*
X195547925Y-95263202D01*
X195512449Y-95289931D01*
X195510999Y-95291032D01*
X195510128Y-95291698D01*
X195502785Y-95297530D01*
X195467795Y-95326389D01*
X195462136Y-95331197D01*
X195461311Y-95331919D01*
X195458648Y-95334282D01*
X195425520Y-95364098D01*
X195421706Y-95367602D01*
X195420901Y-95368357D01*
X195416581Y-95372503D01*
X195384819Y-95403714D01*
X195383240Y-95405279D01*
X195382461Y-95406059D01*
X195376282Y-95412458D01*
X195345340Y-95445641D01*
X195339940Y-95451618D01*
X195339211Y-95452451D01*
X195337194Y-95454784D01*
X195308321Y-95488601D01*
X195305410Y-95492073D01*
X195304714Y-95492918D01*
X195300632Y-95498006D01*
X195272748Y-95533690D01*
X195266962Y-95541390D01*
X195266315Y-95542286D01*
X195265431Y-95543517D01*
X195239502Y-95579873D01*
X195234944Y-95586482D01*
X195234334Y-95587397D01*
X195232665Y-95589934D01*
X195225631Y-95600763D01*
X195220601Y-95597934D01*
X195189572Y-95656274D01*
X195155114Y-95709321D01*
X195159738Y-95712368D01*
X195152179Y-95726580D01*
X195149242Y-95732276D01*
X195148749Y-95733260D01*
X195146658Y-95737543D01*
X195127401Y-95777929D01*
X195125038Y-95783031D01*
X195124592Y-95784022D01*
X195122415Y-95788997D01*
X195104911Y-95830223D01*
X195102872Y-95835172D01*
X195102467Y-95836184D01*
X195100378Y-95841581D01*
X195050978Y-95973713D01*
X195055996Y-95975720D01*
X195051218Y-95992956D01*
X195048887Y-96002007D01*
X195048632Y-96003075D01*
X195048238Y-96004758D01*
X195045076Y-96018450D01*
X195039352Y-96017569D01*
X195023047Y-96134573D01*
X195021275Y-96151316D01*
X195021022Y-96154805D01*
X195020357Y-96173211D01*
X190912469Y-96173211D01*
X190790887Y-96059039D01*
X190632726Y-95976354D01*
X190458155Y-95939248D01*
X190280037Y-95950455D01*
X190111493Y-96009148D01*
X190041902Y-96057515D01*
X190260392Y-95540342D01*
X190542024Y-94970566D01*
X190856938Y-94418517D01*
X191204060Y-93886085D01*
X191582123Y-93375208D01*
X191989848Y-92887616D01*
X192425751Y-92425089D01*
X192888328Y-91989217D01*
X193375926Y-91581558D01*
X193886863Y-91203518D01*
X194419309Y-90856455D01*
X194971406Y-90541578D01*
X195541202Y-90259998D01*
X196126686Y-90012710D01*
X196701002Y-89809362D01*
X196701000Y-91968419D01*
G37*
X196701000Y-91968419D02*
X196695731Y-91993099D01*
X196695893Y-92004691D01*
X196697539Y-92109512D01*
X196697506Y-92109750D01*
X196698541Y-92121269D01*
X196730235Y-92476388D01*
X196732146Y-92482288D01*
X196732011Y-92488479D01*
X196734340Y-92499835D01*
X196806660Y-92849049D01*
X196809236Y-92854689D01*
X196809817Y-92860890D01*
X196813444Y-92871900D01*
X196925411Y-93210459D01*
X196928617Y-93215764D01*
X196929896Y-93221806D01*
X196934754Y-93232332D01*
X197084913Y-93555818D01*
X197088706Y-93560717D01*
X197090749Y-93566804D01*
X197096765Y-93576565D01*
X197283052Y-93880560D01*
X197287384Y-93884992D01*
X197290051Y-93890672D01*
X197297204Y-93899799D01*
X197517205Y-94180376D01*
X197522020Y-94184282D01*
X197525310Y-94189599D01*
X197533459Y-94197845D01*
X197784266Y-94451292D01*
X197789495Y-94454616D01*
X197793416Y-94459573D01*
X197802445Y-94466797D01*
X198080692Y-94689715D01*
X198086272Y-94692419D01*
X198090721Y-94696875D01*
X198100535Y-94703029D01*
X198402562Y-94892491D01*
X198408413Y-94894534D01*
X198413390Y-94898486D01*
X198423802Y-94903435D01*
X198745603Y-95056926D01*
X198751651Y-95058284D01*
X198756999Y-95061606D01*
X198767977Y-95065363D01*
X199105271Y-95180845D01*
X199111437Y-95181498D01*
X199117133Y-95184185D01*
X199128449Y-95186650D01*
X199476797Y-95262601D01*
X199482995Y-95262542D01*
X199488893Y-95264532D01*
X199500426Y-95265698D01*
X199855259Y-95301115D01*
X199861411Y-95300343D01*
X199867473Y-95301637D01*
X199879064Y-95301475D01*
X200061335Y-95298612D01*
X200001000Y-95464378D01*
X200001000Y-95675618D01*
X200073249Y-95874117D01*
X200201000Y-96026368D01*
X200201001Y-98244728D01*
X199877379Y-98568351D01*
X199840000Y-98561760D01*
X199631970Y-98598441D01*
X199449030Y-98704061D01*
X199350908Y-98821000D01*
X199077127Y-98821000D01*
X199020959Y-98754061D01*
X198838019Y-98648441D01*
X198629989Y-98611760D01*
X198421959Y-98648441D01*
X198239019Y-98754061D01*
X198103238Y-98915881D01*
X198030989Y-99114380D01*
X198030989Y-99325620D01*
X198103238Y-99524119D01*
X198239019Y-99685939D01*
X198421959Y-99791559D01*
X198629989Y-99828240D01*
X198838019Y-99791559D01*
X199020959Y-99685939D01*
X199077127Y-99619000D01*
X199434817Y-99619000D01*
X199449030Y-99635939D01*
X199631970Y-99741559D01*
X199840000Y-99778240D01*
X200048030Y-99741559D01*
X200230970Y-99635939D01*
X200366751Y-99474119D01*
X200439000Y-99275620D01*
X200439000Y-99135270D01*
X200834018Y-98740253D01*
X200854769Y-98730288D01*
X200897835Y-98676437D01*
X200913933Y-98660339D01*
X200925767Y-98641510D01*
X200968492Y-98588085D01*
X200973735Y-98565190D01*
X200986257Y-98545268D01*
X200994015Y-98476644D01*
X200999000Y-98454879D01*
X200999000Y-98432552D01*
X201006707Y-98364381D01*
X200999000Y-98342311D01*
X200999000Y-96026368D01*
X201126751Y-95874117D01*
X201199000Y-95675618D01*
X201199000Y-95464378D01*
X201143526Y-95311966D01*
X203020357Y-95311966D01*
X203020357Y-99081490D01*
X203029045Y-99147463D01*
X203032953Y-99162045D01*
X203073295Y-99249986D01*
X203162832Y-99333066D01*
X203184213Y-99345411D01*
X203311966Y-99379643D01*
X204001622Y-99379643D01*
X204018285Y-99379097D01*
X204021344Y-99378896D01*
X204035541Y-99377565D01*
X204064698Y-99374006D01*
X204068246Y-99373548D01*
X204069367Y-99373395D01*
X204077013Y-99372233D01*
X204121407Y-99364800D01*
X204127003Y-99363799D01*
X204128092Y-99363592D01*
X204133382Y-99362525D01*
X204177254Y-99353201D01*
X204183297Y-99351840D01*
X204184356Y-99351587D01*
X204189149Y-99350398D01*
X204232561Y-99339168D01*
X204238744Y-99337485D01*
X204239791Y-99337186D01*
X204244256Y-99335866D01*
X204287110Y-99322770D01*
X204293215Y-99320820D01*
X204294260Y-99320472D01*
X204298754Y-99318928D01*
X204422169Y-99275214D01*
X204422663Y-99276067D01*
X204427524Y-99273317D01*
X204435461Y-99270506D01*
X204434942Y-99269121D01*
X204477362Y-99245125D01*
X204536783Y-99218043D01*
X204534343Y-99212892D01*
X204546248Y-99206157D01*
X204548456Y-99204893D01*
X204549414Y-99204339D01*
X204556769Y-99199914D01*
X204595175Y-99175915D01*
X204601485Y-99171841D01*
X204602395Y-99171235D01*
X204605378Y-99169217D01*
X204642196Y-99143912D01*
X204647053Y-99140488D01*
X204647933Y-99139853D01*
X204652075Y-99136798D01*
X204687551Y-99110069D01*
X204689001Y-99108968D01*
X204689872Y-99108302D01*
X204697215Y-99102470D01*
X204732205Y-99073611D01*
X204737864Y-99068803D01*
X204738689Y-99068081D01*
X204741352Y-99065718D01*
X204774480Y-99035902D01*
X204778294Y-99032398D01*
X204779099Y-99031643D01*
X204783419Y-99027497D01*
X204815181Y-98996286D01*
X204816760Y-98994721D01*
X204817539Y-98993941D01*
X204823718Y-98987542D01*
X204854660Y-98954359D01*
X204860060Y-98948382D01*
X204860789Y-98947549D01*
X204862806Y-98945216D01*
X204891679Y-98911399D01*
X204894590Y-98907927D01*
X204895286Y-98907082D01*
X204899368Y-98901994D01*
X204927252Y-98866310D01*
X204933038Y-98858610D01*
X204933685Y-98857714D01*
X204934569Y-98856483D01*
X204960498Y-98820127D01*
X204965056Y-98813518D01*
X204965666Y-98812603D01*
X204967335Y-98810066D01*
X204974369Y-98799237D01*
X204979399Y-98802066D01*
X205010428Y-98743726D01*
X205044886Y-98690679D01*
X205040262Y-98687632D01*
X205047821Y-98673420D01*
X205050758Y-98667724D01*
X205051251Y-98666740D01*
X205053342Y-98662457D01*
X205072599Y-98622071D01*
X205074962Y-98616969D01*
X205075408Y-98615978D01*
X205077585Y-98611003D01*
X205095089Y-98569777D01*
X205097128Y-98564828D01*
X205097533Y-98563816D01*
X205099622Y-98558419D01*
X205149022Y-98426287D01*
X205144004Y-98424280D01*
X205148782Y-98407044D01*
X205151113Y-98397993D01*
X205151368Y-98396925D01*
X205151762Y-98395242D01*
X205154924Y-98381550D01*
X205160648Y-98382431D01*
X205176953Y-98265427D01*
X205178725Y-98248684D01*
X205178978Y-98245195D01*
X205179643Y-98226789D01*
X205179643Y-96640250D01*
X205447082Y-96640250D01*
X205447082Y-98359750D01*
X205468348Y-98466664D01*
X205534433Y-98565567D01*
X205633336Y-98631652D01*
X205740250Y-98652918D01*
X207459750Y-98652918D01*
X207566664Y-98631652D01*
X207665567Y-98565567D01*
X207731652Y-98466664D01*
X207752918Y-98359750D01*
X207752918Y-97596611D01*
X207989494Y-97596611D01*
X208030171Y-97818238D01*
X208113121Y-98027745D01*
X208235183Y-98217150D01*
X208391710Y-98379238D01*
X208576739Y-98507837D01*
X208783223Y-98598047D01*
X209003296Y-98646433D01*
X209228577Y-98651152D01*
X209450483Y-98612024D01*
X209660563Y-98530539D01*
X209850815Y-98409801D01*
X210013992Y-98254410D01*
X210143880Y-98070283D01*
X210235529Y-97864434D01*
X210285605Y-97644024D01*
X210289181Y-97388020D01*
X210245278Y-97166296D01*
X210159411Y-96957969D01*
X210034715Y-96770288D01*
X209875941Y-96610401D01*
X209689135Y-96484397D01*
X209481411Y-96397079D01*
X209260684Y-96351770D01*
X209035359Y-96350197D01*
X208814021Y-96392420D01*
X208605100Y-96476829D01*
X208416552Y-96600212D01*
X208255560Y-96757867D01*
X208128256Y-96943789D01*
X208039490Y-97150898D01*
X207992640Y-97371302D01*
X207989494Y-97596611D01*
X207752918Y-97596611D01*
X207752918Y-96640250D01*
X207731652Y-96533336D01*
X207665567Y-96434433D01*
X207566664Y-96368348D01*
X207459750Y-96347082D01*
X205740250Y-96347082D01*
X205633336Y-96368348D01*
X205534433Y-96434433D01*
X205468348Y-96533336D01*
X205447082Y-96640250D01*
X205179643Y-96640250D01*
X205179643Y-96173211D01*
X205178978Y-96154805D01*
X205178725Y-96151317D01*
X205176956Y-96134594D01*
X205160484Y-96016323D01*
X205154658Y-96017294D01*
X205151757Y-96004734D01*
X205151365Y-96003063D01*
X205151115Y-96002012D01*
X205148788Y-95992977D01*
X205144681Y-95978160D01*
X205149970Y-95976211D01*
X205099599Y-95841538D01*
X205097523Y-95836173D01*
X205097120Y-95835167D01*
X205095102Y-95830268D01*
X205077608Y-95789041D01*
X205075411Y-95784017D01*
X205074958Y-95783011D01*
X205072561Y-95777840D01*
X205041080Y-95711869D01*
X205044881Y-95709364D01*
X205026031Y-95680333D01*
X205011039Y-95648916D01*
X205006900Y-95650869D01*
X204967368Y-95589985D01*
X204965673Y-95587407D01*
X204965056Y-95586482D01*
X204960498Y-95579873D01*
X204934569Y-95543517D01*
X204933685Y-95542286D01*
X204933042Y-95541396D01*
X204927279Y-95533724D01*
X204899388Y-95498021D01*
X204895285Y-95492906D01*
X204894588Y-95492060D01*
X204891649Y-95488555D01*
X204862764Y-95454737D01*
X204860775Y-95452437D01*
X204860049Y-95451607D01*
X204854623Y-95445601D01*
X204823678Y-95412425D01*
X204817525Y-95406055D01*
X204816750Y-95405279D01*
X204815171Y-95403714D01*
X204811127Y-95399740D01*
X204815682Y-95395184D01*
X204758677Y-95348198D01*
X204713827Y-95304125D01*
X204709932Y-95308020D01*
X204697135Y-95297473D01*
X204689856Y-95291694D01*
X204688991Y-95291032D01*
X204687541Y-95289931D01*
X204652065Y-95263202D01*
X204647923Y-95260147D01*
X204647042Y-95259511D01*
X204642211Y-95256106D01*
X204605413Y-95230808D01*
X204602404Y-95228771D01*
X204601488Y-95228160D01*
X204595151Y-95224069D01*
X204556725Y-95200065D01*
X204549397Y-95195657D01*
X204548465Y-95195117D01*
X204546283Y-95193867D01*
X204534325Y-95187101D01*
X204536769Y-95181940D01*
X204477383Y-95154881D01*
X204434937Y-95130864D01*
X204435451Y-95129494D01*
X204427603Y-95126714D01*
X204421730Y-95123391D01*
X204421146Y-95124427D01*
X204298744Y-95081072D01*
X204294250Y-95079528D01*
X204293206Y-95079180D01*
X204287118Y-95077235D01*
X204244274Y-95064139D01*
X204239793Y-95062815D01*
X204238744Y-95062515D01*
X204232561Y-95060832D01*
X204189149Y-95049602D01*
X204184356Y-95048413D01*
X204183297Y-95048160D01*
X204177254Y-95046799D01*
X204133382Y-95037475D01*
X204128092Y-95036408D01*
X204127011Y-95036202D01*
X204121406Y-95035199D01*
X204076987Y-95027763D01*
X204069350Y-95026604D01*
X204068238Y-95026453D01*
X204064702Y-95025996D01*
X204035553Y-95022436D01*
X204021345Y-95021104D01*
X204018285Y-95020903D01*
X204001622Y-95020357D01*
X203318510Y-95020357D01*
X203252537Y-95029045D01*
X203237955Y-95032953D01*
X203150014Y-95073295D01*
X203066934Y-95162832D01*
X203054589Y-95184213D01*
X203020357Y-95311966D01*
X201143526Y-95311966D01*
X201126751Y-95265879D01*
X201021762Y-95140756D01*
X201338143Y-95021205D01*
X201343310Y-95017779D01*
X201349389Y-95016224D01*
X201359691Y-95010911D01*
X201676527Y-94847379D01*
X201681264Y-94843383D01*
X201687180Y-94841118D01*
X201696839Y-94834614D01*
X201992683Y-94635815D01*
X201996929Y-94631302D01*
X202002570Y-94628359D01*
X202011432Y-94620768D01*
X202282431Y-94389314D01*
X202286134Y-94384337D01*
X202291291Y-94380839D01*
X202299191Y-94372357D01*
X202541925Y-94111143D01*
X202545029Y-94105779D01*
X202549820Y-94101650D01*
X202556658Y-94092328D01*
X202767729Y-93804990D01*
X202770196Y-93799302D01*
X202774405Y-93794733D01*
X202780164Y-93784671D01*
X202956847Y-93474912D01*
X202958643Y-93468981D01*
X202962369Y-93463863D01*
X202966892Y-93453232D01*
X203106773Y-93125286D01*
X203107876Y-93119186D01*
X203110941Y-93113758D01*
X203114245Y-93102646D01*
X203215521Y-92760746D01*
X203215916Y-92754561D01*
X203218381Y-92748710D01*
X203220351Y-92737344D01*
X203281649Y-92386120D01*
X203281330Y-92379929D01*
X203283073Y-92373949D01*
X203283754Y-92362376D01*
X203304281Y-92006378D01*
X203299000Y-91974990D01*
X203299000Y-89813198D01*
X203523296Y-89883929D01*
X204117043Y-90110690D01*
X204696282Y-90372256D01*
X205259004Y-90667723D01*
X205803205Y-90996038D01*
X206326990Y-91356060D01*
X206828502Y-91746510D01*
X207305958Y-92166002D01*
X207757702Y-92613080D01*
X208182146Y-93086173D01*
X208577775Y-93583591D01*
X208943205Y-94103594D01*
X209277170Y-94644383D01*
X209578460Y-95203997D01*
X209846027Y-95780488D01*
X210078947Y-96371865D01*
X210276367Y-96975965D01*
X210437632Y-97590778D01*
X210562142Y-98214033D01*
X210649471Y-98843574D01*
X210699308Y-99477183D01*
X210711481Y-100112649D01*
X210685947Y-100747695D01*
X210622794Y-101380134D01*
X210522243Y-102007717D01*
X210384657Y-102628199D01*
X210210509Y-103239447D01*
X210000418Y-103839291D01*
X209755114Y-104425639D01*
X209475479Y-104996382D01*
X209162480Y-105549550D01*
X208817233Y-106083168D01*
X208440941Y-106595380D01*
X208034932Y-107084377D01*
X207600643Y-107548427D01*
X207139591Y-107985909D01*
X206653398Y-108395286D01*
X206143821Y-108775077D01*
X205612582Y-109124004D01*
X205061581Y-109440812D01*
X204492785Y-109724371D01*
X203908146Y-109973712D01*
X203309775Y-110187929D01*
X202699718Y-110366293D01*
X202080199Y-110508154D01*
X201453326Y-110613028D01*
X200821357Y-110680539D01*
X200186496Y-110710449D01*
X199550929Y-110702656D01*
X199385788Y-110690811D01*
X199424635Y-110686488D01*
X199444532Y-110674007D01*
X199467479Y-110668772D01*
X199521498Y-110625726D01*
X199540401Y-110613869D01*
X199556181Y-110598089D01*
X199609844Y-110555328D01*
X199620002Y-110534269D01*
X199704018Y-110450253D01*
X199724769Y-110440288D01*
X199767840Y-110386431D01*
X199783933Y-110370337D01*
X199795759Y-110351520D01*
X199838492Y-110298086D01*
X199843735Y-110275190D01*
X199856257Y-110255268D01*
X199864015Y-110186644D01*
X199869000Y-110164879D01*
X199869000Y-110142552D01*
X199876707Y-110074381D01*
X199869000Y-110052311D01*
X199869000Y-109368046D01*
X199876626Y-109346329D01*
X199869000Y-109277792D01*
X199869000Y-109255030D01*
X199864054Y-109233351D01*
X199856489Y-109165363D01*
X199844007Y-109145467D01*
X199838773Y-109122521D01*
X199795731Y-109068508D01*
X199783869Y-109049598D01*
X199768081Y-109033810D01*
X199725327Y-108980156D01*
X199704272Y-108970000D01*
X199219000Y-108484729D01*
X199219000Y-107548047D01*
X199226627Y-107526330D01*
X199219000Y-107457787D01*
X199219000Y-107435030D01*
X199214055Y-107413351D01*
X199206489Y-107345362D01*
X199194007Y-107325466D01*
X199188773Y-107302521D01*
X199145731Y-107248508D01*
X199133869Y-107229598D01*
X199118081Y-107213810D01*
X199075327Y-107160156D01*
X199054272Y-107150000D01*
X198939000Y-107034728D01*
X198939000Y-106894380D01*
X198866751Y-106695881D01*
X198730970Y-106534061D01*
X198548030Y-106428441D01*
X198340000Y-106391760D01*
X198131970Y-106428441D01*
X197949030Y-106534061D01*
X197813249Y-106695881D01*
X197741000Y-106894380D01*
X197741000Y-107105620D01*
X197813249Y-107304119D01*
X197949030Y-107465939D01*
X198131970Y-107571559D01*
X198340000Y-107608240D01*
X198377379Y-107601649D01*
X198421000Y-107645271D01*
X198421001Y-108581951D01*
X198413374Y-108603671D01*
X198421001Y-108672213D01*
X198421001Y-108694970D01*
X198425946Y-108716649D01*
X198433512Y-108784637D01*
X198445993Y-108804533D01*
X198451227Y-108827478D01*
X198494271Y-108881495D01*
X198506131Y-108900401D01*
X198521916Y-108916186D01*
X198564672Y-108969843D01*
X198585728Y-108980000D01*
X199071000Y-109465272D01*
X199071001Y-109901000D01*
X198146175Y-109901000D01*
X198022969Y-109754167D01*
X197840029Y-109648547D01*
X197631999Y-109611866D01*
X197423969Y-109648547D01*
X197241029Y-109754167D01*
X197105248Y-109915987D01*
X197032999Y-110114486D01*
X197032999Y-110292540D01*
X196441435Y-110103719D01*
X195848458Y-109874877D01*
X195270140Y-109611292D01*
X194708450Y-109313861D01*
X194165393Y-108983646D01*
X193642883Y-108621808D01*
X193142730Y-108229603D01*
X192666727Y-107808432D01*
X192216561Y-107359795D01*
X191793769Y-106885222D01*
X191399872Y-106386416D01*
X191036272Y-105865161D01*
X191033507Y-105860648D01*
X194534801Y-105860648D01*
X194756086Y-105960796D01*
X194904887Y-105974994D01*
X195050262Y-105940226D01*
X195197677Y-105846858D01*
X194873134Y-105522315D01*
X194534801Y-105860648D01*
X191033507Y-105860648D01*
X190822896Y-105516928D01*
X194417951Y-105516928D01*
X194441205Y-105664585D01*
X194540362Y-105852259D01*
X194871720Y-105520901D01*
X194874548Y-105520901D01*
X195224268Y-105870622D01*
X195320993Y-105602697D01*
X195322351Y-105446934D01*
X195273929Y-105305097D01*
X195193820Y-105201629D01*
X194874548Y-105520901D01*
X194871720Y-105520901D01*
X194542079Y-105191259D01*
X194443778Y-105369701D01*
X194417951Y-105516928D01*
X190822896Y-105516928D01*
X190704198Y-105323211D01*
X190613613Y-105153541D01*
X193827695Y-105153541D01*
X194048980Y-105253689D01*
X194197781Y-105267887D01*
X194343156Y-105233119D01*
X194428809Y-105178869D01*
X194532516Y-105178869D01*
X194873134Y-105519487D01*
X195196465Y-105196156D01*
X195131717Y-105153541D01*
X195241908Y-105153541D01*
X195463193Y-105253689D01*
X195611994Y-105267887D01*
X195757369Y-105233119D01*
X195904784Y-105139751D01*
X195580241Y-104815208D01*
X195241908Y-105153541D01*
X195131717Y-105153541D01*
X195057556Y-105104732D01*
X194912807Y-105067432D01*
X194763782Y-105079030D01*
X194532516Y-105178869D01*
X194428809Y-105178869D01*
X194490571Y-105139751D01*
X194166028Y-104815208D01*
X193827695Y-105153541D01*
X190613613Y-105153541D01*
X190430102Y-104809821D01*
X193710845Y-104809821D01*
X193734099Y-104957478D01*
X193833256Y-105145152D01*
X194164614Y-104813794D01*
X194167442Y-104813794D01*
X194517162Y-105163515D01*
X194613887Y-104895590D01*
X194614634Y-104809821D01*
X195125058Y-104809821D01*
X195148312Y-104957478D01*
X195247469Y-105145152D01*
X195578827Y-104813794D01*
X195581655Y-104813794D01*
X195931375Y-105163515D01*
X196028100Y-104895590D01*
X196029458Y-104739827D01*
X195981036Y-104597990D01*
X195900927Y-104494522D01*
X195581655Y-104813794D01*
X195578827Y-104813794D01*
X195249186Y-104484152D01*
X195150885Y-104662594D01*
X195125058Y-104809821D01*
X194614634Y-104809821D01*
X194615245Y-104739827D01*
X194566823Y-104597990D01*
X194486714Y-104494522D01*
X194167442Y-104813794D01*
X194164614Y-104813794D01*
X193834973Y-104484152D01*
X193736672Y-104662594D01*
X193710845Y-104809821D01*
X190430102Y-104809821D01*
X190404864Y-104762550D01*
X190259484Y-104446434D01*
X193120588Y-104446434D01*
X193341873Y-104546582D01*
X193490674Y-104560780D01*
X193636049Y-104526012D01*
X193721702Y-104471762D01*
X193825410Y-104471762D01*
X194166028Y-104812380D01*
X194489359Y-104489049D01*
X194424611Y-104446434D01*
X194534801Y-104446434D01*
X194756086Y-104546582D01*
X194904887Y-104560780D01*
X195050262Y-104526012D01*
X195135915Y-104471762D01*
X195239623Y-104471762D01*
X195580241Y-104812380D01*
X195903572Y-104489049D01*
X195838824Y-104446434D01*
X195949015Y-104446434D01*
X196170300Y-104546582D01*
X196319101Y-104560780D01*
X196464476Y-104526012D01*
X196611891Y-104432644D01*
X196287348Y-104108101D01*
X195949015Y-104446434D01*
X195838824Y-104446434D01*
X195764663Y-104397625D01*
X195619914Y-104360325D01*
X195470889Y-104371923D01*
X195239623Y-104471762D01*
X195135915Y-104471762D01*
X195197677Y-104432644D01*
X194873134Y-104108101D01*
X194534801Y-104446434D01*
X194424611Y-104446434D01*
X194350450Y-104397625D01*
X194205701Y-104360325D01*
X194056676Y-104371923D01*
X193825410Y-104471762D01*
X193721702Y-104471762D01*
X193783464Y-104432644D01*
X193458921Y-104108101D01*
X193120588Y-104446434D01*
X190259484Y-104446434D01*
X190139300Y-104185107D01*
X190107181Y-104102714D01*
X193003738Y-104102714D01*
X193026992Y-104250371D01*
X193126149Y-104438045D01*
X193457507Y-104106687D01*
X193460335Y-104106687D01*
X193810055Y-104456408D01*
X193906780Y-104188483D01*
X193907527Y-104102714D01*
X194417951Y-104102714D01*
X194441205Y-104250371D01*
X194540362Y-104438045D01*
X194871720Y-104106687D01*
X194874548Y-104106687D01*
X195224268Y-104456408D01*
X195320993Y-104188483D01*
X195321740Y-104102714D01*
X195832165Y-104102714D01*
X195855419Y-104250371D01*
X195954576Y-104438045D01*
X196285934Y-104106687D01*
X196288762Y-104106687D01*
X196638482Y-104456408D01*
X196735207Y-104188483D01*
X196736565Y-104032720D01*
X196688143Y-103890883D01*
X196608034Y-103787415D01*
X196288762Y-104106687D01*
X196285934Y-104106687D01*
X195956293Y-103777045D01*
X195857992Y-103955487D01*
X195832165Y-104102714D01*
X195321740Y-104102714D01*
X195322351Y-104032720D01*
X195273929Y-103890883D01*
X195193820Y-103787415D01*
X194874548Y-104106687D01*
X194871720Y-104106687D01*
X194542079Y-103777045D01*
X194443778Y-103955487D01*
X194417951Y-104102714D01*
X193907527Y-104102714D01*
X193908138Y-104032720D01*
X193859716Y-103890883D01*
X193779607Y-103787415D01*
X193460335Y-104106687D01*
X193457507Y-104106687D01*
X193127866Y-103777045D01*
X193029565Y-103955487D01*
X193003738Y-104102714D01*
X190107181Y-104102714D01*
X189975396Y-103764655D01*
X193118303Y-103764655D01*
X193458921Y-104105273D01*
X193782252Y-103781942D01*
X193717505Y-103739328D01*
X193827695Y-103739328D01*
X194048980Y-103839476D01*
X194197781Y-103853674D01*
X194343156Y-103818906D01*
X194428810Y-103764655D01*
X194532516Y-103764655D01*
X194873134Y-104105273D01*
X195196465Y-103781942D01*
X195131718Y-103739328D01*
X195241908Y-103739328D01*
X195463193Y-103839476D01*
X195611994Y-103853674D01*
X195757369Y-103818906D01*
X195843023Y-103764655D01*
X195946730Y-103764655D01*
X196287348Y-104105273D01*
X196610679Y-103781942D01*
X196584646Y-103764808D01*
X198168665Y-103764808D01*
X201490640Y-106581574D01*
X202281000Y-106579971D01*
X202281000Y-106933970D01*
X202115176Y-106963209D01*
X201932236Y-107068829D01*
X201796455Y-107230649D01*
X201724206Y-107429148D01*
X201724206Y-107640388D01*
X201796455Y-107838887D01*
X201932236Y-108000707D01*
X202115176Y-108106327D01*
X202323206Y-108143008D01*
X202531236Y-108106327D01*
X202714176Y-108000707D01*
X202849957Y-107838887D01*
X202922206Y-107640388D01*
X202922206Y-107504295D01*
X202934768Y-107498263D01*
X202977834Y-107444412D01*
X202993932Y-107428314D01*
X203005766Y-107409485D01*
X203048491Y-107356060D01*
X203053734Y-107333165D01*
X203066256Y-107313243D01*
X203074014Y-107244619D01*
X203078999Y-107222854D01*
X203078999Y-107200527D01*
X203086706Y-107132356D01*
X203078999Y-107110286D01*
X203078999Y-105018045D01*
X203086625Y-104996328D01*
X203078999Y-104927791D01*
X203078999Y-104905029D01*
X203074053Y-104883350D01*
X203066488Y-104815362D01*
X203054006Y-104795466D01*
X203048772Y-104772520D01*
X203005730Y-104718507D01*
X202993868Y-104699597D01*
X202979000Y-104684728D01*
X202979000Y-104544380D01*
X202906751Y-104345881D01*
X202828177Y-104252239D01*
X202834445Y-104184081D01*
X204041001Y-103318307D01*
X204041000Y-103619956D01*
X204033374Y-103641673D01*
X204041000Y-103710206D01*
X204041000Y-103732971D01*
X204045946Y-103754653D01*
X204053512Y-103822639D01*
X204065993Y-103842535D01*
X204071226Y-103865478D01*
X204114272Y-103919498D01*
X204126131Y-103938403D01*
X204141913Y-103954185D01*
X204184671Y-104007844D01*
X204205728Y-104018002D01*
X205821001Y-105633275D01*
X205821000Y-106357466D01*
X205713249Y-106485881D01*
X205641000Y-106684380D01*
X205641000Y-106895620D01*
X205713249Y-107094119D01*
X205849030Y-107255939D01*
X206031970Y-107361559D01*
X206240000Y-107398240D01*
X206448030Y-107361559D01*
X206630970Y-107255939D01*
X206766751Y-107094119D01*
X206839000Y-106895620D01*
X206839000Y-106684380D01*
X206766751Y-106485881D01*
X206630970Y-106324061D01*
X206619000Y-106317150D01*
X206619000Y-105536048D01*
X206626626Y-105514331D01*
X206619000Y-105445798D01*
X206619000Y-105423032D01*
X206614054Y-105401350D01*
X206606488Y-105333364D01*
X206594007Y-105313468D01*
X206588774Y-105290525D01*
X206545728Y-105236506D01*
X206533870Y-105217600D01*
X206518085Y-105201815D01*
X206475328Y-105148158D01*
X206454271Y-105138001D01*
X204839000Y-103522731D01*
X204839000Y-103146370D01*
X204966751Y-102994119D01*
X205039000Y-102795620D01*
X205039000Y-102676611D01*
X205449494Y-102676611D01*
X205490171Y-102898238D01*
X205573121Y-103107745D01*
X205695183Y-103297150D01*
X205851710Y-103459238D01*
X206036739Y-103587837D01*
X206243223Y-103678047D01*
X206463296Y-103726433D01*
X206688577Y-103731152D01*
X206910483Y-103692024D01*
X207120563Y-103610539D01*
X207310815Y-103489801D01*
X207473992Y-103334410D01*
X207603880Y-103150283D01*
X207695529Y-102944434D01*
X207745605Y-102724024D01*
X207747252Y-102606000D01*
X207938330Y-102606000D01*
X207956490Y-102803626D01*
X208020128Y-103023389D01*
X208124175Y-103227152D01*
X208264875Y-103407565D01*
X208437152Y-103558116D01*
X208634790Y-103673375D01*
X208850657Y-103749182D01*
X209114000Y-103788303D01*
X209114000Y-102606000D01*
X209166000Y-102606000D01*
X209166000Y-103778993D01*
X209305546Y-103773022D01*
X209528154Y-103720194D01*
X209736756Y-103626225D01*
X209923826Y-103494506D01*
X210082614Y-103329790D01*
X210207391Y-103138019D01*
X210293652Y-102926112D01*
X210357326Y-102606000D01*
X209166000Y-102606000D01*
X209114000Y-102606000D01*
X207938330Y-102606000D01*
X207747252Y-102606000D01*
X207747979Y-102554000D01*
X207937711Y-102554000D01*
X209114000Y-102554000D01*
X209166000Y-102554000D01*
X210355849Y-102554000D01*
X210296040Y-102241950D01*
X210211260Y-102029447D01*
X210087826Y-101836810D01*
X209930192Y-101670989D01*
X209744046Y-101537966D01*
X209536105Y-101442543D01*
X209313870Y-101388163D01*
X209166000Y-101380803D01*
X209166000Y-102554000D01*
X209114000Y-102554000D01*
X209114000Y-101372737D01*
X208858826Y-101408826D01*
X208642435Y-101483125D01*
X208443998Y-101597002D01*
X208270674Y-101746347D01*
X208128718Y-101925773D01*
X208023251Y-102128805D01*
X207958080Y-102348117D01*
X207937711Y-102554000D01*
X207747979Y-102554000D01*
X207749181Y-102468020D01*
X207705278Y-102246296D01*
X207619411Y-102037969D01*
X207494715Y-101850288D01*
X207335941Y-101690401D01*
X207149135Y-101564397D01*
X206941411Y-101477079D01*
X206720684Y-101431770D01*
X206495359Y-101430197D01*
X206274021Y-101472420D01*
X206065100Y-101556829D01*
X205876552Y-101680212D01*
X205715560Y-101837867D01*
X205588256Y-102023789D01*
X205499490Y-102230898D01*
X205452640Y-102451302D01*
X205449494Y-102676611D01*
X205039000Y-102676611D01*
X205039000Y-102584380D01*
X204966751Y-102385881D01*
X204830970Y-102224061D01*
X204648030Y-102118441D01*
X204440000Y-102081760D01*
X204231970Y-102118441D01*
X204049030Y-102224061D01*
X203913249Y-102385881D01*
X203841000Y-102584380D01*
X203841000Y-102795620D01*
X203864167Y-102859271D01*
X201429323Y-100377961D01*
X198168665Y-103764808D01*
X196584646Y-103764808D01*
X196471770Y-103690518D01*
X196327021Y-103653218D01*
X196177996Y-103664816D01*
X195946730Y-103764655D01*
X195843023Y-103764655D01*
X195904784Y-103725538D01*
X195580241Y-103400995D01*
X195241908Y-103739328D01*
X195131718Y-103739328D01*
X195057556Y-103690518D01*
X194912807Y-103653218D01*
X194763782Y-103664816D01*
X194532516Y-103764655D01*
X194428810Y-103764655D01*
X194490571Y-103725538D01*
X194166028Y-103400995D01*
X193827695Y-103739328D01*
X193717505Y-103739328D01*
X193643343Y-103690518D01*
X193498594Y-103653218D01*
X193349569Y-103664816D01*
X193118303Y-103764655D01*
X189975396Y-103764655D01*
X189908455Y-103592939D01*
X189869373Y-103471919D01*
X189919851Y-103471919D01*
X190139269Y-103598600D01*
X190317659Y-103646400D01*
X190502341Y-103646400D01*
X190680731Y-103598600D01*
X190900149Y-103471919D01*
X190410000Y-102981770D01*
X189919851Y-103471919D01*
X189869373Y-103471919D01*
X189825021Y-103334585D01*
X189883081Y-103435149D01*
X190373230Y-102945000D01*
X190446770Y-102945000D01*
X190936919Y-103435149D01*
X190959747Y-103395608D01*
X193710845Y-103395608D01*
X193734099Y-103543265D01*
X193833256Y-103730939D01*
X194164614Y-103399581D01*
X194167442Y-103399581D01*
X194517162Y-103749302D01*
X194613887Y-103481377D01*
X194614634Y-103395608D01*
X195125058Y-103395608D01*
X195148312Y-103543265D01*
X195247469Y-103730939D01*
X195578827Y-103399581D01*
X195581655Y-103399581D01*
X195931375Y-103749302D01*
X196028100Y-103481377D01*
X196029458Y-103325614D01*
X195981036Y-103183777D01*
X195900927Y-103080309D01*
X195581655Y-103399581D01*
X195578827Y-103399581D01*
X195249186Y-103069939D01*
X195150885Y-103248381D01*
X195125058Y-103395608D01*
X194614634Y-103395608D01*
X194615245Y-103325614D01*
X194566823Y-103183777D01*
X194486714Y-103080309D01*
X194167442Y-103399581D01*
X194164614Y-103399581D01*
X193834973Y-103069939D01*
X193736672Y-103248381D01*
X193710845Y-103395608D01*
X190959747Y-103395608D01*
X191063600Y-103215731D01*
X191105985Y-103057549D01*
X193825410Y-103057549D01*
X194166028Y-103398167D01*
X194489359Y-103074836D01*
X194424611Y-103032221D01*
X194534801Y-103032221D01*
X194756086Y-103132369D01*
X194904887Y-103146567D01*
X195050262Y-103111799D01*
X195135915Y-103057549D01*
X195239623Y-103057549D01*
X195580241Y-103398167D01*
X195903572Y-103074836D01*
X195764663Y-102983412D01*
X195619914Y-102946112D01*
X195470889Y-102957710D01*
X195239623Y-103057549D01*
X195135915Y-103057549D01*
X195197677Y-103018431D01*
X194873134Y-102693888D01*
X194534801Y-103032221D01*
X194424611Y-103032221D01*
X194350450Y-102983412D01*
X194205701Y-102946112D01*
X194056676Y-102957710D01*
X193825410Y-103057549D01*
X191105985Y-103057549D01*
X191111400Y-103037341D01*
X191111400Y-102852659D01*
X191067414Y-102688501D01*
X194417951Y-102688501D01*
X194441205Y-102836158D01*
X194540362Y-103023832D01*
X194871720Y-102692474D01*
X194874548Y-102692474D01*
X195224268Y-103042195D01*
X195320993Y-102774270D01*
X195322351Y-102618507D01*
X195273929Y-102476670D01*
X195193820Y-102373202D01*
X194874548Y-102692474D01*
X194871720Y-102692474D01*
X194542079Y-102362832D01*
X194443778Y-102541274D01*
X194417951Y-102688501D01*
X191067414Y-102688501D01*
X191063600Y-102674269D01*
X190936919Y-102454851D01*
X190446770Y-102945000D01*
X190373230Y-102945000D01*
X189883081Y-102454851D01*
X189756400Y-102674269D01*
X189708600Y-102852659D01*
X189708600Y-102970594D01*
X189565737Y-102418081D01*
X189919851Y-102418081D01*
X190410000Y-102908230D01*
X190900149Y-102418081D01*
X190782995Y-102350442D01*
X194532516Y-102350442D01*
X194873134Y-102691060D01*
X195196465Y-102367729D01*
X195057556Y-102276305D01*
X194912807Y-102239005D01*
X194763782Y-102250603D01*
X194532516Y-102350442D01*
X190782995Y-102350442D01*
X190680731Y-102291400D01*
X190502341Y-102243600D01*
X190317659Y-102243600D01*
X190139269Y-102291400D01*
X189919851Y-102418081D01*
X189565737Y-102418081D01*
X189554025Y-102372786D01*
X189431690Y-101749100D01*
X189346559Y-101119242D01*
X189298933Y-100485464D01*
X189293468Y-100136611D01*
X205449494Y-100136611D01*
X205490171Y-100358238D01*
X205573121Y-100567745D01*
X205695183Y-100757150D01*
X205851710Y-100919238D01*
X206036739Y-101047837D01*
X206243223Y-101138047D01*
X206463296Y-101186433D01*
X206688577Y-101191152D01*
X206910483Y-101152024D01*
X207120563Y-101070539D01*
X207310815Y-100949801D01*
X207473992Y-100794410D01*
X207603880Y-100610283D01*
X207695529Y-100404434D01*
X207745605Y-100184024D01*
X207746267Y-100136611D01*
X207989494Y-100136611D01*
X208030171Y-100358238D01*
X208113121Y-100567745D01*
X208235183Y-100757150D01*
X208391710Y-100919238D01*
X208576739Y-101047837D01*
X208783223Y-101138047D01*
X209003296Y-101186433D01*
X209228577Y-101191152D01*
X209450483Y-101152024D01*
X209660563Y-101070539D01*
X209850815Y-100949801D01*
X210013992Y-100794410D01*
X210143880Y-100610283D01*
X210235529Y-100404434D01*
X210285605Y-100184024D01*
X210289181Y-99928020D01*
X210245278Y-99706296D01*
X210159411Y-99497969D01*
X210034715Y-99310288D01*
X209875941Y-99150401D01*
X209689135Y-99024397D01*
X209481411Y-98937079D01*
X209260684Y-98891770D01*
X209035359Y-98890197D01*
X208814021Y-98932420D01*
X208605100Y-99016829D01*
X208416552Y-99140212D01*
X208255560Y-99297867D01*
X208128256Y-99483789D01*
X208039490Y-99690898D01*
X207992640Y-99911302D01*
X207989494Y-100136611D01*
X207746267Y-100136611D01*
X207749181Y-99928020D01*
X207705278Y-99706296D01*
X207619411Y-99497969D01*
X207494715Y-99310288D01*
X207335941Y-99150401D01*
X207149135Y-99024397D01*
X206941411Y-98937079D01*
X206720684Y-98891770D01*
X206495359Y-98890197D01*
X206274021Y-98932420D01*
X206065100Y-99016829D01*
X205876552Y-99140212D01*
X205715560Y-99297867D01*
X205588256Y-99483789D01*
X205499490Y-99690898D01*
X205452640Y-99911302D01*
X205449494Y-100136611D01*
X189293468Y-100136611D01*
X189288977Y-99849962D01*
X189316729Y-99214987D01*
X189382087Y-98582801D01*
X189484827Y-97955580D01*
X189624582Y-97335567D01*
X189783398Y-96785425D01*
X189844047Y-96929704D01*
X189954904Y-97069569D01*
X190099290Y-97174473D01*
X190266567Y-97236682D01*
X190444411Y-97251617D01*
X190493064Y-97242336D01*
X191061001Y-97810273D01*
X191061000Y-98353630D01*
X190933249Y-98505881D01*
X190861000Y-98704380D01*
X190861000Y-98915620D01*
X190933249Y-99114119D01*
X191069030Y-99275939D01*
X191251970Y-99381559D01*
X191460000Y-99418240D01*
X191668030Y-99381559D01*
X191850970Y-99275939D01*
X191986751Y-99114119D01*
X192059000Y-98915620D01*
X192059000Y-98704380D01*
X191986751Y-98505881D01*
X191859000Y-98353630D01*
X191859000Y-97713046D01*
X191866626Y-97691329D01*
X191859000Y-97622796D01*
X191859000Y-97600030D01*
X191854054Y-97578348D01*
X191846488Y-97510362D01*
X191834007Y-97490466D01*
X191828774Y-97467523D01*
X191785728Y-97413504D01*
X191773870Y-97394598D01*
X191758085Y-97378813D01*
X191715328Y-97325156D01*
X191694271Y-97314999D01*
X191059752Y-96680480D01*
X191061576Y-96506274D01*
X191013440Y-96333868D01*
X190920987Y-96181210D01*
X190912469Y-96173211D01*
X195020357Y-96173211D01*
X195020357Y-98226789D01*
X195021022Y-98245195D01*
X195021275Y-98248683D01*
X195023044Y-98265406D01*
X195039516Y-98383677D01*
X195045342Y-98382706D01*
X195048243Y-98395266D01*
X195048635Y-98396937D01*
X195048885Y-98397988D01*
X195051212Y-98407023D01*
X195055319Y-98421840D01*
X195050030Y-98423789D01*
X195100401Y-98558462D01*
X195102477Y-98563827D01*
X195102880Y-98564833D01*
X195104898Y-98569732D01*
X195122392Y-98610959D01*
X195124589Y-98615983D01*
X195125042Y-98616989D01*
X195127439Y-98622160D01*
X195158920Y-98688131D01*
X195155119Y-98690636D01*
X195173969Y-98719667D01*
X195188961Y-98751084D01*
X195193100Y-98749131D01*
X195232632Y-98810015D01*
X195234327Y-98812593D01*
X195234944Y-98813518D01*
X195239502Y-98820127D01*
X195265431Y-98856483D01*
X195266315Y-98857714D01*
X195266958Y-98858604D01*
X195272721Y-98866276D01*
X195300612Y-98901979D01*
X195304715Y-98907094D01*
X195305412Y-98907940D01*
X195308351Y-98911445D01*
X195337236Y-98945263D01*
X195339225Y-98947563D01*
X195339951Y-98948393D01*
X195345377Y-98954399D01*
X195376322Y-98987575D01*
X195382475Y-98993945D01*
X195383250Y-98994721D01*
X195384829Y-98996286D01*
X195388873Y-99000260D01*
X195384318Y-99004816D01*
X195441323Y-99051802D01*
X195486173Y-99095875D01*
X195490068Y-99091980D01*
X195502865Y-99102527D01*
X195510144Y-99108306D01*
X195511009Y-99108968D01*
X195512459Y-99110069D01*
X195547935Y-99136798D01*
X195552077Y-99139853D01*
X195552958Y-99140489D01*
X195557789Y-99143894D01*
X195594587Y-99169192D01*
X195597596Y-99171229D01*
X195598512Y-99171840D01*
X195604849Y-99175931D01*
X195643275Y-99199935D01*
X195650603Y-99204343D01*
X195651535Y-99204883D01*
X195653717Y-99206133D01*
X195665675Y-99212899D01*
X195663231Y-99218060D01*
X195722617Y-99245119D01*
X195765063Y-99269136D01*
X195764549Y-99270506D01*
X195772397Y-99273286D01*
X195778270Y-99276609D01*
X195778854Y-99275573D01*
X195901256Y-99318928D01*
X195905750Y-99320472D01*
X195906794Y-99320820D01*
X195912882Y-99322765D01*
X195955726Y-99335861D01*
X195960207Y-99337185D01*
X195961256Y-99337485D01*
X195967439Y-99339168D01*
X196010851Y-99350398D01*
X196015644Y-99351587D01*
X196016703Y-99351840D01*
X196022746Y-99353201D01*
X196066618Y-99362525D01*
X196071908Y-99363592D01*
X196072989Y-99363798D01*
X196078594Y-99364801D01*
X196123013Y-99372237D01*
X196130650Y-99373396D01*
X196131762Y-99373547D01*
X196135298Y-99374004D01*
X196164447Y-99377564D01*
X196178655Y-99378896D01*
X196181715Y-99379097D01*
X196198378Y-99379643D01*
X196881490Y-99379643D01*
X196947463Y-99370955D01*
X196962045Y-99367047D01*
X197049986Y-99326705D01*
X197133066Y-99237168D01*
X197145411Y-99215787D01*
X197179643Y-99088034D01*
X197179643Y-95318510D01*
X197170955Y-95252537D01*
X197167047Y-95237955D01*
X197126705Y-95150014D01*
X197037168Y-95066934D01*
X197015787Y-95054589D01*
X196888034Y-95020357D01*
X196198378Y-95020357D01*
X196181715Y-95020903D01*
X196178656Y-95021104D01*
X196164459Y-95022435D01*
X196135302Y-95025994D01*
X196131754Y-95026452D01*
X196130633Y-95026605D01*
X196122987Y-95027767D01*
X196078593Y-95035200D01*
X196072997Y-95036201D01*
X196071908Y-95036408D01*
X196066618Y-95037475D01*
X196022746Y-95046799D01*
X196016703Y-95048160D01*
X196015644Y-95048413D01*
X196010851Y-95049602D01*
X195967439Y-95060832D01*
X195961256Y-95062515D01*
X195960209Y-95062814D01*
X195955744Y-95064134D01*
X195912890Y-95077230D01*
X195906785Y-95079180D01*
X195905740Y-95079528D01*
X195901246Y-95081072D01*
X195777831Y-95124786D01*
X195777337Y-95123933D01*
X195772476Y-95126683D01*
X195764539Y-95129494D01*
X195765058Y-95130879D01*
X195722638Y-95154875D01*
X195663217Y-95181957D01*
X195665657Y-95187108D01*
X195653752Y-95193843D01*
X195651544Y-95195107D01*
X195650586Y-95195661D01*
X195643231Y-95200086D01*
X195604825Y-95224085D01*
X195598515Y-95228159D01*
X195597605Y-95228765D01*
X195594622Y-95230783D01*
X195557804Y-95256088D01*
X195552947Y-95259512D01*
X195552067Y-95260147D01*
X195547925Y-95263202D01*
X195512449Y-95289931D01*
X195510999Y-95291032D01*
X195510128Y-95291698D01*
X195502785Y-95297530D01*
X195467795Y-95326389D01*
X195462136Y-95331197D01*
X195461311Y-95331919D01*
X195458648Y-95334282D01*
X195425520Y-95364098D01*
X195421706Y-95367602D01*
X195420901Y-95368357D01*
X195416581Y-95372503D01*
X195384819Y-95403714D01*
X195383240Y-95405279D01*
X195382461Y-95406059D01*
X195376282Y-95412458D01*
X195345340Y-95445641D01*
X195339940Y-95451618D01*
X195339211Y-95452451D01*
X195337194Y-95454784D01*
X195308321Y-95488601D01*
X195305410Y-95492073D01*
X195304714Y-95492918D01*
X195300632Y-95498006D01*
X195272748Y-95533690D01*
X195266962Y-95541390D01*
X195266315Y-95542286D01*
X195265431Y-95543517D01*
X195239502Y-95579873D01*
X195234944Y-95586482D01*
X195234334Y-95587397D01*
X195232665Y-95589934D01*
X195225631Y-95600763D01*
X195220601Y-95597934D01*
X195189572Y-95656274D01*
X195155114Y-95709321D01*
X195159738Y-95712368D01*
X195152179Y-95726580D01*
X195149242Y-95732276D01*
X195148749Y-95733260D01*
X195146658Y-95737543D01*
X195127401Y-95777929D01*
X195125038Y-95783031D01*
X195124592Y-95784022D01*
X195122415Y-95788997D01*
X195104911Y-95830223D01*
X195102872Y-95835172D01*
X195102467Y-95836184D01*
X195100378Y-95841581D01*
X195050978Y-95973713D01*
X195055996Y-95975720D01*
X195051218Y-95992956D01*
X195048887Y-96002007D01*
X195048632Y-96003075D01*
X195048238Y-96004758D01*
X195045076Y-96018450D01*
X195039352Y-96017569D01*
X195023047Y-96134573D01*
X195021275Y-96151316D01*
X195021022Y-96154805D01*
X195020357Y-96173211D01*
X190912469Y-96173211D01*
X190790887Y-96059039D01*
X190632726Y-95976354D01*
X190458155Y-95939248D01*
X190280037Y-95950455D01*
X190111493Y-96009148D01*
X190041902Y-96057515D01*
X190260392Y-95540342D01*
X190542024Y-94970566D01*
X190856938Y-94418517D01*
X191204060Y-93886085D01*
X191582123Y-93375208D01*
X191989848Y-92887616D01*
X192425751Y-92425089D01*
X192888328Y-91989217D01*
X193375926Y-91581558D01*
X193886863Y-91203518D01*
X194419309Y-90856455D01*
X194971406Y-90541578D01*
X195541202Y-90259998D01*
X196126686Y-90012710D01*
X196701002Y-89809362D01*
X196701000Y-91968419D01*
M02*
