G04 #@! TF.GenerationSoftware,KiCad,Pcbnew,(5.99.0-417-g8bd2765f3)*
G04 #@! TF.CreationDate,2020-07-20T21:20:45-04:00*
G04 #@! TF.ProjectId,bias,62696173-2e6b-4696-9361-645f70636258,rev?*
G04 #@! TF.SameCoordinates,Original*
G04 #@! TF.FileFunction,Legend,Top*
G04 #@! TF.FilePolarity,Positive*
%FSLAX46Y46*%
G04 Gerber Fmt 4.6, Leading zero omitted, Abs format (unit mm)*
G04 Created by KiCad (PCBNEW (5.99.0-417-g8bd2765f3)) date 2020-07-20 21:20:45*
%MOMM*%
%LPD*%
G04 APERTURE LIST*
%ADD10C,0.127000*%
%ADD11C,0.100000*%
%ADD12C,0.200000*%
%ADD13C,0.120000*%
%ADD14C,0.150000*%
%ADD15C,0.250000*%
%ADD16C,0.152400*%
%ADD17C,0.076200*%
%ADD18C,0.101600*%
G04 APERTURE END LIST*
D10*
X188827228Y-101487514D02*
X188827228Y-100725514D01*
X189008657Y-100725514D01*
X189117514Y-100761800D01*
X189190085Y-100834371D01*
X189226371Y-100906942D01*
X189262657Y-101052085D01*
X189262657Y-101160942D01*
X189226371Y-101306085D01*
X189190085Y-101378657D01*
X189117514Y-101451228D01*
X189008657Y-101487514D01*
X188827228Y-101487514D01*
X189237257Y-100119542D02*
X189200971Y-100155828D01*
X189092114Y-100192114D01*
X189019542Y-100192114D01*
X188910685Y-100155828D01*
X188838114Y-100083257D01*
X188801828Y-100010685D01*
X188765542Y-99865542D01*
X188765542Y-99756685D01*
X188801828Y-99611542D01*
X188838114Y-99538971D01*
X188910685Y-99466400D01*
X189019542Y-99430114D01*
X189092114Y-99430114D01*
X189200971Y-99466400D01*
X189237257Y-99502685D01*
X189262657Y-98922114D02*
X189008657Y-98559257D01*
X188827228Y-98922114D02*
X188827228Y-98160114D01*
X189117514Y-98160114D01*
X189190085Y-98196400D01*
X189226371Y-98232685D01*
X189262657Y-98305257D01*
X189262657Y-98414114D01*
X189226371Y-98486685D01*
X189190085Y-98522971D01*
X189117514Y-98559257D01*
X188827228Y-98559257D01*
D11*
X206924400Y-93800628D02*
X207067257Y-94200628D01*
X207210114Y-93800628D01*
X207752971Y-94200628D02*
X207410114Y-94200628D01*
X207581542Y-94200628D02*
X207581542Y-93600628D01*
X207524400Y-93686342D01*
X207467257Y-93743485D01*
X207410114Y-93772057D01*
X208324400Y-94200628D02*
X207981542Y-94200628D01*
X208152971Y-94200628D02*
X208152971Y-93600628D01*
X208095828Y-93686342D01*
X208038685Y-93743485D01*
X207981542Y-93772057D01*
X208695828Y-93600628D02*
X208752971Y-93600628D01*
X208810114Y-93629200D01*
X208838685Y-93657771D01*
X208867257Y-93714914D01*
X208895828Y-93829200D01*
X208895828Y-93972057D01*
X208867257Y-94086342D01*
X208838685Y-94143485D01*
X208810114Y-94172057D01*
X208752971Y-94200628D01*
X208695828Y-94200628D01*
X208638685Y-94172057D01*
X208610114Y-94143485D01*
X208581542Y-94086342D01*
X208552971Y-93972057D01*
X208552971Y-93829200D01*
X208581542Y-93714914D01*
X208610114Y-93657771D01*
X208638685Y-93629200D01*
X208695828Y-93600628D01*
D12*
X203433561Y-92538361D02*
X203576419Y-92585980D01*
X203814514Y-92585980D01*
X203909752Y-92538361D01*
X203957371Y-92490742D01*
X204004990Y-92395504D01*
X204004990Y-92300266D01*
X203957371Y-92205028D01*
X203909752Y-92157409D01*
X203814514Y-92109790D01*
X203624038Y-92062171D01*
X203528800Y-92014552D01*
X203481180Y-91966933D01*
X203433561Y-91871695D01*
X203433561Y-91776457D01*
X203481180Y-91681219D01*
X203528800Y-91633600D01*
X203624038Y-91585980D01*
X203862133Y-91585980D01*
X204004990Y-91633600D01*
X204433561Y-92585980D02*
X204433561Y-91919314D01*
X204433561Y-91585980D02*
X204385942Y-91633600D01*
X204433561Y-91681219D01*
X204481180Y-91633600D01*
X204433561Y-91585980D01*
X204433561Y-91681219D01*
X204909752Y-92585980D02*
X204909752Y-91585980D01*
X205290704Y-91585980D01*
X205385942Y-91633600D01*
X205433561Y-91681219D01*
X205481180Y-91776457D01*
X205481180Y-91919314D01*
X205433561Y-92014552D01*
X205385942Y-92062171D01*
X205290704Y-92109790D01*
X204909752Y-92109790D01*
X205909752Y-92585980D02*
X205909752Y-91585980D01*
X206243085Y-92300266D01*
X206576419Y-91585980D01*
X206576419Y-92585980D01*
X204004990Y-93672171D02*
X204147847Y-93719790D01*
X204195466Y-93767409D01*
X204243085Y-93862647D01*
X204243085Y-94005504D01*
X204195466Y-94100742D01*
X204147847Y-94148361D01*
X204052609Y-94195980D01*
X203671657Y-94195980D01*
X203671657Y-93195980D01*
X204004990Y-93195980D01*
X204100228Y-93243600D01*
X204147847Y-93291219D01*
X204195466Y-93386457D01*
X204195466Y-93481695D01*
X204147847Y-93576933D01*
X204100228Y-93624552D01*
X204004990Y-93672171D01*
X203671657Y-93672171D01*
X204671657Y-94195980D02*
X204671657Y-93529314D01*
X204671657Y-93195980D02*
X204624038Y-93243600D01*
X204671657Y-93291219D01*
X204719276Y-93243600D01*
X204671657Y-93195980D01*
X204671657Y-93291219D01*
X205576419Y-94195980D02*
X205576419Y-93672171D01*
X205528800Y-93576933D01*
X205433561Y-93529314D01*
X205243085Y-93529314D01*
X205147847Y-93576933D01*
X205576419Y-94148361D02*
X205481180Y-94195980D01*
X205243085Y-94195980D01*
X205147847Y-94148361D01*
X205100228Y-94053123D01*
X205100228Y-93957885D01*
X205147847Y-93862647D01*
X205243085Y-93815028D01*
X205481180Y-93815028D01*
X205576419Y-93767409D01*
X206004990Y-94148361D02*
X206100228Y-94195980D01*
X206290704Y-94195980D01*
X206385942Y-94148361D01*
X206433561Y-94053123D01*
X206433561Y-94005504D01*
X206385942Y-93910266D01*
X206290704Y-93862647D01*
X206147847Y-93862647D01*
X206052609Y-93815028D01*
X206004990Y-93719790D01*
X206004990Y-93672171D01*
X206052609Y-93576933D01*
X206147847Y-93529314D01*
X206290704Y-93529314D01*
X206385942Y-93576933D01*
D13*
X203010749Y-89407366D02*
G75*
G02X196980000Y-89410000I-3010351J-11503331D01*
G01*
D14*
X189724200Y-104240400D02*
X189724200Y-96620400D01*
X189724200Y-96620400D02*
X190994200Y-96620400D01*
X190994200Y-96620400D02*
X190994200Y-104240400D01*
X190994200Y-104240400D02*
X189724200Y-104240400D01*
X190898015Y-97255400D02*
G75*
G03X190898015Y-97255400I-538815J0D01*
G01*
X189851200Y-97890400D02*
X189851200Y-96747400D01*
X189851200Y-96747400D02*
X190867200Y-96747400D01*
X190867200Y-96747400D02*
X190867200Y-97890400D01*
X190867200Y-97890400D02*
X189851200Y-97890400D01*
X189851200Y-97763400D02*
X190867200Y-97763400D01*
D11*
X191569643Y-104342823D02*
X191428222Y-104484245D01*
X191428222Y-104484245D02*
X191428222Y-105049930D01*
X191428222Y-105049930D02*
X191569643Y-105191352D01*
X191569643Y-105191352D02*
X191428222Y-105332773D01*
X195105177Y-108161200D02*
X194822334Y-108444043D01*
X194822334Y-108444043D02*
X194539492Y-108161200D01*
X194822334Y-101090132D02*
X194539492Y-101372975D01*
X194822334Y-101090132D02*
X195105177Y-101372975D01*
X198216447Y-104484245D02*
X198499290Y-104767087D01*
X198499290Y-104767087D02*
X198216447Y-105049930D01*
D15*
X205814200Y-108150400D02*
G75*
G03X205814200Y-108150400I-125000J0D01*
G01*
D16*
X189839600Y-105524300D02*
G75*
G03X189839600Y-105524300I-381000J0D01*
G01*
D11*
X205759240Y-94972680D02*
X205259240Y-94972680D01*
X205759240Y-94972680D02*
X205759240Y-95472680D01*
X193559240Y-94972680D02*
X194059240Y-94972680D01*
X193559240Y-94972680D02*
X193559240Y-95472680D01*
X193559240Y-100222680D02*
X194059240Y-100222680D01*
X193559240Y-99722680D02*
X193559240Y-100222680D01*
X205759240Y-100222680D02*
X205259240Y-100222680D01*
X205759240Y-100222680D02*
X205759240Y-99722680D01*
D14*
X198807200Y-109221400D02*
X198807200Y-109446400D01*
X202157200Y-109221400D02*
X202157200Y-109521400D01*
X202157200Y-112571400D02*
X202157200Y-112271400D01*
X198807200Y-112571400D02*
X198807200Y-112271400D01*
X198807200Y-109221400D02*
X202157200Y-109221400D01*
X198807200Y-112571400D02*
X202157200Y-112571400D01*
X198807200Y-109446400D02*
X197582200Y-109446400D01*
D13*
X206061000Y-96866400D02*
X207391000Y-96866400D01*
X206061000Y-98196400D02*
X206061000Y-96866400D01*
X208661000Y-96866400D02*
X211261000Y-96866400D01*
X208661000Y-99466400D02*
X208661000Y-96866400D01*
X206061000Y-99466400D02*
X208661000Y-99466400D01*
X211261000Y-96866400D02*
X211261000Y-104606400D01*
X206061000Y-99466400D02*
X206061000Y-104606400D01*
X206061000Y-104606400D02*
X211261000Y-104606400D01*
X201550142Y-105237789D02*
X202401589Y-104386342D01*
X199626811Y-103314458D02*
X200478258Y-102463011D01*
D16*
X192757862Y-92751400D02*
X192192400Y-92751400D01*
D17*
X199673028Y-107163809D02*
X199503695Y-106921904D01*
X199382742Y-107163809D02*
X199382742Y-106655809D01*
X199576266Y-106655809D01*
X199624647Y-106680000D01*
X199648838Y-106704190D01*
X199673028Y-106752571D01*
X199673028Y-106825142D01*
X199648838Y-106873523D01*
X199624647Y-106897714D01*
X199576266Y-106921904D01*
X199382742Y-106921904D01*
X200156838Y-107163809D02*
X199866552Y-107163809D01*
X200011695Y-107163809D02*
X200011695Y-106655809D01*
X199963314Y-106728380D01*
X199914933Y-106776761D01*
X199866552Y-106800952D01*
X200471314Y-106655809D02*
X200519695Y-106655809D01*
X200568076Y-106680000D01*
X200592266Y-106704190D01*
X200616457Y-106752571D01*
X200640647Y-106849333D01*
X200640647Y-106970285D01*
X200616457Y-107067047D01*
X200592266Y-107115428D01*
X200568076Y-107139619D01*
X200519695Y-107163809D01*
X200471314Y-107163809D01*
X200422933Y-107139619D01*
X200398742Y-107115428D01*
X200374552Y-107067047D01*
X200350361Y-106970285D01*
X200350361Y-106849333D01*
X200374552Y-106752571D01*
X200398742Y-106704190D01*
X200422933Y-106680000D01*
X200471314Y-106655809D01*
D14*
X195362533Y-91917780D02*
X195029200Y-91441590D01*
X194791104Y-91917780D02*
X194791104Y-90917780D01*
X195172057Y-90917780D01*
X195267295Y-90965400D01*
X195314914Y-91013019D01*
X195362533Y-91108257D01*
X195362533Y-91251114D01*
X195314914Y-91346352D01*
X195267295Y-91393971D01*
X195172057Y-91441590D01*
X194791104Y-91441590D01*
X195838723Y-91917780D02*
X196029200Y-91917780D01*
X196124438Y-91870161D01*
X196172057Y-91822542D01*
X196267295Y-91679685D01*
X196314914Y-91489209D01*
X196314914Y-91108257D01*
X196267295Y-91013019D01*
X196219676Y-90965400D01*
X196124438Y-90917780D01*
X195933961Y-90917780D01*
X195838723Y-90965400D01*
X195791104Y-91013019D01*
X195743485Y-91108257D01*
X195743485Y-91346352D01*
X195791104Y-91441590D01*
X195838723Y-91489209D01*
X195933961Y-91536828D01*
X196124438Y-91536828D01*
X196219676Y-91489209D01*
X196267295Y-91441590D01*
X196314914Y-91346352D01*
X198237533Y-103022780D02*
X197904200Y-102546590D01*
X197666104Y-103022780D02*
X197666104Y-102022780D01*
X198047057Y-102022780D01*
X198142295Y-102070400D01*
X198189914Y-102118019D01*
X198237533Y-102213257D01*
X198237533Y-102356114D01*
X198189914Y-102451352D01*
X198142295Y-102498971D01*
X198047057Y-102546590D01*
X197666104Y-102546590D01*
X198808961Y-102451352D02*
X198713723Y-102403733D01*
X198666104Y-102356114D01*
X198618485Y-102260876D01*
X198618485Y-102213257D01*
X198666104Y-102118019D01*
X198713723Y-102070400D01*
X198808961Y-102022780D01*
X198999438Y-102022780D01*
X199094676Y-102070400D01*
X199142295Y-102118019D01*
X199189914Y-102213257D01*
X199189914Y-102260876D01*
X199142295Y-102356114D01*
X199094676Y-102403733D01*
X198999438Y-102451352D01*
X198808961Y-102451352D01*
X198713723Y-102498971D01*
X198666104Y-102546590D01*
X198618485Y-102641828D01*
X198618485Y-102832304D01*
X198666104Y-102927542D01*
X198713723Y-102975161D01*
X198808961Y-103022780D01*
X198999438Y-103022780D01*
X199094676Y-102975161D01*
X199142295Y-102927542D01*
X199189914Y-102832304D01*
X199189914Y-102641828D01*
X199142295Y-102546590D01*
X199094676Y-102498971D01*
X198999438Y-102451352D01*
D18*
X196663733Y-108205209D02*
X196494400Y-107963304D01*
X196373447Y-108205209D02*
X196373447Y-107697209D01*
X196566971Y-107697209D01*
X196615352Y-107721400D01*
X196639542Y-107745590D01*
X196663733Y-107793971D01*
X196663733Y-107866542D01*
X196639542Y-107914923D01*
X196615352Y-107939114D01*
X196566971Y-107963304D01*
X196373447Y-107963304D01*
X196833066Y-107697209D02*
X197171733Y-107697209D01*
X196954019Y-108205209D01*
D17*
X209465333Y-105944609D02*
X209296000Y-105702704D01*
X209175047Y-105944609D02*
X209175047Y-105436609D01*
X209368571Y-105436609D01*
X209416952Y-105460800D01*
X209441142Y-105484990D01*
X209465333Y-105533371D01*
X209465333Y-105605942D01*
X209441142Y-105654323D01*
X209416952Y-105678514D01*
X209368571Y-105702704D01*
X209175047Y-105702704D01*
X209900761Y-105436609D02*
X209804000Y-105436609D01*
X209755619Y-105460800D01*
X209731428Y-105484990D01*
X209683047Y-105557561D01*
X209658857Y-105654323D01*
X209658857Y-105847847D01*
X209683047Y-105896228D01*
X209707238Y-105920419D01*
X209755619Y-105944609D01*
X209852380Y-105944609D01*
X209900761Y-105920419D01*
X209924952Y-105896228D01*
X209949142Y-105847847D01*
X209949142Y-105726895D01*
X209924952Y-105678514D01*
X209900761Y-105654323D01*
X209852380Y-105630133D01*
X209755619Y-105630133D01*
X209707238Y-105654323D01*
X209683047Y-105678514D01*
X209658857Y-105726895D01*
X209236733Y-107163809D02*
X209067400Y-106921904D01*
X208946447Y-107163809D02*
X208946447Y-106655809D01*
X209139971Y-106655809D01*
X209188352Y-106680000D01*
X209212542Y-106704190D01*
X209236733Y-106752571D01*
X209236733Y-106825142D01*
X209212542Y-106873523D01*
X209188352Y-106897714D01*
X209139971Y-106921904D01*
X208946447Y-106921904D01*
X209696352Y-106655809D02*
X209454447Y-106655809D01*
X209430257Y-106897714D01*
X209454447Y-106873523D01*
X209502828Y-106849333D01*
X209623780Y-106849333D01*
X209672161Y-106873523D01*
X209696352Y-106897714D01*
X209720542Y-106946095D01*
X209720542Y-107067047D01*
X209696352Y-107115428D01*
X209672161Y-107139619D01*
X209623780Y-107163809D01*
X209502828Y-107163809D01*
X209454447Y-107139619D01*
X209430257Y-107115428D01*
X206264933Y-105284209D02*
X206095600Y-105042304D01*
X205974647Y-105284209D02*
X205974647Y-104776209D01*
X206168171Y-104776209D01*
X206216552Y-104800400D01*
X206240742Y-104824590D01*
X206264933Y-104872971D01*
X206264933Y-104945542D01*
X206240742Y-104993923D01*
X206216552Y-105018114D01*
X206168171Y-105042304D01*
X205974647Y-105042304D01*
X206700361Y-104945542D02*
X206700361Y-105284209D01*
X206579409Y-104752019D02*
X206458457Y-105114876D01*
X206772933Y-105114876D01*
X205401333Y-101880609D02*
X205232000Y-101638704D01*
X205111047Y-101880609D02*
X205111047Y-101372609D01*
X205304571Y-101372609D01*
X205352952Y-101396800D01*
X205377142Y-101420990D01*
X205401333Y-101469371D01*
X205401333Y-101541942D01*
X205377142Y-101590323D01*
X205352952Y-101614514D01*
X205304571Y-101638704D01*
X205111047Y-101638704D01*
X205570666Y-101372609D02*
X205885142Y-101372609D01*
X205715809Y-101566133D01*
X205788380Y-101566133D01*
X205836761Y-101590323D01*
X205860952Y-101614514D01*
X205885142Y-101662895D01*
X205885142Y-101783847D01*
X205860952Y-101832228D01*
X205836761Y-101856419D01*
X205788380Y-101880609D01*
X205643238Y-101880609D01*
X205594857Y-101856419D01*
X205570666Y-101832228D01*
X200549933Y-108814809D02*
X200380600Y-108572904D01*
X200259647Y-108814809D02*
X200259647Y-108306809D01*
X200453171Y-108306809D01*
X200501552Y-108331000D01*
X200525742Y-108355190D01*
X200549933Y-108403571D01*
X200549933Y-108476142D01*
X200525742Y-108524523D01*
X200501552Y-108548714D01*
X200453171Y-108572904D01*
X200259647Y-108572904D01*
X200743457Y-108355190D02*
X200767647Y-108331000D01*
X200816028Y-108306809D01*
X200936980Y-108306809D01*
X200985361Y-108331000D01*
X201009552Y-108355190D01*
X201033742Y-108403571D01*
X201033742Y-108451952D01*
X201009552Y-108524523D01*
X200719266Y-108814809D01*
X201033742Y-108814809D01*
D14*
X195692733Y-110967780D02*
X195359400Y-110491590D01*
X195121304Y-110967780D02*
X195121304Y-109967780D01*
X195502257Y-109967780D01*
X195597495Y-110015400D01*
X195645114Y-110063019D01*
X195692733Y-110158257D01*
X195692733Y-110301114D01*
X195645114Y-110396352D01*
X195597495Y-110443971D01*
X195502257Y-110491590D01*
X195121304Y-110491590D01*
X196645114Y-110967780D02*
X196073685Y-110967780D01*
X196359400Y-110967780D02*
X196359400Y-109967780D01*
X196264161Y-110110638D01*
X196168923Y-110205876D01*
X196073685Y-110253495D01*
X192311580Y-98706590D02*
X191311580Y-98706590D01*
X192263961Y-98278019D02*
X192311580Y-98135161D01*
X192311580Y-97897066D01*
X192263961Y-97801828D01*
X192216342Y-97754209D01*
X192121104Y-97706590D01*
X192025866Y-97706590D01*
X191930628Y-97754209D01*
X191883009Y-97801828D01*
X191835390Y-97897066D01*
X191787771Y-98087542D01*
X191740152Y-98182780D01*
X191692533Y-98230400D01*
X191597295Y-98278019D01*
X191502057Y-98278019D01*
X191406819Y-98230400D01*
X191359200Y-98182780D01*
X191311580Y-98087542D01*
X191311580Y-97849447D01*
X191359200Y-97706590D01*
X192311580Y-97278019D02*
X191311580Y-97278019D01*
X191311580Y-96897066D01*
X191359200Y-96801828D01*
X191406819Y-96754209D01*
X191502057Y-96706590D01*
X191644914Y-96706590D01*
X191740152Y-96754209D01*
X191787771Y-96801828D01*
X191835390Y-96897066D01*
X191835390Y-97278019D01*
D17*
X192205428Y-96422028D02*
X192181238Y-96446219D01*
X192108666Y-96470409D01*
X192060285Y-96470409D01*
X191987714Y-96446219D01*
X191939333Y-96397838D01*
X191915142Y-96349457D01*
X191890952Y-96252695D01*
X191890952Y-96180123D01*
X191915142Y-96083361D01*
X191939333Y-96034980D01*
X191987714Y-95986600D01*
X192060285Y-95962409D01*
X192108666Y-95962409D01*
X192181238Y-95986600D01*
X192205428Y-96010790D01*
X192689238Y-96470409D02*
X192398952Y-96470409D01*
X192544095Y-96470409D02*
X192544095Y-95962409D01*
X192495714Y-96034980D01*
X192447333Y-96083361D01*
X192398952Y-96107552D01*
X193003714Y-95962409D02*
X193052095Y-95962409D01*
X193100476Y-95986600D01*
X193124666Y-96010790D01*
X193148857Y-96059171D01*
X193173047Y-96155933D01*
X193173047Y-96276885D01*
X193148857Y-96373647D01*
X193124666Y-96422028D01*
X193100476Y-96446219D01*
X193052095Y-96470409D01*
X193003714Y-96470409D01*
X192955333Y-96446219D01*
X192931142Y-96422028D01*
X192906952Y-96373647D01*
X192882761Y-96276885D01*
X192882761Y-96155933D01*
X192906952Y-96059171D01*
X192931142Y-96010790D01*
X192955333Y-95986600D01*
X193003714Y-95962409D01*
X196485933Y-93755028D02*
X196461742Y-93779219D01*
X196389171Y-93803409D01*
X196340790Y-93803409D01*
X196268219Y-93779219D01*
X196219838Y-93730838D01*
X196195647Y-93682457D01*
X196171457Y-93585695D01*
X196171457Y-93513123D01*
X196195647Y-93416361D01*
X196219838Y-93367980D01*
X196268219Y-93319600D01*
X196340790Y-93295409D01*
X196389171Y-93295409D01*
X196461742Y-93319600D01*
X196485933Y-93343790D01*
X196727838Y-93803409D02*
X196824600Y-93803409D01*
X196872980Y-93779219D01*
X196897171Y-93755028D01*
X196945552Y-93682457D01*
X196969742Y-93585695D01*
X196969742Y-93392171D01*
X196945552Y-93343790D01*
X196921361Y-93319600D01*
X196872980Y-93295409D01*
X196776219Y-93295409D01*
X196727838Y-93319600D01*
X196703647Y-93343790D01*
X196679457Y-93392171D01*
X196679457Y-93513123D01*
X196703647Y-93561504D01*
X196727838Y-93585695D01*
X196776219Y-93609885D01*
X196872980Y-93609885D01*
X196921361Y-93585695D01*
X196945552Y-93561504D01*
X196969742Y-93513123D01*
D14*
X193482933Y-101277542D02*
X193435314Y-101325161D01*
X193292457Y-101372780D01*
X193197219Y-101372780D01*
X193054361Y-101325161D01*
X192959123Y-101229923D01*
X192911504Y-101134685D01*
X192863885Y-100944209D01*
X192863885Y-100801352D01*
X192911504Y-100610876D01*
X192959123Y-100515638D01*
X193054361Y-100420400D01*
X193197219Y-100372780D01*
X193292457Y-100372780D01*
X193435314Y-100420400D01*
X193482933Y-100468019D01*
X193816266Y-100372780D02*
X194482933Y-100372780D01*
X194054361Y-101372780D01*
D17*
X205325133Y-100867028D02*
X205300942Y-100891219D01*
X205228371Y-100915409D01*
X205179990Y-100915409D01*
X205107419Y-100891219D01*
X205059038Y-100842838D01*
X205034847Y-100794457D01*
X205010657Y-100697695D01*
X205010657Y-100625123D01*
X205034847Y-100528361D01*
X205059038Y-100479980D01*
X205107419Y-100431600D01*
X205179990Y-100407409D01*
X205228371Y-100407409D01*
X205300942Y-100431600D01*
X205325133Y-100455790D01*
X205760561Y-100407409D02*
X205663800Y-100407409D01*
X205615419Y-100431600D01*
X205591228Y-100455790D01*
X205542847Y-100528361D01*
X205518657Y-100625123D01*
X205518657Y-100818647D01*
X205542847Y-100867028D01*
X205567038Y-100891219D01*
X205615419Y-100915409D01*
X205712180Y-100915409D01*
X205760561Y-100891219D01*
X205784752Y-100867028D01*
X205808942Y-100818647D01*
X205808942Y-100697695D01*
X205784752Y-100649314D01*
X205760561Y-100625123D01*
X205712180Y-100600933D01*
X205615419Y-100600933D01*
X205567038Y-100625123D01*
X205542847Y-100649314D01*
X205518657Y-100697695D01*
X206874533Y-108918828D02*
X206850342Y-108943019D01*
X206777771Y-108967209D01*
X206729390Y-108967209D01*
X206656819Y-108943019D01*
X206608438Y-108894638D01*
X206584247Y-108846257D01*
X206560057Y-108749495D01*
X206560057Y-108676923D01*
X206584247Y-108580161D01*
X206608438Y-108531780D01*
X206656819Y-108483400D01*
X206729390Y-108459209D01*
X206777771Y-108459209D01*
X206850342Y-108483400D01*
X206874533Y-108507590D01*
X207334152Y-108459209D02*
X207092247Y-108459209D01*
X207068057Y-108701114D01*
X207092247Y-108676923D01*
X207140628Y-108652733D01*
X207261580Y-108652733D01*
X207309961Y-108676923D01*
X207334152Y-108701114D01*
X207358342Y-108749495D01*
X207358342Y-108870447D01*
X207334152Y-108918828D01*
X207309961Y-108943019D01*
X207261580Y-108967209D01*
X207140628Y-108967209D01*
X207092247Y-108943019D01*
X207068057Y-108918828D01*
X200067333Y-101095628D02*
X200043142Y-101119819D01*
X199970571Y-101144009D01*
X199922190Y-101144009D01*
X199849619Y-101119819D01*
X199801238Y-101071438D01*
X199777047Y-101023057D01*
X199752857Y-100926295D01*
X199752857Y-100853723D01*
X199777047Y-100756961D01*
X199801238Y-100708580D01*
X199849619Y-100660200D01*
X199922190Y-100636009D01*
X199970571Y-100636009D01*
X200043142Y-100660200D01*
X200067333Y-100684390D01*
X200502761Y-100805342D02*
X200502761Y-101144009D01*
X200381809Y-100611819D02*
X200260857Y-100974676D01*
X200575333Y-100974676D01*
X199152933Y-108741028D02*
X199128742Y-108765219D01*
X199056171Y-108789409D01*
X199007790Y-108789409D01*
X198935219Y-108765219D01*
X198886838Y-108716838D01*
X198862647Y-108668457D01*
X198838457Y-108571695D01*
X198838457Y-108499123D01*
X198862647Y-108402361D01*
X198886838Y-108353980D01*
X198935219Y-108305600D01*
X199007790Y-108281409D01*
X199056171Y-108281409D01*
X199128742Y-108305600D01*
X199152933Y-108329790D01*
X199346457Y-108329790D02*
X199370647Y-108305600D01*
X199419028Y-108281409D01*
X199539980Y-108281409D01*
X199588361Y-108305600D01*
X199612552Y-108329790D01*
X199636742Y-108378171D01*
X199636742Y-108426552D01*
X199612552Y-108499123D01*
X199322266Y-108789409D01*
X199636742Y-108789409D01*
M02*
