G04 #@! TF.GenerationSoftware,KiCad,Pcbnew,5.99.0-unknown-4135f0c~100~ubuntu18.04.1*
G04 #@! TF.CreationDate,2019-10-31T15:23:41-04:00*
G04 #@! TF.ProjectId,bias,62696173-2e6b-4696-9361-645f70636258,rev?*
G04 #@! TF.SameCoordinates,Original*
G04 #@! TF.FileFunction,Profile,NP*
%FSLAX46Y46*%
G04 Gerber Fmt 4.6, Leading zero omitted, Abs format (unit mm)*
G04 Created by KiCad (PCBNEW 5.99.0-unknown-4135f0c~100~ubuntu18.04.1) date 2019-10-31 15:23:41*
%MOMM*%
%LPD*%
G04 APERTURE LIST*
%ADD10C,0.050000*%
%ADD11C,0.010000*%
G04 APERTURE END LIST*
D10*
X203000000Y-89400002D02*
G75*
G02X197000001Y-89400001I-3000000J-10599998D01*
G01*
X197000000Y-92000000D02*
X197000001Y-89400001D01*
X203000000Y-92000000D02*
X203000000Y-89400001D01*
X203000000Y-92000000D02*
G75*
G02X197000000Y-92000000I-3000000J0D01*
G01*
D11*
X196650000Y-97200000D02*
G75*
G02X196425000Y-97425000I-225000J0D01*
G01*
X196225000Y-96975000D02*
X196425000Y-96975000D01*
X196225000Y-97425000D02*
G75*
G02X196000000Y-97200000I0J225000D01*
G01*
X196425000Y-97425000D02*
X196225000Y-97425000D01*
X196425000Y-96975000D02*
G75*
G02X196650000Y-97200000I0J-225000D01*
G01*
X196000000Y-97200000D02*
G75*
G02X196225000Y-96975000I225000J0D01*
G01*
X204342480Y-98547480D02*
X204130150Y-98759791D01*
X204130150Y-98759791D02*
G75*
G02X203670730Y-98724260I-211930J247661D01*
G01*
X203670730Y-98724260D02*
G75*
G02X203635380Y-98264650I212130J247480D01*
G01*
X203635380Y-98264650D02*
X203847520Y-98052516D01*
X203847520Y-98052516D02*
X204059653Y-97840384D01*
X204059653Y-97840383D02*
G75*
G02X204519257Y-97875733I212127J-247481D01*
G01*
X204519257Y-97875733D02*
G75*
G02X204554620Y-98335350I-212127J-247490D01*
G01*
X204554620Y-98335350D02*
X204342480Y-98547480D01*
X203842520Y-96342480D02*
X203630209Y-96130150D01*
X203630209Y-96130150D02*
G75*
G02X203665740Y-95670730I247661J211930D01*
G01*
X203665740Y-95670730D02*
G75*
G02X204125350Y-95635380I247480J-212130D01*
G01*
X204125350Y-95635380D02*
X204337484Y-95847520D01*
X204337484Y-95847520D02*
X204549616Y-96059653D01*
X204549617Y-96059653D02*
G75*
G02X204514267Y-96519257I-247481J-212127D01*
G01*
X204514267Y-96519257D02*
G75*
G02X204054650Y-96554620I-247490J212127D01*
G01*
X204054650Y-96554620D02*
X203842520Y-96342480D01*
X195852520Y-98542480D02*
X195640209Y-98330150D01*
X195640209Y-98330150D02*
G75*
G02X195675740Y-97870730I247661J211930D01*
G01*
X195675740Y-97870730D02*
G75*
G02X196135350Y-97835380I247480J-212130D01*
G01*
X196135350Y-97835380D02*
X196347484Y-98047520D01*
X196347484Y-98047520D02*
X196559616Y-98259653D01*
X196559617Y-98259653D02*
G75*
G02X196524267Y-98719257I-247481J-212127D01*
G01*
X196524267Y-98719257D02*
G75*
G02X196064650Y-98754620I-247490J212127D01*
G01*
X196064650Y-98754620D02*
X195852520Y-98542480D01*
X195857520Y-95852520D02*
X196069850Y-95640209D01*
X196069850Y-95640209D02*
G75*
G02X196529270Y-95675740I211930J-247661D01*
G01*
X196529270Y-95675740D02*
G75*
G02X196564620Y-96135350I-212130J-247480D01*
G01*
X196564620Y-96135350D02*
X196352480Y-96347484D01*
X196352480Y-96347484D02*
X196140347Y-96559616D01*
X196140347Y-96559617D02*
G75*
G02X195680743Y-96524267I-212127J247481D01*
G01*
X195680743Y-96524267D02*
G75*
G02X195645380Y-96064650I212127J247490D01*
G01*
X195645380Y-96064650D02*
X195857520Y-95852520D01*
X203550000Y-97200000D02*
G75*
G02X203775000Y-96975000I225000J0D01*
G01*
X203775000Y-96975000D02*
X203975000Y-96975000D01*
X203975000Y-96975000D02*
G75*
G02X204200000Y-97200000I0J-225000D01*
G01*
X204200000Y-97200000D02*
G75*
G02X203975000Y-97425000I-225000J0D01*
G01*
X203975000Y-97425000D02*
X203775000Y-97425000D01*
X203775000Y-97425000D02*
G75*
G02X203550000Y-97200000I0J225000D01*
G01*
M02*
