G04 #@! TF.GenerationSoftware,KiCad,Pcbnew,(5.99.0-11526-gd613292b67)*
G04 #@! TF.CreationDate,2021-07-26T19:59:08-04:00*
G04 #@! TF.ProjectId,bias,62696173-2e6b-4696-9361-645f70636258,rev?*
G04 #@! TF.SameCoordinates,Original*
G04 #@! TF.FileFunction,Copper,L4,Bot*
G04 #@! TF.FilePolarity,Positive*
%FSLAX46Y46*%
G04 Gerber Fmt 4.6, Leading zero omitted, Abs format (unit mm)*
G04 Created by KiCad (PCBNEW (5.99.0-11526-gd613292b67)) date 2021-07-26 19:59:08*
%MOMM*%
%LPD*%
G01*
G04 APERTURE LIST*
G04 Aperture macros list*
%AMRoundRect*
0 Rectangle with rounded corners*
0 $1 Rounding radius*
0 $2 $3 $4 $5 $6 $7 $8 $9 X,Y pos of 4 corners*
0 Add a 4 corners polygon primitive as box body*
4,1,4,$2,$3,$4,$5,$6,$7,$8,$9,$2,$3,0*
0 Add four circle primitives for the rounded corners*
1,1,$1+$1,$2,$3*
1,1,$1+$1,$4,$5*
1,1,$1+$1,$6,$7*
1,1,$1+$1,$8,$9*
0 Add four rect primitives between the rounded corners*
20,1,$1+$1,$2,$3,$4,$5,0*
20,1,$1+$1,$4,$5,$6,$7,0*
20,1,$1+$1,$6,$7,$8,$9,0*
20,1,$1+$1,$8,$9,$2,$3,0*%
G04 Aperture macros list end*
G04 #@! TA.AperFunction,ComponentPad*
%ADD10C,0.704800*%
G04 #@! TD*
G04 #@! TA.AperFunction,ComponentPad*
%ADD11C,0.200000*%
G04 #@! TD*
G04 #@! TA.AperFunction,ComponentPad*
%ADD12O,1.700000X1.200000*%
G04 #@! TD*
G04 #@! TA.AperFunction,ComponentPad*
%ADD13R,1.700000X1.700000*%
G04 #@! TD*
G04 #@! TA.AperFunction,ComponentPad*
%ADD14O,1.700000X1.700000*%
G04 #@! TD*
G04 #@! TA.AperFunction,SMDPad,CuDef*
%ADD15RoundRect,0.147500X-0.172500X0.147500X-0.172500X-0.147500X0.172500X-0.147500X0.172500X0.147500X0*%
G04 #@! TD*
G04 #@! TA.AperFunction,SMDPad,CuDef*
%ADD16RoundRect,0.250000X0.375000X0.625000X-0.375000X0.625000X-0.375000X-0.625000X0.375000X-0.625000X0*%
G04 #@! TD*
G04 #@! TA.AperFunction,SMDPad,CuDef*
%ADD17R,2.510000X1.000000*%
G04 #@! TD*
G04 #@! TA.AperFunction,ViaPad*
%ADD18C,0.600000*%
G04 #@! TD*
G04 #@! TA.AperFunction,Conductor*
%ADD19C,0.200000*%
G04 #@! TD*
G04 #@! TA.AperFunction,Conductor*
%ADD20C,0.250000*%
G04 #@! TD*
G04 #@! TA.AperFunction,Conductor*
%ADD21C,0.500000*%
G04 #@! TD*
G04 APERTURE END LIST*
D10*
X190359200Y-97255400D03*
X190359200Y-103605400D03*
D11*
X194822334Y-104767087D03*
X194822334Y-103352874D03*
X196236548Y-104767087D03*
X195529441Y-104059981D03*
X193408121Y-104767087D03*
X194115228Y-104059981D03*
X195529441Y-105474194D03*
X194115228Y-105474194D03*
X194822334Y-106181301D03*
D12*
X195559240Y-99142680D03*
X195559240Y-96202680D03*
X203759239Y-99142680D03*
X203759239Y-96202680D03*
D13*
X207391000Y-98260000D03*
D14*
X209931000Y-98260000D03*
X207391000Y-100800000D03*
X209931000Y-100800000D03*
X207391000Y-103340000D03*
X209931000Y-103340000D03*
D15*
X202050000Y-106390000D03*
X202050000Y-107360000D03*
D16*
X206200000Y-106525000D03*
X203400000Y-106525000D03*
D17*
X193855000Y-97715000D03*
X190545000Y-100255000D03*
X193855000Y-102795000D03*
X190545000Y-105335000D03*
D18*
X204240000Y-90670000D03*
X193869200Y-92490400D03*
X208229200Y-96260400D03*
X206919200Y-94670400D03*
X203414200Y-107100400D03*
X203414200Y-106250400D03*
X204264200Y-107100400D03*
X204233742Y-106254173D03*
X204100000Y-109900000D03*
X192450000Y-100000000D03*
X193319400Y-94348400D03*
X193329400Y-93458400D03*
X196347600Y-94167000D03*
X196900000Y-111400000D03*
X199275000Y-102050000D03*
X200650000Y-107575000D03*
X200225000Y-101325000D03*
X200800000Y-108875000D03*
X206275000Y-107975000D03*
X202025000Y-108200000D03*
X199400000Y-107075000D03*
X198400000Y-97600000D03*
X200925000Y-97550000D03*
X195076399Y-93228401D03*
X198850000Y-101075000D03*
X202329200Y-105310400D03*
X205425000Y-105600000D03*
X206200000Y-105600000D03*
X190359200Y-101065400D03*
X191125000Y-99225000D03*
X194525000Y-109300000D03*
X197815200Y-108991400D03*
X191759400Y-93878400D03*
X191950000Y-99150000D03*
X190365500Y-98519100D03*
X199877680Y-100543360D03*
X195950840Y-101097080D03*
X199325000Y-98225000D03*
X200025000Y-96975000D03*
D19*
X204253169Y-106273600D02*
X204233742Y-106254173D01*
X203398800Y-107085000D02*
X203414200Y-107100400D01*
X194264460Y-102795000D02*
X194822334Y-103352874D01*
X203154600Y-107360000D02*
X203414200Y-107100400D01*
X202050000Y-107360000D02*
X203154600Y-107360000D01*
X193855000Y-102795000D02*
X194264460Y-102795000D01*
X202025000Y-108200000D02*
X200525000Y-108200000D01*
X200525000Y-108200000D02*
X199400000Y-107075000D01*
X202250000Y-105389600D02*
X202329200Y-105310400D01*
X202250000Y-106115000D02*
X202250000Y-105389600D01*
D20*
X205600000Y-105750000D02*
X205750000Y-105750000D01*
X205550000Y-105750000D02*
X205300000Y-105500000D01*
D21*
X205975000Y-106050000D02*
X205425000Y-105625000D01*
D20*
X205600000Y-105750000D02*
X205550000Y-105750000D01*
X205750000Y-105750000D02*
X206000000Y-105500000D01*
X190379599Y-100420401D02*
X190545000Y-100420401D01*
X190359200Y-101065400D02*
X190359200Y-100440800D01*
X190359200Y-100440800D02*
X190379599Y-100420401D01*
D19*
X192285736Y-97715000D02*
X193855000Y-97715000D01*
X191200000Y-99225000D02*
X191200000Y-98800736D01*
D20*
X193855000Y-97715000D02*
X194131560Y-97715000D01*
D19*
X191200000Y-98800736D02*
X192285736Y-97715000D01*
X189941236Y-98519100D02*
X188552760Y-99907576D01*
X190545000Y-104970922D02*
X190545000Y-105335000D01*
X188552760Y-99907576D02*
X188552760Y-102978682D01*
X188552760Y-102978682D02*
X190545000Y-104970922D01*
X190365500Y-98519100D02*
X189941236Y-98519100D01*
X196250839Y-100797081D02*
X195950840Y-101097080D01*
X199877680Y-100543360D02*
X199720200Y-100543360D01*
X199871041Y-100549999D02*
X199877680Y-100543360D01*
X196497921Y-100549999D02*
X199871041Y-100549999D01*
X196250839Y-100797081D02*
X196497921Y-100549999D01*
X199325000Y-98225000D02*
X199325000Y-97675000D01*
X199325000Y-97675000D02*
X200025000Y-96975000D01*
X203572281Y-89752058D02*
X204207395Y-89976725D01*
X204828471Y-90237665D01*
X205433433Y-90534006D01*
X206020306Y-90864776D01*
X206587105Y-91228863D01*
X207131947Y-91625052D01*
X207653000Y-92052013D01*
X208148575Y-92508360D01*
X208616966Y-92992525D01*
X209056644Y-93502926D01*
X209466125Y-94037841D01*
X209844054Y-94595499D01*
X210189176Y-95174050D01*
X210500327Y-95771540D01*
X210776484Y-96386009D01*
X211016708Y-97015361D01*
X211220222Y-97657565D01*
X211386327Y-98310415D01*
X211514480Y-98971771D01*
X211604251Y-99639424D01*
X211655340Y-100311141D01*
X211667579Y-100984708D01*
X211640927Y-101657812D01*
X211575468Y-102328308D01*
X211471428Y-102993871D01*
X211329147Y-103652339D01*
X211149101Y-104301498D01*
X210931893Y-104939182D01*
X210678249Y-105563258D01*
X210389005Y-106171664D01*
X210065134Y-106762362D01*
X209707707Y-107333391D01*
X209317928Y-107882829D01*
X208897093Y-108408855D01*
X208446578Y-108909741D01*
X207967940Y-109383761D01*
X207462724Y-109829383D01*
X206932630Y-110245109D01*
X206379436Y-110629542D01*
X205804983Y-110981406D01*
X205211149Y-111299548D01*
X204599985Y-111582868D01*
X203973474Y-111830451D01*
X203333713Y-112041466D01*
X202682837Y-112215209D01*
X202023030Y-112351097D01*
X201356467Y-112448681D01*
X200685404Y-112507632D01*
X200012042Y-112527757D01*
X199338624Y-112508987D01*
X198667461Y-112451390D01*
X198000692Y-112355146D01*
X197340609Y-112220586D01*
X196689393Y-112048157D01*
X196049219Y-111838433D01*
X195422199Y-111592108D01*
X194810439Y-111310006D01*
X194216007Y-110993083D01*
X193640833Y-110642368D01*
X193086862Y-110259047D01*
X192555931Y-109844389D01*
X192049829Y-109399793D01*
X191955408Y-109306659D01*
X193921227Y-109306659D01*
X193939816Y-109448815D01*
X193947364Y-109475851D01*
X194005104Y-109607075D01*
X194019937Y-109630905D01*
X194112187Y-109740650D01*
X194133112Y-109759359D01*
X194252455Y-109838801D01*
X194277791Y-109850886D01*
X194414635Y-109893638D01*
X194442342Y-109898125D01*
X194585684Y-109900753D01*
X194613539Y-109897284D01*
X194751857Y-109859574D01*
X194777618Y-109848426D01*
X194899792Y-109773411D01*
X194921389Y-109755481D01*
X195017598Y-109649190D01*
X195033294Y-109625920D01*
X195095804Y-109496899D01*
X195104338Y-109470158D01*
X195128124Y-109328779D01*
X195129489Y-109313564D01*
X195129640Y-109301210D01*
X195128647Y-109285965D01*
X195108323Y-109144047D01*
X195100445Y-109117106D01*
X195046318Y-108998059D01*
X197211427Y-108998059D01*
X197230016Y-109140215D01*
X197237564Y-109167251D01*
X197295304Y-109298475D01*
X197310137Y-109322305D01*
X197402387Y-109432050D01*
X197423312Y-109450759D01*
X197542655Y-109530201D01*
X197567991Y-109542286D01*
X197704835Y-109585038D01*
X197732542Y-109589525D01*
X197875884Y-109592153D01*
X197903739Y-109588684D01*
X198042057Y-109550974D01*
X198067818Y-109539826D01*
X198189992Y-109464811D01*
X198211589Y-109446881D01*
X198307798Y-109340590D01*
X198323494Y-109317320D01*
X198386004Y-109188299D01*
X198394538Y-109161558D01*
X198418324Y-109020179D01*
X198419689Y-109004964D01*
X198419840Y-108992610D01*
X198418847Y-108977365D01*
X198398523Y-108835447D01*
X198390645Y-108808506D01*
X198331306Y-108677996D01*
X198316183Y-108654349D01*
X198222599Y-108545740D01*
X198201447Y-108527288D01*
X198081142Y-108449310D01*
X198055661Y-108437536D01*
X197918305Y-108396458D01*
X197890544Y-108392309D01*
X197747181Y-108391433D01*
X197719371Y-108395242D01*
X197581524Y-108434639D01*
X197555901Y-108446101D01*
X197434652Y-108522603D01*
X197413276Y-108540796D01*
X197318373Y-108648254D01*
X197302963Y-108671714D01*
X197242033Y-108801489D01*
X197233826Y-108828333D01*
X197211770Y-108969993D01*
X197211427Y-108998059D01*
X195046318Y-108998059D01*
X195041106Y-108986596D01*
X195025983Y-108962949D01*
X194932399Y-108854340D01*
X194911247Y-108835888D01*
X194790942Y-108757910D01*
X194765461Y-108746136D01*
X194628105Y-108705058D01*
X194600344Y-108700909D01*
X194456981Y-108700033D01*
X194429171Y-108703842D01*
X194291324Y-108743239D01*
X194265701Y-108754701D01*
X194144452Y-108831203D01*
X194123076Y-108849396D01*
X194028173Y-108956854D01*
X194012763Y-108980314D01*
X193951833Y-109110089D01*
X193943626Y-109136933D01*
X193921570Y-109278593D01*
X193921227Y-109306659D01*
X191955408Y-109306659D01*
X191570219Y-108926720D01*
X191118713Y-108426761D01*
X190696814Y-107901578D01*
X190305929Y-107352923D01*
X189947355Y-106782618D01*
X189777210Y-106473773D01*
X194558015Y-106473773D01*
X194567586Y-106534205D01*
X194610851Y-106577470D01*
X194667885Y-106606530D01*
X194697343Y-106616101D01*
X194806847Y-106633445D01*
X194837821Y-106633445D01*
X194947325Y-106616101D01*
X194976783Y-106606530D01*
X195033817Y-106577470D01*
X195077081Y-106534205D01*
X195086653Y-106473773D01*
X195058876Y-106419256D01*
X194892338Y-106252718D01*
X194837821Y-106224941D01*
X194777389Y-106234512D01*
X194752330Y-106252718D01*
X194585792Y-106419256D01*
X194558015Y-106473773D01*
X189777210Y-106473773D01*
X189622287Y-106192560D01*
X189609505Y-106165814D01*
X194370190Y-106165814D01*
X194370190Y-106196788D01*
X194387534Y-106306292D01*
X194397105Y-106335750D01*
X194426165Y-106392784D01*
X194469430Y-106436048D01*
X194529862Y-106445620D01*
X194584379Y-106417843D01*
X194750917Y-106251305D01*
X194778694Y-106196788D01*
X194773788Y-106165814D01*
X194865974Y-106165814D01*
X194875545Y-106226246D01*
X194893751Y-106251305D01*
X195060289Y-106417843D01*
X195114806Y-106445620D01*
X195175238Y-106436049D01*
X195218503Y-106392784D01*
X195247563Y-106335750D01*
X195257134Y-106306292D01*
X195274478Y-106196788D01*
X195274478Y-106165814D01*
X195257134Y-106056310D01*
X195247563Y-106026852D01*
X195218503Y-105969818D01*
X195175238Y-105926554D01*
X195114806Y-105916982D01*
X195060289Y-105944759D01*
X194893751Y-106111297D01*
X194865974Y-106165814D01*
X194773788Y-106165814D01*
X194769123Y-106136356D01*
X194750917Y-106111297D01*
X194584379Y-105944759D01*
X194529862Y-105916982D01*
X194469430Y-105926553D01*
X194426165Y-105969818D01*
X194397105Y-106026852D01*
X194387534Y-106056310D01*
X194370190Y-106165814D01*
X189609505Y-106165814D01*
X189594541Y-106134500D01*
X191819748Y-106134500D01*
X191839062Y-106132598D01*
X191897545Y-106120965D01*
X191933233Y-106106182D01*
X191999554Y-106061867D01*
X192026867Y-106034554D01*
X192071182Y-105968233D01*
X192085965Y-105932545D01*
X192097598Y-105874062D01*
X192099500Y-105854748D01*
X192099500Y-105766666D01*
X193850909Y-105766666D01*
X193860480Y-105827098D01*
X193903745Y-105870363D01*
X193960779Y-105899423D01*
X193990237Y-105908994D01*
X194099741Y-105926338D01*
X194130715Y-105926338D01*
X194240219Y-105908994D01*
X194269677Y-105899423D01*
X194290469Y-105888829D01*
X194558015Y-105888829D01*
X194585792Y-105943346D01*
X194752330Y-106109884D01*
X194806847Y-106137661D01*
X194867279Y-106128090D01*
X194892338Y-106109884D01*
X195058876Y-105943346D01*
X195086653Y-105888829D01*
X195077082Y-105828397D01*
X195033817Y-105785132D01*
X194997575Y-105766666D01*
X195265122Y-105766666D01*
X195274693Y-105827098D01*
X195317958Y-105870363D01*
X195374992Y-105899423D01*
X195404450Y-105908994D01*
X195513954Y-105926338D01*
X195544928Y-105926338D01*
X195654432Y-105908994D01*
X195683890Y-105899423D01*
X195740924Y-105870363D01*
X195784188Y-105827098D01*
X195793760Y-105766666D01*
X195765983Y-105712149D01*
X195599445Y-105545611D01*
X195544928Y-105517834D01*
X195484496Y-105527405D01*
X195459437Y-105545611D01*
X195292899Y-105712149D01*
X195265122Y-105766666D01*
X194997575Y-105766666D01*
X194976783Y-105756072D01*
X194947325Y-105746501D01*
X194837821Y-105729157D01*
X194806847Y-105729157D01*
X194697343Y-105746501D01*
X194667885Y-105756072D01*
X194610851Y-105785132D01*
X194567587Y-105828397D01*
X194558015Y-105888829D01*
X194290469Y-105888829D01*
X194326711Y-105870363D01*
X194369975Y-105827098D01*
X194379547Y-105766666D01*
X194351770Y-105712149D01*
X194185232Y-105545611D01*
X194130715Y-105517834D01*
X194070283Y-105527405D01*
X194045224Y-105545611D01*
X193878686Y-105712149D01*
X193850909Y-105766666D01*
X192099500Y-105766666D01*
X192099500Y-105458707D01*
X193663084Y-105458707D01*
X193663084Y-105489681D01*
X193680428Y-105599185D01*
X193689999Y-105628643D01*
X193719059Y-105685677D01*
X193762324Y-105728941D01*
X193822756Y-105738513D01*
X193877273Y-105710736D01*
X194043811Y-105544198D01*
X194071588Y-105489681D01*
X194066682Y-105458707D01*
X194158868Y-105458707D01*
X194168439Y-105519139D01*
X194186645Y-105544198D01*
X194353183Y-105710736D01*
X194407700Y-105738513D01*
X194468132Y-105728942D01*
X194511397Y-105685677D01*
X194540457Y-105628643D01*
X194550028Y-105599185D01*
X194567372Y-105489681D01*
X194567372Y-105458707D01*
X195077297Y-105458707D01*
X195077297Y-105489681D01*
X195094641Y-105599185D01*
X195104212Y-105628643D01*
X195133272Y-105685677D01*
X195176537Y-105728941D01*
X195236969Y-105738513D01*
X195291486Y-105710736D01*
X195458024Y-105544198D01*
X195485801Y-105489681D01*
X195480895Y-105458707D01*
X195573081Y-105458707D01*
X195582652Y-105519139D01*
X195600858Y-105544198D01*
X195767396Y-105710736D01*
X195821913Y-105738513D01*
X195882345Y-105728942D01*
X195925610Y-105685677D01*
X195954670Y-105628643D01*
X195964241Y-105599185D01*
X195981585Y-105489681D01*
X195981585Y-105458707D01*
X195964241Y-105349203D01*
X195954670Y-105319745D01*
X195925610Y-105262711D01*
X195882345Y-105219447D01*
X195821913Y-105209875D01*
X195767396Y-105237652D01*
X195600858Y-105404190D01*
X195573081Y-105458707D01*
X195480895Y-105458707D01*
X195476230Y-105429249D01*
X195458024Y-105404190D01*
X195291486Y-105237652D01*
X195236969Y-105209875D01*
X195176537Y-105219446D01*
X195133272Y-105262711D01*
X195104212Y-105319745D01*
X195094641Y-105349203D01*
X195077297Y-105458707D01*
X194567372Y-105458707D01*
X194550028Y-105349203D01*
X194540457Y-105319745D01*
X194511397Y-105262711D01*
X194468132Y-105219447D01*
X194407700Y-105209875D01*
X194353183Y-105237652D01*
X194186645Y-105404190D01*
X194158868Y-105458707D01*
X194066682Y-105458707D01*
X194062017Y-105429249D01*
X194043811Y-105404190D01*
X193877273Y-105237652D01*
X193822756Y-105209875D01*
X193762324Y-105219446D01*
X193719059Y-105262711D01*
X193689999Y-105319745D01*
X193680428Y-105349203D01*
X193663084Y-105458707D01*
X192099500Y-105458707D01*
X192099500Y-105059559D01*
X193143802Y-105059559D01*
X193153373Y-105119991D01*
X193196638Y-105163256D01*
X193253672Y-105192316D01*
X193283130Y-105201887D01*
X193392634Y-105219231D01*
X193423608Y-105219231D01*
X193533112Y-105201887D01*
X193562570Y-105192316D01*
X193583362Y-105181722D01*
X193850909Y-105181722D01*
X193878686Y-105236239D01*
X194045224Y-105402777D01*
X194099741Y-105430554D01*
X194160173Y-105420983D01*
X194185232Y-105402777D01*
X194351770Y-105236239D01*
X194379547Y-105181722D01*
X194369976Y-105121290D01*
X194326711Y-105078025D01*
X194290469Y-105059559D01*
X194558015Y-105059559D01*
X194567586Y-105119991D01*
X194610851Y-105163256D01*
X194667885Y-105192316D01*
X194697343Y-105201887D01*
X194806847Y-105219231D01*
X194837821Y-105219231D01*
X194947325Y-105201887D01*
X194976783Y-105192316D01*
X194997575Y-105181722D01*
X195265122Y-105181722D01*
X195292899Y-105236239D01*
X195459437Y-105402777D01*
X195513954Y-105430554D01*
X195574386Y-105420983D01*
X195599445Y-105402777D01*
X195765983Y-105236239D01*
X195793760Y-105181722D01*
X195784189Y-105121290D01*
X195740924Y-105078025D01*
X195704682Y-105059559D01*
X195972229Y-105059559D01*
X195981800Y-105119991D01*
X196025065Y-105163256D01*
X196082099Y-105192316D01*
X196111557Y-105201887D01*
X196221061Y-105219231D01*
X196252035Y-105219231D01*
X196361539Y-105201887D01*
X196390997Y-105192316D01*
X196448031Y-105163256D01*
X196491295Y-105119991D01*
X196500867Y-105059559D01*
X196473090Y-105005042D01*
X196306552Y-104838504D01*
X196252035Y-104810727D01*
X196191603Y-104820298D01*
X196166544Y-104838504D01*
X196000006Y-105005042D01*
X195972229Y-105059559D01*
X195704682Y-105059559D01*
X195683890Y-105048965D01*
X195654432Y-105039394D01*
X195544928Y-105022050D01*
X195513954Y-105022050D01*
X195404450Y-105039394D01*
X195374992Y-105048965D01*
X195317958Y-105078025D01*
X195274694Y-105121290D01*
X195265122Y-105181722D01*
X194997575Y-105181722D01*
X195033817Y-105163256D01*
X195077081Y-105119991D01*
X195086653Y-105059559D01*
X195058876Y-105005042D01*
X194892338Y-104838504D01*
X194837821Y-104810727D01*
X194777389Y-104820298D01*
X194752330Y-104838504D01*
X194585792Y-105005042D01*
X194558015Y-105059559D01*
X194290469Y-105059559D01*
X194269677Y-105048965D01*
X194240219Y-105039394D01*
X194130715Y-105022050D01*
X194099741Y-105022050D01*
X193990237Y-105039394D01*
X193960779Y-105048965D01*
X193903745Y-105078025D01*
X193860481Y-105121290D01*
X193850909Y-105181722D01*
X193583362Y-105181722D01*
X193619604Y-105163256D01*
X193662868Y-105119991D01*
X193672440Y-105059559D01*
X193644663Y-105005042D01*
X193478125Y-104838504D01*
X193423608Y-104810727D01*
X193363176Y-104820298D01*
X193338117Y-104838504D01*
X193171579Y-105005042D01*
X193143802Y-105059559D01*
X192099500Y-105059559D01*
X192099500Y-104815252D01*
X192097598Y-104795938D01*
X192088779Y-104751600D01*
X192955977Y-104751600D01*
X192955977Y-104782574D01*
X192973321Y-104892078D01*
X192982892Y-104921536D01*
X193011952Y-104978570D01*
X193055217Y-105021834D01*
X193115649Y-105031406D01*
X193170166Y-105003629D01*
X193336704Y-104837091D01*
X193364481Y-104782574D01*
X193359575Y-104751600D01*
X193451761Y-104751600D01*
X193461332Y-104812032D01*
X193479538Y-104837091D01*
X193646076Y-105003629D01*
X193700593Y-105031406D01*
X193761025Y-105021835D01*
X193804290Y-104978570D01*
X193833350Y-104921536D01*
X193842921Y-104892078D01*
X193860265Y-104782574D01*
X193860265Y-104751600D01*
X194370190Y-104751600D01*
X194370190Y-104782574D01*
X194387534Y-104892078D01*
X194397105Y-104921536D01*
X194426165Y-104978570D01*
X194469430Y-105021834D01*
X194529862Y-105031406D01*
X194584379Y-105003629D01*
X194750917Y-104837091D01*
X194778694Y-104782574D01*
X194773788Y-104751600D01*
X194865974Y-104751600D01*
X194875545Y-104812032D01*
X194893751Y-104837091D01*
X195060289Y-105003629D01*
X195114806Y-105031406D01*
X195175238Y-105021835D01*
X195218503Y-104978570D01*
X195247563Y-104921536D01*
X195257134Y-104892078D01*
X195274478Y-104782574D01*
X195274478Y-104751600D01*
X195784404Y-104751600D01*
X195784404Y-104782574D01*
X195801748Y-104892078D01*
X195811319Y-104921536D01*
X195840379Y-104978570D01*
X195883644Y-105021834D01*
X195944076Y-105031406D01*
X195998593Y-105003629D01*
X196165131Y-104837091D01*
X196192908Y-104782574D01*
X196188002Y-104751600D01*
X196280188Y-104751600D01*
X196289759Y-104812032D01*
X196307965Y-104837091D01*
X196474503Y-105003629D01*
X196529020Y-105031406D01*
X196589452Y-105021835D01*
X196632717Y-104978570D01*
X196661777Y-104921536D01*
X196671348Y-104892078D01*
X196688692Y-104782574D01*
X196688692Y-104751600D01*
X196671348Y-104642096D01*
X196661777Y-104612638D01*
X196634709Y-104559513D01*
X197977219Y-104559513D01*
X197986790Y-104619945D01*
X198010802Y-104650363D01*
X200035802Y-106375363D01*
X200053825Y-106387572D01*
X201393582Y-107093989D01*
X201382219Y-107165729D01*
X201381000Y-107181216D01*
X201381000Y-107235000D01*
X201399907Y-107293191D01*
X201449407Y-107329155D01*
X201480000Y-107334000D01*
X202076000Y-107334000D01*
X202076000Y-107386000D01*
X201480000Y-107386000D01*
X201421809Y-107404907D01*
X201385845Y-107454407D01*
X201381000Y-107485000D01*
X201381000Y-107538784D01*
X201382219Y-107554271D01*
X201396962Y-107647352D01*
X201406533Y-107676810D01*
X201463697Y-107789002D01*
X201472051Y-107800500D01*
X200690479Y-107800500D01*
X200001775Y-107111796D01*
X200003124Y-107103780D01*
X200004489Y-107088564D01*
X200004640Y-107076210D01*
X200003647Y-107060965D01*
X199983323Y-106919047D01*
X199975445Y-106892106D01*
X199916106Y-106761596D01*
X199900983Y-106737949D01*
X199807399Y-106629340D01*
X199786247Y-106610888D01*
X199665942Y-106532910D01*
X199640461Y-106521136D01*
X199503105Y-106480058D01*
X199475344Y-106475909D01*
X199331981Y-106475033D01*
X199304171Y-106478842D01*
X199166324Y-106518239D01*
X199140701Y-106529701D01*
X199019452Y-106606203D01*
X198998076Y-106624396D01*
X198903173Y-106731854D01*
X198887763Y-106755314D01*
X198826833Y-106885089D01*
X198818626Y-106911933D01*
X198796570Y-107053593D01*
X198796227Y-107081659D01*
X198814816Y-107223815D01*
X198822364Y-107250851D01*
X198880104Y-107382075D01*
X198894937Y-107405905D01*
X198987187Y-107515650D01*
X199008112Y-107534359D01*
X199127455Y-107613801D01*
X199152791Y-107625886D01*
X199289635Y-107668638D01*
X199317342Y-107673125D01*
X199435308Y-107675288D01*
X200204680Y-108444660D01*
X200212247Y-108454849D01*
X200248480Y-108488460D01*
X200262272Y-108502252D01*
X200272577Y-108510814D01*
X200294317Y-108530981D01*
X200324962Y-108550354D01*
X200335652Y-108554619D01*
X200345142Y-108561129D01*
X200378288Y-108575817D01*
X200404199Y-108581966D01*
X200428936Y-108591835D01*
X200455962Y-108598411D01*
X200462255Y-108599028D01*
X200471915Y-108599500D01*
X200478084Y-108599500D01*
X200487207Y-108601665D01*
X200523416Y-108603436D01*
X200552337Y-108599500D01*
X201577597Y-108599500D01*
X201612187Y-108640650D01*
X201633112Y-108659359D01*
X201752455Y-108738801D01*
X201777791Y-108750886D01*
X201914635Y-108793638D01*
X201942342Y-108798125D01*
X202085684Y-108800753D01*
X202113539Y-108797284D01*
X202251857Y-108759574D01*
X202277618Y-108748426D01*
X202399792Y-108673411D01*
X202421389Y-108655481D01*
X202517598Y-108549190D01*
X202533294Y-108525920D01*
X202595804Y-108396899D01*
X202604338Y-108370158D01*
X202628124Y-108228779D01*
X202629489Y-108213564D01*
X202629640Y-108201210D01*
X202628647Y-108185965D01*
X202608323Y-108044047D01*
X202600445Y-108017106D01*
X202542499Y-107889659D01*
X202618097Y-107814061D01*
X202636303Y-107789002D01*
X202693467Y-107676810D01*
X202700436Y-107655359D01*
X202723046Y-107672304D01*
X202747667Y-107685783D01*
X202881776Y-107736058D01*
X202905836Y-107741779D01*
X202966976Y-107748421D01*
X202977668Y-107749000D01*
X203275000Y-107749000D01*
X203333191Y-107730093D01*
X203369155Y-107680593D01*
X203374000Y-107650000D01*
X203374000Y-106650000D01*
X203426000Y-106650000D01*
X203426000Y-107650000D01*
X203444907Y-107708191D01*
X203494407Y-107744155D01*
X203525000Y-107749000D01*
X203822332Y-107749000D01*
X203833024Y-107748421D01*
X203894164Y-107741779D01*
X203918224Y-107736058D01*
X204052333Y-107685783D01*
X204076954Y-107672304D01*
X204191562Y-107586410D01*
X204211410Y-107566562D01*
X204297304Y-107451954D01*
X204310783Y-107427333D01*
X204361058Y-107293224D01*
X204366779Y-107269164D01*
X204373421Y-107208024D01*
X204374000Y-107197332D01*
X204374000Y-106650000D01*
X204355093Y-106591809D01*
X204305593Y-106555845D01*
X204275000Y-106551000D01*
X203525000Y-106551000D01*
X203466809Y-106569907D01*
X203430845Y-106619407D01*
X203426000Y-106650000D01*
X203374000Y-106650000D01*
X203374000Y-105400000D01*
X203426000Y-105400000D01*
X203426000Y-106400000D01*
X203444907Y-106458191D01*
X203494407Y-106494155D01*
X203525000Y-106499000D01*
X204275000Y-106499000D01*
X204333191Y-106480093D01*
X204369155Y-106430593D01*
X204374000Y-106400000D01*
X204374000Y-105852668D01*
X204373421Y-105841976D01*
X204366779Y-105780836D01*
X204361058Y-105756776D01*
X204310783Y-105622667D01*
X204302019Y-105606659D01*
X204821227Y-105606659D01*
X204839816Y-105748815D01*
X204847364Y-105775851D01*
X204905104Y-105907075D01*
X204919937Y-105930905D01*
X205012187Y-106040650D01*
X205033112Y-106059359D01*
X205152455Y-106138801D01*
X205177791Y-106150886D01*
X205226609Y-106166137D01*
X205275500Y-106203917D01*
X205275500Y-107203834D01*
X205275939Y-107213151D01*
X205278920Y-107244686D01*
X205284073Y-107268171D01*
X205328958Y-107395986D01*
X205342733Y-107422002D01*
X205423217Y-107530968D01*
X205444032Y-107551783D01*
X205552998Y-107632267D01*
X205579014Y-107646042D01*
X205706829Y-107690927D01*
X205730314Y-107696080D01*
X205761849Y-107699061D01*
X205771166Y-107699500D01*
X206628834Y-107699500D01*
X206638151Y-107699061D01*
X206669686Y-107696080D01*
X206693171Y-107690927D01*
X206820986Y-107646042D01*
X206847002Y-107632267D01*
X206955968Y-107551783D01*
X206976783Y-107530968D01*
X207057267Y-107422002D01*
X207071042Y-107395986D01*
X207115927Y-107268171D01*
X207121080Y-107244686D01*
X207124061Y-107213151D01*
X207124500Y-107203834D01*
X207124500Y-105846166D01*
X207124061Y-105836849D01*
X207121080Y-105805314D01*
X207115927Y-105781829D01*
X207071042Y-105654014D01*
X207057267Y-105627998D01*
X206976783Y-105519032D01*
X206955968Y-105498217D01*
X206847002Y-105417733D01*
X206820986Y-105403958D01*
X206759678Y-105382429D01*
X206716106Y-105286596D01*
X206700983Y-105262949D01*
X206607399Y-105154340D01*
X206586247Y-105135888D01*
X206465942Y-105057910D01*
X206440461Y-105046136D01*
X206303105Y-105005058D01*
X206275344Y-105000909D01*
X206131981Y-105000033D01*
X206104171Y-105003842D01*
X205966324Y-105043239D01*
X205940701Y-105054701D01*
X205880883Y-105092443D01*
X205834693Y-105104820D01*
X205803533Y-105119350D01*
X205794976Y-105125342D01*
X205690942Y-105057910D01*
X205665461Y-105046136D01*
X205528105Y-105005058D01*
X205500344Y-105000909D01*
X205356981Y-105000033D01*
X205329171Y-105003842D01*
X205191324Y-105043239D01*
X205165701Y-105054701D01*
X205044452Y-105131203D01*
X205023076Y-105149396D01*
X204928173Y-105256854D01*
X204912763Y-105280314D01*
X204851833Y-105410089D01*
X204843626Y-105436933D01*
X204821570Y-105578593D01*
X204821227Y-105606659D01*
X204302019Y-105606659D01*
X204297304Y-105598046D01*
X204211410Y-105483438D01*
X204191562Y-105463590D01*
X204076954Y-105377696D01*
X204052333Y-105364217D01*
X203918224Y-105313942D01*
X203894164Y-105308221D01*
X203833024Y-105301579D01*
X203822332Y-105301000D01*
X203525000Y-105301000D01*
X203466809Y-105319907D01*
X203430845Y-105369407D01*
X203426000Y-105400000D01*
X203374000Y-105400000D01*
X203355093Y-105341809D01*
X203305593Y-105305845D01*
X203275000Y-105301000D01*
X202977668Y-105301000D01*
X202966976Y-105301579D01*
X202933424Y-105305224D01*
X202932847Y-105296365D01*
X202912523Y-105154447D01*
X202904645Y-105127506D01*
X202845306Y-104996996D01*
X202830183Y-104973349D01*
X202775728Y-104910151D01*
X202793974Y-104711726D01*
X204315362Y-103374356D01*
X204339577Y-103333546D01*
X206236867Y-103333546D01*
X206254106Y-103538837D01*
X206257594Y-103557841D01*
X206314379Y-103755874D01*
X206321492Y-103773839D01*
X206415660Y-103957071D01*
X206426126Y-103973312D01*
X206554091Y-104134764D01*
X206567513Y-104148662D01*
X206724400Y-104282183D01*
X206740266Y-104293210D01*
X206920100Y-104393716D01*
X206937805Y-104401452D01*
X207133736Y-104465114D01*
X207152607Y-104469263D01*
X207357172Y-104493655D01*
X207376489Y-104494059D01*
X207581895Y-104478254D01*
X207600923Y-104474899D01*
X207799348Y-104419498D01*
X207817362Y-104412511D01*
X208001247Y-104319624D01*
X208017560Y-104309271D01*
X208179901Y-104182437D01*
X208193894Y-104169112D01*
X208328507Y-104013160D01*
X208339644Y-103997372D01*
X208441403Y-103818244D01*
X208449262Y-103800593D01*
X208514290Y-103605112D01*
X208518570Y-103586271D01*
X208533072Y-103471475D01*
X208737966Y-103471475D01*
X208741100Y-103519290D01*
X208743934Y-103537184D01*
X208793698Y-103733130D01*
X208799746Y-103750208D01*
X208884384Y-103933803D01*
X208893443Y-103949493D01*
X209010123Y-104114591D01*
X209021889Y-104128368D01*
X209166701Y-104269437D01*
X209180780Y-104280838D01*
X209348875Y-104393156D01*
X209364798Y-104401801D01*
X209550546Y-104481604D01*
X209567776Y-104487203D01*
X209764957Y-104531821D01*
X209782920Y-104534186D01*
X209802114Y-104534940D01*
X209861002Y-104518331D01*
X209898881Y-104470281D01*
X209905000Y-104436016D01*
X209905000Y-103465000D01*
X209957000Y-103465000D01*
X209957000Y-104433458D01*
X209975907Y-104491649D01*
X210025407Y-104527613D01*
X210070206Y-104531434D01*
X210203096Y-104512166D01*
X210220712Y-104507936D01*
X210412149Y-104442952D01*
X210428701Y-104435583D01*
X210605090Y-104336800D01*
X210620020Y-104326538D01*
X210775454Y-104197265D01*
X210788265Y-104184454D01*
X210917538Y-104029020D01*
X210927800Y-104014090D01*
X211026583Y-103837701D01*
X211033952Y-103821149D01*
X211098936Y-103629712D01*
X211103166Y-103612096D01*
X211122434Y-103479206D01*
X211112072Y-103418904D01*
X211068244Y-103376210D01*
X211024458Y-103366000D01*
X210056000Y-103366000D01*
X209997809Y-103384907D01*
X209961845Y-103434407D01*
X209957000Y-103465000D01*
X209905000Y-103465000D01*
X209886093Y-103406809D01*
X209836593Y-103370845D01*
X209806000Y-103366000D01*
X208836754Y-103366000D01*
X208778563Y-103384907D01*
X208742599Y-103434407D01*
X208737966Y-103471475D01*
X208533072Y-103471475D01*
X208544390Y-103381882D01*
X208545161Y-103370858D01*
X208545573Y-103341384D01*
X208545111Y-103330339D01*
X208532661Y-103203364D01*
X208739724Y-103203364D01*
X208751661Y-103263374D01*
X208796591Y-103304906D01*
X208838038Y-103314000D01*
X209806000Y-103314000D01*
X209864191Y-103295093D01*
X209900155Y-103245593D01*
X209905000Y-103215000D01*
X209905000Y-102245277D01*
X209904336Y-102243234D01*
X209957000Y-102243234D01*
X209957000Y-103215000D01*
X209975907Y-103273191D01*
X210025407Y-103309155D01*
X210056000Y-103314000D01*
X211024227Y-103314000D01*
X211082418Y-103295093D01*
X211118382Y-103245593D01*
X211122812Y-103205941D01*
X211115799Y-103129623D01*
X211112497Y-103111809D01*
X211057621Y-102917233D01*
X211051129Y-102900320D01*
X210961714Y-102719003D01*
X210952247Y-102703555D01*
X210831286Y-102541569D01*
X210819163Y-102528105D01*
X210670708Y-102390874D01*
X210656334Y-102379845D01*
X210485356Y-102271967D01*
X210469215Y-102263742D01*
X210281441Y-102188827D01*
X210264069Y-102183681D01*
X210075314Y-102146136D01*
X210014552Y-102153328D01*
X209969623Y-102194861D01*
X209957000Y-102243234D01*
X209904336Y-102243234D01*
X209886093Y-102187086D01*
X209836593Y-102151122D01*
X209789234Y-102147707D01*
X209628313Y-102175359D01*
X209610813Y-102180048D01*
X209421143Y-102250021D01*
X209404791Y-102257821D01*
X209231048Y-102361187D01*
X209216390Y-102371836D01*
X209064394Y-102505134D01*
X209051924Y-102518276D01*
X208926764Y-102677040D01*
X208916896Y-102692234D01*
X208822764Y-102871149D01*
X208815831Y-102887888D01*
X208755881Y-103080960D01*
X208752114Y-103098681D01*
X208739724Y-103203364D01*
X208532661Y-103203364D01*
X208525008Y-103125309D01*
X208521255Y-103106356D01*
X208461710Y-102909135D01*
X208454347Y-102891272D01*
X208357630Y-102709372D01*
X208346937Y-102693278D01*
X208216730Y-102533629D01*
X208203116Y-102519919D01*
X208044380Y-102388601D01*
X208028362Y-102377797D01*
X207847142Y-102279812D01*
X207829330Y-102272324D01*
X207632529Y-102211404D01*
X207613602Y-102207519D01*
X207408717Y-102185985D01*
X207389397Y-102185850D01*
X207184231Y-102204521D01*
X207165251Y-102208142D01*
X206967620Y-102266308D01*
X206949705Y-102273546D01*
X206767135Y-102368992D01*
X206750968Y-102379571D01*
X206590413Y-102508660D01*
X206576609Y-102522179D01*
X206444186Y-102679994D01*
X206433270Y-102695936D01*
X206334022Y-102876468D01*
X206326410Y-102894227D01*
X206264118Y-103090597D01*
X206260101Y-103109497D01*
X206237137Y-103314227D01*
X206236867Y-103333546D01*
X204339577Y-103333546D01*
X204346584Y-103321736D01*
X204340915Y-103260814D01*
X204319204Y-103229206D01*
X202094204Y-101054206D01*
X202039375Y-101027049D01*
X202025000Y-101026000D01*
X201525000Y-101026000D01*
X201466809Y-101044907D01*
X201454996Y-101054996D01*
X198004996Y-104504996D01*
X197977219Y-104559513D01*
X196634709Y-104559513D01*
X196632717Y-104555604D01*
X196589452Y-104512340D01*
X196529020Y-104502768D01*
X196474503Y-104530545D01*
X196307965Y-104697083D01*
X196280188Y-104751600D01*
X196188002Y-104751600D01*
X196183337Y-104722142D01*
X196165131Y-104697083D01*
X195998593Y-104530545D01*
X195944076Y-104502768D01*
X195883644Y-104512339D01*
X195840379Y-104555604D01*
X195811319Y-104612638D01*
X195801748Y-104642096D01*
X195784404Y-104751600D01*
X195274478Y-104751600D01*
X195257134Y-104642096D01*
X195247563Y-104612638D01*
X195218503Y-104555604D01*
X195175238Y-104512340D01*
X195114806Y-104502768D01*
X195060289Y-104530545D01*
X194893751Y-104697083D01*
X194865974Y-104751600D01*
X194773788Y-104751600D01*
X194769123Y-104722142D01*
X194750917Y-104697083D01*
X194584379Y-104530545D01*
X194529862Y-104502768D01*
X194469430Y-104512339D01*
X194426165Y-104555604D01*
X194397105Y-104612638D01*
X194387534Y-104642096D01*
X194370190Y-104751600D01*
X193860265Y-104751600D01*
X193842921Y-104642096D01*
X193833350Y-104612638D01*
X193804290Y-104555604D01*
X193761025Y-104512340D01*
X193700593Y-104502768D01*
X193646076Y-104530545D01*
X193479538Y-104697083D01*
X193451761Y-104751600D01*
X193359575Y-104751600D01*
X193354910Y-104722142D01*
X193336704Y-104697083D01*
X193170166Y-104530545D01*
X193115649Y-104502768D01*
X193055217Y-104512339D01*
X193011952Y-104555604D01*
X192982892Y-104612638D01*
X192973321Y-104642096D01*
X192955977Y-104751600D01*
X192088779Y-104751600D01*
X192085965Y-104737455D01*
X192071182Y-104701767D01*
X192026867Y-104635446D01*
X191999554Y-104608133D01*
X191933233Y-104563818D01*
X191897545Y-104549035D01*
X191839062Y-104537402D01*
X191819748Y-104535500D01*
X190674557Y-104535500D01*
X190613672Y-104474615D01*
X193143802Y-104474615D01*
X193171579Y-104529132D01*
X193338117Y-104695670D01*
X193392634Y-104723447D01*
X193453066Y-104713876D01*
X193478125Y-104695670D01*
X193644663Y-104529132D01*
X193672440Y-104474615D01*
X193662869Y-104414183D01*
X193619604Y-104370918D01*
X193583364Y-104352453D01*
X193850909Y-104352453D01*
X193860480Y-104412885D01*
X193903745Y-104456150D01*
X193960779Y-104485210D01*
X193990237Y-104494781D01*
X194099741Y-104512125D01*
X194130715Y-104512125D01*
X194240219Y-104494781D01*
X194269677Y-104485210D01*
X194290471Y-104474615D01*
X194558015Y-104474615D01*
X194585792Y-104529132D01*
X194752330Y-104695670D01*
X194806847Y-104723447D01*
X194867279Y-104713876D01*
X194892338Y-104695670D01*
X195058876Y-104529132D01*
X195086653Y-104474615D01*
X195077082Y-104414183D01*
X195033817Y-104370918D01*
X194997577Y-104352453D01*
X195265122Y-104352453D01*
X195274693Y-104412885D01*
X195317958Y-104456150D01*
X195374992Y-104485210D01*
X195404450Y-104494781D01*
X195513954Y-104512125D01*
X195544928Y-104512125D01*
X195654432Y-104494781D01*
X195683890Y-104485210D01*
X195704684Y-104474615D01*
X195972229Y-104474615D01*
X196000006Y-104529132D01*
X196166544Y-104695670D01*
X196221061Y-104723447D01*
X196281493Y-104713876D01*
X196306552Y-104695670D01*
X196473090Y-104529132D01*
X196500867Y-104474615D01*
X196491296Y-104414183D01*
X196448031Y-104370918D01*
X196390997Y-104341858D01*
X196361539Y-104332287D01*
X196252035Y-104314943D01*
X196221061Y-104314943D01*
X196111557Y-104332287D01*
X196082099Y-104341858D01*
X196025065Y-104370918D01*
X195981801Y-104414183D01*
X195972229Y-104474615D01*
X195704684Y-104474615D01*
X195740924Y-104456150D01*
X195784188Y-104412885D01*
X195793760Y-104352453D01*
X195765983Y-104297936D01*
X195599445Y-104131398D01*
X195544928Y-104103621D01*
X195484496Y-104113192D01*
X195459437Y-104131398D01*
X195292899Y-104297936D01*
X195265122Y-104352453D01*
X194997577Y-104352453D01*
X194976783Y-104341858D01*
X194947325Y-104332287D01*
X194837821Y-104314943D01*
X194806847Y-104314943D01*
X194697343Y-104332287D01*
X194667885Y-104341858D01*
X194610851Y-104370918D01*
X194567587Y-104414183D01*
X194558015Y-104474615D01*
X194290471Y-104474615D01*
X194326711Y-104456150D01*
X194369975Y-104412885D01*
X194379547Y-104352453D01*
X194351770Y-104297936D01*
X194185232Y-104131398D01*
X194130715Y-104103621D01*
X194070283Y-104113192D01*
X194045224Y-104131398D01*
X193878686Y-104297936D01*
X193850909Y-104352453D01*
X193583364Y-104352453D01*
X193562570Y-104341858D01*
X193533112Y-104332287D01*
X193423608Y-104314943D01*
X193392634Y-104314943D01*
X193283130Y-104332287D01*
X193253672Y-104341858D01*
X193196638Y-104370918D01*
X193153374Y-104414183D01*
X193143802Y-104474615D01*
X190613672Y-104474615D01*
X190441124Y-104302067D01*
X190529380Y-104290448D01*
X190554344Y-104283759D01*
X190700885Y-104223059D01*
X190723264Y-104210138D01*
X190749077Y-104190332D01*
X190783734Y-104139909D01*
X190782134Y-104078744D01*
X190760525Y-104044494D01*
X193663084Y-104044494D01*
X193663084Y-104075468D01*
X193680428Y-104184972D01*
X193689999Y-104214430D01*
X193719059Y-104271464D01*
X193762324Y-104314728D01*
X193822756Y-104324300D01*
X193877273Y-104296523D01*
X194043811Y-104129985D01*
X194071588Y-104075468D01*
X194066682Y-104044494D01*
X194158868Y-104044494D01*
X194168439Y-104104926D01*
X194186645Y-104129985D01*
X194353183Y-104296523D01*
X194407700Y-104324300D01*
X194468132Y-104314729D01*
X194511397Y-104271464D01*
X194540457Y-104214430D01*
X194550028Y-104184972D01*
X194567372Y-104075468D01*
X194567372Y-104044494D01*
X195077297Y-104044494D01*
X195077297Y-104075468D01*
X195094641Y-104184972D01*
X195104212Y-104214430D01*
X195133272Y-104271464D01*
X195176537Y-104314728D01*
X195236969Y-104324300D01*
X195291486Y-104296523D01*
X195458024Y-104129985D01*
X195485801Y-104075468D01*
X195480895Y-104044494D01*
X195573081Y-104044494D01*
X195582652Y-104104926D01*
X195600858Y-104129985D01*
X195767396Y-104296523D01*
X195821913Y-104324300D01*
X195882345Y-104314729D01*
X195925610Y-104271464D01*
X195954670Y-104214430D01*
X195964241Y-104184972D01*
X195981585Y-104075468D01*
X195981585Y-104044494D01*
X195964241Y-103934990D01*
X195954670Y-103905532D01*
X195925610Y-103848498D01*
X195882345Y-103805234D01*
X195821913Y-103795662D01*
X195767396Y-103823439D01*
X195600858Y-103989977D01*
X195573081Y-104044494D01*
X195480895Y-104044494D01*
X195476230Y-104015036D01*
X195458024Y-103989977D01*
X195291486Y-103823439D01*
X195236969Y-103795662D01*
X195176537Y-103805233D01*
X195133272Y-103848498D01*
X195104212Y-103905532D01*
X195094641Y-103934990D01*
X195077297Y-104044494D01*
X194567372Y-104044494D01*
X194550028Y-103934990D01*
X194540457Y-103905532D01*
X194511397Y-103848498D01*
X194468132Y-103805234D01*
X194407700Y-103795662D01*
X194353183Y-103823439D01*
X194186645Y-103989977D01*
X194158868Y-104044494D01*
X194066682Y-104044494D01*
X194062017Y-104015036D01*
X194043811Y-103989977D01*
X193877273Y-103823439D01*
X193822756Y-103795662D01*
X193762324Y-103805233D01*
X193719059Y-103848498D01*
X193689999Y-103905532D01*
X193680428Y-103934990D01*
X193663084Y-104044494D01*
X190760525Y-104044494D01*
X190758816Y-104041785D01*
X190306944Y-103589913D01*
X190438196Y-103589913D01*
X190447767Y-103650345D01*
X190465973Y-103675404D01*
X190795585Y-104005016D01*
X190850102Y-104032793D01*
X190910534Y-104023222D01*
X190944132Y-103995277D01*
X190963938Y-103969464D01*
X190976859Y-103947085D01*
X191037559Y-103800544D01*
X191044248Y-103775580D01*
X191045311Y-103767509D01*
X193850909Y-103767509D01*
X193878686Y-103822026D01*
X194045224Y-103988564D01*
X194099741Y-104016341D01*
X194160173Y-104006770D01*
X194185232Y-103988564D01*
X194351770Y-103822026D01*
X194379547Y-103767509D01*
X194369976Y-103707077D01*
X194326711Y-103663812D01*
X194290469Y-103645346D01*
X194558015Y-103645346D01*
X194567586Y-103705778D01*
X194610851Y-103749043D01*
X194667885Y-103778103D01*
X194697343Y-103787674D01*
X194806847Y-103805018D01*
X194837821Y-103805018D01*
X194947325Y-103787674D01*
X194976783Y-103778103D01*
X194997575Y-103767509D01*
X195265122Y-103767509D01*
X195292899Y-103822026D01*
X195459437Y-103988564D01*
X195513954Y-104016341D01*
X195574386Y-104006770D01*
X195599445Y-103988564D01*
X195765983Y-103822026D01*
X195793760Y-103767509D01*
X195784189Y-103707077D01*
X195740924Y-103663812D01*
X195683890Y-103634752D01*
X195654432Y-103625181D01*
X195544928Y-103607837D01*
X195513954Y-103607837D01*
X195404450Y-103625181D01*
X195374992Y-103634752D01*
X195317958Y-103663812D01*
X195274694Y-103707077D01*
X195265122Y-103767509D01*
X194997575Y-103767509D01*
X195033817Y-103749043D01*
X195077081Y-103705778D01*
X195086653Y-103645346D01*
X195058876Y-103590829D01*
X194892338Y-103424291D01*
X194837821Y-103396514D01*
X194777389Y-103406085D01*
X194752330Y-103424291D01*
X194585792Y-103590829D01*
X194558015Y-103645346D01*
X194290469Y-103645346D01*
X194287827Y-103644000D01*
X194488787Y-103644000D01*
X194546978Y-103625093D01*
X194558791Y-103615004D01*
X194822334Y-103351461D01*
X195082350Y-103611477D01*
X195136867Y-103639254D01*
X195171668Y-103638571D01*
X195226859Y-103627593D01*
X195262546Y-103612811D01*
X195345241Y-103557556D01*
X195372556Y-103530241D01*
X195427811Y-103447546D01*
X195442593Y-103411859D01*
X195457098Y-103338938D01*
X195459000Y-103319624D01*
X195459000Y-102920000D01*
X195440093Y-102861809D01*
X195390593Y-102825845D01*
X195360000Y-102821000D01*
X193980000Y-102821000D01*
X193921809Y-102839907D01*
X193885845Y-102889407D01*
X193881000Y-102920000D01*
X193881000Y-103545000D01*
X193899907Y-103603191D01*
X193949407Y-103639155D01*
X193951490Y-103639485D01*
X193903745Y-103663812D01*
X193860481Y-103707077D01*
X193850909Y-103767509D01*
X191045311Y-103767509D01*
X191064951Y-103618322D01*
X191064951Y-103592478D01*
X191044248Y-103435220D01*
X191037559Y-103410256D01*
X190976859Y-103263715D01*
X190963938Y-103241336D01*
X190944132Y-103215523D01*
X190893709Y-103180866D01*
X190832544Y-103182466D01*
X190795585Y-103205784D01*
X190465973Y-103535396D01*
X190438196Y-103589913D01*
X190306944Y-103589913D01*
X189922815Y-103205784D01*
X189868298Y-103178007D01*
X189807866Y-103187578D01*
X189774268Y-103215523D01*
X189754462Y-103241336D01*
X189741541Y-103263715D01*
X189680841Y-103410256D01*
X189674152Y-103435220D01*
X189662533Y-103523476D01*
X189209948Y-103070891D01*
X189934666Y-103070891D01*
X189936266Y-103132056D01*
X189959584Y-103169015D01*
X190289196Y-103498627D01*
X190343713Y-103526404D01*
X190404145Y-103516833D01*
X190429204Y-103498627D01*
X190758816Y-103169015D01*
X190786593Y-103114498D01*
X190777022Y-103054066D01*
X190749077Y-103020468D01*
X190723264Y-103000662D01*
X190700885Y-102987741D01*
X190554344Y-102927041D01*
X190529380Y-102920352D01*
X190526706Y-102920000D01*
X192251000Y-102920000D01*
X192251000Y-103319624D01*
X192252902Y-103338938D01*
X192267407Y-103411859D01*
X192282189Y-103447546D01*
X192337444Y-103530241D01*
X192364759Y-103557556D01*
X192447454Y-103612811D01*
X192483141Y-103627593D01*
X192556062Y-103642098D01*
X192575376Y-103644000D01*
X193730000Y-103644000D01*
X193788191Y-103625093D01*
X193824155Y-103575593D01*
X193829000Y-103545000D01*
X193829000Y-102920000D01*
X193810093Y-102861809D01*
X193760593Y-102825845D01*
X193730000Y-102821000D01*
X192350000Y-102821000D01*
X192291809Y-102839907D01*
X192255845Y-102889407D01*
X192251000Y-102920000D01*
X190526706Y-102920000D01*
X190372122Y-102899649D01*
X190346278Y-102899649D01*
X190189020Y-102920352D01*
X190164056Y-102927041D01*
X190017515Y-102987741D01*
X189995136Y-103000662D01*
X189969323Y-103020468D01*
X189934666Y-103070891D01*
X189209948Y-103070891D01*
X188952260Y-102813203D01*
X188952260Y-102270376D01*
X192251000Y-102270376D01*
X192251000Y-102670000D01*
X192269907Y-102728191D01*
X192319407Y-102764155D01*
X192350000Y-102769000D01*
X193730000Y-102769000D01*
X193788191Y-102750093D01*
X193824155Y-102700593D01*
X193829000Y-102670000D01*
X193829000Y-102045000D01*
X193881000Y-102045000D01*
X193881000Y-102670000D01*
X193899907Y-102728191D01*
X193949407Y-102764155D01*
X193980000Y-102769000D01*
X195360000Y-102769000D01*
X195418191Y-102750093D01*
X195454155Y-102700593D01*
X195459000Y-102670000D01*
X195459000Y-102270376D01*
X195457098Y-102251062D01*
X195442593Y-102178141D01*
X195427811Y-102142454D01*
X195372556Y-102059759D01*
X195345241Y-102032444D01*
X195262546Y-101977189D01*
X195226859Y-101962407D01*
X195153938Y-101947902D01*
X195134624Y-101946000D01*
X193980000Y-101946000D01*
X193921809Y-101964907D01*
X193885845Y-102014407D01*
X193881000Y-102045000D01*
X193829000Y-102045000D01*
X193810093Y-101986809D01*
X193760593Y-101950845D01*
X193730000Y-101946000D01*
X192575376Y-101946000D01*
X192556062Y-101947902D01*
X192483141Y-101962407D01*
X192447454Y-101977189D01*
X192364759Y-102032444D01*
X192337444Y-102059759D01*
X192282189Y-102142454D01*
X192267407Y-102178141D01*
X192252902Y-102251062D01*
X192251000Y-102270376D01*
X188952260Y-102270376D01*
X188952260Y-100073055D01*
X188990500Y-100034815D01*
X188990500Y-100774748D01*
X188992402Y-100794062D01*
X189004035Y-100852545D01*
X189018818Y-100888233D01*
X189063133Y-100954554D01*
X189090446Y-100981867D01*
X189156767Y-101026182D01*
X189192455Y-101040965D01*
X189250938Y-101052598D01*
X189270252Y-101054500D01*
X189755642Y-101054500D01*
X189755427Y-101072059D01*
X189774016Y-101214215D01*
X189781564Y-101241251D01*
X189839304Y-101372475D01*
X189854137Y-101396305D01*
X189946387Y-101506050D01*
X189967312Y-101524759D01*
X190086655Y-101604201D01*
X190111991Y-101616286D01*
X190248835Y-101659038D01*
X190276542Y-101663525D01*
X190419884Y-101666153D01*
X190447739Y-101662684D01*
X190586057Y-101624974D01*
X190611818Y-101613826D01*
X190733992Y-101538811D01*
X190755589Y-101520881D01*
X190851798Y-101414590D01*
X190867494Y-101391320D01*
X190930004Y-101262299D01*
X190938538Y-101235558D01*
X190960716Y-101103739D01*
X195347067Y-101103739D01*
X195365656Y-101245895D01*
X195373204Y-101272931D01*
X195430944Y-101404155D01*
X195445777Y-101427985D01*
X195538027Y-101537730D01*
X195558952Y-101556439D01*
X195678295Y-101635881D01*
X195703631Y-101647966D01*
X195840475Y-101690718D01*
X195868182Y-101695205D01*
X196011524Y-101697833D01*
X196039379Y-101694364D01*
X196177697Y-101656654D01*
X196203458Y-101645506D01*
X196325632Y-101570491D01*
X196347229Y-101552561D01*
X196443438Y-101446270D01*
X196459134Y-101423000D01*
X196521644Y-101293979D01*
X196530178Y-101267238D01*
X196553964Y-101125859D01*
X196555329Y-101110644D01*
X196555480Y-101098290D01*
X196554487Y-101083046D01*
X196551401Y-101061498D01*
X196663400Y-100949499D01*
X198262777Y-100949499D01*
X198246570Y-101053593D01*
X198246227Y-101081659D01*
X198264816Y-101223815D01*
X198272364Y-101250851D01*
X198330104Y-101382075D01*
X198344937Y-101405905D01*
X198437187Y-101515650D01*
X198458112Y-101534359D01*
X198577455Y-101613801D01*
X198602791Y-101625886D01*
X198739635Y-101668638D01*
X198767342Y-101673125D01*
X198910684Y-101675753D01*
X198938539Y-101672284D01*
X199076857Y-101634574D01*
X199102618Y-101623426D01*
X199224792Y-101548411D01*
X199246389Y-101530481D01*
X199342598Y-101424190D01*
X199358294Y-101400920D01*
X199420804Y-101271899D01*
X199429338Y-101245158D01*
X199453124Y-101103779D01*
X199454489Y-101088564D01*
X199454640Y-101076210D01*
X199453647Y-101060965D01*
X199438059Y-100952118D01*
X199464867Y-100984010D01*
X199485792Y-101002719D01*
X199605135Y-101082161D01*
X199630471Y-101094246D01*
X199767315Y-101136998D01*
X199795022Y-101141485D01*
X199938364Y-101144113D01*
X199966219Y-101140644D01*
X200104537Y-101102934D01*
X200130298Y-101091786D01*
X200252472Y-101016771D01*
X200274069Y-100998841D01*
X200370278Y-100892550D01*
X200385974Y-100869280D01*
X200422667Y-100793546D01*
X206236867Y-100793546D01*
X206254106Y-100998837D01*
X206257594Y-101017841D01*
X206314379Y-101215874D01*
X206321492Y-101233839D01*
X206415660Y-101417071D01*
X206426126Y-101433312D01*
X206554091Y-101594764D01*
X206567513Y-101608662D01*
X206724400Y-101742183D01*
X206740266Y-101753210D01*
X206920100Y-101853716D01*
X206937805Y-101861452D01*
X207133736Y-101925114D01*
X207152607Y-101929263D01*
X207357172Y-101953655D01*
X207376489Y-101954059D01*
X207581895Y-101938254D01*
X207600923Y-101934899D01*
X207799348Y-101879498D01*
X207817362Y-101872511D01*
X208001247Y-101779624D01*
X208017560Y-101769271D01*
X208179901Y-101642437D01*
X208193894Y-101629112D01*
X208328507Y-101473160D01*
X208339644Y-101457372D01*
X208441403Y-101278244D01*
X208449262Y-101260593D01*
X208514290Y-101065112D01*
X208518570Y-101046271D01*
X208544390Y-100841882D01*
X208545161Y-100830858D01*
X208545573Y-100801384D01*
X208545245Y-100793546D01*
X208776867Y-100793546D01*
X208794106Y-100998837D01*
X208797594Y-101017841D01*
X208854379Y-101215874D01*
X208861492Y-101233839D01*
X208955660Y-101417071D01*
X208966126Y-101433312D01*
X209094091Y-101594764D01*
X209107513Y-101608662D01*
X209264400Y-101742183D01*
X209280266Y-101753210D01*
X209460100Y-101853716D01*
X209477805Y-101861452D01*
X209673736Y-101925114D01*
X209692607Y-101929263D01*
X209897172Y-101953655D01*
X209916489Y-101954059D01*
X210121895Y-101938254D01*
X210140923Y-101934899D01*
X210339348Y-101879498D01*
X210357362Y-101872511D01*
X210541247Y-101779624D01*
X210557560Y-101769271D01*
X210719901Y-101642437D01*
X210733894Y-101629112D01*
X210868507Y-101473160D01*
X210879644Y-101457372D01*
X210981403Y-101278244D01*
X210989262Y-101260593D01*
X211054290Y-101065112D01*
X211058570Y-101046271D01*
X211084390Y-100841882D01*
X211085161Y-100830858D01*
X211085573Y-100801384D01*
X211085111Y-100790339D01*
X211065008Y-100585309D01*
X211061255Y-100566356D01*
X211001710Y-100369135D01*
X210994347Y-100351272D01*
X210897630Y-100169372D01*
X210886937Y-100153278D01*
X210756730Y-99993629D01*
X210743116Y-99979919D01*
X210584380Y-99848601D01*
X210568362Y-99837797D01*
X210387142Y-99739812D01*
X210369330Y-99732324D01*
X210172529Y-99671404D01*
X210153602Y-99667519D01*
X209948717Y-99645985D01*
X209929397Y-99645850D01*
X209724231Y-99664521D01*
X209705251Y-99668142D01*
X209507620Y-99726308D01*
X209489705Y-99733546D01*
X209307135Y-99828992D01*
X209290968Y-99839571D01*
X209130413Y-99968660D01*
X209116609Y-99982179D01*
X208984186Y-100139994D01*
X208973270Y-100155936D01*
X208874022Y-100336468D01*
X208866410Y-100354227D01*
X208804118Y-100550597D01*
X208800101Y-100569497D01*
X208777137Y-100774227D01*
X208776867Y-100793546D01*
X208545245Y-100793546D01*
X208545111Y-100790339D01*
X208525008Y-100585309D01*
X208521255Y-100566356D01*
X208461710Y-100369135D01*
X208454347Y-100351272D01*
X208357630Y-100169372D01*
X208346937Y-100153278D01*
X208216730Y-99993629D01*
X208203116Y-99979919D01*
X208044380Y-99848601D01*
X208028362Y-99837797D01*
X207847142Y-99739812D01*
X207829330Y-99732324D01*
X207632529Y-99671404D01*
X207613602Y-99667519D01*
X207408717Y-99645985D01*
X207389397Y-99645850D01*
X207184231Y-99664521D01*
X207165251Y-99668142D01*
X206967620Y-99726308D01*
X206949705Y-99733546D01*
X206767135Y-99828992D01*
X206750968Y-99839571D01*
X206590413Y-99968660D01*
X206576609Y-99982179D01*
X206444186Y-100139994D01*
X206433270Y-100155936D01*
X206334022Y-100336468D01*
X206326410Y-100354227D01*
X206264118Y-100550597D01*
X206260101Y-100569497D01*
X206237137Y-100774227D01*
X206236867Y-100793546D01*
X200422667Y-100793546D01*
X200448484Y-100740259D01*
X200457018Y-100713518D01*
X200480804Y-100572139D01*
X200482169Y-100556924D01*
X200482320Y-100544570D01*
X200481327Y-100529325D01*
X200461003Y-100387407D01*
X200453125Y-100360466D01*
X200393786Y-100229956D01*
X200378663Y-100206309D01*
X200285079Y-100097700D01*
X200263927Y-100079248D01*
X200143622Y-100001270D01*
X200118141Y-99989496D01*
X199980785Y-99948418D01*
X199953024Y-99944269D01*
X199809661Y-99943393D01*
X199781851Y-99947202D01*
X199644004Y-99986599D01*
X199618381Y-99998061D01*
X199497132Y-100074563D01*
X199475756Y-100092756D01*
X199424760Y-100150499D01*
X196551434Y-100150499D01*
X196538865Y-100148643D01*
X196489430Y-100150499D01*
X196469973Y-100150499D01*
X196456642Y-100151730D01*
X196426999Y-100152843D01*
X196391634Y-100160812D01*
X196381056Y-100165357D01*
X196369741Y-100167464D01*
X196335920Y-100180514D01*
X196313245Y-100194491D01*
X196288778Y-100205003D01*
X196265023Y-100219459D01*
X196260137Y-100223472D01*
X196252968Y-100229972D01*
X196248602Y-100234338D01*
X196240625Y-100239255D01*
X196213769Y-100263607D01*
X196196105Y-100286836D01*
X196005905Y-100477037D01*
X196005886Y-100477054D01*
X195985201Y-100497739D01*
X195882821Y-100497113D01*
X195855011Y-100500922D01*
X195717164Y-100540319D01*
X195691541Y-100551781D01*
X195570292Y-100628283D01*
X195548916Y-100646476D01*
X195454013Y-100753934D01*
X195438603Y-100777394D01*
X195377673Y-100907169D01*
X195369466Y-100934013D01*
X195347410Y-101075673D01*
X195347067Y-101103739D01*
X190960716Y-101103739D01*
X190962324Y-101094179D01*
X190963689Y-101078964D01*
X190963840Y-101066610D01*
X190963051Y-101054500D01*
X191819748Y-101054500D01*
X191839062Y-101052598D01*
X191897545Y-101040965D01*
X191933233Y-101026182D01*
X191999554Y-100981867D01*
X192026867Y-100954554D01*
X192071182Y-100888233D01*
X192085965Y-100852545D01*
X192097598Y-100794062D01*
X192099500Y-100774748D01*
X192099500Y-99735252D01*
X192099060Y-99730784D01*
X192176857Y-99709574D01*
X192202618Y-99698426D01*
X192324792Y-99623411D01*
X192346389Y-99605481D01*
X192442598Y-99499190D01*
X192458294Y-99475920D01*
X192520804Y-99346899D01*
X192529338Y-99320158D01*
X192537296Y-99272860D01*
X194365750Y-99272860D01*
X194366363Y-99284560D01*
X194369781Y-99305670D01*
X194418824Y-99483721D01*
X194426696Y-99503603D01*
X194512829Y-99666969D01*
X194524787Y-99684697D01*
X194643991Y-99825756D01*
X194659477Y-99840503D01*
X194806191Y-99952674D01*
X194824482Y-99963752D01*
X194991860Y-100041801D01*
X195012103Y-100048692D01*
X195192337Y-100088979D01*
X195208406Y-100091209D01*
X195214075Y-100091526D01*
X195219602Y-100091680D01*
X195434240Y-100091680D01*
X195492431Y-100072773D01*
X195528395Y-100023273D01*
X195533240Y-99992680D01*
X195533240Y-99267680D01*
X195585240Y-99267680D01*
X195585240Y-99992680D01*
X195604147Y-100050871D01*
X195653647Y-100086835D01*
X195684240Y-100091680D01*
X195855377Y-100091680D01*
X195866069Y-100091101D01*
X196003533Y-100076168D01*
X196024418Y-100071576D01*
X196199454Y-100012670D01*
X196218866Y-100003700D01*
X196377168Y-99908582D01*
X196394201Y-99895654D01*
X196528386Y-99768761D01*
X196542245Y-99752477D01*
X196646052Y-99599731D01*
X196656091Y-99580850D01*
X196724676Y-99409376D01*
X196730427Y-99388779D01*
X196747798Y-99283849D01*
X196746136Y-99272860D01*
X202565749Y-99272860D01*
X202566362Y-99284560D01*
X202569780Y-99305670D01*
X202618823Y-99483721D01*
X202626695Y-99503603D01*
X202712828Y-99666969D01*
X202724786Y-99684697D01*
X202843990Y-99825756D01*
X202859476Y-99840503D01*
X203006190Y-99952674D01*
X203024481Y-99963752D01*
X203191859Y-100041801D01*
X203212102Y-100048692D01*
X203392336Y-100088979D01*
X203408405Y-100091209D01*
X203414074Y-100091526D01*
X203419601Y-100091680D01*
X203634239Y-100091680D01*
X203692430Y-100072773D01*
X203728394Y-100023273D01*
X203733239Y-99992680D01*
X203733239Y-99267680D01*
X203785239Y-99267680D01*
X203785239Y-99992680D01*
X203804146Y-100050871D01*
X203853646Y-100086835D01*
X203884239Y-100091680D01*
X204055376Y-100091680D01*
X204066068Y-100091101D01*
X204203532Y-100076168D01*
X204224417Y-100071576D01*
X204399453Y-100012670D01*
X204418865Y-100003700D01*
X204577167Y-99908582D01*
X204594200Y-99895654D01*
X204728385Y-99768761D01*
X204742244Y-99752477D01*
X204846051Y-99599731D01*
X204856090Y-99580850D01*
X204924675Y-99409376D01*
X204930426Y-99388779D01*
X204947797Y-99283849D01*
X204938647Y-99223352D01*
X204895686Y-99179786D01*
X204850126Y-99168680D01*
X203884239Y-99168680D01*
X203826048Y-99187587D01*
X203790084Y-99237087D01*
X203785239Y-99267680D01*
X203733239Y-99267680D01*
X203714332Y-99209489D01*
X203664832Y-99173525D01*
X203634239Y-99168680D01*
X202664613Y-99168680D01*
X202606422Y-99187587D01*
X202570458Y-99237087D01*
X202565749Y-99272860D01*
X196746136Y-99272860D01*
X196738648Y-99223352D01*
X196695687Y-99179786D01*
X196650127Y-99168680D01*
X195684240Y-99168680D01*
X195626049Y-99187587D01*
X195590085Y-99237087D01*
X195585240Y-99267680D01*
X195533240Y-99267680D01*
X195514333Y-99209489D01*
X195464833Y-99173525D01*
X195434240Y-99168680D01*
X194464614Y-99168680D01*
X194406423Y-99187587D01*
X194370459Y-99237087D01*
X194365750Y-99272860D01*
X192537296Y-99272860D01*
X192553124Y-99178779D01*
X192554489Y-99163564D01*
X192554640Y-99151210D01*
X192553647Y-99135965D01*
X192533323Y-98994047D01*
X192525445Y-98967106D01*
X192466106Y-98836596D01*
X192450983Y-98812949D01*
X192357399Y-98704340D01*
X192336247Y-98685888D01*
X192215942Y-98607910D01*
X192190461Y-98596136D01*
X192053105Y-98555058D01*
X192025344Y-98550909D01*
X192014870Y-98550845D01*
X192303937Y-98261778D01*
X192314035Y-98312545D01*
X192328818Y-98348233D01*
X192373133Y-98414554D01*
X192400446Y-98441867D01*
X192466767Y-98486182D01*
X192502455Y-98500965D01*
X192560938Y-98512598D01*
X192580252Y-98514500D01*
X194592314Y-98514500D01*
X194590094Y-98516599D01*
X194576235Y-98532883D01*
X194472428Y-98685629D01*
X194462389Y-98704510D01*
X194393804Y-98875984D01*
X194388053Y-98896581D01*
X194370682Y-99001511D01*
X194379832Y-99062008D01*
X194422793Y-99105574D01*
X194468353Y-99116680D01*
X195434240Y-99116680D01*
X195492431Y-99097773D01*
X195528395Y-99048273D01*
X195533240Y-99017680D01*
X195533240Y-98292680D01*
X195585240Y-98292680D01*
X195585240Y-99017680D01*
X195604147Y-99075871D01*
X195653647Y-99111835D01*
X195684240Y-99116680D01*
X196653866Y-99116680D01*
X196712057Y-99097773D01*
X196748021Y-99048273D01*
X196752730Y-99012500D01*
X196752154Y-99001511D01*
X202570681Y-99001511D01*
X202579831Y-99062008D01*
X202622792Y-99105574D01*
X202668352Y-99116680D01*
X203634239Y-99116680D01*
X203692430Y-99097773D01*
X203728394Y-99048273D01*
X203733239Y-99017680D01*
X203733239Y-98292680D01*
X203785239Y-98292680D01*
X203785239Y-99017680D01*
X203804146Y-99075871D01*
X203853646Y-99111835D01*
X203884239Y-99116680D01*
X204853865Y-99116680D01*
X204912056Y-99097773D01*
X204948020Y-99048273D01*
X204952729Y-99012500D01*
X204952116Y-99000800D01*
X204948698Y-98979690D01*
X204899655Y-98801639D01*
X204891783Y-98781757D01*
X204805650Y-98618391D01*
X204793692Y-98600663D01*
X204674488Y-98459604D01*
X204659002Y-98444857D01*
X204512288Y-98332686D01*
X204493997Y-98321608D01*
X204326619Y-98243559D01*
X204306376Y-98236668D01*
X204126142Y-98196381D01*
X204110073Y-98194151D01*
X204104404Y-98193834D01*
X204098877Y-98193680D01*
X203884239Y-98193680D01*
X203826048Y-98212587D01*
X203790084Y-98262087D01*
X203785239Y-98292680D01*
X203733239Y-98292680D01*
X203714332Y-98234489D01*
X203664832Y-98198525D01*
X203634239Y-98193680D01*
X203463102Y-98193680D01*
X203452410Y-98194259D01*
X203314946Y-98209192D01*
X203294061Y-98213784D01*
X203119025Y-98272690D01*
X203099613Y-98281660D01*
X202941311Y-98376778D01*
X202924278Y-98389706D01*
X202790093Y-98516599D01*
X202776234Y-98532883D01*
X202672427Y-98685629D01*
X202662388Y-98704510D01*
X202593803Y-98875984D01*
X202588052Y-98896581D01*
X202570681Y-99001511D01*
X196752154Y-99001511D01*
X196752117Y-99000800D01*
X196748699Y-98979690D01*
X196699656Y-98801639D01*
X196691784Y-98781757D01*
X196605651Y-98618391D01*
X196593693Y-98600663D01*
X196474489Y-98459604D01*
X196459003Y-98444857D01*
X196312289Y-98332686D01*
X196293998Y-98321608D01*
X196126620Y-98243559D01*
X196106377Y-98236668D01*
X195926143Y-98196381D01*
X195910074Y-98194151D01*
X195904405Y-98193834D01*
X195898878Y-98193680D01*
X195684240Y-98193680D01*
X195626049Y-98212587D01*
X195590085Y-98262087D01*
X195585240Y-98292680D01*
X195533240Y-98292680D01*
X195514333Y-98234489D01*
X195464833Y-98198525D01*
X195434240Y-98193680D01*
X195409500Y-98193680D01*
X195409500Y-97606659D01*
X197796227Y-97606659D01*
X197814816Y-97748815D01*
X197822364Y-97775851D01*
X197880104Y-97907075D01*
X197894937Y-97930905D01*
X197987187Y-98040650D01*
X198008112Y-98059359D01*
X198127455Y-98138801D01*
X198152791Y-98150886D01*
X198289635Y-98193638D01*
X198317342Y-98198125D01*
X198460684Y-98200753D01*
X198488539Y-98197284D01*
X198626857Y-98159574D01*
X198652618Y-98148426D01*
X198738356Y-98095783D01*
X198721570Y-98203593D01*
X198721227Y-98231659D01*
X198739816Y-98373815D01*
X198747364Y-98400851D01*
X198805104Y-98532075D01*
X198819937Y-98555905D01*
X198912187Y-98665650D01*
X198933112Y-98684359D01*
X199052455Y-98763801D01*
X199077791Y-98775886D01*
X199214635Y-98818638D01*
X199242342Y-98823125D01*
X199385684Y-98825753D01*
X199413539Y-98822284D01*
X199551857Y-98784574D01*
X199577618Y-98773426D01*
X199699792Y-98698411D01*
X199721389Y-98680481D01*
X199817598Y-98574190D01*
X199833294Y-98550920D01*
X199895804Y-98421899D01*
X199904338Y-98395158D01*
X199928124Y-98253779D01*
X199929489Y-98238564D01*
X199929640Y-98226210D01*
X199928647Y-98210965D01*
X199908323Y-98069047D01*
X199900445Y-98042106D01*
X199841106Y-97911596D01*
X199825983Y-97887949D01*
X199757041Y-97807938D01*
X199990963Y-97574016D01*
X200085684Y-97575753D01*
X200113539Y-97572284D01*
X200251857Y-97534574D01*
X200277618Y-97523426D01*
X200327105Y-97493041D01*
X200321570Y-97528593D01*
X200321227Y-97556659D01*
X200339816Y-97698815D01*
X200347364Y-97725851D01*
X200405104Y-97857075D01*
X200419937Y-97880905D01*
X200512187Y-97990650D01*
X200533112Y-98009359D01*
X200652455Y-98088801D01*
X200677791Y-98100886D01*
X200814635Y-98143638D01*
X200842342Y-98148125D01*
X200985684Y-98150753D01*
X201013539Y-98147284D01*
X201151857Y-98109574D01*
X201177618Y-98098426D01*
X201299792Y-98023411D01*
X201321389Y-98005481D01*
X201417598Y-97899190D01*
X201433294Y-97875920D01*
X201495804Y-97746899D01*
X201504338Y-97720158D01*
X201528124Y-97578779D01*
X201529489Y-97563564D01*
X201529640Y-97551210D01*
X201528647Y-97535965D01*
X201508323Y-97394047D01*
X201507213Y-97390252D01*
X206241500Y-97390252D01*
X206241500Y-99129748D01*
X206243402Y-99149062D01*
X206255035Y-99207545D01*
X206269818Y-99243233D01*
X206314133Y-99309554D01*
X206341446Y-99336867D01*
X206407767Y-99381182D01*
X206443455Y-99395965D01*
X206501938Y-99407598D01*
X206521252Y-99409500D01*
X208260748Y-99409500D01*
X208280062Y-99407598D01*
X208338545Y-99395965D01*
X208374233Y-99381182D01*
X208440554Y-99336867D01*
X208467867Y-99309554D01*
X208512182Y-99243233D01*
X208526965Y-99207545D01*
X208538598Y-99149062D01*
X208540500Y-99129748D01*
X208540500Y-98253546D01*
X208776867Y-98253546D01*
X208794106Y-98458837D01*
X208797594Y-98477841D01*
X208854379Y-98675874D01*
X208861492Y-98693839D01*
X208955660Y-98877071D01*
X208966126Y-98893312D01*
X209094091Y-99054764D01*
X209107513Y-99068662D01*
X209264400Y-99202183D01*
X209280266Y-99213210D01*
X209460100Y-99313716D01*
X209477805Y-99321452D01*
X209673736Y-99385114D01*
X209692607Y-99389263D01*
X209897172Y-99413655D01*
X209916489Y-99414059D01*
X210121895Y-99398254D01*
X210140923Y-99394899D01*
X210339348Y-99339498D01*
X210357362Y-99332511D01*
X210541247Y-99239624D01*
X210557560Y-99229271D01*
X210719901Y-99102437D01*
X210733894Y-99089112D01*
X210868507Y-98933160D01*
X210879644Y-98917372D01*
X210981403Y-98738244D01*
X210989262Y-98720593D01*
X211054290Y-98525112D01*
X211058570Y-98506271D01*
X211084390Y-98301882D01*
X211085161Y-98290858D01*
X211085573Y-98261384D01*
X211085111Y-98250339D01*
X211065008Y-98045309D01*
X211061255Y-98026356D01*
X211001710Y-97829135D01*
X210994347Y-97811272D01*
X210897630Y-97629372D01*
X210886937Y-97613278D01*
X210756730Y-97453629D01*
X210743116Y-97439919D01*
X210584380Y-97308601D01*
X210568362Y-97297797D01*
X210387142Y-97199812D01*
X210369330Y-97192324D01*
X210172529Y-97131404D01*
X210153602Y-97127519D01*
X209948717Y-97105985D01*
X209929397Y-97105850D01*
X209724231Y-97124521D01*
X209705251Y-97128142D01*
X209507620Y-97186308D01*
X209489705Y-97193546D01*
X209307135Y-97288992D01*
X209290968Y-97299571D01*
X209130413Y-97428660D01*
X209116609Y-97442179D01*
X208984186Y-97599994D01*
X208973270Y-97615936D01*
X208874022Y-97796468D01*
X208866410Y-97814227D01*
X208804118Y-98010597D01*
X208800101Y-98029497D01*
X208777137Y-98234227D01*
X208776867Y-98253546D01*
X208540500Y-98253546D01*
X208540500Y-97390252D01*
X208538598Y-97370938D01*
X208526965Y-97312455D01*
X208512182Y-97276767D01*
X208467867Y-97210446D01*
X208440554Y-97183133D01*
X208374233Y-97138818D01*
X208338545Y-97124035D01*
X208280062Y-97112402D01*
X208260748Y-97110500D01*
X206521252Y-97110500D01*
X206501938Y-97112402D01*
X206443455Y-97124035D01*
X206407767Y-97138818D01*
X206341446Y-97183133D01*
X206314133Y-97210446D01*
X206269818Y-97276767D01*
X206255035Y-97312455D01*
X206243402Y-97370938D01*
X206241500Y-97390252D01*
X201507213Y-97390252D01*
X201500445Y-97367106D01*
X201441106Y-97236596D01*
X201425983Y-97212949D01*
X201332399Y-97104340D01*
X201311247Y-97085888D01*
X201190942Y-97007910D01*
X201165461Y-96996136D01*
X201028105Y-96955058D01*
X201000344Y-96950909D01*
X200856981Y-96950033D01*
X200829171Y-96953842D01*
X200691324Y-96993239D01*
X200665701Y-97004701D01*
X200623488Y-97031335D01*
X200628124Y-97003779D01*
X200629489Y-96988564D01*
X200629640Y-96976210D01*
X200628647Y-96960965D01*
X200608323Y-96819047D01*
X200600445Y-96792106D01*
X200541106Y-96661596D01*
X200525983Y-96637949D01*
X200432399Y-96529340D01*
X200411247Y-96510888D01*
X200290942Y-96432910D01*
X200265461Y-96421136D01*
X200128105Y-96380058D01*
X200100344Y-96375909D01*
X199956981Y-96375033D01*
X199929171Y-96378842D01*
X199791324Y-96418239D01*
X199765701Y-96429701D01*
X199644452Y-96506203D01*
X199623076Y-96524396D01*
X199528173Y-96631854D01*
X199512763Y-96655314D01*
X199451833Y-96785089D01*
X199443626Y-96811933D01*
X199421570Y-96953593D01*
X199421227Y-96981660D01*
X199424943Y-97010078D01*
X199080345Y-97354676D01*
X199070151Y-97362247D01*
X199036527Y-97398494D01*
X199022748Y-97412273D01*
X199014190Y-97422572D01*
X198994018Y-97444318D01*
X198985330Y-97458061D01*
X198983323Y-97444047D01*
X198975445Y-97417106D01*
X198916106Y-97286596D01*
X198900983Y-97262949D01*
X198807399Y-97154340D01*
X198786247Y-97135888D01*
X198665942Y-97057910D01*
X198640461Y-97046136D01*
X198503105Y-97005058D01*
X198475344Y-97000909D01*
X198331981Y-97000033D01*
X198304171Y-97003842D01*
X198166324Y-97043239D01*
X198140701Y-97054701D01*
X198019452Y-97131203D01*
X197998076Y-97149396D01*
X197903173Y-97256854D01*
X197887763Y-97280314D01*
X197826833Y-97410089D01*
X197818626Y-97436933D01*
X197796570Y-97578593D01*
X197796227Y-97606659D01*
X195409500Y-97606659D01*
X195409500Y-97195252D01*
X195407598Y-97175938D01*
X195402773Y-97151680D01*
X195434240Y-97151680D01*
X195492431Y-97132773D01*
X195528395Y-97083273D01*
X195533240Y-97052680D01*
X195533240Y-96327680D01*
X195585240Y-96327680D01*
X195585240Y-97052680D01*
X195604147Y-97110871D01*
X195653647Y-97146835D01*
X195684240Y-97151680D01*
X195855377Y-97151680D01*
X195866069Y-97151101D01*
X196003533Y-97136168D01*
X196024418Y-97131576D01*
X196199454Y-97072670D01*
X196218866Y-97063700D01*
X196377168Y-96968582D01*
X196394201Y-96955654D01*
X196528386Y-96828761D01*
X196542245Y-96812477D01*
X196646052Y-96659731D01*
X196656091Y-96640850D01*
X196724676Y-96469376D01*
X196730427Y-96448779D01*
X196747798Y-96343849D01*
X196746136Y-96332860D01*
X202565749Y-96332860D01*
X202566362Y-96344560D01*
X202569780Y-96365670D01*
X202618823Y-96543721D01*
X202626695Y-96563603D01*
X202712828Y-96726969D01*
X202724786Y-96744697D01*
X202843990Y-96885756D01*
X202859476Y-96900503D01*
X203006190Y-97012674D01*
X203024481Y-97023752D01*
X203191859Y-97101801D01*
X203212102Y-97108692D01*
X203392336Y-97148979D01*
X203408405Y-97151209D01*
X203414074Y-97151526D01*
X203419601Y-97151680D01*
X203634239Y-97151680D01*
X203692430Y-97132773D01*
X203728394Y-97083273D01*
X203733239Y-97052680D01*
X203733239Y-96327680D01*
X203714332Y-96269489D01*
X203664832Y-96233525D01*
X203634239Y-96228680D01*
X202664613Y-96228680D01*
X202606422Y-96247587D01*
X202570458Y-96297087D01*
X202565749Y-96332860D01*
X196746136Y-96332860D01*
X196738648Y-96283352D01*
X196695687Y-96239786D01*
X196650127Y-96228680D01*
X195684240Y-96228680D01*
X195626049Y-96247587D01*
X195590085Y-96297087D01*
X195585240Y-96327680D01*
X195533240Y-96327680D01*
X195533240Y-95352680D01*
X195585240Y-95352680D01*
X195585240Y-96077680D01*
X195604147Y-96135871D01*
X195653647Y-96171835D01*
X195684240Y-96176680D01*
X196653866Y-96176680D01*
X196712057Y-96157773D01*
X196748021Y-96108273D01*
X196752730Y-96072500D01*
X196752154Y-96061511D01*
X202570681Y-96061511D01*
X202579831Y-96122008D01*
X202622792Y-96165574D01*
X202668352Y-96176680D01*
X203634239Y-96176680D01*
X203692430Y-96157773D01*
X203728394Y-96108273D01*
X203733239Y-96077680D01*
X203733239Y-95352680D01*
X203785239Y-95352680D01*
X203785239Y-97052680D01*
X203804146Y-97110871D01*
X203853646Y-97146835D01*
X203884239Y-97151680D01*
X204055376Y-97151680D01*
X204066068Y-97151101D01*
X204203532Y-97136168D01*
X204224417Y-97131576D01*
X204399453Y-97072670D01*
X204418865Y-97063700D01*
X204577167Y-96968582D01*
X204594200Y-96955654D01*
X204728385Y-96828761D01*
X204742244Y-96812477D01*
X204743793Y-96810197D01*
X204746427Y-96813330D01*
X204767352Y-96832039D01*
X204886695Y-96911481D01*
X204912031Y-96923566D01*
X205048875Y-96966318D01*
X205076582Y-96970805D01*
X205219924Y-96973433D01*
X205247779Y-96969964D01*
X205386097Y-96932254D01*
X205411858Y-96921106D01*
X205534032Y-96846091D01*
X205555629Y-96828161D01*
X205651838Y-96721870D01*
X205667534Y-96698600D01*
X205730044Y-96569579D01*
X205738578Y-96542838D01*
X205762364Y-96401459D01*
X205763729Y-96386244D01*
X205763880Y-96373890D01*
X205762887Y-96358645D01*
X205742563Y-96216727D01*
X205734685Y-96189786D01*
X205675346Y-96059276D01*
X205660223Y-96035629D01*
X205566639Y-95927020D01*
X205545487Y-95908568D01*
X205425182Y-95830590D01*
X205399701Y-95818816D01*
X205262345Y-95777738D01*
X205234584Y-95773589D01*
X205091221Y-95772713D01*
X205063411Y-95776522D01*
X204925564Y-95815919D01*
X204899941Y-95827381D01*
X204888132Y-95834832D01*
X204805650Y-95678391D01*
X204793692Y-95660663D01*
X204674488Y-95519604D01*
X204659002Y-95504857D01*
X204512288Y-95392686D01*
X204493997Y-95381608D01*
X204326619Y-95303559D01*
X204306376Y-95296668D01*
X204126142Y-95256381D01*
X204110073Y-95254151D01*
X204104404Y-95253834D01*
X204098877Y-95253680D01*
X203884239Y-95253680D01*
X203826048Y-95272587D01*
X203790084Y-95322087D01*
X203785239Y-95352680D01*
X203733239Y-95352680D01*
X203714332Y-95294489D01*
X203664832Y-95258525D01*
X203634239Y-95253680D01*
X203463102Y-95253680D01*
X203452410Y-95254259D01*
X203314946Y-95269192D01*
X203294061Y-95273784D01*
X203119025Y-95332690D01*
X203099613Y-95341660D01*
X202941311Y-95436778D01*
X202924278Y-95449706D01*
X202790093Y-95576599D01*
X202776234Y-95592883D01*
X202672427Y-95745629D01*
X202662388Y-95764510D01*
X202593803Y-95935984D01*
X202588052Y-95956581D01*
X202570681Y-96061511D01*
X196752154Y-96061511D01*
X196752117Y-96060800D01*
X196748699Y-96039690D01*
X196699656Y-95861639D01*
X196691784Y-95841757D01*
X196605651Y-95678391D01*
X196593693Y-95660663D01*
X196474489Y-95519604D01*
X196459003Y-95504857D01*
X196312289Y-95392686D01*
X196293998Y-95381608D01*
X196126620Y-95303559D01*
X196106377Y-95296668D01*
X195926143Y-95256381D01*
X195910074Y-95254151D01*
X195904405Y-95253834D01*
X195898878Y-95253680D01*
X195684240Y-95253680D01*
X195626049Y-95272587D01*
X195590085Y-95322087D01*
X195585240Y-95352680D01*
X195533240Y-95352680D01*
X195514333Y-95294489D01*
X195464833Y-95258525D01*
X195434240Y-95253680D01*
X195263103Y-95253680D01*
X195252411Y-95254259D01*
X195114947Y-95269192D01*
X195094062Y-95273784D01*
X194919026Y-95332690D01*
X194899614Y-95341660D01*
X194741312Y-95436778D01*
X194724279Y-95449706D01*
X194590094Y-95576599D01*
X194576235Y-95592883D01*
X194472428Y-95745629D01*
X194462389Y-95764510D01*
X194433740Y-95836137D01*
X194425182Y-95830590D01*
X194399701Y-95818816D01*
X194262345Y-95777738D01*
X194234584Y-95773589D01*
X194091221Y-95772713D01*
X194063411Y-95776522D01*
X193925564Y-95815919D01*
X193899941Y-95827381D01*
X193778692Y-95903883D01*
X193757316Y-95922076D01*
X193662413Y-96029534D01*
X193647003Y-96052994D01*
X193586073Y-96182769D01*
X193577866Y-96209613D01*
X193555810Y-96351273D01*
X193555467Y-96379339D01*
X193574056Y-96521495D01*
X193581604Y-96548531D01*
X193639344Y-96679755D01*
X193654177Y-96703585D01*
X193746427Y-96813330D01*
X193767352Y-96832039D01*
X193886695Y-96911481D01*
X193895121Y-96915500D01*
X192580252Y-96915500D01*
X192560938Y-96917402D01*
X192502455Y-96929035D01*
X192466767Y-96943818D01*
X192400446Y-96988133D01*
X192373133Y-97015446D01*
X192328818Y-97081767D01*
X192314035Y-97117455D01*
X192302402Y-97175938D01*
X192300500Y-97195252D01*
X192300500Y-97314627D01*
X192277245Y-97315500D01*
X192257788Y-97315500D01*
X192244457Y-97316731D01*
X192214814Y-97317844D01*
X192179449Y-97325813D01*
X192168871Y-97330358D01*
X192157556Y-97332465D01*
X192123736Y-97345515D01*
X192101064Y-97359490D01*
X192076593Y-97370004D01*
X192052847Y-97384454D01*
X192047960Y-97388467D01*
X192040783Y-97394973D01*
X192036417Y-97399339D01*
X192028440Y-97404256D01*
X192001584Y-97428608D01*
X191983925Y-97451831D01*
X190964330Y-98471427D01*
X190948823Y-98363147D01*
X190940945Y-98336206D01*
X190881606Y-98205696D01*
X190866483Y-98182049D01*
X190772899Y-98073440D01*
X190751747Y-98054988D01*
X190631442Y-97977010D01*
X190605961Y-97965236D01*
X190468605Y-97924158D01*
X190440844Y-97920009D01*
X190297481Y-97919133D01*
X190269671Y-97922942D01*
X190131824Y-97962339D01*
X190106201Y-97973801D01*
X189984952Y-98050303D01*
X189963576Y-98068495D01*
X189918442Y-98119600D01*
X189913288Y-98119600D01*
X189899957Y-98120831D01*
X189870314Y-98121944D01*
X189834949Y-98129913D01*
X189824371Y-98134458D01*
X189813056Y-98136565D01*
X189779236Y-98149615D01*
X189756564Y-98163590D01*
X189732093Y-98174104D01*
X189708347Y-98188554D01*
X189703460Y-98192567D01*
X189696283Y-98199073D01*
X189691917Y-98203439D01*
X189683940Y-98208356D01*
X189657084Y-98232708D01*
X189639425Y-98255931D01*
X188418519Y-99476837D01*
X188482323Y-98994970D01*
X188609145Y-98333344D01*
X188773935Y-97680162D01*
X188911668Y-97242478D01*
X189703376Y-97242478D01*
X189703376Y-97268322D01*
X189722378Y-97412658D01*
X189729067Y-97437622D01*
X189784779Y-97572121D01*
X189797701Y-97594502D01*
X189886325Y-97710000D01*
X189904600Y-97728275D01*
X190020097Y-97816899D01*
X190042478Y-97829821D01*
X190176978Y-97885533D01*
X190201942Y-97892222D01*
X190346278Y-97911224D01*
X190372122Y-97911224D01*
X190516458Y-97892222D01*
X190541422Y-97885533D01*
X190675922Y-97829821D01*
X190698303Y-97816899D01*
X190813800Y-97728275D01*
X190832075Y-97710000D01*
X190920699Y-97594502D01*
X190933621Y-97572121D01*
X190989333Y-97437622D01*
X190996022Y-97412658D01*
X191015024Y-97268322D01*
X191015024Y-97242478D01*
X190996022Y-97098142D01*
X190989333Y-97073178D01*
X190933621Y-96938679D01*
X190920699Y-96916298D01*
X190832075Y-96800800D01*
X190813800Y-96782525D01*
X190698303Y-96693901D01*
X190675922Y-96680979D01*
X190541422Y-96625267D01*
X190516458Y-96618578D01*
X190372122Y-96599576D01*
X190346278Y-96599576D01*
X190201942Y-96618578D01*
X190176978Y-96625267D01*
X190042479Y-96680979D01*
X190020098Y-96693901D01*
X189904600Y-96782525D01*
X189886325Y-96800800D01*
X189797701Y-96916298D01*
X189784779Y-96938679D01*
X189729067Y-97073178D01*
X189722378Y-97098142D01*
X189703376Y-97242478D01*
X188911668Y-97242478D01*
X188976154Y-97037555D01*
X189215116Y-96407705D01*
X189490027Y-95792702D01*
X189799977Y-95194579D01*
X190143934Y-94615335D01*
X190520742Y-94056914D01*
X190651750Y-93885059D01*
X191155627Y-93885059D01*
X191174216Y-94027215D01*
X191181764Y-94054251D01*
X191239504Y-94185475D01*
X191254337Y-94209305D01*
X191346587Y-94319050D01*
X191367512Y-94337759D01*
X191486855Y-94417201D01*
X191512191Y-94429286D01*
X191649035Y-94472038D01*
X191676742Y-94476525D01*
X191820084Y-94479153D01*
X191847939Y-94475684D01*
X191986257Y-94437974D01*
X192012018Y-94426826D01*
X192134192Y-94351811D01*
X192155789Y-94333881D01*
X192251998Y-94227590D01*
X192267694Y-94204320D01*
X192330204Y-94075299D01*
X192338738Y-94048558D01*
X192362524Y-93907179D01*
X192363889Y-93891964D01*
X192364040Y-93879610D01*
X192363047Y-93864365D01*
X192342723Y-93722447D01*
X192334845Y-93695506D01*
X192275506Y-93564996D01*
X192260383Y-93541349D01*
X192166799Y-93432740D01*
X192145647Y-93414288D01*
X192025342Y-93336310D01*
X191999861Y-93324536D01*
X191862505Y-93283458D01*
X191834744Y-93279309D01*
X191691381Y-93278433D01*
X191663571Y-93282242D01*
X191525724Y-93321639D01*
X191500101Y-93333101D01*
X191378852Y-93409603D01*
X191357476Y-93427796D01*
X191262573Y-93535254D01*
X191247163Y-93558714D01*
X191186233Y-93688489D01*
X191178026Y-93715333D01*
X191155970Y-93856993D01*
X191155627Y-93885059D01*
X190651750Y-93885059D01*
X190929144Y-93521176D01*
X191174613Y-93235060D01*
X194472626Y-93235060D01*
X194491215Y-93377216D01*
X194498763Y-93404252D01*
X194556503Y-93535476D01*
X194571336Y-93559306D01*
X194663586Y-93669051D01*
X194684511Y-93687760D01*
X194803854Y-93767202D01*
X194829190Y-93779287D01*
X194966034Y-93822039D01*
X194993741Y-93826526D01*
X195137083Y-93829154D01*
X195164938Y-93825685D01*
X195303256Y-93787975D01*
X195329017Y-93776827D01*
X195451191Y-93701812D01*
X195472788Y-93683882D01*
X195568997Y-93577591D01*
X195584693Y-93554321D01*
X195647203Y-93425300D01*
X195655737Y-93398559D01*
X195679523Y-93257180D01*
X195680888Y-93241965D01*
X195681039Y-93229611D01*
X195680046Y-93214366D01*
X195659722Y-93072448D01*
X195651844Y-93045507D01*
X195592505Y-92914997D01*
X195577382Y-92891350D01*
X195483798Y-92782741D01*
X195462646Y-92764289D01*
X195342341Y-92686311D01*
X195316860Y-92674537D01*
X195179504Y-92633459D01*
X195151743Y-92629310D01*
X195008380Y-92628434D01*
X194980570Y-92632243D01*
X194842723Y-92671640D01*
X194817100Y-92683102D01*
X194695851Y-92759604D01*
X194674475Y-92777797D01*
X194579572Y-92885255D01*
X194564162Y-92908715D01*
X194503232Y-93038490D01*
X194495025Y-93065334D01*
X194472969Y-93206994D01*
X194472626Y-93235060D01*
X191174613Y-93235060D01*
X191367794Y-93009890D01*
X191835218Y-92524772D01*
X192329844Y-92067454D01*
X192850056Y-91639430D01*
X193394099Y-91242144D01*
X193960161Y-90876921D01*
X194546373Y-90544964D01*
X195150738Y-90247406D01*
X195771280Y-89985218D01*
X196405924Y-89759279D01*
X196673854Y-89680993D01*
X196650548Y-91938166D01*
X196647539Y-91951349D01*
X196645057Y-91973516D01*
X196645058Y-91974232D01*
X196645982Y-91982261D01*
X196645801Y-91982271D01*
X196665498Y-92325397D01*
X196666684Y-92336010D01*
X196723639Y-92677492D01*
X196725961Y-92687916D01*
X196819367Y-93021277D01*
X196822799Y-93031389D01*
X196951568Y-93352749D01*
X196956069Y-93362433D01*
X197118704Y-93668054D01*
X197124222Y-93677198D01*
X197318831Y-93963522D01*
X197325302Y-93972017D01*
X197549619Y-94235714D01*
X197556967Y-94243463D01*
X197808382Y-94481463D01*
X197816522Y-94488376D01*
X198092111Y-94697911D01*
X198100948Y-94703906D01*
X198397503Y-94882538D01*
X198406935Y-94887547D01*
X198721006Y-95033196D01*
X198730922Y-95037160D01*
X199058853Y-95148132D01*
X199069139Y-95151005D01*
X199407116Y-95226009D01*
X199417651Y-95227757D01*
X199761741Y-95265920D01*
X199772403Y-95266523D01*
X200118601Y-95267401D01*
X200129266Y-95266852D01*
X200473545Y-95230435D01*
X200484089Y-95228740D01*
X200822442Y-95155451D01*
X200832742Y-95152631D01*
X201161232Y-95043323D01*
X201171168Y-95039410D01*
X201485974Y-94895356D01*
X201495431Y-94890395D01*
X201792888Y-94713270D01*
X201801756Y-94707319D01*
X202078404Y-94499184D01*
X202086579Y-94492313D01*
X202339198Y-94255591D01*
X202346585Y-94247879D01*
X202572237Y-93985323D01*
X202578751Y-93976860D01*
X202774809Y-93691527D01*
X202780373Y-93682412D01*
X202944556Y-93377620D01*
X202949106Y-93367959D01*
X203079504Y-93047256D01*
X203082987Y-93037161D01*
X203178082Y-92704278D01*
X203180457Y-92693866D01*
X203239142Y-92352677D01*
X203240382Y-92342070D01*
X203261764Y-91999929D01*
X203261621Y-91999920D01*
X203262594Y-91992057D01*
X203262601Y-91991341D01*
X203260309Y-91969172D01*
X203257969Y-91958499D01*
X203293195Y-89671121D01*
X203572281Y-89752058D02*
X203293195Y-89671121D01*
G04 #@! TA.AperFunction,Conductor*
G36*
X203572281Y-89752058D02*
G01*
X204207395Y-89976725D01*
X204828471Y-90237665D01*
X205433433Y-90534006D01*
X206020306Y-90864776D01*
X206587105Y-91228863D01*
X207131947Y-91625052D01*
X207653000Y-92052013D01*
X208148575Y-92508360D01*
X208616966Y-92992525D01*
X209056644Y-93502926D01*
X209466125Y-94037841D01*
X209844054Y-94595499D01*
X210189176Y-95174050D01*
X210500327Y-95771540D01*
X210776484Y-96386009D01*
X211016708Y-97015361D01*
X211220222Y-97657565D01*
X211386327Y-98310415D01*
X211514480Y-98971771D01*
X211604251Y-99639424D01*
X211655340Y-100311141D01*
X211667579Y-100984708D01*
X211640927Y-101657812D01*
X211575468Y-102328308D01*
X211471428Y-102993871D01*
X211329147Y-103652339D01*
X211149101Y-104301498D01*
X210931893Y-104939182D01*
X210678249Y-105563258D01*
X210389005Y-106171664D01*
X210065134Y-106762362D01*
X209707707Y-107333391D01*
X209317928Y-107882829D01*
X208897093Y-108408855D01*
X208446578Y-108909741D01*
X207967940Y-109383761D01*
X207462724Y-109829383D01*
X206932630Y-110245109D01*
X206379436Y-110629542D01*
X205804983Y-110981406D01*
X205211149Y-111299548D01*
X204599985Y-111582868D01*
X203973474Y-111830451D01*
X203333713Y-112041466D01*
X202682837Y-112215209D01*
X202023030Y-112351097D01*
X201356467Y-112448681D01*
X200685404Y-112507632D01*
X200012042Y-112527757D01*
X199338624Y-112508987D01*
X198667461Y-112451390D01*
X198000692Y-112355146D01*
X197340609Y-112220586D01*
X196689393Y-112048157D01*
X196049219Y-111838433D01*
X195422199Y-111592108D01*
X194810439Y-111310006D01*
X194216007Y-110993083D01*
X193640833Y-110642368D01*
X193086862Y-110259047D01*
X192555931Y-109844389D01*
X192049829Y-109399793D01*
X191955408Y-109306659D01*
X193921227Y-109306659D01*
X193939816Y-109448815D01*
X193947364Y-109475851D01*
X194005104Y-109607075D01*
X194019937Y-109630905D01*
X194112187Y-109740650D01*
X194133112Y-109759359D01*
X194252455Y-109838801D01*
X194277791Y-109850886D01*
X194414635Y-109893638D01*
X194442342Y-109898125D01*
X194585684Y-109900753D01*
X194613539Y-109897284D01*
X194751857Y-109859574D01*
X194777618Y-109848426D01*
X194899792Y-109773411D01*
X194921389Y-109755481D01*
X195017598Y-109649190D01*
X195033294Y-109625920D01*
X195095804Y-109496899D01*
X195104338Y-109470158D01*
X195128124Y-109328779D01*
X195129489Y-109313564D01*
X195129640Y-109301210D01*
X195128647Y-109285965D01*
X195108323Y-109144047D01*
X195100445Y-109117106D01*
X195046318Y-108998059D01*
X197211427Y-108998059D01*
X197230016Y-109140215D01*
X197237564Y-109167251D01*
X197295304Y-109298475D01*
X197310137Y-109322305D01*
X197402387Y-109432050D01*
X197423312Y-109450759D01*
X197542655Y-109530201D01*
X197567991Y-109542286D01*
X197704835Y-109585038D01*
X197732542Y-109589525D01*
X197875884Y-109592153D01*
X197903739Y-109588684D01*
X198042057Y-109550974D01*
X198067818Y-109539826D01*
X198189992Y-109464811D01*
X198211589Y-109446881D01*
X198307798Y-109340590D01*
X198323494Y-109317320D01*
X198386004Y-109188299D01*
X198394538Y-109161558D01*
X198418324Y-109020179D01*
X198419689Y-109004964D01*
X198419840Y-108992610D01*
X198418847Y-108977365D01*
X198398523Y-108835447D01*
X198390645Y-108808506D01*
X198331306Y-108677996D01*
X198316183Y-108654349D01*
X198222599Y-108545740D01*
X198201447Y-108527288D01*
X198081142Y-108449310D01*
X198055661Y-108437536D01*
X197918305Y-108396458D01*
X197890544Y-108392309D01*
X197747181Y-108391433D01*
X197719371Y-108395242D01*
X197581524Y-108434639D01*
X197555901Y-108446101D01*
X197434652Y-108522603D01*
X197413276Y-108540796D01*
X197318373Y-108648254D01*
X197302963Y-108671714D01*
X197242033Y-108801489D01*
X197233826Y-108828333D01*
X197211770Y-108969993D01*
X197211427Y-108998059D01*
X195046318Y-108998059D01*
X195041106Y-108986596D01*
X195025983Y-108962949D01*
X194932399Y-108854340D01*
X194911247Y-108835888D01*
X194790942Y-108757910D01*
X194765461Y-108746136D01*
X194628105Y-108705058D01*
X194600344Y-108700909D01*
X194456981Y-108700033D01*
X194429171Y-108703842D01*
X194291324Y-108743239D01*
X194265701Y-108754701D01*
X194144452Y-108831203D01*
X194123076Y-108849396D01*
X194028173Y-108956854D01*
X194012763Y-108980314D01*
X193951833Y-109110089D01*
X193943626Y-109136933D01*
X193921570Y-109278593D01*
X193921227Y-109306659D01*
X191955408Y-109306659D01*
X191570219Y-108926720D01*
X191118713Y-108426761D01*
X190696814Y-107901578D01*
X190305929Y-107352923D01*
X189947355Y-106782618D01*
X189777210Y-106473773D01*
X194558015Y-106473773D01*
X194567586Y-106534205D01*
X194610851Y-106577470D01*
X194667885Y-106606530D01*
X194697343Y-106616101D01*
X194806847Y-106633445D01*
X194837821Y-106633445D01*
X194947325Y-106616101D01*
X194976783Y-106606530D01*
X195033817Y-106577470D01*
X195077081Y-106534205D01*
X195086653Y-106473773D01*
X195058876Y-106419256D01*
X194892338Y-106252718D01*
X194837821Y-106224941D01*
X194777389Y-106234512D01*
X194752330Y-106252718D01*
X194585792Y-106419256D01*
X194558015Y-106473773D01*
X189777210Y-106473773D01*
X189622287Y-106192560D01*
X189609505Y-106165814D01*
X194370190Y-106165814D01*
X194370190Y-106196788D01*
X194387534Y-106306292D01*
X194397105Y-106335750D01*
X194426165Y-106392784D01*
X194469430Y-106436048D01*
X194529862Y-106445620D01*
X194584379Y-106417843D01*
X194750917Y-106251305D01*
X194778694Y-106196788D01*
X194773788Y-106165814D01*
X194865974Y-106165814D01*
X194875545Y-106226246D01*
X194893751Y-106251305D01*
X195060289Y-106417843D01*
X195114806Y-106445620D01*
X195175238Y-106436049D01*
X195218503Y-106392784D01*
X195247563Y-106335750D01*
X195257134Y-106306292D01*
X195274478Y-106196788D01*
X195274478Y-106165814D01*
X195257134Y-106056310D01*
X195247563Y-106026852D01*
X195218503Y-105969818D01*
X195175238Y-105926554D01*
X195114806Y-105916982D01*
X195060289Y-105944759D01*
X194893751Y-106111297D01*
X194865974Y-106165814D01*
X194773788Y-106165814D01*
X194769123Y-106136356D01*
X194750917Y-106111297D01*
X194584379Y-105944759D01*
X194529862Y-105916982D01*
X194469430Y-105926553D01*
X194426165Y-105969818D01*
X194397105Y-106026852D01*
X194387534Y-106056310D01*
X194370190Y-106165814D01*
X189609505Y-106165814D01*
X189594541Y-106134500D01*
X191819748Y-106134500D01*
X191839062Y-106132598D01*
X191897545Y-106120965D01*
X191933233Y-106106182D01*
X191999554Y-106061867D01*
X192026867Y-106034554D01*
X192071182Y-105968233D01*
X192085965Y-105932545D01*
X192097598Y-105874062D01*
X192099500Y-105854748D01*
X192099500Y-105766666D01*
X193850909Y-105766666D01*
X193860480Y-105827098D01*
X193903745Y-105870363D01*
X193960779Y-105899423D01*
X193990237Y-105908994D01*
X194099741Y-105926338D01*
X194130715Y-105926338D01*
X194240219Y-105908994D01*
X194269677Y-105899423D01*
X194290469Y-105888829D01*
X194558015Y-105888829D01*
X194585792Y-105943346D01*
X194752330Y-106109884D01*
X194806847Y-106137661D01*
X194867279Y-106128090D01*
X194892338Y-106109884D01*
X195058876Y-105943346D01*
X195086653Y-105888829D01*
X195077082Y-105828397D01*
X195033817Y-105785132D01*
X194997575Y-105766666D01*
X195265122Y-105766666D01*
X195274693Y-105827098D01*
X195317958Y-105870363D01*
X195374992Y-105899423D01*
X195404450Y-105908994D01*
X195513954Y-105926338D01*
X195544928Y-105926338D01*
X195654432Y-105908994D01*
X195683890Y-105899423D01*
X195740924Y-105870363D01*
X195784188Y-105827098D01*
X195793760Y-105766666D01*
X195765983Y-105712149D01*
X195599445Y-105545611D01*
X195544928Y-105517834D01*
X195484496Y-105527405D01*
X195459437Y-105545611D01*
X195292899Y-105712149D01*
X195265122Y-105766666D01*
X194997575Y-105766666D01*
X194976783Y-105756072D01*
X194947325Y-105746501D01*
X194837821Y-105729157D01*
X194806847Y-105729157D01*
X194697343Y-105746501D01*
X194667885Y-105756072D01*
X194610851Y-105785132D01*
X194567587Y-105828397D01*
X194558015Y-105888829D01*
X194290469Y-105888829D01*
X194326711Y-105870363D01*
X194369975Y-105827098D01*
X194379547Y-105766666D01*
X194351770Y-105712149D01*
X194185232Y-105545611D01*
X194130715Y-105517834D01*
X194070283Y-105527405D01*
X194045224Y-105545611D01*
X193878686Y-105712149D01*
X193850909Y-105766666D01*
X192099500Y-105766666D01*
X192099500Y-105458707D01*
X193663084Y-105458707D01*
X193663084Y-105489681D01*
X193680428Y-105599185D01*
X193689999Y-105628643D01*
X193719059Y-105685677D01*
X193762324Y-105728941D01*
X193822756Y-105738513D01*
X193877273Y-105710736D01*
X194043811Y-105544198D01*
X194071588Y-105489681D01*
X194066682Y-105458707D01*
X194158868Y-105458707D01*
X194168439Y-105519139D01*
X194186645Y-105544198D01*
X194353183Y-105710736D01*
X194407700Y-105738513D01*
X194468132Y-105728942D01*
X194511397Y-105685677D01*
X194540457Y-105628643D01*
X194550028Y-105599185D01*
X194567372Y-105489681D01*
X194567372Y-105458707D01*
X195077297Y-105458707D01*
X195077297Y-105489681D01*
X195094641Y-105599185D01*
X195104212Y-105628643D01*
X195133272Y-105685677D01*
X195176537Y-105728941D01*
X195236969Y-105738513D01*
X195291486Y-105710736D01*
X195458024Y-105544198D01*
X195485801Y-105489681D01*
X195480895Y-105458707D01*
X195573081Y-105458707D01*
X195582652Y-105519139D01*
X195600858Y-105544198D01*
X195767396Y-105710736D01*
X195821913Y-105738513D01*
X195882345Y-105728942D01*
X195925610Y-105685677D01*
X195954670Y-105628643D01*
X195964241Y-105599185D01*
X195981585Y-105489681D01*
X195981585Y-105458707D01*
X195964241Y-105349203D01*
X195954670Y-105319745D01*
X195925610Y-105262711D01*
X195882345Y-105219447D01*
X195821913Y-105209875D01*
X195767396Y-105237652D01*
X195600858Y-105404190D01*
X195573081Y-105458707D01*
X195480895Y-105458707D01*
X195476230Y-105429249D01*
X195458024Y-105404190D01*
X195291486Y-105237652D01*
X195236969Y-105209875D01*
X195176537Y-105219446D01*
X195133272Y-105262711D01*
X195104212Y-105319745D01*
X195094641Y-105349203D01*
X195077297Y-105458707D01*
X194567372Y-105458707D01*
X194550028Y-105349203D01*
X194540457Y-105319745D01*
X194511397Y-105262711D01*
X194468132Y-105219447D01*
X194407700Y-105209875D01*
X194353183Y-105237652D01*
X194186645Y-105404190D01*
X194158868Y-105458707D01*
X194066682Y-105458707D01*
X194062017Y-105429249D01*
X194043811Y-105404190D01*
X193877273Y-105237652D01*
X193822756Y-105209875D01*
X193762324Y-105219446D01*
X193719059Y-105262711D01*
X193689999Y-105319745D01*
X193680428Y-105349203D01*
X193663084Y-105458707D01*
X192099500Y-105458707D01*
X192099500Y-105059559D01*
X193143802Y-105059559D01*
X193153373Y-105119991D01*
X193196638Y-105163256D01*
X193253672Y-105192316D01*
X193283130Y-105201887D01*
X193392634Y-105219231D01*
X193423608Y-105219231D01*
X193533112Y-105201887D01*
X193562570Y-105192316D01*
X193583362Y-105181722D01*
X193850909Y-105181722D01*
X193878686Y-105236239D01*
X194045224Y-105402777D01*
X194099741Y-105430554D01*
X194160173Y-105420983D01*
X194185232Y-105402777D01*
X194351770Y-105236239D01*
X194379547Y-105181722D01*
X194369976Y-105121290D01*
X194326711Y-105078025D01*
X194290469Y-105059559D01*
X194558015Y-105059559D01*
X194567586Y-105119991D01*
X194610851Y-105163256D01*
X194667885Y-105192316D01*
X194697343Y-105201887D01*
X194806847Y-105219231D01*
X194837821Y-105219231D01*
X194947325Y-105201887D01*
X194976783Y-105192316D01*
X194997575Y-105181722D01*
X195265122Y-105181722D01*
X195292899Y-105236239D01*
X195459437Y-105402777D01*
X195513954Y-105430554D01*
X195574386Y-105420983D01*
X195599445Y-105402777D01*
X195765983Y-105236239D01*
X195793760Y-105181722D01*
X195784189Y-105121290D01*
X195740924Y-105078025D01*
X195704682Y-105059559D01*
X195972229Y-105059559D01*
X195981800Y-105119991D01*
X196025065Y-105163256D01*
X196082099Y-105192316D01*
X196111557Y-105201887D01*
X196221061Y-105219231D01*
X196252035Y-105219231D01*
X196361539Y-105201887D01*
X196390997Y-105192316D01*
X196448031Y-105163256D01*
X196491295Y-105119991D01*
X196500867Y-105059559D01*
X196473090Y-105005042D01*
X196306552Y-104838504D01*
X196252035Y-104810727D01*
X196191603Y-104820298D01*
X196166544Y-104838504D01*
X196000006Y-105005042D01*
X195972229Y-105059559D01*
X195704682Y-105059559D01*
X195683890Y-105048965D01*
X195654432Y-105039394D01*
X195544928Y-105022050D01*
X195513954Y-105022050D01*
X195404450Y-105039394D01*
X195374992Y-105048965D01*
X195317958Y-105078025D01*
X195274694Y-105121290D01*
X195265122Y-105181722D01*
X194997575Y-105181722D01*
X195033817Y-105163256D01*
X195077081Y-105119991D01*
X195086653Y-105059559D01*
X195058876Y-105005042D01*
X194892338Y-104838504D01*
X194837821Y-104810727D01*
X194777389Y-104820298D01*
X194752330Y-104838504D01*
X194585792Y-105005042D01*
X194558015Y-105059559D01*
X194290469Y-105059559D01*
X194269677Y-105048965D01*
X194240219Y-105039394D01*
X194130715Y-105022050D01*
X194099741Y-105022050D01*
X193990237Y-105039394D01*
X193960779Y-105048965D01*
X193903745Y-105078025D01*
X193860481Y-105121290D01*
X193850909Y-105181722D01*
X193583362Y-105181722D01*
X193619604Y-105163256D01*
X193662868Y-105119991D01*
X193672440Y-105059559D01*
X193644663Y-105005042D01*
X193478125Y-104838504D01*
X193423608Y-104810727D01*
X193363176Y-104820298D01*
X193338117Y-104838504D01*
X193171579Y-105005042D01*
X193143802Y-105059559D01*
X192099500Y-105059559D01*
X192099500Y-104815252D01*
X192097598Y-104795938D01*
X192088779Y-104751600D01*
X192955977Y-104751600D01*
X192955977Y-104782574D01*
X192973321Y-104892078D01*
X192982892Y-104921536D01*
X193011952Y-104978570D01*
X193055217Y-105021834D01*
X193115649Y-105031406D01*
X193170166Y-105003629D01*
X193336704Y-104837091D01*
X193364481Y-104782574D01*
X193359575Y-104751600D01*
X193451761Y-104751600D01*
X193461332Y-104812032D01*
X193479538Y-104837091D01*
X193646076Y-105003629D01*
X193700593Y-105031406D01*
X193761025Y-105021835D01*
X193804290Y-104978570D01*
X193833350Y-104921536D01*
X193842921Y-104892078D01*
X193860265Y-104782574D01*
X193860265Y-104751600D01*
X194370190Y-104751600D01*
X194370190Y-104782574D01*
X194387534Y-104892078D01*
X194397105Y-104921536D01*
X194426165Y-104978570D01*
X194469430Y-105021834D01*
X194529862Y-105031406D01*
X194584379Y-105003629D01*
X194750917Y-104837091D01*
X194778694Y-104782574D01*
X194773788Y-104751600D01*
X194865974Y-104751600D01*
X194875545Y-104812032D01*
X194893751Y-104837091D01*
X195060289Y-105003629D01*
X195114806Y-105031406D01*
X195175238Y-105021835D01*
X195218503Y-104978570D01*
X195247563Y-104921536D01*
X195257134Y-104892078D01*
X195274478Y-104782574D01*
X195274478Y-104751600D01*
X195784404Y-104751600D01*
X195784404Y-104782574D01*
X195801748Y-104892078D01*
X195811319Y-104921536D01*
X195840379Y-104978570D01*
X195883644Y-105021834D01*
X195944076Y-105031406D01*
X195998593Y-105003629D01*
X196165131Y-104837091D01*
X196192908Y-104782574D01*
X196188002Y-104751600D01*
X196280188Y-104751600D01*
X196289759Y-104812032D01*
X196307965Y-104837091D01*
X196474503Y-105003629D01*
X196529020Y-105031406D01*
X196589452Y-105021835D01*
X196632717Y-104978570D01*
X196661777Y-104921536D01*
X196671348Y-104892078D01*
X196688692Y-104782574D01*
X196688692Y-104751600D01*
X196671348Y-104642096D01*
X196661777Y-104612638D01*
X196634709Y-104559513D01*
X197977219Y-104559513D01*
X197986790Y-104619945D01*
X198010802Y-104650363D01*
X200035802Y-106375363D01*
X200053825Y-106387572D01*
X201393582Y-107093989D01*
X201382219Y-107165729D01*
X201381000Y-107181216D01*
X201381000Y-107235000D01*
X201399907Y-107293191D01*
X201449407Y-107329155D01*
X201480000Y-107334000D01*
X202076000Y-107334000D01*
X202076000Y-107386000D01*
X201480000Y-107386000D01*
X201421809Y-107404907D01*
X201385845Y-107454407D01*
X201381000Y-107485000D01*
X201381000Y-107538784D01*
X201382219Y-107554271D01*
X201396962Y-107647352D01*
X201406533Y-107676810D01*
X201463697Y-107789002D01*
X201472051Y-107800500D01*
X200690479Y-107800500D01*
X200001775Y-107111796D01*
X200003124Y-107103780D01*
X200004489Y-107088564D01*
X200004640Y-107076210D01*
X200003647Y-107060965D01*
X199983323Y-106919047D01*
X199975445Y-106892106D01*
X199916106Y-106761596D01*
X199900983Y-106737949D01*
X199807399Y-106629340D01*
X199786247Y-106610888D01*
X199665942Y-106532910D01*
X199640461Y-106521136D01*
X199503105Y-106480058D01*
X199475344Y-106475909D01*
X199331981Y-106475033D01*
X199304171Y-106478842D01*
X199166324Y-106518239D01*
X199140701Y-106529701D01*
X199019452Y-106606203D01*
X198998076Y-106624396D01*
X198903173Y-106731854D01*
X198887763Y-106755314D01*
X198826833Y-106885089D01*
X198818626Y-106911933D01*
X198796570Y-107053593D01*
X198796227Y-107081659D01*
X198814816Y-107223815D01*
X198822364Y-107250851D01*
X198880104Y-107382075D01*
X198894937Y-107405905D01*
X198987187Y-107515650D01*
X199008112Y-107534359D01*
X199127455Y-107613801D01*
X199152791Y-107625886D01*
X199289635Y-107668638D01*
X199317342Y-107673125D01*
X199435308Y-107675288D01*
X200204680Y-108444660D01*
X200212247Y-108454849D01*
X200248480Y-108488460D01*
X200262272Y-108502252D01*
X200272577Y-108510814D01*
X200294317Y-108530981D01*
X200324962Y-108550354D01*
X200335652Y-108554619D01*
X200345142Y-108561129D01*
X200378288Y-108575817D01*
X200404199Y-108581966D01*
X200428936Y-108591835D01*
X200455962Y-108598411D01*
X200462255Y-108599028D01*
X200471915Y-108599500D01*
X200478084Y-108599500D01*
X200487207Y-108601665D01*
X200523416Y-108603436D01*
X200552337Y-108599500D01*
X201577597Y-108599500D01*
X201612187Y-108640650D01*
X201633112Y-108659359D01*
X201752455Y-108738801D01*
X201777791Y-108750886D01*
X201914635Y-108793638D01*
X201942342Y-108798125D01*
X202085684Y-108800753D01*
X202113539Y-108797284D01*
X202251857Y-108759574D01*
X202277618Y-108748426D01*
X202399792Y-108673411D01*
X202421389Y-108655481D01*
X202517598Y-108549190D01*
X202533294Y-108525920D01*
X202595804Y-108396899D01*
X202604338Y-108370158D01*
X202628124Y-108228779D01*
X202629489Y-108213564D01*
X202629640Y-108201210D01*
X202628647Y-108185965D01*
X202608323Y-108044047D01*
X202600445Y-108017106D01*
X202542499Y-107889659D01*
X202618097Y-107814061D01*
X202636303Y-107789002D01*
X202693467Y-107676810D01*
X202700436Y-107655359D01*
X202723046Y-107672304D01*
X202747667Y-107685783D01*
X202881776Y-107736058D01*
X202905836Y-107741779D01*
X202966976Y-107748421D01*
X202977668Y-107749000D01*
X203275000Y-107749000D01*
X203333191Y-107730093D01*
X203369155Y-107680593D01*
X203374000Y-107650000D01*
X203374000Y-106650000D01*
X203426000Y-106650000D01*
X203426000Y-107650000D01*
X203444907Y-107708191D01*
X203494407Y-107744155D01*
X203525000Y-107749000D01*
X203822332Y-107749000D01*
X203833024Y-107748421D01*
X203894164Y-107741779D01*
X203918224Y-107736058D01*
X204052333Y-107685783D01*
X204076954Y-107672304D01*
X204191562Y-107586410D01*
X204211410Y-107566562D01*
X204297304Y-107451954D01*
X204310783Y-107427333D01*
X204361058Y-107293224D01*
X204366779Y-107269164D01*
X204373421Y-107208024D01*
X204374000Y-107197332D01*
X204374000Y-106650000D01*
X204355093Y-106591809D01*
X204305593Y-106555845D01*
X204275000Y-106551000D01*
X203525000Y-106551000D01*
X203466809Y-106569907D01*
X203430845Y-106619407D01*
X203426000Y-106650000D01*
X203374000Y-106650000D01*
X203374000Y-105400000D01*
X203426000Y-105400000D01*
X203426000Y-106400000D01*
X203444907Y-106458191D01*
X203494407Y-106494155D01*
X203525000Y-106499000D01*
X204275000Y-106499000D01*
X204333191Y-106480093D01*
X204369155Y-106430593D01*
X204374000Y-106400000D01*
X204374000Y-105852668D01*
X204373421Y-105841976D01*
X204366779Y-105780836D01*
X204361058Y-105756776D01*
X204310783Y-105622667D01*
X204302019Y-105606659D01*
X204821227Y-105606659D01*
X204839816Y-105748815D01*
X204847364Y-105775851D01*
X204905104Y-105907075D01*
X204919937Y-105930905D01*
X205012187Y-106040650D01*
X205033112Y-106059359D01*
X205152455Y-106138801D01*
X205177791Y-106150886D01*
X205226609Y-106166137D01*
X205275500Y-106203917D01*
X205275500Y-107203834D01*
X205275939Y-107213151D01*
X205278920Y-107244686D01*
X205284073Y-107268171D01*
X205328958Y-107395986D01*
X205342733Y-107422002D01*
X205423217Y-107530968D01*
X205444032Y-107551783D01*
X205552998Y-107632267D01*
X205579014Y-107646042D01*
X205706829Y-107690927D01*
X205730314Y-107696080D01*
X205761849Y-107699061D01*
X205771166Y-107699500D01*
X206628834Y-107699500D01*
X206638151Y-107699061D01*
X206669686Y-107696080D01*
X206693171Y-107690927D01*
X206820986Y-107646042D01*
X206847002Y-107632267D01*
X206955968Y-107551783D01*
X206976783Y-107530968D01*
X207057267Y-107422002D01*
X207071042Y-107395986D01*
X207115927Y-107268171D01*
X207121080Y-107244686D01*
X207124061Y-107213151D01*
X207124500Y-107203834D01*
X207124500Y-105846166D01*
X207124061Y-105836849D01*
X207121080Y-105805314D01*
X207115927Y-105781829D01*
X207071042Y-105654014D01*
X207057267Y-105627998D01*
X206976783Y-105519032D01*
X206955968Y-105498217D01*
X206847002Y-105417733D01*
X206820986Y-105403958D01*
X206759678Y-105382429D01*
X206716106Y-105286596D01*
X206700983Y-105262949D01*
X206607399Y-105154340D01*
X206586247Y-105135888D01*
X206465942Y-105057910D01*
X206440461Y-105046136D01*
X206303105Y-105005058D01*
X206275344Y-105000909D01*
X206131981Y-105000033D01*
X206104171Y-105003842D01*
X205966324Y-105043239D01*
X205940701Y-105054701D01*
X205880883Y-105092443D01*
X205834693Y-105104820D01*
X205803533Y-105119350D01*
X205794976Y-105125342D01*
X205690942Y-105057910D01*
X205665461Y-105046136D01*
X205528105Y-105005058D01*
X205500344Y-105000909D01*
X205356981Y-105000033D01*
X205329171Y-105003842D01*
X205191324Y-105043239D01*
X205165701Y-105054701D01*
X205044452Y-105131203D01*
X205023076Y-105149396D01*
X204928173Y-105256854D01*
X204912763Y-105280314D01*
X204851833Y-105410089D01*
X204843626Y-105436933D01*
X204821570Y-105578593D01*
X204821227Y-105606659D01*
X204302019Y-105606659D01*
X204297304Y-105598046D01*
X204211410Y-105483438D01*
X204191562Y-105463590D01*
X204076954Y-105377696D01*
X204052333Y-105364217D01*
X203918224Y-105313942D01*
X203894164Y-105308221D01*
X203833024Y-105301579D01*
X203822332Y-105301000D01*
X203525000Y-105301000D01*
X203466809Y-105319907D01*
X203430845Y-105369407D01*
X203426000Y-105400000D01*
X203374000Y-105400000D01*
X203355093Y-105341809D01*
X203305593Y-105305845D01*
X203275000Y-105301000D01*
X202977668Y-105301000D01*
X202966976Y-105301579D01*
X202933424Y-105305224D01*
X202932847Y-105296365D01*
X202912523Y-105154447D01*
X202904645Y-105127506D01*
X202845306Y-104996996D01*
X202830183Y-104973349D01*
X202775728Y-104910151D01*
X202793974Y-104711726D01*
X204315362Y-103374356D01*
X204339577Y-103333546D01*
X206236867Y-103333546D01*
X206254106Y-103538837D01*
X206257594Y-103557841D01*
X206314379Y-103755874D01*
X206321492Y-103773839D01*
X206415660Y-103957071D01*
X206426126Y-103973312D01*
X206554091Y-104134764D01*
X206567513Y-104148662D01*
X206724400Y-104282183D01*
X206740266Y-104293210D01*
X206920100Y-104393716D01*
X206937805Y-104401452D01*
X207133736Y-104465114D01*
X207152607Y-104469263D01*
X207357172Y-104493655D01*
X207376489Y-104494059D01*
X207581895Y-104478254D01*
X207600923Y-104474899D01*
X207799348Y-104419498D01*
X207817362Y-104412511D01*
X208001247Y-104319624D01*
X208017560Y-104309271D01*
X208179901Y-104182437D01*
X208193894Y-104169112D01*
X208328507Y-104013160D01*
X208339644Y-103997372D01*
X208441403Y-103818244D01*
X208449262Y-103800593D01*
X208514290Y-103605112D01*
X208518570Y-103586271D01*
X208533072Y-103471475D01*
X208737966Y-103471475D01*
X208741100Y-103519290D01*
X208743934Y-103537184D01*
X208793698Y-103733130D01*
X208799746Y-103750208D01*
X208884384Y-103933803D01*
X208893443Y-103949493D01*
X209010123Y-104114591D01*
X209021889Y-104128368D01*
X209166701Y-104269437D01*
X209180780Y-104280838D01*
X209348875Y-104393156D01*
X209364798Y-104401801D01*
X209550546Y-104481604D01*
X209567776Y-104487203D01*
X209764957Y-104531821D01*
X209782920Y-104534186D01*
X209802114Y-104534940D01*
X209861002Y-104518331D01*
X209898881Y-104470281D01*
X209905000Y-104436016D01*
X209905000Y-103465000D01*
X209957000Y-103465000D01*
X209957000Y-104433458D01*
X209975907Y-104491649D01*
X210025407Y-104527613D01*
X210070206Y-104531434D01*
X210203096Y-104512166D01*
X210220712Y-104507936D01*
X210412149Y-104442952D01*
X210428701Y-104435583D01*
X210605090Y-104336800D01*
X210620020Y-104326538D01*
X210775454Y-104197265D01*
X210788265Y-104184454D01*
X210917538Y-104029020D01*
X210927800Y-104014090D01*
X211026583Y-103837701D01*
X211033952Y-103821149D01*
X211098936Y-103629712D01*
X211103166Y-103612096D01*
X211122434Y-103479206D01*
X211112072Y-103418904D01*
X211068244Y-103376210D01*
X211024458Y-103366000D01*
X210056000Y-103366000D01*
X209997809Y-103384907D01*
X209961845Y-103434407D01*
X209957000Y-103465000D01*
X209905000Y-103465000D01*
X209886093Y-103406809D01*
X209836593Y-103370845D01*
X209806000Y-103366000D01*
X208836754Y-103366000D01*
X208778563Y-103384907D01*
X208742599Y-103434407D01*
X208737966Y-103471475D01*
X208533072Y-103471475D01*
X208544390Y-103381882D01*
X208545161Y-103370858D01*
X208545573Y-103341384D01*
X208545111Y-103330339D01*
X208532661Y-103203364D01*
X208739724Y-103203364D01*
X208751661Y-103263374D01*
X208796591Y-103304906D01*
X208838038Y-103314000D01*
X209806000Y-103314000D01*
X209864191Y-103295093D01*
X209900155Y-103245593D01*
X209905000Y-103215000D01*
X209905000Y-102245277D01*
X209904336Y-102243234D01*
X209957000Y-102243234D01*
X209957000Y-103215000D01*
X209975907Y-103273191D01*
X210025407Y-103309155D01*
X210056000Y-103314000D01*
X211024227Y-103314000D01*
X211082418Y-103295093D01*
X211118382Y-103245593D01*
X211122812Y-103205941D01*
X211115799Y-103129623D01*
X211112497Y-103111809D01*
X211057621Y-102917233D01*
X211051129Y-102900320D01*
X210961714Y-102719003D01*
X210952247Y-102703555D01*
X210831286Y-102541569D01*
X210819163Y-102528105D01*
X210670708Y-102390874D01*
X210656334Y-102379845D01*
X210485356Y-102271967D01*
X210469215Y-102263742D01*
X210281441Y-102188827D01*
X210264069Y-102183681D01*
X210075314Y-102146136D01*
X210014552Y-102153328D01*
X209969623Y-102194861D01*
X209957000Y-102243234D01*
X209904336Y-102243234D01*
X209886093Y-102187086D01*
X209836593Y-102151122D01*
X209789234Y-102147707D01*
X209628313Y-102175359D01*
X209610813Y-102180048D01*
X209421143Y-102250021D01*
X209404791Y-102257821D01*
X209231048Y-102361187D01*
X209216390Y-102371836D01*
X209064394Y-102505134D01*
X209051924Y-102518276D01*
X208926764Y-102677040D01*
X208916896Y-102692234D01*
X208822764Y-102871149D01*
X208815831Y-102887888D01*
X208755881Y-103080960D01*
X208752114Y-103098681D01*
X208739724Y-103203364D01*
X208532661Y-103203364D01*
X208525008Y-103125309D01*
X208521255Y-103106356D01*
X208461710Y-102909135D01*
X208454347Y-102891272D01*
X208357630Y-102709372D01*
X208346937Y-102693278D01*
X208216730Y-102533629D01*
X208203116Y-102519919D01*
X208044380Y-102388601D01*
X208028362Y-102377797D01*
X207847142Y-102279812D01*
X207829330Y-102272324D01*
X207632529Y-102211404D01*
X207613602Y-102207519D01*
X207408717Y-102185985D01*
X207389397Y-102185850D01*
X207184231Y-102204521D01*
X207165251Y-102208142D01*
X206967620Y-102266308D01*
X206949705Y-102273546D01*
X206767135Y-102368992D01*
X206750968Y-102379571D01*
X206590413Y-102508660D01*
X206576609Y-102522179D01*
X206444186Y-102679994D01*
X206433270Y-102695936D01*
X206334022Y-102876468D01*
X206326410Y-102894227D01*
X206264118Y-103090597D01*
X206260101Y-103109497D01*
X206237137Y-103314227D01*
X206236867Y-103333546D01*
X204339577Y-103333546D01*
X204346584Y-103321736D01*
X204340915Y-103260814D01*
X204319204Y-103229206D01*
X202094204Y-101054206D01*
X202039375Y-101027049D01*
X202025000Y-101026000D01*
X201525000Y-101026000D01*
X201466809Y-101044907D01*
X201454996Y-101054996D01*
X198004996Y-104504996D01*
X197977219Y-104559513D01*
X196634709Y-104559513D01*
X196632717Y-104555604D01*
X196589452Y-104512340D01*
X196529020Y-104502768D01*
X196474503Y-104530545D01*
X196307965Y-104697083D01*
X196280188Y-104751600D01*
X196188002Y-104751600D01*
X196183337Y-104722142D01*
X196165131Y-104697083D01*
X195998593Y-104530545D01*
X195944076Y-104502768D01*
X195883644Y-104512339D01*
X195840379Y-104555604D01*
X195811319Y-104612638D01*
X195801748Y-104642096D01*
X195784404Y-104751600D01*
X195274478Y-104751600D01*
X195257134Y-104642096D01*
X195247563Y-104612638D01*
X195218503Y-104555604D01*
X195175238Y-104512340D01*
X195114806Y-104502768D01*
X195060289Y-104530545D01*
X194893751Y-104697083D01*
X194865974Y-104751600D01*
X194773788Y-104751600D01*
X194769123Y-104722142D01*
X194750917Y-104697083D01*
X194584379Y-104530545D01*
X194529862Y-104502768D01*
X194469430Y-104512339D01*
X194426165Y-104555604D01*
X194397105Y-104612638D01*
X194387534Y-104642096D01*
X194370190Y-104751600D01*
X193860265Y-104751600D01*
X193842921Y-104642096D01*
X193833350Y-104612638D01*
X193804290Y-104555604D01*
X193761025Y-104512340D01*
X193700593Y-104502768D01*
X193646076Y-104530545D01*
X193479538Y-104697083D01*
X193451761Y-104751600D01*
X193359575Y-104751600D01*
X193354910Y-104722142D01*
X193336704Y-104697083D01*
X193170166Y-104530545D01*
X193115649Y-104502768D01*
X193055217Y-104512339D01*
X193011952Y-104555604D01*
X192982892Y-104612638D01*
X192973321Y-104642096D01*
X192955977Y-104751600D01*
X192088779Y-104751600D01*
X192085965Y-104737455D01*
X192071182Y-104701767D01*
X192026867Y-104635446D01*
X191999554Y-104608133D01*
X191933233Y-104563818D01*
X191897545Y-104549035D01*
X191839062Y-104537402D01*
X191819748Y-104535500D01*
X190674557Y-104535500D01*
X190613672Y-104474615D01*
X193143802Y-104474615D01*
X193171579Y-104529132D01*
X193338117Y-104695670D01*
X193392634Y-104723447D01*
X193453066Y-104713876D01*
X193478125Y-104695670D01*
X193644663Y-104529132D01*
X193672440Y-104474615D01*
X193662869Y-104414183D01*
X193619604Y-104370918D01*
X193583364Y-104352453D01*
X193850909Y-104352453D01*
X193860480Y-104412885D01*
X193903745Y-104456150D01*
X193960779Y-104485210D01*
X193990237Y-104494781D01*
X194099741Y-104512125D01*
X194130715Y-104512125D01*
X194240219Y-104494781D01*
X194269677Y-104485210D01*
X194290471Y-104474615D01*
X194558015Y-104474615D01*
X194585792Y-104529132D01*
X194752330Y-104695670D01*
X194806847Y-104723447D01*
X194867279Y-104713876D01*
X194892338Y-104695670D01*
X195058876Y-104529132D01*
X195086653Y-104474615D01*
X195077082Y-104414183D01*
X195033817Y-104370918D01*
X194997577Y-104352453D01*
X195265122Y-104352453D01*
X195274693Y-104412885D01*
X195317958Y-104456150D01*
X195374992Y-104485210D01*
X195404450Y-104494781D01*
X195513954Y-104512125D01*
X195544928Y-104512125D01*
X195654432Y-104494781D01*
X195683890Y-104485210D01*
X195704684Y-104474615D01*
X195972229Y-104474615D01*
X196000006Y-104529132D01*
X196166544Y-104695670D01*
X196221061Y-104723447D01*
X196281493Y-104713876D01*
X196306552Y-104695670D01*
X196473090Y-104529132D01*
X196500867Y-104474615D01*
X196491296Y-104414183D01*
X196448031Y-104370918D01*
X196390997Y-104341858D01*
X196361539Y-104332287D01*
X196252035Y-104314943D01*
X196221061Y-104314943D01*
X196111557Y-104332287D01*
X196082099Y-104341858D01*
X196025065Y-104370918D01*
X195981801Y-104414183D01*
X195972229Y-104474615D01*
X195704684Y-104474615D01*
X195740924Y-104456150D01*
X195784188Y-104412885D01*
X195793760Y-104352453D01*
X195765983Y-104297936D01*
X195599445Y-104131398D01*
X195544928Y-104103621D01*
X195484496Y-104113192D01*
X195459437Y-104131398D01*
X195292899Y-104297936D01*
X195265122Y-104352453D01*
X194997577Y-104352453D01*
X194976783Y-104341858D01*
X194947325Y-104332287D01*
X194837821Y-104314943D01*
X194806847Y-104314943D01*
X194697343Y-104332287D01*
X194667885Y-104341858D01*
X194610851Y-104370918D01*
X194567587Y-104414183D01*
X194558015Y-104474615D01*
X194290471Y-104474615D01*
X194326711Y-104456150D01*
X194369975Y-104412885D01*
X194379547Y-104352453D01*
X194351770Y-104297936D01*
X194185232Y-104131398D01*
X194130715Y-104103621D01*
X194070283Y-104113192D01*
X194045224Y-104131398D01*
X193878686Y-104297936D01*
X193850909Y-104352453D01*
X193583364Y-104352453D01*
X193562570Y-104341858D01*
X193533112Y-104332287D01*
X193423608Y-104314943D01*
X193392634Y-104314943D01*
X193283130Y-104332287D01*
X193253672Y-104341858D01*
X193196638Y-104370918D01*
X193153374Y-104414183D01*
X193143802Y-104474615D01*
X190613672Y-104474615D01*
X190441124Y-104302067D01*
X190529380Y-104290448D01*
X190554344Y-104283759D01*
X190700885Y-104223059D01*
X190723264Y-104210138D01*
X190749077Y-104190332D01*
X190783734Y-104139909D01*
X190782134Y-104078744D01*
X190760525Y-104044494D01*
X193663084Y-104044494D01*
X193663084Y-104075468D01*
X193680428Y-104184972D01*
X193689999Y-104214430D01*
X193719059Y-104271464D01*
X193762324Y-104314728D01*
X193822756Y-104324300D01*
X193877273Y-104296523D01*
X194043811Y-104129985D01*
X194071588Y-104075468D01*
X194066682Y-104044494D01*
X194158868Y-104044494D01*
X194168439Y-104104926D01*
X194186645Y-104129985D01*
X194353183Y-104296523D01*
X194407700Y-104324300D01*
X194468132Y-104314729D01*
X194511397Y-104271464D01*
X194540457Y-104214430D01*
X194550028Y-104184972D01*
X194567372Y-104075468D01*
X194567372Y-104044494D01*
X195077297Y-104044494D01*
X195077297Y-104075468D01*
X195094641Y-104184972D01*
X195104212Y-104214430D01*
X195133272Y-104271464D01*
X195176537Y-104314728D01*
X195236969Y-104324300D01*
X195291486Y-104296523D01*
X195458024Y-104129985D01*
X195485801Y-104075468D01*
X195480895Y-104044494D01*
X195573081Y-104044494D01*
X195582652Y-104104926D01*
X195600858Y-104129985D01*
X195767396Y-104296523D01*
X195821913Y-104324300D01*
X195882345Y-104314729D01*
X195925610Y-104271464D01*
X195954670Y-104214430D01*
X195964241Y-104184972D01*
X195981585Y-104075468D01*
X195981585Y-104044494D01*
X195964241Y-103934990D01*
X195954670Y-103905532D01*
X195925610Y-103848498D01*
X195882345Y-103805234D01*
X195821913Y-103795662D01*
X195767396Y-103823439D01*
X195600858Y-103989977D01*
X195573081Y-104044494D01*
X195480895Y-104044494D01*
X195476230Y-104015036D01*
X195458024Y-103989977D01*
X195291486Y-103823439D01*
X195236969Y-103795662D01*
X195176537Y-103805233D01*
X195133272Y-103848498D01*
X195104212Y-103905532D01*
X195094641Y-103934990D01*
X195077297Y-104044494D01*
X194567372Y-104044494D01*
X194550028Y-103934990D01*
X194540457Y-103905532D01*
X194511397Y-103848498D01*
X194468132Y-103805234D01*
X194407700Y-103795662D01*
X194353183Y-103823439D01*
X194186645Y-103989977D01*
X194158868Y-104044494D01*
X194066682Y-104044494D01*
X194062017Y-104015036D01*
X194043811Y-103989977D01*
X193877273Y-103823439D01*
X193822756Y-103795662D01*
X193762324Y-103805233D01*
X193719059Y-103848498D01*
X193689999Y-103905532D01*
X193680428Y-103934990D01*
X193663084Y-104044494D01*
X190760525Y-104044494D01*
X190758816Y-104041785D01*
X190306944Y-103589913D01*
X190438196Y-103589913D01*
X190447767Y-103650345D01*
X190465973Y-103675404D01*
X190795585Y-104005016D01*
X190850102Y-104032793D01*
X190910534Y-104023222D01*
X190944132Y-103995277D01*
X190963938Y-103969464D01*
X190976859Y-103947085D01*
X191037559Y-103800544D01*
X191044248Y-103775580D01*
X191045311Y-103767509D01*
X193850909Y-103767509D01*
X193878686Y-103822026D01*
X194045224Y-103988564D01*
X194099741Y-104016341D01*
X194160173Y-104006770D01*
X194185232Y-103988564D01*
X194351770Y-103822026D01*
X194379547Y-103767509D01*
X194369976Y-103707077D01*
X194326711Y-103663812D01*
X194290469Y-103645346D01*
X194558015Y-103645346D01*
X194567586Y-103705778D01*
X194610851Y-103749043D01*
X194667885Y-103778103D01*
X194697343Y-103787674D01*
X194806847Y-103805018D01*
X194837821Y-103805018D01*
X194947325Y-103787674D01*
X194976783Y-103778103D01*
X194997575Y-103767509D01*
X195265122Y-103767509D01*
X195292899Y-103822026D01*
X195459437Y-103988564D01*
X195513954Y-104016341D01*
X195574386Y-104006770D01*
X195599445Y-103988564D01*
X195765983Y-103822026D01*
X195793760Y-103767509D01*
X195784189Y-103707077D01*
X195740924Y-103663812D01*
X195683890Y-103634752D01*
X195654432Y-103625181D01*
X195544928Y-103607837D01*
X195513954Y-103607837D01*
X195404450Y-103625181D01*
X195374992Y-103634752D01*
X195317958Y-103663812D01*
X195274694Y-103707077D01*
X195265122Y-103767509D01*
X194997575Y-103767509D01*
X195033817Y-103749043D01*
X195077081Y-103705778D01*
X195086653Y-103645346D01*
X195058876Y-103590829D01*
X194892338Y-103424291D01*
X194837821Y-103396514D01*
X194777389Y-103406085D01*
X194752330Y-103424291D01*
X194585792Y-103590829D01*
X194558015Y-103645346D01*
X194290469Y-103645346D01*
X194287827Y-103644000D01*
X194488787Y-103644000D01*
X194546978Y-103625093D01*
X194558791Y-103615004D01*
X194822334Y-103351461D01*
X195082350Y-103611477D01*
X195136867Y-103639254D01*
X195171668Y-103638571D01*
X195226859Y-103627593D01*
X195262546Y-103612811D01*
X195345241Y-103557556D01*
X195372556Y-103530241D01*
X195427811Y-103447546D01*
X195442593Y-103411859D01*
X195457098Y-103338938D01*
X195459000Y-103319624D01*
X195459000Y-102920000D01*
X195440093Y-102861809D01*
X195390593Y-102825845D01*
X195360000Y-102821000D01*
X193980000Y-102821000D01*
X193921809Y-102839907D01*
X193885845Y-102889407D01*
X193881000Y-102920000D01*
X193881000Y-103545000D01*
X193899907Y-103603191D01*
X193949407Y-103639155D01*
X193951490Y-103639485D01*
X193903745Y-103663812D01*
X193860481Y-103707077D01*
X193850909Y-103767509D01*
X191045311Y-103767509D01*
X191064951Y-103618322D01*
X191064951Y-103592478D01*
X191044248Y-103435220D01*
X191037559Y-103410256D01*
X190976859Y-103263715D01*
X190963938Y-103241336D01*
X190944132Y-103215523D01*
X190893709Y-103180866D01*
X190832544Y-103182466D01*
X190795585Y-103205784D01*
X190465973Y-103535396D01*
X190438196Y-103589913D01*
X190306944Y-103589913D01*
X189922815Y-103205784D01*
X189868298Y-103178007D01*
X189807866Y-103187578D01*
X189774268Y-103215523D01*
X189754462Y-103241336D01*
X189741541Y-103263715D01*
X189680841Y-103410256D01*
X189674152Y-103435220D01*
X189662533Y-103523476D01*
X189209948Y-103070891D01*
X189934666Y-103070891D01*
X189936266Y-103132056D01*
X189959584Y-103169015D01*
X190289196Y-103498627D01*
X190343713Y-103526404D01*
X190404145Y-103516833D01*
X190429204Y-103498627D01*
X190758816Y-103169015D01*
X190786593Y-103114498D01*
X190777022Y-103054066D01*
X190749077Y-103020468D01*
X190723264Y-103000662D01*
X190700885Y-102987741D01*
X190554344Y-102927041D01*
X190529380Y-102920352D01*
X190526706Y-102920000D01*
X192251000Y-102920000D01*
X192251000Y-103319624D01*
X192252902Y-103338938D01*
X192267407Y-103411859D01*
X192282189Y-103447546D01*
X192337444Y-103530241D01*
X192364759Y-103557556D01*
X192447454Y-103612811D01*
X192483141Y-103627593D01*
X192556062Y-103642098D01*
X192575376Y-103644000D01*
X193730000Y-103644000D01*
X193788191Y-103625093D01*
X193824155Y-103575593D01*
X193829000Y-103545000D01*
X193829000Y-102920000D01*
X193810093Y-102861809D01*
X193760593Y-102825845D01*
X193730000Y-102821000D01*
X192350000Y-102821000D01*
X192291809Y-102839907D01*
X192255845Y-102889407D01*
X192251000Y-102920000D01*
X190526706Y-102920000D01*
X190372122Y-102899649D01*
X190346278Y-102899649D01*
X190189020Y-102920352D01*
X190164056Y-102927041D01*
X190017515Y-102987741D01*
X189995136Y-103000662D01*
X189969323Y-103020468D01*
X189934666Y-103070891D01*
X189209948Y-103070891D01*
X188952260Y-102813203D01*
X188952260Y-102270376D01*
X192251000Y-102270376D01*
X192251000Y-102670000D01*
X192269907Y-102728191D01*
X192319407Y-102764155D01*
X192350000Y-102769000D01*
X193730000Y-102769000D01*
X193788191Y-102750093D01*
X193824155Y-102700593D01*
X193829000Y-102670000D01*
X193829000Y-102045000D01*
X193881000Y-102045000D01*
X193881000Y-102670000D01*
X193899907Y-102728191D01*
X193949407Y-102764155D01*
X193980000Y-102769000D01*
X195360000Y-102769000D01*
X195418191Y-102750093D01*
X195454155Y-102700593D01*
X195459000Y-102670000D01*
X195459000Y-102270376D01*
X195457098Y-102251062D01*
X195442593Y-102178141D01*
X195427811Y-102142454D01*
X195372556Y-102059759D01*
X195345241Y-102032444D01*
X195262546Y-101977189D01*
X195226859Y-101962407D01*
X195153938Y-101947902D01*
X195134624Y-101946000D01*
X193980000Y-101946000D01*
X193921809Y-101964907D01*
X193885845Y-102014407D01*
X193881000Y-102045000D01*
X193829000Y-102045000D01*
X193810093Y-101986809D01*
X193760593Y-101950845D01*
X193730000Y-101946000D01*
X192575376Y-101946000D01*
X192556062Y-101947902D01*
X192483141Y-101962407D01*
X192447454Y-101977189D01*
X192364759Y-102032444D01*
X192337444Y-102059759D01*
X192282189Y-102142454D01*
X192267407Y-102178141D01*
X192252902Y-102251062D01*
X192251000Y-102270376D01*
X188952260Y-102270376D01*
X188952260Y-100073055D01*
X188990500Y-100034815D01*
X188990500Y-100774748D01*
X188992402Y-100794062D01*
X189004035Y-100852545D01*
X189018818Y-100888233D01*
X189063133Y-100954554D01*
X189090446Y-100981867D01*
X189156767Y-101026182D01*
X189192455Y-101040965D01*
X189250938Y-101052598D01*
X189270252Y-101054500D01*
X189755642Y-101054500D01*
X189755427Y-101072059D01*
X189774016Y-101214215D01*
X189781564Y-101241251D01*
X189839304Y-101372475D01*
X189854137Y-101396305D01*
X189946387Y-101506050D01*
X189967312Y-101524759D01*
X190086655Y-101604201D01*
X190111991Y-101616286D01*
X190248835Y-101659038D01*
X190276542Y-101663525D01*
X190419884Y-101666153D01*
X190447739Y-101662684D01*
X190586057Y-101624974D01*
X190611818Y-101613826D01*
X190733992Y-101538811D01*
X190755589Y-101520881D01*
X190851798Y-101414590D01*
X190867494Y-101391320D01*
X190930004Y-101262299D01*
X190938538Y-101235558D01*
X190960716Y-101103739D01*
X195347067Y-101103739D01*
X195365656Y-101245895D01*
X195373204Y-101272931D01*
X195430944Y-101404155D01*
X195445777Y-101427985D01*
X195538027Y-101537730D01*
X195558952Y-101556439D01*
X195678295Y-101635881D01*
X195703631Y-101647966D01*
X195840475Y-101690718D01*
X195868182Y-101695205D01*
X196011524Y-101697833D01*
X196039379Y-101694364D01*
X196177697Y-101656654D01*
X196203458Y-101645506D01*
X196325632Y-101570491D01*
X196347229Y-101552561D01*
X196443438Y-101446270D01*
X196459134Y-101423000D01*
X196521644Y-101293979D01*
X196530178Y-101267238D01*
X196553964Y-101125859D01*
X196555329Y-101110644D01*
X196555480Y-101098290D01*
X196554487Y-101083046D01*
X196551401Y-101061498D01*
X196663400Y-100949499D01*
X198262777Y-100949499D01*
X198246570Y-101053593D01*
X198246227Y-101081659D01*
X198264816Y-101223815D01*
X198272364Y-101250851D01*
X198330104Y-101382075D01*
X198344937Y-101405905D01*
X198437187Y-101515650D01*
X198458112Y-101534359D01*
X198577455Y-101613801D01*
X198602791Y-101625886D01*
X198739635Y-101668638D01*
X198767342Y-101673125D01*
X198910684Y-101675753D01*
X198938539Y-101672284D01*
X199076857Y-101634574D01*
X199102618Y-101623426D01*
X199224792Y-101548411D01*
X199246389Y-101530481D01*
X199342598Y-101424190D01*
X199358294Y-101400920D01*
X199420804Y-101271899D01*
X199429338Y-101245158D01*
X199453124Y-101103779D01*
X199454489Y-101088564D01*
X199454640Y-101076210D01*
X199453647Y-101060965D01*
X199438059Y-100952118D01*
X199464867Y-100984010D01*
X199485792Y-101002719D01*
X199605135Y-101082161D01*
X199630471Y-101094246D01*
X199767315Y-101136998D01*
X199795022Y-101141485D01*
X199938364Y-101144113D01*
X199966219Y-101140644D01*
X200104537Y-101102934D01*
X200130298Y-101091786D01*
X200252472Y-101016771D01*
X200274069Y-100998841D01*
X200370278Y-100892550D01*
X200385974Y-100869280D01*
X200422667Y-100793546D01*
X206236867Y-100793546D01*
X206254106Y-100998837D01*
X206257594Y-101017841D01*
X206314379Y-101215874D01*
X206321492Y-101233839D01*
X206415660Y-101417071D01*
X206426126Y-101433312D01*
X206554091Y-101594764D01*
X206567513Y-101608662D01*
X206724400Y-101742183D01*
X206740266Y-101753210D01*
X206920100Y-101853716D01*
X206937805Y-101861452D01*
X207133736Y-101925114D01*
X207152607Y-101929263D01*
X207357172Y-101953655D01*
X207376489Y-101954059D01*
X207581895Y-101938254D01*
X207600923Y-101934899D01*
X207799348Y-101879498D01*
X207817362Y-101872511D01*
X208001247Y-101779624D01*
X208017560Y-101769271D01*
X208179901Y-101642437D01*
X208193894Y-101629112D01*
X208328507Y-101473160D01*
X208339644Y-101457372D01*
X208441403Y-101278244D01*
X208449262Y-101260593D01*
X208514290Y-101065112D01*
X208518570Y-101046271D01*
X208544390Y-100841882D01*
X208545161Y-100830858D01*
X208545573Y-100801384D01*
X208545245Y-100793546D01*
X208776867Y-100793546D01*
X208794106Y-100998837D01*
X208797594Y-101017841D01*
X208854379Y-101215874D01*
X208861492Y-101233839D01*
X208955660Y-101417071D01*
X208966126Y-101433312D01*
X209094091Y-101594764D01*
X209107513Y-101608662D01*
X209264400Y-101742183D01*
X209280266Y-101753210D01*
X209460100Y-101853716D01*
X209477805Y-101861452D01*
X209673736Y-101925114D01*
X209692607Y-101929263D01*
X209897172Y-101953655D01*
X209916489Y-101954059D01*
X210121895Y-101938254D01*
X210140923Y-101934899D01*
X210339348Y-101879498D01*
X210357362Y-101872511D01*
X210541247Y-101779624D01*
X210557560Y-101769271D01*
X210719901Y-101642437D01*
X210733894Y-101629112D01*
X210868507Y-101473160D01*
X210879644Y-101457372D01*
X210981403Y-101278244D01*
X210989262Y-101260593D01*
X211054290Y-101065112D01*
X211058570Y-101046271D01*
X211084390Y-100841882D01*
X211085161Y-100830858D01*
X211085573Y-100801384D01*
X211085111Y-100790339D01*
X211065008Y-100585309D01*
X211061255Y-100566356D01*
X211001710Y-100369135D01*
X210994347Y-100351272D01*
X210897630Y-100169372D01*
X210886937Y-100153278D01*
X210756730Y-99993629D01*
X210743116Y-99979919D01*
X210584380Y-99848601D01*
X210568362Y-99837797D01*
X210387142Y-99739812D01*
X210369330Y-99732324D01*
X210172529Y-99671404D01*
X210153602Y-99667519D01*
X209948717Y-99645985D01*
X209929397Y-99645850D01*
X209724231Y-99664521D01*
X209705251Y-99668142D01*
X209507620Y-99726308D01*
X209489705Y-99733546D01*
X209307135Y-99828992D01*
X209290968Y-99839571D01*
X209130413Y-99968660D01*
X209116609Y-99982179D01*
X208984186Y-100139994D01*
X208973270Y-100155936D01*
X208874022Y-100336468D01*
X208866410Y-100354227D01*
X208804118Y-100550597D01*
X208800101Y-100569497D01*
X208777137Y-100774227D01*
X208776867Y-100793546D01*
X208545245Y-100793546D01*
X208545111Y-100790339D01*
X208525008Y-100585309D01*
X208521255Y-100566356D01*
X208461710Y-100369135D01*
X208454347Y-100351272D01*
X208357630Y-100169372D01*
X208346937Y-100153278D01*
X208216730Y-99993629D01*
X208203116Y-99979919D01*
X208044380Y-99848601D01*
X208028362Y-99837797D01*
X207847142Y-99739812D01*
X207829330Y-99732324D01*
X207632529Y-99671404D01*
X207613602Y-99667519D01*
X207408717Y-99645985D01*
X207389397Y-99645850D01*
X207184231Y-99664521D01*
X207165251Y-99668142D01*
X206967620Y-99726308D01*
X206949705Y-99733546D01*
X206767135Y-99828992D01*
X206750968Y-99839571D01*
X206590413Y-99968660D01*
X206576609Y-99982179D01*
X206444186Y-100139994D01*
X206433270Y-100155936D01*
X206334022Y-100336468D01*
X206326410Y-100354227D01*
X206264118Y-100550597D01*
X206260101Y-100569497D01*
X206237137Y-100774227D01*
X206236867Y-100793546D01*
X200422667Y-100793546D01*
X200448484Y-100740259D01*
X200457018Y-100713518D01*
X200480804Y-100572139D01*
X200482169Y-100556924D01*
X200482320Y-100544570D01*
X200481327Y-100529325D01*
X200461003Y-100387407D01*
X200453125Y-100360466D01*
X200393786Y-100229956D01*
X200378663Y-100206309D01*
X200285079Y-100097700D01*
X200263927Y-100079248D01*
X200143622Y-100001270D01*
X200118141Y-99989496D01*
X199980785Y-99948418D01*
X199953024Y-99944269D01*
X199809661Y-99943393D01*
X199781851Y-99947202D01*
X199644004Y-99986599D01*
X199618381Y-99998061D01*
X199497132Y-100074563D01*
X199475756Y-100092756D01*
X199424760Y-100150499D01*
X196551434Y-100150499D01*
X196538865Y-100148643D01*
X196489430Y-100150499D01*
X196469973Y-100150499D01*
X196456642Y-100151730D01*
X196426999Y-100152843D01*
X196391634Y-100160812D01*
X196381056Y-100165357D01*
X196369741Y-100167464D01*
X196335920Y-100180514D01*
X196313245Y-100194491D01*
X196288778Y-100205003D01*
X196265023Y-100219459D01*
X196260137Y-100223472D01*
X196252968Y-100229972D01*
X196248602Y-100234338D01*
X196240625Y-100239255D01*
X196213769Y-100263607D01*
X196196105Y-100286836D01*
X196005905Y-100477037D01*
X196005886Y-100477054D01*
X195985201Y-100497739D01*
X195882821Y-100497113D01*
X195855011Y-100500922D01*
X195717164Y-100540319D01*
X195691541Y-100551781D01*
X195570292Y-100628283D01*
X195548916Y-100646476D01*
X195454013Y-100753934D01*
X195438603Y-100777394D01*
X195377673Y-100907169D01*
X195369466Y-100934013D01*
X195347410Y-101075673D01*
X195347067Y-101103739D01*
X190960716Y-101103739D01*
X190962324Y-101094179D01*
X190963689Y-101078964D01*
X190963840Y-101066610D01*
X190963051Y-101054500D01*
X191819748Y-101054500D01*
X191839062Y-101052598D01*
X191897545Y-101040965D01*
X191933233Y-101026182D01*
X191999554Y-100981867D01*
X192026867Y-100954554D01*
X192071182Y-100888233D01*
X192085965Y-100852545D01*
X192097598Y-100794062D01*
X192099500Y-100774748D01*
X192099500Y-99735252D01*
X192099060Y-99730784D01*
X192176857Y-99709574D01*
X192202618Y-99698426D01*
X192324792Y-99623411D01*
X192346389Y-99605481D01*
X192442598Y-99499190D01*
X192458294Y-99475920D01*
X192520804Y-99346899D01*
X192529338Y-99320158D01*
X192537296Y-99272860D01*
X194365750Y-99272860D01*
X194366363Y-99284560D01*
X194369781Y-99305670D01*
X194418824Y-99483721D01*
X194426696Y-99503603D01*
X194512829Y-99666969D01*
X194524787Y-99684697D01*
X194643991Y-99825756D01*
X194659477Y-99840503D01*
X194806191Y-99952674D01*
X194824482Y-99963752D01*
X194991860Y-100041801D01*
X195012103Y-100048692D01*
X195192337Y-100088979D01*
X195208406Y-100091209D01*
X195214075Y-100091526D01*
X195219602Y-100091680D01*
X195434240Y-100091680D01*
X195492431Y-100072773D01*
X195528395Y-100023273D01*
X195533240Y-99992680D01*
X195533240Y-99267680D01*
X195585240Y-99267680D01*
X195585240Y-99992680D01*
X195604147Y-100050871D01*
X195653647Y-100086835D01*
X195684240Y-100091680D01*
X195855377Y-100091680D01*
X195866069Y-100091101D01*
X196003533Y-100076168D01*
X196024418Y-100071576D01*
X196199454Y-100012670D01*
X196218866Y-100003700D01*
X196377168Y-99908582D01*
X196394201Y-99895654D01*
X196528386Y-99768761D01*
X196542245Y-99752477D01*
X196646052Y-99599731D01*
X196656091Y-99580850D01*
X196724676Y-99409376D01*
X196730427Y-99388779D01*
X196747798Y-99283849D01*
X196746136Y-99272860D01*
X202565749Y-99272860D01*
X202566362Y-99284560D01*
X202569780Y-99305670D01*
X202618823Y-99483721D01*
X202626695Y-99503603D01*
X202712828Y-99666969D01*
X202724786Y-99684697D01*
X202843990Y-99825756D01*
X202859476Y-99840503D01*
X203006190Y-99952674D01*
X203024481Y-99963752D01*
X203191859Y-100041801D01*
X203212102Y-100048692D01*
X203392336Y-100088979D01*
X203408405Y-100091209D01*
X203414074Y-100091526D01*
X203419601Y-100091680D01*
X203634239Y-100091680D01*
X203692430Y-100072773D01*
X203728394Y-100023273D01*
X203733239Y-99992680D01*
X203733239Y-99267680D01*
X203785239Y-99267680D01*
X203785239Y-99992680D01*
X203804146Y-100050871D01*
X203853646Y-100086835D01*
X203884239Y-100091680D01*
X204055376Y-100091680D01*
X204066068Y-100091101D01*
X204203532Y-100076168D01*
X204224417Y-100071576D01*
X204399453Y-100012670D01*
X204418865Y-100003700D01*
X204577167Y-99908582D01*
X204594200Y-99895654D01*
X204728385Y-99768761D01*
X204742244Y-99752477D01*
X204846051Y-99599731D01*
X204856090Y-99580850D01*
X204924675Y-99409376D01*
X204930426Y-99388779D01*
X204947797Y-99283849D01*
X204938647Y-99223352D01*
X204895686Y-99179786D01*
X204850126Y-99168680D01*
X203884239Y-99168680D01*
X203826048Y-99187587D01*
X203790084Y-99237087D01*
X203785239Y-99267680D01*
X203733239Y-99267680D01*
X203714332Y-99209489D01*
X203664832Y-99173525D01*
X203634239Y-99168680D01*
X202664613Y-99168680D01*
X202606422Y-99187587D01*
X202570458Y-99237087D01*
X202565749Y-99272860D01*
X196746136Y-99272860D01*
X196738648Y-99223352D01*
X196695687Y-99179786D01*
X196650127Y-99168680D01*
X195684240Y-99168680D01*
X195626049Y-99187587D01*
X195590085Y-99237087D01*
X195585240Y-99267680D01*
X195533240Y-99267680D01*
X195514333Y-99209489D01*
X195464833Y-99173525D01*
X195434240Y-99168680D01*
X194464614Y-99168680D01*
X194406423Y-99187587D01*
X194370459Y-99237087D01*
X194365750Y-99272860D01*
X192537296Y-99272860D01*
X192553124Y-99178779D01*
X192554489Y-99163564D01*
X192554640Y-99151210D01*
X192553647Y-99135965D01*
X192533323Y-98994047D01*
X192525445Y-98967106D01*
X192466106Y-98836596D01*
X192450983Y-98812949D01*
X192357399Y-98704340D01*
X192336247Y-98685888D01*
X192215942Y-98607910D01*
X192190461Y-98596136D01*
X192053105Y-98555058D01*
X192025344Y-98550909D01*
X192014870Y-98550845D01*
X192303937Y-98261778D01*
X192314035Y-98312545D01*
X192328818Y-98348233D01*
X192373133Y-98414554D01*
X192400446Y-98441867D01*
X192466767Y-98486182D01*
X192502455Y-98500965D01*
X192560938Y-98512598D01*
X192580252Y-98514500D01*
X194592314Y-98514500D01*
X194590094Y-98516599D01*
X194576235Y-98532883D01*
X194472428Y-98685629D01*
X194462389Y-98704510D01*
X194393804Y-98875984D01*
X194388053Y-98896581D01*
X194370682Y-99001511D01*
X194379832Y-99062008D01*
X194422793Y-99105574D01*
X194468353Y-99116680D01*
X195434240Y-99116680D01*
X195492431Y-99097773D01*
X195528395Y-99048273D01*
X195533240Y-99017680D01*
X195533240Y-98292680D01*
X195585240Y-98292680D01*
X195585240Y-99017680D01*
X195604147Y-99075871D01*
X195653647Y-99111835D01*
X195684240Y-99116680D01*
X196653866Y-99116680D01*
X196712057Y-99097773D01*
X196748021Y-99048273D01*
X196752730Y-99012500D01*
X196752154Y-99001511D01*
X202570681Y-99001511D01*
X202579831Y-99062008D01*
X202622792Y-99105574D01*
X202668352Y-99116680D01*
X203634239Y-99116680D01*
X203692430Y-99097773D01*
X203728394Y-99048273D01*
X203733239Y-99017680D01*
X203733239Y-98292680D01*
X203785239Y-98292680D01*
X203785239Y-99017680D01*
X203804146Y-99075871D01*
X203853646Y-99111835D01*
X203884239Y-99116680D01*
X204853865Y-99116680D01*
X204912056Y-99097773D01*
X204948020Y-99048273D01*
X204952729Y-99012500D01*
X204952116Y-99000800D01*
X204948698Y-98979690D01*
X204899655Y-98801639D01*
X204891783Y-98781757D01*
X204805650Y-98618391D01*
X204793692Y-98600663D01*
X204674488Y-98459604D01*
X204659002Y-98444857D01*
X204512288Y-98332686D01*
X204493997Y-98321608D01*
X204326619Y-98243559D01*
X204306376Y-98236668D01*
X204126142Y-98196381D01*
X204110073Y-98194151D01*
X204104404Y-98193834D01*
X204098877Y-98193680D01*
X203884239Y-98193680D01*
X203826048Y-98212587D01*
X203790084Y-98262087D01*
X203785239Y-98292680D01*
X203733239Y-98292680D01*
X203714332Y-98234489D01*
X203664832Y-98198525D01*
X203634239Y-98193680D01*
X203463102Y-98193680D01*
X203452410Y-98194259D01*
X203314946Y-98209192D01*
X203294061Y-98213784D01*
X203119025Y-98272690D01*
X203099613Y-98281660D01*
X202941311Y-98376778D01*
X202924278Y-98389706D01*
X202790093Y-98516599D01*
X202776234Y-98532883D01*
X202672427Y-98685629D01*
X202662388Y-98704510D01*
X202593803Y-98875984D01*
X202588052Y-98896581D01*
X202570681Y-99001511D01*
X196752154Y-99001511D01*
X196752117Y-99000800D01*
X196748699Y-98979690D01*
X196699656Y-98801639D01*
X196691784Y-98781757D01*
X196605651Y-98618391D01*
X196593693Y-98600663D01*
X196474489Y-98459604D01*
X196459003Y-98444857D01*
X196312289Y-98332686D01*
X196293998Y-98321608D01*
X196126620Y-98243559D01*
X196106377Y-98236668D01*
X195926143Y-98196381D01*
X195910074Y-98194151D01*
X195904405Y-98193834D01*
X195898878Y-98193680D01*
X195684240Y-98193680D01*
X195626049Y-98212587D01*
X195590085Y-98262087D01*
X195585240Y-98292680D01*
X195533240Y-98292680D01*
X195514333Y-98234489D01*
X195464833Y-98198525D01*
X195434240Y-98193680D01*
X195409500Y-98193680D01*
X195409500Y-97606659D01*
X197796227Y-97606659D01*
X197814816Y-97748815D01*
X197822364Y-97775851D01*
X197880104Y-97907075D01*
X197894937Y-97930905D01*
X197987187Y-98040650D01*
X198008112Y-98059359D01*
X198127455Y-98138801D01*
X198152791Y-98150886D01*
X198289635Y-98193638D01*
X198317342Y-98198125D01*
X198460684Y-98200753D01*
X198488539Y-98197284D01*
X198626857Y-98159574D01*
X198652618Y-98148426D01*
X198738356Y-98095783D01*
X198721570Y-98203593D01*
X198721227Y-98231659D01*
X198739816Y-98373815D01*
X198747364Y-98400851D01*
X198805104Y-98532075D01*
X198819937Y-98555905D01*
X198912187Y-98665650D01*
X198933112Y-98684359D01*
X199052455Y-98763801D01*
X199077791Y-98775886D01*
X199214635Y-98818638D01*
X199242342Y-98823125D01*
X199385684Y-98825753D01*
X199413539Y-98822284D01*
X199551857Y-98784574D01*
X199577618Y-98773426D01*
X199699792Y-98698411D01*
X199721389Y-98680481D01*
X199817598Y-98574190D01*
X199833294Y-98550920D01*
X199895804Y-98421899D01*
X199904338Y-98395158D01*
X199928124Y-98253779D01*
X199929489Y-98238564D01*
X199929640Y-98226210D01*
X199928647Y-98210965D01*
X199908323Y-98069047D01*
X199900445Y-98042106D01*
X199841106Y-97911596D01*
X199825983Y-97887949D01*
X199757041Y-97807938D01*
X199990963Y-97574016D01*
X200085684Y-97575753D01*
X200113539Y-97572284D01*
X200251857Y-97534574D01*
X200277618Y-97523426D01*
X200327105Y-97493041D01*
X200321570Y-97528593D01*
X200321227Y-97556659D01*
X200339816Y-97698815D01*
X200347364Y-97725851D01*
X200405104Y-97857075D01*
X200419937Y-97880905D01*
X200512187Y-97990650D01*
X200533112Y-98009359D01*
X200652455Y-98088801D01*
X200677791Y-98100886D01*
X200814635Y-98143638D01*
X200842342Y-98148125D01*
X200985684Y-98150753D01*
X201013539Y-98147284D01*
X201151857Y-98109574D01*
X201177618Y-98098426D01*
X201299792Y-98023411D01*
X201321389Y-98005481D01*
X201417598Y-97899190D01*
X201433294Y-97875920D01*
X201495804Y-97746899D01*
X201504338Y-97720158D01*
X201528124Y-97578779D01*
X201529489Y-97563564D01*
X201529640Y-97551210D01*
X201528647Y-97535965D01*
X201508323Y-97394047D01*
X201507213Y-97390252D01*
X206241500Y-97390252D01*
X206241500Y-99129748D01*
X206243402Y-99149062D01*
X206255035Y-99207545D01*
X206269818Y-99243233D01*
X206314133Y-99309554D01*
X206341446Y-99336867D01*
X206407767Y-99381182D01*
X206443455Y-99395965D01*
X206501938Y-99407598D01*
X206521252Y-99409500D01*
X208260748Y-99409500D01*
X208280062Y-99407598D01*
X208338545Y-99395965D01*
X208374233Y-99381182D01*
X208440554Y-99336867D01*
X208467867Y-99309554D01*
X208512182Y-99243233D01*
X208526965Y-99207545D01*
X208538598Y-99149062D01*
X208540500Y-99129748D01*
X208540500Y-98253546D01*
X208776867Y-98253546D01*
X208794106Y-98458837D01*
X208797594Y-98477841D01*
X208854379Y-98675874D01*
X208861492Y-98693839D01*
X208955660Y-98877071D01*
X208966126Y-98893312D01*
X209094091Y-99054764D01*
X209107513Y-99068662D01*
X209264400Y-99202183D01*
X209280266Y-99213210D01*
X209460100Y-99313716D01*
X209477805Y-99321452D01*
X209673736Y-99385114D01*
X209692607Y-99389263D01*
X209897172Y-99413655D01*
X209916489Y-99414059D01*
X210121895Y-99398254D01*
X210140923Y-99394899D01*
X210339348Y-99339498D01*
X210357362Y-99332511D01*
X210541247Y-99239624D01*
X210557560Y-99229271D01*
X210719901Y-99102437D01*
X210733894Y-99089112D01*
X210868507Y-98933160D01*
X210879644Y-98917372D01*
X210981403Y-98738244D01*
X210989262Y-98720593D01*
X211054290Y-98525112D01*
X211058570Y-98506271D01*
X211084390Y-98301882D01*
X211085161Y-98290858D01*
X211085573Y-98261384D01*
X211085111Y-98250339D01*
X211065008Y-98045309D01*
X211061255Y-98026356D01*
X211001710Y-97829135D01*
X210994347Y-97811272D01*
X210897630Y-97629372D01*
X210886937Y-97613278D01*
X210756730Y-97453629D01*
X210743116Y-97439919D01*
X210584380Y-97308601D01*
X210568362Y-97297797D01*
X210387142Y-97199812D01*
X210369330Y-97192324D01*
X210172529Y-97131404D01*
X210153602Y-97127519D01*
X209948717Y-97105985D01*
X209929397Y-97105850D01*
X209724231Y-97124521D01*
X209705251Y-97128142D01*
X209507620Y-97186308D01*
X209489705Y-97193546D01*
X209307135Y-97288992D01*
X209290968Y-97299571D01*
X209130413Y-97428660D01*
X209116609Y-97442179D01*
X208984186Y-97599994D01*
X208973270Y-97615936D01*
X208874022Y-97796468D01*
X208866410Y-97814227D01*
X208804118Y-98010597D01*
X208800101Y-98029497D01*
X208777137Y-98234227D01*
X208776867Y-98253546D01*
X208540500Y-98253546D01*
X208540500Y-97390252D01*
X208538598Y-97370938D01*
X208526965Y-97312455D01*
X208512182Y-97276767D01*
X208467867Y-97210446D01*
X208440554Y-97183133D01*
X208374233Y-97138818D01*
X208338545Y-97124035D01*
X208280062Y-97112402D01*
X208260748Y-97110500D01*
X206521252Y-97110500D01*
X206501938Y-97112402D01*
X206443455Y-97124035D01*
X206407767Y-97138818D01*
X206341446Y-97183133D01*
X206314133Y-97210446D01*
X206269818Y-97276767D01*
X206255035Y-97312455D01*
X206243402Y-97370938D01*
X206241500Y-97390252D01*
X201507213Y-97390252D01*
X201500445Y-97367106D01*
X201441106Y-97236596D01*
X201425983Y-97212949D01*
X201332399Y-97104340D01*
X201311247Y-97085888D01*
X201190942Y-97007910D01*
X201165461Y-96996136D01*
X201028105Y-96955058D01*
X201000344Y-96950909D01*
X200856981Y-96950033D01*
X200829171Y-96953842D01*
X200691324Y-96993239D01*
X200665701Y-97004701D01*
X200623488Y-97031335D01*
X200628124Y-97003779D01*
X200629489Y-96988564D01*
X200629640Y-96976210D01*
X200628647Y-96960965D01*
X200608323Y-96819047D01*
X200600445Y-96792106D01*
X200541106Y-96661596D01*
X200525983Y-96637949D01*
X200432399Y-96529340D01*
X200411247Y-96510888D01*
X200290942Y-96432910D01*
X200265461Y-96421136D01*
X200128105Y-96380058D01*
X200100344Y-96375909D01*
X199956981Y-96375033D01*
X199929171Y-96378842D01*
X199791324Y-96418239D01*
X199765701Y-96429701D01*
X199644452Y-96506203D01*
X199623076Y-96524396D01*
X199528173Y-96631854D01*
X199512763Y-96655314D01*
X199451833Y-96785089D01*
X199443626Y-96811933D01*
X199421570Y-96953593D01*
X199421227Y-96981660D01*
X199424943Y-97010078D01*
X199080345Y-97354676D01*
X199070151Y-97362247D01*
X199036527Y-97398494D01*
X199022748Y-97412273D01*
X199014190Y-97422572D01*
X198994018Y-97444318D01*
X198985330Y-97458061D01*
X198983323Y-97444047D01*
X198975445Y-97417106D01*
X198916106Y-97286596D01*
X198900983Y-97262949D01*
X198807399Y-97154340D01*
X198786247Y-97135888D01*
X198665942Y-97057910D01*
X198640461Y-97046136D01*
X198503105Y-97005058D01*
X198475344Y-97000909D01*
X198331981Y-97000033D01*
X198304171Y-97003842D01*
X198166324Y-97043239D01*
X198140701Y-97054701D01*
X198019452Y-97131203D01*
X197998076Y-97149396D01*
X197903173Y-97256854D01*
X197887763Y-97280314D01*
X197826833Y-97410089D01*
X197818626Y-97436933D01*
X197796570Y-97578593D01*
X197796227Y-97606659D01*
X195409500Y-97606659D01*
X195409500Y-97195252D01*
X195407598Y-97175938D01*
X195402773Y-97151680D01*
X195434240Y-97151680D01*
X195492431Y-97132773D01*
X195528395Y-97083273D01*
X195533240Y-97052680D01*
X195533240Y-96327680D01*
X195585240Y-96327680D01*
X195585240Y-97052680D01*
X195604147Y-97110871D01*
X195653647Y-97146835D01*
X195684240Y-97151680D01*
X195855377Y-97151680D01*
X195866069Y-97151101D01*
X196003533Y-97136168D01*
X196024418Y-97131576D01*
X196199454Y-97072670D01*
X196218866Y-97063700D01*
X196377168Y-96968582D01*
X196394201Y-96955654D01*
X196528386Y-96828761D01*
X196542245Y-96812477D01*
X196646052Y-96659731D01*
X196656091Y-96640850D01*
X196724676Y-96469376D01*
X196730427Y-96448779D01*
X196747798Y-96343849D01*
X196746136Y-96332860D01*
X202565749Y-96332860D01*
X202566362Y-96344560D01*
X202569780Y-96365670D01*
X202618823Y-96543721D01*
X202626695Y-96563603D01*
X202712828Y-96726969D01*
X202724786Y-96744697D01*
X202843990Y-96885756D01*
X202859476Y-96900503D01*
X203006190Y-97012674D01*
X203024481Y-97023752D01*
X203191859Y-97101801D01*
X203212102Y-97108692D01*
X203392336Y-97148979D01*
X203408405Y-97151209D01*
X203414074Y-97151526D01*
X203419601Y-97151680D01*
X203634239Y-97151680D01*
X203692430Y-97132773D01*
X203728394Y-97083273D01*
X203733239Y-97052680D01*
X203733239Y-96327680D01*
X203714332Y-96269489D01*
X203664832Y-96233525D01*
X203634239Y-96228680D01*
X202664613Y-96228680D01*
X202606422Y-96247587D01*
X202570458Y-96297087D01*
X202565749Y-96332860D01*
X196746136Y-96332860D01*
X196738648Y-96283352D01*
X196695687Y-96239786D01*
X196650127Y-96228680D01*
X195684240Y-96228680D01*
X195626049Y-96247587D01*
X195590085Y-96297087D01*
X195585240Y-96327680D01*
X195533240Y-96327680D01*
X195533240Y-95352680D01*
X195585240Y-95352680D01*
X195585240Y-96077680D01*
X195604147Y-96135871D01*
X195653647Y-96171835D01*
X195684240Y-96176680D01*
X196653866Y-96176680D01*
X196712057Y-96157773D01*
X196748021Y-96108273D01*
X196752730Y-96072500D01*
X196752154Y-96061511D01*
X202570681Y-96061511D01*
X202579831Y-96122008D01*
X202622792Y-96165574D01*
X202668352Y-96176680D01*
X203634239Y-96176680D01*
X203692430Y-96157773D01*
X203728394Y-96108273D01*
X203733239Y-96077680D01*
X203733239Y-95352680D01*
X203785239Y-95352680D01*
X203785239Y-97052680D01*
X203804146Y-97110871D01*
X203853646Y-97146835D01*
X203884239Y-97151680D01*
X204055376Y-97151680D01*
X204066068Y-97151101D01*
X204203532Y-97136168D01*
X204224417Y-97131576D01*
X204399453Y-97072670D01*
X204418865Y-97063700D01*
X204577167Y-96968582D01*
X204594200Y-96955654D01*
X204728385Y-96828761D01*
X204742244Y-96812477D01*
X204743793Y-96810197D01*
X204746427Y-96813330D01*
X204767352Y-96832039D01*
X204886695Y-96911481D01*
X204912031Y-96923566D01*
X205048875Y-96966318D01*
X205076582Y-96970805D01*
X205219924Y-96973433D01*
X205247779Y-96969964D01*
X205386097Y-96932254D01*
X205411858Y-96921106D01*
X205534032Y-96846091D01*
X205555629Y-96828161D01*
X205651838Y-96721870D01*
X205667534Y-96698600D01*
X205730044Y-96569579D01*
X205738578Y-96542838D01*
X205762364Y-96401459D01*
X205763729Y-96386244D01*
X205763880Y-96373890D01*
X205762887Y-96358645D01*
X205742563Y-96216727D01*
X205734685Y-96189786D01*
X205675346Y-96059276D01*
X205660223Y-96035629D01*
X205566639Y-95927020D01*
X205545487Y-95908568D01*
X205425182Y-95830590D01*
X205399701Y-95818816D01*
X205262345Y-95777738D01*
X205234584Y-95773589D01*
X205091221Y-95772713D01*
X205063411Y-95776522D01*
X204925564Y-95815919D01*
X204899941Y-95827381D01*
X204888132Y-95834832D01*
X204805650Y-95678391D01*
X204793692Y-95660663D01*
X204674488Y-95519604D01*
X204659002Y-95504857D01*
X204512288Y-95392686D01*
X204493997Y-95381608D01*
X204326619Y-95303559D01*
X204306376Y-95296668D01*
X204126142Y-95256381D01*
X204110073Y-95254151D01*
X204104404Y-95253834D01*
X204098877Y-95253680D01*
X203884239Y-95253680D01*
X203826048Y-95272587D01*
X203790084Y-95322087D01*
X203785239Y-95352680D01*
X203733239Y-95352680D01*
X203714332Y-95294489D01*
X203664832Y-95258525D01*
X203634239Y-95253680D01*
X203463102Y-95253680D01*
X203452410Y-95254259D01*
X203314946Y-95269192D01*
X203294061Y-95273784D01*
X203119025Y-95332690D01*
X203099613Y-95341660D01*
X202941311Y-95436778D01*
X202924278Y-95449706D01*
X202790093Y-95576599D01*
X202776234Y-95592883D01*
X202672427Y-95745629D01*
X202662388Y-95764510D01*
X202593803Y-95935984D01*
X202588052Y-95956581D01*
X202570681Y-96061511D01*
X196752154Y-96061511D01*
X196752117Y-96060800D01*
X196748699Y-96039690D01*
X196699656Y-95861639D01*
X196691784Y-95841757D01*
X196605651Y-95678391D01*
X196593693Y-95660663D01*
X196474489Y-95519604D01*
X196459003Y-95504857D01*
X196312289Y-95392686D01*
X196293998Y-95381608D01*
X196126620Y-95303559D01*
X196106377Y-95296668D01*
X195926143Y-95256381D01*
X195910074Y-95254151D01*
X195904405Y-95253834D01*
X195898878Y-95253680D01*
X195684240Y-95253680D01*
X195626049Y-95272587D01*
X195590085Y-95322087D01*
X195585240Y-95352680D01*
X195533240Y-95352680D01*
X195514333Y-95294489D01*
X195464833Y-95258525D01*
X195434240Y-95253680D01*
X195263103Y-95253680D01*
X195252411Y-95254259D01*
X195114947Y-95269192D01*
X195094062Y-95273784D01*
X194919026Y-95332690D01*
X194899614Y-95341660D01*
X194741312Y-95436778D01*
X194724279Y-95449706D01*
X194590094Y-95576599D01*
X194576235Y-95592883D01*
X194472428Y-95745629D01*
X194462389Y-95764510D01*
X194433740Y-95836137D01*
X194425182Y-95830590D01*
X194399701Y-95818816D01*
X194262345Y-95777738D01*
X194234584Y-95773589D01*
X194091221Y-95772713D01*
X194063411Y-95776522D01*
X193925564Y-95815919D01*
X193899941Y-95827381D01*
X193778692Y-95903883D01*
X193757316Y-95922076D01*
X193662413Y-96029534D01*
X193647003Y-96052994D01*
X193586073Y-96182769D01*
X193577866Y-96209613D01*
X193555810Y-96351273D01*
X193555467Y-96379339D01*
X193574056Y-96521495D01*
X193581604Y-96548531D01*
X193639344Y-96679755D01*
X193654177Y-96703585D01*
X193746427Y-96813330D01*
X193767352Y-96832039D01*
X193886695Y-96911481D01*
X193895121Y-96915500D01*
X192580252Y-96915500D01*
X192560938Y-96917402D01*
X192502455Y-96929035D01*
X192466767Y-96943818D01*
X192400446Y-96988133D01*
X192373133Y-97015446D01*
X192328818Y-97081767D01*
X192314035Y-97117455D01*
X192302402Y-97175938D01*
X192300500Y-97195252D01*
X192300500Y-97314627D01*
X192277245Y-97315500D01*
X192257788Y-97315500D01*
X192244457Y-97316731D01*
X192214814Y-97317844D01*
X192179449Y-97325813D01*
X192168871Y-97330358D01*
X192157556Y-97332465D01*
X192123736Y-97345515D01*
X192101064Y-97359490D01*
X192076593Y-97370004D01*
X192052847Y-97384454D01*
X192047960Y-97388467D01*
X192040783Y-97394973D01*
X192036417Y-97399339D01*
X192028440Y-97404256D01*
X192001584Y-97428608D01*
X191983925Y-97451831D01*
X190964330Y-98471427D01*
X190948823Y-98363147D01*
X190940945Y-98336206D01*
X190881606Y-98205696D01*
X190866483Y-98182049D01*
X190772899Y-98073440D01*
X190751747Y-98054988D01*
X190631442Y-97977010D01*
X190605961Y-97965236D01*
X190468605Y-97924158D01*
X190440844Y-97920009D01*
X190297481Y-97919133D01*
X190269671Y-97922942D01*
X190131824Y-97962339D01*
X190106201Y-97973801D01*
X189984952Y-98050303D01*
X189963576Y-98068495D01*
X189918442Y-98119600D01*
X189913288Y-98119600D01*
X189899957Y-98120831D01*
X189870314Y-98121944D01*
X189834949Y-98129913D01*
X189824371Y-98134458D01*
X189813056Y-98136565D01*
X189779236Y-98149615D01*
X189756564Y-98163590D01*
X189732093Y-98174104D01*
X189708347Y-98188554D01*
X189703460Y-98192567D01*
X189696283Y-98199073D01*
X189691917Y-98203439D01*
X189683940Y-98208356D01*
X189657084Y-98232708D01*
X189639425Y-98255931D01*
X188418519Y-99476837D01*
X188482323Y-98994970D01*
X188609145Y-98333344D01*
X188773935Y-97680162D01*
X188911668Y-97242478D01*
X189703376Y-97242478D01*
X189703376Y-97268322D01*
X189722378Y-97412658D01*
X189729067Y-97437622D01*
X189784779Y-97572121D01*
X189797701Y-97594502D01*
X189886325Y-97710000D01*
X189904600Y-97728275D01*
X190020097Y-97816899D01*
X190042478Y-97829821D01*
X190176978Y-97885533D01*
X190201942Y-97892222D01*
X190346278Y-97911224D01*
X190372122Y-97911224D01*
X190516458Y-97892222D01*
X190541422Y-97885533D01*
X190675922Y-97829821D01*
X190698303Y-97816899D01*
X190813800Y-97728275D01*
X190832075Y-97710000D01*
X190920699Y-97594502D01*
X190933621Y-97572121D01*
X190989333Y-97437622D01*
X190996022Y-97412658D01*
X191015024Y-97268322D01*
X191015024Y-97242478D01*
X190996022Y-97098142D01*
X190989333Y-97073178D01*
X190933621Y-96938679D01*
X190920699Y-96916298D01*
X190832075Y-96800800D01*
X190813800Y-96782525D01*
X190698303Y-96693901D01*
X190675922Y-96680979D01*
X190541422Y-96625267D01*
X190516458Y-96618578D01*
X190372122Y-96599576D01*
X190346278Y-96599576D01*
X190201942Y-96618578D01*
X190176978Y-96625267D01*
X190042479Y-96680979D01*
X190020098Y-96693901D01*
X189904600Y-96782525D01*
X189886325Y-96800800D01*
X189797701Y-96916298D01*
X189784779Y-96938679D01*
X189729067Y-97073178D01*
X189722378Y-97098142D01*
X189703376Y-97242478D01*
X188911668Y-97242478D01*
X188976154Y-97037555D01*
X189215116Y-96407705D01*
X189490027Y-95792702D01*
X189799977Y-95194579D01*
X190143934Y-94615335D01*
X190520742Y-94056914D01*
X190651750Y-93885059D01*
X191155627Y-93885059D01*
X191174216Y-94027215D01*
X191181764Y-94054251D01*
X191239504Y-94185475D01*
X191254337Y-94209305D01*
X191346587Y-94319050D01*
X191367512Y-94337759D01*
X191486855Y-94417201D01*
X191512191Y-94429286D01*
X191649035Y-94472038D01*
X191676742Y-94476525D01*
X191820084Y-94479153D01*
X191847939Y-94475684D01*
X191986257Y-94437974D01*
X192012018Y-94426826D01*
X192134192Y-94351811D01*
X192155789Y-94333881D01*
X192251998Y-94227590D01*
X192267694Y-94204320D01*
X192330204Y-94075299D01*
X192338738Y-94048558D01*
X192362524Y-93907179D01*
X192363889Y-93891964D01*
X192364040Y-93879610D01*
X192363047Y-93864365D01*
X192342723Y-93722447D01*
X192334845Y-93695506D01*
X192275506Y-93564996D01*
X192260383Y-93541349D01*
X192166799Y-93432740D01*
X192145647Y-93414288D01*
X192025342Y-93336310D01*
X191999861Y-93324536D01*
X191862505Y-93283458D01*
X191834744Y-93279309D01*
X191691381Y-93278433D01*
X191663571Y-93282242D01*
X191525724Y-93321639D01*
X191500101Y-93333101D01*
X191378852Y-93409603D01*
X191357476Y-93427796D01*
X191262573Y-93535254D01*
X191247163Y-93558714D01*
X191186233Y-93688489D01*
X191178026Y-93715333D01*
X191155970Y-93856993D01*
X191155627Y-93885059D01*
X190651750Y-93885059D01*
X190929144Y-93521176D01*
X191174613Y-93235060D01*
X194472626Y-93235060D01*
X194491215Y-93377216D01*
X194498763Y-93404252D01*
X194556503Y-93535476D01*
X194571336Y-93559306D01*
X194663586Y-93669051D01*
X194684511Y-93687760D01*
X194803854Y-93767202D01*
X194829190Y-93779287D01*
X194966034Y-93822039D01*
X194993741Y-93826526D01*
X195137083Y-93829154D01*
X195164938Y-93825685D01*
X195303256Y-93787975D01*
X195329017Y-93776827D01*
X195451191Y-93701812D01*
X195472788Y-93683882D01*
X195568997Y-93577591D01*
X195584693Y-93554321D01*
X195647203Y-93425300D01*
X195655737Y-93398559D01*
X195679523Y-93257180D01*
X195680888Y-93241965D01*
X195681039Y-93229611D01*
X195680046Y-93214366D01*
X195659722Y-93072448D01*
X195651844Y-93045507D01*
X195592505Y-92914997D01*
X195577382Y-92891350D01*
X195483798Y-92782741D01*
X195462646Y-92764289D01*
X195342341Y-92686311D01*
X195316860Y-92674537D01*
X195179504Y-92633459D01*
X195151743Y-92629310D01*
X195008380Y-92628434D01*
X194980570Y-92632243D01*
X194842723Y-92671640D01*
X194817100Y-92683102D01*
X194695851Y-92759604D01*
X194674475Y-92777797D01*
X194579572Y-92885255D01*
X194564162Y-92908715D01*
X194503232Y-93038490D01*
X194495025Y-93065334D01*
X194472969Y-93206994D01*
X194472626Y-93235060D01*
X191174613Y-93235060D01*
X191367794Y-93009890D01*
X191835218Y-92524772D01*
X192329844Y-92067454D01*
X192850056Y-91639430D01*
X193394099Y-91242144D01*
X193960161Y-90876921D01*
X194546373Y-90544964D01*
X195150738Y-90247406D01*
X195771280Y-89985218D01*
X196405924Y-89759279D01*
X196673854Y-89680993D01*
X196650548Y-91938166D01*
X196647539Y-91951349D01*
X196645057Y-91973516D01*
X196645058Y-91974232D01*
X196645982Y-91982261D01*
X196645801Y-91982271D01*
X196665498Y-92325397D01*
X196666684Y-92336010D01*
X196723639Y-92677492D01*
X196725961Y-92687916D01*
X196819367Y-93021277D01*
X196822799Y-93031389D01*
X196951568Y-93352749D01*
X196956069Y-93362433D01*
X197118704Y-93668054D01*
X197124222Y-93677198D01*
X197318831Y-93963522D01*
X197325302Y-93972017D01*
X197549619Y-94235714D01*
X197556967Y-94243463D01*
X197808382Y-94481463D01*
X197816522Y-94488376D01*
X198092111Y-94697911D01*
X198100948Y-94703906D01*
X198397503Y-94882538D01*
X198406935Y-94887547D01*
X198721006Y-95033196D01*
X198730922Y-95037160D01*
X199058853Y-95148132D01*
X199069139Y-95151005D01*
X199407116Y-95226009D01*
X199417651Y-95227757D01*
X199761741Y-95265920D01*
X199772403Y-95266523D01*
X200118601Y-95267401D01*
X200129266Y-95266852D01*
X200473545Y-95230435D01*
X200484089Y-95228740D01*
X200822442Y-95155451D01*
X200832742Y-95152631D01*
X201161232Y-95043323D01*
X201171168Y-95039410D01*
X201485974Y-94895356D01*
X201495431Y-94890395D01*
X201792888Y-94713270D01*
X201801756Y-94707319D01*
X202078404Y-94499184D01*
X202086579Y-94492313D01*
X202339198Y-94255591D01*
X202346585Y-94247879D01*
X202572237Y-93985323D01*
X202578751Y-93976860D01*
X202774809Y-93691527D01*
X202780373Y-93682412D01*
X202944556Y-93377620D01*
X202949106Y-93367959D01*
X203079504Y-93047256D01*
X203082987Y-93037161D01*
X203178082Y-92704278D01*
X203180457Y-92693866D01*
X203239142Y-92352677D01*
X203240382Y-92342070D01*
X203261764Y-91999929D01*
X203261621Y-91999920D01*
X203262594Y-91992057D01*
X203262601Y-91991341D01*
X203260309Y-91969172D01*
X203257969Y-91958499D01*
X203293195Y-89671121D01*
X203572281Y-89752058D01*
G37*
G04 #@! TD.AperFunction*
M02*
