M48
; DRILL file {KiCad (5.99.0-11526-gd613292b67)} date Mon Jul 26 19:59:39 2021
; FORMAT={-:-/ absolute / inch / decimal}
; #@! TF.CreationDate,2021-07-26T19:59:39-04:00
; #@! TF.GenerationSoftware,Kicad,Pcbnew,(5.99.0-11526-gd613292b67)
; #@! TF.FileFunction,MixedPlating,1,4
FMAT,2
INCH
; #@! TA.AperFunction,Plated,PTH,ComponentDrill
T1C0.0079
; #@! TA.AperFunction,Plated,PTH,ViaDrill
T2C0.0118
; #@! TA.AperFunction,Plated,PTH,ComponentDrill
T3C0.0118
; #@! TA.AperFunction,Plated,PTH,ComponentDrill
T4C0.0315
; #@! TA.AperFunction,Plated,PTH,ComponentDrill
T5C0.0394
; #@! TA.AperFunction,NonPlated,NPTH,ComponentDrill
T6C0.0236
%
G90
G05
T1
X7.6145Y-4.1247
X7.6423Y-4.0968
X7.6423Y-4.1525
X7.6702Y-4.069
X7.6702Y-4.1247
X7.6702Y-4.1804
X7.698Y-4.0968
X7.698Y-4.1525
X7.7258Y-4.1247
T2
X7.4945Y-3.979
X7.4947Y-3.8787
X7.5246Y-3.9065
X7.5496Y-3.696
X7.5571Y-3.9035
X7.5768Y-3.937
X7.611Y-3.7145
X7.6114Y-3.6795
X7.6326Y-3.6414
X7.6585Y-4.3031
X7.6802Y-3.6704
X7.7146Y-3.9802
X7.7302Y-3.7074
X7.752Y-4.3858
X7.788Y-4.291
X7.811Y-3.8425
X7.8287Y-3.9793
X7.8455Y-4.0177
X7.8474Y-3.8671
X7.8504Y-4.2156
X7.8692Y-3.9584
X7.875Y-3.8179
X7.8829Y-3.9892
X7.8996Y-4.2352
X7.9055Y-4.2864
X7.9104Y-3.8406
X7.9537Y-4.2598
X7.9657Y-4.1461
X8.0084Y-4.1831
X8.0084Y-4.2166
X8.0354Y-4.3268
X8.0407Y-4.1832
X8.0409Y-3.5697
X8.0419Y-4.2166
X8.0876Y-4.1575
X8.1181Y-4.1575
X8.1211Y-4.251
X8.1464Y-3.7272
X8.198Y-3.7898
T3
X7.4945Y-3.829
X7.4945Y-4.079
T5
X8.165Y-3.8685
X8.165Y-3.9685
X8.165Y-4.0685
X8.265Y-3.8685
X8.265Y-3.9685
X8.265Y-4.0685
T6
X7.6441Y-3.7942
X8.0771Y-3.7942
T4
G00X7.6893Y-3.7875
M15
G01X7.709Y-3.7875
M16
G05
G00X7.6893Y-3.9033
M15
G01X7.709Y-3.9033
M16
G05
G00X8.0122Y-3.7875
M15
G01X8.0319Y-3.7875
M16
G05
G00X8.0122Y-3.9033
M15
G01X8.0319Y-3.9033
M16
G05
T0
M30
