G04 #@! TF.GenerationSoftware,KiCad,Pcbnew,(5.99.0-11526-gd613292b67)*
G04 #@! TF.CreationDate,2021-07-26T19:59:08-04:00*
G04 #@! TF.ProjectId,bias,62696173-2e6b-4696-9361-645f70636258,rev?*
G04 #@! TF.SameCoordinates,Original*
G04 #@! TF.FileFunction,Legend,Top*
G04 #@! TF.FilePolarity,Positive*
%FSLAX46Y46*%
G04 Gerber Fmt 4.6, Leading zero omitted, Abs format (unit mm)*
G04 Created by KiCad (PCBNEW (5.99.0-11526-gd613292b67)) date 2021-07-26 19:59:08*
%MOMM*%
%LPD*%
G01*
G04 APERTURE LIST*
G04 Aperture macros list*
%AMRoundRect*
0 Rectangle with rounded corners*
0 $1 Rounding radius*
0 $2 $3 $4 $5 $6 $7 $8 $9 X,Y pos of 4 corners*
0 Add a 4 corners polygon primitive as box body*
4,1,4,$2,$3,$4,$5,$6,$7,$8,$9,$2,$3,0*
0 Add four circle primitives for the rounded corners*
1,1,$1+$1,$2,$3*
1,1,$1+$1,$4,$5*
1,1,$1+$1,$6,$7*
1,1,$1+$1,$8,$9*
0 Add four rect primitives between the rounded corners*
20,1,$1+$1,$2,$3,$4,$5,0*
20,1,$1+$1,$4,$5,$6,$7,0*
20,1,$1+$1,$6,$7,$8,$9,0*
20,1,$1+$1,$8,$9,$2,$3,0*%
%AMRotRect*
0 Rectangle, with rotation*
0 The origin of the aperture is its center*
0 $1 length*
0 $2 width*
0 $3 Rotation angle, in degrees counterclockwise*
0 Add horizontal line*
21,1,$1,$2,0,0,$3*%
G04 Aperture macros list end*
%ADD10C,0.120000*%
%ADD11C,0.100000*%
%ADD12C,0.150000*%
%ADD13C,0.200000*%
%ADD14C,0.127000*%
%ADD15C,0.250000*%
%ADD16C,0.152400*%
%ADD17RoundRect,0.147500X-0.172500X0.147500X-0.172500X-0.147500X0.172500X-0.147500X0.172500X0.147500X0*%
%ADD18RoundRect,0.147500X0.172500X-0.147500X0.172500X0.147500X-0.172500X0.147500X-0.172500X-0.147500X0*%
%ADD19RoundRect,0.147500X-0.147500X-0.172500X0.147500X-0.172500X0.147500X0.172500X-0.147500X0.172500X0*%
%ADD20RoundRect,0.147500X0.147500X0.172500X-0.147500X0.172500X-0.147500X-0.172500X0.147500X-0.172500X0*%
%ADD21C,0.704800*%
%ADD22R,0.700000X0.700000*%
%ADD23R,0.850000X0.300000*%
%ADD24R,0.300000X0.850000*%
%ADD25R,1.550000X1.550000*%
%ADD26RoundRect,0.218750X-0.256250X0.218750X-0.256250X-0.218750X0.256250X-0.218750X0.256250X0.218750X0*%
%ADD27RoundRect,0.070000X-0.399515X-0.201525X-0.201525X-0.399515X0.399515X0.201525X0.201525X0.399515X0*%
%ADD28RoundRect,0.070000X-0.399515X0.201525X0.201525X-0.399515X0.399515X-0.201525X-0.201525X0.399515X0*%
%ADD29C,0.400000*%
%ADD30RotRect,3.200000X3.200000X315.000000*%
%ADD31R,1.400000X0.300000*%
%ADD32RoundRect,0.250000X0.494975X-1.025305X1.025305X-0.494975X-0.494975X1.025305X-1.025305X0.494975X0*%
%ADD33C,0.600000*%
%ADD34R,0.270000X1.150000*%
%ADD35O,1.700000X1.200000*%
%ADD36R,0.729800X0.248400*%
%ADD37R,0.800000X1.600000*%
%ADD38R,1.700000X1.700000*%
%ADD39O,1.700000X1.700000*%
%ADD40RoundRect,0.218750X0.026517X-0.335876X0.335876X-0.026517X-0.026517X0.335876X-0.335876X0.026517X0*%
%ADD41RoundRect,0.147500X-0.017678X0.226274X-0.226274X0.017678X0.017678X-0.226274X0.226274X-0.017678X0*%
G04 APERTURE END LIST*
D10*
X199670774Y-109800000D02*
G75*
G03*
X199670774Y-109800000I-145774J0D01*
G01*
X200250000Y-95025000D02*
X200550000Y-95025000D01*
X198750000Y-100125000D02*
X199000000Y-100125000D01*
X191185078Y-105275000D02*
G75*
G03*
X191185078Y-105275000I-160078J0D01*
G01*
X197250000Y-95025000D02*
X198050000Y-95025000D01*
X192635078Y-92450000D02*
G75*
G03*
X192635078Y-92450000I-160078J0D01*
G01*
X197200000Y-100100000D02*
X198000000Y-100100000D01*
X203010749Y-89407366D02*
G75*
G02*
X196980000Y-89410000I-3010351J-11503331D01*
G01*
X201275000Y-95025000D02*
X202050000Y-95025000D01*
X201300000Y-100125000D02*
X202000000Y-100125000D01*
D11*
X206924400Y-93800628D02*
X207067257Y-94200628D01*
X207210114Y-93800628D01*
X207752971Y-94200628D02*
X207410114Y-94200628D01*
X207581542Y-94200628D02*
X207581542Y-93600628D01*
X207524400Y-93686342D01*
X207467257Y-93743485D01*
X207410114Y-93772057D01*
X207981542Y-93657771D02*
X208010114Y-93629200D01*
X208067257Y-93600628D01*
X208210114Y-93600628D01*
X208267257Y-93629200D01*
X208295828Y-93657771D01*
X208324400Y-93714914D01*
X208324400Y-93772057D01*
X208295828Y-93857771D01*
X207952971Y-94200628D01*
X208324400Y-94200628D01*
X208695828Y-93600628D02*
X208752971Y-93600628D01*
X208810114Y-93629200D01*
X208838685Y-93657771D01*
X208867257Y-93714914D01*
X208895828Y-93829200D01*
X208895828Y-93972057D01*
X208867257Y-94086342D01*
X208838685Y-94143485D01*
X208810114Y-94172057D01*
X208752971Y-94200628D01*
X208695828Y-94200628D01*
X208638685Y-94172057D01*
X208610114Y-94143485D01*
X208581542Y-94086342D01*
X208552971Y-93972057D01*
X208552971Y-93829200D01*
X208581542Y-93714914D01*
X208610114Y-93657771D01*
X208638685Y-93629200D01*
X208695828Y-93600628D01*
D12*
X206585714Y-102057142D02*
X206671428Y-102085714D01*
X206700000Y-102114285D01*
X206728571Y-102171428D01*
X206728571Y-102257142D01*
X206700000Y-102314285D01*
X206671428Y-102342857D01*
X206614285Y-102371428D01*
X206385714Y-102371428D01*
X206385714Y-101771428D01*
X206585714Y-101771428D01*
X206642857Y-101800000D01*
X206671428Y-101828571D01*
X206700000Y-101885714D01*
X206700000Y-101942857D01*
X206671428Y-102000000D01*
X206642857Y-102028571D01*
X206585714Y-102057142D01*
X206385714Y-102057142D01*
X206985714Y-102371428D02*
X206985714Y-101971428D01*
X206985714Y-101771428D02*
X206957142Y-101800000D01*
X206985714Y-101828571D01*
X207014285Y-101800000D01*
X206985714Y-101771428D01*
X206985714Y-101828571D01*
X207528571Y-102371428D02*
X207528571Y-102057142D01*
X207500000Y-102000000D01*
X207442857Y-101971428D01*
X207328571Y-101971428D01*
X207271428Y-102000000D01*
X207528571Y-102342857D02*
X207471428Y-102371428D01*
X207328571Y-102371428D01*
X207271428Y-102342857D01*
X207242857Y-102285714D01*
X207242857Y-102228571D01*
X207271428Y-102171428D01*
X207328571Y-102142857D01*
X207471428Y-102142857D01*
X207528571Y-102114285D01*
X207785714Y-102342857D02*
X207842857Y-102371428D01*
X207957142Y-102371428D01*
X208014285Y-102342857D01*
X208042857Y-102285714D01*
X208042857Y-102257142D01*
X208014285Y-102200000D01*
X207957142Y-102171428D01*
X207871428Y-102171428D01*
X207814285Y-102142857D01*
X207785714Y-102085714D01*
X207785714Y-102057142D01*
X207814285Y-102000000D01*
X207871428Y-101971428D01*
X207957142Y-101971428D01*
X208014285Y-102000000D01*
X209342857Y-101900000D02*
X209285714Y-101871428D01*
X209200000Y-101871428D01*
X209114285Y-101900000D01*
X209057142Y-101957142D01*
X209028571Y-102014285D01*
X209000000Y-102128571D01*
X209000000Y-102214285D01*
X209028571Y-102328571D01*
X209057142Y-102385714D01*
X209114285Y-102442857D01*
X209200000Y-102471428D01*
X209257142Y-102471428D01*
X209342857Y-102442857D01*
X209371428Y-102414285D01*
X209371428Y-102214285D01*
X209257142Y-102214285D01*
X209628571Y-102471428D02*
X209628571Y-101871428D01*
X209971428Y-102471428D01*
X209971428Y-101871428D01*
X210257142Y-102471428D02*
X210257142Y-101871428D01*
X210400000Y-101871428D01*
X210485714Y-101900000D01*
X210542857Y-101957142D01*
X210571428Y-102014285D01*
X210600000Y-102128571D01*
X210600000Y-102214285D01*
X210571428Y-102328571D01*
X210542857Y-102385714D01*
X210485714Y-102442857D01*
X210400000Y-102471428D01*
X210257142Y-102471428D01*
X206000000Y-99717857D02*
X206457142Y-99717857D01*
X206228571Y-99946428D02*
X206228571Y-99489285D01*
X206685714Y-99346428D02*
X207057142Y-99346428D01*
X206857142Y-99575000D01*
X206942857Y-99575000D01*
X207000000Y-99603571D01*
X207028571Y-99632142D01*
X207057142Y-99689285D01*
X207057142Y-99832142D01*
X207028571Y-99889285D01*
X207000000Y-99917857D01*
X206942857Y-99946428D01*
X206771428Y-99946428D01*
X206714285Y-99917857D01*
X206685714Y-99889285D01*
X207314285Y-99889285D02*
X207342857Y-99917857D01*
X207314285Y-99946428D01*
X207285714Y-99917857D01*
X207314285Y-99889285D01*
X207314285Y-99946428D01*
X207542857Y-99346428D02*
X207914285Y-99346428D01*
X207714285Y-99575000D01*
X207800000Y-99575000D01*
X207857142Y-99603571D01*
X207885714Y-99632142D01*
X207914285Y-99689285D01*
X207914285Y-99832142D01*
X207885714Y-99889285D01*
X207857142Y-99917857D01*
X207800000Y-99946428D01*
X207628571Y-99946428D01*
X207571428Y-99917857D01*
X207542857Y-99889285D01*
X208085714Y-99346428D02*
X208285714Y-99946428D01*
X208485714Y-99346428D01*
X208100000Y-95792857D02*
X208557142Y-95792857D01*
X209100000Y-95621428D02*
X209100000Y-96021428D01*
X208957142Y-95392857D02*
X208814285Y-95821428D01*
X209185714Y-95821428D01*
X209414285Y-95964285D02*
X209442857Y-95992857D01*
X209414285Y-96021428D01*
X209385714Y-95992857D01*
X209414285Y-95964285D01*
X209414285Y-96021428D01*
X209985714Y-95421428D02*
X209700000Y-95421428D01*
X209671428Y-95707142D01*
X209700000Y-95678571D01*
X209757142Y-95650000D01*
X209900000Y-95650000D01*
X209957142Y-95678571D01*
X209985714Y-95707142D01*
X210014285Y-95764285D01*
X210014285Y-95907142D01*
X209985714Y-95964285D01*
X209957142Y-95992857D01*
X209900000Y-96021428D01*
X209757142Y-96021428D01*
X209700000Y-95992857D01*
X209671428Y-95964285D01*
X210185714Y-95421428D02*
X210385714Y-96021428D01*
X210585714Y-95421428D01*
D13*
X203433561Y-92538361D02*
X203576419Y-92585980D01*
X203814514Y-92585980D01*
X203909752Y-92538361D01*
X203957371Y-92490742D01*
X204004990Y-92395504D01*
X204004990Y-92300266D01*
X203957371Y-92205028D01*
X203909752Y-92157409D01*
X203814514Y-92109790D01*
X203624038Y-92062171D01*
X203528800Y-92014552D01*
X203481180Y-91966933D01*
X203433561Y-91871695D01*
X203433561Y-91776457D01*
X203481180Y-91681219D01*
X203528800Y-91633600D01*
X203624038Y-91585980D01*
X203862133Y-91585980D01*
X204004990Y-91633600D01*
X204433561Y-92585980D02*
X204433561Y-91919314D01*
X204433561Y-91585980D02*
X204385942Y-91633600D01*
X204433561Y-91681219D01*
X204481180Y-91633600D01*
X204433561Y-91585980D01*
X204433561Y-91681219D01*
X204909752Y-92585980D02*
X204909752Y-91585980D01*
X205290704Y-91585980D01*
X205385942Y-91633600D01*
X205433561Y-91681219D01*
X205481180Y-91776457D01*
X205481180Y-91919314D01*
X205433561Y-92014552D01*
X205385942Y-92062171D01*
X205290704Y-92109790D01*
X204909752Y-92109790D01*
X205909752Y-92585980D02*
X205909752Y-91585980D01*
X206243085Y-92300266D01*
X206576419Y-91585980D01*
X206576419Y-92585980D01*
X204004990Y-93672171D02*
X204147847Y-93719790D01*
X204195466Y-93767409D01*
X204243085Y-93862647D01*
X204243085Y-94005504D01*
X204195466Y-94100742D01*
X204147847Y-94148361D01*
X204052609Y-94195980D01*
X203671657Y-94195980D01*
X203671657Y-93195980D01*
X204004990Y-93195980D01*
X204100228Y-93243600D01*
X204147847Y-93291219D01*
X204195466Y-93386457D01*
X204195466Y-93481695D01*
X204147847Y-93576933D01*
X204100228Y-93624552D01*
X204004990Y-93672171D01*
X203671657Y-93672171D01*
X204671657Y-94195980D02*
X204671657Y-93529314D01*
X204671657Y-93195980D02*
X204624038Y-93243600D01*
X204671657Y-93291219D01*
X204719276Y-93243600D01*
X204671657Y-93195980D01*
X204671657Y-93291219D01*
X205576419Y-94195980D02*
X205576419Y-93672171D01*
X205528800Y-93576933D01*
X205433561Y-93529314D01*
X205243085Y-93529314D01*
X205147847Y-93576933D01*
X205576419Y-94148361D02*
X205481180Y-94195980D01*
X205243085Y-94195980D01*
X205147847Y-94148361D01*
X205100228Y-94053123D01*
X205100228Y-93957885D01*
X205147847Y-93862647D01*
X205243085Y-93815028D01*
X205481180Y-93815028D01*
X205576419Y-93767409D01*
X206004990Y-94148361D02*
X206100228Y-94195980D01*
X206290704Y-94195980D01*
X206385942Y-94148361D01*
X206433561Y-94053123D01*
X206433561Y-94005504D01*
X206385942Y-93910266D01*
X206290704Y-93862647D01*
X206147847Y-93862647D01*
X206052609Y-93815028D01*
X206004990Y-93719790D01*
X206004990Y-93672171D01*
X206052609Y-93576933D01*
X206147847Y-93529314D01*
X206290704Y-93529314D01*
X206385942Y-93576933D01*
D12*
X189132142Y-103325000D02*
X189075000Y-103296428D01*
X188989285Y-103296428D01*
X188903571Y-103325000D01*
X188846428Y-103382142D01*
X188817857Y-103439285D01*
X188789285Y-103553571D01*
X188789285Y-103639285D01*
X188817857Y-103753571D01*
X188846428Y-103810714D01*
X188903571Y-103867857D01*
X188989285Y-103896428D01*
X189046428Y-103896428D01*
X189132142Y-103867857D01*
X189160714Y-103839285D01*
X189160714Y-103639285D01*
X189046428Y-103639285D01*
D14*
X189237257Y-100119542D02*
X189200971Y-100155828D01*
X189092114Y-100192114D01*
X189019542Y-100192114D01*
X188910685Y-100155828D01*
X188838114Y-100083257D01*
X188801828Y-100010685D01*
X188765542Y-99865542D01*
X188765542Y-99756685D01*
X188801828Y-99611542D01*
X188838114Y-99538971D01*
X188910685Y-99466400D01*
X189019542Y-99430114D01*
X189092114Y-99430114D01*
X189200971Y-99466400D01*
X189237257Y-99502685D01*
X188827228Y-101487514D02*
X188827228Y-100725514D01*
X189008657Y-100725514D01*
X189117514Y-100761800D01*
X189190085Y-100834371D01*
X189226371Y-100906942D01*
X189262657Y-101052085D01*
X189262657Y-101160942D01*
X189226371Y-101306085D01*
X189190085Y-101378657D01*
X189117514Y-101451228D01*
X189008657Y-101487514D01*
X188827228Y-101487514D01*
D12*
X208828571Y-99271428D02*
X208942857Y-99271428D01*
X209000000Y-99300000D01*
X209057142Y-99357142D01*
X209085714Y-99471428D01*
X209085714Y-99671428D01*
X209057142Y-99785714D01*
X209000000Y-99842857D01*
X208942857Y-99871428D01*
X208828571Y-99871428D01*
X208771428Y-99842857D01*
X208714285Y-99785714D01*
X208685714Y-99671428D01*
X208685714Y-99471428D01*
X208714285Y-99357142D01*
X208771428Y-99300000D01*
X208828571Y-99271428D01*
X209257142Y-99471428D02*
X209485714Y-99471428D01*
X209342857Y-99871428D02*
X209342857Y-99357142D01*
X209371428Y-99300000D01*
X209428571Y-99271428D01*
X209485714Y-99271428D01*
X209600000Y-99471428D02*
X209828571Y-99471428D01*
X209685714Y-99871428D02*
X209685714Y-99357142D01*
X209714285Y-99300000D01*
X209771428Y-99271428D01*
X209828571Y-99271428D01*
X210000000Y-99842857D02*
X210057142Y-99871428D01*
X210171428Y-99871428D01*
X210228571Y-99842857D01*
X210257142Y-99785714D01*
X210257142Y-99757142D01*
X210228571Y-99700000D01*
X210171428Y-99671428D01*
X210085714Y-99671428D01*
X210028571Y-99642857D01*
X210000000Y-99585714D01*
X210000000Y-99557142D01*
X210028571Y-99500000D01*
X210085714Y-99471428D01*
X210171428Y-99471428D01*
X210228571Y-99500000D01*
X210742857Y-99842857D02*
X210685714Y-99871428D01*
X210571428Y-99871428D01*
X210514285Y-99842857D01*
X210485714Y-99785714D01*
X210485714Y-99557142D01*
X210514285Y-99500000D01*
X210571428Y-99471428D01*
X210685714Y-99471428D01*
X210742857Y-99500000D01*
X210771428Y-99557142D01*
X210771428Y-99614285D01*
X210485714Y-99671428D01*
X210942857Y-99471428D02*
X211171428Y-99471428D01*
X211028571Y-99271428D02*
X211028571Y-99785714D01*
X211057142Y-99842857D01*
X211114285Y-99871428D01*
X211171428Y-99871428D01*
D14*
X189262657Y-98922114D02*
X189008657Y-98559257D01*
X188827228Y-98922114D02*
X188827228Y-98160114D01*
X189117514Y-98160114D01*
X189190085Y-98196400D01*
X189226371Y-98232685D01*
X189262657Y-98305257D01*
X189262657Y-98414114D01*
X189226371Y-98486685D01*
X189190085Y-98522971D01*
X189117514Y-98559257D01*
X188827228Y-98559257D01*
D12*
X206050000Y-96171428D02*
X206050000Y-96657142D01*
X206078571Y-96714285D01*
X206107142Y-96742857D01*
X206164285Y-96771428D01*
X206278571Y-96771428D01*
X206335714Y-96742857D01*
X206364285Y-96714285D01*
X206392857Y-96657142D01*
X206392857Y-96171428D01*
X206650000Y-96742857D02*
X206735714Y-96771428D01*
X206878571Y-96771428D01*
X206935714Y-96742857D01*
X206964285Y-96714285D01*
X206992857Y-96657142D01*
X206992857Y-96600000D01*
X206964285Y-96542857D01*
X206935714Y-96514285D01*
X206878571Y-96485714D01*
X206764285Y-96457142D01*
X206707142Y-96428571D01*
X206678571Y-96400000D01*
X206650000Y-96342857D01*
X206650000Y-96285714D01*
X206678571Y-96228571D01*
X206707142Y-96200000D01*
X206764285Y-96171428D01*
X206907142Y-96171428D01*
X206992857Y-96200000D01*
X207450000Y-96457142D02*
X207535714Y-96485714D01*
X207564285Y-96514285D01*
X207592857Y-96571428D01*
X207592857Y-96657142D01*
X207564285Y-96714285D01*
X207535714Y-96742857D01*
X207478571Y-96771428D01*
X207250000Y-96771428D01*
X207250000Y-96171428D01*
X207450000Y-96171428D01*
X207507142Y-96200000D01*
X207535714Y-96228571D01*
X207564285Y-96285714D01*
X207564285Y-96342857D01*
X207535714Y-96400000D01*
X207507142Y-96428571D01*
X207450000Y-96457142D01*
X207250000Y-96457142D01*
X208135714Y-96171428D02*
X207850000Y-96171428D01*
X207821428Y-96457142D01*
X207850000Y-96428571D01*
X207907142Y-96400000D01*
X208050000Y-96400000D01*
X208107142Y-96428571D01*
X208135714Y-96457142D01*
X208164285Y-96514285D01*
X208164285Y-96657142D01*
X208135714Y-96714285D01*
X208107142Y-96742857D01*
X208050000Y-96771428D01*
X207907142Y-96771428D01*
X207850000Y-96742857D01*
X207821428Y-96714285D01*
X208335714Y-96171428D02*
X208535714Y-96771428D01*
X208735714Y-96171428D01*
X207846428Y-105705000D02*
X207560714Y-105905000D01*
X207846428Y-106047857D02*
X207246428Y-106047857D01*
X207246428Y-105819285D01*
X207275000Y-105762142D01*
X207303571Y-105733571D01*
X207360714Y-105705000D01*
X207446428Y-105705000D01*
X207503571Y-105733571D01*
X207532142Y-105762142D01*
X207560714Y-105819285D01*
X207560714Y-106047857D01*
X207446428Y-105190714D02*
X207846428Y-105190714D01*
X207217857Y-105333571D02*
X207646428Y-105476428D01*
X207646428Y-105105000D01*
X210951428Y-105475000D02*
X210665714Y-105675000D01*
X210951428Y-105817857D02*
X210351428Y-105817857D01*
X210351428Y-105589285D01*
X210380000Y-105532142D01*
X210408571Y-105503571D01*
X210465714Y-105475000D01*
X210551428Y-105475000D01*
X210608571Y-105503571D01*
X210637142Y-105532142D01*
X210665714Y-105589285D01*
X210665714Y-105817857D01*
X210351428Y-104960714D02*
X210351428Y-105075000D01*
X210380000Y-105132142D01*
X210408571Y-105160714D01*
X210494285Y-105217857D01*
X210608571Y-105246428D01*
X210837142Y-105246428D01*
X210894285Y-105217857D01*
X210922857Y-105189285D01*
X210951428Y-105132142D01*
X210951428Y-105017857D01*
X210922857Y-104960714D01*
X210894285Y-104932142D01*
X210837142Y-104903571D01*
X210694285Y-104903571D01*
X210637142Y-104932142D01*
X210608571Y-104960714D01*
X210580000Y-105017857D01*
X210580000Y-105132142D01*
X210608571Y-105189285D01*
X210637142Y-105217857D01*
X210694285Y-105246428D01*
X204600000Y-103871428D02*
X204400000Y-103585714D01*
X204257142Y-103871428D02*
X204257142Y-103271428D01*
X204485714Y-103271428D01*
X204542857Y-103300000D01*
X204571428Y-103328571D01*
X204600000Y-103385714D01*
X204600000Y-103471428D01*
X204571428Y-103528571D01*
X204542857Y-103557142D01*
X204485714Y-103585714D01*
X204257142Y-103585714D01*
X204800000Y-103271428D02*
X205171428Y-103271428D01*
X204971428Y-103500000D01*
X205057142Y-103500000D01*
X205114285Y-103528571D01*
X205142857Y-103557142D01*
X205171428Y-103614285D01*
X205171428Y-103757142D01*
X205142857Y-103814285D01*
X205114285Y-103842857D01*
X205057142Y-103871428D01*
X204885714Y-103871428D01*
X204828571Y-103842857D01*
X204800000Y-103814285D01*
X198346428Y-107085714D02*
X198060714Y-107285714D01*
X198346428Y-107428571D02*
X197746428Y-107428571D01*
X197746428Y-107200000D01*
X197775000Y-107142857D01*
X197803571Y-107114285D01*
X197860714Y-107085714D01*
X197946428Y-107085714D01*
X198003571Y-107114285D01*
X198032142Y-107142857D01*
X198060714Y-107200000D01*
X198060714Y-107428571D01*
X198346428Y-106514285D02*
X198346428Y-106857142D01*
X198346428Y-106685714D02*
X197746428Y-106685714D01*
X197832142Y-106742857D01*
X197889285Y-106800000D01*
X197917857Y-106857142D01*
X197746428Y-106142857D02*
X197746428Y-106085714D01*
X197775000Y-106028571D01*
X197803571Y-106000000D01*
X197860714Y-105971428D01*
X197975000Y-105942857D01*
X198117857Y-105942857D01*
X198232142Y-105971428D01*
X198289285Y-106000000D01*
X198317857Y-106028571D01*
X198346428Y-106085714D01*
X198346428Y-106142857D01*
X198317857Y-106200000D01*
X198289285Y-106228571D01*
X198232142Y-106257142D01*
X198117857Y-106285714D01*
X197975000Y-106285714D01*
X197860714Y-106257142D01*
X197803571Y-106228571D01*
X197775000Y-106200000D01*
X197746428Y-106142857D01*
X202775000Y-102021428D02*
X202575000Y-101735714D01*
X202432142Y-102021428D02*
X202432142Y-101421428D01*
X202660714Y-101421428D01*
X202717857Y-101450000D01*
X202746428Y-101478571D01*
X202775000Y-101535714D01*
X202775000Y-101621428D01*
X202746428Y-101678571D01*
X202717857Y-101707142D01*
X202660714Y-101735714D01*
X202432142Y-101735714D01*
X203117857Y-101678571D02*
X203060714Y-101650000D01*
X203032142Y-101621428D01*
X203003571Y-101564285D01*
X203003571Y-101535714D01*
X203032142Y-101478571D01*
X203060714Y-101450000D01*
X203117857Y-101421428D01*
X203232142Y-101421428D01*
X203289285Y-101450000D01*
X203317857Y-101478571D01*
X203346428Y-101535714D01*
X203346428Y-101564285D01*
X203317857Y-101621428D01*
X203289285Y-101650000D01*
X203232142Y-101678571D01*
X203117857Y-101678571D01*
X203060714Y-101707142D01*
X203032142Y-101735714D01*
X203003571Y-101792857D01*
X203003571Y-101907142D01*
X203032142Y-101964285D01*
X203060714Y-101992857D01*
X203117857Y-102021428D01*
X203232142Y-102021428D01*
X203289285Y-101992857D01*
X203317857Y-101964285D01*
X203346428Y-101907142D01*
X203346428Y-101792857D01*
X203317857Y-101735714D01*
X203289285Y-101707142D01*
X203232142Y-101678571D01*
X195375000Y-91671428D02*
X195175000Y-91385714D01*
X195032142Y-91671428D02*
X195032142Y-91071428D01*
X195260714Y-91071428D01*
X195317857Y-91100000D01*
X195346428Y-91128571D01*
X195375000Y-91185714D01*
X195375000Y-91271428D01*
X195346428Y-91328571D01*
X195317857Y-91357142D01*
X195260714Y-91385714D01*
X195032142Y-91385714D01*
X195660714Y-91671428D02*
X195775000Y-91671428D01*
X195832142Y-91642857D01*
X195860714Y-91614285D01*
X195917857Y-91528571D01*
X195946428Y-91414285D01*
X195946428Y-91185714D01*
X195917857Y-91128571D01*
X195889285Y-91100000D01*
X195832142Y-91071428D01*
X195717857Y-91071428D01*
X195660714Y-91100000D01*
X195632142Y-91128571D01*
X195603571Y-91185714D01*
X195603571Y-91328571D01*
X195632142Y-91385714D01*
X195660714Y-91414285D01*
X195717857Y-91442857D01*
X195832142Y-91442857D01*
X195889285Y-91414285D01*
X195917857Y-91385714D01*
X195946428Y-91328571D01*
X197375000Y-109246428D02*
X197175000Y-108960714D01*
X197032142Y-109246428D02*
X197032142Y-108646428D01*
X197260714Y-108646428D01*
X197317857Y-108675000D01*
X197346428Y-108703571D01*
X197375000Y-108760714D01*
X197375000Y-108846428D01*
X197346428Y-108903571D01*
X197317857Y-108932142D01*
X197260714Y-108960714D01*
X197032142Y-108960714D01*
X197575000Y-108646428D02*
X197975000Y-108646428D01*
X197717857Y-109246428D01*
X192130628Y-98316114D02*
X191530628Y-98316114D01*
X192102057Y-98058971D02*
X192130628Y-97973257D01*
X192130628Y-97830400D01*
X192102057Y-97773257D01*
X192073485Y-97744685D01*
X192016342Y-97716114D01*
X191959200Y-97716114D01*
X191902057Y-97744685D01*
X191873485Y-97773257D01*
X191844914Y-97830400D01*
X191816342Y-97944685D01*
X191787771Y-98001828D01*
X191759200Y-98030400D01*
X191702057Y-98058971D01*
X191644914Y-98058971D01*
X191587771Y-98030400D01*
X191559200Y-98001828D01*
X191530628Y-97944685D01*
X191530628Y-97801828D01*
X191559200Y-97716114D01*
X192130628Y-97458971D02*
X191530628Y-97458971D01*
X191530628Y-97230400D01*
X191559200Y-97173257D01*
X191587771Y-97144685D01*
X191644914Y-97116114D01*
X191730628Y-97116114D01*
X191787771Y-97144685D01*
X191816342Y-97173257D01*
X191844914Y-97230400D01*
X191844914Y-97458971D01*
X191889285Y-96464285D02*
X191860714Y-96492857D01*
X191775000Y-96521428D01*
X191717857Y-96521428D01*
X191632142Y-96492857D01*
X191575000Y-96435714D01*
X191546428Y-96378571D01*
X191517857Y-96264285D01*
X191517857Y-96178571D01*
X191546428Y-96064285D01*
X191575000Y-96007142D01*
X191632142Y-95950000D01*
X191717857Y-95921428D01*
X191775000Y-95921428D01*
X191860714Y-95950000D01*
X191889285Y-95978571D01*
X192460714Y-96521428D02*
X192117857Y-96521428D01*
X192289285Y-96521428D02*
X192289285Y-95921428D01*
X192232142Y-96007142D01*
X192175000Y-96064285D01*
X192117857Y-96092857D01*
X192832142Y-95921428D02*
X192889285Y-95921428D01*
X192946428Y-95950000D01*
X192975000Y-95978571D01*
X193003571Y-96035714D01*
X193032142Y-96150000D01*
X193032142Y-96292857D01*
X193003571Y-96407142D01*
X192975000Y-96464285D01*
X192946428Y-96492857D01*
X192889285Y-96521428D01*
X192832142Y-96521428D01*
X192775000Y-96492857D01*
X192746428Y-96464285D01*
X192717857Y-96407142D01*
X192689285Y-96292857D01*
X192689285Y-96150000D01*
X192717857Y-96035714D01*
X192746428Y-95978571D01*
X192775000Y-95950000D01*
X192832142Y-95921428D01*
X193664285Y-101050000D02*
X193692857Y-101078571D01*
X193721428Y-101164285D01*
X193721428Y-101221428D01*
X193692857Y-101307142D01*
X193635714Y-101364285D01*
X193578571Y-101392857D01*
X193464285Y-101421428D01*
X193378571Y-101421428D01*
X193264285Y-101392857D01*
X193207142Y-101364285D01*
X193150000Y-101307142D01*
X193121428Y-101221428D01*
X193121428Y-101164285D01*
X193150000Y-101078571D01*
X193178571Y-101050000D01*
X193121428Y-100850000D02*
X193121428Y-100450000D01*
X193721428Y-100707142D01*
X199400000Y-108439285D02*
X199371428Y-108467857D01*
X199285714Y-108496428D01*
X199228571Y-108496428D01*
X199142857Y-108467857D01*
X199085714Y-108410714D01*
X199057142Y-108353571D01*
X199028571Y-108239285D01*
X199028571Y-108153571D01*
X199057142Y-108039285D01*
X199085714Y-107982142D01*
X199142857Y-107925000D01*
X199228571Y-107896428D01*
X199285714Y-107896428D01*
X199371428Y-107925000D01*
X199400000Y-107953571D01*
X199628571Y-107953571D02*
X199657142Y-107925000D01*
X199714285Y-107896428D01*
X199857142Y-107896428D01*
X199914285Y-107925000D01*
X199942857Y-107953571D01*
X199971428Y-108010714D01*
X199971428Y-108067857D01*
X199942857Y-108153571D01*
X199600000Y-108496428D01*
X199971428Y-108496428D01*
X195575000Y-110471428D02*
X195375000Y-110185714D01*
X195232142Y-110471428D02*
X195232142Y-109871428D01*
X195460714Y-109871428D01*
X195517857Y-109900000D01*
X195546428Y-109928571D01*
X195575000Y-109985714D01*
X195575000Y-110071428D01*
X195546428Y-110128571D01*
X195517857Y-110157142D01*
X195460714Y-110185714D01*
X195232142Y-110185714D01*
X196146428Y-110471428D02*
X195803571Y-110471428D01*
X195975000Y-110471428D02*
X195975000Y-109871428D01*
X195917857Y-109957142D01*
X195860714Y-110014285D01*
X195803571Y-110042857D01*
X201864285Y-107275000D02*
X201892857Y-107303571D01*
X201921428Y-107389285D01*
X201921428Y-107446428D01*
X201892857Y-107532142D01*
X201835714Y-107589285D01*
X201778571Y-107617857D01*
X201664285Y-107646428D01*
X201578571Y-107646428D01*
X201464285Y-107617857D01*
X201407142Y-107589285D01*
X201350000Y-107532142D01*
X201321428Y-107446428D01*
X201321428Y-107389285D01*
X201350000Y-107303571D01*
X201378571Y-107275000D01*
X201521428Y-106760714D02*
X201921428Y-106760714D01*
X201292857Y-106903571D02*
X201721428Y-107046428D01*
X201721428Y-106675000D01*
X200025057Y-110567828D02*
X200025057Y-111053542D01*
X200053628Y-111110685D01*
X200082200Y-111139257D01*
X200139342Y-111167828D01*
X200253628Y-111167828D01*
X200310771Y-111139257D01*
X200339342Y-111110685D01*
X200367914Y-111053542D01*
X200367914Y-110567828D01*
X200967914Y-111167828D02*
X200625057Y-111167828D01*
X200796485Y-111167828D02*
X200796485Y-110567828D01*
X200739342Y-110653542D01*
X200682200Y-110710685D01*
X200625057Y-110739257D01*
X196914285Y-93450000D02*
X196942857Y-93478571D01*
X196971428Y-93564285D01*
X196971428Y-93621428D01*
X196942857Y-93707142D01*
X196885714Y-93764285D01*
X196828571Y-93792857D01*
X196714285Y-93821428D01*
X196628571Y-93821428D01*
X196514285Y-93792857D01*
X196457142Y-93764285D01*
X196400000Y-93707142D01*
X196371428Y-93621428D01*
X196371428Y-93564285D01*
X196400000Y-93478571D01*
X196428571Y-93450000D01*
X196971428Y-93164285D02*
X196971428Y-93050000D01*
X196942857Y-92992857D01*
X196914285Y-92964285D01*
X196828571Y-92907142D01*
X196714285Y-92878571D01*
X196485714Y-92878571D01*
X196428571Y-92907142D01*
X196400000Y-92935714D01*
X196371428Y-92992857D01*
X196371428Y-93107142D01*
X196400000Y-93164285D01*
X196428571Y-93192857D01*
X196485714Y-93221428D01*
X196628571Y-93221428D01*
X196685714Y-93192857D01*
X196714285Y-93164285D01*
X196742857Y-93107142D01*
X196742857Y-92992857D01*
X196714285Y-92935714D01*
X196685714Y-92907142D01*
X196628571Y-92878571D01*
X204425000Y-102889285D02*
X204396428Y-102917857D01*
X204310714Y-102946428D01*
X204253571Y-102946428D01*
X204167857Y-102917857D01*
X204110714Y-102860714D01*
X204082142Y-102803571D01*
X204053571Y-102689285D01*
X204053571Y-102603571D01*
X204082142Y-102489285D01*
X204110714Y-102432142D01*
X204167857Y-102375000D01*
X204253571Y-102346428D01*
X204310714Y-102346428D01*
X204396428Y-102375000D01*
X204425000Y-102403571D01*
X204939285Y-102346428D02*
X204825000Y-102346428D01*
X204767857Y-102375000D01*
X204739285Y-102403571D01*
X204682142Y-102489285D01*
X204653571Y-102603571D01*
X204653571Y-102832142D01*
X204682142Y-102889285D01*
X204710714Y-102917857D01*
X204767857Y-102946428D01*
X204882142Y-102946428D01*
X204939285Y-102917857D01*
X204967857Y-102889285D01*
X204996428Y-102832142D01*
X204996428Y-102689285D01*
X204967857Y-102632142D01*
X204939285Y-102603571D01*
X204882142Y-102575000D01*
X204767857Y-102575000D01*
X204710714Y-102603571D01*
X204682142Y-102632142D01*
X204653571Y-102689285D01*
X209771428Y-107335714D02*
X209485714Y-107535714D01*
X209771428Y-107678571D02*
X209171428Y-107678571D01*
X209171428Y-107450000D01*
X209200000Y-107392857D01*
X209228571Y-107364285D01*
X209285714Y-107335714D01*
X209371428Y-107335714D01*
X209428571Y-107364285D01*
X209457142Y-107392857D01*
X209485714Y-107450000D01*
X209485714Y-107678571D01*
X209771428Y-106764285D02*
X209771428Y-107107142D01*
X209771428Y-106935714D02*
X209171428Y-106935714D01*
X209257142Y-106992857D01*
X209314285Y-107050000D01*
X209342857Y-107107142D01*
X209171428Y-106564285D02*
X209171428Y-106192857D01*
X209400000Y-106392857D01*
X209400000Y-106307142D01*
X209428571Y-106250000D01*
X209457142Y-106221428D01*
X209514285Y-106192857D01*
X209657142Y-106192857D01*
X209714285Y-106221428D01*
X209742857Y-106250000D01*
X209771428Y-106307142D01*
X209771428Y-106478571D01*
X209742857Y-106535714D01*
X209714285Y-106564285D01*
X200030812Y-103272233D02*
X200030812Y-103312639D01*
X199990406Y-103393451D01*
X199949999Y-103433857D01*
X199869187Y-103474264D01*
X199788375Y-103474264D01*
X199727766Y-103454061D01*
X199626751Y-103393451D01*
X199566142Y-103332842D01*
X199505532Y-103231827D01*
X199485329Y-103171218D01*
X199485329Y-103090406D01*
X199525735Y-103009593D01*
X199566142Y-102969187D01*
X199646954Y-102928781D01*
X199687360Y-102928781D01*
X200475279Y-102908578D02*
X200232842Y-103151015D01*
X200354061Y-103029796D02*
X199929796Y-102605532D01*
X199950000Y-102706548D01*
X199950000Y-102787360D01*
X199929796Y-102847969D01*
X207064285Y-107715000D02*
X207092857Y-107743571D01*
X207121428Y-107829285D01*
X207121428Y-107886428D01*
X207092857Y-107972142D01*
X207035714Y-108029285D01*
X206978571Y-108057857D01*
X206864285Y-108086428D01*
X206778571Y-108086428D01*
X206664285Y-108057857D01*
X206607142Y-108029285D01*
X206550000Y-107972142D01*
X206521428Y-107886428D01*
X206521428Y-107829285D01*
X206550000Y-107743571D01*
X206578571Y-107715000D01*
X206521428Y-107515000D02*
X206521428Y-107143571D01*
X206750000Y-107343571D01*
X206750000Y-107257857D01*
X206778571Y-107200714D01*
X206807142Y-107172142D01*
X206864285Y-107143571D01*
X207007142Y-107143571D01*
X207064285Y-107172142D01*
X207092857Y-107200714D01*
X207121428Y-107257857D01*
X207121428Y-107429285D01*
X207092857Y-107486428D01*
X207064285Y-107515000D01*
X205346428Y-99290714D02*
X205060714Y-99490714D01*
X205346428Y-99633571D02*
X204746428Y-99633571D01*
X204746428Y-99405000D01*
X204775000Y-99347857D01*
X204803571Y-99319285D01*
X204860714Y-99290714D01*
X204946428Y-99290714D01*
X205003571Y-99319285D01*
X205032142Y-99347857D01*
X205060714Y-99405000D01*
X205060714Y-99633571D01*
X205346428Y-98719285D02*
X205346428Y-99062142D01*
X205346428Y-98890714D02*
X204746428Y-98890714D01*
X204832142Y-98947857D01*
X204889285Y-99005000D01*
X204917857Y-99062142D01*
X204946428Y-98205000D02*
X205346428Y-98205000D01*
X204717857Y-98347857D02*
X205146428Y-98490714D01*
X205146428Y-98119285D01*
X205364285Y-109721428D02*
X205164285Y-109435714D01*
X205021428Y-109721428D02*
X205021428Y-109121428D01*
X205250000Y-109121428D01*
X205307142Y-109150000D01*
X205335714Y-109178571D01*
X205364285Y-109235714D01*
X205364285Y-109321428D01*
X205335714Y-109378571D01*
X205307142Y-109407142D01*
X205250000Y-109435714D01*
X205021428Y-109435714D01*
X205935714Y-109721428D02*
X205592857Y-109721428D01*
X205764285Y-109721428D02*
X205764285Y-109121428D01*
X205707142Y-109207142D01*
X205650000Y-109264285D01*
X205592857Y-109292857D01*
X206164285Y-109178571D02*
X206192857Y-109150000D01*
X206250000Y-109121428D01*
X206392857Y-109121428D01*
X206450000Y-109150000D01*
X206478571Y-109178571D01*
X206507142Y-109235714D01*
X206507142Y-109292857D01*
X206478571Y-109378571D01*
X206135714Y-109721428D01*
X206507142Y-109721428D01*
X197269187Y-101564670D02*
X196925735Y-101504061D01*
X197026751Y-101807106D02*
X196602487Y-101382842D01*
X196764111Y-101221218D01*
X196824720Y-101201015D01*
X196865126Y-101201015D01*
X196925735Y-101221218D01*
X196986345Y-101281827D01*
X197006548Y-101342436D01*
X197006548Y-101382842D01*
X196986345Y-101443451D01*
X196824720Y-101605076D01*
X197673248Y-101160609D02*
X197430812Y-101403045D01*
X197552030Y-101281827D02*
X197127766Y-100857563D01*
X197147969Y-100958578D01*
X197147969Y-101039390D01*
X197127766Y-101100000D01*
X198077309Y-100756548D02*
X197834873Y-100998984D01*
X197956091Y-100877766D02*
X197531827Y-100453502D01*
X197552030Y-100554517D01*
X197552030Y-100635329D01*
X197531827Y-100695938D01*
X189851200Y-96747400D02*
X190867200Y-96747400D01*
X189724200Y-104240400D02*
X189724200Y-96620400D01*
X189851200Y-97763400D02*
X190867200Y-97763400D01*
X190994200Y-96620400D02*
X190994200Y-104240400D01*
X190867200Y-97890400D02*
X189851200Y-97890400D01*
X190994200Y-104240400D02*
X189724200Y-104240400D01*
X189851200Y-97890400D02*
X189851200Y-96747400D01*
X189724200Y-96620400D02*
X190994200Y-96620400D01*
X190867200Y-96747400D02*
X190867200Y-97890400D01*
X190898015Y-97255400D02*
G75*
G03*
X190898015Y-97255400I-538815J0D01*
G01*
D15*
X205814200Y-108150400D02*
G75*
G03*
X205814200Y-108150400I-125000J0D01*
G01*
D10*
X200290000Y-107237221D02*
X200290000Y-107562779D01*
X201310000Y-107237221D02*
X201310000Y-107562779D01*
D11*
X194822334Y-101090132D02*
X194539492Y-101372975D01*
X191428222Y-104484245D02*
X191428222Y-105049930D01*
X198499290Y-104767087D02*
X198216447Y-105049930D01*
X191428222Y-105049930D02*
X191569643Y-105191352D01*
X198216447Y-104484245D02*
X198499290Y-104767087D01*
X195105177Y-108161200D02*
X194822334Y-108444043D01*
X194822334Y-108444043D02*
X194539492Y-108161200D01*
X194822334Y-101090132D02*
X195105177Y-101372975D01*
X191569643Y-105191352D02*
X191428222Y-105332773D01*
X191569643Y-104342823D02*
X191428222Y-104484245D01*
D12*
X198807200Y-112571400D02*
X202157200Y-112571400D01*
X202157200Y-112571400D02*
X202157200Y-112271400D01*
X202157200Y-109221400D02*
X202157200Y-109521400D01*
X198807200Y-112571400D02*
X198807200Y-112271400D01*
X198807200Y-109221400D02*
X202157200Y-109221400D01*
X198807200Y-109446400D02*
X197582200Y-109446400D01*
X198807200Y-109221400D02*
X198807200Y-109446400D01*
D10*
X201660942Y-105337389D02*
X202512389Y-104485942D01*
X199737611Y-103414058D02*
X200589058Y-102562611D01*
D11*
X205759240Y-94972680D02*
X205759240Y-95472680D01*
X205759240Y-100222680D02*
X205259240Y-100222680D01*
X193559240Y-94972680D02*
X194059240Y-94972680D01*
X193559240Y-94972680D02*
X193559240Y-95472680D01*
X205759240Y-100222680D02*
X205759240Y-99722680D01*
X205759240Y-94972680D02*
X205259240Y-94972680D01*
X193559240Y-99722680D02*
X193559240Y-100222680D01*
X193559240Y-100222680D02*
X194059240Y-100222680D01*
D16*
X192757862Y-92751400D02*
X192192400Y-92751400D01*
D10*
X208661000Y-99530000D02*
X208661000Y-96930000D01*
X206061000Y-98260000D02*
X206061000Y-96930000D01*
X206061000Y-96930000D02*
X207391000Y-96930000D01*
X206061000Y-99530000D02*
X206061000Y-104670000D01*
X206061000Y-104670000D02*
X211261000Y-104670000D01*
X206061000Y-99530000D02*
X208661000Y-99530000D01*
X211261000Y-96930000D02*
X211261000Y-104670000D01*
X208661000Y-96930000D02*
X211261000Y-96930000D01*
X198699273Y-102029478D02*
X198929478Y-101799273D01*
X199420522Y-102750727D02*
X199650727Y-102520522D01*
%LPC*%
D17*
X206800000Y-105595000D03*
X206800000Y-106565000D03*
D18*
X209730000Y-105885000D03*
X209730000Y-104915000D03*
D17*
X205680000Y-103225000D03*
X205680000Y-104195000D03*
D18*
X198869200Y-106960400D03*
X198869200Y-105990400D03*
D19*
X202590000Y-100825000D03*
X203560000Y-100825000D03*
D20*
X195985000Y-92225000D03*
X195015000Y-92225000D03*
X198554200Y-107975400D03*
X197584200Y-107975400D03*
D21*
X190359200Y-97255400D03*
D22*
X190359200Y-98525400D03*
X190359200Y-99795400D03*
X190359200Y-101065400D03*
X190359200Y-102335400D03*
D21*
X190359200Y-103605400D03*
D23*
X205264200Y-107400400D03*
X205264200Y-106900400D03*
X205264200Y-106400400D03*
X205264200Y-105900400D03*
D24*
X204564200Y-105200400D03*
X204064200Y-105200400D03*
X203564200Y-105200400D03*
X203064200Y-105200400D03*
D23*
X202364200Y-105900400D03*
X202364200Y-106400400D03*
X202364200Y-106900400D03*
X202364200Y-107400400D03*
D24*
X203064200Y-108100400D03*
X203564200Y-108100400D03*
X204064200Y-108100400D03*
X204564200Y-108100400D03*
D25*
X203814200Y-106650400D03*
D19*
X191940000Y-95325000D03*
X192910000Y-95325000D03*
D18*
X192419200Y-101405400D03*
X192419200Y-100435400D03*
D19*
X198473200Y-108991400D03*
X199443200Y-108991400D03*
X195165000Y-109325000D03*
X196135000Y-109325000D03*
D26*
X200800000Y-106612500D03*
X200800000Y-108187500D03*
D27*
X191834808Y-105279740D03*
X192188362Y-105633293D03*
X192541915Y-105986847D03*
X192895468Y-106340400D03*
X193249022Y-106693953D03*
X193602575Y-107047507D03*
X193956129Y-107401060D03*
X194309682Y-107754614D03*
D28*
X195334987Y-107754614D03*
X195688540Y-107401060D03*
X196042094Y-107047507D03*
X196395647Y-106693953D03*
X196749200Y-106340400D03*
X197102754Y-105986847D03*
X197456307Y-105633293D03*
X197809861Y-105279740D03*
D27*
X197809861Y-104254435D03*
X197456307Y-103900882D03*
X197102754Y-103547328D03*
X196749200Y-103193775D03*
X196395647Y-102840221D03*
X196042094Y-102486668D03*
X195688540Y-102133115D03*
X195334987Y-101779561D03*
D28*
X194309682Y-101779561D03*
X193956129Y-102133115D03*
X193602575Y-102486668D03*
X193249022Y-102840221D03*
X192895468Y-103193775D03*
X192541915Y-103547328D03*
X192188362Y-103900882D03*
X191834808Y-104254435D03*
D29*
X194822334Y-104767087D03*
X194822334Y-103352874D03*
X196236548Y-104767087D03*
X195529441Y-104059981D03*
X193408121Y-104767087D03*
X194115228Y-104059981D03*
X195529441Y-105474194D03*
X194115228Y-105474194D03*
X194822334Y-106181301D03*
D30*
X194822334Y-104767087D03*
D31*
X198282200Y-109896400D03*
X198282200Y-110396400D03*
X198282200Y-110896400D03*
X198282200Y-111396400D03*
X198282200Y-111896400D03*
X202682200Y-111896400D03*
X202682200Y-111396400D03*
X202682200Y-110896400D03*
X202682200Y-110396400D03*
X202682200Y-109896400D03*
D32*
X200135051Y-104939949D03*
X202114949Y-102960051D03*
D17*
X195639400Y-93553400D03*
X195639400Y-94523400D03*
D33*
X194159240Y-96372680D03*
X205159240Y-96372680D03*
D34*
X196909240Y-95847680D03*
X197409240Y-95847680D03*
X197909240Y-95847680D03*
X198409240Y-95847680D03*
X198909240Y-95847680D03*
X199409240Y-95847680D03*
X199909240Y-95847680D03*
X200409240Y-95847680D03*
X200909240Y-95847680D03*
X201409240Y-95847680D03*
X201909240Y-95847680D03*
X202409240Y-95847680D03*
X202409240Y-99347680D03*
X201909240Y-99347680D03*
X201409240Y-99347680D03*
X200909240Y-99347680D03*
X200409240Y-99347680D03*
X199909240Y-99347680D03*
X199409240Y-99347680D03*
X198909240Y-99347680D03*
X198409240Y-99347680D03*
X197909240Y-99347680D03*
X197409240Y-99347680D03*
X196909240Y-99347680D03*
D35*
X195559240Y-99142680D03*
X195559240Y-96202680D03*
X203759239Y-99142680D03*
X203759239Y-96202680D03*
D36*
X192379501Y-93228401D03*
X192379501Y-93878400D03*
X192379501Y-94528399D03*
X194259299Y-94528399D03*
X194259299Y-93878400D03*
X194259299Y-93228401D03*
D37*
X193319400Y-93878400D03*
D18*
X204600000Y-101810000D03*
X204600000Y-100840000D03*
D38*
X207391000Y-98260000D03*
D39*
X209931000Y-98260000D03*
X207391000Y-100800000D03*
X209931000Y-100800000D03*
X207391000Y-103340000D03*
X209931000Y-103340000D03*
D18*
X208670000Y-107175000D03*
X208670000Y-106205000D03*
D40*
X198618153Y-102831847D03*
X199731847Y-101718153D03*
D18*
X207750000Y-108125000D03*
X207750000Y-107155000D03*
D17*
X205650000Y-101295000D03*
X205650000Y-102265000D03*
D19*
X205365000Y-108475000D03*
X206335000Y-108475000D03*
D41*
X198417947Y-101232053D03*
X197732053Y-101917947D03*
M02*
