G04 #@! TF.GenerationSoftware,KiCad,Pcbnew,5.99.0-unknown-4135f0c~100~ubuntu18.04.1*
G04 #@! TF.CreationDate,2019-11-01T15:59:21-04:00*
G04 #@! TF.ProjectId,tia,7469612e-6b69-4636-9164-5f7063625858,rev?*
G04 #@! TF.SameCoordinates,Original*
G04 #@! TF.FileFunction,Paste,Top*
G04 #@! TF.FilePolarity,Positive*
%FSLAX46Y46*%
G04 Gerber Fmt 4.6, Leading zero omitted, Abs format (unit mm)*
G04 Created by KiCad (PCBNEW 5.99.0-unknown-4135f0c~100~ubuntu18.04.1) date 2019-11-01 15:59:21*
%MOMM*%
%LPD*%
G04 APERTURE LIST*
%ADD10R,0.940000X0.940000*%
%ADD11C,0.940000*%
%ADD12R,0.558800X1.473200*%
G04 APERTURE END LIST*
G36*
X194528946Y-98881228D02*
G01*
X194576798Y-98913202D01*
X194608772Y-98961054D01*
X194620000Y-99017500D01*
X194620000Y-99312500D01*
X194608772Y-99368946D01*
X194576798Y-99416798D01*
X194528946Y-99448772D01*
X194472500Y-99460000D01*
X194127500Y-99460000D01*
X194071054Y-99448772D01*
X194023202Y-99416798D01*
X193991228Y-99368946D01*
X193980000Y-99312500D01*
X193980000Y-99017500D01*
X193991228Y-98961054D01*
X194023202Y-98913202D01*
X194071054Y-98881228D01*
X194127500Y-98870000D01*
X194472500Y-98870000D01*
X194528946Y-98881228D01*
G37*
G36*
X194528946Y-99851228D02*
G01*
X194576798Y-99883202D01*
X194608772Y-99931054D01*
X194620000Y-99987500D01*
X194620000Y-100282500D01*
X194608772Y-100338946D01*
X194576798Y-100386798D01*
X194528946Y-100418772D01*
X194472500Y-100430000D01*
X194127500Y-100430000D01*
X194071054Y-100418772D01*
X194023202Y-100386798D01*
X193991228Y-100338946D01*
X193980000Y-100282500D01*
X193980000Y-99987500D01*
X193991228Y-99931054D01*
X194023202Y-99883202D01*
X194071054Y-99851228D01*
X194127500Y-99840000D01*
X194472500Y-99840000D01*
X194528946Y-99851228D01*
G37*
G36*
X192628946Y-97181228D02*
G01*
X192676798Y-97213202D01*
X192708772Y-97261054D01*
X192720000Y-97317500D01*
X192720000Y-97612500D01*
X192708772Y-97668946D01*
X192676798Y-97716798D01*
X192628946Y-97748772D01*
X192572500Y-97760000D01*
X192227500Y-97760000D01*
X192171054Y-97748772D01*
X192123202Y-97716798D01*
X192091228Y-97668946D01*
X192080000Y-97612500D01*
X192080000Y-97317500D01*
X192091228Y-97261054D01*
X192123202Y-97213202D01*
X192171054Y-97181228D01*
X192227500Y-97170000D01*
X192572500Y-97170000D01*
X192628946Y-97181228D01*
G37*
G36*
X192628946Y-98151228D02*
G01*
X192676798Y-98183202D01*
X192708772Y-98231054D01*
X192720000Y-98287500D01*
X192720000Y-98582500D01*
X192708772Y-98638946D01*
X192676798Y-98686798D01*
X192628946Y-98718772D01*
X192572500Y-98730000D01*
X192227500Y-98730000D01*
X192171054Y-98718772D01*
X192123202Y-98686798D01*
X192091228Y-98638946D01*
X192080000Y-98582500D01*
X192080000Y-98287500D01*
X192091228Y-98231054D01*
X192123202Y-98183202D01*
X192171054Y-98151228D01*
X192227500Y-98140000D01*
X192572500Y-98140000D01*
X192628946Y-98151228D01*
G37*
G36*
X192628946Y-94481228D02*
G01*
X192676798Y-94513202D01*
X192708772Y-94561054D01*
X192720000Y-94617500D01*
X192720000Y-94912500D01*
X192708772Y-94968946D01*
X192676798Y-95016798D01*
X192628946Y-95048772D01*
X192572500Y-95060000D01*
X192227500Y-95060000D01*
X192171054Y-95048772D01*
X192123202Y-95016798D01*
X192091228Y-94968946D01*
X192080000Y-94912500D01*
X192080000Y-94617500D01*
X192091228Y-94561054D01*
X192123202Y-94513202D01*
X192171054Y-94481228D01*
X192227500Y-94470000D01*
X192572500Y-94470000D01*
X192628946Y-94481228D01*
G37*
G36*
X192628946Y-95451228D02*
G01*
X192676798Y-95483202D01*
X192708772Y-95531054D01*
X192720000Y-95587500D01*
X192720000Y-95882500D01*
X192708772Y-95938946D01*
X192676798Y-95986798D01*
X192628946Y-96018772D01*
X192572500Y-96030000D01*
X192227500Y-96030000D01*
X192171054Y-96018772D01*
X192123202Y-95986798D01*
X192091228Y-95938946D01*
X192080000Y-95882500D01*
X192080000Y-95587500D01*
X192091228Y-95531054D01*
X192123202Y-95483202D01*
X192171054Y-95451228D01*
X192227500Y-95440000D01*
X192572500Y-95440000D01*
X192628946Y-95451228D01*
G37*
G36*
X204818946Y-102221228D02*
G01*
X204866798Y-102253202D01*
X204898772Y-102301054D01*
X204910000Y-102357500D01*
X204910000Y-102652500D01*
X204898772Y-102708946D01*
X204866798Y-102756798D01*
X204818946Y-102788772D01*
X204762500Y-102800000D01*
X204417500Y-102800000D01*
X204361054Y-102788772D01*
X204313202Y-102756798D01*
X204281228Y-102708946D01*
X204270000Y-102652500D01*
X204270000Y-102357500D01*
X204281228Y-102301054D01*
X204313202Y-102253202D01*
X204361054Y-102221228D01*
X204417500Y-102210000D01*
X204762500Y-102210000D01*
X204818946Y-102221228D01*
G37*
G36*
X204818946Y-103191228D02*
G01*
X204866798Y-103223202D01*
X204898772Y-103271054D01*
X204910000Y-103327500D01*
X204910000Y-103622500D01*
X204898772Y-103678946D01*
X204866798Y-103726798D01*
X204818946Y-103758772D01*
X204762500Y-103770000D01*
X204417500Y-103770000D01*
X204361054Y-103758772D01*
X204313202Y-103726798D01*
X204281228Y-103678946D01*
X204270000Y-103622500D01*
X204270000Y-103327500D01*
X204281228Y-103271054D01*
X204313202Y-103223202D01*
X204361054Y-103191228D01*
X204417500Y-103180000D01*
X204762500Y-103180000D01*
X204818946Y-103191228D01*
G37*
G36*
X193438946Y-99241228D02*
G01*
X193486798Y-99273202D01*
X193518772Y-99321054D01*
X193530000Y-99377500D01*
X193530000Y-99722500D01*
X193518772Y-99778946D01*
X193486798Y-99826798D01*
X193438946Y-99858772D01*
X193382500Y-99870000D01*
X193087500Y-99870000D01*
X193031054Y-99858772D01*
X192983202Y-99826798D01*
X192951228Y-99778946D01*
X192940000Y-99722500D01*
X192940000Y-99377500D01*
X192951228Y-99321054D01*
X192983202Y-99273202D01*
X193031054Y-99241228D01*
X193087500Y-99230000D01*
X193382500Y-99230000D01*
X193438946Y-99241228D01*
G37*
G36*
X192468946Y-99241228D02*
G01*
X192516798Y-99273202D01*
X192548772Y-99321054D01*
X192560000Y-99377500D01*
X192560000Y-99722500D01*
X192548772Y-99778946D01*
X192516798Y-99826798D01*
X192468946Y-99858772D01*
X192412500Y-99870000D01*
X192117500Y-99870000D01*
X192061054Y-99858772D01*
X192013202Y-99826798D01*
X191981228Y-99778946D01*
X191970000Y-99722500D01*
X191970000Y-99377500D01*
X191981228Y-99321054D01*
X192013202Y-99273202D01*
X192061054Y-99241228D01*
X192117500Y-99230000D01*
X192412500Y-99230000D01*
X192468946Y-99241228D01*
G37*
G36*
X206808946Y-105361228D02*
G01*
X206856798Y-105393202D01*
X206888772Y-105441054D01*
X206900000Y-105497500D01*
X206900000Y-105792500D01*
X206888772Y-105848946D01*
X206856798Y-105896798D01*
X206808946Y-105928772D01*
X206752500Y-105940000D01*
X206407500Y-105940000D01*
X206351054Y-105928772D01*
X206303202Y-105896798D01*
X206271228Y-105848946D01*
X206260000Y-105792500D01*
X206260000Y-105497500D01*
X206271228Y-105441054D01*
X206303202Y-105393202D01*
X206351054Y-105361228D01*
X206407500Y-105350000D01*
X206752500Y-105350000D01*
X206808946Y-105361228D01*
G37*
G36*
X206808946Y-104391228D02*
G01*
X206856798Y-104423202D01*
X206888772Y-104471054D01*
X206900000Y-104527500D01*
X206900000Y-104822500D01*
X206888772Y-104878946D01*
X206856798Y-104926798D01*
X206808946Y-104958772D01*
X206752500Y-104970000D01*
X206407500Y-104970000D01*
X206351054Y-104958772D01*
X206303202Y-104926798D01*
X206271228Y-104878946D01*
X206260000Y-104822500D01*
X206260000Y-104527500D01*
X206271228Y-104471054D01*
X206303202Y-104423202D01*
X206351054Y-104391228D01*
X206407500Y-104380000D01*
X206752500Y-104380000D01*
X206808946Y-104391228D01*
G37*
G36*
X200778946Y-107831228D02*
G01*
X200826798Y-107863202D01*
X200858772Y-107911054D01*
X200870000Y-107967500D01*
X200870000Y-108262500D01*
X200858772Y-108318946D01*
X200826798Y-108366798D01*
X200778946Y-108398772D01*
X200722500Y-108410000D01*
X200377500Y-108410000D01*
X200321054Y-108398772D01*
X200273202Y-108366798D01*
X200241228Y-108318946D01*
X200230000Y-108262500D01*
X200230000Y-107967500D01*
X200241228Y-107911054D01*
X200273202Y-107863202D01*
X200321054Y-107831228D01*
X200377500Y-107820000D01*
X200722500Y-107820000D01*
X200778946Y-107831228D01*
G37*
G36*
X200778946Y-108801228D02*
G01*
X200826798Y-108833202D01*
X200858772Y-108881054D01*
X200870000Y-108937500D01*
X200870000Y-109232500D01*
X200858772Y-109288946D01*
X200826798Y-109336798D01*
X200778946Y-109368772D01*
X200722500Y-109380000D01*
X200377500Y-109380000D01*
X200321054Y-109368772D01*
X200273202Y-109336798D01*
X200241228Y-109288946D01*
X200230000Y-109232500D01*
X200230000Y-108937500D01*
X200241228Y-108881054D01*
X200273202Y-108833202D01*
X200321054Y-108801228D01*
X200377500Y-108790000D01*
X200722500Y-108790000D01*
X200778946Y-108801228D01*
G37*
G36*
X195383946Y-101741228D02*
G01*
X195431798Y-101773202D01*
X195463772Y-101821054D01*
X195475000Y-101877500D01*
X195475000Y-102222500D01*
X195463772Y-102278946D01*
X195431798Y-102326798D01*
X195383946Y-102358772D01*
X195327500Y-102370000D01*
X195032500Y-102370000D01*
X194976054Y-102358772D01*
X194928202Y-102326798D01*
X194896228Y-102278946D01*
X194885000Y-102222500D01*
X194885000Y-101877500D01*
X194896228Y-101821054D01*
X194928202Y-101773202D01*
X194976054Y-101741228D01*
X195032500Y-101730000D01*
X195327500Y-101730000D01*
X195383946Y-101741228D01*
G37*
G36*
X196353946Y-101741228D02*
G01*
X196401798Y-101773202D01*
X196433772Y-101821054D01*
X196445000Y-101877500D01*
X196445000Y-102222500D01*
X196433772Y-102278946D01*
X196401798Y-102326798D01*
X196353946Y-102358772D01*
X196297500Y-102370000D01*
X196002500Y-102370000D01*
X195946054Y-102358772D01*
X195898202Y-102326798D01*
X195866228Y-102278946D01*
X195855000Y-102222500D01*
X195855000Y-101877500D01*
X195866228Y-101821054D01*
X195898202Y-101773202D01*
X195946054Y-101741228D01*
X196002500Y-101730000D01*
X196297500Y-101730000D01*
X196353946Y-101741228D01*
G37*
G36*
X196678946Y-92231228D02*
G01*
X196726798Y-92263202D01*
X196758772Y-92311054D01*
X196770000Y-92367500D01*
X196770000Y-92662500D01*
X196758772Y-92718946D01*
X196726798Y-92766798D01*
X196678946Y-92798772D01*
X196622500Y-92810000D01*
X196277500Y-92810000D01*
X196221054Y-92798772D01*
X196173202Y-92766798D01*
X196141228Y-92718946D01*
X196130000Y-92662500D01*
X196130000Y-92367500D01*
X196141228Y-92311054D01*
X196173202Y-92263202D01*
X196221054Y-92231228D01*
X196277500Y-92220000D01*
X196622500Y-92220000D01*
X196678946Y-92231228D01*
G37*
G36*
X196678946Y-93201228D02*
G01*
X196726798Y-93233202D01*
X196758772Y-93281054D01*
X196770000Y-93337500D01*
X196770000Y-93632500D01*
X196758772Y-93688946D01*
X196726798Y-93736798D01*
X196678946Y-93768772D01*
X196622500Y-93780000D01*
X196277500Y-93780000D01*
X196221054Y-93768772D01*
X196173202Y-93736798D01*
X196141228Y-93688946D01*
X196130000Y-93632500D01*
X196130000Y-93337500D01*
X196141228Y-93281054D01*
X196173202Y-93233202D01*
X196221054Y-93201228D01*
X196277500Y-93190000D01*
X196622500Y-93190000D01*
X196678946Y-93201228D01*
G37*
D10*
X198680000Y-90720000D03*
X201320000Y-90720000D03*
X201320000Y-93360000D03*
X198680000Y-93360000D03*
D11*
X200000000Y-92040000D03*
G36*
X197228946Y-97201228D02*
G01*
X197276798Y-97233202D01*
X197308772Y-97281054D01*
X197320000Y-97337500D01*
X197320000Y-97632500D01*
X197308772Y-97688946D01*
X197276798Y-97736798D01*
X197228946Y-97768772D01*
X197172500Y-97780000D01*
X196827500Y-97780000D01*
X196771054Y-97768772D01*
X196723202Y-97736798D01*
X196691228Y-97688946D01*
X196680000Y-97632500D01*
X196680000Y-97337500D01*
X196691228Y-97281054D01*
X196723202Y-97233202D01*
X196771054Y-97201228D01*
X196827500Y-97190000D01*
X197172500Y-97190000D01*
X197228946Y-97201228D01*
G37*
G36*
X197228946Y-96231228D02*
G01*
X197276798Y-96263202D01*
X197308772Y-96311054D01*
X197320000Y-96367500D01*
X197320000Y-96662500D01*
X197308772Y-96718946D01*
X197276798Y-96766798D01*
X197228946Y-96798772D01*
X197172500Y-96810000D01*
X196827500Y-96810000D01*
X196771054Y-96798772D01*
X196723202Y-96766798D01*
X196691228Y-96718946D01*
X196680000Y-96662500D01*
X196680000Y-96367500D01*
X196691228Y-96311054D01*
X196723202Y-96263202D01*
X196771054Y-96231228D01*
X196827500Y-96220000D01*
X197172500Y-96220000D01*
X197228946Y-96231228D01*
G37*
G36*
X194838946Y-93191228D02*
G01*
X194886798Y-93223202D01*
X194918772Y-93271054D01*
X194930000Y-93327500D01*
X194930000Y-93672500D01*
X194918772Y-93728946D01*
X194886798Y-93776798D01*
X194838946Y-93808772D01*
X194782500Y-93820000D01*
X194487500Y-93820000D01*
X194431054Y-93808772D01*
X194383202Y-93776798D01*
X194351228Y-93728946D01*
X194340000Y-93672500D01*
X194340000Y-93327500D01*
X194351228Y-93271054D01*
X194383202Y-93223202D01*
X194431054Y-93191228D01*
X194487500Y-93180000D01*
X194782500Y-93180000D01*
X194838946Y-93191228D01*
G37*
G36*
X193868946Y-93191228D02*
G01*
X193916798Y-93223202D01*
X193948772Y-93271054D01*
X193960000Y-93327500D01*
X193960000Y-93672500D01*
X193948772Y-93728946D01*
X193916798Y-93776798D01*
X193868946Y-93808772D01*
X193812500Y-93820000D01*
X193517500Y-93820000D01*
X193461054Y-93808772D01*
X193413202Y-93776798D01*
X193381228Y-93728946D01*
X193370000Y-93672500D01*
X193370000Y-93327500D01*
X193381228Y-93271054D01*
X193413202Y-93223202D01*
X193461054Y-93191228D01*
X193517500Y-93180000D01*
X193812500Y-93180000D01*
X193868946Y-93191228D01*
G37*
G36*
X208328946Y-95101228D02*
G01*
X208376798Y-95133202D01*
X208408772Y-95181054D01*
X208420000Y-95237500D01*
X208420000Y-95532500D01*
X208408772Y-95588946D01*
X208376798Y-95636798D01*
X208328946Y-95668772D01*
X208272500Y-95680000D01*
X207927500Y-95680000D01*
X207871054Y-95668772D01*
X207823202Y-95636798D01*
X207791228Y-95588946D01*
X207780000Y-95532500D01*
X207780000Y-95237500D01*
X207791228Y-95181054D01*
X207823202Y-95133202D01*
X207871054Y-95101228D01*
X207927500Y-95090000D01*
X208272500Y-95090000D01*
X208328946Y-95101228D01*
G37*
G36*
X208328946Y-94131228D02*
G01*
X208376798Y-94163202D01*
X208408772Y-94211054D01*
X208420000Y-94267500D01*
X208420000Y-94562500D01*
X208408772Y-94618946D01*
X208376798Y-94666798D01*
X208328946Y-94698772D01*
X208272500Y-94710000D01*
X207927500Y-94710000D01*
X207871054Y-94698772D01*
X207823202Y-94666798D01*
X207791228Y-94618946D01*
X207780000Y-94562500D01*
X207780000Y-94267500D01*
X207791228Y-94211054D01*
X207823202Y-94163202D01*
X207871054Y-94131228D01*
X207927500Y-94120000D01*
X208272500Y-94120000D01*
X208328946Y-94131228D01*
G37*
G36*
X197488946Y-107441228D02*
G01*
X197536798Y-107473202D01*
X197568772Y-107521054D01*
X197580000Y-107577500D01*
X197580000Y-107922500D01*
X197568772Y-107978946D01*
X197536798Y-108026798D01*
X197488946Y-108058772D01*
X197432500Y-108070000D01*
X197137500Y-108070000D01*
X197081054Y-108058772D01*
X197033202Y-108026798D01*
X197001228Y-107978946D01*
X196990000Y-107922500D01*
X196990000Y-107577500D01*
X197001228Y-107521054D01*
X197033202Y-107473202D01*
X197081054Y-107441228D01*
X197137500Y-107430000D01*
X197432500Y-107430000D01*
X197488946Y-107441228D01*
G37*
G36*
X196518946Y-107441228D02*
G01*
X196566798Y-107473202D01*
X196598772Y-107521054D01*
X196610000Y-107577500D01*
X196610000Y-107922500D01*
X196598772Y-107978946D01*
X196566798Y-108026798D01*
X196518946Y-108058772D01*
X196462500Y-108070000D01*
X196167500Y-108070000D01*
X196111054Y-108058772D01*
X196063202Y-108026798D01*
X196031228Y-107978946D01*
X196020000Y-107922500D01*
X196020000Y-107577500D01*
X196031228Y-107521054D01*
X196063202Y-107473202D01*
X196111054Y-107441228D01*
X196167500Y-107430000D01*
X196462500Y-107430000D01*
X196518946Y-107441228D01*
G37*
G36*
X199678946Y-107831228D02*
G01*
X199726798Y-107863202D01*
X199758772Y-107911054D01*
X199770000Y-107967500D01*
X199770000Y-108262500D01*
X199758772Y-108318946D01*
X199726798Y-108366798D01*
X199678946Y-108398772D01*
X199622500Y-108410000D01*
X199277500Y-108410000D01*
X199221054Y-108398772D01*
X199173202Y-108366798D01*
X199141228Y-108318946D01*
X199130000Y-108262500D01*
X199130000Y-107967500D01*
X199141228Y-107911054D01*
X199173202Y-107863202D01*
X199221054Y-107831228D01*
X199277500Y-107820000D01*
X199622500Y-107820000D01*
X199678946Y-107831228D01*
G37*
G36*
X199678946Y-108801228D02*
G01*
X199726798Y-108833202D01*
X199758772Y-108881054D01*
X199770000Y-108937500D01*
X199770000Y-109232500D01*
X199758772Y-109288946D01*
X199726798Y-109336798D01*
X199678946Y-109368772D01*
X199622500Y-109380000D01*
X199277500Y-109380000D01*
X199221054Y-109368772D01*
X199173202Y-109336798D01*
X199141228Y-109288946D01*
X199130000Y-109232500D01*
X199130000Y-108937500D01*
X199141228Y-108881054D01*
X199173202Y-108833202D01*
X199221054Y-108801228D01*
X199277500Y-108790000D01*
X199622500Y-108790000D01*
X199678946Y-108801228D01*
G37*
G36*
X198578946Y-107831228D02*
G01*
X198626798Y-107863202D01*
X198658772Y-107911054D01*
X198670000Y-107967500D01*
X198670000Y-108262500D01*
X198658772Y-108318946D01*
X198626798Y-108366798D01*
X198578946Y-108398772D01*
X198522500Y-108410000D01*
X198177500Y-108410000D01*
X198121054Y-108398772D01*
X198073202Y-108366798D01*
X198041228Y-108318946D01*
X198030000Y-108262500D01*
X198030000Y-107967500D01*
X198041228Y-107911054D01*
X198073202Y-107863202D01*
X198121054Y-107831228D01*
X198177500Y-107820000D01*
X198522500Y-107820000D01*
X198578946Y-107831228D01*
G37*
G36*
X198578946Y-108801228D02*
G01*
X198626798Y-108833202D01*
X198658772Y-108881054D01*
X198670000Y-108937500D01*
X198670000Y-109232500D01*
X198658772Y-109288946D01*
X198626798Y-109336798D01*
X198578946Y-109368772D01*
X198522500Y-109380000D01*
X198177500Y-109380000D01*
X198121054Y-109368772D01*
X198073202Y-109336798D01*
X198041228Y-109288946D01*
X198030000Y-109232500D01*
X198030000Y-108937500D01*
X198041228Y-108881054D01*
X198073202Y-108833202D01*
X198121054Y-108801228D01*
X198177500Y-108790000D01*
X198522500Y-108790000D01*
X198578946Y-108801228D01*
G37*
G36*
X204928946Y-99731228D02*
G01*
X204976798Y-99763202D01*
X205008772Y-99811054D01*
X205020000Y-99867500D01*
X205020000Y-100162500D01*
X205008772Y-100218946D01*
X204976798Y-100266798D01*
X204928946Y-100298772D01*
X204872500Y-100310000D01*
X204527500Y-100310000D01*
X204471054Y-100298772D01*
X204423202Y-100266798D01*
X204391228Y-100218946D01*
X204380000Y-100162500D01*
X204380000Y-99867500D01*
X204391228Y-99811054D01*
X204423202Y-99763202D01*
X204471054Y-99731228D01*
X204527500Y-99720000D01*
X204872500Y-99720000D01*
X204928946Y-99731228D01*
G37*
G36*
X204928946Y-100701228D02*
G01*
X204976798Y-100733202D01*
X205008772Y-100781054D01*
X205020000Y-100837500D01*
X205020000Y-101132500D01*
X205008772Y-101188946D01*
X204976798Y-101236798D01*
X204928946Y-101268772D01*
X204872500Y-101280000D01*
X204527500Y-101280000D01*
X204471054Y-101268772D01*
X204423202Y-101236798D01*
X204391228Y-101188946D01*
X204380000Y-101132500D01*
X204380000Y-100837500D01*
X204391228Y-100781054D01*
X204423202Y-100733202D01*
X204471054Y-100701228D01*
X204527500Y-100690000D01*
X204872500Y-100690000D01*
X204928946Y-100701228D01*
G37*
G36*
X195513946Y-104501228D02*
G01*
X195561798Y-104533202D01*
X195593772Y-104581054D01*
X195605000Y-104637500D01*
X195605000Y-104932500D01*
X195593772Y-104988946D01*
X195561798Y-105036798D01*
X195513946Y-105068772D01*
X195457500Y-105080000D01*
X195112500Y-105080000D01*
X195056054Y-105068772D01*
X195008202Y-105036798D01*
X194976228Y-104988946D01*
X194965000Y-104932500D01*
X194965000Y-104637500D01*
X194976228Y-104581054D01*
X195008202Y-104533202D01*
X195056054Y-104501228D01*
X195112500Y-104490000D01*
X195457500Y-104490000D01*
X195513946Y-104501228D01*
G37*
G36*
X195513946Y-103531228D02*
G01*
X195561798Y-103563202D01*
X195593772Y-103611054D01*
X195605000Y-103667500D01*
X195605000Y-103962500D01*
X195593772Y-104018946D01*
X195561798Y-104066798D01*
X195513946Y-104098772D01*
X195457500Y-104110000D01*
X195112500Y-104110000D01*
X195056054Y-104098772D01*
X195008202Y-104066798D01*
X194976228Y-104018946D01*
X194965000Y-103962500D01*
X194965000Y-103667500D01*
X194976228Y-103611054D01*
X195008202Y-103563202D01*
X195056054Y-103531228D01*
X195112500Y-103520000D01*
X195457500Y-103520000D01*
X195513946Y-103531228D01*
G37*
G36*
X196353946Y-100691228D02*
G01*
X196401798Y-100723202D01*
X196433772Y-100771054D01*
X196445000Y-100827500D01*
X196445000Y-101172500D01*
X196433772Y-101228946D01*
X196401798Y-101276798D01*
X196353946Y-101308772D01*
X196297500Y-101320000D01*
X196002500Y-101320000D01*
X195946054Y-101308772D01*
X195898202Y-101276798D01*
X195866228Y-101228946D01*
X195855000Y-101172500D01*
X195855000Y-100827500D01*
X195866228Y-100771054D01*
X195898202Y-100723202D01*
X195946054Y-100691228D01*
X196002500Y-100680000D01*
X196297500Y-100680000D01*
X196353946Y-100691228D01*
G37*
G36*
X195383946Y-100691228D02*
G01*
X195431798Y-100723202D01*
X195463772Y-100771054D01*
X195475000Y-100827500D01*
X195475000Y-101172500D01*
X195463772Y-101228946D01*
X195431798Y-101276798D01*
X195383946Y-101308772D01*
X195327500Y-101320000D01*
X195032500Y-101320000D01*
X194976054Y-101308772D01*
X194928202Y-101276798D01*
X194896228Y-101228946D01*
X194885000Y-101172500D01*
X194885000Y-100827500D01*
X194896228Y-100771054D01*
X194928202Y-100723202D01*
X194976054Y-100691228D01*
X195032500Y-100680000D01*
X195327500Y-100680000D01*
X195383946Y-100691228D01*
G37*
G36*
X203618946Y-102231228D02*
G01*
X203666798Y-102263202D01*
X203698772Y-102311054D01*
X203710000Y-102367500D01*
X203710000Y-102662500D01*
X203698772Y-102718946D01*
X203666798Y-102766798D01*
X203618946Y-102798772D01*
X203562500Y-102810000D01*
X203217500Y-102810000D01*
X203161054Y-102798772D01*
X203113202Y-102766798D01*
X203081228Y-102718946D01*
X203070000Y-102662500D01*
X203070000Y-102367500D01*
X203081228Y-102311054D01*
X203113202Y-102263202D01*
X203161054Y-102231228D01*
X203217500Y-102220000D01*
X203562500Y-102220000D01*
X203618946Y-102231228D01*
G37*
G36*
X203618946Y-103201228D02*
G01*
X203666798Y-103233202D01*
X203698772Y-103281054D01*
X203710000Y-103337500D01*
X203710000Y-103632500D01*
X203698772Y-103688946D01*
X203666798Y-103736798D01*
X203618946Y-103768772D01*
X203562500Y-103780000D01*
X203217500Y-103780000D01*
X203161054Y-103768772D01*
X203113202Y-103736798D01*
X203081228Y-103688946D01*
X203070000Y-103632500D01*
X203070000Y-103337500D01*
X203081228Y-103281054D01*
X203113202Y-103233202D01*
X203161054Y-103201228D01*
X203217500Y-103190000D01*
X203562500Y-103190000D01*
X203618946Y-103201228D01*
G37*
D12*
X195600001Y-95242400D03*
X194650000Y-95242400D03*
X193699999Y-95242400D03*
X193699999Y-97477600D03*
X195600001Y-97477600D03*
X196399999Y-106167600D03*
X197350000Y-106167600D03*
X198300001Y-106167600D03*
X198300001Y-103932400D03*
X197350000Y-103932400D03*
X196399999Y-103932400D03*
G36*
X191189962Y-97541651D02*
G01*
X191260930Y-97589070D01*
X191308349Y-97660038D01*
X191325000Y-97743750D01*
X191325000Y-98181250D01*
X191308349Y-98264962D01*
X191260930Y-98335930D01*
X191189962Y-98383349D01*
X191106250Y-98400000D01*
X190593750Y-98400000D01*
X190510038Y-98383349D01*
X190439070Y-98335930D01*
X190391651Y-98264962D01*
X190375000Y-98181250D01*
X190375000Y-97743750D01*
X190391651Y-97660038D01*
X190439070Y-97589070D01*
X190510038Y-97541651D01*
X190593750Y-97525000D01*
X191106250Y-97525000D01*
X191189962Y-97541651D01*
G37*
G36*
X191189962Y-99116651D02*
G01*
X191260930Y-99164070D01*
X191308349Y-99235038D01*
X191325000Y-99318750D01*
X191325000Y-99756250D01*
X191308349Y-99839962D01*
X191260930Y-99910930D01*
X191189962Y-99958349D01*
X191106250Y-99975000D01*
X190593750Y-99975000D01*
X190510038Y-99958349D01*
X190439070Y-99910930D01*
X190391651Y-99839962D01*
X190375000Y-99756250D01*
X190375000Y-99318750D01*
X190391651Y-99235038D01*
X190439070Y-99164070D01*
X190510038Y-99116651D01*
X190593750Y-99100000D01*
X191106250Y-99100000D01*
X191189962Y-99116651D01*
G37*
G36*
X205489529Y-106268554D02*
G01*
X205568607Y-106321393D01*
X205621446Y-106400471D01*
X205640000Y-106493750D01*
X205640000Y-106981250D01*
X205621446Y-107074529D01*
X205568607Y-107153607D01*
X205489529Y-107206446D01*
X205396250Y-107225000D01*
X204483750Y-107225000D01*
X204390471Y-107206446D01*
X204311393Y-107153607D01*
X204258554Y-107074529D01*
X204240000Y-106981250D01*
X204240000Y-106493750D01*
X204258554Y-106400471D01*
X204311393Y-106321393D01*
X204390471Y-106268554D01*
X204483750Y-106250000D01*
X205396250Y-106250000D01*
X205489529Y-106268554D01*
G37*
G36*
X205489529Y-104393554D02*
G01*
X205568607Y-104446393D01*
X205621446Y-104525471D01*
X205640000Y-104618750D01*
X205640000Y-105106250D01*
X205621446Y-105199529D01*
X205568607Y-105278607D01*
X205489529Y-105331446D01*
X205396250Y-105350000D01*
X204483750Y-105350000D01*
X204390471Y-105331446D01*
X204311393Y-105278607D01*
X204258554Y-105199529D01*
X204240000Y-105106250D01*
X204240000Y-104618750D01*
X204258554Y-104525471D01*
X204311393Y-104446393D01*
X204390471Y-104393554D01*
X204483750Y-104375000D01*
X205396250Y-104375000D01*
X205489529Y-104393554D01*
G37*
M02*
