G04 #@! TF.GenerationSoftware,KiCad,Pcbnew,5.99.0-unknown-4135f0c~100~ubuntu18.04.1*
G04 #@! TF.CreationDate,2019-11-01T15:59:20-04:00*
G04 #@! TF.ProjectId,tia,7469612e-6b69-4636-9164-5f7063625858,rev?*
G04 #@! TF.SameCoordinates,Original*
G04 #@! TF.FileFunction,Copper,L2,Bot*
G04 #@! TF.FilePolarity,Positive*
%FSLAX46Y46*%
G04 Gerber Fmt 4.6, Leading zero omitted, Abs format (unit mm)*
G04 Created by KiCad (PCBNEW 5.99.0-unknown-4135f0c~100~ubuntu18.04.1) date 2019-11-01 15:59:20*
%MOMM*%
%LPD*%
G04 APERTURE LIST*
%ADD10C,0.270000*%
%ADD11O,1.700000X1.700000*%
%ADD12R,1.700000X1.700000*%
%ADD13C,0.600000*%
%ADD14C,0.200000*%
G04 APERTURE END LIST*
D10*
X201260000Y-98740000D03*
X201260000Y-100000000D03*
X201260000Y-101260000D03*
X200000000Y-98740000D03*
X198740000Y-98740000D03*
X198740000Y-100000000D03*
X200000000Y-101260000D03*
X198740000Y-101260000D03*
D11*
X209140000Y-102580000D03*
X206600000Y-102580000D03*
X209140000Y-100040000D03*
X206600000Y-100040000D03*
X209140000Y-97500000D03*
D12*
X206600000Y-97500000D03*
D13*
X198700000Y-93400000D03*
X201300000Y-93400000D03*
X201300000Y-90700000D03*
X198700000Y-90700000D03*
X203610000Y-101000000D03*
X209080000Y-94900000D03*
X203480000Y-106700000D03*
X202520000Y-103450000D03*
X192950000Y-93750000D03*
X197350000Y-109100000D03*
X197750000Y-96550000D03*
X195400000Y-107750000D03*
X190850000Y-96850000D03*
X195300000Y-102950000D03*
X204450000Y-91350000D03*
X203400000Y-97150000D03*
X197950000Y-98400000D03*
X195850000Y-99300000D03*
X192250000Y-101850000D03*
X192100000Y-105100000D03*
X200500000Y-105650000D03*
X210350000Y-98800000D03*
X207250000Y-107400000D03*
X195350000Y-91000000D03*
X202550000Y-99600000D03*
X197460000Y-100000000D03*
D14*
X201690000Y-98740000D02*
X201260000Y-98740000D01*
X202550000Y-99600000D02*
X201690000Y-98740000D01*
X201260000Y-98930918D02*
X201260000Y-98740000D01*
X198930918Y-101260000D02*
X201260000Y-98930918D01*
X198740000Y-101260000D02*
X198930918Y-101260000D01*
X198740000Y-100000000D02*
X197460000Y-100000000D01*
G36*
X200616278Y-89311771D02*
G01*
X201249069Y-89367132D01*
X201877471Y-89459927D01*
X202499256Y-89589825D01*
X203112260Y-89756374D01*
X203714289Y-89958980D01*
X204303242Y-90196932D01*
X204877057Y-90469399D01*
X205433694Y-90775412D01*
X205971210Y-91113905D01*
X206487702Y-91483676D01*
X206981352Y-91883427D01*
X207450433Y-92311757D01*
X207893275Y-92767141D01*
X208308339Y-93247996D01*
X208694148Y-93752614D01*
X209049363Y-94279243D01*
X209372704Y-94825982D01*
X209663061Y-95390956D01*
X209919397Y-95972146D01*
X210140818Y-96567529D01*
X210326534Y-97174981D01*
X210475900Y-97792387D01*
X210588383Y-98417542D01*
X210663597Y-99048302D01*
X210701017Y-99678159D01*
X210490087Y-102138563D01*
X210346006Y-102752854D01*
X210164533Y-103361591D01*
X209947276Y-103958502D01*
X209695000Y-104541476D01*
X209408598Y-105108456D01*
X209089076Y-105657449D01*
X208737557Y-106186529D01*
X208355269Y-106693842D01*
X207943578Y-107177577D01*
X207503926Y-107636042D01*
X207037848Y-108067635D01*
X206547001Y-108470821D01*
X206033094Y-108844197D01*
X205497959Y-109186430D01*
X204943483Y-109496315D01*
X204371571Y-109772789D01*
X203784290Y-110014849D01*
X203183695Y-110221650D01*
X202571875Y-110392473D01*
X201951021Y-110526707D01*
X201323274Y-110623887D01*
X200690880Y-110683666D01*
X200056044Y-110705835D01*
X199421044Y-110690316D01*
X198788047Y-110637162D01*
X198159330Y-110546562D01*
X197537095Y-110418835D01*
X196923521Y-110254429D01*
X196320779Y-110053923D01*
X195731004Y-109818030D01*
X195156234Y-109547564D01*
X194598547Y-109243503D01*
X194059849Y-108906887D01*
X193542059Y-108538912D01*
X193047025Y-108140894D01*
X192576457Y-107714211D01*
X192132012Y-107260359D01*
X191715282Y-106780965D01*
X191327708Y-106277689D01*
X190970666Y-105752320D01*
X190645415Y-105206705D01*
X190353084Y-104642741D01*
X190094722Y-104062450D01*
X189871230Y-103467861D01*
X189683388Y-102861038D01*
X189638089Y-102676611D01*
X205449494Y-102676611D01*
X205490171Y-102898238D01*
X205573121Y-103107745D01*
X205695183Y-103297150D01*
X205851710Y-103459238D01*
X206036739Y-103587837D01*
X206243223Y-103678047D01*
X206463296Y-103726433D01*
X206688577Y-103731152D01*
X206910483Y-103692024D01*
X207120563Y-103610539D01*
X207310815Y-103489801D01*
X207473992Y-103334410D01*
X207603880Y-103150283D01*
X207695529Y-102944434D01*
X207745605Y-102724024D01*
X207747252Y-102606000D01*
X207938330Y-102606000D01*
X207956490Y-102803626D01*
X208020128Y-103023389D01*
X208124175Y-103227152D01*
X208264875Y-103407565D01*
X208437152Y-103558116D01*
X208634790Y-103673375D01*
X208850657Y-103749182D01*
X209114000Y-103788303D01*
X209114000Y-102606000D01*
X209166000Y-102606000D01*
X209166000Y-103778993D01*
X209305546Y-103773022D01*
X209528154Y-103720194D01*
X209736756Y-103626225D01*
X209923826Y-103494506D01*
X210082614Y-103329790D01*
X210207391Y-103138019D01*
X210293652Y-102926112D01*
X210357326Y-102606000D01*
X209166000Y-102606000D01*
X209114000Y-102606000D01*
X207938330Y-102606000D01*
X207747252Y-102606000D01*
X207747979Y-102554000D01*
X207937711Y-102554000D01*
X209114000Y-102554000D01*
X209166000Y-102554000D01*
X210355849Y-102554000D01*
X210296040Y-102241950D01*
X210211260Y-102029447D01*
X210087826Y-101836810D01*
X209930192Y-101670989D01*
X209744046Y-101537966D01*
X209536105Y-101442543D01*
X209313870Y-101388163D01*
X209166000Y-101380803D01*
X209166000Y-102554000D01*
X209114000Y-102554000D01*
X209114000Y-101372737D01*
X208858826Y-101408826D01*
X208642435Y-101483125D01*
X208443998Y-101597002D01*
X208270674Y-101746347D01*
X208128718Y-101925773D01*
X208023251Y-102128805D01*
X207958080Y-102348117D01*
X207937711Y-102554000D01*
X207747979Y-102554000D01*
X207749181Y-102468020D01*
X207705278Y-102246296D01*
X207619411Y-102037969D01*
X207494715Y-101850288D01*
X207335941Y-101690401D01*
X207149135Y-101564397D01*
X206941411Y-101477079D01*
X206720684Y-101431770D01*
X206495359Y-101430197D01*
X206274021Y-101472420D01*
X206065100Y-101556829D01*
X205876552Y-101680212D01*
X205715560Y-101837867D01*
X205588256Y-102023789D01*
X205499490Y-102230898D01*
X205452640Y-102451302D01*
X205449494Y-102676611D01*
X189638089Y-102676611D01*
X189531873Y-102244182D01*
X189417202Y-101619389D01*
X189363679Y-101183475D01*
X198306001Y-101183475D01*
X198306001Y-101336525D01*
X198358348Y-101480347D01*
X198456727Y-101597591D01*
X198589274Y-101674117D01*
X198740000Y-101700694D01*
X198890726Y-101674117D01*
X198908263Y-101663992D01*
X198953122Y-101659000D01*
X198975887Y-101659000D01*
X198997575Y-101654053D01*
X199065553Y-101646488D01*
X199085450Y-101634007D01*
X199108397Y-101628772D01*
X199162416Y-101585726D01*
X199181319Y-101573869D01*
X199197099Y-101558089D01*
X199250761Y-101515329D01*
X199260919Y-101494271D01*
X199566001Y-101189189D01*
X199566001Y-101336525D01*
X199618348Y-101480347D01*
X199716727Y-101597591D01*
X199849274Y-101674117D01*
X200000000Y-101700694D01*
X200150726Y-101674117D01*
X200283273Y-101597591D01*
X200381652Y-101480347D01*
X200433999Y-101336525D01*
X200433999Y-101183475D01*
X200826001Y-101183475D01*
X200826001Y-101336525D01*
X200878348Y-101480347D01*
X200976727Y-101597591D01*
X201109274Y-101674117D01*
X201260000Y-101700694D01*
X201410726Y-101674117D01*
X201543273Y-101597591D01*
X201641652Y-101480347D01*
X201693999Y-101336525D01*
X201693999Y-101183475D01*
X201641652Y-101039653D01*
X201543273Y-100922409D01*
X201410726Y-100845883D01*
X201260000Y-100819306D01*
X201109274Y-100845883D01*
X200976727Y-100922409D01*
X200878348Y-101039653D01*
X200826001Y-101183475D01*
X200433999Y-101183475D01*
X200381652Y-101039653D01*
X200283273Y-100922409D01*
X200150726Y-100845883D01*
X200000000Y-100819306D01*
X199922158Y-100833032D01*
X200826001Y-99929189D01*
X200826001Y-100076525D01*
X200878348Y-100220347D01*
X200976727Y-100337591D01*
X201109274Y-100414117D01*
X201260000Y-100440694D01*
X201410726Y-100414117D01*
X201543273Y-100337591D01*
X201641652Y-100220347D01*
X201693999Y-100076525D01*
X201693999Y-99923475D01*
X201641652Y-99779653D01*
X201543273Y-99662409D01*
X201410726Y-99585883D01*
X201260000Y-99559306D01*
X201182158Y-99573032D01*
X201494021Y-99261169D01*
X201514768Y-99251206D01*
X201557833Y-99197357D01*
X201570460Y-99184730D01*
X201951000Y-99565271D01*
X201951000Y-99705620D01*
X202023249Y-99904119D01*
X202159030Y-100065939D01*
X202341970Y-100171559D01*
X202550000Y-100208240D01*
X202758030Y-100171559D01*
X202818561Y-100136611D01*
X205449494Y-100136611D01*
X205490171Y-100358238D01*
X205573121Y-100567745D01*
X205695183Y-100757150D01*
X205851710Y-100919238D01*
X206036739Y-101047837D01*
X206243223Y-101138047D01*
X206463296Y-101186433D01*
X206688577Y-101191152D01*
X206910483Y-101152024D01*
X207120563Y-101070539D01*
X207310815Y-100949801D01*
X207473992Y-100794410D01*
X207603880Y-100610283D01*
X207695529Y-100404434D01*
X207745605Y-100184024D01*
X207746267Y-100136611D01*
X207989494Y-100136611D01*
X208030171Y-100358238D01*
X208113121Y-100567745D01*
X208235183Y-100757150D01*
X208391710Y-100919238D01*
X208576739Y-101047837D01*
X208783223Y-101138047D01*
X209003296Y-101186433D01*
X209228577Y-101191152D01*
X209450483Y-101152024D01*
X209660563Y-101070539D01*
X209850815Y-100949801D01*
X210013992Y-100794410D01*
X210143880Y-100610283D01*
X210235529Y-100404434D01*
X210285605Y-100184024D01*
X210289181Y-99928020D01*
X210245278Y-99706296D01*
X210159411Y-99497969D01*
X210034715Y-99310288D01*
X209875941Y-99150401D01*
X209689135Y-99024397D01*
X209481411Y-98937079D01*
X209260684Y-98891770D01*
X209035359Y-98890197D01*
X208814021Y-98932420D01*
X208605100Y-99016829D01*
X208416552Y-99140212D01*
X208255560Y-99297867D01*
X208128256Y-99483789D01*
X208039490Y-99690898D01*
X207992640Y-99911302D01*
X207989494Y-100136611D01*
X207746267Y-100136611D01*
X207749181Y-99928020D01*
X207705278Y-99706296D01*
X207619411Y-99497969D01*
X207494715Y-99310288D01*
X207335941Y-99150401D01*
X207149135Y-99024397D01*
X206941411Y-98937079D01*
X206720684Y-98891770D01*
X206495359Y-98890197D01*
X206274021Y-98932420D01*
X206065100Y-99016829D01*
X205876552Y-99140212D01*
X205715560Y-99297867D01*
X205588256Y-99483789D01*
X205499490Y-99690898D01*
X205452640Y-99911302D01*
X205449494Y-100136611D01*
X202818561Y-100136611D01*
X202940970Y-100065939D01*
X203076751Y-99904119D01*
X203149000Y-99705620D01*
X203149000Y-99494380D01*
X203076751Y-99295881D01*
X202940970Y-99134061D01*
X202758030Y-99028441D01*
X202550000Y-98991760D01*
X202512622Y-98998351D01*
X202020253Y-98505982D01*
X202010288Y-98485231D01*
X201956431Y-98442160D01*
X201940336Y-98426066D01*
X201921514Y-98414237D01*
X201868087Y-98371509D01*
X201845188Y-98366264D01*
X201825264Y-98353742D01*
X201756641Y-98345985D01*
X201734878Y-98341000D01*
X201712551Y-98341000D01*
X201644380Y-98333293D01*
X201622310Y-98341000D01*
X201436909Y-98341000D01*
X201410727Y-98325883D01*
X201260000Y-98299306D01*
X201109274Y-98325883D01*
X200976727Y-98402409D01*
X200878348Y-98519653D01*
X200826001Y-98663475D01*
X200826001Y-98800645D01*
X198797246Y-100829400D01*
X198740000Y-100819306D01*
X198589274Y-100845883D01*
X198456727Y-100922409D01*
X198358348Y-101039653D01*
X198306001Y-101183475D01*
X189363679Y-101183475D01*
X189339791Y-100988925D01*
X189299904Y-100354947D01*
X189298297Y-99894380D01*
X196861000Y-99894380D01*
X196861000Y-100105620D01*
X196933249Y-100304119D01*
X197069030Y-100465939D01*
X197251970Y-100571559D01*
X197460000Y-100608240D01*
X197668030Y-100571559D01*
X197850970Y-100465939D01*
X197907138Y-100399000D01*
X198563091Y-100399000D01*
X198589273Y-100414117D01*
X198740000Y-100440694D01*
X198890726Y-100414117D01*
X199023273Y-100337591D01*
X199121652Y-100220347D01*
X199173999Y-100076525D01*
X199173999Y-99923475D01*
X199121652Y-99779653D01*
X199023273Y-99662409D01*
X198890726Y-99585883D01*
X198740000Y-99559306D01*
X198589273Y-99585883D01*
X198563091Y-99601000D01*
X197907138Y-99601000D01*
X197850970Y-99534061D01*
X197668030Y-99428441D01*
X197460000Y-99391760D01*
X197251970Y-99428441D01*
X197069030Y-99534061D01*
X196933249Y-99695881D01*
X196861000Y-99894380D01*
X189298297Y-99894380D01*
X189297687Y-99719762D01*
X189333146Y-99085524D01*
X189381979Y-98663475D01*
X198306001Y-98663475D01*
X198306001Y-98816525D01*
X198358348Y-98960347D01*
X198456727Y-99077591D01*
X198589274Y-99154117D01*
X198740000Y-99180694D01*
X198890726Y-99154117D01*
X199023273Y-99077591D01*
X199121652Y-98960347D01*
X199173999Y-98816525D01*
X199173999Y-98663475D01*
X199566001Y-98663475D01*
X199566001Y-98816525D01*
X199618348Y-98960347D01*
X199716727Y-99077591D01*
X199849274Y-99154117D01*
X200000000Y-99180694D01*
X200150726Y-99154117D01*
X200283273Y-99077591D01*
X200381652Y-98960347D01*
X200433999Y-98816525D01*
X200433999Y-98663475D01*
X200381652Y-98519653D01*
X200283273Y-98402409D01*
X200150726Y-98325883D01*
X200000000Y-98299306D01*
X199849274Y-98325883D01*
X199716727Y-98402409D01*
X199618348Y-98519653D01*
X199566001Y-98663475D01*
X199173999Y-98663475D01*
X199121652Y-98519653D01*
X199023273Y-98402409D01*
X198890726Y-98325883D01*
X198740000Y-98299306D01*
X198589274Y-98325883D01*
X198456727Y-98402409D01*
X198358348Y-98519653D01*
X198306001Y-98663475D01*
X189381979Y-98663475D01*
X189406156Y-98454524D01*
X189516458Y-97828966D01*
X189663668Y-97211046D01*
X189836001Y-96640250D01*
X205447082Y-96640250D01*
X205447082Y-98359750D01*
X205468348Y-98466664D01*
X205534433Y-98565567D01*
X205633336Y-98631652D01*
X205740250Y-98652918D01*
X207459750Y-98652918D01*
X207566664Y-98631652D01*
X207665567Y-98565567D01*
X207731652Y-98466664D01*
X207752918Y-98359750D01*
X207752918Y-97596611D01*
X207989494Y-97596611D01*
X208030171Y-97818238D01*
X208113121Y-98027745D01*
X208235183Y-98217150D01*
X208391710Y-98379238D01*
X208576739Y-98507837D01*
X208783223Y-98598047D01*
X209003296Y-98646433D01*
X209228577Y-98651152D01*
X209450483Y-98612024D01*
X209660563Y-98530539D01*
X209850815Y-98409801D01*
X210013992Y-98254410D01*
X210143880Y-98070283D01*
X210235529Y-97864434D01*
X210285605Y-97644024D01*
X210289181Y-97388020D01*
X210245278Y-97166296D01*
X210159411Y-96957969D01*
X210034715Y-96770288D01*
X209875941Y-96610401D01*
X209689135Y-96484397D01*
X209481411Y-96397079D01*
X209260684Y-96351770D01*
X209035359Y-96350197D01*
X208814021Y-96392420D01*
X208605100Y-96476829D01*
X208416552Y-96600212D01*
X208255560Y-96757867D01*
X208128256Y-96943789D01*
X208039490Y-97150898D01*
X207992640Y-97371302D01*
X207989494Y-97596611D01*
X207752918Y-97596611D01*
X207752918Y-96640250D01*
X207731652Y-96533336D01*
X207665567Y-96434433D01*
X207566664Y-96368348D01*
X207459750Y-96347082D01*
X205740250Y-96347082D01*
X205633336Y-96368348D01*
X205534433Y-96434433D01*
X205468348Y-96533336D01*
X205447082Y-96640250D01*
X189836001Y-96640250D01*
X189847265Y-96602943D01*
X190066603Y-96006799D01*
X190320909Y-95424716D01*
X190609293Y-94858731D01*
X190930732Y-94310850D01*
X191284094Y-93783004D01*
X191668133Y-93277050D01*
X192081526Y-92794738D01*
X192522775Y-92337811D01*
X192990358Y-91907847D01*
X193482620Y-91506368D01*
X193997812Y-91134799D01*
X194534138Y-90794437D01*
X195089703Y-90486482D01*
X195662563Y-90212013D01*
X196250687Y-89972005D01*
X196852011Y-89767297D01*
X197464403Y-89598616D01*
X198085751Y-89466545D01*
X198713811Y-89371559D01*
X199346426Y-89313987D01*
X199981319Y-89294034D01*
X200616278Y-89311771D01*
G37*
X200616278Y-89311771D02*
X201249069Y-89367132D01*
X201877471Y-89459927D01*
X202499256Y-89589825D01*
X203112260Y-89756374D01*
X203714289Y-89958980D01*
X204303242Y-90196932D01*
X204877057Y-90469399D01*
X205433694Y-90775412D01*
X205971210Y-91113905D01*
X206487702Y-91483676D01*
X206981352Y-91883427D01*
X207450433Y-92311757D01*
X207893275Y-92767141D01*
X208308339Y-93247996D01*
X208694148Y-93752614D01*
X209049363Y-94279243D01*
X209372704Y-94825982D01*
X209663061Y-95390956D01*
X209919397Y-95972146D01*
X210140818Y-96567529D01*
X210326534Y-97174981D01*
X210475900Y-97792387D01*
X210588383Y-98417542D01*
X210663597Y-99048302D01*
X210701017Y-99678159D01*
X210490087Y-102138563D01*
X210346006Y-102752854D01*
X210164533Y-103361591D01*
X209947276Y-103958502D01*
X209695000Y-104541476D01*
X209408598Y-105108456D01*
X209089076Y-105657449D01*
X208737557Y-106186529D01*
X208355269Y-106693842D01*
X207943578Y-107177577D01*
X207503926Y-107636042D01*
X207037848Y-108067635D01*
X206547001Y-108470821D01*
X206033094Y-108844197D01*
X205497959Y-109186430D01*
X204943483Y-109496315D01*
X204371571Y-109772789D01*
X203784290Y-110014849D01*
X203183695Y-110221650D01*
X202571875Y-110392473D01*
X201951021Y-110526707D01*
X201323274Y-110623887D01*
X200690880Y-110683666D01*
X200056044Y-110705835D01*
X199421044Y-110690316D01*
X198788047Y-110637162D01*
X198159330Y-110546562D01*
X197537095Y-110418835D01*
X196923521Y-110254429D01*
X196320779Y-110053923D01*
X195731004Y-109818030D01*
X195156234Y-109547564D01*
X194598547Y-109243503D01*
X194059849Y-108906887D01*
X193542059Y-108538912D01*
X193047025Y-108140894D01*
X192576457Y-107714211D01*
X192132012Y-107260359D01*
X191715282Y-106780965D01*
X191327708Y-106277689D01*
X190970666Y-105752320D01*
X190645415Y-105206705D01*
X190353084Y-104642741D01*
X190094722Y-104062450D01*
X189871230Y-103467861D01*
X189683388Y-102861038D01*
X189638089Y-102676611D01*
X205449494Y-102676611D01*
X205490171Y-102898238D01*
X205573121Y-103107745D01*
X205695183Y-103297150D01*
X205851710Y-103459238D01*
X206036739Y-103587837D01*
X206243223Y-103678047D01*
X206463296Y-103726433D01*
X206688577Y-103731152D01*
X206910483Y-103692024D01*
X207120563Y-103610539D01*
X207310815Y-103489801D01*
X207473992Y-103334410D01*
X207603880Y-103150283D01*
X207695529Y-102944434D01*
X207745605Y-102724024D01*
X207747252Y-102606000D01*
X207938330Y-102606000D01*
X207956490Y-102803626D01*
X208020128Y-103023389D01*
X208124175Y-103227152D01*
X208264875Y-103407565D01*
X208437152Y-103558116D01*
X208634790Y-103673375D01*
X208850657Y-103749182D01*
X209114000Y-103788303D01*
X209114000Y-102606000D01*
X209166000Y-102606000D01*
X209166000Y-103778993D01*
X209305546Y-103773022D01*
X209528154Y-103720194D01*
X209736756Y-103626225D01*
X209923826Y-103494506D01*
X210082614Y-103329790D01*
X210207391Y-103138019D01*
X210293652Y-102926112D01*
X210357326Y-102606000D01*
X209166000Y-102606000D01*
X209114000Y-102606000D01*
X207938330Y-102606000D01*
X207747252Y-102606000D01*
X207747979Y-102554000D01*
X207937711Y-102554000D01*
X209114000Y-102554000D01*
X209166000Y-102554000D01*
X210355849Y-102554000D01*
X210296040Y-102241950D01*
X210211260Y-102029447D01*
X210087826Y-101836810D01*
X209930192Y-101670989D01*
X209744046Y-101537966D01*
X209536105Y-101442543D01*
X209313870Y-101388163D01*
X209166000Y-101380803D01*
X209166000Y-102554000D01*
X209114000Y-102554000D01*
X209114000Y-101372737D01*
X208858826Y-101408826D01*
X208642435Y-101483125D01*
X208443998Y-101597002D01*
X208270674Y-101746347D01*
X208128718Y-101925773D01*
X208023251Y-102128805D01*
X207958080Y-102348117D01*
X207937711Y-102554000D01*
X207747979Y-102554000D01*
X207749181Y-102468020D01*
X207705278Y-102246296D01*
X207619411Y-102037969D01*
X207494715Y-101850288D01*
X207335941Y-101690401D01*
X207149135Y-101564397D01*
X206941411Y-101477079D01*
X206720684Y-101431770D01*
X206495359Y-101430197D01*
X206274021Y-101472420D01*
X206065100Y-101556829D01*
X205876552Y-101680212D01*
X205715560Y-101837867D01*
X205588256Y-102023789D01*
X205499490Y-102230898D01*
X205452640Y-102451302D01*
X205449494Y-102676611D01*
X189638089Y-102676611D01*
X189531873Y-102244182D01*
X189417202Y-101619389D01*
X189363679Y-101183475D01*
X198306001Y-101183475D01*
X198306001Y-101336525D01*
X198358348Y-101480347D01*
X198456727Y-101597591D01*
X198589274Y-101674117D01*
X198740000Y-101700694D01*
X198890726Y-101674117D01*
X198908263Y-101663992D01*
X198953122Y-101659000D01*
X198975887Y-101659000D01*
X198997575Y-101654053D01*
X199065553Y-101646488D01*
X199085450Y-101634007D01*
X199108397Y-101628772D01*
X199162416Y-101585726D01*
X199181319Y-101573869D01*
X199197099Y-101558089D01*
X199250761Y-101515329D01*
X199260919Y-101494271D01*
X199566001Y-101189189D01*
X199566001Y-101336525D01*
X199618348Y-101480347D01*
X199716727Y-101597591D01*
X199849274Y-101674117D01*
X200000000Y-101700694D01*
X200150726Y-101674117D01*
X200283273Y-101597591D01*
X200381652Y-101480347D01*
X200433999Y-101336525D01*
X200433999Y-101183475D01*
X200826001Y-101183475D01*
X200826001Y-101336525D01*
X200878348Y-101480347D01*
X200976727Y-101597591D01*
X201109274Y-101674117D01*
X201260000Y-101700694D01*
X201410726Y-101674117D01*
X201543273Y-101597591D01*
X201641652Y-101480347D01*
X201693999Y-101336525D01*
X201693999Y-101183475D01*
X201641652Y-101039653D01*
X201543273Y-100922409D01*
X201410726Y-100845883D01*
X201260000Y-100819306D01*
X201109274Y-100845883D01*
X200976727Y-100922409D01*
X200878348Y-101039653D01*
X200826001Y-101183475D01*
X200433999Y-101183475D01*
X200381652Y-101039653D01*
X200283273Y-100922409D01*
X200150726Y-100845883D01*
X200000000Y-100819306D01*
X199922158Y-100833032D01*
X200826001Y-99929189D01*
X200826001Y-100076525D01*
X200878348Y-100220347D01*
X200976727Y-100337591D01*
X201109274Y-100414117D01*
X201260000Y-100440694D01*
X201410726Y-100414117D01*
X201543273Y-100337591D01*
X201641652Y-100220347D01*
X201693999Y-100076525D01*
X201693999Y-99923475D01*
X201641652Y-99779653D01*
X201543273Y-99662409D01*
X201410726Y-99585883D01*
X201260000Y-99559306D01*
X201182158Y-99573032D01*
X201494021Y-99261169D01*
X201514768Y-99251206D01*
X201557833Y-99197357D01*
X201570460Y-99184730D01*
X201951000Y-99565271D01*
X201951000Y-99705620D01*
X202023249Y-99904119D01*
X202159030Y-100065939D01*
X202341970Y-100171559D01*
X202550000Y-100208240D01*
X202758030Y-100171559D01*
X202818561Y-100136611D01*
X205449494Y-100136611D01*
X205490171Y-100358238D01*
X205573121Y-100567745D01*
X205695183Y-100757150D01*
X205851710Y-100919238D01*
X206036739Y-101047837D01*
X206243223Y-101138047D01*
X206463296Y-101186433D01*
X206688577Y-101191152D01*
X206910483Y-101152024D01*
X207120563Y-101070539D01*
X207310815Y-100949801D01*
X207473992Y-100794410D01*
X207603880Y-100610283D01*
X207695529Y-100404434D01*
X207745605Y-100184024D01*
X207746267Y-100136611D01*
X207989494Y-100136611D01*
X208030171Y-100358238D01*
X208113121Y-100567745D01*
X208235183Y-100757150D01*
X208391710Y-100919238D01*
X208576739Y-101047837D01*
X208783223Y-101138047D01*
X209003296Y-101186433D01*
X209228577Y-101191152D01*
X209450483Y-101152024D01*
X209660563Y-101070539D01*
X209850815Y-100949801D01*
X210013992Y-100794410D01*
X210143880Y-100610283D01*
X210235529Y-100404434D01*
X210285605Y-100184024D01*
X210289181Y-99928020D01*
X210245278Y-99706296D01*
X210159411Y-99497969D01*
X210034715Y-99310288D01*
X209875941Y-99150401D01*
X209689135Y-99024397D01*
X209481411Y-98937079D01*
X209260684Y-98891770D01*
X209035359Y-98890197D01*
X208814021Y-98932420D01*
X208605100Y-99016829D01*
X208416552Y-99140212D01*
X208255560Y-99297867D01*
X208128256Y-99483789D01*
X208039490Y-99690898D01*
X207992640Y-99911302D01*
X207989494Y-100136611D01*
X207746267Y-100136611D01*
X207749181Y-99928020D01*
X207705278Y-99706296D01*
X207619411Y-99497969D01*
X207494715Y-99310288D01*
X207335941Y-99150401D01*
X207149135Y-99024397D01*
X206941411Y-98937079D01*
X206720684Y-98891770D01*
X206495359Y-98890197D01*
X206274021Y-98932420D01*
X206065100Y-99016829D01*
X205876552Y-99140212D01*
X205715560Y-99297867D01*
X205588256Y-99483789D01*
X205499490Y-99690898D01*
X205452640Y-99911302D01*
X205449494Y-100136611D01*
X202818561Y-100136611D01*
X202940970Y-100065939D01*
X203076751Y-99904119D01*
X203149000Y-99705620D01*
X203149000Y-99494380D01*
X203076751Y-99295881D01*
X202940970Y-99134061D01*
X202758030Y-99028441D01*
X202550000Y-98991760D01*
X202512622Y-98998351D01*
X202020253Y-98505982D01*
X202010288Y-98485231D01*
X201956431Y-98442160D01*
X201940336Y-98426066D01*
X201921514Y-98414237D01*
X201868087Y-98371509D01*
X201845188Y-98366264D01*
X201825264Y-98353742D01*
X201756641Y-98345985D01*
X201734878Y-98341000D01*
X201712551Y-98341000D01*
X201644380Y-98333293D01*
X201622310Y-98341000D01*
X201436909Y-98341000D01*
X201410727Y-98325883D01*
X201260000Y-98299306D01*
X201109274Y-98325883D01*
X200976727Y-98402409D01*
X200878348Y-98519653D01*
X200826001Y-98663475D01*
X200826001Y-98800645D01*
X198797246Y-100829400D01*
X198740000Y-100819306D01*
X198589274Y-100845883D01*
X198456727Y-100922409D01*
X198358348Y-101039653D01*
X198306001Y-101183475D01*
X189363679Y-101183475D01*
X189339791Y-100988925D01*
X189299904Y-100354947D01*
X189298297Y-99894380D01*
X196861000Y-99894380D01*
X196861000Y-100105620D01*
X196933249Y-100304119D01*
X197069030Y-100465939D01*
X197251970Y-100571559D01*
X197460000Y-100608240D01*
X197668030Y-100571559D01*
X197850970Y-100465939D01*
X197907138Y-100399000D01*
X198563091Y-100399000D01*
X198589273Y-100414117D01*
X198740000Y-100440694D01*
X198890726Y-100414117D01*
X199023273Y-100337591D01*
X199121652Y-100220347D01*
X199173999Y-100076525D01*
X199173999Y-99923475D01*
X199121652Y-99779653D01*
X199023273Y-99662409D01*
X198890726Y-99585883D01*
X198740000Y-99559306D01*
X198589273Y-99585883D01*
X198563091Y-99601000D01*
X197907138Y-99601000D01*
X197850970Y-99534061D01*
X197668030Y-99428441D01*
X197460000Y-99391760D01*
X197251970Y-99428441D01*
X197069030Y-99534061D01*
X196933249Y-99695881D01*
X196861000Y-99894380D01*
X189298297Y-99894380D01*
X189297687Y-99719762D01*
X189333146Y-99085524D01*
X189381979Y-98663475D01*
X198306001Y-98663475D01*
X198306001Y-98816525D01*
X198358348Y-98960347D01*
X198456727Y-99077591D01*
X198589274Y-99154117D01*
X198740000Y-99180694D01*
X198890726Y-99154117D01*
X199023273Y-99077591D01*
X199121652Y-98960347D01*
X199173999Y-98816525D01*
X199173999Y-98663475D01*
X199566001Y-98663475D01*
X199566001Y-98816525D01*
X199618348Y-98960347D01*
X199716727Y-99077591D01*
X199849274Y-99154117D01*
X200000000Y-99180694D01*
X200150726Y-99154117D01*
X200283273Y-99077591D01*
X200381652Y-98960347D01*
X200433999Y-98816525D01*
X200433999Y-98663475D01*
X200381652Y-98519653D01*
X200283273Y-98402409D01*
X200150726Y-98325883D01*
X200000000Y-98299306D01*
X199849274Y-98325883D01*
X199716727Y-98402409D01*
X199618348Y-98519653D01*
X199566001Y-98663475D01*
X199173999Y-98663475D01*
X199121652Y-98519653D01*
X199023273Y-98402409D01*
X198890726Y-98325883D01*
X198740000Y-98299306D01*
X198589274Y-98325883D01*
X198456727Y-98402409D01*
X198358348Y-98519653D01*
X198306001Y-98663475D01*
X189381979Y-98663475D01*
X189406156Y-98454524D01*
X189516458Y-97828966D01*
X189663668Y-97211046D01*
X189836001Y-96640250D01*
X205447082Y-96640250D01*
X205447082Y-98359750D01*
X205468348Y-98466664D01*
X205534433Y-98565567D01*
X205633336Y-98631652D01*
X205740250Y-98652918D01*
X207459750Y-98652918D01*
X207566664Y-98631652D01*
X207665567Y-98565567D01*
X207731652Y-98466664D01*
X207752918Y-98359750D01*
X207752918Y-97596611D01*
X207989494Y-97596611D01*
X208030171Y-97818238D01*
X208113121Y-98027745D01*
X208235183Y-98217150D01*
X208391710Y-98379238D01*
X208576739Y-98507837D01*
X208783223Y-98598047D01*
X209003296Y-98646433D01*
X209228577Y-98651152D01*
X209450483Y-98612024D01*
X209660563Y-98530539D01*
X209850815Y-98409801D01*
X210013992Y-98254410D01*
X210143880Y-98070283D01*
X210235529Y-97864434D01*
X210285605Y-97644024D01*
X210289181Y-97388020D01*
X210245278Y-97166296D01*
X210159411Y-96957969D01*
X210034715Y-96770288D01*
X209875941Y-96610401D01*
X209689135Y-96484397D01*
X209481411Y-96397079D01*
X209260684Y-96351770D01*
X209035359Y-96350197D01*
X208814021Y-96392420D01*
X208605100Y-96476829D01*
X208416552Y-96600212D01*
X208255560Y-96757867D01*
X208128256Y-96943789D01*
X208039490Y-97150898D01*
X207992640Y-97371302D01*
X207989494Y-97596611D01*
X207752918Y-97596611D01*
X207752918Y-96640250D01*
X207731652Y-96533336D01*
X207665567Y-96434433D01*
X207566664Y-96368348D01*
X207459750Y-96347082D01*
X205740250Y-96347082D01*
X205633336Y-96368348D01*
X205534433Y-96434433D01*
X205468348Y-96533336D01*
X205447082Y-96640250D01*
X189836001Y-96640250D01*
X189847265Y-96602943D01*
X190066603Y-96006799D01*
X190320909Y-95424716D01*
X190609293Y-94858731D01*
X190930732Y-94310850D01*
X191284094Y-93783004D01*
X191668133Y-93277050D01*
X192081526Y-92794738D01*
X192522775Y-92337811D01*
X192990358Y-91907847D01*
X193482620Y-91506368D01*
X193997812Y-91134799D01*
X194534138Y-90794437D01*
X195089703Y-90486482D01*
X195662563Y-90212013D01*
X196250687Y-89972005D01*
X196852011Y-89767297D01*
X197464403Y-89598616D01*
X198085751Y-89466545D01*
X198713811Y-89371559D01*
X199346426Y-89313987D01*
X199981319Y-89294034D01*
X200616278Y-89311771D01*
M02*
