M48
; DRILL file {KiCad 5.99.0-unknown-4135f0c~100~ubuntu18.04.1} date Thu 31 Oct 2019 11:44:56 AM EDT
; FORMAT={-:-/ absolute / metric / decimal}
; #@! TF.CreationDate,2019-10-31T11:44:56-04:00
; #@! TF.GenerationSoftware,Kicad,Pcbnew,5.99.0-unknown-4135f0c~100~ubuntu18.04.1
; #@! TF.FileFunction,Plated,1,2,PTH
FMAT,2
METRIC
T1C0.300
T2C0.600
T3C1.000
%
G90
G05
T1
X190.85Y-96.85
X192.1Y-105.1
X192.25Y-101.85
X192.95Y-93.75
X195.3Y-102.95
X195.35Y-91.0
X195.4Y-107.75
X195.85Y-99.3
X197.35Y-109.1
X197.75Y-96.55
X197.95Y-98.4
X198.7Y-90.7
X198.7Y-93.4
X200.4Y-99.95
X200.5Y-105.65
X201.3Y-90.7
X201.3Y-93.4
X202.52Y-103.45
X203.4Y-97.15
X203.48Y-106.7
X203.61Y-101.0
X204.45Y-91.35
X207.25Y-107.4
X209.08Y-94.9
X210.35Y-98.8
T2
X197.46Y-100.0
X200.0Y-102.46
X202.54Y-100.0
T3
X206.6Y-97.5
X206.6Y-100.04
X206.6Y-102.58
X209.14Y-97.5
X209.14Y-100.04
X209.14Y-102.58
T0
M30
