G04 #@! TF.GenerationSoftware,KiCad,Pcbnew,5.99.0-unknown-4135f0c~100~ubuntu18.04.1*
G04 #@! TF.CreationDate,2019-11-01T15:56:38-04:00*
G04 #@! TF.ProjectId,tia,7469612e-6b69-4636-9164-5f7063625858,rev?*
G04 #@! TF.SameCoordinates,Original*
G04 #@! TF.FileFunction,Soldermask,Bot*
G04 #@! TF.FilePolarity,Negative*
%FSLAX46Y46*%
G04 Gerber Fmt 4.6, Leading zero omitted, Abs format (unit mm)*
G04 Created by KiCad (PCBNEW 5.99.0-unknown-4135f0c~100~ubuntu18.04.1) date 2019-11-01 15:56:38*
%MOMM*%
%LPD*%
G04 APERTURE LIST*
G04 APERTURE END LIST*
G36*
X206602970Y-101728828D02*
G01*
X206644714Y-101726786D01*
X206688955Y-101733635D01*
X206739646Y-101736469D01*
X206779950Y-101747722D01*
X206815368Y-101753205D01*
X206862898Y-101770881D01*
X206917524Y-101786133D01*
X206949207Y-101802979D01*
X206977214Y-101813395D01*
X207025259Y-101843417D01*
X207080588Y-101872836D01*
X207103375Y-101892230D01*
X207123657Y-101904903D01*
X207168979Y-101948063D01*
X207221230Y-101992532D01*
X207235714Y-102011614D01*
X207248709Y-102023989D01*
X207287815Y-102080254D01*
X207332888Y-102139636D01*
X207340428Y-102155953D01*
X207347263Y-102165788D01*
X207376606Y-102234250D01*
X207410353Y-102307286D01*
X207412928Y-102318996D01*
X207415288Y-102324503D01*
X207431456Y-102403267D01*
X207450011Y-102487659D01*
X207449346Y-102678273D01*
X207430192Y-102762580D01*
X207413484Y-102841185D01*
X207411086Y-102846673D01*
X207408430Y-102858365D01*
X207374170Y-102931169D01*
X207344351Y-102999423D01*
X207337447Y-103009210D01*
X207329796Y-103025469D01*
X207284330Y-103084508D01*
X207244814Y-103140526D01*
X207231727Y-103152816D01*
X207217114Y-103171791D01*
X207164566Y-103215884D01*
X207118934Y-103258735D01*
X207098560Y-103271269D01*
X207075639Y-103290502D01*
X207020106Y-103319534D01*
X206971855Y-103349218D01*
X206943778Y-103359437D01*
X206911974Y-103376064D01*
X206857241Y-103390934D01*
X206809585Y-103408280D01*
X206774126Y-103413516D01*
X206733753Y-103424485D01*
X206683048Y-103426965D01*
X206638758Y-103433505D01*
X206597030Y-103431172D01*
X206549292Y-103433507D01*
X206505101Y-103426033D01*
X206466345Y-103423866D01*
X206420188Y-103411671D01*
X206367197Y-103402708D01*
X206331163Y-103388149D01*
X206299392Y-103379755D01*
X206251308Y-103355886D01*
X206195963Y-103333525D01*
X206168813Y-103314935D01*
X206144720Y-103302975D01*
X206097736Y-103266268D01*
X206043580Y-103229186D01*
X206025141Y-103209551D01*
X206008643Y-103196661D01*
X205966146Y-103146727D01*
X205917157Y-103094559D01*
X205906423Y-103076552D01*
X205896723Y-103065155D01*
X205862273Y-103002490D01*
X205822592Y-102935925D01*
X205817863Y-102921708D01*
X205813535Y-102913836D01*
X205790635Y-102839859D01*
X205764298Y-102760685D01*
X205763358Y-102751738D01*
X205762471Y-102748874D01*
X205754331Y-102665859D01*
X205744993Y-102577015D01*
X205754963Y-102488127D01*
X205763671Y-102405283D01*
X205764575Y-102402432D01*
X205765579Y-102393485D01*
X205792485Y-102314451D01*
X205815886Y-102240680D01*
X205820267Y-102232841D01*
X205825096Y-102218656D01*
X205865246Y-102152361D01*
X205900127Y-102089948D01*
X205909904Y-102078621D01*
X205920766Y-102060686D01*
X205970130Y-102008848D01*
X206012965Y-101959224D01*
X206029550Y-101946452D01*
X206048126Y-101926945D01*
X206102529Y-101890250D01*
X206149778Y-101853863D01*
X206173964Y-101842067D01*
X206201234Y-101823673D01*
X206256715Y-101801706D01*
X206304980Y-101778166D01*
X206336816Y-101769992D01*
X206372946Y-101755687D01*
X206425996Y-101747095D01*
X206472238Y-101735222D01*
X206511010Y-101733326D01*
X206555252Y-101726160D01*
X206602970Y-101728828D01*
G37*
G36*
X209142970Y-101728828D02*
G01*
X209184714Y-101726786D01*
X209228955Y-101733635D01*
X209279646Y-101736469D01*
X209319950Y-101747722D01*
X209355368Y-101753205D01*
X209402898Y-101770881D01*
X209457524Y-101786133D01*
X209489207Y-101802979D01*
X209517214Y-101813395D01*
X209565259Y-101843417D01*
X209620588Y-101872836D01*
X209643375Y-101892230D01*
X209663657Y-101904903D01*
X209708979Y-101948063D01*
X209761230Y-101992532D01*
X209775714Y-102011614D01*
X209788709Y-102023989D01*
X209827815Y-102080254D01*
X209872888Y-102139636D01*
X209880428Y-102155953D01*
X209887263Y-102165788D01*
X209916606Y-102234250D01*
X209950353Y-102307286D01*
X209952928Y-102318996D01*
X209955288Y-102324503D01*
X209971456Y-102403267D01*
X209990011Y-102487659D01*
X209989346Y-102678273D01*
X209970192Y-102762580D01*
X209953484Y-102841185D01*
X209951086Y-102846673D01*
X209948430Y-102858365D01*
X209914170Y-102931169D01*
X209884351Y-102999423D01*
X209877447Y-103009210D01*
X209869796Y-103025469D01*
X209824330Y-103084508D01*
X209784814Y-103140526D01*
X209771727Y-103152816D01*
X209757114Y-103171791D01*
X209704566Y-103215884D01*
X209658934Y-103258735D01*
X209638560Y-103271269D01*
X209615639Y-103290502D01*
X209560106Y-103319534D01*
X209511855Y-103349218D01*
X209483778Y-103359437D01*
X209451974Y-103376064D01*
X209397241Y-103390934D01*
X209349585Y-103408280D01*
X209314126Y-103413516D01*
X209273753Y-103424485D01*
X209223048Y-103426965D01*
X209178758Y-103433505D01*
X209137030Y-103431172D01*
X209089292Y-103433507D01*
X209045101Y-103426033D01*
X209006345Y-103423866D01*
X208960188Y-103411671D01*
X208907197Y-103402708D01*
X208871163Y-103388149D01*
X208839392Y-103379755D01*
X208791308Y-103355886D01*
X208735963Y-103333525D01*
X208708813Y-103314935D01*
X208684720Y-103302975D01*
X208637736Y-103266268D01*
X208583580Y-103229186D01*
X208565141Y-103209551D01*
X208548643Y-103196661D01*
X208506146Y-103146727D01*
X208457157Y-103094559D01*
X208446423Y-103076552D01*
X208436723Y-103065155D01*
X208402273Y-103002490D01*
X208362592Y-102935925D01*
X208357863Y-102921708D01*
X208353535Y-102913836D01*
X208330635Y-102839859D01*
X208304298Y-102760685D01*
X208303358Y-102751738D01*
X208302471Y-102748874D01*
X208294331Y-102665859D01*
X208284993Y-102577015D01*
X208294963Y-102488127D01*
X208303671Y-102405283D01*
X208304575Y-102402432D01*
X208305579Y-102393485D01*
X208332485Y-102314451D01*
X208355886Y-102240680D01*
X208360267Y-102232841D01*
X208365096Y-102218656D01*
X208405246Y-102152361D01*
X208440127Y-102089948D01*
X208449904Y-102078621D01*
X208460766Y-102060686D01*
X208510130Y-102008848D01*
X208552965Y-101959224D01*
X208569550Y-101946452D01*
X208588126Y-101926945D01*
X208642529Y-101890250D01*
X208689778Y-101853863D01*
X208713964Y-101842067D01*
X208741234Y-101823673D01*
X208796715Y-101801706D01*
X208844980Y-101778166D01*
X208876816Y-101769992D01*
X208912946Y-101755687D01*
X208965996Y-101747095D01*
X209012238Y-101735222D01*
X209051010Y-101733326D01*
X209095252Y-101726160D01*
X209142970Y-101728828D01*
G37*
G36*
X206602970Y-99188828D02*
G01*
X206644714Y-99186786D01*
X206688955Y-99193635D01*
X206739646Y-99196469D01*
X206779950Y-99207722D01*
X206815368Y-99213205D01*
X206862898Y-99230881D01*
X206917524Y-99246133D01*
X206949207Y-99262979D01*
X206977214Y-99273395D01*
X207025259Y-99303417D01*
X207080588Y-99332836D01*
X207103375Y-99352230D01*
X207123657Y-99364903D01*
X207168979Y-99408063D01*
X207221230Y-99452532D01*
X207235714Y-99471614D01*
X207248709Y-99483989D01*
X207287815Y-99540254D01*
X207332888Y-99599636D01*
X207340428Y-99615953D01*
X207347263Y-99625788D01*
X207376606Y-99694250D01*
X207410353Y-99767286D01*
X207412928Y-99778996D01*
X207415288Y-99784503D01*
X207431456Y-99863267D01*
X207450011Y-99947659D01*
X207449346Y-100138273D01*
X207430192Y-100222580D01*
X207413484Y-100301185D01*
X207411086Y-100306673D01*
X207408430Y-100318365D01*
X207374170Y-100391169D01*
X207344351Y-100459423D01*
X207337447Y-100469210D01*
X207329796Y-100485469D01*
X207284330Y-100544508D01*
X207244814Y-100600526D01*
X207231727Y-100612816D01*
X207217114Y-100631791D01*
X207164566Y-100675884D01*
X207118934Y-100718735D01*
X207098560Y-100731269D01*
X207075639Y-100750502D01*
X207020106Y-100779534D01*
X206971855Y-100809218D01*
X206943778Y-100819437D01*
X206911974Y-100836064D01*
X206857241Y-100850934D01*
X206809585Y-100868280D01*
X206774126Y-100873516D01*
X206733753Y-100884485D01*
X206683048Y-100886965D01*
X206638758Y-100893505D01*
X206597030Y-100891172D01*
X206549292Y-100893507D01*
X206505101Y-100886033D01*
X206466345Y-100883866D01*
X206420188Y-100871671D01*
X206367197Y-100862708D01*
X206331163Y-100848149D01*
X206299392Y-100839755D01*
X206251308Y-100815886D01*
X206195963Y-100793525D01*
X206168813Y-100774935D01*
X206144720Y-100762975D01*
X206097736Y-100726268D01*
X206043580Y-100689186D01*
X206025141Y-100669551D01*
X206008643Y-100656661D01*
X205966146Y-100606727D01*
X205917157Y-100554559D01*
X205906423Y-100536552D01*
X205896723Y-100525155D01*
X205862273Y-100462490D01*
X205822592Y-100395925D01*
X205817863Y-100381708D01*
X205813535Y-100373836D01*
X205790635Y-100299859D01*
X205764298Y-100220685D01*
X205763358Y-100211738D01*
X205762471Y-100208874D01*
X205754331Y-100125859D01*
X205744993Y-100037015D01*
X205754963Y-99948127D01*
X205763671Y-99865283D01*
X205764575Y-99862432D01*
X205765579Y-99853485D01*
X205792485Y-99774451D01*
X205815886Y-99700680D01*
X205820267Y-99692841D01*
X205825096Y-99678656D01*
X205865246Y-99612361D01*
X205900127Y-99549948D01*
X205909904Y-99538621D01*
X205920766Y-99520686D01*
X205970130Y-99468848D01*
X206012965Y-99419224D01*
X206029550Y-99406452D01*
X206048126Y-99386945D01*
X206102529Y-99350250D01*
X206149778Y-99313863D01*
X206173964Y-99302067D01*
X206201234Y-99283673D01*
X206256715Y-99261706D01*
X206304980Y-99238166D01*
X206336816Y-99229992D01*
X206372946Y-99215687D01*
X206425996Y-99207095D01*
X206472238Y-99195222D01*
X206511010Y-99193326D01*
X206555252Y-99186160D01*
X206602970Y-99188828D01*
G37*
G36*
X209142970Y-99188828D02*
G01*
X209184714Y-99186786D01*
X209228955Y-99193635D01*
X209279646Y-99196469D01*
X209319950Y-99207722D01*
X209355368Y-99213205D01*
X209402898Y-99230881D01*
X209457524Y-99246133D01*
X209489207Y-99262979D01*
X209517214Y-99273395D01*
X209565259Y-99303417D01*
X209620588Y-99332836D01*
X209643375Y-99352230D01*
X209663657Y-99364903D01*
X209708979Y-99408063D01*
X209761230Y-99452532D01*
X209775714Y-99471614D01*
X209788709Y-99483989D01*
X209827815Y-99540254D01*
X209872888Y-99599636D01*
X209880428Y-99615953D01*
X209887263Y-99625788D01*
X209916606Y-99694250D01*
X209950353Y-99767286D01*
X209952928Y-99778996D01*
X209955288Y-99784503D01*
X209971456Y-99863267D01*
X209990011Y-99947659D01*
X209989346Y-100138273D01*
X209970192Y-100222580D01*
X209953484Y-100301185D01*
X209951086Y-100306673D01*
X209948430Y-100318365D01*
X209914170Y-100391169D01*
X209884351Y-100459423D01*
X209877447Y-100469210D01*
X209869796Y-100485469D01*
X209824330Y-100544508D01*
X209784814Y-100600526D01*
X209771727Y-100612816D01*
X209757114Y-100631791D01*
X209704566Y-100675884D01*
X209658934Y-100718735D01*
X209638560Y-100731269D01*
X209615639Y-100750502D01*
X209560106Y-100779534D01*
X209511855Y-100809218D01*
X209483778Y-100819437D01*
X209451974Y-100836064D01*
X209397241Y-100850934D01*
X209349585Y-100868280D01*
X209314126Y-100873516D01*
X209273753Y-100884485D01*
X209223048Y-100886965D01*
X209178758Y-100893505D01*
X209137030Y-100891172D01*
X209089292Y-100893507D01*
X209045101Y-100886033D01*
X209006345Y-100883866D01*
X208960188Y-100871671D01*
X208907197Y-100862708D01*
X208871163Y-100848149D01*
X208839392Y-100839755D01*
X208791308Y-100815886D01*
X208735963Y-100793525D01*
X208708813Y-100774935D01*
X208684720Y-100762975D01*
X208637736Y-100726268D01*
X208583580Y-100689186D01*
X208565141Y-100669551D01*
X208548643Y-100656661D01*
X208506146Y-100606727D01*
X208457157Y-100554559D01*
X208446423Y-100536552D01*
X208436723Y-100525155D01*
X208402273Y-100462490D01*
X208362592Y-100395925D01*
X208357863Y-100381708D01*
X208353535Y-100373836D01*
X208330635Y-100299859D01*
X208304298Y-100220685D01*
X208303358Y-100211738D01*
X208302471Y-100208874D01*
X208294331Y-100125859D01*
X208284993Y-100037015D01*
X208294963Y-99948127D01*
X208303671Y-99865283D01*
X208304575Y-99862432D01*
X208305579Y-99853485D01*
X208332485Y-99774451D01*
X208355886Y-99700680D01*
X208360267Y-99692841D01*
X208365096Y-99678656D01*
X208405246Y-99612361D01*
X208440127Y-99549948D01*
X208449904Y-99538621D01*
X208460766Y-99520686D01*
X208510130Y-99468848D01*
X208552965Y-99419224D01*
X208569550Y-99406452D01*
X208588126Y-99386945D01*
X208642529Y-99350250D01*
X208689778Y-99313863D01*
X208713964Y-99302067D01*
X208741234Y-99283673D01*
X208796715Y-99261706D01*
X208844980Y-99238166D01*
X208876816Y-99229992D01*
X208912946Y-99215687D01*
X208965996Y-99207095D01*
X209012238Y-99195222D01*
X209051010Y-99193326D01*
X209095252Y-99186160D01*
X209142970Y-99188828D01*
G37*
G36*
X202593952Y-99400000D02*
G01*
X202618991Y-99400000D01*
X202670968Y-99413927D01*
X202715610Y-99422000D01*
X202738772Y-99432095D01*
X202771591Y-99440889D01*
X202810533Y-99463372D01*
X202843867Y-99477901D01*
X202871273Y-99498441D01*
X202908408Y-99519881D01*
X202933919Y-99545392D01*
X202955828Y-99561812D01*
X202983538Y-99595011D01*
X203020119Y-99631592D01*
X203033690Y-99655098D01*
X203045479Y-99669222D01*
X203068856Y-99716006D01*
X203099111Y-99768409D01*
X203103818Y-99785975D01*
X203108018Y-99794381D01*
X203122138Y-99854346D01*
X203140000Y-99921009D01*
X203140000Y-100078991D01*
X203121052Y-100149707D01*
X203104342Y-100215501D01*
X203102451Y-100219126D01*
X203099111Y-100231591D01*
X203066312Y-100288401D01*
X203039628Y-100339550D01*
X203031058Y-100349461D01*
X203020119Y-100368408D01*
X202979884Y-100408643D01*
X202948118Y-100445380D01*
X202930202Y-100458325D01*
X202908408Y-100480119D01*
X202866760Y-100504164D01*
X202834709Y-100527323D01*
X202806005Y-100539242D01*
X202771591Y-100559111D01*
X202733711Y-100569261D01*
X202705498Y-100580976D01*
X202665954Y-100587416D01*
X202618991Y-100600000D01*
X202588690Y-100600000D01*
X202567402Y-100603467D01*
X202518443Y-100600000D01*
X202461009Y-100600000D01*
X202440377Y-100594472D01*
X202427841Y-100593584D01*
X202372262Y-100576220D01*
X202308409Y-100559111D01*
X202297692Y-100552924D01*
X202294294Y-100551862D01*
X202235173Y-100516828D01*
X202171592Y-100480119D01*
X202120592Y-100429119D01*
X202073201Y-100383434D01*
X202070125Y-100378652D01*
X202059881Y-100368408D01*
X202027847Y-100312925D01*
X201997513Y-100265765D01*
X201992620Y-100251910D01*
X201980889Y-100231591D01*
X201966558Y-100178108D01*
X201950924Y-100133835D01*
X201948387Y-100110293D01*
X201940000Y-100078991D01*
X201940000Y-100032453D01*
X201935935Y-99994727D01*
X201940000Y-99962321D01*
X201940000Y-99921009D01*
X201949744Y-99884646D01*
X201953349Y-99855903D01*
X201967904Y-99816870D01*
X201980889Y-99768409D01*
X201995249Y-99743537D01*
X202002231Y-99724813D01*
X202030396Y-99682660D01*
X202059881Y-99631592D01*
X202073859Y-99617614D01*
X202079964Y-99608477D01*
X202123832Y-99567641D01*
X202171592Y-99519881D01*
X202180929Y-99514490D01*
X202182371Y-99513148D01*
X202245140Y-99477418D01*
X202308409Y-99440889D01*
X202376887Y-99422540D01*
X202438216Y-99404549D01*
X202445476Y-99404162D01*
X202461009Y-99400000D01*
X202523573Y-99400000D01*
X202577932Y-99397103D01*
X202593952Y-99400000D01*
G37*
G36*
X197513952Y-99400000D02*
G01*
X197538991Y-99400000D01*
X197590968Y-99413927D01*
X197635610Y-99422000D01*
X197658772Y-99432095D01*
X197691591Y-99440889D01*
X197730533Y-99463372D01*
X197763867Y-99477901D01*
X197791273Y-99498441D01*
X197828408Y-99519881D01*
X197853919Y-99545392D01*
X197875828Y-99561812D01*
X197903538Y-99595011D01*
X197940119Y-99631592D01*
X197953690Y-99655098D01*
X197965479Y-99669222D01*
X197988856Y-99716006D01*
X198019111Y-99768409D01*
X198023818Y-99785975D01*
X198028018Y-99794381D01*
X198042138Y-99854346D01*
X198060000Y-99921009D01*
X198060000Y-100078991D01*
X198041052Y-100149707D01*
X198024342Y-100215501D01*
X198022451Y-100219126D01*
X198019111Y-100231591D01*
X197986312Y-100288401D01*
X197959628Y-100339550D01*
X197951058Y-100349461D01*
X197940119Y-100368408D01*
X197899884Y-100408643D01*
X197868118Y-100445380D01*
X197850202Y-100458325D01*
X197828408Y-100480119D01*
X197786760Y-100504164D01*
X197754709Y-100527323D01*
X197726005Y-100539242D01*
X197691591Y-100559111D01*
X197653711Y-100569261D01*
X197625498Y-100580976D01*
X197585954Y-100587416D01*
X197538991Y-100600000D01*
X197508690Y-100600000D01*
X197487402Y-100603467D01*
X197438443Y-100600000D01*
X197381009Y-100600000D01*
X197360377Y-100594472D01*
X197347841Y-100593584D01*
X197292262Y-100576220D01*
X197228409Y-100559111D01*
X197217692Y-100552924D01*
X197214294Y-100551862D01*
X197155173Y-100516828D01*
X197091592Y-100480119D01*
X197040592Y-100429119D01*
X196993201Y-100383434D01*
X196990125Y-100378652D01*
X196979881Y-100368408D01*
X196947847Y-100312925D01*
X196917513Y-100265765D01*
X196912620Y-100251910D01*
X196900889Y-100231591D01*
X196886558Y-100178108D01*
X196870924Y-100133835D01*
X196868387Y-100110293D01*
X196860000Y-100078991D01*
X196860000Y-100032453D01*
X196855935Y-99994727D01*
X196860000Y-99962321D01*
X196860000Y-99921009D01*
X196869744Y-99884646D01*
X196873349Y-99855903D01*
X196887904Y-99816870D01*
X196900889Y-99768409D01*
X196915249Y-99743537D01*
X196922231Y-99724813D01*
X196950396Y-99682660D01*
X196979881Y-99631592D01*
X196993859Y-99617614D01*
X196999964Y-99608477D01*
X197043832Y-99567641D01*
X197091592Y-99519881D01*
X197100929Y-99514490D01*
X197102371Y-99513148D01*
X197165140Y-99477418D01*
X197228409Y-99440889D01*
X197296887Y-99422540D01*
X197358216Y-99404549D01*
X197365476Y-99404162D01*
X197381009Y-99400000D01*
X197443573Y-99400000D01*
X197497932Y-99397103D01*
X197513952Y-99400000D01*
G37*
G36*
X209142970Y-96648828D02*
G01*
X209184714Y-96646786D01*
X209228955Y-96653635D01*
X209279646Y-96656469D01*
X209319950Y-96667722D01*
X209355368Y-96673205D01*
X209402898Y-96690881D01*
X209457524Y-96706133D01*
X209489207Y-96722979D01*
X209517214Y-96733395D01*
X209565259Y-96763417D01*
X209620588Y-96792836D01*
X209643375Y-96812230D01*
X209663657Y-96824903D01*
X209708979Y-96868063D01*
X209761230Y-96912532D01*
X209775714Y-96931614D01*
X209788709Y-96943989D01*
X209827815Y-97000254D01*
X209872888Y-97059636D01*
X209880428Y-97075953D01*
X209887263Y-97085788D01*
X209916606Y-97154250D01*
X209950353Y-97227286D01*
X209952928Y-97238996D01*
X209955288Y-97244503D01*
X209971456Y-97323267D01*
X209990011Y-97407659D01*
X209989346Y-97598273D01*
X209970192Y-97682580D01*
X209953484Y-97761185D01*
X209951086Y-97766673D01*
X209948430Y-97778365D01*
X209914170Y-97851169D01*
X209884351Y-97919423D01*
X209877447Y-97929210D01*
X209869796Y-97945469D01*
X209824330Y-98004508D01*
X209784814Y-98060526D01*
X209771727Y-98072816D01*
X209757114Y-98091791D01*
X209704566Y-98135884D01*
X209658934Y-98178735D01*
X209638560Y-98191269D01*
X209615639Y-98210502D01*
X209560106Y-98239534D01*
X209511855Y-98269218D01*
X209483778Y-98279437D01*
X209451974Y-98296064D01*
X209397241Y-98310934D01*
X209349585Y-98328280D01*
X209314126Y-98333516D01*
X209273753Y-98344485D01*
X209223048Y-98346965D01*
X209178758Y-98353505D01*
X209137030Y-98351172D01*
X209089292Y-98353507D01*
X209045101Y-98346033D01*
X209006345Y-98343866D01*
X208960188Y-98331671D01*
X208907197Y-98322708D01*
X208871163Y-98308149D01*
X208839392Y-98299755D01*
X208791308Y-98275886D01*
X208735963Y-98253525D01*
X208708813Y-98234935D01*
X208684720Y-98222975D01*
X208637736Y-98186268D01*
X208583580Y-98149186D01*
X208565141Y-98129551D01*
X208548643Y-98116661D01*
X208506146Y-98066727D01*
X208457157Y-98014559D01*
X208446423Y-97996552D01*
X208436723Y-97985155D01*
X208402273Y-97922490D01*
X208362592Y-97855925D01*
X208357863Y-97841708D01*
X208353535Y-97833836D01*
X208330635Y-97759859D01*
X208304298Y-97680685D01*
X208303358Y-97671738D01*
X208302471Y-97668874D01*
X208294331Y-97585859D01*
X208284993Y-97497015D01*
X208294963Y-97408127D01*
X208303671Y-97325283D01*
X208304575Y-97322432D01*
X208305579Y-97313485D01*
X208332485Y-97234451D01*
X208355886Y-97160680D01*
X208360267Y-97152841D01*
X208365096Y-97138656D01*
X208405246Y-97072361D01*
X208440127Y-97009948D01*
X208449904Y-96998621D01*
X208460766Y-96980686D01*
X208510130Y-96928848D01*
X208552965Y-96879224D01*
X208569550Y-96866452D01*
X208588126Y-96846945D01*
X208642529Y-96810250D01*
X208689778Y-96773863D01*
X208713964Y-96762067D01*
X208741234Y-96743673D01*
X208796715Y-96721706D01*
X208844980Y-96698166D01*
X208876816Y-96689992D01*
X208912946Y-96675687D01*
X208965996Y-96667095D01*
X209012238Y-96655222D01*
X209051010Y-96653326D01*
X209095252Y-96646160D01*
X209142970Y-96648828D01*
G37*
G36*
X207449999Y-96649999D02*
G01*
X207450001Y-96650001D01*
X207452449Y-96662309D01*
X207452449Y-98337691D01*
X207450001Y-98349999D01*
X207449999Y-98350001D01*
X207437691Y-98352449D01*
X205762309Y-98352449D01*
X205750001Y-98350001D01*
X205749999Y-98349999D01*
X205747551Y-98337691D01*
X205747551Y-96662309D01*
X205749999Y-96650001D01*
X205750001Y-96649999D01*
X205762309Y-96647551D01*
X207437691Y-96647551D01*
X207449999Y-96649999D01*
G37*
G36*
X200053952Y-96940000D02*
G01*
X200078991Y-96940000D01*
X200130968Y-96953927D01*
X200175610Y-96962000D01*
X200198772Y-96972095D01*
X200231591Y-96980889D01*
X200270533Y-97003372D01*
X200303867Y-97017901D01*
X200331273Y-97038441D01*
X200368408Y-97059881D01*
X200393919Y-97085392D01*
X200415828Y-97101812D01*
X200443538Y-97135011D01*
X200480119Y-97171592D01*
X200493690Y-97195098D01*
X200505479Y-97209222D01*
X200528856Y-97256006D01*
X200559111Y-97308409D01*
X200563818Y-97325975D01*
X200568018Y-97334381D01*
X200582138Y-97394346D01*
X200600000Y-97461009D01*
X200600000Y-97618991D01*
X200581052Y-97689707D01*
X200564342Y-97755501D01*
X200562451Y-97759126D01*
X200559111Y-97771591D01*
X200526312Y-97828401D01*
X200499628Y-97879550D01*
X200491058Y-97889461D01*
X200480119Y-97908408D01*
X200439884Y-97948643D01*
X200408118Y-97985380D01*
X200390202Y-97998325D01*
X200368408Y-98020119D01*
X200326760Y-98044164D01*
X200294709Y-98067323D01*
X200266005Y-98079242D01*
X200231591Y-98099111D01*
X200193711Y-98109261D01*
X200165498Y-98120976D01*
X200125954Y-98127416D01*
X200078991Y-98140000D01*
X200048690Y-98140000D01*
X200027402Y-98143467D01*
X199978443Y-98140000D01*
X199921009Y-98140000D01*
X199900377Y-98134472D01*
X199887841Y-98133584D01*
X199832262Y-98116220D01*
X199768409Y-98099111D01*
X199757692Y-98092924D01*
X199754294Y-98091862D01*
X199695173Y-98056828D01*
X199631592Y-98020119D01*
X199580592Y-97969119D01*
X199533201Y-97923434D01*
X199530125Y-97918652D01*
X199519881Y-97908408D01*
X199487847Y-97852925D01*
X199457513Y-97805765D01*
X199452620Y-97791910D01*
X199440889Y-97771591D01*
X199426558Y-97718108D01*
X199410924Y-97673835D01*
X199408387Y-97650293D01*
X199400000Y-97618991D01*
X199400000Y-97572453D01*
X199395935Y-97534727D01*
X199400000Y-97502321D01*
X199400000Y-97461009D01*
X199409744Y-97424646D01*
X199413349Y-97395903D01*
X199427904Y-97356870D01*
X199440889Y-97308409D01*
X199455249Y-97283537D01*
X199462231Y-97264813D01*
X199490396Y-97222660D01*
X199519881Y-97171592D01*
X199533859Y-97157614D01*
X199539964Y-97148477D01*
X199583832Y-97107641D01*
X199631592Y-97059881D01*
X199640929Y-97054490D01*
X199642371Y-97053148D01*
X199705140Y-97017418D01*
X199768409Y-96980889D01*
X199836887Y-96962540D01*
X199898216Y-96944549D01*
X199905476Y-96944162D01*
X199921009Y-96940000D01*
X199983573Y-96940000D01*
X200037932Y-96937103D01*
X200053952Y-96940000D01*
G37*
M02*
