G04 #@! TF.GenerationSoftware,KiCad,Pcbnew,(5.99.0-417-g8bd2765f3)*
G04 #@! TF.CreationDate,2020-07-21T00:36:45-04:00*
G04 #@! TF.ProjectId,tiav2,74696176-322e-46b6-9963-61645f706362,rev?*
G04 #@! TF.SameCoordinates,Original*
G04 #@! TF.FileFunction,Copper,L2,Bot*
G04 #@! TF.FilePolarity,Positive*
%FSLAX46Y46*%
G04 Gerber Fmt 4.6, Leading zero omitted, Abs format (unit mm)*
G04 Created by KiCad (PCBNEW (5.99.0-417-g8bd2765f3)) date 2020-07-21 00:36:45*
%MOMM*%
%LPD*%
G04 APERTURE LIST*
%ADD10C,2.240000*%
%ADD11C,2.499995*%
%ADD12C,1.200000*%
%ADD13R,1.700000X1.700000*%
%ADD14O,1.700000X1.700000*%
%ADD15C,0.600000*%
%ADD16C,0.200000*%
G04 APERTURE END LIST*
G04 #@! TA.AperFunction,SMDPad,CuDef*
G36*
X195252946Y-97489828D02*
G01*
X195300798Y-97521802D01*
X195332772Y-97569654D01*
X195344000Y-97626100D01*
X195344000Y-97971100D01*
X195332772Y-98027546D01*
X195300798Y-98075398D01*
X195252946Y-98107372D01*
X195196500Y-98118600D01*
X194901500Y-98118600D01*
X194845054Y-98107372D01*
X194797202Y-98075398D01*
X194765228Y-98027546D01*
X194754000Y-97971100D01*
X194754000Y-97626100D01*
X194765228Y-97569654D01*
X194797202Y-97521802D01*
X194845054Y-97489828D01*
X194901500Y-97478600D01*
X195196500Y-97478600D01*
X195252946Y-97489828D01*
G37*
G04 #@! TD.AperFunction*
G04 #@! TA.AperFunction,SMDPad,CuDef*
G36*
X194282946Y-97489828D02*
G01*
X194330798Y-97521802D01*
X194362772Y-97569654D01*
X194374000Y-97626100D01*
X194374000Y-97971100D01*
X194362772Y-98027546D01*
X194330798Y-98075398D01*
X194282946Y-98107372D01*
X194226500Y-98118600D01*
X193931500Y-98118600D01*
X193875054Y-98107372D01*
X193827202Y-98075398D01*
X193795228Y-98027546D01*
X193784000Y-97971100D01*
X193784000Y-97626100D01*
X193795228Y-97569654D01*
X193827202Y-97521802D01*
X193875054Y-97489828D01*
X193931500Y-97478600D01*
X194226500Y-97478600D01*
X194282946Y-97489828D01*
G37*
G04 #@! TD.AperFunction*
G04 #@! TA.AperFunction,SMDPad,CuDef*
G36*
X195760946Y-96439828D02*
G01*
X195808798Y-96471802D01*
X195840772Y-96519654D01*
X195852000Y-96576100D01*
X195852000Y-96921100D01*
X195840772Y-96977546D01*
X195808798Y-97025398D01*
X195760946Y-97057372D01*
X195704500Y-97068600D01*
X195409500Y-97068600D01*
X195353054Y-97057372D01*
X195305202Y-97025398D01*
X195273228Y-96977546D01*
X195262000Y-96921100D01*
X195262000Y-96576100D01*
X195273228Y-96519654D01*
X195305202Y-96471802D01*
X195353054Y-96439828D01*
X195409500Y-96428600D01*
X195704500Y-96428600D01*
X195760946Y-96439828D01*
G37*
G04 #@! TD.AperFunction*
G04 #@! TA.AperFunction,SMDPad,CuDef*
G36*
X194790946Y-96439828D02*
G01*
X194838798Y-96471802D01*
X194870772Y-96519654D01*
X194882000Y-96576100D01*
X194882000Y-96921100D01*
X194870772Y-96977546D01*
X194838798Y-97025398D01*
X194790946Y-97057372D01*
X194734500Y-97068600D01*
X194439500Y-97068600D01*
X194383054Y-97057372D01*
X194335202Y-97025398D01*
X194303228Y-96977546D01*
X194292000Y-96921100D01*
X194292000Y-96576100D01*
X194303228Y-96519654D01*
X194335202Y-96471802D01*
X194383054Y-96439828D01*
X194439500Y-96428600D01*
X194734500Y-96428600D01*
X194790946Y-96439828D01*
G37*
G04 #@! TD.AperFunction*
D10*
X200025000Y-91694000D03*
D11*
X197485000Y-89154000D03*
X202565000Y-89154000D03*
X202565000Y-94234000D03*
X197485000Y-94234000D03*
D12*
X200000000Y-97460000D03*
X197460000Y-100000000D03*
X202540000Y-100000000D03*
D13*
X207410000Y-97510000D03*
D14*
X209950000Y-97510000D03*
X207410000Y-100050000D03*
X209950000Y-100050000D03*
X207410000Y-102590000D03*
X209950000Y-102590000D03*
D15*
X211900000Y-100250000D03*
X209350000Y-106800000D03*
X193040000Y-96139000D03*
X191109600Y-100787200D03*
X195072000Y-106832400D03*
X190296800Y-104190800D03*
X190855600Y-95656400D03*
X191389000Y-107696000D03*
X196469000Y-110845600D03*
X199644000Y-109474000D03*
X203708000Y-110845600D03*
X206650000Y-106850000D03*
X192887600Y-100888800D03*
X198424800Y-101803200D03*
X198550000Y-98400000D03*
X200400000Y-99950000D03*
X203400000Y-97150000D03*
X206197200Y-92100400D03*
X194945000Y-93638400D03*
X201669600Y-103218400D03*
X203480000Y-106700000D03*
X209050000Y-94200000D03*
X203610000Y-101000000D03*
X195630800Y-91897200D03*
X194248999Y-98348800D03*
X196077799Y-96926400D03*
D16*
X194248999Y-98348800D02*
X194331399Y-98348800D01*
X195673799Y-96926400D02*
X195648399Y-96951800D01*
X196077799Y-96926400D02*
X195673799Y-96926400D01*
X195950799Y-96799400D02*
X196077799Y-96926400D01*
X195643401Y-96901000D02*
X196037200Y-96901000D01*
X194079000Y-97256600D02*
X194587000Y-96748600D01*
X194079000Y-97798600D02*
X194079000Y-97256600D01*
X195049000Y-97256600D02*
X195557000Y-96748600D01*
X195049000Y-97798600D02*
X195049000Y-97256600D01*
X195899999Y-96748600D02*
X196077799Y-96926400D01*
X195557000Y-96748600D02*
X195899999Y-96748600D01*
G36*
X200432077Y-87626984D02*
G01*
X201122080Y-87670395D01*
X201793037Y-87750402D01*
X201601643Y-87870929D01*
X201451765Y-88003995D01*
X203716276Y-90268506D01*
X203867964Y-90090275D01*
X204003387Y-89864895D01*
X204100180Y-89620424D01*
X204156002Y-89362234D01*
X204164275Y-89023734D01*
X204121131Y-88763127D01*
X204036396Y-88514219D01*
X203912146Y-88282492D01*
X203884179Y-88246176D01*
X204477128Y-88457316D01*
X205114449Y-88725221D01*
X205735876Y-89028311D01*
X206339377Y-89365597D01*
X206923117Y-89736049D01*
X207485276Y-90138517D01*
X208024086Y-90571730D01*
X208537875Y-91034348D01*
X209025034Y-91524919D01*
X209484054Y-92041927D01*
X209913509Y-92583763D01*
X210312026Y-93148698D01*
X210678404Y-93735025D01*
X211011476Y-94340879D01*
X211310199Y-94964365D01*
X211573665Y-95603580D01*
X211801031Y-96256488D01*
X211991600Y-96921079D01*
X212144772Y-97595267D01*
X212260072Y-98276967D01*
X212337137Y-98964014D01*
X212375615Y-99652246D01*
X212303113Y-101382098D01*
X212207181Y-102064691D01*
X212072892Y-102742898D01*
X211900957Y-103412543D01*
X211691908Y-104071550D01*
X211446394Y-104717870D01*
X211165189Y-105349464D01*
X210849166Y-105964380D01*
X210499309Y-106560696D01*
X210116705Y-107136561D01*
X209702566Y-107690153D01*
X209258161Y-108219774D01*
X208784880Y-108723768D01*
X208284212Y-109200547D01*
X207757699Y-109648644D01*
X207207018Y-110066634D01*
X206633829Y-110453254D01*
X206039973Y-110807264D01*
X205427286Y-111127568D01*
X204797657Y-111413182D01*
X204153085Y-111663194D01*
X203495544Y-111876843D01*
X202827106Y-112053451D01*
X202149859Y-112192470D01*
X201465916Y-112293466D01*
X200777378Y-112356128D01*
X200086421Y-112380257D01*
X199395214Y-112365778D01*
X198705877Y-112312736D01*
X198020581Y-112221299D01*
X197341458Y-112091748D01*
X196670635Y-111924494D01*
X196010168Y-111720045D01*
X195362162Y-111479054D01*
X194728611Y-111202263D01*
X194111513Y-110890544D01*
X193512762Y-110544855D01*
X192934244Y-110166282D01*
X192377768Y-109756014D01*
X191845055Y-109315315D01*
X191337778Y-108845572D01*
X190857507Y-108348236D01*
X190405756Y-107824878D01*
X189983917Y-107277109D01*
X189593318Y-106706652D01*
X189235169Y-106115279D01*
X188910587Y-105504829D01*
X188620590Y-104877218D01*
X188366082Y-104234404D01*
X188147851Y-103578379D01*
X187966580Y-102911189D01*
X187915186Y-102669400D01*
X193753800Y-102669400D01*
X193753800Y-106118600D01*
X196249000Y-106118600D01*
X196249000Y-102686611D01*
X206259494Y-102686611D01*
X206300171Y-102908238D01*
X206383121Y-103117745D01*
X206505183Y-103307150D01*
X206661710Y-103469238D01*
X206846739Y-103597837D01*
X207053223Y-103688047D01*
X207273296Y-103736433D01*
X207498577Y-103741152D01*
X207720483Y-103702024D01*
X207930563Y-103620539D01*
X208120815Y-103499801D01*
X208283992Y-103344410D01*
X208413880Y-103160283D01*
X208505529Y-102954434D01*
X208555605Y-102734024D01*
X208557252Y-102616000D01*
X208748330Y-102616000D01*
X208766490Y-102813626D01*
X208830128Y-103033389D01*
X208934175Y-103237152D01*
X209074875Y-103417565D01*
X209247152Y-103568116D01*
X209444790Y-103683375D01*
X209660657Y-103759182D01*
X209924000Y-103798303D01*
X209924000Y-102616000D01*
X209976000Y-102616000D01*
X209976000Y-103788993D01*
X210115546Y-103783022D01*
X210338154Y-103730194D01*
X210546756Y-103636225D01*
X210733826Y-103504506D01*
X210892614Y-103339790D01*
X211017391Y-103148019D01*
X211103652Y-102936112D01*
X211167326Y-102616000D01*
X209976000Y-102616000D01*
X209924000Y-102616000D01*
X208748330Y-102616000D01*
X208557252Y-102616000D01*
X208557979Y-102564000D01*
X208747711Y-102564000D01*
X209924000Y-102564000D01*
X209976000Y-102564000D01*
X211165849Y-102564000D01*
X211106040Y-102251950D01*
X211021260Y-102039447D01*
X210897826Y-101846810D01*
X210740192Y-101680989D01*
X210554046Y-101547966D01*
X210346105Y-101452543D01*
X210123870Y-101398163D01*
X209976000Y-101390803D01*
X209976000Y-102564000D01*
X209924000Y-102564000D01*
X209924000Y-101382737D01*
X209668826Y-101418826D01*
X209452435Y-101493125D01*
X209253998Y-101607002D01*
X209080674Y-101756347D01*
X208938718Y-101935773D01*
X208833251Y-102138805D01*
X208768080Y-102358117D01*
X208747711Y-102564000D01*
X208557979Y-102564000D01*
X208559181Y-102478020D01*
X208515278Y-102256296D01*
X208429411Y-102047969D01*
X208304715Y-101860288D01*
X208145941Y-101700401D01*
X207959135Y-101574397D01*
X207751411Y-101487079D01*
X207530684Y-101441770D01*
X207305359Y-101440197D01*
X207084021Y-101482420D01*
X206875100Y-101566829D01*
X206686552Y-101690212D01*
X206525560Y-101847867D01*
X206398256Y-102033789D01*
X206309490Y-102240898D01*
X206262640Y-102461302D01*
X206259494Y-102686611D01*
X196249000Y-102686611D01*
X196249000Y-102669400D01*
X193753800Y-102669400D01*
X187915186Y-102669400D01*
X187822836Y-102234930D01*
X187717066Y-101551696D01*
X187649600Y-100863613D01*
X187620648Y-100172856D01*
X187621828Y-100088281D01*
X196559635Y-100088281D01*
X196601568Y-100285562D01*
X196686167Y-100468650D01*
X196809226Y-100628446D01*
X196964629Y-100757006D01*
X197144653Y-100847943D01*
X197340349Y-100896736D01*
X197541994Y-100900960D01*
X197739563Y-100860404D01*
X197923236Y-100777086D01*
X198083886Y-100655146D01*
X198213529Y-100500645D01*
X198305721Y-100321259D01*
X198356053Y-100125229D01*
X198356568Y-100088281D01*
X201639635Y-100088281D01*
X201681568Y-100285562D01*
X201766167Y-100468650D01*
X201889226Y-100628446D01*
X202044629Y-100757006D01*
X202224653Y-100847943D01*
X202420349Y-100896736D01*
X202621994Y-100900960D01*
X202819563Y-100860404D01*
X203003236Y-100777086D01*
X203163886Y-100655146D01*
X203293529Y-100500645D01*
X203385721Y-100321259D01*
X203430563Y-100146611D01*
X206259494Y-100146611D01*
X206300171Y-100368238D01*
X206383121Y-100577745D01*
X206505183Y-100767150D01*
X206661710Y-100929238D01*
X206846739Y-101057837D01*
X207053223Y-101148047D01*
X207273296Y-101196433D01*
X207498577Y-101201152D01*
X207720483Y-101162024D01*
X207930563Y-101080539D01*
X208120815Y-100959801D01*
X208283992Y-100804410D01*
X208413880Y-100620283D01*
X208505529Y-100414434D01*
X208555605Y-100194024D01*
X208556267Y-100146611D01*
X208799494Y-100146611D01*
X208840171Y-100368238D01*
X208923121Y-100577745D01*
X209045183Y-100767150D01*
X209201710Y-100929238D01*
X209386739Y-101057837D01*
X209593223Y-101148047D01*
X209813296Y-101196433D01*
X210038577Y-101201152D01*
X210260483Y-101162024D01*
X210470563Y-101080539D01*
X210660815Y-100959801D01*
X210823992Y-100804410D01*
X210953880Y-100620283D01*
X211045529Y-100414434D01*
X211095605Y-100194024D01*
X211099181Y-99938020D01*
X211055278Y-99716296D01*
X210969411Y-99507969D01*
X210844715Y-99320288D01*
X210685941Y-99160401D01*
X210499135Y-99034397D01*
X210291411Y-98947079D01*
X210070684Y-98901770D01*
X209845359Y-98900197D01*
X209624021Y-98942420D01*
X209415100Y-99026829D01*
X209226552Y-99150212D01*
X209065560Y-99307867D01*
X208938256Y-99493789D01*
X208849490Y-99700898D01*
X208802640Y-99921302D01*
X208799494Y-100146611D01*
X208556267Y-100146611D01*
X208559181Y-99938020D01*
X208515278Y-99716296D01*
X208429411Y-99507969D01*
X208304715Y-99320288D01*
X208145941Y-99160401D01*
X207959135Y-99034397D01*
X207751411Y-98947079D01*
X207530684Y-98901770D01*
X207305359Y-98900197D01*
X207084021Y-98942420D01*
X206875100Y-99026829D01*
X206686552Y-99150212D01*
X206525560Y-99307867D01*
X206398256Y-99493789D01*
X206309490Y-99700898D01*
X206262640Y-99921302D01*
X206259494Y-100146611D01*
X203430563Y-100146611D01*
X203436053Y-100125229D01*
X203439200Y-99899840D01*
X203394362Y-99702480D01*
X203307214Y-99520591D01*
X203181936Y-99362530D01*
X203024754Y-99236151D01*
X202843477Y-99147736D01*
X202647119Y-99101681D01*
X202445435Y-99100273D01*
X202248452Y-99143583D01*
X202065959Y-99229457D01*
X201907027Y-99353629D01*
X201779554Y-99509926D01*
X201689876Y-99690581D01*
X201642451Y-99886613D01*
X201639635Y-100088281D01*
X198356568Y-100088281D01*
X198359200Y-99899840D01*
X198314362Y-99702480D01*
X198227214Y-99520591D01*
X198101936Y-99362530D01*
X197944754Y-99236151D01*
X197763477Y-99147736D01*
X197567119Y-99101681D01*
X197365435Y-99100273D01*
X197168452Y-99143583D01*
X196985959Y-99229457D01*
X196827027Y-99353629D01*
X196699554Y-99509926D01*
X196609876Y-99690581D01*
X196562451Y-99886613D01*
X196559635Y-100088281D01*
X187621828Y-100088281D01*
X187630301Y-99481566D01*
X187678530Y-98791860D01*
X187765179Y-98105962D01*
X187854509Y-97619239D01*
X193481082Y-97619239D01*
X193481082Y-97977961D01*
X193513796Y-98142426D01*
X193612481Y-98290119D01*
X193627063Y-98299862D01*
X193627063Y-99413000D01*
X196652735Y-99413000D01*
X196628595Y-98157646D01*
X199339123Y-98157646D01*
X199548905Y-98301287D01*
X199740083Y-98378528D01*
X199943386Y-98412914D01*
X200149331Y-98402841D01*
X200348309Y-98348781D01*
X200531035Y-98253254D01*
X200653625Y-98150393D01*
X200000000Y-97496770D01*
X199339123Y-98157646D01*
X196628595Y-98157646D01*
X196615114Y-97456668D01*
X199045411Y-97456668D01*
X199066965Y-97661729D01*
X199132048Y-97857379D01*
X199294065Y-98129166D01*
X199963230Y-97460000D01*
X200036770Y-97460000D01*
X200692685Y-98115916D01*
X200814795Y-97957352D01*
X200902587Y-97770786D01*
X200948307Y-97569548D01*
X200949049Y-97357075D01*
X200904734Y-97155523D01*
X200818247Y-96968347D01*
X200693185Y-96803583D01*
X200036770Y-97460000D01*
X199963230Y-97460000D01*
X199295133Y-96791901D01*
X199134844Y-97056571D01*
X199068395Y-97251762D01*
X199045411Y-97456668D01*
X196615114Y-97456668D01*
X196610453Y-97214302D01*
X196676799Y-97032020D01*
X196676799Y-96820780D01*
X196655251Y-96761578D01*
X199338346Y-96761578D01*
X200000000Y-97423230D01*
X200653356Y-96769876D01*
X200536562Y-96670474D01*
X200498527Y-96650250D01*
X206257082Y-96650250D01*
X206257082Y-98369750D01*
X206278348Y-98476664D01*
X206344433Y-98575567D01*
X206443336Y-98641652D01*
X206550250Y-98662918D01*
X208269750Y-98662918D01*
X208376664Y-98641652D01*
X208475567Y-98575567D01*
X208541652Y-98476664D01*
X208562918Y-98369750D01*
X208562918Y-97606611D01*
X208799494Y-97606611D01*
X208840171Y-97828238D01*
X208923121Y-98037745D01*
X209045183Y-98227150D01*
X209201710Y-98389238D01*
X209386739Y-98517837D01*
X209593223Y-98608047D01*
X209813296Y-98656433D01*
X210038577Y-98661152D01*
X210260483Y-98622024D01*
X210470563Y-98540539D01*
X210660815Y-98419801D01*
X210823992Y-98264410D01*
X210953880Y-98080283D01*
X211045529Y-97874434D01*
X211095605Y-97654024D01*
X211099181Y-97398020D01*
X211055278Y-97176296D01*
X210969411Y-96967969D01*
X210844715Y-96780288D01*
X210685941Y-96620401D01*
X210499135Y-96494397D01*
X210291411Y-96407079D01*
X210070684Y-96361770D01*
X209845359Y-96360197D01*
X209624021Y-96402420D01*
X209415100Y-96486829D01*
X209226552Y-96610212D01*
X209065560Y-96767867D01*
X208938256Y-96953789D01*
X208849490Y-97160898D01*
X208802640Y-97381302D01*
X208799494Y-97606611D01*
X208562918Y-97606611D01*
X208562918Y-96650250D01*
X208541652Y-96543336D01*
X208475567Y-96444433D01*
X208376664Y-96378348D01*
X208269750Y-96357082D01*
X206550250Y-96357082D01*
X206443336Y-96378348D01*
X206344433Y-96444433D01*
X206278348Y-96543336D01*
X206257082Y-96650250D01*
X200498527Y-96650250D01*
X200354506Y-96573672D01*
X200155910Y-96518224D01*
X199950040Y-96506714D01*
X199746501Y-96539680D01*
X199554790Y-96615584D01*
X199338346Y-96761578D01*
X196655251Y-96761578D01*
X196604550Y-96622280D01*
X196598939Y-96615593D01*
X196585428Y-95913000D01*
X193627063Y-95913000D01*
X193627063Y-97297337D01*
X193612481Y-97307080D01*
X193513796Y-97454774D01*
X193481082Y-97619239D01*
X187854509Y-97619239D01*
X187889988Y-97425929D01*
X188052555Y-96753960D01*
X188252385Y-96092090D01*
X188488853Y-95442398D01*
X188514322Y-95382973D01*
X196372797Y-95382973D01*
X196460116Y-95468480D01*
X196675500Y-95619294D01*
X196912624Y-95732904D01*
X197165120Y-95806261D01*
X197426206Y-95837393D01*
X197688872Y-95825466D01*
X197946062Y-95770798D01*
X198190870Y-95674860D01*
X198416722Y-95540224D01*
X198599768Y-95385538D01*
X198597203Y-95382973D01*
X201452797Y-95382973D01*
X201540116Y-95468480D01*
X201755500Y-95619294D01*
X201992624Y-95732904D01*
X202245120Y-95806261D01*
X202506206Y-95837393D01*
X202768872Y-95825466D01*
X203026062Y-95770798D01*
X203270870Y-95674860D01*
X203496722Y-95540224D01*
X203679768Y-95385538D01*
X202565000Y-94270770D01*
X201452797Y-95382973D01*
X198597203Y-95382973D01*
X197485000Y-94270770D01*
X196372797Y-95382973D01*
X188514322Y-95382973D01*
X188761207Y-94806950D01*
X188999774Y-94326360D01*
X195883190Y-94326360D01*
X195919783Y-94586737D01*
X195998411Y-94837641D01*
X196116964Y-95072334D01*
X196325275Y-95356955D01*
X197448230Y-94234000D01*
X197521770Y-94234000D01*
X198636276Y-95348506D01*
X198787964Y-95170275D01*
X198923387Y-94944895D01*
X199020180Y-94700424D01*
X199076002Y-94442234D01*
X199078833Y-94326360D01*
X200963190Y-94326360D01*
X200999783Y-94586737D01*
X201078411Y-94837641D01*
X201196964Y-95072334D01*
X201405275Y-95356955D01*
X202528230Y-94234000D01*
X202601770Y-94234000D01*
X203716276Y-95348506D01*
X203867964Y-95170275D01*
X204003387Y-94944895D01*
X204100180Y-94700424D01*
X204156002Y-94442234D01*
X204164275Y-94103734D01*
X204121131Y-93843127D01*
X204036396Y-93594219D01*
X203912146Y-93362492D01*
X203721211Y-93114559D01*
X202601770Y-94234000D01*
X202528230Y-94234000D01*
X201411602Y-93117372D01*
X201239549Y-93329839D01*
X201109674Y-93558460D01*
X201018883Y-93805224D01*
X200969613Y-94063502D01*
X200963190Y-94326360D01*
X199078833Y-94326360D01*
X199084275Y-94103734D01*
X199041131Y-93843127D01*
X198956396Y-93594219D01*
X198832146Y-93362492D01*
X198641211Y-93114559D01*
X197521770Y-94234000D01*
X197448230Y-94234000D01*
X196331602Y-93117372D01*
X196159549Y-93329839D01*
X196029674Y-93558460D01*
X195938883Y-93805224D01*
X195889613Y-94063502D01*
X195883190Y-94326360D01*
X188999774Y-94326360D01*
X189068614Y-94187684D01*
X189410113Y-93586536D01*
X189733978Y-93083995D01*
X196371765Y-93083995D01*
X197485000Y-94197230D01*
X198597379Y-93084851D01*
X198479417Y-92974849D01*
X198260412Y-92829343D01*
X198020583Y-92721559D01*
X197766371Y-92654393D01*
X197504602Y-92629648D01*
X197242307Y-92647990D01*
X196986528Y-92708925D01*
X196744138Y-92810817D01*
X196521643Y-92950929D01*
X196371765Y-93083995D01*
X189733978Y-93083995D01*
X189784629Y-93005401D01*
X190191012Y-92446063D01*
X190627984Y-91910282D01*
X190938837Y-91569854D01*
X198606000Y-91569854D01*
X198606000Y-91818146D01*
X198649116Y-92062667D01*
X198734037Y-92295986D01*
X198858183Y-92511014D01*
X199017783Y-92701217D01*
X199207986Y-92860817D01*
X199423014Y-92984963D01*
X199656333Y-93069884D01*
X199900854Y-93113000D01*
X200149146Y-93113000D01*
X200313640Y-93083995D01*
X201451765Y-93083995D01*
X202565000Y-94197230D01*
X203677379Y-93084851D01*
X203559417Y-92974849D01*
X203340412Y-92829343D01*
X203100583Y-92721559D01*
X202846371Y-92654393D01*
X202584602Y-92629648D01*
X202322307Y-92647990D01*
X202066528Y-92708925D01*
X201824138Y-92810817D01*
X201601643Y-92950929D01*
X201451765Y-93083995D01*
X200313640Y-93083995D01*
X200393667Y-93069884D01*
X200626986Y-92984963D01*
X200842014Y-92860817D01*
X201032217Y-92701217D01*
X201191817Y-92511014D01*
X201315963Y-92295986D01*
X201400884Y-92062667D01*
X201444000Y-91818146D01*
X201444000Y-91569854D01*
X201400884Y-91325333D01*
X201315963Y-91092014D01*
X201191817Y-90876986D01*
X201032217Y-90686783D01*
X200842014Y-90527183D01*
X200626986Y-90403037D01*
X200393667Y-90318116D01*
X200307788Y-90302973D01*
X201452797Y-90302973D01*
X201540116Y-90388480D01*
X201755500Y-90539294D01*
X201992624Y-90652904D01*
X202245120Y-90726261D01*
X202506206Y-90757393D01*
X202768872Y-90745466D01*
X203026062Y-90690798D01*
X203270870Y-90594860D01*
X203496722Y-90460224D01*
X203679768Y-90305538D01*
X202565000Y-89190770D01*
X201452797Y-90302973D01*
X200307788Y-90302973D01*
X200149146Y-90275000D01*
X199900854Y-90275000D01*
X199656333Y-90318116D01*
X199423014Y-90403037D01*
X199207986Y-90527183D01*
X199017783Y-90686783D01*
X198858183Y-90876986D01*
X198734037Y-91092014D01*
X198649116Y-91325333D01*
X198606000Y-91569854D01*
X190938837Y-91569854D01*
X191094167Y-91399746D01*
X191588145Y-90916007D01*
X192108336Y-90460614D01*
X192310107Y-90302973D01*
X196372797Y-90302973D01*
X196460116Y-90388480D01*
X196675500Y-90539294D01*
X196912624Y-90652904D01*
X197165120Y-90726261D01*
X197426206Y-90757393D01*
X197688872Y-90745466D01*
X197946062Y-90690798D01*
X198190870Y-90594860D01*
X198416722Y-90460224D01*
X198599768Y-90305538D01*
X197485000Y-89190770D01*
X196372797Y-90302973D01*
X192310107Y-90302973D01*
X192653132Y-90034974D01*
X193220864Y-89640390D01*
X193809726Y-89278119D01*
X194417882Y-88949290D01*
X195043459Y-88654915D01*
X195684486Y-88395924D01*
X196177033Y-88228247D01*
X196159549Y-88249839D01*
X196029674Y-88478460D01*
X195938883Y-88725224D01*
X195889613Y-88983502D01*
X195883190Y-89246360D01*
X195919783Y-89506737D01*
X195998411Y-89757641D01*
X196116964Y-89992334D01*
X196325275Y-90276955D01*
X197448230Y-89154000D01*
X197521770Y-89154000D01*
X198636276Y-90268506D01*
X198787964Y-90090275D01*
X198923387Y-89864895D01*
X199020180Y-89620424D01*
X199076002Y-89362234D01*
X199078833Y-89246360D01*
X200963190Y-89246360D01*
X200999783Y-89506737D01*
X201078411Y-89757641D01*
X201196964Y-89992334D01*
X201405275Y-90276955D01*
X202528230Y-89154000D01*
X201411602Y-88037372D01*
X201239549Y-88249839D01*
X201109674Y-88478460D01*
X201018883Y-88725224D01*
X200969613Y-88983502D01*
X200963190Y-89246360D01*
X199078833Y-89246360D01*
X199084275Y-89023734D01*
X199041131Y-88763127D01*
X198956396Y-88514219D01*
X198832146Y-88282492D01*
X198641211Y-88034559D01*
X197521770Y-89154000D01*
X197448230Y-89154000D01*
X198597379Y-88004851D01*
X198479417Y-87894849D01*
X198260412Y-87749343D01*
X198252896Y-87745965D01*
X198362578Y-87728200D01*
X199050177Y-87655930D01*
X199740717Y-87622157D01*
X200432077Y-87626984D01*
G37*
X200432077Y-87626984D02*
X201122080Y-87670395D01*
X201793037Y-87750402D01*
X201601643Y-87870929D01*
X201451765Y-88003995D01*
X203716276Y-90268506D01*
X203867964Y-90090275D01*
X204003387Y-89864895D01*
X204100180Y-89620424D01*
X204156002Y-89362234D01*
X204164275Y-89023734D01*
X204121131Y-88763127D01*
X204036396Y-88514219D01*
X203912146Y-88282492D01*
X203884179Y-88246176D01*
X204477128Y-88457316D01*
X205114449Y-88725221D01*
X205735876Y-89028311D01*
X206339377Y-89365597D01*
X206923117Y-89736049D01*
X207485276Y-90138517D01*
X208024086Y-90571730D01*
X208537875Y-91034348D01*
X209025034Y-91524919D01*
X209484054Y-92041927D01*
X209913509Y-92583763D01*
X210312026Y-93148698D01*
X210678404Y-93735025D01*
X211011476Y-94340879D01*
X211310199Y-94964365D01*
X211573665Y-95603580D01*
X211801031Y-96256488D01*
X211991600Y-96921079D01*
X212144772Y-97595267D01*
X212260072Y-98276967D01*
X212337137Y-98964014D01*
X212375615Y-99652246D01*
X212303113Y-101382098D01*
X212207181Y-102064691D01*
X212072892Y-102742898D01*
X211900957Y-103412543D01*
X211691908Y-104071550D01*
X211446394Y-104717870D01*
X211165189Y-105349464D01*
X210849166Y-105964380D01*
X210499309Y-106560696D01*
X210116705Y-107136561D01*
X209702566Y-107690153D01*
X209258161Y-108219774D01*
X208784880Y-108723768D01*
X208284212Y-109200547D01*
X207757699Y-109648644D01*
X207207018Y-110066634D01*
X206633829Y-110453254D01*
X206039973Y-110807264D01*
X205427286Y-111127568D01*
X204797657Y-111413182D01*
X204153085Y-111663194D01*
X203495544Y-111876843D01*
X202827106Y-112053451D01*
X202149859Y-112192470D01*
X201465916Y-112293466D01*
X200777378Y-112356128D01*
X200086421Y-112380257D01*
X199395214Y-112365778D01*
X198705877Y-112312736D01*
X198020581Y-112221299D01*
X197341458Y-112091748D01*
X196670635Y-111924494D01*
X196010168Y-111720045D01*
X195362162Y-111479054D01*
X194728611Y-111202263D01*
X194111513Y-110890544D01*
X193512762Y-110544855D01*
X192934244Y-110166282D01*
X192377768Y-109756014D01*
X191845055Y-109315315D01*
X191337778Y-108845572D01*
X190857507Y-108348236D01*
X190405756Y-107824878D01*
X189983917Y-107277109D01*
X189593318Y-106706652D01*
X189235169Y-106115279D01*
X188910587Y-105504829D01*
X188620590Y-104877218D01*
X188366082Y-104234404D01*
X188147851Y-103578379D01*
X187966580Y-102911189D01*
X187915186Y-102669400D01*
X193753800Y-102669400D01*
X193753800Y-106118600D01*
X196249000Y-106118600D01*
X196249000Y-102686611D01*
X206259494Y-102686611D01*
X206300171Y-102908238D01*
X206383121Y-103117745D01*
X206505183Y-103307150D01*
X206661710Y-103469238D01*
X206846739Y-103597837D01*
X207053223Y-103688047D01*
X207273296Y-103736433D01*
X207498577Y-103741152D01*
X207720483Y-103702024D01*
X207930563Y-103620539D01*
X208120815Y-103499801D01*
X208283992Y-103344410D01*
X208413880Y-103160283D01*
X208505529Y-102954434D01*
X208555605Y-102734024D01*
X208557252Y-102616000D01*
X208748330Y-102616000D01*
X208766490Y-102813626D01*
X208830128Y-103033389D01*
X208934175Y-103237152D01*
X209074875Y-103417565D01*
X209247152Y-103568116D01*
X209444790Y-103683375D01*
X209660657Y-103759182D01*
X209924000Y-103798303D01*
X209924000Y-102616000D01*
X209976000Y-102616000D01*
X209976000Y-103788993D01*
X210115546Y-103783022D01*
X210338154Y-103730194D01*
X210546756Y-103636225D01*
X210733826Y-103504506D01*
X210892614Y-103339790D01*
X211017391Y-103148019D01*
X211103652Y-102936112D01*
X211167326Y-102616000D01*
X209976000Y-102616000D01*
X209924000Y-102616000D01*
X208748330Y-102616000D01*
X208557252Y-102616000D01*
X208557979Y-102564000D01*
X208747711Y-102564000D01*
X209924000Y-102564000D01*
X209976000Y-102564000D01*
X211165849Y-102564000D01*
X211106040Y-102251950D01*
X211021260Y-102039447D01*
X210897826Y-101846810D01*
X210740192Y-101680989D01*
X210554046Y-101547966D01*
X210346105Y-101452543D01*
X210123870Y-101398163D01*
X209976000Y-101390803D01*
X209976000Y-102564000D01*
X209924000Y-102564000D01*
X209924000Y-101382737D01*
X209668826Y-101418826D01*
X209452435Y-101493125D01*
X209253998Y-101607002D01*
X209080674Y-101756347D01*
X208938718Y-101935773D01*
X208833251Y-102138805D01*
X208768080Y-102358117D01*
X208747711Y-102564000D01*
X208557979Y-102564000D01*
X208559181Y-102478020D01*
X208515278Y-102256296D01*
X208429411Y-102047969D01*
X208304715Y-101860288D01*
X208145941Y-101700401D01*
X207959135Y-101574397D01*
X207751411Y-101487079D01*
X207530684Y-101441770D01*
X207305359Y-101440197D01*
X207084021Y-101482420D01*
X206875100Y-101566829D01*
X206686552Y-101690212D01*
X206525560Y-101847867D01*
X206398256Y-102033789D01*
X206309490Y-102240898D01*
X206262640Y-102461302D01*
X206259494Y-102686611D01*
X196249000Y-102686611D01*
X196249000Y-102669400D01*
X193753800Y-102669400D01*
X187915186Y-102669400D01*
X187822836Y-102234930D01*
X187717066Y-101551696D01*
X187649600Y-100863613D01*
X187620648Y-100172856D01*
X187621828Y-100088281D01*
X196559635Y-100088281D01*
X196601568Y-100285562D01*
X196686167Y-100468650D01*
X196809226Y-100628446D01*
X196964629Y-100757006D01*
X197144653Y-100847943D01*
X197340349Y-100896736D01*
X197541994Y-100900960D01*
X197739563Y-100860404D01*
X197923236Y-100777086D01*
X198083886Y-100655146D01*
X198213529Y-100500645D01*
X198305721Y-100321259D01*
X198356053Y-100125229D01*
X198356568Y-100088281D01*
X201639635Y-100088281D01*
X201681568Y-100285562D01*
X201766167Y-100468650D01*
X201889226Y-100628446D01*
X202044629Y-100757006D01*
X202224653Y-100847943D01*
X202420349Y-100896736D01*
X202621994Y-100900960D01*
X202819563Y-100860404D01*
X203003236Y-100777086D01*
X203163886Y-100655146D01*
X203293529Y-100500645D01*
X203385721Y-100321259D01*
X203430563Y-100146611D01*
X206259494Y-100146611D01*
X206300171Y-100368238D01*
X206383121Y-100577745D01*
X206505183Y-100767150D01*
X206661710Y-100929238D01*
X206846739Y-101057837D01*
X207053223Y-101148047D01*
X207273296Y-101196433D01*
X207498577Y-101201152D01*
X207720483Y-101162024D01*
X207930563Y-101080539D01*
X208120815Y-100959801D01*
X208283992Y-100804410D01*
X208413880Y-100620283D01*
X208505529Y-100414434D01*
X208555605Y-100194024D01*
X208556267Y-100146611D01*
X208799494Y-100146611D01*
X208840171Y-100368238D01*
X208923121Y-100577745D01*
X209045183Y-100767150D01*
X209201710Y-100929238D01*
X209386739Y-101057837D01*
X209593223Y-101148047D01*
X209813296Y-101196433D01*
X210038577Y-101201152D01*
X210260483Y-101162024D01*
X210470563Y-101080539D01*
X210660815Y-100959801D01*
X210823992Y-100804410D01*
X210953880Y-100620283D01*
X211045529Y-100414434D01*
X211095605Y-100194024D01*
X211099181Y-99938020D01*
X211055278Y-99716296D01*
X210969411Y-99507969D01*
X210844715Y-99320288D01*
X210685941Y-99160401D01*
X210499135Y-99034397D01*
X210291411Y-98947079D01*
X210070684Y-98901770D01*
X209845359Y-98900197D01*
X209624021Y-98942420D01*
X209415100Y-99026829D01*
X209226552Y-99150212D01*
X209065560Y-99307867D01*
X208938256Y-99493789D01*
X208849490Y-99700898D01*
X208802640Y-99921302D01*
X208799494Y-100146611D01*
X208556267Y-100146611D01*
X208559181Y-99938020D01*
X208515278Y-99716296D01*
X208429411Y-99507969D01*
X208304715Y-99320288D01*
X208145941Y-99160401D01*
X207959135Y-99034397D01*
X207751411Y-98947079D01*
X207530684Y-98901770D01*
X207305359Y-98900197D01*
X207084021Y-98942420D01*
X206875100Y-99026829D01*
X206686552Y-99150212D01*
X206525560Y-99307867D01*
X206398256Y-99493789D01*
X206309490Y-99700898D01*
X206262640Y-99921302D01*
X206259494Y-100146611D01*
X203430563Y-100146611D01*
X203436053Y-100125229D01*
X203439200Y-99899840D01*
X203394362Y-99702480D01*
X203307214Y-99520591D01*
X203181936Y-99362530D01*
X203024754Y-99236151D01*
X202843477Y-99147736D01*
X202647119Y-99101681D01*
X202445435Y-99100273D01*
X202248452Y-99143583D01*
X202065959Y-99229457D01*
X201907027Y-99353629D01*
X201779554Y-99509926D01*
X201689876Y-99690581D01*
X201642451Y-99886613D01*
X201639635Y-100088281D01*
X198356568Y-100088281D01*
X198359200Y-99899840D01*
X198314362Y-99702480D01*
X198227214Y-99520591D01*
X198101936Y-99362530D01*
X197944754Y-99236151D01*
X197763477Y-99147736D01*
X197567119Y-99101681D01*
X197365435Y-99100273D01*
X197168452Y-99143583D01*
X196985959Y-99229457D01*
X196827027Y-99353629D01*
X196699554Y-99509926D01*
X196609876Y-99690581D01*
X196562451Y-99886613D01*
X196559635Y-100088281D01*
X187621828Y-100088281D01*
X187630301Y-99481566D01*
X187678530Y-98791860D01*
X187765179Y-98105962D01*
X187854509Y-97619239D01*
X193481082Y-97619239D01*
X193481082Y-97977961D01*
X193513796Y-98142426D01*
X193612481Y-98290119D01*
X193627063Y-98299862D01*
X193627063Y-99413000D01*
X196652735Y-99413000D01*
X196628595Y-98157646D01*
X199339123Y-98157646D01*
X199548905Y-98301287D01*
X199740083Y-98378528D01*
X199943386Y-98412914D01*
X200149331Y-98402841D01*
X200348309Y-98348781D01*
X200531035Y-98253254D01*
X200653625Y-98150393D01*
X200000000Y-97496770D01*
X199339123Y-98157646D01*
X196628595Y-98157646D01*
X196615114Y-97456668D01*
X199045411Y-97456668D01*
X199066965Y-97661729D01*
X199132048Y-97857379D01*
X199294065Y-98129166D01*
X199963230Y-97460000D01*
X200036770Y-97460000D01*
X200692685Y-98115916D01*
X200814795Y-97957352D01*
X200902587Y-97770786D01*
X200948307Y-97569548D01*
X200949049Y-97357075D01*
X200904734Y-97155523D01*
X200818247Y-96968347D01*
X200693185Y-96803583D01*
X200036770Y-97460000D01*
X199963230Y-97460000D01*
X199295133Y-96791901D01*
X199134844Y-97056571D01*
X199068395Y-97251762D01*
X199045411Y-97456668D01*
X196615114Y-97456668D01*
X196610453Y-97214302D01*
X196676799Y-97032020D01*
X196676799Y-96820780D01*
X196655251Y-96761578D01*
X199338346Y-96761578D01*
X200000000Y-97423230D01*
X200653356Y-96769876D01*
X200536562Y-96670474D01*
X200498527Y-96650250D01*
X206257082Y-96650250D01*
X206257082Y-98369750D01*
X206278348Y-98476664D01*
X206344433Y-98575567D01*
X206443336Y-98641652D01*
X206550250Y-98662918D01*
X208269750Y-98662918D01*
X208376664Y-98641652D01*
X208475567Y-98575567D01*
X208541652Y-98476664D01*
X208562918Y-98369750D01*
X208562918Y-97606611D01*
X208799494Y-97606611D01*
X208840171Y-97828238D01*
X208923121Y-98037745D01*
X209045183Y-98227150D01*
X209201710Y-98389238D01*
X209386739Y-98517837D01*
X209593223Y-98608047D01*
X209813296Y-98656433D01*
X210038577Y-98661152D01*
X210260483Y-98622024D01*
X210470563Y-98540539D01*
X210660815Y-98419801D01*
X210823992Y-98264410D01*
X210953880Y-98080283D01*
X211045529Y-97874434D01*
X211095605Y-97654024D01*
X211099181Y-97398020D01*
X211055278Y-97176296D01*
X210969411Y-96967969D01*
X210844715Y-96780288D01*
X210685941Y-96620401D01*
X210499135Y-96494397D01*
X210291411Y-96407079D01*
X210070684Y-96361770D01*
X209845359Y-96360197D01*
X209624021Y-96402420D01*
X209415100Y-96486829D01*
X209226552Y-96610212D01*
X209065560Y-96767867D01*
X208938256Y-96953789D01*
X208849490Y-97160898D01*
X208802640Y-97381302D01*
X208799494Y-97606611D01*
X208562918Y-97606611D01*
X208562918Y-96650250D01*
X208541652Y-96543336D01*
X208475567Y-96444433D01*
X208376664Y-96378348D01*
X208269750Y-96357082D01*
X206550250Y-96357082D01*
X206443336Y-96378348D01*
X206344433Y-96444433D01*
X206278348Y-96543336D01*
X206257082Y-96650250D01*
X200498527Y-96650250D01*
X200354506Y-96573672D01*
X200155910Y-96518224D01*
X199950040Y-96506714D01*
X199746501Y-96539680D01*
X199554790Y-96615584D01*
X199338346Y-96761578D01*
X196655251Y-96761578D01*
X196604550Y-96622280D01*
X196598939Y-96615593D01*
X196585428Y-95913000D01*
X193627063Y-95913000D01*
X193627063Y-97297337D01*
X193612481Y-97307080D01*
X193513796Y-97454774D01*
X193481082Y-97619239D01*
X187854509Y-97619239D01*
X187889988Y-97425929D01*
X188052555Y-96753960D01*
X188252385Y-96092090D01*
X188488853Y-95442398D01*
X188514322Y-95382973D01*
X196372797Y-95382973D01*
X196460116Y-95468480D01*
X196675500Y-95619294D01*
X196912624Y-95732904D01*
X197165120Y-95806261D01*
X197426206Y-95837393D01*
X197688872Y-95825466D01*
X197946062Y-95770798D01*
X198190870Y-95674860D01*
X198416722Y-95540224D01*
X198599768Y-95385538D01*
X198597203Y-95382973D01*
X201452797Y-95382973D01*
X201540116Y-95468480D01*
X201755500Y-95619294D01*
X201992624Y-95732904D01*
X202245120Y-95806261D01*
X202506206Y-95837393D01*
X202768872Y-95825466D01*
X203026062Y-95770798D01*
X203270870Y-95674860D01*
X203496722Y-95540224D01*
X203679768Y-95385538D01*
X202565000Y-94270770D01*
X201452797Y-95382973D01*
X198597203Y-95382973D01*
X197485000Y-94270770D01*
X196372797Y-95382973D01*
X188514322Y-95382973D01*
X188761207Y-94806950D01*
X188999774Y-94326360D01*
X195883190Y-94326360D01*
X195919783Y-94586737D01*
X195998411Y-94837641D01*
X196116964Y-95072334D01*
X196325275Y-95356955D01*
X197448230Y-94234000D01*
X197521770Y-94234000D01*
X198636276Y-95348506D01*
X198787964Y-95170275D01*
X198923387Y-94944895D01*
X199020180Y-94700424D01*
X199076002Y-94442234D01*
X199078833Y-94326360D01*
X200963190Y-94326360D01*
X200999783Y-94586737D01*
X201078411Y-94837641D01*
X201196964Y-95072334D01*
X201405275Y-95356955D01*
X202528230Y-94234000D01*
X202601770Y-94234000D01*
X203716276Y-95348506D01*
X203867964Y-95170275D01*
X204003387Y-94944895D01*
X204100180Y-94700424D01*
X204156002Y-94442234D01*
X204164275Y-94103734D01*
X204121131Y-93843127D01*
X204036396Y-93594219D01*
X203912146Y-93362492D01*
X203721211Y-93114559D01*
X202601770Y-94234000D01*
X202528230Y-94234000D01*
X201411602Y-93117372D01*
X201239549Y-93329839D01*
X201109674Y-93558460D01*
X201018883Y-93805224D01*
X200969613Y-94063502D01*
X200963190Y-94326360D01*
X199078833Y-94326360D01*
X199084275Y-94103734D01*
X199041131Y-93843127D01*
X198956396Y-93594219D01*
X198832146Y-93362492D01*
X198641211Y-93114559D01*
X197521770Y-94234000D01*
X197448230Y-94234000D01*
X196331602Y-93117372D01*
X196159549Y-93329839D01*
X196029674Y-93558460D01*
X195938883Y-93805224D01*
X195889613Y-94063502D01*
X195883190Y-94326360D01*
X188999774Y-94326360D01*
X189068614Y-94187684D01*
X189410113Y-93586536D01*
X189733978Y-93083995D01*
X196371765Y-93083995D01*
X197485000Y-94197230D01*
X198597379Y-93084851D01*
X198479417Y-92974849D01*
X198260412Y-92829343D01*
X198020583Y-92721559D01*
X197766371Y-92654393D01*
X197504602Y-92629648D01*
X197242307Y-92647990D01*
X196986528Y-92708925D01*
X196744138Y-92810817D01*
X196521643Y-92950929D01*
X196371765Y-93083995D01*
X189733978Y-93083995D01*
X189784629Y-93005401D01*
X190191012Y-92446063D01*
X190627984Y-91910282D01*
X190938837Y-91569854D01*
X198606000Y-91569854D01*
X198606000Y-91818146D01*
X198649116Y-92062667D01*
X198734037Y-92295986D01*
X198858183Y-92511014D01*
X199017783Y-92701217D01*
X199207986Y-92860817D01*
X199423014Y-92984963D01*
X199656333Y-93069884D01*
X199900854Y-93113000D01*
X200149146Y-93113000D01*
X200313640Y-93083995D01*
X201451765Y-93083995D01*
X202565000Y-94197230D01*
X203677379Y-93084851D01*
X203559417Y-92974849D01*
X203340412Y-92829343D01*
X203100583Y-92721559D01*
X202846371Y-92654393D01*
X202584602Y-92629648D01*
X202322307Y-92647990D01*
X202066528Y-92708925D01*
X201824138Y-92810817D01*
X201601643Y-92950929D01*
X201451765Y-93083995D01*
X200313640Y-93083995D01*
X200393667Y-93069884D01*
X200626986Y-92984963D01*
X200842014Y-92860817D01*
X201032217Y-92701217D01*
X201191817Y-92511014D01*
X201315963Y-92295986D01*
X201400884Y-92062667D01*
X201444000Y-91818146D01*
X201444000Y-91569854D01*
X201400884Y-91325333D01*
X201315963Y-91092014D01*
X201191817Y-90876986D01*
X201032217Y-90686783D01*
X200842014Y-90527183D01*
X200626986Y-90403037D01*
X200393667Y-90318116D01*
X200307788Y-90302973D01*
X201452797Y-90302973D01*
X201540116Y-90388480D01*
X201755500Y-90539294D01*
X201992624Y-90652904D01*
X202245120Y-90726261D01*
X202506206Y-90757393D01*
X202768872Y-90745466D01*
X203026062Y-90690798D01*
X203270870Y-90594860D01*
X203496722Y-90460224D01*
X203679768Y-90305538D01*
X202565000Y-89190770D01*
X201452797Y-90302973D01*
X200307788Y-90302973D01*
X200149146Y-90275000D01*
X199900854Y-90275000D01*
X199656333Y-90318116D01*
X199423014Y-90403037D01*
X199207986Y-90527183D01*
X199017783Y-90686783D01*
X198858183Y-90876986D01*
X198734037Y-91092014D01*
X198649116Y-91325333D01*
X198606000Y-91569854D01*
X190938837Y-91569854D01*
X191094167Y-91399746D01*
X191588145Y-90916007D01*
X192108336Y-90460614D01*
X192310107Y-90302973D01*
X196372797Y-90302973D01*
X196460116Y-90388480D01*
X196675500Y-90539294D01*
X196912624Y-90652904D01*
X197165120Y-90726261D01*
X197426206Y-90757393D01*
X197688872Y-90745466D01*
X197946062Y-90690798D01*
X198190870Y-90594860D01*
X198416722Y-90460224D01*
X198599768Y-90305538D01*
X197485000Y-89190770D01*
X196372797Y-90302973D01*
X192310107Y-90302973D01*
X192653132Y-90034974D01*
X193220864Y-89640390D01*
X193809726Y-89278119D01*
X194417882Y-88949290D01*
X195043459Y-88654915D01*
X195684486Y-88395924D01*
X196177033Y-88228247D01*
X196159549Y-88249839D01*
X196029674Y-88478460D01*
X195938883Y-88725224D01*
X195889613Y-88983502D01*
X195883190Y-89246360D01*
X195919783Y-89506737D01*
X195998411Y-89757641D01*
X196116964Y-89992334D01*
X196325275Y-90276955D01*
X197448230Y-89154000D01*
X197521770Y-89154000D01*
X198636276Y-90268506D01*
X198787964Y-90090275D01*
X198923387Y-89864895D01*
X199020180Y-89620424D01*
X199076002Y-89362234D01*
X199078833Y-89246360D01*
X200963190Y-89246360D01*
X200999783Y-89506737D01*
X201078411Y-89757641D01*
X201196964Y-89992334D01*
X201405275Y-90276955D01*
X202528230Y-89154000D01*
X201411602Y-88037372D01*
X201239549Y-88249839D01*
X201109674Y-88478460D01*
X201018883Y-88725224D01*
X200969613Y-88983502D01*
X200963190Y-89246360D01*
X199078833Y-89246360D01*
X199084275Y-89023734D01*
X199041131Y-88763127D01*
X198956396Y-88514219D01*
X198832146Y-88282492D01*
X198641211Y-88034559D01*
X197521770Y-89154000D01*
X197448230Y-89154000D01*
X198597379Y-88004851D01*
X198479417Y-87894849D01*
X198260412Y-87749343D01*
X198252896Y-87745965D01*
X198362578Y-87728200D01*
X199050177Y-87655930D01*
X199740717Y-87622157D01*
X200432077Y-87626984D01*
M02*
