G04 #@! TF.GenerationSoftware,KiCad,Pcbnew,(5.99.0-417-g8bd2765f3)*
G04 #@! TF.CreationDate,2020-07-21T00:36:45-04:00*
G04 #@! TF.ProjectId,tiav2,74696176-322e-46b6-9963-61645f706362,rev?*
G04 #@! TF.SameCoordinates,Original*
G04 #@! TF.FileFunction,Soldermask,Top*
G04 #@! TF.FilePolarity,Negative*
%FSLAX46Y46*%
G04 Gerber Fmt 4.6, Leading zero omitted, Abs format (unit mm)*
G04 Created by KiCad (PCBNEW (5.99.0-417-g8bd2765f3)) date 2020-07-21 00:36:45*
%MOMM*%
%LPD*%
G04 APERTURE LIST*
G04 APERTURE END LIST*
G36*
X205473119Y-106381390D02*
G01*
X205481447Y-106385897D01*
X205486581Y-106386918D01*
X205500416Y-106396162D01*
X205544663Y-106420107D01*
X205558103Y-106434707D01*
X205567209Y-106440791D01*
X205576487Y-106454677D01*
X205599760Y-106479958D01*
X205611954Y-106507757D01*
X205621082Y-106521419D01*
X205623684Y-106534500D01*
X205633501Y-106556881D01*
X205641728Y-106622882D01*
X205641728Y-107085523D01*
X205626610Y-107176119D01*
X205622103Y-107184447D01*
X205621082Y-107189581D01*
X205611838Y-107203416D01*
X205587893Y-107247663D01*
X205573293Y-107261103D01*
X205567209Y-107270209D01*
X205553323Y-107279487D01*
X205528042Y-107302760D01*
X205500243Y-107314954D01*
X205486581Y-107324082D01*
X205473500Y-107326684D01*
X205451119Y-107336501D01*
X205385118Y-107344728D01*
X204497477Y-107344728D01*
X204406881Y-107329610D01*
X204398553Y-107325103D01*
X204393419Y-107324082D01*
X204379584Y-107314838D01*
X204335337Y-107290893D01*
X204321897Y-107276293D01*
X204312791Y-107270209D01*
X204303513Y-107256323D01*
X204280240Y-107231042D01*
X204268046Y-107203243D01*
X204258918Y-107189581D01*
X204256316Y-107176500D01*
X204246499Y-107154119D01*
X204238272Y-107088118D01*
X204238272Y-106625477D01*
X204253390Y-106534881D01*
X204257897Y-106526553D01*
X204258918Y-106521419D01*
X204268162Y-106507584D01*
X204292107Y-106463337D01*
X204306707Y-106449897D01*
X204312791Y-106440791D01*
X204326677Y-106431513D01*
X204351958Y-106408240D01*
X204379757Y-106396046D01*
X204393419Y-106386918D01*
X204406500Y-106384316D01*
X204428881Y-106374499D01*
X204494882Y-106366272D01*
X205382523Y-106366272D01*
X205473119Y-106381390D01*
G37*
G36*
X206804042Y-105482892D02*
G01*
X206806268Y-105484270D01*
X206807162Y-105484448D01*
X206814830Y-105489571D01*
X206851117Y-105512039D01*
X206853828Y-105515629D01*
X206855952Y-105517048D01*
X206864036Y-105529147D01*
X206882678Y-105553833D01*
X206883845Y-105558793D01*
X206888552Y-105565838D01*
X206900000Y-105623390D01*
X206900000Y-105627481D01*
X206902449Y-105637893D01*
X206902449Y-105901025D01*
X206890108Y-105967042D01*
X206888730Y-105969268D01*
X206888552Y-105970162D01*
X206883429Y-105977830D01*
X206860961Y-106014117D01*
X206857371Y-106016828D01*
X206855952Y-106018952D01*
X206843853Y-106027036D01*
X206819167Y-106045678D01*
X206814207Y-106046845D01*
X206807162Y-106051552D01*
X206749610Y-106063000D01*
X206745519Y-106063000D01*
X206735107Y-106065449D01*
X206421975Y-106065449D01*
X206355958Y-106053108D01*
X206353732Y-106051730D01*
X206352838Y-106051552D01*
X206345170Y-106046429D01*
X206308883Y-106023961D01*
X206306172Y-106020371D01*
X206304048Y-106018952D01*
X206295964Y-106006853D01*
X206277322Y-105982167D01*
X206276155Y-105977207D01*
X206271448Y-105970162D01*
X206260000Y-105912610D01*
X206260000Y-105908519D01*
X206257551Y-105898107D01*
X206257551Y-105634975D01*
X206269892Y-105568958D01*
X206271270Y-105566732D01*
X206271448Y-105565838D01*
X206276571Y-105558170D01*
X206299039Y-105521883D01*
X206302629Y-105519172D01*
X206304048Y-105517048D01*
X206316147Y-105508964D01*
X206340833Y-105490322D01*
X206345793Y-105489155D01*
X206352838Y-105484448D01*
X206410390Y-105473000D01*
X206414481Y-105473000D01*
X206424893Y-105470551D01*
X206738025Y-105470551D01*
X206804042Y-105482892D01*
G37*
G36*
X195397064Y-104755847D02*
G01*
X195404935Y-104760107D01*
X195409316Y-104760978D01*
X195421119Y-104768865D01*
X195461428Y-104790678D01*
X195473673Y-104803980D01*
X195481674Y-104809326D01*
X195489827Y-104821528D01*
X195510999Y-104844527D01*
X195522091Y-104869814D01*
X195530022Y-104881684D01*
X195532283Y-104893050D01*
X195541460Y-104913972D01*
X195548928Y-104973886D01*
X195548928Y-105386517D01*
X195535153Y-105469064D01*
X195530893Y-105476935D01*
X195530022Y-105481316D01*
X195522135Y-105493119D01*
X195500322Y-105533428D01*
X195487020Y-105545673D01*
X195481674Y-105553674D01*
X195469472Y-105561827D01*
X195446473Y-105582999D01*
X195421186Y-105594091D01*
X195409316Y-105602022D01*
X195397950Y-105604283D01*
X195377028Y-105613460D01*
X195317114Y-105620928D01*
X194829483Y-105620928D01*
X194746936Y-105607153D01*
X194739065Y-105602893D01*
X194734684Y-105602022D01*
X194722881Y-105594135D01*
X194682572Y-105572322D01*
X194670327Y-105559020D01*
X194662326Y-105553674D01*
X194654173Y-105541472D01*
X194633001Y-105518473D01*
X194621909Y-105493186D01*
X194613978Y-105481316D01*
X194611717Y-105469950D01*
X194602540Y-105449028D01*
X194595072Y-105389114D01*
X194595072Y-104976483D01*
X194608847Y-104893936D01*
X194613107Y-104886065D01*
X194613978Y-104881684D01*
X194621865Y-104869881D01*
X194643678Y-104829572D01*
X194656980Y-104817327D01*
X194662326Y-104809326D01*
X194674528Y-104801173D01*
X194697527Y-104780001D01*
X194722814Y-104768909D01*
X194734684Y-104760978D01*
X194746050Y-104758717D01*
X194766972Y-104749540D01*
X194826886Y-104742072D01*
X195314517Y-104742072D01*
X195397064Y-104755847D01*
G37*
G36*
X205473119Y-104506390D02*
G01*
X205481447Y-104510897D01*
X205486581Y-104511918D01*
X205500416Y-104521162D01*
X205544663Y-104545107D01*
X205558103Y-104559707D01*
X205567209Y-104565791D01*
X205576487Y-104579677D01*
X205599760Y-104604958D01*
X205611954Y-104632757D01*
X205621082Y-104646419D01*
X205623684Y-104659500D01*
X205633501Y-104681881D01*
X205641728Y-104747882D01*
X205641728Y-105210523D01*
X205626610Y-105301119D01*
X205622103Y-105309447D01*
X205621082Y-105314581D01*
X205611838Y-105328416D01*
X205587893Y-105372663D01*
X205573293Y-105386103D01*
X205567209Y-105395209D01*
X205553323Y-105404487D01*
X205528042Y-105427760D01*
X205500243Y-105439954D01*
X205486581Y-105449082D01*
X205473500Y-105451684D01*
X205451119Y-105461501D01*
X205385118Y-105469728D01*
X204497477Y-105469728D01*
X204406881Y-105454610D01*
X204398553Y-105450103D01*
X204393419Y-105449082D01*
X204379584Y-105439838D01*
X204335337Y-105415893D01*
X204321897Y-105401293D01*
X204312791Y-105395209D01*
X204303513Y-105381323D01*
X204280240Y-105356042D01*
X204268046Y-105328243D01*
X204258918Y-105314581D01*
X204256316Y-105301500D01*
X204246499Y-105279119D01*
X204238272Y-105213118D01*
X204238272Y-104750477D01*
X204253390Y-104659881D01*
X204257897Y-104651553D01*
X204258918Y-104646419D01*
X204268162Y-104632584D01*
X204292107Y-104588337D01*
X204306707Y-104574897D01*
X204312791Y-104565791D01*
X204326677Y-104556513D01*
X204351958Y-104533240D01*
X204379757Y-104521046D01*
X204393419Y-104511918D01*
X204406500Y-104509316D01*
X204428881Y-104499499D01*
X204494882Y-104491272D01*
X205382523Y-104491272D01*
X205473119Y-104506390D01*
G37*
G36*
X206804042Y-104512892D02*
G01*
X206806268Y-104514270D01*
X206807162Y-104514448D01*
X206814830Y-104519571D01*
X206851117Y-104542039D01*
X206853828Y-104545629D01*
X206855952Y-104547048D01*
X206864036Y-104559147D01*
X206882678Y-104583833D01*
X206883845Y-104588793D01*
X206888552Y-104595838D01*
X206900000Y-104653390D01*
X206900000Y-104657481D01*
X206902449Y-104667893D01*
X206902449Y-104931025D01*
X206890108Y-104997042D01*
X206888730Y-104999268D01*
X206888552Y-105000162D01*
X206883429Y-105007830D01*
X206860961Y-105044117D01*
X206857371Y-105046828D01*
X206855952Y-105048952D01*
X206843853Y-105057036D01*
X206819167Y-105075678D01*
X206814207Y-105076845D01*
X206807162Y-105081552D01*
X206749610Y-105093000D01*
X206745519Y-105093000D01*
X206735107Y-105095449D01*
X206421975Y-105095449D01*
X206355958Y-105083108D01*
X206353732Y-105081730D01*
X206352838Y-105081552D01*
X206345170Y-105076429D01*
X206308883Y-105053961D01*
X206306172Y-105050371D01*
X206304048Y-105048952D01*
X206295964Y-105036853D01*
X206277322Y-105012167D01*
X206276155Y-105007207D01*
X206271448Y-105000162D01*
X206260000Y-104942610D01*
X206260000Y-104938519D01*
X206257551Y-104928107D01*
X206257551Y-104664975D01*
X206269892Y-104598958D01*
X206271270Y-104596732D01*
X206271448Y-104595838D01*
X206276571Y-104588170D01*
X206299039Y-104551883D01*
X206302629Y-104549172D01*
X206304048Y-104547048D01*
X206316147Y-104538964D01*
X206340833Y-104520322D01*
X206345793Y-104519155D01*
X206352838Y-104514448D01*
X206410390Y-104503000D01*
X206414481Y-104503000D01*
X206424893Y-104500551D01*
X206738025Y-104500551D01*
X206804042Y-104512892D01*
G37*
G36*
X195397064Y-103180847D02*
G01*
X195404935Y-103185107D01*
X195409316Y-103185978D01*
X195421119Y-103193865D01*
X195461428Y-103215678D01*
X195473673Y-103228980D01*
X195481674Y-103234326D01*
X195489827Y-103246528D01*
X195510999Y-103269527D01*
X195522091Y-103294814D01*
X195530022Y-103306684D01*
X195532283Y-103318050D01*
X195541460Y-103338972D01*
X195548928Y-103398886D01*
X195548928Y-103811517D01*
X195535153Y-103894064D01*
X195530893Y-103901935D01*
X195530022Y-103906316D01*
X195522135Y-103918119D01*
X195500322Y-103958428D01*
X195487020Y-103970673D01*
X195481674Y-103978674D01*
X195469472Y-103986827D01*
X195446473Y-104007999D01*
X195421186Y-104019091D01*
X195409316Y-104027022D01*
X195397950Y-104029283D01*
X195377028Y-104038460D01*
X195317114Y-104045928D01*
X194829483Y-104045928D01*
X194746936Y-104032153D01*
X194739065Y-104027893D01*
X194734684Y-104027022D01*
X194722881Y-104019135D01*
X194682572Y-103997322D01*
X194670327Y-103984020D01*
X194662326Y-103978674D01*
X194654173Y-103966472D01*
X194633001Y-103943473D01*
X194621909Y-103918186D01*
X194613978Y-103906316D01*
X194611717Y-103894950D01*
X194602540Y-103874028D01*
X194595072Y-103814114D01*
X194595072Y-103401483D01*
X194608847Y-103318936D01*
X194613107Y-103311065D01*
X194613978Y-103306684D01*
X194621865Y-103294881D01*
X194643678Y-103254572D01*
X194656980Y-103242327D01*
X194662326Y-103234326D01*
X194674528Y-103226173D01*
X194697527Y-103205001D01*
X194722814Y-103193909D01*
X194734684Y-103185978D01*
X194746050Y-103183717D01*
X194766972Y-103174540D01*
X194826886Y-103167072D01*
X195314517Y-103167072D01*
X195397064Y-103180847D01*
G37*
G36*
X202763642Y-102968292D02*
G01*
X202765868Y-102969670D01*
X202766762Y-102969848D01*
X202774430Y-102974971D01*
X202810717Y-102997439D01*
X202813428Y-103001029D01*
X202815552Y-103002448D01*
X202823636Y-103014547D01*
X202842278Y-103039233D01*
X202843445Y-103044193D01*
X202848152Y-103051238D01*
X202859600Y-103108790D01*
X202859600Y-103112881D01*
X202862049Y-103123293D01*
X202862049Y-103386425D01*
X202849708Y-103452442D01*
X202848330Y-103454668D01*
X202848152Y-103455562D01*
X202843029Y-103463230D01*
X202820561Y-103499517D01*
X202816971Y-103502228D01*
X202815552Y-103504352D01*
X202803453Y-103512436D01*
X202778767Y-103531078D01*
X202773807Y-103532245D01*
X202766762Y-103536952D01*
X202709210Y-103548400D01*
X202705119Y-103548400D01*
X202694707Y-103550849D01*
X202381575Y-103550849D01*
X202315558Y-103538508D01*
X202313332Y-103537130D01*
X202312438Y-103536952D01*
X202304770Y-103531829D01*
X202268483Y-103509361D01*
X202265772Y-103505771D01*
X202263648Y-103504352D01*
X202255564Y-103492253D01*
X202236922Y-103467567D01*
X202235755Y-103462607D01*
X202231048Y-103455562D01*
X202219600Y-103398010D01*
X202219600Y-103393919D01*
X202217151Y-103383507D01*
X202217151Y-103120375D01*
X202229492Y-103054358D01*
X202230870Y-103052132D01*
X202231048Y-103051238D01*
X202236171Y-103043570D01*
X202258639Y-103007283D01*
X202262229Y-103004572D01*
X202263648Y-103002448D01*
X202275747Y-102994364D01*
X202300433Y-102975722D01*
X202305393Y-102974555D01*
X202312438Y-102969848D01*
X202369990Y-102958400D01*
X202374081Y-102958400D01*
X202384493Y-102955951D01*
X202697625Y-102955951D01*
X202763642Y-102968292D01*
G37*
G36*
X203843642Y-102958292D02*
G01*
X203845868Y-102959670D01*
X203846762Y-102959848D01*
X203854430Y-102964971D01*
X203890717Y-102987439D01*
X203893428Y-102991029D01*
X203895552Y-102992448D01*
X203903636Y-103004547D01*
X203922278Y-103029233D01*
X203923445Y-103034193D01*
X203928152Y-103041238D01*
X203939600Y-103098790D01*
X203939600Y-103102881D01*
X203942049Y-103113293D01*
X203942049Y-103376425D01*
X203929708Y-103442442D01*
X203928330Y-103444668D01*
X203928152Y-103445562D01*
X203923029Y-103453230D01*
X203900561Y-103489517D01*
X203896971Y-103492228D01*
X203895552Y-103494352D01*
X203883453Y-103502436D01*
X203858767Y-103521078D01*
X203853807Y-103522245D01*
X203846762Y-103526952D01*
X203789210Y-103538400D01*
X203785119Y-103538400D01*
X203774707Y-103540849D01*
X203461575Y-103540849D01*
X203395558Y-103528508D01*
X203393332Y-103527130D01*
X203392438Y-103526952D01*
X203384770Y-103521829D01*
X203348483Y-103499361D01*
X203345772Y-103495771D01*
X203343648Y-103494352D01*
X203335564Y-103482253D01*
X203316922Y-103457567D01*
X203315755Y-103452607D01*
X203311048Y-103445562D01*
X203299600Y-103388010D01*
X203299600Y-103383919D01*
X203297151Y-103373507D01*
X203297151Y-103110375D01*
X203309492Y-103044358D01*
X203310870Y-103042132D01*
X203311048Y-103041238D01*
X203316171Y-103033570D01*
X203338639Y-102997283D01*
X203342229Y-102994572D01*
X203343648Y-102992448D01*
X203355747Y-102984364D01*
X203380433Y-102965722D01*
X203385393Y-102964555D01*
X203392438Y-102959848D01*
X203449990Y-102948400D01*
X203454081Y-102948400D01*
X203464493Y-102945951D01*
X203777625Y-102945951D01*
X203843642Y-102958292D01*
G37*
G36*
X209952970Y-101738828D02*
G01*
X209994714Y-101736786D01*
X210038955Y-101743635D01*
X210089646Y-101746469D01*
X210129950Y-101757722D01*
X210165368Y-101763205D01*
X210212898Y-101780881D01*
X210267524Y-101796133D01*
X210299207Y-101812979D01*
X210327214Y-101823395D01*
X210375259Y-101853417D01*
X210430588Y-101882836D01*
X210453375Y-101902230D01*
X210473657Y-101914903D01*
X210518979Y-101958063D01*
X210571230Y-102002532D01*
X210585714Y-102021614D01*
X210598709Y-102033989D01*
X210637815Y-102090254D01*
X210682888Y-102149636D01*
X210690428Y-102165953D01*
X210697263Y-102175788D01*
X210726606Y-102244250D01*
X210760353Y-102317286D01*
X210762928Y-102328996D01*
X210765288Y-102334503D01*
X210781456Y-102413267D01*
X210800011Y-102497659D01*
X210799346Y-102688273D01*
X210780192Y-102772580D01*
X210763484Y-102851185D01*
X210761086Y-102856673D01*
X210758430Y-102868365D01*
X210724170Y-102941169D01*
X210694351Y-103009423D01*
X210687447Y-103019210D01*
X210679796Y-103035469D01*
X210634330Y-103094508D01*
X210594814Y-103150526D01*
X210581727Y-103162816D01*
X210567114Y-103181791D01*
X210514566Y-103225884D01*
X210468934Y-103268735D01*
X210448560Y-103281269D01*
X210425639Y-103300502D01*
X210370106Y-103329534D01*
X210321855Y-103359218D01*
X210293778Y-103369437D01*
X210261974Y-103386064D01*
X210207241Y-103400934D01*
X210159585Y-103418280D01*
X210124126Y-103423516D01*
X210083753Y-103434485D01*
X210033048Y-103436965D01*
X209988758Y-103443505D01*
X209947030Y-103441172D01*
X209899292Y-103443507D01*
X209855101Y-103436033D01*
X209816345Y-103433866D01*
X209770188Y-103421671D01*
X209717197Y-103412708D01*
X209681163Y-103398149D01*
X209649392Y-103389755D01*
X209601308Y-103365886D01*
X209545963Y-103343525D01*
X209518813Y-103324935D01*
X209494720Y-103312975D01*
X209447736Y-103276268D01*
X209393580Y-103239186D01*
X209375141Y-103219551D01*
X209358643Y-103206661D01*
X209316146Y-103156727D01*
X209267157Y-103104559D01*
X209256423Y-103086552D01*
X209246723Y-103075155D01*
X209212273Y-103012490D01*
X209172592Y-102945925D01*
X209167863Y-102931708D01*
X209163535Y-102923836D01*
X209140635Y-102849859D01*
X209114298Y-102770685D01*
X209113358Y-102761738D01*
X209112471Y-102758874D01*
X209104331Y-102675859D01*
X209094993Y-102587015D01*
X209104963Y-102498127D01*
X209113671Y-102415283D01*
X209114575Y-102412432D01*
X209115579Y-102403485D01*
X209142485Y-102324451D01*
X209165886Y-102250680D01*
X209170267Y-102242841D01*
X209175096Y-102228656D01*
X209215246Y-102162361D01*
X209250127Y-102099948D01*
X209259904Y-102088621D01*
X209270766Y-102070686D01*
X209320130Y-102018848D01*
X209362965Y-101969224D01*
X209379550Y-101956452D01*
X209398126Y-101936945D01*
X209452529Y-101900250D01*
X209499778Y-101863863D01*
X209523964Y-101852067D01*
X209551234Y-101833673D01*
X209606715Y-101811706D01*
X209654980Y-101788166D01*
X209686816Y-101779992D01*
X209722946Y-101765687D01*
X209775996Y-101757095D01*
X209822238Y-101745222D01*
X209861010Y-101743326D01*
X209905252Y-101736160D01*
X209952970Y-101738828D01*
G37*
G36*
X207412970Y-101738828D02*
G01*
X207454714Y-101736786D01*
X207498955Y-101743635D01*
X207549646Y-101746469D01*
X207589950Y-101757722D01*
X207625368Y-101763205D01*
X207672898Y-101780881D01*
X207727524Y-101796133D01*
X207759207Y-101812979D01*
X207787214Y-101823395D01*
X207835259Y-101853417D01*
X207890588Y-101882836D01*
X207913375Y-101902230D01*
X207933657Y-101914903D01*
X207978979Y-101958063D01*
X208031230Y-102002532D01*
X208045714Y-102021614D01*
X208058709Y-102033989D01*
X208097815Y-102090254D01*
X208142888Y-102149636D01*
X208150428Y-102165953D01*
X208157263Y-102175788D01*
X208186606Y-102244250D01*
X208220353Y-102317286D01*
X208222928Y-102328996D01*
X208225288Y-102334503D01*
X208241456Y-102413267D01*
X208260011Y-102497659D01*
X208259346Y-102688273D01*
X208240192Y-102772580D01*
X208223484Y-102851185D01*
X208221086Y-102856673D01*
X208218430Y-102868365D01*
X208184170Y-102941169D01*
X208154351Y-103009423D01*
X208147447Y-103019210D01*
X208139796Y-103035469D01*
X208094330Y-103094508D01*
X208054814Y-103150526D01*
X208041727Y-103162816D01*
X208027114Y-103181791D01*
X207974566Y-103225884D01*
X207928934Y-103268735D01*
X207908560Y-103281269D01*
X207885639Y-103300502D01*
X207830106Y-103329534D01*
X207781855Y-103359218D01*
X207753778Y-103369437D01*
X207721974Y-103386064D01*
X207667241Y-103400934D01*
X207619585Y-103418280D01*
X207584126Y-103423516D01*
X207543753Y-103434485D01*
X207493048Y-103436965D01*
X207448758Y-103443505D01*
X207407030Y-103441172D01*
X207359292Y-103443507D01*
X207315101Y-103436033D01*
X207276345Y-103433866D01*
X207230188Y-103421671D01*
X207177197Y-103412708D01*
X207141163Y-103398149D01*
X207109392Y-103389755D01*
X207061308Y-103365886D01*
X207005963Y-103343525D01*
X206978813Y-103324935D01*
X206954720Y-103312975D01*
X206907736Y-103276268D01*
X206853580Y-103239186D01*
X206835141Y-103219551D01*
X206818643Y-103206661D01*
X206776146Y-103156727D01*
X206727157Y-103104559D01*
X206716423Y-103086552D01*
X206706723Y-103075155D01*
X206672273Y-103012490D01*
X206632592Y-102945925D01*
X206627863Y-102931708D01*
X206623535Y-102923836D01*
X206600635Y-102849859D01*
X206574298Y-102770685D01*
X206573358Y-102761738D01*
X206572471Y-102758874D01*
X206564331Y-102675859D01*
X206554993Y-102587015D01*
X206564963Y-102498127D01*
X206573671Y-102415283D01*
X206574575Y-102412432D01*
X206575579Y-102403485D01*
X206602485Y-102324451D01*
X206625886Y-102250680D01*
X206630267Y-102242841D01*
X206635096Y-102228656D01*
X206675246Y-102162361D01*
X206710127Y-102099948D01*
X206719904Y-102088621D01*
X206730766Y-102070686D01*
X206780130Y-102018848D01*
X206822965Y-101969224D01*
X206839550Y-101956452D01*
X206858126Y-101936945D01*
X206912529Y-101900250D01*
X206959778Y-101863863D01*
X206983964Y-101852067D01*
X207011234Y-101833673D01*
X207066715Y-101811706D01*
X207114980Y-101788166D01*
X207146816Y-101779992D01*
X207182946Y-101765687D01*
X207235996Y-101757095D01*
X207282238Y-101745222D01*
X207321010Y-101743326D01*
X207365252Y-101736160D01*
X207412970Y-101738828D01*
G37*
G36*
X202763642Y-101998292D02*
G01*
X202765868Y-101999670D01*
X202766762Y-101999848D01*
X202774430Y-102004971D01*
X202810717Y-102027439D01*
X202813428Y-102031029D01*
X202815552Y-102032448D01*
X202823636Y-102044547D01*
X202842278Y-102069233D01*
X202843445Y-102074193D01*
X202848152Y-102081238D01*
X202859600Y-102138790D01*
X202859600Y-102142881D01*
X202862049Y-102153293D01*
X202862049Y-102416425D01*
X202849708Y-102482442D01*
X202848330Y-102484668D01*
X202848152Y-102485562D01*
X202843029Y-102493230D01*
X202820561Y-102529517D01*
X202816971Y-102532228D01*
X202815552Y-102534352D01*
X202803453Y-102542436D01*
X202778767Y-102561078D01*
X202773807Y-102562245D01*
X202766762Y-102566952D01*
X202709210Y-102578400D01*
X202705119Y-102578400D01*
X202694707Y-102580849D01*
X202381575Y-102580849D01*
X202315558Y-102568508D01*
X202313332Y-102567130D01*
X202312438Y-102566952D01*
X202304770Y-102561829D01*
X202268483Y-102539361D01*
X202265772Y-102535771D01*
X202263648Y-102534352D01*
X202255564Y-102522253D01*
X202236922Y-102497567D01*
X202235755Y-102492607D01*
X202231048Y-102485562D01*
X202219600Y-102428010D01*
X202219600Y-102423919D01*
X202217151Y-102413507D01*
X202217151Y-102150375D01*
X202229492Y-102084358D01*
X202230870Y-102082132D01*
X202231048Y-102081238D01*
X202236171Y-102073570D01*
X202258639Y-102037283D01*
X202262229Y-102034572D01*
X202263648Y-102032448D01*
X202275747Y-102024364D01*
X202300433Y-102005722D01*
X202305393Y-102004555D01*
X202312438Y-101999848D01*
X202369990Y-101988400D01*
X202374081Y-101988400D01*
X202384493Y-101985951D01*
X202697625Y-101985951D01*
X202763642Y-101998292D01*
G37*
G36*
X203843642Y-101988292D02*
G01*
X203845868Y-101989670D01*
X203846762Y-101989848D01*
X203854430Y-101994971D01*
X203890717Y-102017439D01*
X203893428Y-102021029D01*
X203895552Y-102022448D01*
X203903636Y-102034547D01*
X203922278Y-102059233D01*
X203923445Y-102064193D01*
X203928152Y-102071238D01*
X203939600Y-102128790D01*
X203939600Y-102132881D01*
X203942049Y-102143293D01*
X203942049Y-102406425D01*
X203929708Y-102472442D01*
X203928330Y-102474668D01*
X203928152Y-102475562D01*
X203923029Y-102483230D01*
X203900561Y-102519517D01*
X203896971Y-102522228D01*
X203895552Y-102524352D01*
X203883453Y-102532436D01*
X203858767Y-102551078D01*
X203853807Y-102552245D01*
X203846762Y-102556952D01*
X203789210Y-102568400D01*
X203785119Y-102568400D01*
X203774707Y-102570849D01*
X203461575Y-102570849D01*
X203395558Y-102558508D01*
X203393332Y-102557130D01*
X203392438Y-102556952D01*
X203384770Y-102551829D01*
X203348483Y-102529361D01*
X203345772Y-102525771D01*
X203343648Y-102524352D01*
X203335564Y-102512253D01*
X203316922Y-102487567D01*
X203315755Y-102482607D01*
X203311048Y-102475562D01*
X203299600Y-102418010D01*
X203299600Y-102413919D01*
X203297151Y-102403507D01*
X203297151Y-102140375D01*
X203309492Y-102074358D01*
X203310870Y-102072132D01*
X203311048Y-102071238D01*
X203316171Y-102063570D01*
X203338639Y-102027283D01*
X203342229Y-102024572D01*
X203343648Y-102022448D01*
X203355747Y-102014364D01*
X203380433Y-101995722D01*
X203385393Y-101994555D01*
X203392438Y-101989848D01*
X203449990Y-101978400D01*
X203454081Y-101978400D01*
X203464493Y-101975951D01*
X203777625Y-101975951D01*
X203843642Y-101988292D01*
G37*
G36*
X196289442Y-101086692D02*
G01*
X196291668Y-101088070D01*
X196292562Y-101088248D01*
X196300230Y-101093371D01*
X196336517Y-101115839D01*
X196339228Y-101119429D01*
X196341352Y-101120848D01*
X196349436Y-101132947D01*
X196368078Y-101157633D01*
X196369245Y-101162593D01*
X196373952Y-101169638D01*
X196385400Y-101227190D01*
X196385400Y-101231281D01*
X196387849Y-101241693D01*
X196387849Y-101554825D01*
X196375508Y-101620842D01*
X196374130Y-101623068D01*
X196373952Y-101623962D01*
X196368829Y-101631630D01*
X196346361Y-101667917D01*
X196342771Y-101670628D01*
X196341352Y-101672752D01*
X196329253Y-101680836D01*
X196304567Y-101699478D01*
X196299607Y-101700645D01*
X196292562Y-101705352D01*
X196235010Y-101716800D01*
X196230919Y-101716800D01*
X196220507Y-101719249D01*
X195957375Y-101719249D01*
X195891358Y-101706908D01*
X195889132Y-101705530D01*
X195888238Y-101705352D01*
X195880570Y-101700229D01*
X195844283Y-101677761D01*
X195841572Y-101674171D01*
X195839448Y-101672752D01*
X195831364Y-101660653D01*
X195812722Y-101635967D01*
X195811555Y-101631007D01*
X195806848Y-101623962D01*
X195795400Y-101566410D01*
X195795400Y-101562319D01*
X195792951Y-101551907D01*
X195792951Y-101238775D01*
X195805292Y-101172758D01*
X195806670Y-101170532D01*
X195806848Y-101169638D01*
X195811971Y-101161970D01*
X195834439Y-101125683D01*
X195838029Y-101122972D01*
X195839448Y-101120848D01*
X195851547Y-101112764D01*
X195876233Y-101094122D01*
X195881193Y-101092955D01*
X195888238Y-101088248D01*
X195945790Y-101076800D01*
X195949881Y-101076800D01*
X195960293Y-101074351D01*
X196223425Y-101074351D01*
X196289442Y-101086692D01*
G37*
G36*
X195319442Y-101086692D02*
G01*
X195321668Y-101088070D01*
X195322562Y-101088248D01*
X195330230Y-101093371D01*
X195366517Y-101115839D01*
X195369228Y-101119429D01*
X195371352Y-101120848D01*
X195379436Y-101132947D01*
X195398078Y-101157633D01*
X195399245Y-101162593D01*
X195403952Y-101169638D01*
X195415400Y-101227190D01*
X195415400Y-101231281D01*
X195417849Y-101241693D01*
X195417849Y-101554825D01*
X195405508Y-101620842D01*
X195404130Y-101623068D01*
X195403952Y-101623962D01*
X195398829Y-101631630D01*
X195376361Y-101667917D01*
X195372771Y-101670628D01*
X195371352Y-101672752D01*
X195359253Y-101680836D01*
X195334567Y-101699478D01*
X195329607Y-101700645D01*
X195322562Y-101705352D01*
X195265010Y-101716800D01*
X195260919Y-101716800D01*
X195250507Y-101719249D01*
X194987375Y-101719249D01*
X194921358Y-101706908D01*
X194919132Y-101705530D01*
X194918238Y-101705352D01*
X194910570Y-101700229D01*
X194874283Y-101677761D01*
X194871572Y-101674171D01*
X194869448Y-101672752D01*
X194861364Y-101660653D01*
X194842722Y-101635967D01*
X194841555Y-101631007D01*
X194836848Y-101623962D01*
X194825400Y-101566410D01*
X194825400Y-101562319D01*
X194822951Y-101551907D01*
X194822951Y-101238775D01*
X194835292Y-101172758D01*
X194836670Y-101170532D01*
X194836848Y-101169638D01*
X194841971Y-101161970D01*
X194864439Y-101125683D01*
X194868029Y-101122972D01*
X194869448Y-101120848D01*
X194881547Y-101112764D01*
X194906233Y-101094122D01*
X194911193Y-101092955D01*
X194918238Y-101088248D01*
X194975790Y-101076800D01*
X194979881Y-101076800D01*
X194990293Y-101074351D01*
X195253425Y-101074351D01*
X195319442Y-101086692D01*
G37*
G36*
X204643242Y-100699892D02*
G01*
X204645468Y-100701270D01*
X204646362Y-100701448D01*
X204654030Y-100706571D01*
X204690317Y-100729039D01*
X204693028Y-100732629D01*
X204695152Y-100734048D01*
X204703236Y-100746147D01*
X204721878Y-100770833D01*
X204723045Y-100775793D01*
X204727752Y-100782838D01*
X204739200Y-100840390D01*
X204739200Y-100844481D01*
X204741649Y-100854893D01*
X204741649Y-101118025D01*
X204729308Y-101184042D01*
X204727930Y-101186268D01*
X204727752Y-101187162D01*
X204722629Y-101194830D01*
X204700161Y-101231117D01*
X204696571Y-101233828D01*
X204695152Y-101235952D01*
X204683053Y-101244036D01*
X204658367Y-101262678D01*
X204653407Y-101263845D01*
X204646362Y-101268552D01*
X204588810Y-101280000D01*
X204584719Y-101280000D01*
X204574307Y-101282449D01*
X204261175Y-101282449D01*
X204195158Y-101270108D01*
X204192932Y-101268730D01*
X204192038Y-101268552D01*
X204184370Y-101263429D01*
X204148083Y-101240961D01*
X204145372Y-101237371D01*
X204143248Y-101235952D01*
X204135164Y-101223853D01*
X204116522Y-101199167D01*
X204115355Y-101194207D01*
X204110648Y-101187162D01*
X204099200Y-101129610D01*
X204099200Y-101125519D01*
X204096751Y-101115107D01*
X204096751Y-100851975D01*
X204109092Y-100785958D01*
X204110470Y-100783732D01*
X204110648Y-100782838D01*
X204115771Y-100775170D01*
X204138239Y-100738883D01*
X204141829Y-100736172D01*
X204143248Y-100734048D01*
X204155347Y-100725964D01*
X204180033Y-100707322D01*
X204184993Y-100706155D01*
X204192038Y-100701448D01*
X204249590Y-100690000D01*
X204253681Y-100690000D01*
X204264093Y-100687551D01*
X204577225Y-100687551D01*
X204643242Y-100699892D01*
G37*
G36*
X207412970Y-99198828D02*
G01*
X207454714Y-99196786D01*
X207498955Y-99203635D01*
X207549646Y-99206469D01*
X207589950Y-99217722D01*
X207625368Y-99223205D01*
X207672898Y-99240881D01*
X207727524Y-99256133D01*
X207759207Y-99272979D01*
X207787214Y-99283395D01*
X207835259Y-99313417D01*
X207890588Y-99342836D01*
X207913375Y-99362230D01*
X207933657Y-99374903D01*
X207978979Y-99418063D01*
X208031230Y-99462532D01*
X208045714Y-99481614D01*
X208058709Y-99493989D01*
X208097815Y-99550254D01*
X208142888Y-99609636D01*
X208150428Y-99625953D01*
X208157263Y-99635788D01*
X208186606Y-99704250D01*
X208220353Y-99777286D01*
X208222928Y-99788996D01*
X208225288Y-99794503D01*
X208241456Y-99873267D01*
X208260011Y-99957659D01*
X208259346Y-100148273D01*
X208240192Y-100232580D01*
X208223484Y-100311185D01*
X208221086Y-100316673D01*
X208218430Y-100328365D01*
X208184170Y-100401169D01*
X208154351Y-100469423D01*
X208147447Y-100479210D01*
X208139796Y-100495469D01*
X208094330Y-100554508D01*
X208054814Y-100610526D01*
X208041727Y-100622816D01*
X208027114Y-100641791D01*
X207974566Y-100685884D01*
X207928934Y-100728735D01*
X207908560Y-100741269D01*
X207885639Y-100760502D01*
X207830106Y-100789534D01*
X207781855Y-100819218D01*
X207753778Y-100829437D01*
X207721974Y-100846064D01*
X207667241Y-100860934D01*
X207619585Y-100878280D01*
X207584126Y-100883516D01*
X207543753Y-100894485D01*
X207493048Y-100896965D01*
X207448758Y-100903505D01*
X207407030Y-100901172D01*
X207359292Y-100903507D01*
X207315101Y-100896033D01*
X207276345Y-100893866D01*
X207230188Y-100881671D01*
X207177197Y-100872708D01*
X207141163Y-100858149D01*
X207109392Y-100849755D01*
X207061308Y-100825886D01*
X207005963Y-100803525D01*
X206978813Y-100784935D01*
X206954720Y-100772975D01*
X206907736Y-100736268D01*
X206853580Y-100699186D01*
X206835141Y-100679551D01*
X206818643Y-100666661D01*
X206776146Y-100616727D01*
X206727157Y-100564559D01*
X206716423Y-100546552D01*
X206706723Y-100535155D01*
X206672273Y-100472490D01*
X206632592Y-100405925D01*
X206627863Y-100391708D01*
X206623535Y-100383836D01*
X206600635Y-100309859D01*
X206574298Y-100230685D01*
X206573358Y-100221738D01*
X206572471Y-100218874D01*
X206564331Y-100135859D01*
X206554993Y-100047015D01*
X206564963Y-99958127D01*
X206573671Y-99875283D01*
X206574575Y-99872432D01*
X206575579Y-99863485D01*
X206602485Y-99784451D01*
X206625886Y-99710680D01*
X206630267Y-99702841D01*
X206635096Y-99688656D01*
X206675246Y-99622361D01*
X206710127Y-99559948D01*
X206719904Y-99548621D01*
X206730766Y-99530686D01*
X206780130Y-99478848D01*
X206822965Y-99429224D01*
X206839550Y-99416452D01*
X206858126Y-99396945D01*
X206912529Y-99360250D01*
X206959778Y-99323863D01*
X206983964Y-99312067D01*
X207011234Y-99293673D01*
X207066715Y-99271706D01*
X207114980Y-99248166D01*
X207146816Y-99239992D01*
X207182946Y-99225687D01*
X207235996Y-99217095D01*
X207282238Y-99205222D01*
X207321010Y-99203326D01*
X207365252Y-99196160D01*
X207412970Y-99198828D01*
G37*
G36*
X209952970Y-99198828D02*
G01*
X209994714Y-99196786D01*
X210038955Y-99203635D01*
X210089646Y-99206469D01*
X210129950Y-99217722D01*
X210165368Y-99223205D01*
X210212898Y-99240881D01*
X210267524Y-99256133D01*
X210299207Y-99272979D01*
X210327214Y-99283395D01*
X210375259Y-99313417D01*
X210430588Y-99342836D01*
X210453375Y-99362230D01*
X210473657Y-99374903D01*
X210518979Y-99418063D01*
X210571230Y-99462532D01*
X210585714Y-99481614D01*
X210598709Y-99493989D01*
X210637815Y-99550254D01*
X210682888Y-99609636D01*
X210690428Y-99625953D01*
X210697263Y-99635788D01*
X210726606Y-99704250D01*
X210760353Y-99777286D01*
X210762928Y-99788996D01*
X210765288Y-99794503D01*
X210781456Y-99873267D01*
X210800011Y-99957659D01*
X210799346Y-100148273D01*
X210780192Y-100232580D01*
X210763484Y-100311185D01*
X210761086Y-100316673D01*
X210758430Y-100328365D01*
X210724170Y-100401169D01*
X210694351Y-100469423D01*
X210687447Y-100479210D01*
X210679796Y-100495469D01*
X210634330Y-100554508D01*
X210594814Y-100610526D01*
X210581727Y-100622816D01*
X210567114Y-100641791D01*
X210514566Y-100685884D01*
X210468934Y-100728735D01*
X210448560Y-100741269D01*
X210425639Y-100760502D01*
X210370106Y-100789534D01*
X210321855Y-100819218D01*
X210293778Y-100829437D01*
X210261974Y-100846064D01*
X210207241Y-100860934D01*
X210159585Y-100878280D01*
X210124126Y-100883516D01*
X210083753Y-100894485D01*
X210033048Y-100896965D01*
X209988758Y-100903505D01*
X209947030Y-100901172D01*
X209899292Y-100903507D01*
X209855101Y-100896033D01*
X209816345Y-100893866D01*
X209770188Y-100881671D01*
X209717197Y-100872708D01*
X209681163Y-100858149D01*
X209649392Y-100849755D01*
X209601308Y-100825886D01*
X209545963Y-100803525D01*
X209518813Y-100784935D01*
X209494720Y-100772975D01*
X209447736Y-100736268D01*
X209393580Y-100699186D01*
X209375141Y-100679551D01*
X209358643Y-100666661D01*
X209316146Y-100616727D01*
X209267157Y-100564559D01*
X209256423Y-100546552D01*
X209246723Y-100535155D01*
X209212273Y-100472490D01*
X209172592Y-100405925D01*
X209167863Y-100391708D01*
X209163535Y-100383836D01*
X209140635Y-100309859D01*
X209114298Y-100230685D01*
X209113358Y-100221738D01*
X209112471Y-100218874D01*
X209104331Y-100135859D01*
X209094993Y-100047015D01*
X209104963Y-99958127D01*
X209113671Y-99875283D01*
X209114575Y-99872432D01*
X209115579Y-99863485D01*
X209142485Y-99784451D01*
X209165886Y-99710680D01*
X209170267Y-99702841D01*
X209175096Y-99688656D01*
X209215246Y-99622361D01*
X209250127Y-99559948D01*
X209259904Y-99548621D01*
X209270766Y-99530686D01*
X209320130Y-99478848D01*
X209362965Y-99429224D01*
X209379550Y-99416452D01*
X209398126Y-99396945D01*
X209452529Y-99360250D01*
X209499778Y-99323863D01*
X209523964Y-99312067D01*
X209551234Y-99293673D01*
X209606715Y-99271706D01*
X209654980Y-99248166D01*
X209686816Y-99239992D01*
X209722946Y-99225687D01*
X209775996Y-99217095D01*
X209822238Y-99205222D01*
X209861010Y-99203326D01*
X209905252Y-99196160D01*
X209952970Y-99198828D01*
G37*
G36*
X196289442Y-100070692D02*
G01*
X196291668Y-100072070D01*
X196292562Y-100072248D01*
X196300230Y-100077371D01*
X196336517Y-100099839D01*
X196339228Y-100103429D01*
X196341352Y-100104848D01*
X196349436Y-100116947D01*
X196368078Y-100141633D01*
X196369245Y-100146593D01*
X196373952Y-100153638D01*
X196385400Y-100211190D01*
X196385400Y-100215281D01*
X196387849Y-100225693D01*
X196387849Y-100538825D01*
X196375508Y-100604842D01*
X196374130Y-100607068D01*
X196373952Y-100607962D01*
X196368829Y-100615630D01*
X196346361Y-100651917D01*
X196342771Y-100654628D01*
X196341352Y-100656752D01*
X196329253Y-100664836D01*
X196304567Y-100683478D01*
X196299607Y-100684645D01*
X196292562Y-100689352D01*
X196235010Y-100700800D01*
X196230919Y-100700800D01*
X196220507Y-100703249D01*
X195957375Y-100703249D01*
X195891358Y-100690908D01*
X195889132Y-100689530D01*
X195888238Y-100689352D01*
X195880570Y-100684229D01*
X195844283Y-100661761D01*
X195841572Y-100658171D01*
X195839448Y-100656752D01*
X195831364Y-100644653D01*
X195812722Y-100619967D01*
X195811555Y-100615007D01*
X195806848Y-100607962D01*
X195795400Y-100550410D01*
X195795400Y-100546319D01*
X195792951Y-100535907D01*
X195792951Y-100222775D01*
X195805292Y-100156758D01*
X195806670Y-100154532D01*
X195806848Y-100153638D01*
X195811971Y-100145970D01*
X195834439Y-100109683D01*
X195838029Y-100106972D01*
X195839448Y-100104848D01*
X195851547Y-100096764D01*
X195876233Y-100078122D01*
X195881193Y-100076955D01*
X195888238Y-100072248D01*
X195945790Y-100060800D01*
X195949881Y-100060800D01*
X195960293Y-100058351D01*
X196223425Y-100058351D01*
X196289442Y-100070692D01*
G37*
G36*
X195319442Y-100070692D02*
G01*
X195321668Y-100072070D01*
X195322562Y-100072248D01*
X195330230Y-100077371D01*
X195366517Y-100099839D01*
X195369228Y-100103429D01*
X195371352Y-100104848D01*
X195379436Y-100116947D01*
X195398078Y-100141633D01*
X195399245Y-100146593D01*
X195403952Y-100153638D01*
X195415400Y-100211190D01*
X195415400Y-100215281D01*
X195417849Y-100225693D01*
X195417849Y-100538825D01*
X195405508Y-100604842D01*
X195404130Y-100607068D01*
X195403952Y-100607962D01*
X195398829Y-100615630D01*
X195376361Y-100651917D01*
X195372771Y-100654628D01*
X195371352Y-100656752D01*
X195359253Y-100664836D01*
X195334567Y-100683478D01*
X195329607Y-100684645D01*
X195322562Y-100689352D01*
X195265010Y-100700800D01*
X195260919Y-100700800D01*
X195250507Y-100703249D01*
X194987375Y-100703249D01*
X194921358Y-100690908D01*
X194919132Y-100689530D01*
X194918238Y-100689352D01*
X194910570Y-100684229D01*
X194874283Y-100661761D01*
X194871572Y-100658171D01*
X194869448Y-100656752D01*
X194861364Y-100644653D01*
X194842722Y-100619967D01*
X194841555Y-100615007D01*
X194836848Y-100607962D01*
X194825400Y-100550410D01*
X194825400Y-100546319D01*
X194822951Y-100535907D01*
X194822951Y-100222775D01*
X194835292Y-100156758D01*
X194836670Y-100154532D01*
X194836848Y-100153638D01*
X194841971Y-100145970D01*
X194864439Y-100109683D01*
X194868029Y-100106972D01*
X194869448Y-100104848D01*
X194881547Y-100096764D01*
X194906233Y-100078122D01*
X194911193Y-100076955D01*
X194918238Y-100072248D01*
X194975790Y-100060800D01*
X194979881Y-100060800D01*
X194990293Y-100058351D01*
X195253425Y-100058351D01*
X195319442Y-100070692D01*
G37*
G36*
X202593952Y-99400000D02*
G01*
X202618991Y-99400000D01*
X202670968Y-99413927D01*
X202715610Y-99422000D01*
X202738772Y-99432095D01*
X202771591Y-99440889D01*
X202810533Y-99463372D01*
X202843867Y-99477901D01*
X202871273Y-99498441D01*
X202908408Y-99519881D01*
X202933919Y-99545392D01*
X202955828Y-99561812D01*
X202983538Y-99595011D01*
X203020119Y-99631592D01*
X203033690Y-99655098D01*
X203045479Y-99669222D01*
X203068856Y-99716006D01*
X203099111Y-99768409D01*
X203103818Y-99785975D01*
X203108018Y-99794381D01*
X203122138Y-99854346D01*
X203140000Y-99921009D01*
X203140000Y-100078991D01*
X203121052Y-100149707D01*
X203104342Y-100215501D01*
X203102451Y-100219126D01*
X203099111Y-100231591D01*
X203066312Y-100288401D01*
X203039628Y-100339550D01*
X203031058Y-100349461D01*
X203020119Y-100368408D01*
X202979884Y-100408643D01*
X202948118Y-100445380D01*
X202930202Y-100458325D01*
X202908408Y-100480119D01*
X202866760Y-100504164D01*
X202834709Y-100527323D01*
X202806005Y-100539242D01*
X202771591Y-100559111D01*
X202733711Y-100569261D01*
X202705498Y-100580976D01*
X202665954Y-100587416D01*
X202618991Y-100600000D01*
X202588690Y-100600000D01*
X202567402Y-100603467D01*
X202518443Y-100600000D01*
X202461009Y-100600000D01*
X202440377Y-100594472D01*
X202427841Y-100593584D01*
X202372262Y-100576220D01*
X202308409Y-100559111D01*
X202297692Y-100552924D01*
X202294294Y-100551862D01*
X202235173Y-100516828D01*
X202171592Y-100480119D01*
X202120592Y-100429119D01*
X202073201Y-100383434D01*
X202070125Y-100378652D01*
X202059881Y-100368408D01*
X202027847Y-100312925D01*
X201997513Y-100265765D01*
X201992620Y-100251910D01*
X201980889Y-100231591D01*
X201966558Y-100178108D01*
X201950924Y-100133835D01*
X201948387Y-100110293D01*
X201940000Y-100078991D01*
X201940000Y-100032453D01*
X201935935Y-99994727D01*
X201940000Y-99962321D01*
X201940000Y-99921009D01*
X201949744Y-99884646D01*
X201953349Y-99855903D01*
X201967904Y-99816870D01*
X201980889Y-99768409D01*
X201995249Y-99743537D01*
X202002231Y-99724813D01*
X202030396Y-99682660D01*
X202059881Y-99631592D01*
X202073859Y-99617614D01*
X202079964Y-99608477D01*
X202123832Y-99567641D01*
X202171592Y-99519881D01*
X202180929Y-99514490D01*
X202182371Y-99513148D01*
X202245140Y-99477418D01*
X202308409Y-99440889D01*
X202376887Y-99422540D01*
X202438216Y-99404549D01*
X202445476Y-99404162D01*
X202461009Y-99400000D01*
X202523573Y-99400000D01*
X202577932Y-99397103D01*
X202593952Y-99400000D01*
G37*
G36*
X197513952Y-99400000D02*
G01*
X197538991Y-99400000D01*
X197590968Y-99413927D01*
X197635610Y-99422000D01*
X197658772Y-99432095D01*
X197691591Y-99440889D01*
X197730533Y-99463372D01*
X197763867Y-99477901D01*
X197791273Y-99498441D01*
X197828408Y-99519881D01*
X197853919Y-99545392D01*
X197875828Y-99561812D01*
X197903538Y-99595011D01*
X197940119Y-99631592D01*
X197953690Y-99655098D01*
X197965479Y-99669222D01*
X197988856Y-99716006D01*
X198019111Y-99768409D01*
X198023818Y-99785975D01*
X198028018Y-99794381D01*
X198042138Y-99854346D01*
X198060000Y-99921009D01*
X198060000Y-100078991D01*
X198041052Y-100149707D01*
X198024342Y-100215501D01*
X198022451Y-100219126D01*
X198019111Y-100231591D01*
X197986312Y-100288401D01*
X197959628Y-100339550D01*
X197951058Y-100349461D01*
X197940119Y-100368408D01*
X197899884Y-100408643D01*
X197868118Y-100445380D01*
X197850202Y-100458325D01*
X197828408Y-100480119D01*
X197786760Y-100504164D01*
X197754709Y-100527323D01*
X197726005Y-100539242D01*
X197691591Y-100559111D01*
X197653711Y-100569261D01*
X197625498Y-100580976D01*
X197585954Y-100587416D01*
X197538991Y-100600000D01*
X197508690Y-100600000D01*
X197487402Y-100603467D01*
X197438443Y-100600000D01*
X197381009Y-100600000D01*
X197360377Y-100594472D01*
X197347841Y-100593584D01*
X197292262Y-100576220D01*
X197228409Y-100559111D01*
X197217692Y-100552924D01*
X197214294Y-100551862D01*
X197155173Y-100516828D01*
X197091592Y-100480119D01*
X197040592Y-100429119D01*
X196993201Y-100383434D01*
X196990125Y-100378652D01*
X196979881Y-100368408D01*
X196947847Y-100312925D01*
X196917513Y-100265765D01*
X196912620Y-100251910D01*
X196900889Y-100231591D01*
X196886558Y-100178108D01*
X196870924Y-100133835D01*
X196868387Y-100110293D01*
X196860000Y-100078991D01*
X196860000Y-100032453D01*
X196855935Y-99994727D01*
X196860000Y-99962321D01*
X196860000Y-99921009D01*
X196869744Y-99884646D01*
X196873349Y-99855903D01*
X196887904Y-99816870D01*
X196900889Y-99768409D01*
X196915249Y-99743537D01*
X196922231Y-99724813D01*
X196950396Y-99682660D01*
X196979881Y-99631592D01*
X196993859Y-99617614D01*
X196999964Y-99608477D01*
X197043832Y-99567641D01*
X197091592Y-99519881D01*
X197100929Y-99514490D01*
X197102371Y-99513148D01*
X197165140Y-99477418D01*
X197228409Y-99440889D01*
X197296887Y-99422540D01*
X197358216Y-99404549D01*
X197365476Y-99404162D01*
X197381009Y-99400000D01*
X197443573Y-99400000D01*
X197497932Y-99397103D01*
X197513952Y-99400000D01*
G37*
G36*
X204643242Y-99729892D02*
G01*
X204645468Y-99731270D01*
X204646362Y-99731448D01*
X204654030Y-99736571D01*
X204690317Y-99759039D01*
X204693028Y-99762629D01*
X204695152Y-99764048D01*
X204703236Y-99776147D01*
X204721878Y-99800833D01*
X204723045Y-99805793D01*
X204727752Y-99812838D01*
X204739200Y-99870390D01*
X204739200Y-99874481D01*
X204741649Y-99884893D01*
X204741649Y-100148025D01*
X204729308Y-100214042D01*
X204727930Y-100216268D01*
X204727752Y-100217162D01*
X204722629Y-100224830D01*
X204700161Y-100261117D01*
X204696571Y-100263828D01*
X204695152Y-100265952D01*
X204683053Y-100274036D01*
X204658367Y-100292678D01*
X204653407Y-100293845D01*
X204646362Y-100298552D01*
X204588810Y-100310000D01*
X204584719Y-100310000D01*
X204574307Y-100312449D01*
X204261175Y-100312449D01*
X204195158Y-100300108D01*
X204192932Y-100298730D01*
X204192038Y-100298552D01*
X204184370Y-100293429D01*
X204148083Y-100270961D01*
X204145372Y-100267371D01*
X204143248Y-100265952D01*
X204135164Y-100253853D01*
X204116522Y-100229167D01*
X204115355Y-100224207D01*
X204110648Y-100217162D01*
X204099200Y-100159610D01*
X204099200Y-100155519D01*
X204096751Y-100145107D01*
X204096751Y-99881975D01*
X204109092Y-99815958D01*
X204110470Y-99813732D01*
X204110648Y-99812838D01*
X204115771Y-99805170D01*
X204138239Y-99768883D01*
X204141829Y-99766172D01*
X204143248Y-99764048D01*
X204155347Y-99755964D01*
X204180033Y-99737322D01*
X204184993Y-99736155D01*
X204192038Y-99731448D01*
X204249590Y-99720000D01*
X204253681Y-99720000D01*
X204264093Y-99717551D01*
X204577225Y-99717551D01*
X204643242Y-99729892D01*
G37*
G36*
X194477598Y-98069399D02*
G01*
X194477600Y-98069401D01*
X194480048Y-98081709D01*
X194480048Y-99530291D01*
X194477600Y-99542599D01*
X194477598Y-99542601D01*
X194465290Y-99545049D01*
X193931108Y-99545049D01*
X193918800Y-99542601D01*
X193918798Y-99542599D01*
X193916350Y-99530291D01*
X193916350Y-98081709D01*
X193918798Y-98069401D01*
X193918800Y-98069399D01*
X193931108Y-98066951D01*
X194465290Y-98066951D01*
X194477598Y-98069399D01*
G37*
G36*
X195427599Y-98069399D02*
G01*
X195427601Y-98069401D01*
X195430049Y-98081709D01*
X195430049Y-99530291D01*
X195427601Y-99542599D01*
X195427599Y-99542601D01*
X195415291Y-99545049D01*
X194881109Y-99545049D01*
X194868801Y-99542601D01*
X194868799Y-99542599D01*
X194866351Y-99530291D01*
X194866351Y-98081709D01*
X194868799Y-98069401D01*
X194868801Y-98069399D01*
X194881109Y-98066951D01*
X195415291Y-98066951D01*
X195427599Y-98069399D01*
G37*
G36*
X196377600Y-98069399D02*
G01*
X196377601Y-98069400D01*
X196391416Y-98090075D01*
X196391461Y-98090045D01*
X196408370Y-98122370D01*
X196469575Y-98157223D01*
X196539907Y-98153453D01*
X196545388Y-98150508D01*
X196562193Y-98146556D01*
X196569238Y-98141848D01*
X196626790Y-98130400D01*
X196630881Y-98130400D01*
X196641293Y-98127951D01*
X196904425Y-98127951D01*
X196970442Y-98140292D01*
X196972668Y-98141670D01*
X196973562Y-98141848D01*
X196981230Y-98146971D01*
X197017517Y-98169439D01*
X197020228Y-98173029D01*
X197022352Y-98174448D01*
X197030436Y-98186547D01*
X197049078Y-98211233D01*
X197050245Y-98216193D01*
X197054952Y-98223238D01*
X197066400Y-98280790D01*
X197066400Y-98284881D01*
X197068849Y-98295293D01*
X197068849Y-98608425D01*
X197056508Y-98674442D01*
X197055130Y-98676668D01*
X197054952Y-98677562D01*
X197049829Y-98685230D01*
X197027361Y-98721517D01*
X197023771Y-98724228D01*
X197022352Y-98726352D01*
X197010253Y-98734436D01*
X196985567Y-98753078D01*
X196980607Y-98754245D01*
X196973562Y-98758952D01*
X196916010Y-98770400D01*
X196911919Y-98770400D01*
X196901507Y-98772849D01*
X196638375Y-98772849D01*
X196572360Y-98760508D01*
X196570852Y-98759575D01*
X196502948Y-98740871D01*
X196435712Y-98761847D01*
X196390489Y-98815844D01*
X196380050Y-98865852D01*
X196380050Y-99530291D01*
X196377602Y-99542599D01*
X196377600Y-99542601D01*
X196365292Y-99545049D01*
X195831110Y-99545049D01*
X195818802Y-99542601D01*
X195818800Y-99542599D01*
X195816352Y-99530291D01*
X195816352Y-98081709D01*
X195818800Y-98069401D01*
X195818802Y-98069399D01*
X195831110Y-98066951D01*
X196365292Y-98066951D01*
X196377600Y-98069399D01*
G37*
G36*
X197940442Y-98140292D02*
G01*
X197942668Y-98141670D01*
X197943562Y-98141848D01*
X197951230Y-98146971D01*
X197987517Y-98169439D01*
X197990228Y-98173029D01*
X197992352Y-98174448D01*
X198000436Y-98186547D01*
X198019078Y-98211233D01*
X198020245Y-98216193D01*
X198024952Y-98223238D01*
X198036400Y-98280790D01*
X198036400Y-98284881D01*
X198038849Y-98295293D01*
X198038849Y-98608425D01*
X198026508Y-98674442D01*
X198025130Y-98676668D01*
X198024952Y-98677562D01*
X198019829Y-98685230D01*
X197997361Y-98721517D01*
X197993771Y-98724228D01*
X197992352Y-98726352D01*
X197980253Y-98734436D01*
X197955567Y-98753078D01*
X197950607Y-98754245D01*
X197943562Y-98758952D01*
X197886010Y-98770400D01*
X197881919Y-98770400D01*
X197871507Y-98772849D01*
X197608375Y-98772849D01*
X197542358Y-98760508D01*
X197540132Y-98759130D01*
X197539238Y-98758952D01*
X197531570Y-98753829D01*
X197495283Y-98731361D01*
X197492572Y-98727771D01*
X197490448Y-98726352D01*
X197482364Y-98714253D01*
X197463722Y-98689567D01*
X197462555Y-98684607D01*
X197457848Y-98677562D01*
X197446400Y-98620010D01*
X197446400Y-98615919D01*
X197443951Y-98605507D01*
X197443951Y-98292375D01*
X197456292Y-98226358D01*
X197457670Y-98224132D01*
X197457848Y-98223238D01*
X197462971Y-98215570D01*
X197485439Y-98179283D01*
X197489029Y-98176572D01*
X197490448Y-98174448D01*
X197502547Y-98166364D01*
X197527233Y-98147722D01*
X197532193Y-98146555D01*
X197539238Y-98141848D01*
X197596790Y-98130400D01*
X197600881Y-98130400D01*
X197611293Y-98127951D01*
X197874425Y-98127951D01*
X197940442Y-98140292D01*
G37*
G36*
X209952970Y-96658828D02*
G01*
X209994714Y-96656786D01*
X210038955Y-96663635D01*
X210089646Y-96666469D01*
X210129950Y-96677722D01*
X210165368Y-96683205D01*
X210212898Y-96700881D01*
X210267524Y-96716133D01*
X210299207Y-96732979D01*
X210327214Y-96743395D01*
X210375259Y-96773417D01*
X210430588Y-96802836D01*
X210453375Y-96822230D01*
X210473657Y-96834903D01*
X210518979Y-96878063D01*
X210571230Y-96922532D01*
X210585714Y-96941614D01*
X210598709Y-96953989D01*
X210637815Y-97010254D01*
X210682888Y-97069636D01*
X210690428Y-97085953D01*
X210697263Y-97095788D01*
X210726606Y-97164250D01*
X210760353Y-97237286D01*
X210762928Y-97248996D01*
X210765288Y-97254503D01*
X210781456Y-97333267D01*
X210800011Y-97417659D01*
X210799346Y-97608273D01*
X210780192Y-97692580D01*
X210763484Y-97771185D01*
X210761086Y-97776673D01*
X210758430Y-97788365D01*
X210724170Y-97861169D01*
X210694351Y-97929423D01*
X210687447Y-97939210D01*
X210679796Y-97955469D01*
X210634330Y-98014508D01*
X210594814Y-98070526D01*
X210581727Y-98082816D01*
X210567114Y-98101791D01*
X210514566Y-98145884D01*
X210468934Y-98188735D01*
X210448560Y-98201269D01*
X210425639Y-98220502D01*
X210370106Y-98249534D01*
X210321855Y-98279218D01*
X210293778Y-98289437D01*
X210261974Y-98306064D01*
X210207241Y-98320934D01*
X210159585Y-98338280D01*
X210124126Y-98343516D01*
X210083753Y-98354485D01*
X210033048Y-98356965D01*
X209988758Y-98363505D01*
X209947030Y-98361172D01*
X209899292Y-98363507D01*
X209855101Y-98356033D01*
X209816345Y-98353866D01*
X209770188Y-98341671D01*
X209717197Y-98332708D01*
X209681163Y-98318149D01*
X209649392Y-98309755D01*
X209601308Y-98285886D01*
X209545963Y-98263525D01*
X209518813Y-98244935D01*
X209494720Y-98232975D01*
X209447736Y-98196268D01*
X209393580Y-98159186D01*
X209375141Y-98139551D01*
X209358643Y-98126661D01*
X209316146Y-98076727D01*
X209267157Y-98024559D01*
X209256423Y-98006552D01*
X209246723Y-97995155D01*
X209212273Y-97932490D01*
X209172592Y-97865925D01*
X209167863Y-97851708D01*
X209163535Y-97843836D01*
X209140635Y-97769859D01*
X209114298Y-97690685D01*
X209113358Y-97681738D01*
X209112471Y-97678874D01*
X209104331Y-97595859D01*
X209094993Y-97507015D01*
X209104963Y-97418127D01*
X209113671Y-97335283D01*
X209114575Y-97332432D01*
X209115579Y-97323485D01*
X209142485Y-97244451D01*
X209165886Y-97170680D01*
X209170267Y-97162841D01*
X209175096Y-97148656D01*
X209215246Y-97082361D01*
X209250127Y-97019948D01*
X209259904Y-97008621D01*
X209270766Y-96990686D01*
X209320130Y-96938848D01*
X209362965Y-96889224D01*
X209379550Y-96876452D01*
X209398126Y-96856945D01*
X209452529Y-96820250D01*
X209499778Y-96783863D01*
X209523964Y-96772067D01*
X209551234Y-96753673D01*
X209606715Y-96731706D01*
X209654980Y-96708166D01*
X209686816Y-96699992D01*
X209722946Y-96685687D01*
X209775996Y-96677095D01*
X209822238Y-96665222D01*
X209861010Y-96663326D01*
X209905252Y-96656160D01*
X209952970Y-96658828D01*
G37*
G36*
X208259999Y-96659999D02*
G01*
X208260001Y-96660001D01*
X208262449Y-96672309D01*
X208262449Y-98347691D01*
X208260001Y-98359999D01*
X208259999Y-98360001D01*
X208247691Y-98362449D01*
X206572309Y-98362449D01*
X206560001Y-98360001D01*
X206559999Y-98359999D01*
X206557551Y-98347691D01*
X206557551Y-96672309D01*
X206559999Y-96660001D01*
X206560001Y-96659999D01*
X206572309Y-96657551D01*
X208247691Y-96657551D01*
X208259999Y-96659999D01*
G37*
G36*
X200053952Y-96860000D02*
G01*
X200078991Y-96860000D01*
X200130968Y-96873927D01*
X200175610Y-96882000D01*
X200198772Y-96892095D01*
X200231591Y-96900889D01*
X200270533Y-96923372D01*
X200303867Y-96937901D01*
X200331273Y-96958441D01*
X200368408Y-96979881D01*
X200393919Y-97005392D01*
X200415828Y-97021812D01*
X200443538Y-97055011D01*
X200480119Y-97091592D01*
X200493690Y-97115098D01*
X200505479Y-97129222D01*
X200528856Y-97176006D01*
X200559111Y-97228409D01*
X200563818Y-97245975D01*
X200568018Y-97254381D01*
X200582138Y-97314346D01*
X200600000Y-97381009D01*
X200600000Y-97538991D01*
X200581052Y-97609707D01*
X200564342Y-97675501D01*
X200562451Y-97679126D01*
X200559111Y-97691591D01*
X200526312Y-97748401D01*
X200499628Y-97799550D01*
X200491058Y-97809461D01*
X200480119Y-97828408D01*
X200439884Y-97868643D01*
X200408118Y-97905380D01*
X200390202Y-97918325D01*
X200368408Y-97940119D01*
X200326760Y-97964164D01*
X200294709Y-97987323D01*
X200266005Y-97999242D01*
X200231591Y-98019111D01*
X200193711Y-98029261D01*
X200165498Y-98040976D01*
X200125954Y-98047416D01*
X200078991Y-98060000D01*
X200048690Y-98060000D01*
X200027402Y-98063467D01*
X199978443Y-98060000D01*
X199921009Y-98060000D01*
X199900377Y-98054472D01*
X199887841Y-98053584D01*
X199832262Y-98036220D01*
X199768409Y-98019111D01*
X199757692Y-98012924D01*
X199754294Y-98011862D01*
X199695173Y-97976828D01*
X199631592Y-97940119D01*
X199580592Y-97889119D01*
X199533201Y-97843434D01*
X199530125Y-97838652D01*
X199519881Y-97828408D01*
X199487847Y-97772925D01*
X199457513Y-97725765D01*
X199452620Y-97711910D01*
X199440889Y-97691591D01*
X199426558Y-97638108D01*
X199410924Y-97593835D01*
X199408387Y-97570293D01*
X199400000Y-97538991D01*
X199400000Y-97492453D01*
X199395935Y-97454727D01*
X199400000Y-97422321D01*
X199400000Y-97381009D01*
X199409744Y-97344646D01*
X199413349Y-97315903D01*
X199427904Y-97276870D01*
X199440889Y-97228409D01*
X199455249Y-97203537D01*
X199462231Y-97184813D01*
X199490396Y-97142660D01*
X199519881Y-97091592D01*
X199533859Y-97077614D01*
X199539964Y-97068477D01*
X199583832Y-97027641D01*
X199631592Y-96979881D01*
X199640929Y-96974490D01*
X199642371Y-96973148D01*
X199705140Y-96937418D01*
X199768409Y-96900889D01*
X199836887Y-96882540D01*
X199898216Y-96864549D01*
X199905476Y-96864162D01*
X199921009Y-96860000D01*
X199983573Y-96860000D01*
X200037932Y-96857103D01*
X200053952Y-96860000D01*
G37*
G36*
X194477598Y-95834199D02*
G01*
X194477600Y-95834201D01*
X194480048Y-95846509D01*
X194480048Y-97295091D01*
X194477600Y-97307399D01*
X194477598Y-97307401D01*
X194465290Y-97309849D01*
X193931108Y-97309849D01*
X193918800Y-97307401D01*
X193918798Y-97307399D01*
X193916350Y-97295091D01*
X193916350Y-95846509D01*
X193918798Y-95834201D01*
X193918800Y-95834199D01*
X193931108Y-95831751D01*
X194465290Y-95831751D01*
X194477598Y-95834199D01*
G37*
G36*
X195427599Y-95834199D02*
G01*
X195427601Y-95834201D01*
X195430049Y-95846509D01*
X195430049Y-97295091D01*
X195427601Y-97307399D01*
X195427599Y-97307401D01*
X195415291Y-97309849D01*
X194881109Y-97309849D01*
X194868801Y-97307401D01*
X194868799Y-97307399D01*
X194866351Y-97295091D01*
X194866351Y-95846509D01*
X194868799Y-95834201D01*
X194868801Y-95834199D01*
X194881109Y-95831751D01*
X195415291Y-95831751D01*
X195427599Y-95834199D01*
G37*
G36*
X196377600Y-95834199D02*
G01*
X196377602Y-95834201D01*
X196380050Y-95846509D01*
X196380050Y-97295091D01*
X196377602Y-97307399D01*
X196377600Y-97307401D01*
X196365292Y-97309849D01*
X195831110Y-97309849D01*
X195818802Y-97307401D01*
X195818800Y-97307399D01*
X195816352Y-97295091D01*
X195816352Y-95846509D01*
X195818800Y-95834201D01*
X195818802Y-95834199D01*
X195831110Y-95831751D01*
X196365292Y-95831751D01*
X196377600Y-95834199D01*
G37*
G36*
X192121042Y-96592892D02*
G01*
X192123268Y-96594270D01*
X192124162Y-96594448D01*
X192131830Y-96599571D01*
X192168117Y-96622039D01*
X192170828Y-96625629D01*
X192172952Y-96627048D01*
X192181036Y-96639147D01*
X192199678Y-96663833D01*
X192200845Y-96668793D01*
X192205552Y-96675838D01*
X192217000Y-96733390D01*
X192217000Y-96737481D01*
X192219449Y-96747893D01*
X192219449Y-97011025D01*
X192207108Y-97077042D01*
X192205730Y-97079268D01*
X192205552Y-97080162D01*
X192200429Y-97087830D01*
X192177961Y-97124117D01*
X192174371Y-97126828D01*
X192172952Y-97128952D01*
X192160853Y-97137036D01*
X192136167Y-97155678D01*
X192131207Y-97156845D01*
X192124162Y-97161552D01*
X192066610Y-97173000D01*
X192062519Y-97173000D01*
X192052107Y-97175449D01*
X191738975Y-97175449D01*
X191672958Y-97163108D01*
X191670732Y-97161730D01*
X191669838Y-97161552D01*
X191662170Y-97156429D01*
X191625883Y-97133961D01*
X191623172Y-97130371D01*
X191621048Y-97128952D01*
X191612964Y-97116853D01*
X191594322Y-97092167D01*
X191593155Y-97087207D01*
X191588448Y-97080162D01*
X191577000Y-97022610D01*
X191577000Y-97018519D01*
X191574551Y-97008107D01*
X191574551Y-96744975D01*
X191586892Y-96678958D01*
X191588270Y-96676732D01*
X191588448Y-96675838D01*
X191593571Y-96668170D01*
X191616039Y-96631883D01*
X191619629Y-96629172D01*
X191621048Y-96627048D01*
X191633147Y-96618964D01*
X191657833Y-96600322D01*
X191662793Y-96599155D01*
X191669838Y-96594448D01*
X191727390Y-96583000D01*
X191731481Y-96583000D01*
X191741893Y-96580551D01*
X192055025Y-96580551D01*
X192121042Y-96592892D01*
G37*
G36*
X198473842Y-96209892D02*
G01*
X198476068Y-96211270D01*
X198476962Y-96211448D01*
X198484630Y-96216571D01*
X198520917Y-96239039D01*
X198523628Y-96242629D01*
X198525752Y-96244048D01*
X198533836Y-96256147D01*
X198552478Y-96280833D01*
X198553645Y-96285793D01*
X198558352Y-96292838D01*
X198569800Y-96350390D01*
X198569800Y-96354481D01*
X198572249Y-96364893D01*
X198572249Y-96678025D01*
X198559908Y-96744042D01*
X198558530Y-96746268D01*
X198558352Y-96747162D01*
X198553229Y-96754830D01*
X198530761Y-96791117D01*
X198527171Y-96793828D01*
X198525752Y-96795952D01*
X198513653Y-96804036D01*
X198488967Y-96822678D01*
X198484007Y-96823845D01*
X198476962Y-96828552D01*
X198419410Y-96840000D01*
X198415319Y-96840000D01*
X198404907Y-96842449D01*
X198141775Y-96842449D01*
X198075758Y-96830108D01*
X198073532Y-96828730D01*
X198072638Y-96828552D01*
X198064970Y-96823429D01*
X198028683Y-96800961D01*
X198025972Y-96797371D01*
X198023848Y-96795952D01*
X198015764Y-96783853D01*
X197997122Y-96759167D01*
X197995955Y-96754207D01*
X197991248Y-96747162D01*
X197979800Y-96689610D01*
X197979800Y-96685519D01*
X197977351Y-96675107D01*
X197977351Y-96361975D01*
X197989692Y-96295958D01*
X197991070Y-96293732D01*
X197991248Y-96292838D01*
X197996371Y-96285170D01*
X198018839Y-96248883D01*
X198022429Y-96246172D01*
X198023848Y-96244048D01*
X198035947Y-96235964D01*
X198060633Y-96217322D01*
X198065593Y-96216155D01*
X198072638Y-96211448D01*
X198130190Y-96200000D01*
X198134281Y-96200000D01*
X198144693Y-96197551D01*
X198407825Y-96197551D01*
X198473842Y-96209892D01*
G37*
G36*
X197503842Y-96209892D02*
G01*
X197506068Y-96211270D01*
X197506962Y-96211448D01*
X197514630Y-96216571D01*
X197550917Y-96239039D01*
X197553628Y-96242629D01*
X197555752Y-96244048D01*
X197563836Y-96256147D01*
X197582478Y-96280833D01*
X197583645Y-96285793D01*
X197588352Y-96292838D01*
X197599800Y-96350390D01*
X197599800Y-96354481D01*
X197602249Y-96364893D01*
X197602249Y-96678025D01*
X197589908Y-96744042D01*
X197588530Y-96746268D01*
X197588352Y-96747162D01*
X197583229Y-96754830D01*
X197560761Y-96791117D01*
X197557171Y-96793828D01*
X197555752Y-96795952D01*
X197543653Y-96804036D01*
X197518967Y-96822678D01*
X197514007Y-96823845D01*
X197506962Y-96828552D01*
X197449410Y-96840000D01*
X197445319Y-96840000D01*
X197434907Y-96842449D01*
X197171775Y-96842449D01*
X197105758Y-96830108D01*
X197103532Y-96828730D01*
X197102638Y-96828552D01*
X197094970Y-96823429D01*
X197058683Y-96800961D01*
X197055972Y-96797371D01*
X197053848Y-96795952D01*
X197045764Y-96783853D01*
X197027122Y-96759167D01*
X197025955Y-96754207D01*
X197021248Y-96747162D01*
X197009800Y-96689610D01*
X197009800Y-96685519D01*
X197007351Y-96675107D01*
X197007351Y-96361975D01*
X197019692Y-96295958D01*
X197021070Y-96293732D01*
X197021248Y-96292838D01*
X197026371Y-96285170D01*
X197048839Y-96248883D01*
X197052429Y-96246172D01*
X197053848Y-96244048D01*
X197065947Y-96235964D01*
X197090633Y-96217322D01*
X197095593Y-96216155D01*
X197102638Y-96211448D01*
X197160190Y-96200000D01*
X197164281Y-96200000D01*
X197174693Y-96197551D01*
X197437825Y-96197551D01*
X197503842Y-96209892D01*
G37*
G36*
X192121042Y-95622892D02*
G01*
X192123268Y-95624270D01*
X192124162Y-95624448D01*
X192131830Y-95629571D01*
X192168117Y-95652039D01*
X192170828Y-95655629D01*
X192172952Y-95657048D01*
X192181036Y-95669147D01*
X192199678Y-95693833D01*
X192200845Y-95698793D01*
X192205552Y-95705838D01*
X192217000Y-95763390D01*
X192217000Y-95767481D01*
X192219449Y-95777893D01*
X192219449Y-96041025D01*
X192207108Y-96107042D01*
X192205730Y-96109268D01*
X192205552Y-96110162D01*
X192200429Y-96117830D01*
X192177961Y-96154117D01*
X192174371Y-96156828D01*
X192172952Y-96158952D01*
X192160853Y-96167036D01*
X192136167Y-96185678D01*
X192131207Y-96186845D01*
X192124162Y-96191552D01*
X192066610Y-96203000D01*
X192062519Y-96203000D01*
X192052107Y-96205449D01*
X191738975Y-96205449D01*
X191672958Y-96193108D01*
X191670732Y-96191730D01*
X191669838Y-96191552D01*
X191662170Y-96186429D01*
X191625883Y-96163961D01*
X191623172Y-96160371D01*
X191621048Y-96158952D01*
X191612964Y-96146853D01*
X191594322Y-96122167D01*
X191593155Y-96117207D01*
X191588448Y-96110162D01*
X191577000Y-96052610D01*
X191577000Y-96048519D01*
X191574551Y-96038107D01*
X191574551Y-95774975D01*
X191586892Y-95708958D01*
X191588270Y-95706732D01*
X191588448Y-95705838D01*
X191593571Y-95698170D01*
X191616039Y-95661883D01*
X191619629Y-95659172D01*
X191621048Y-95657048D01*
X191633147Y-95648964D01*
X191657833Y-95630322D01*
X191662793Y-95629155D01*
X191669838Y-95624448D01*
X191727390Y-95613000D01*
X191731481Y-95613000D01*
X191741893Y-95610551D01*
X192055025Y-95610551D01*
X192121042Y-95622892D01*
G37*
G36*
X197494698Y-92982998D02*
G01*
X197557246Y-92981032D01*
X197607127Y-92988398D01*
X197650915Y-92990501D01*
X197710589Y-93003676D01*
X197777985Y-93013628D01*
X197820552Y-93027953D01*
X197858067Y-93036236D01*
X197919637Y-93061299D01*
X197989464Y-93084799D01*
X198023983Y-93103776D01*
X198054538Y-93116214D01*
X198115528Y-93154103D01*
X198184997Y-93192294D01*
X198211335Y-93213622D01*
X198234732Y-93228157D01*
X198292388Y-93279257D01*
X198358405Y-93332716D01*
X198376960Y-93354212D01*
X198393486Y-93368859D01*
X198444924Y-93432950D01*
X198504205Y-93501627D01*
X198515858Y-93521330D01*
X198526266Y-93534299D01*
X198568587Y-93610492D01*
X198617789Y-93693687D01*
X198623848Y-93709979D01*
X198629273Y-93719746D01*
X198659653Y-93806257D01*
X198695567Y-93902826D01*
X198697670Y-93914512D01*
X198699560Y-93919895D01*
X198715409Y-94013107D01*
X198735080Y-94122433D01*
X198734936Y-94127943D01*
X198735018Y-94128427D01*
X198732532Y-94365729D01*
X198728104Y-94388831D01*
X198727528Y-94410838D01*
X198707611Y-94495753D01*
X198692716Y-94573469D01*
X198683812Y-94597220D01*
X198676575Y-94628076D01*
X198644189Y-94702917D01*
X198618251Y-94772107D01*
X198602734Y-94798715D01*
X198587959Y-94832858D01*
X198545942Y-94896098D01*
X198511384Y-94955356D01*
X198488108Y-94983144D01*
X198464478Y-95018710D01*
X198415794Y-95069477D01*
X198375169Y-95117978D01*
X198343407Y-95144962D01*
X198310038Y-95179759D01*
X198257627Y-95217838D01*
X198213502Y-95255325D01*
X198172984Y-95279335D01*
X198129519Y-95310914D01*
X198076173Y-95336703D01*
X198031011Y-95363464D01*
X197981984Y-95382235D01*
X197928628Y-95408028D01*
X197876875Y-95422478D01*
X197832893Y-95439317D01*
X197776113Y-95450611D01*
X197713715Y-95468033D01*
X197665715Y-95472570D01*
X197624839Y-95480701D01*
X197561600Y-95482412D01*
X197491571Y-95489032D01*
X197449019Y-95485459D01*
X197412789Y-95486439D01*
X197344875Y-95476713D01*
X197269221Y-95470360D01*
X197233296Y-95460734D01*
X197202795Y-95456366D01*
X197132450Y-95433713D01*
X197053690Y-95412609D01*
X197025010Y-95399113D01*
X197000872Y-95391340D01*
X196930730Y-95354749D01*
X196851793Y-95317604D01*
X196830444Y-95302432D01*
X196812793Y-95293224D01*
X196745740Y-95242236D01*
X196669911Y-95188347D01*
X196655443Y-95173573D01*
X196643939Y-95164825D01*
X196598792Y-95116495D01*
X196538159Y-95080657D01*
X196467776Y-95083288D01*
X196409988Y-95123553D01*
X196382449Y-95201824D01*
X196382449Y-95258025D01*
X196370108Y-95324042D01*
X196368730Y-95326268D01*
X196368552Y-95327162D01*
X196363429Y-95334830D01*
X196340961Y-95371117D01*
X196337371Y-95373828D01*
X196335952Y-95375952D01*
X196323853Y-95384036D01*
X196299167Y-95402678D01*
X196294207Y-95403845D01*
X196287162Y-95408552D01*
X196229610Y-95420000D01*
X196225519Y-95420000D01*
X196215107Y-95422449D01*
X195951975Y-95422449D01*
X195885958Y-95410108D01*
X195883732Y-95408730D01*
X195882838Y-95408552D01*
X195875170Y-95403429D01*
X195838883Y-95380961D01*
X195836172Y-95377371D01*
X195834048Y-95375952D01*
X195825964Y-95363853D01*
X195807322Y-95339167D01*
X195806155Y-95334207D01*
X195801448Y-95327162D01*
X195790000Y-95269610D01*
X195790000Y-95265519D01*
X195787551Y-95255107D01*
X195787551Y-94941975D01*
X195799892Y-94875958D01*
X195801270Y-94873732D01*
X195801448Y-94872838D01*
X195806571Y-94865170D01*
X195829039Y-94828883D01*
X195832629Y-94826172D01*
X195834048Y-94824048D01*
X195846147Y-94815964D01*
X195870833Y-94797322D01*
X195875793Y-94796155D01*
X195882838Y-94791448D01*
X195940390Y-94780000D01*
X195944481Y-94780000D01*
X195954893Y-94777551D01*
X196172156Y-94777551D01*
X196239736Y-94757708D01*
X196285859Y-94704478D01*
X196293386Y-94623305D01*
X196266578Y-94514164D01*
X196246271Y-94432413D01*
X196246173Y-94431089D01*
X196244392Y-94423840D01*
X196237536Y-94314877D01*
X196230550Y-94220864D01*
X196231196Y-94214096D01*
X196230381Y-94201147D01*
X196242071Y-94100114D01*
X196250698Y-94009691D01*
X196253902Y-93997857D01*
X196256027Y-93979492D01*
X196283610Y-93888134D01*
X196306139Y-93804924D01*
X196313590Y-93788836D01*
X196320520Y-93765882D01*
X196361157Y-93686127D01*
X196395284Y-93612439D01*
X196408432Y-93593344D01*
X196421820Y-93567069D01*
X196472490Y-93500314D01*
X196515591Y-93437719D01*
X196535568Y-93417212D01*
X196556727Y-93389336D01*
X196614258Y-93336434D01*
X196663617Y-93285765D01*
X196691170Y-93265710D01*
X196720975Y-93238303D01*
X196782241Y-93199422D01*
X196835123Y-93160931D01*
X196870522Y-93143397D01*
X196909372Y-93118742D01*
X196971415Y-93093423D01*
X197025218Y-93066773D01*
X197068263Y-93053900D01*
X197115965Y-93034433D01*
X197176085Y-93021654D01*
X197228452Y-93005993D01*
X197278420Y-92999902D01*
X197334222Y-92988041D01*
X197390142Y-92986284D01*
X197439033Y-92980324D01*
X197494698Y-92982998D01*
G37*
G36*
X202574698Y-92982998D02*
G01*
X202637246Y-92981032D01*
X202687127Y-92988398D01*
X202730915Y-92990501D01*
X202790589Y-93003676D01*
X202857985Y-93013628D01*
X202900552Y-93027953D01*
X202938067Y-93036236D01*
X202999637Y-93061299D01*
X203069464Y-93084799D01*
X203103983Y-93103776D01*
X203134538Y-93116214D01*
X203195528Y-93154103D01*
X203264997Y-93192294D01*
X203291335Y-93213622D01*
X203314732Y-93228157D01*
X203372388Y-93279257D01*
X203438405Y-93332716D01*
X203456960Y-93354212D01*
X203473486Y-93368859D01*
X203524924Y-93432950D01*
X203584205Y-93501627D01*
X203595858Y-93521330D01*
X203606266Y-93534299D01*
X203648587Y-93610492D01*
X203697789Y-93693687D01*
X203703848Y-93709979D01*
X203709273Y-93719746D01*
X203739653Y-93806257D01*
X203775567Y-93902826D01*
X203777670Y-93914512D01*
X203779560Y-93919895D01*
X203795409Y-94013107D01*
X203815080Y-94122433D01*
X203814936Y-94127943D01*
X203815018Y-94128427D01*
X203812532Y-94365729D01*
X203808104Y-94388831D01*
X203807528Y-94410838D01*
X203787611Y-94495753D01*
X203772716Y-94573469D01*
X203763812Y-94597220D01*
X203756575Y-94628076D01*
X203724189Y-94702917D01*
X203698251Y-94772107D01*
X203682734Y-94798715D01*
X203667959Y-94832858D01*
X203625942Y-94896098D01*
X203591384Y-94955356D01*
X203568108Y-94983144D01*
X203544478Y-95018710D01*
X203495794Y-95069477D01*
X203455169Y-95117978D01*
X203423407Y-95144962D01*
X203390038Y-95179759D01*
X203337627Y-95217838D01*
X203293502Y-95255325D01*
X203252984Y-95279335D01*
X203209519Y-95310914D01*
X203156173Y-95336703D01*
X203111011Y-95363464D01*
X203061984Y-95382235D01*
X203008628Y-95408028D01*
X202956875Y-95422478D01*
X202912893Y-95439317D01*
X202856113Y-95450611D01*
X202793715Y-95468033D01*
X202745715Y-95472570D01*
X202704839Y-95480701D01*
X202641600Y-95482412D01*
X202571571Y-95489032D01*
X202529019Y-95485459D01*
X202492789Y-95486439D01*
X202424875Y-95476713D01*
X202349221Y-95470360D01*
X202313296Y-95460734D01*
X202282795Y-95456366D01*
X202212450Y-95433713D01*
X202133690Y-95412609D01*
X202105010Y-95399113D01*
X202080872Y-95391340D01*
X202010730Y-95354749D01*
X201931793Y-95317604D01*
X201910444Y-95302432D01*
X201892793Y-95293224D01*
X201825740Y-95242236D01*
X201749911Y-95188347D01*
X201735443Y-95173573D01*
X201723939Y-95164825D01*
X201663125Y-95099724D01*
X201593793Y-95028924D01*
X201585263Y-95016373D01*
X201579126Y-95009803D01*
X201527884Y-94931943D01*
X201468373Y-94844375D01*
X201464440Y-94835541D01*
X201462509Y-94832607D01*
X201424999Y-94746954D01*
X201377617Y-94640532D01*
X201346590Y-94514213D01*
X201326271Y-94432413D01*
X201326173Y-94431089D01*
X201324392Y-94423840D01*
X201317536Y-94314877D01*
X201310550Y-94220864D01*
X201311196Y-94214096D01*
X201310381Y-94201147D01*
X201322071Y-94100114D01*
X201330698Y-94009691D01*
X201333902Y-93997857D01*
X201336027Y-93979492D01*
X201363610Y-93888134D01*
X201386139Y-93804924D01*
X201393590Y-93788836D01*
X201400520Y-93765882D01*
X201441157Y-93686127D01*
X201475284Y-93612439D01*
X201488432Y-93593344D01*
X201501820Y-93567069D01*
X201552490Y-93500314D01*
X201595591Y-93437719D01*
X201615568Y-93417212D01*
X201636727Y-93389336D01*
X201694258Y-93336434D01*
X201743617Y-93285765D01*
X201771170Y-93265710D01*
X201800975Y-93238303D01*
X201862241Y-93199422D01*
X201915123Y-93160931D01*
X201950522Y-93143397D01*
X201989372Y-93118742D01*
X202051415Y-93093423D01*
X202105218Y-93066773D01*
X202148263Y-93053900D01*
X202195965Y-93034433D01*
X202256085Y-93021654D01*
X202308452Y-93005993D01*
X202358420Y-92999902D01*
X202414222Y-92988041D01*
X202470142Y-92986284D01*
X202519033Y-92980324D01*
X202574698Y-92982998D01*
G37*
G36*
X195314042Y-94789892D02*
G01*
X195316268Y-94791270D01*
X195317162Y-94791448D01*
X195324830Y-94796571D01*
X195361117Y-94819039D01*
X195363828Y-94822629D01*
X195365952Y-94824048D01*
X195374036Y-94836147D01*
X195392678Y-94860833D01*
X195393845Y-94865793D01*
X195398552Y-94872838D01*
X195410000Y-94930390D01*
X195410000Y-94934481D01*
X195412449Y-94944893D01*
X195412449Y-95258025D01*
X195400108Y-95324042D01*
X195398730Y-95326268D01*
X195398552Y-95327162D01*
X195393429Y-95334830D01*
X195370961Y-95371117D01*
X195367371Y-95373828D01*
X195365952Y-95375952D01*
X195353853Y-95384036D01*
X195329167Y-95402678D01*
X195324207Y-95403845D01*
X195317162Y-95408552D01*
X195259610Y-95420000D01*
X195255519Y-95420000D01*
X195245107Y-95422449D01*
X194981975Y-95422449D01*
X194915958Y-95410108D01*
X194913732Y-95408730D01*
X194912838Y-95408552D01*
X194905170Y-95403429D01*
X194868883Y-95380961D01*
X194866172Y-95377371D01*
X194864048Y-95375952D01*
X194855964Y-95363853D01*
X194837322Y-95339167D01*
X194836155Y-95334207D01*
X194831448Y-95327162D01*
X194820000Y-95269610D01*
X194820000Y-95265519D01*
X194817551Y-95255107D01*
X194817551Y-94941975D01*
X194829892Y-94875958D01*
X194831270Y-94873732D01*
X194831448Y-94872838D01*
X194836571Y-94865170D01*
X194859039Y-94828883D01*
X194862629Y-94826172D01*
X194864048Y-94824048D01*
X194876147Y-94815964D01*
X194900833Y-94797322D01*
X194905793Y-94796155D01*
X194912838Y-94791448D01*
X194970390Y-94780000D01*
X194974481Y-94780000D01*
X194984893Y-94777551D01*
X195248025Y-94777551D01*
X195314042Y-94789892D01*
G37*
G36*
X208324042Y-94814892D02*
G01*
X208326268Y-94816270D01*
X208327162Y-94816448D01*
X208334830Y-94821571D01*
X208371117Y-94844039D01*
X208373828Y-94847629D01*
X208375952Y-94849048D01*
X208384036Y-94861147D01*
X208402678Y-94885833D01*
X208403845Y-94890793D01*
X208408552Y-94897838D01*
X208420000Y-94955390D01*
X208420000Y-94959481D01*
X208422449Y-94969893D01*
X208422449Y-95233025D01*
X208410108Y-95299042D01*
X208408730Y-95301268D01*
X208408552Y-95302162D01*
X208403429Y-95309830D01*
X208380961Y-95346117D01*
X208377371Y-95348828D01*
X208375952Y-95350952D01*
X208363853Y-95359036D01*
X208339167Y-95377678D01*
X208334207Y-95378845D01*
X208327162Y-95383552D01*
X208269610Y-95395000D01*
X208265519Y-95395000D01*
X208255107Y-95397449D01*
X207941975Y-95397449D01*
X207875958Y-95385108D01*
X207873732Y-95383730D01*
X207872838Y-95383552D01*
X207865170Y-95378429D01*
X207828883Y-95355961D01*
X207826172Y-95352371D01*
X207824048Y-95350952D01*
X207815964Y-95338853D01*
X207797322Y-95314167D01*
X207796155Y-95309207D01*
X207791448Y-95302162D01*
X207780000Y-95244610D01*
X207780000Y-95240519D01*
X207777551Y-95230107D01*
X207777551Y-94966975D01*
X207789892Y-94900958D01*
X207791270Y-94898732D01*
X207791448Y-94897838D01*
X207796571Y-94890170D01*
X207819039Y-94853883D01*
X207822629Y-94851172D01*
X207824048Y-94849048D01*
X207836147Y-94840964D01*
X207860833Y-94822322D01*
X207865793Y-94821155D01*
X207872838Y-94816448D01*
X207930390Y-94805000D01*
X207934481Y-94805000D01*
X207944893Y-94802551D01*
X208258025Y-94802551D01*
X208324042Y-94814892D01*
G37*
G36*
X194372242Y-94338292D02*
G01*
X194374468Y-94339670D01*
X194375362Y-94339848D01*
X194383030Y-94344971D01*
X194419317Y-94367439D01*
X194422028Y-94371029D01*
X194424152Y-94372448D01*
X194432236Y-94384547D01*
X194450878Y-94409233D01*
X194452045Y-94414193D01*
X194456752Y-94421238D01*
X194468200Y-94478790D01*
X194468200Y-94482881D01*
X194470649Y-94493293D01*
X194470649Y-94756425D01*
X194458308Y-94822442D01*
X194456930Y-94824668D01*
X194456752Y-94825562D01*
X194451629Y-94833230D01*
X194429161Y-94869517D01*
X194425571Y-94872228D01*
X194424152Y-94874352D01*
X194412053Y-94882436D01*
X194387367Y-94901078D01*
X194382407Y-94902245D01*
X194375362Y-94906952D01*
X194317810Y-94918400D01*
X194313719Y-94918400D01*
X194303307Y-94920849D01*
X193990175Y-94920849D01*
X193924158Y-94908508D01*
X193921932Y-94907130D01*
X193921038Y-94906952D01*
X193913370Y-94901829D01*
X193877083Y-94879361D01*
X193874372Y-94875771D01*
X193872248Y-94874352D01*
X193864164Y-94862253D01*
X193845522Y-94837567D01*
X193844355Y-94832607D01*
X193839648Y-94825562D01*
X193828200Y-94768010D01*
X193828200Y-94763919D01*
X193825751Y-94753507D01*
X193825751Y-94490375D01*
X193838092Y-94424358D01*
X193839470Y-94422132D01*
X193839648Y-94421238D01*
X193844771Y-94413570D01*
X193867239Y-94377283D01*
X193870829Y-94374572D01*
X193872248Y-94372448D01*
X193884347Y-94364364D01*
X193909033Y-94345722D01*
X193913993Y-94344555D01*
X193921038Y-94339848D01*
X193978590Y-94328400D01*
X193982681Y-94328400D01*
X193993093Y-94325951D01*
X194306225Y-94325951D01*
X194372242Y-94338292D01*
G37*
G36*
X193272242Y-94338292D02*
G01*
X193274468Y-94339670D01*
X193275362Y-94339848D01*
X193283030Y-94344971D01*
X193319317Y-94367439D01*
X193322028Y-94371029D01*
X193324152Y-94372448D01*
X193332236Y-94384547D01*
X193350878Y-94409233D01*
X193352045Y-94414193D01*
X193356752Y-94421238D01*
X193368200Y-94478790D01*
X193368200Y-94482881D01*
X193370649Y-94493293D01*
X193370649Y-94756425D01*
X193358308Y-94822442D01*
X193356930Y-94824668D01*
X193356752Y-94825562D01*
X193351629Y-94833230D01*
X193329161Y-94869517D01*
X193325571Y-94872228D01*
X193324152Y-94874352D01*
X193312053Y-94882436D01*
X193287367Y-94901078D01*
X193282407Y-94902245D01*
X193275362Y-94906952D01*
X193217810Y-94918400D01*
X193213719Y-94918400D01*
X193203307Y-94920849D01*
X192890175Y-94920849D01*
X192824158Y-94908508D01*
X192821932Y-94907130D01*
X192821038Y-94906952D01*
X192813370Y-94901829D01*
X192777083Y-94879361D01*
X192774372Y-94875771D01*
X192772248Y-94874352D01*
X192764164Y-94862253D01*
X192745522Y-94837567D01*
X192744355Y-94832607D01*
X192739648Y-94825562D01*
X192728200Y-94768010D01*
X192728200Y-94763919D01*
X192725751Y-94753507D01*
X192725751Y-94490375D01*
X192738092Y-94424358D01*
X192739470Y-94422132D01*
X192739648Y-94421238D01*
X192744771Y-94413570D01*
X192767239Y-94377283D01*
X192770829Y-94374572D01*
X192772248Y-94372448D01*
X192784347Y-94364364D01*
X192809033Y-94345722D01*
X192813993Y-94344555D01*
X192821038Y-94339848D01*
X192878590Y-94328400D01*
X192882681Y-94328400D01*
X192893093Y-94325951D01*
X193206225Y-94325951D01*
X193272242Y-94338292D01*
G37*
G36*
X192172242Y-94338292D02*
G01*
X192174468Y-94339670D01*
X192175362Y-94339848D01*
X192183030Y-94344971D01*
X192219317Y-94367439D01*
X192222028Y-94371029D01*
X192224152Y-94372448D01*
X192232236Y-94384547D01*
X192250878Y-94409233D01*
X192252045Y-94414193D01*
X192256752Y-94421238D01*
X192268200Y-94478790D01*
X192268200Y-94482881D01*
X192270649Y-94493293D01*
X192270649Y-94756425D01*
X192258308Y-94822442D01*
X192256930Y-94824668D01*
X192256752Y-94825562D01*
X192251629Y-94833230D01*
X192229161Y-94869517D01*
X192225571Y-94872228D01*
X192224152Y-94874352D01*
X192212053Y-94882436D01*
X192187367Y-94901078D01*
X192182407Y-94902245D01*
X192175362Y-94906952D01*
X192117810Y-94918400D01*
X192113719Y-94918400D01*
X192103307Y-94920849D01*
X191790175Y-94920849D01*
X191724158Y-94908508D01*
X191721932Y-94907130D01*
X191721038Y-94906952D01*
X191713370Y-94901829D01*
X191677083Y-94879361D01*
X191674372Y-94875771D01*
X191672248Y-94874352D01*
X191664164Y-94862253D01*
X191645522Y-94837567D01*
X191644355Y-94832607D01*
X191639648Y-94825562D01*
X191628200Y-94768010D01*
X191628200Y-94763919D01*
X191625751Y-94753507D01*
X191625751Y-94490375D01*
X191638092Y-94424358D01*
X191639470Y-94422132D01*
X191639648Y-94421238D01*
X191644771Y-94413570D01*
X191667239Y-94377283D01*
X191670829Y-94374572D01*
X191672248Y-94372448D01*
X191684347Y-94364364D01*
X191709033Y-94345722D01*
X191713993Y-94344555D01*
X191721038Y-94339848D01*
X191778590Y-94328400D01*
X191782681Y-94328400D01*
X191793093Y-94325951D01*
X192106225Y-94325951D01*
X192172242Y-94338292D01*
G37*
G36*
X208324042Y-93844892D02*
G01*
X208326268Y-93846270D01*
X208327162Y-93846448D01*
X208334830Y-93851571D01*
X208371117Y-93874039D01*
X208373828Y-93877629D01*
X208375952Y-93879048D01*
X208384036Y-93891147D01*
X208402678Y-93915833D01*
X208403845Y-93920793D01*
X208408552Y-93927838D01*
X208420000Y-93985390D01*
X208420000Y-93989481D01*
X208422449Y-93999893D01*
X208422449Y-94263025D01*
X208410108Y-94329042D01*
X208408730Y-94331268D01*
X208408552Y-94332162D01*
X208403429Y-94339830D01*
X208380961Y-94376117D01*
X208377371Y-94378828D01*
X208375952Y-94380952D01*
X208363853Y-94389036D01*
X208339167Y-94407678D01*
X208334207Y-94408845D01*
X208327162Y-94413552D01*
X208269610Y-94425000D01*
X208265519Y-94425000D01*
X208255107Y-94427449D01*
X207941975Y-94427449D01*
X207875958Y-94415108D01*
X207873732Y-94413730D01*
X207872838Y-94413552D01*
X207865170Y-94408429D01*
X207828883Y-94385961D01*
X207826172Y-94382371D01*
X207824048Y-94380952D01*
X207815964Y-94368853D01*
X207797322Y-94344167D01*
X207796155Y-94339207D01*
X207791448Y-94332162D01*
X207780000Y-94274610D01*
X207780000Y-94270519D01*
X207777551Y-94260107D01*
X207777551Y-93996975D01*
X207789892Y-93930958D01*
X207791270Y-93928732D01*
X207791448Y-93927838D01*
X207796571Y-93920170D01*
X207819039Y-93883883D01*
X207822629Y-93881172D01*
X207824048Y-93879048D01*
X207836147Y-93870964D01*
X207860833Y-93852322D01*
X207865793Y-93851155D01*
X207872838Y-93846448D01*
X207930390Y-93835000D01*
X207934481Y-93835000D01*
X207944893Y-93832551D01*
X208258025Y-93832551D01*
X208324042Y-93844892D01*
G37*
G36*
X192172242Y-93368292D02*
G01*
X192174468Y-93369670D01*
X192175362Y-93369848D01*
X192183030Y-93374971D01*
X192219317Y-93397439D01*
X192222028Y-93401029D01*
X192224152Y-93402448D01*
X192232236Y-93414547D01*
X192250878Y-93439233D01*
X192252045Y-93444193D01*
X192256752Y-93451238D01*
X192268200Y-93508790D01*
X192268200Y-93512881D01*
X192270649Y-93523293D01*
X192270649Y-93786425D01*
X192258308Y-93852442D01*
X192256930Y-93854668D01*
X192256752Y-93855562D01*
X192251629Y-93863230D01*
X192229161Y-93899517D01*
X192225571Y-93902228D01*
X192224152Y-93904352D01*
X192212053Y-93912436D01*
X192187367Y-93931078D01*
X192182407Y-93932245D01*
X192175362Y-93936952D01*
X192117810Y-93948400D01*
X192113719Y-93948400D01*
X192103307Y-93950849D01*
X191790175Y-93950849D01*
X191724158Y-93938508D01*
X191721932Y-93937130D01*
X191721038Y-93936952D01*
X191713370Y-93931829D01*
X191677083Y-93909361D01*
X191674372Y-93905771D01*
X191672248Y-93904352D01*
X191664164Y-93892253D01*
X191645522Y-93867567D01*
X191644355Y-93862607D01*
X191639648Y-93855562D01*
X191628200Y-93798010D01*
X191628200Y-93793919D01*
X191625751Y-93783507D01*
X191625751Y-93520375D01*
X191638092Y-93454358D01*
X191639470Y-93452132D01*
X191639648Y-93451238D01*
X191644771Y-93443570D01*
X191667239Y-93407283D01*
X191670829Y-93404572D01*
X191672248Y-93402448D01*
X191684347Y-93394364D01*
X191709033Y-93375722D01*
X191713993Y-93374555D01*
X191721038Y-93369848D01*
X191778590Y-93358400D01*
X191782681Y-93358400D01*
X191793093Y-93355951D01*
X192106225Y-93355951D01*
X192172242Y-93368292D01*
G37*
G36*
X193272242Y-93368292D02*
G01*
X193274468Y-93369670D01*
X193275362Y-93369848D01*
X193283030Y-93374971D01*
X193319317Y-93397439D01*
X193322028Y-93401029D01*
X193324152Y-93402448D01*
X193332236Y-93414547D01*
X193350878Y-93439233D01*
X193352045Y-93444193D01*
X193356752Y-93451238D01*
X193368200Y-93508790D01*
X193368200Y-93512881D01*
X193370649Y-93523293D01*
X193370649Y-93786425D01*
X193358308Y-93852442D01*
X193356930Y-93854668D01*
X193356752Y-93855562D01*
X193351629Y-93863230D01*
X193329161Y-93899517D01*
X193325571Y-93902228D01*
X193324152Y-93904352D01*
X193312053Y-93912436D01*
X193287367Y-93931078D01*
X193282407Y-93932245D01*
X193275362Y-93936952D01*
X193217810Y-93948400D01*
X193213719Y-93948400D01*
X193203307Y-93950849D01*
X192890175Y-93950849D01*
X192824158Y-93938508D01*
X192821932Y-93937130D01*
X192821038Y-93936952D01*
X192813370Y-93931829D01*
X192777083Y-93909361D01*
X192774372Y-93905771D01*
X192772248Y-93904352D01*
X192764164Y-93892253D01*
X192745522Y-93867567D01*
X192744355Y-93862607D01*
X192739648Y-93855562D01*
X192728200Y-93798010D01*
X192728200Y-93793919D01*
X192725751Y-93783507D01*
X192725751Y-93520375D01*
X192738092Y-93454358D01*
X192739470Y-93452132D01*
X192739648Y-93451238D01*
X192744771Y-93443570D01*
X192767239Y-93407283D01*
X192770829Y-93404572D01*
X192772248Y-93402448D01*
X192784347Y-93394364D01*
X192809033Y-93375722D01*
X192813993Y-93374555D01*
X192821038Y-93369848D01*
X192878590Y-93358400D01*
X192882681Y-93358400D01*
X192893093Y-93355951D01*
X193206225Y-93355951D01*
X193272242Y-93368292D01*
G37*
G36*
X194372242Y-93368292D02*
G01*
X194374468Y-93369670D01*
X194375362Y-93369848D01*
X194383030Y-93374971D01*
X194419317Y-93397439D01*
X194422028Y-93401029D01*
X194424152Y-93402448D01*
X194432236Y-93414547D01*
X194450878Y-93439233D01*
X194452045Y-93444193D01*
X194456752Y-93451238D01*
X194468200Y-93508790D01*
X194468200Y-93512881D01*
X194470649Y-93523293D01*
X194470649Y-93786425D01*
X194458308Y-93852442D01*
X194456930Y-93854668D01*
X194456752Y-93855562D01*
X194451629Y-93863230D01*
X194429161Y-93899517D01*
X194425571Y-93902228D01*
X194424152Y-93904352D01*
X194412053Y-93912436D01*
X194387367Y-93931078D01*
X194382407Y-93932245D01*
X194375362Y-93936952D01*
X194317810Y-93948400D01*
X194313719Y-93948400D01*
X194303307Y-93950849D01*
X193990175Y-93950849D01*
X193924158Y-93938508D01*
X193921932Y-93937130D01*
X193921038Y-93936952D01*
X193913370Y-93931829D01*
X193877083Y-93909361D01*
X193874372Y-93905771D01*
X193872248Y-93904352D01*
X193864164Y-93892253D01*
X193845522Y-93867567D01*
X193844355Y-93862607D01*
X193839648Y-93855562D01*
X193828200Y-93798010D01*
X193828200Y-93793919D01*
X193825751Y-93783507D01*
X193825751Y-93520375D01*
X193838092Y-93454358D01*
X193839470Y-93452132D01*
X193839648Y-93451238D01*
X193844771Y-93443570D01*
X193867239Y-93407283D01*
X193870829Y-93404572D01*
X193872248Y-93402448D01*
X193884347Y-93394364D01*
X193909033Y-93375722D01*
X193913993Y-93374555D01*
X193921038Y-93369848D01*
X193978590Y-93358400D01*
X193982681Y-93358400D01*
X193993093Y-93355951D01*
X194306225Y-93355951D01*
X194372242Y-93368292D01*
G37*
G36*
X200034341Y-90573070D02*
G01*
X200089732Y-90571329D01*
X200135687Y-90578115D01*
X200187414Y-90580690D01*
X200239593Y-90593458D01*
X200287517Y-90600535D01*
X200338154Y-90617576D01*
X200395006Y-90631488D01*
X200437678Y-90651070D01*
X200477006Y-90664305D01*
X200529958Y-90693416D01*
X200589247Y-90720623D01*
X200621928Y-90743977D01*
X200652206Y-90760623D01*
X200704656Y-90803096D01*
X200763128Y-90844881D01*
X200786107Y-90869054D01*
X200807575Y-90886438D01*
X200856356Y-90942951D01*
X200910376Y-90999777D01*
X200924692Y-91022119D01*
X200938217Y-91037788D01*
X200979977Y-91108400D01*
X201025677Y-91179722D01*
X201032975Y-91198015D01*
X201039991Y-91209878D01*
X201071362Y-91294234D01*
X201104871Y-91378224D01*
X201107288Y-91390837D01*
X201109678Y-91397262D01*
X201127426Y-91495903D01*
X201145101Y-91588119D01*
X201144334Y-91807698D01*
X201138368Y-91837693D01*
X201137939Y-91854057D01*
X201119337Y-91933367D01*
X201102640Y-92017308D01*
X201095582Y-92034647D01*
X201092663Y-92047091D01*
X201056457Y-92130760D01*
X201022062Y-92215252D01*
X201015589Y-92225201D01*
X201013258Y-92230587D01*
X200956552Y-92315936D01*
X200905508Y-92394387D01*
X200852408Y-92449470D01*
X200764243Y-92541408D01*
X200762696Y-92542532D01*
X200757182Y-92548252D01*
X200680736Y-92602079D01*
X200602496Y-92658923D01*
X200594548Y-92662765D01*
X200582438Y-92671292D01*
X200501351Y-92707819D01*
X200422492Y-92745941D01*
X200407316Y-92750178D01*
X200387579Y-92759069D01*
X200306894Y-92778217D01*
X200229931Y-92799705D01*
X200207350Y-92801840D01*
X200179638Y-92808416D01*
X200103164Y-92811688D01*
X200030891Y-92818520D01*
X200001391Y-92816043D01*
X199966117Y-92817552D01*
X199896880Y-92807266D01*
X199831658Y-92801789D01*
X199796377Y-92792335D01*
X199754721Y-92786147D01*
X199694963Y-92765161D01*
X199638540Y-92750043D01*
X199599209Y-92731535D01*
X199553077Y-92715335D01*
X199504172Y-92686814D01*
X199457644Y-92664920D01*
X199416540Y-92635709D01*
X199368461Y-92607670D01*
X199330912Y-92574856D01*
X199294671Y-92549101D01*
X199254503Y-92508083D01*
X199207535Y-92467038D01*
X199181042Y-92433067D01*
X199154791Y-92406261D01*
X199118571Y-92352965D01*
X199076105Y-92298513D01*
X199059603Y-92266195D01*
X199042413Y-92240901D01*
X199013311Y-92175538D01*
X198978914Y-92108175D01*
X198970719Y-92079876D01*
X198961094Y-92058258D01*
X198942290Y-91981704D01*
X198919468Y-91902892D01*
X198917398Y-91880359D01*
X198913403Y-91864096D01*
X198907974Y-91777800D01*
X198899913Y-91690073D01*
X198901467Y-91674369D01*
X198900850Y-91664567D01*
X198911795Y-91569976D01*
X198920954Y-91477395D01*
X198923497Y-91468838D01*
X198923830Y-91465958D01*
X198956996Y-91356105D01*
X198981831Y-91272532D01*
X199024617Y-91190166D01*
X199072382Y-91096421D01*
X199075335Y-91092531D01*
X199080349Y-91082878D01*
X199137302Y-91010893D01*
X199193254Y-90937178D01*
X199201945Y-90929186D01*
X199212952Y-90915274D01*
X199278449Y-90858838D01*
X199340429Y-90801845D01*
X199356230Y-90791818D01*
X199374856Y-90775768D01*
X199444458Y-90735826D01*
X199509232Y-90694719D01*
X199532973Y-90685031D01*
X199560219Y-90669395D01*
X199629987Y-90645440D01*
X199694340Y-90619178D01*
X199726192Y-90612407D01*
X199762352Y-90599992D01*
X199828844Y-90590588D01*
X199889905Y-90577609D01*
X199929387Y-90576368D01*
X199973962Y-90570064D01*
X200034341Y-90573070D01*
G37*
G36*
X194232042Y-91764892D02*
G01*
X194234268Y-91766270D01*
X194235162Y-91766448D01*
X194242830Y-91771571D01*
X194279117Y-91794039D01*
X194281828Y-91797629D01*
X194283952Y-91799048D01*
X194292036Y-91811147D01*
X194310678Y-91835833D01*
X194311845Y-91840793D01*
X194316552Y-91847838D01*
X194328000Y-91905390D01*
X194328000Y-91909481D01*
X194330449Y-91919893D01*
X194330449Y-92233025D01*
X194318108Y-92299042D01*
X194316730Y-92301268D01*
X194316552Y-92302162D01*
X194311429Y-92309830D01*
X194288961Y-92346117D01*
X194285371Y-92348828D01*
X194283952Y-92350952D01*
X194271853Y-92359036D01*
X194247167Y-92377678D01*
X194242207Y-92378845D01*
X194235162Y-92383552D01*
X194177610Y-92395000D01*
X194173519Y-92395000D01*
X194163107Y-92397449D01*
X193899975Y-92397449D01*
X193833958Y-92385108D01*
X193831732Y-92383730D01*
X193830838Y-92383552D01*
X193823170Y-92378429D01*
X193786883Y-92355961D01*
X193784172Y-92352371D01*
X193782048Y-92350952D01*
X193773964Y-92338853D01*
X193755322Y-92314167D01*
X193754155Y-92309207D01*
X193749448Y-92302162D01*
X193738000Y-92244610D01*
X193738000Y-92240519D01*
X193735551Y-92230107D01*
X193735551Y-91916975D01*
X193747892Y-91850958D01*
X193749270Y-91848732D01*
X193749448Y-91847838D01*
X193754571Y-91840170D01*
X193777039Y-91803883D01*
X193780629Y-91801172D01*
X193782048Y-91799048D01*
X193794147Y-91790964D01*
X193818833Y-91772322D01*
X193823793Y-91771155D01*
X193830838Y-91766448D01*
X193888390Y-91755000D01*
X193892481Y-91755000D01*
X193902893Y-91752551D01*
X194166025Y-91752551D01*
X194232042Y-91764892D01*
G37*
G36*
X193262042Y-91764892D02*
G01*
X193264268Y-91766270D01*
X193265162Y-91766448D01*
X193272830Y-91771571D01*
X193309117Y-91794039D01*
X193311828Y-91797629D01*
X193313952Y-91799048D01*
X193322036Y-91811147D01*
X193340678Y-91835833D01*
X193341845Y-91840793D01*
X193346552Y-91847838D01*
X193358000Y-91905390D01*
X193358000Y-91909481D01*
X193360449Y-91919893D01*
X193360449Y-92233025D01*
X193348108Y-92299042D01*
X193346730Y-92301268D01*
X193346552Y-92302162D01*
X193341429Y-92309830D01*
X193318961Y-92346117D01*
X193315371Y-92348828D01*
X193313952Y-92350952D01*
X193301853Y-92359036D01*
X193277167Y-92377678D01*
X193272207Y-92378845D01*
X193265162Y-92383552D01*
X193207610Y-92395000D01*
X193203519Y-92395000D01*
X193193107Y-92397449D01*
X192929975Y-92397449D01*
X192863958Y-92385108D01*
X192861732Y-92383730D01*
X192860838Y-92383552D01*
X192853170Y-92378429D01*
X192816883Y-92355961D01*
X192814172Y-92352371D01*
X192812048Y-92350952D01*
X192803964Y-92338853D01*
X192785322Y-92314167D01*
X192784155Y-92309207D01*
X192779448Y-92302162D01*
X192768000Y-92244610D01*
X192768000Y-92240519D01*
X192765551Y-92230107D01*
X192765551Y-91916975D01*
X192777892Y-91850958D01*
X192779270Y-91848732D01*
X192779448Y-91847838D01*
X192784571Y-91840170D01*
X192807039Y-91803883D01*
X192810629Y-91801172D01*
X192812048Y-91799048D01*
X192824147Y-91790964D01*
X192848833Y-91772322D01*
X192853793Y-91771155D01*
X192860838Y-91766448D01*
X192918390Y-91755000D01*
X192922481Y-91755000D01*
X192932893Y-91752551D01*
X193196025Y-91752551D01*
X193262042Y-91764892D01*
G37*
G36*
X202574698Y-87902998D02*
G01*
X202637246Y-87901032D01*
X202687127Y-87908398D01*
X202730915Y-87910501D01*
X202790589Y-87923676D01*
X202857985Y-87933628D01*
X202900552Y-87947953D01*
X202938067Y-87956236D01*
X202999637Y-87981299D01*
X203069464Y-88004799D01*
X203103983Y-88023776D01*
X203134538Y-88036214D01*
X203195528Y-88074103D01*
X203264997Y-88112294D01*
X203291335Y-88133622D01*
X203314732Y-88148157D01*
X203372388Y-88199257D01*
X203438405Y-88252716D01*
X203456960Y-88274212D01*
X203473486Y-88288859D01*
X203524924Y-88352950D01*
X203584205Y-88421627D01*
X203595858Y-88441330D01*
X203606266Y-88454299D01*
X203648587Y-88530492D01*
X203697789Y-88613687D01*
X203703848Y-88629979D01*
X203709273Y-88639746D01*
X203739653Y-88726257D01*
X203775567Y-88822826D01*
X203777670Y-88834512D01*
X203779560Y-88839895D01*
X203795409Y-88933107D01*
X203815080Y-89042433D01*
X203814936Y-89047943D01*
X203815018Y-89048427D01*
X203812532Y-89285729D01*
X203808104Y-89308831D01*
X203807528Y-89330838D01*
X203787611Y-89415753D01*
X203772716Y-89493469D01*
X203763812Y-89517220D01*
X203756575Y-89548076D01*
X203724189Y-89622917D01*
X203698251Y-89692107D01*
X203682734Y-89718715D01*
X203667959Y-89752858D01*
X203625942Y-89816098D01*
X203591384Y-89875356D01*
X203568108Y-89903144D01*
X203544478Y-89938710D01*
X203495794Y-89989477D01*
X203455169Y-90037978D01*
X203423407Y-90064962D01*
X203390038Y-90099759D01*
X203337627Y-90137838D01*
X203293502Y-90175325D01*
X203252984Y-90199335D01*
X203209519Y-90230914D01*
X203156173Y-90256703D01*
X203111011Y-90283464D01*
X203061984Y-90302235D01*
X203008628Y-90328028D01*
X202956875Y-90342478D01*
X202912893Y-90359317D01*
X202856113Y-90370611D01*
X202793715Y-90388033D01*
X202745715Y-90392570D01*
X202704839Y-90400701D01*
X202641600Y-90402412D01*
X202571571Y-90409032D01*
X202529019Y-90405459D01*
X202492789Y-90406439D01*
X202424875Y-90396713D01*
X202349221Y-90390360D01*
X202313296Y-90380734D01*
X202282795Y-90376366D01*
X202212450Y-90353713D01*
X202133690Y-90332609D01*
X202105010Y-90319113D01*
X202080872Y-90311340D01*
X202010730Y-90274749D01*
X201931793Y-90237604D01*
X201910444Y-90222432D01*
X201892793Y-90213224D01*
X201825740Y-90162236D01*
X201749911Y-90108347D01*
X201735443Y-90093573D01*
X201723939Y-90084825D01*
X201663125Y-90019724D01*
X201593793Y-89948924D01*
X201585263Y-89936373D01*
X201579126Y-89929803D01*
X201527884Y-89851943D01*
X201468373Y-89764375D01*
X201464440Y-89755541D01*
X201462509Y-89752607D01*
X201424999Y-89666954D01*
X201377617Y-89560532D01*
X201346590Y-89434213D01*
X201326271Y-89352413D01*
X201326173Y-89351089D01*
X201324392Y-89343840D01*
X201317536Y-89234877D01*
X201310550Y-89140864D01*
X201311196Y-89134096D01*
X201310381Y-89121147D01*
X201322071Y-89020114D01*
X201330698Y-88929691D01*
X201333902Y-88917857D01*
X201336027Y-88899492D01*
X201363610Y-88808134D01*
X201386139Y-88724924D01*
X201393590Y-88708836D01*
X201400520Y-88685882D01*
X201441157Y-88606127D01*
X201475284Y-88532439D01*
X201488432Y-88513344D01*
X201501820Y-88487069D01*
X201552490Y-88420314D01*
X201595591Y-88357719D01*
X201615568Y-88337212D01*
X201636727Y-88309336D01*
X201694258Y-88256434D01*
X201743617Y-88205765D01*
X201771170Y-88185710D01*
X201800975Y-88158303D01*
X201862241Y-88119422D01*
X201915123Y-88080931D01*
X201950522Y-88063397D01*
X201989372Y-88038742D01*
X202051415Y-88013423D01*
X202105218Y-87986773D01*
X202148263Y-87973900D01*
X202195965Y-87954433D01*
X202256085Y-87941654D01*
X202308452Y-87925993D01*
X202358420Y-87919902D01*
X202414222Y-87908041D01*
X202470142Y-87906284D01*
X202519033Y-87900324D01*
X202574698Y-87902998D01*
G37*
G36*
X197494698Y-87902998D02*
G01*
X197557246Y-87901032D01*
X197607127Y-87908398D01*
X197650915Y-87910501D01*
X197710589Y-87923676D01*
X197777985Y-87933628D01*
X197820552Y-87947953D01*
X197858067Y-87956236D01*
X197919637Y-87981299D01*
X197989464Y-88004799D01*
X198023983Y-88023776D01*
X198054538Y-88036214D01*
X198115528Y-88074103D01*
X198184997Y-88112294D01*
X198211335Y-88133622D01*
X198234732Y-88148157D01*
X198292388Y-88199257D01*
X198358405Y-88252716D01*
X198376960Y-88274212D01*
X198393486Y-88288859D01*
X198444924Y-88352950D01*
X198504205Y-88421627D01*
X198515858Y-88441330D01*
X198526266Y-88454299D01*
X198568587Y-88530492D01*
X198617789Y-88613687D01*
X198623848Y-88629979D01*
X198629273Y-88639746D01*
X198659653Y-88726257D01*
X198695567Y-88822826D01*
X198697670Y-88834512D01*
X198699560Y-88839895D01*
X198715409Y-88933107D01*
X198735080Y-89042433D01*
X198734936Y-89047943D01*
X198735018Y-89048427D01*
X198732532Y-89285729D01*
X198728104Y-89308831D01*
X198727528Y-89330838D01*
X198707611Y-89415753D01*
X198692716Y-89493469D01*
X198683812Y-89517220D01*
X198676575Y-89548076D01*
X198644189Y-89622917D01*
X198618251Y-89692107D01*
X198602734Y-89718715D01*
X198587959Y-89752858D01*
X198545942Y-89816098D01*
X198511384Y-89875356D01*
X198488108Y-89903144D01*
X198464478Y-89938710D01*
X198415794Y-89989477D01*
X198375169Y-90037978D01*
X198343407Y-90064962D01*
X198310038Y-90099759D01*
X198257627Y-90137838D01*
X198213502Y-90175325D01*
X198172984Y-90199335D01*
X198129519Y-90230914D01*
X198076173Y-90256703D01*
X198031011Y-90283464D01*
X197981984Y-90302235D01*
X197928628Y-90328028D01*
X197876875Y-90342478D01*
X197832893Y-90359317D01*
X197776113Y-90370611D01*
X197713715Y-90388033D01*
X197665715Y-90392570D01*
X197624839Y-90400701D01*
X197561600Y-90402412D01*
X197491571Y-90409032D01*
X197449019Y-90405459D01*
X197412789Y-90406439D01*
X197344875Y-90396713D01*
X197269221Y-90390360D01*
X197233296Y-90380734D01*
X197202795Y-90376366D01*
X197132450Y-90353713D01*
X197053690Y-90332609D01*
X197025010Y-90319113D01*
X197000872Y-90311340D01*
X196930730Y-90274749D01*
X196851793Y-90237604D01*
X196830444Y-90222432D01*
X196812793Y-90213224D01*
X196745740Y-90162236D01*
X196669911Y-90108347D01*
X196655443Y-90093573D01*
X196643939Y-90084825D01*
X196583125Y-90019724D01*
X196513793Y-89948924D01*
X196505263Y-89936373D01*
X196499126Y-89929803D01*
X196447884Y-89851943D01*
X196388373Y-89764375D01*
X196384440Y-89755541D01*
X196382509Y-89752607D01*
X196344999Y-89666954D01*
X196297617Y-89560532D01*
X196266590Y-89434213D01*
X196246271Y-89352413D01*
X196246173Y-89351089D01*
X196244392Y-89343840D01*
X196237536Y-89234877D01*
X196230550Y-89140864D01*
X196231196Y-89134096D01*
X196230381Y-89121147D01*
X196242071Y-89020114D01*
X196250698Y-88929691D01*
X196253902Y-88917857D01*
X196256027Y-88899492D01*
X196283610Y-88808134D01*
X196306139Y-88724924D01*
X196313590Y-88708836D01*
X196320520Y-88685882D01*
X196361157Y-88606127D01*
X196395284Y-88532439D01*
X196408432Y-88513344D01*
X196421820Y-88487069D01*
X196472490Y-88420314D01*
X196515591Y-88357719D01*
X196535568Y-88337212D01*
X196556727Y-88309336D01*
X196614258Y-88256434D01*
X196663617Y-88205765D01*
X196691170Y-88185710D01*
X196720975Y-88158303D01*
X196782241Y-88119422D01*
X196835123Y-88080931D01*
X196870522Y-88063397D01*
X196909372Y-88038742D01*
X196971415Y-88013423D01*
X197025218Y-87986773D01*
X197068263Y-87973900D01*
X197115965Y-87954433D01*
X197176085Y-87941654D01*
X197228452Y-87925993D01*
X197278420Y-87919902D01*
X197334222Y-87908041D01*
X197390142Y-87906284D01*
X197439033Y-87900324D01*
X197494698Y-87902998D01*
G37*
M02*
