G04 #@! TF.GenerationSoftware,KiCad,Pcbnew,(5.99.0-417-g8bd2765f3)*
G04 #@! TF.CreationDate,2020-07-21T00:36:45-04:00*
G04 #@! TF.ProjectId,tiav2,74696176-322e-46b6-9963-61645f706362,rev?*
G04 #@! TF.SameCoordinates,Original*
G04 #@! TF.FileFunction,Legend,Bot*
G04 #@! TF.FilePolarity,Positive*
%FSLAX46Y46*%
G04 Gerber Fmt 4.6, Leading zero omitted, Abs format (unit mm)*
G04 Created by KiCad (PCBNEW (5.99.0-417-g8bd2765f3)) date 2020-07-21 00:36:45*
%MOMM*%
%LPD*%
G04 APERTURE LIST*
%ADD10C,0.120000*%
%ADD11C,0.150000*%
G04 APERTURE END LIST*
D10*
X203850000Y-95850000D02*
X203050000Y-96550000D01*
X203950000Y-95950000D02*
X203850000Y-95850000D01*
X204550000Y-96650000D02*
X203950000Y-95950000D01*
X203750000Y-97350000D02*
X204550000Y-96650000D01*
X204550000Y-100000000D02*
G75*
G03X204550000Y-100000000I-4550000J0D01*
G01*
D11*
X192444666Y-98496380D02*
X192778000Y-98020190D01*
X193016095Y-98496380D02*
X193016095Y-97496380D01*
X192635142Y-97496380D01*
X192539904Y-97544000D01*
X192492285Y-97591619D01*
X192444666Y-97686857D01*
X192444666Y-97829714D01*
X192492285Y-97924952D01*
X192539904Y-97972571D01*
X192635142Y-98020190D01*
X193016095Y-98020190D01*
X192063714Y-97591619D02*
X192016095Y-97544000D01*
X191920857Y-97496380D01*
X191682761Y-97496380D01*
X191587523Y-97544000D01*
X191539904Y-97591619D01*
X191492285Y-97686857D01*
X191492285Y-97782095D01*
X191539904Y-97924952D01*
X192111333Y-98496380D01*
X191492285Y-98496380D01*
X193333666Y-97004142D02*
X193381285Y-97051761D01*
X193524142Y-97099380D01*
X193619380Y-97099380D01*
X193762238Y-97051761D01*
X193857476Y-96956523D01*
X193905095Y-96861285D01*
X193952714Y-96670809D01*
X193952714Y-96527952D01*
X193905095Y-96337476D01*
X193857476Y-96242238D01*
X193762238Y-96147000D01*
X193619380Y-96099380D01*
X193524142Y-96099380D01*
X193381285Y-96147000D01*
X193333666Y-96194619D01*
X192952714Y-96194619D02*
X192905095Y-96147000D01*
X192809857Y-96099380D01*
X192571761Y-96099380D01*
X192476523Y-96147000D01*
X192428904Y-96194619D01*
X192381285Y-96289857D01*
X192381285Y-96385095D01*
X192428904Y-96527952D01*
X193000333Y-97099380D01*
X192381285Y-97099380D01*
M02*
