M48
; DRILL file {KiCad (5.99.0-417-g8bd2765f3)} date 7/21/2020 12:36:51 AM
; FORMAT={-:-/ absolute / inch / decimal}
; #@! TF.CreationDate,2020-07-21T00:36:51-04:00
; #@! TF.GenerationSoftware,Kicad,Pcbnew,(5.99.0-417-g8bd2765f3)
; #@! TF.FileFunction,Plated,1,2,PTH
FMAT,2
INCH
T1C0.0118
T2C0.0236
T3C0.0394
T4C0.0472
T5C0.0591
%
G90
G05
T1
X7.492Y-4.102
X7.514Y-3.766
X7.524Y-3.968
X7.535Y-4.24
X7.594Y-3.972
X7.6Y-3.785
X7.6476Y-3.872
X7.675Y-3.6866
X7.68Y-4.206
X7.702Y-3.618
X7.7196Y-3.816
X7.735Y-4.364
X7.812Y-4.008
X7.8169Y-3.874
X7.86Y-4.31
X7.8898Y-3.935
X7.9397Y-4.0637
X8.0079Y-3.8248
X8.011Y-4.2008
X8.0161Y-3.9764
X8.02Y-4.364
X8.118Y-3.626
X8.1358Y-4.2067
X8.2303Y-3.7087
X8.2421Y-4.2047
X8.3425Y-3.9469
T2
X7.774Y-3.937
X7.874Y-3.837
X7.974Y-3.937
T3
X8.1657Y-3.839
X8.1657Y-3.939
X8.1657Y-4.039
X8.2657Y-3.839
X8.2657Y-3.939
X8.2657Y-4.039
T4
X7.875Y-3.61
T5
X7.775Y-3.51
X7.775Y-3.71
X7.975Y-3.51
X7.975Y-3.71
T0
M30
