G04 #@! TF.GenerationSoftware,KiCad,Pcbnew,(5.99.0-417-g8bd2765f3)*
G04 #@! TF.CreationDate,2020-07-21T00:36:45-04:00*
G04 #@! TF.ProjectId,tiav2,74696176-322e-46b6-9963-61645f706362,rev?*
G04 #@! TF.SameCoordinates,Original*
G04 #@! TF.FileFunction,Copper,L1,Top*
G04 #@! TF.FilePolarity,Positive*
%FSLAX46Y46*%
G04 Gerber Fmt 4.6, Leading zero omitted, Abs format (unit mm)*
G04 Created by KiCad (PCBNEW (5.99.0-417-g8bd2765f3)) date 2020-07-21 00:36:45*
%MOMM*%
%LPD*%
G04 APERTURE LIST*
%ADD10C,2.240000*%
%ADD11C,2.499995*%
%ADD12C,1.200000*%
%ADD13R,1.700000X1.700000*%
%ADD14O,1.700000X1.700000*%
%ADD15R,0.558800X1.473200*%
%ADD16C,0.600000*%
%ADD17C,0.200000*%
G04 APERTURE END LIST*
G04 #@! TA.AperFunction,SMDPad,CuDef*
G36*
X195324346Y-100072028D02*
G01*
X195372198Y-100104002D01*
X195404172Y-100151854D01*
X195415400Y-100208300D01*
X195415400Y-100553300D01*
X195404172Y-100609746D01*
X195372198Y-100657598D01*
X195324346Y-100689572D01*
X195267900Y-100700800D01*
X194972900Y-100700800D01*
X194916454Y-100689572D01*
X194868602Y-100657598D01*
X194836628Y-100609746D01*
X194825400Y-100553300D01*
X194825400Y-100208300D01*
X194836628Y-100151854D01*
X194868602Y-100104002D01*
X194916454Y-100072028D01*
X194972900Y-100060800D01*
X195267900Y-100060800D01*
X195324346Y-100072028D01*
G37*
G04 #@! TD.AperFunction*
G04 #@! TA.AperFunction,SMDPad,CuDef*
G36*
X196294346Y-100072028D02*
G01*
X196342198Y-100104002D01*
X196374172Y-100151854D01*
X196385400Y-100208300D01*
X196385400Y-100553300D01*
X196374172Y-100609746D01*
X196342198Y-100657598D01*
X196294346Y-100689572D01*
X196237900Y-100700800D01*
X195942900Y-100700800D01*
X195886454Y-100689572D01*
X195838602Y-100657598D01*
X195806628Y-100609746D01*
X195795400Y-100553300D01*
X195795400Y-100208300D01*
X195806628Y-100151854D01*
X195838602Y-100104002D01*
X195886454Y-100072028D01*
X195942900Y-100060800D01*
X196237900Y-100060800D01*
X196294346Y-100072028D01*
G37*
G04 #@! TD.AperFunction*
G04 #@! TA.AperFunction,SMDPad,CuDef*
G36*
X203848546Y-101989628D02*
G01*
X203896398Y-102021602D01*
X203928372Y-102069454D01*
X203939600Y-102125900D01*
X203939600Y-102420900D01*
X203928372Y-102477346D01*
X203896398Y-102525198D01*
X203848546Y-102557172D01*
X203792100Y-102568400D01*
X203447100Y-102568400D01*
X203390654Y-102557172D01*
X203342802Y-102525198D01*
X203310828Y-102477346D01*
X203299600Y-102420900D01*
X203299600Y-102125900D01*
X203310828Y-102069454D01*
X203342802Y-102021602D01*
X203390654Y-101989628D01*
X203447100Y-101978400D01*
X203792100Y-101978400D01*
X203848546Y-101989628D01*
G37*
G04 #@! TD.AperFunction*
G04 #@! TA.AperFunction,SMDPad,CuDef*
G36*
X203848546Y-102959628D02*
G01*
X203896398Y-102991602D01*
X203928372Y-103039454D01*
X203939600Y-103095900D01*
X203939600Y-103390900D01*
X203928372Y-103447346D01*
X203896398Y-103495198D01*
X203848546Y-103527172D01*
X203792100Y-103538400D01*
X203447100Y-103538400D01*
X203390654Y-103527172D01*
X203342802Y-103495198D01*
X203310828Y-103447346D01*
X203299600Y-103390900D01*
X203299600Y-103095900D01*
X203310828Y-103039454D01*
X203342802Y-102991602D01*
X203390654Y-102959628D01*
X203447100Y-102948400D01*
X203792100Y-102948400D01*
X203848546Y-102959628D01*
G37*
G04 #@! TD.AperFunction*
G04 #@! TA.AperFunction,SMDPad,CuDef*
G36*
X192125946Y-96594228D02*
G01*
X192173798Y-96626202D01*
X192205772Y-96674054D01*
X192217000Y-96730500D01*
X192217000Y-97025500D01*
X192205772Y-97081946D01*
X192173798Y-97129798D01*
X192125946Y-97161772D01*
X192069500Y-97173000D01*
X191724500Y-97173000D01*
X191668054Y-97161772D01*
X191620202Y-97129798D01*
X191588228Y-97081946D01*
X191577000Y-97025500D01*
X191577000Y-96730500D01*
X191588228Y-96674054D01*
X191620202Y-96626202D01*
X191668054Y-96594228D01*
X191724500Y-96583000D01*
X192069500Y-96583000D01*
X192125946Y-96594228D01*
G37*
G04 #@! TD.AperFunction*
G04 #@! TA.AperFunction,SMDPad,CuDef*
G36*
X192125946Y-95624228D02*
G01*
X192173798Y-95656202D01*
X192205772Y-95704054D01*
X192217000Y-95760500D01*
X192217000Y-96055500D01*
X192205772Y-96111946D01*
X192173798Y-96159798D01*
X192125946Y-96191772D01*
X192069500Y-96203000D01*
X191724500Y-96203000D01*
X191668054Y-96191772D01*
X191620202Y-96159798D01*
X191588228Y-96111946D01*
X191577000Y-96055500D01*
X191577000Y-95760500D01*
X191588228Y-95704054D01*
X191620202Y-95656202D01*
X191668054Y-95624228D01*
X191724500Y-95613000D01*
X192069500Y-95613000D01*
X192125946Y-95624228D01*
G37*
G04 #@! TD.AperFunction*
G04 #@! TA.AperFunction,SMDPad,CuDef*
G36*
X193266946Y-91766228D02*
G01*
X193314798Y-91798202D01*
X193346772Y-91846054D01*
X193358000Y-91902500D01*
X193358000Y-92247500D01*
X193346772Y-92303946D01*
X193314798Y-92351798D01*
X193266946Y-92383772D01*
X193210500Y-92395000D01*
X192915500Y-92395000D01*
X192859054Y-92383772D01*
X192811202Y-92351798D01*
X192779228Y-92303946D01*
X192768000Y-92247500D01*
X192768000Y-91902500D01*
X192779228Y-91846054D01*
X192811202Y-91798202D01*
X192859054Y-91766228D01*
X192915500Y-91755000D01*
X193210500Y-91755000D01*
X193266946Y-91766228D01*
G37*
G04 #@! TD.AperFunction*
G04 #@! TA.AperFunction,SMDPad,CuDef*
G36*
X194236946Y-91766228D02*
G01*
X194284798Y-91798202D01*
X194316772Y-91846054D01*
X194328000Y-91902500D01*
X194328000Y-92247500D01*
X194316772Y-92303946D01*
X194284798Y-92351798D01*
X194236946Y-92383772D01*
X194180500Y-92395000D01*
X193885500Y-92395000D01*
X193829054Y-92383772D01*
X193781202Y-92351798D01*
X193749228Y-92303946D01*
X193738000Y-92247500D01*
X193738000Y-91902500D01*
X193749228Y-91846054D01*
X193781202Y-91798202D01*
X193829054Y-91766228D01*
X193885500Y-91755000D01*
X194180500Y-91755000D01*
X194236946Y-91766228D01*
G37*
G04 #@! TD.AperFunction*
G04 #@! TA.AperFunction,SMDPad,CuDef*
G36*
X196294346Y-101088028D02*
G01*
X196342198Y-101120002D01*
X196374172Y-101167854D01*
X196385400Y-101224300D01*
X196385400Y-101569300D01*
X196374172Y-101625746D01*
X196342198Y-101673598D01*
X196294346Y-101705572D01*
X196237900Y-101716800D01*
X195942900Y-101716800D01*
X195886454Y-101705572D01*
X195838602Y-101673598D01*
X195806628Y-101625746D01*
X195795400Y-101569300D01*
X195795400Y-101224300D01*
X195806628Y-101167854D01*
X195838602Y-101120002D01*
X195886454Y-101088028D01*
X195942900Y-101076800D01*
X196237900Y-101076800D01*
X196294346Y-101088028D01*
G37*
G04 #@! TD.AperFunction*
G04 #@! TA.AperFunction,SMDPad,CuDef*
G36*
X195324346Y-101088028D02*
G01*
X195372198Y-101120002D01*
X195404172Y-101167854D01*
X195415400Y-101224300D01*
X195415400Y-101569300D01*
X195404172Y-101625746D01*
X195372198Y-101673598D01*
X195324346Y-101705572D01*
X195267900Y-101716800D01*
X194972900Y-101716800D01*
X194916454Y-101705572D01*
X194868602Y-101673598D01*
X194836628Y-101625746D01*
X194825400Y-101569300D01*
X194825400Y-101224300D01*
X194836628Y-101167854D01*
X194868602Y-101120002D01*
X194916454Y-101088028D01*
X194972900Y-101076800D01*
X195267900Y-101076800D01*
X195324346Y-101088028D01*
G37*
G04 #@! TD.AperFunction*
G04 #@! TA.AperFunction,SMDPad,CuDef*
G36*
X206808946Y-105484228D02*
G01*
X206856798Y-105516202D01*
X206888772Y-105564054D01*
X206900000Y-105620500D01*
X206900000Y-105915500D01*
X206888772Y-105971946D01*
X206856798Y-106019798D01*
X206808946Y-106051772D01*
X206752500Y-106063000D01*
X206407500Y-106063000D01*
X206351054Y-106051772D01*
X206303202Y-106019798D01*
X206271228Y-105971946D01*
X206260000Y-105915500D01*
X206260000Y-105620500D01*
X206271228Y-105564054D01*
X206303202Y-105516202D01*
X206351054Y-105484228D01*
X206407500Y-105473000D01*
X206752500Y-105473000D01*
X206808946Y-105484228D01*
G37*
G04 #@! TD.AperFunction*
G04 #@! TA.AperFunction,SMDPad,CuDef*
G36*
X206808946Y-104514228D02*
G01*
X206856798Y-104546202D01*
X206888772Y-104594054D01*
X206900000Y-104650500D01*
X206900000Y-104945500D01*
X206888772Y-105001946D01*
X206856798Y-105049798D01*
X206808946Y-105081772D01*
X206752500Y-105093000D01*
X206407500Y-105093000D01*
X206351054Y-105081772D01*
X206303202Y-105049798D01*
X206271228Y-105001946D01*
X206260000Y-104945500D01*
X206260000Y-104650500D01*
X206271228Y-104594054D01*
X206303202Y-104546202D01*
X206351054Y-104514228D01*
X206407500Y-104503000D01*
X206752500Y-104503000D01*
X206808946Y-104514228D01*
G37*
G04 #@! TD.AperFunction*
G04 #@! TA.AperFunction,SMDPad,CuDef*
G36*
X192177146Y-94339628D02*
G01*
X192224998Y-94371602D01*
X192256972Y-94419454D01*
X192268200Y-94475900D01*
X192268200Y-94770900D01*
X192256972Y-94827346D01*
X192224998Y-94875198D01*
X192177146Y-94907172D01*
X192120700Y-94918400D01*
X191775700Y-94918400D01*
X191719254Y-94907172D01*
X191671402Y-94875198D01*
X191639428Y-94827346D01*
X191628200Y-94770900D01*
X191628200Y-94475900D01*
X191639428Y-94419454D01*
X191671402Y-94371602D01*
X191719254Y-94339628D01*
X191775700Y-94328400D01*
X192120700Y-94328400D01*
X192177146Y-94339628D01*
G37*
G04 #@! TD.AperFunction*
G04 #@! TA.AperFunction,SMDPad,CuDef*
G36*
X192177146Y-93369628D02*
G01*
X192224998Y-93401602D01*
X192256972Y-93449454D01*
X192268200Y-93505900D01*
X192268200Y-93800900D01*
X192256972Y-93857346D01*
X192224998Y-93905198D01*
X192177146Y-93937172D01*
X192120700Y-93948400D01*
X191775700Y-93948400D01*
X191719254Y-93937172D01*
X191671402Y-93905198D01*
X191639428Y-93857346D01*
X191628200Y-93800900D01*
X191628200Y-93505900D01*
X191639428Y-93449454D01*
X191671402Y-93401602D01*
X191719254Y-93369628D01*
X191775700Y-93358400D01*
X192120700Y-93358400D01*
X192177146Y-93369628D01*
G37*
G04 #@! TD.AperFunction*
G04 #@! TA.AperFunction,SMDPad,CuDef*
G36*
X198478746Y-96211228D02*
G01*
X198526598Y-96243202D01*
X198558572Y-96291054D01*
X198569800Y-96347500D01*
X198569800Y-96692500D01*
X198558572Y-96748946D01*
X198526598Y-96796798D01*
X198478746Y-96828772D01*
X198422300Y-96840000D01*
X198127300Y-96840000D01*
X198070854Y-96828772D01*
X198023002Y-96796798D01*
X197991028Y-96748946D01*
X197979800Y-96692500D01*
X197979800Y-96347500D01*
X197991028Y-96291054D01*
X198023002Y-96243202D01*
X198070854Y-96211228D01*
X198127300Y-96200000D01*
X198422300Y-96200000D01*
X198478746Y-96211228D01*
G37*
G04 #@! TD.AperFunction*
G04 #@! TA.AperFunction,SMDPad,CuDef*
G36*
X197508746Y-96211228D02*
G01*
X197556598Y-96243202D01*
X197588572Y-96291054D01*
X197599800Y-96347500D01*
X197599800Y-96692500D01*
X197588572Y-96748946D01*
X197556598Y-96796798D01*
X197508746Y-96828772D01*
X197452300Y-96840000D01*
X197157300Y-96840000D01*
X197100854Y-96828772D01*
X197053002Y-96796798D01*
X197021028Y-96748946D01*
X197009800Y-96692500D01*
X197009800Y-96347500D01*
X197021028Y-96291054D01*
X197053002Y-96243202D01*
X197100854Y-96211228D01*
X197157300Y-96200000D01*
X197452300Y-96200000D01*
X197508746Y-96211228D01*
G37*
G04 #@! TD.AperFunction*
G04 #@! TA.AperFunction,SMDPad,CuDef*
G36*
X208328946Y-93846228D02*
G01*
X208376798Y-93878202D01*
X208408772Y-93926054D01*
X208420000Y-93982500D01*
X208420000Y-94277500D01*
X208408772Y-94333946D01*
X208376798Y-94381798D01*
X208328946Y-94413772D01*
X208272500Y-94425000D01*
X207927500Y-94425000D01*
X207871054Y-94413772D01*
X207823202Y-94381798D01*
X207791228Y-94333946D01*
X207780000Y-94277500D01*
X207780000Y-93982500D01*
X207791228Y-93926054D01*
X207823202Y-93878202D01*
X207871054Y-93846228D01*
X207927500Y-93835000D01*
X208272500Y-93835000D01*
X208328946Y-93846228D01*
G37*
G04 #@! TD.AperFunction*
G04 #@! TA.AperFunction,SMDPad,CuDef*
G36*
X208328946Y-94816228D02*
G01*
X208376798Y-94848202D01*
X208408772Y-94896054D01*
X208420000Y-94952500D01*
X208420000Y-95247500D01*
X208408772Y-95303946D01*
X208376798Y-95351798D01*
X208328946Y-95383772D01*
X208272500Y-95395000D01*
X207927500Y-95395000D01*
X207871054Y-95383772D01*
X207823202Y-95351798D01*
X207791228Y-95303946D01*
X207780000Y-95247500D01*
X207780000Y-94952500D01*
X207791228Y-94896054D01*
X207823202Y-94848202D01*
X207871054Y-94816228D01*
X207927500Y-94805000D01*
X208272500Y-94805000D01*
X208328946Y-94816228D01*
G37*
G04 #@! TD.AperFunction*
G04 #@! TA.AperFunction,SMDPad,CuDef*
G36*
X196288946Y-94791228D02*
G01*
X196336798Y-94823202D01*
X196368772Y-94871054D01*
X196380000Y-94927500D01*
X196380000Y-95272500D01*
X196368772Y-95328946D01*
X196336798Y-95376798D01*
X196288946Y-95408772D01*
X196232500Y-95420000D01*
X195937500Y-95420000D01*
X195881054Y-95408772D01*
X195833202Y-95376798D01*
X195801228Y-95328946D01*
X195790000Y-95272500D01*
X195790000Y-94927500D01*
X195801228Y-94871054D01*
X195833202Y-94823202D01*
X195881054Y-94791228D01*
X195937500Y-94780000D01*
X196232500Y-94780000D01*
X196288946Y-94791228D01*
G37*
G04 #@! TD.AperFunction*
G04 #@! TA.AperFunction,SMDPad,CuDef*
G36*
X195318946Y-94791228D02*
G01*
X195366798Y-94823202D01*
X195398772Y-94871054D01*
X195410000Y-94927500D01*
X195410000Y-95272500D01*
X195398772Y-95328946D01*
X195366798Y-95376798D01*
X195318946Y-95408772D01*
X195262500Y-95420000D01*
X194967500Y-95420000D01*
X194911054Y-95408772D01*
X194863202Y-95376798D01*
X194831228Y-95328946D01*
X194820000Y-95272500D01*
X194820000Y-94927500D01*
X194831228Y-94871054D01*
X194863202Y-94823202D01*
X194911054Y-94791228D01*
X194967500Y-94780000D01*
X195262500Y-94780000D01*
X195318946Y-94791228D01*
G37*
G04 #@! TD.AperFunction*
G04 #@! TA.AperFunction,SMDPad,CuDef*
G36*
X193277146Y-93369628D02*
G01*
X193324998Y-93401602D01*
X193356972Y-93449454D01*
X193368200Y-93505900D01*
X193368200Y-93800900D01*
X193356972Y-93857346D01*
X193324998Y-93905198D01*
X193277146Y-93937172D01*
X193220700Y-93948400D01*
X192875700Y-93948400D01*
X192819254Y-93937172D01*
X192771402Y-93905198D01*
X192739428Y-93857346D01*
X192728200Y-93800900D01*
X192728200Y-93505900D01*
X192739428Y-93449454D01*
X192771402Y-93401602D01*
X192819254Y-93369628D01*
X192875700Y-93358400D01*
X193220700Y-93358400D01*
X193277146Y-93369628D01*
G37*
G04 #@! TD.AperFunction*
G04 #@! TA.AperFunction,SMDPad,CuDef*
G36*
X193277146Y-94339628D02*
G01*
X193324998Y-94371602D01*
X193356972Y-94419454D01*
X193368200Y-94475900D01*
X193368200Y-94770900D01*
X193356972Y-94827346D01*
X193324998Y-94875198D01*
X193277146Y-94907172D01*
X193220700Y-94918400D01*
X192875700Y-94918400D01*
X192819254Y-94907172D01*
X192771402Y-94875198D01*
X192739428Y-94827346D01*
X192728200Y-94770900D01*
X192728200Y-94475900D01*
X192739428Y-94419454D01*
X192771402Y-94371602D01*
X192819254Y-94339628D01*
X192875700Y-94328400D01*
X193220700Y-94328400D01*
X193277146Y-94339628D01*
G37*
G04 #@! TD.AperFunction*
G04 #@! TA.AperFunction,SMDPad,CuDef*
G36*
X194377146Y-93369628D02*
G01*
X194424998Y-93401602D01*
X194456972Y-93449454D01*
X194468200Y-93505900D01*
X194468200Y-93800900D01*
X194456972Y-93857346D01*
X194424998Y-93905198D01*
X194377146Y-93937172D01*
X194320700Y-93948400D01*
X193975700Y-93948400D01*
X193919254Y-93937172D01*
X193871402Y-93905198D01*
X193839428Y-93857346D01*
X193828200Y-93800900D01*
X193828200Y-93505900D01*
X193839428Y-93449454D01*
X193871402Y-93401602D01*
X193919254Y-93369628D01*
X193975700Y-93358400D01*
X194320700Y-93358400D01*
X194377146Y-93369628D01*
G37*
G04 #@! TD.AperFunction*
G04 #@! TA.AperFunction,SMDPad,CuDef*
G36*
X194377146Y-94339628D02*
G01*
X194424998Y-94371602D01*
X194456972Y-94419454D01*
X194468200Y-94475900D01*
X194468200Y-94770900D01*
X194456972Y-94827346D01*
X194424998Y-94875198D01*
X194377146Y-94907172D01*
X194320700Y-94918400D01*
X193975700Y-94918400D01*
X193919254Y-94907172D01*
X193871402Y-94875198D01*
X193839428Y-94827346D01*
X193828200Y-94770900D01*
X193828200Y-94475900D01*
X193839428Y-94419454D01*
X193871402Y-94371602D01*
X193919254Y-94339628D01*
X193975700Y-94328400D01*
X194320700Y-94328400D01*
X194377146Y-94339628D01*
G37*
G04 #@! TD.AperFunction*
G04 #@! TA.AperFunction,SMDPad,CuDef*
G36*
X204648146Y-100701228D02*
G01*
X204695998Y-100733202D01*
X204727972Y-100781054D01*
X204739200Y-100837500D01*
X204739200Y-101132500D01*
X204727972Y-101188946D01*
X204695998Y-101236798D01*
X204648146Y-101268772D01*
X204591700Y-101280000D01*
X204246700Y-101280000D01*
X204190254Y-101268772D01*
X204142402Y-101236798D01*
X204110428Y-101188946D01*
X204099200Y-101132500D01*
X204099200Y-100837500D01*
X204110428Y-100781054D01*
X204142402Y-100733202D01*
X204190254Y-100701228D01*
X204246700Y-100690000D01*
X204591700Y-100690000D01*
X204648146Y-100701228D01*
G37*
G04 #@! TD.AperFunction*
G04 #@! TA.AperFunction,SMDPad,CuDef*
G36*
X204648146Y-99731228D02*
G01*
X204695998Y-99763202D01*
X204727972Y-99811054D01*
X204739200Y-99867500D01*
X204739200Y-100162500D01*
X204727972Y-100218946D01*
X204695998Y-100266798D01*
X204648146Y-100298772D01*
X204591700Y-100310000D01*
X204246700Y-100310000D01*
X204190254Y-100298772D01*
X204142402Y-100266798D01*
X204110428Y-100218946D01*
X204099200Y-100162500D01*
X204099200Y-99867500D01*
X204110428Y-99811054D01*
X204142402Y-99763202D01*
X204190254Y-99731228D01*
X204246700Y-99720000D01*
X204591700Y-99720000D01*
X204648146Y-99731228D01*
G37*
G04 #@! TD.AperFunction*
G04 #@! TA.AperFunction,SMDPad,CuDef*
G36*
X197945346Y-98141628D02*
G01*
X197993198Y-98173602D01*
X198025172Y-98221454D01*
X198036400Y-98277900D01*
X198036400Y-98622900D01*
X198025172Y-98679346D01*
X197993198Y-98727198D01*
X197945346Y-98759172D01*
X197888900Y-98770400D01*
X197593900Y-98770400D01*
X197537454Y-98759172D01*
X197489602Y-98727198D01*
X197457628Y-98679346D01*
X197446400Y-98622900D01*
X197446400Y-98277900D01*
X197457628Y-98221454D01*
X197489602Y-98173602D01*
X197537454Y-98141628D01*
X197593900Y-98130400D01*
X197888900Y-98130400D01*
X197945346Y-98141628D01*
G37*
G04 #@! TD.AperFunction*
G04 #@! TA.AperFunction,SMDPad,CuDef*
G36*
X196975346Y-98141628D02*
G01*
X197023198Y-98173602D01*
X197055172Y-98221454D01*
X197066400Y-98277900D01*
X197066400Y-98622900D01*
X197055172Y-98679346D01*
X197023198Y-98727198D01*
X196975346Y-98759172D01*
X196918900Y-98770400D01*
X196623900Y-98770400D01*
X196567454Y-98759172D01*
X196519602Y-98727198D01*
X196487628Y-98679346D01*
X196476400Y-98622900D01*
X196476400Y-98277900D01*
X196487628Y-98221454D01*
X196519602Y-98173602D01*
X196567454Y-98141628D01*
X196623900Y-98130400D01*
X196918900Y-98130400D01*
X196975346Y-98141628D01*
G37*
G04 #@! TD.AperFunction*
G04 #@! TA.AperFunction,SMDPad,CuDef*
G36*
X202768546Y-102969628D02*
G01*
X202816398Y-103001602D01*
X202848372Y-103049454D01*
X202859600Y-103105900D01*
X202859600Y-103400900D01*
X202848372Y-103457346D01*
X202816398Y-103505198D01*
X202768546Y-103537172D01*
X202712100Y-103548400D01*
X202367100Y-103548400D01*
X202310654Y-103537172D01*
X202262802Y-103505198D01*
X202230828Y-103457346D01*
X202219600Y-103400900D01*
X202219600Y-103105900D01*
X202230828Y-103049454D01*
X202262802Y-103001602D01*
X202310654Y-102969628D01*
X202367100Y-102958400D01*
X202712100Y-102958400D01*
X202768546Y-102969628D01*
G37*
G04 #@! TD.AperFunction*
G04 #@! TA.AperFunction,SMDPad,CuDef*
G36*
X202768546Y-101999628D02*
G01*
X202816398Y-102031602D01*
X202848372Y-102079454D01*
X202859600Y-102135900D01*
X202859600Y-102430900D01*
X202848372Y-102487346D01*
X202816398Y-102535198D01*
X202768546Y-102567172D01*
X202712100Y-102578400D01*
X202367100Y-102578400D01*
X202310654Y-102567172D01*
X202262802Y-102535198D01*
X202230828Y-102487346D01*
X202219600Y-102430900D01*
X202219600Y-102135900D01*
X202230828Y-102079454D01*
X202262802Y-102031602D01*
X202310654Y-101999628D01*
X202367100Y-101988400D01*
X202712100Y-101988400D01*
X202768546Y-101999628D01*
G37*
G04 #@! TD.AperFunction*
D10*
X200025000Y-91694000D03*
D11*
X197485000Y-89154000D03*
X202565000Y-89154000D03*
X202565000Y-94234000D03*
X197485000Y-94234000D03*
D12*
X200000000Y-97460000D03*
X197460000Y-100000000D03*
X202540000Y-100000000D03*
D13*
X207410000Y-97510000D03*
D14*
X209950000Y-97510000D03*
X207410000Y-100050000D03*
X209950000Y-100050000D03*
X207410000Y-102590000D03*
X209950000Y-102590000D03*
D15*
X196098201Y-98806000D03*
X195148200Y-98806000D03*
X194198199Y-98806000D03*
X194198199Y-96570800D03*
X195148200Y-96570800D03*
X196098201Y-96570800D03*
G04 #@! TA.AperFunction,SMDPad,CuDef*
G36*
X195411962Y-104760651D02*
G01*
X195482930Y-104808070D01*
X195530349Y-104879038D01*
X195547000Y-104962750D01*
X195547000Y-105400250D01*
X195530349Y-105483962D01*
X195482930Y-105554930D01*
X195411962Y-105602349D01*
X195328250Y-105619000D01*
X194815750Y-105619000D01*
X194732038Y-105602349D01*
X194661070Y-105554930D01*
X194613651Y-105483962D01*
X194597000Y-105400250D01*
X194597000Y-104962750D01*
X194613651Y-104879038D01*
X194661070Y-104808070D01*
X194732038Y-104760651D01*
X194815750Y-104744000D01*
X195328250Y-104744000D01*
X195411962Y-104760651D01*
G37*
G04 #@! TD.AperFunction*
G04 #@! TA.AperFunction,SMDPad,CuDef*
G36*
X195411962Y-103185651D02*
G01*
X195482930Y-103233070D01*
X195530349Y-103304038D01*
X195547000Y-103387750D01*
X195547000Y-103825250D01*
X195530349Y-103908962D01*
X195482930Y-103979930D01*
X195411962Y-104027349D01*
X195328250Y-104044000D01*
X194815750Y-104044000D01*
X194732038Y-104027349D01*
X194661070Y-103979930D01*
X194613651Y-103908962D01*
X194597000Y-103825250D01*
X194597000Y-103387750D01*
X194613651Y-103304038D01*
X194661070Y-103233070D01*
X194732038Y-103185651D01*
X194815750Y-103169000D01*
X195328250Y-103169000D01*
X195411962Y-103185651D01*
G37*
G04 #@! TD.AperFunction*
G04 #@! TA.AperFunction,SMDPad,CuDef*
G36*
X205489529Y-106386554D02*
G01*
X205568607Y-106439393D01*
X205621446Y-106518471D01*
X205640000Y-106611750D01*
X205640000Y-107099250D01*
X205621446Y-107192529D01*
X205568607Y-107271607D01*
X205489529Y-107324446D01*
X205396250Y-107343000D01*
X204483750Y-107343000D01*
X204390471Y-107324446D01*
X204311393Y-107271607D01*
X204258554Y-107192529D01*
X204240000Y-107099250D01*
X204240000Y-106611750D01*
X204258554Y-106518471D01*
X204311393Y-106439393D01*
X204390471Y-106386554D01*
X204483750Y-106368000D01*
X205396250Y-106368000D01*
X205489529Y-106386554D01*
G37*
G04 #@! TD.AperFunction*
G04 #@! TA.AperFunction,SMDPad,CuDef*
G36*
X205489529Y-104511554D02*
G01*
X205568607Y-104564393D01*
X205621446Y-104643471D01*
X205640000Y-104736750D01*
X205640000Y-105224250D01*
X205621446Y-105317529D01*
X205568607Y-105396607D01*
X205489529Y-105449446D01*
X205396250Y-105468000D01*
X204483750Y-105468000D01*
X204390471Y-105449446D01*
X204311393Y-105396607D01*
X204258554Y-105317529D01*
X204240000Y-105224250D01*
X204240000Y-104736750D01*
X204258554Y-104643471D01*
X204311393Y-104564393D01*
X204390471Y-104511554D01*
X204483750Y-104493000D01*
X205396250Y-104493000D01*
X205489529Y-104511554D01*
G37*
G04 #@! TD.AperFunction*
D16*
X211900000Y-100250000D03*
X209350000Y-106800000D03*
X193040000Y-96139000D03*
X191109600Y-100787200D03*
X195072000Y-106832400D03*
X190296800Y-104190800D03*
X190855600Y-95656400D03*
X191389000Y-107696000D03*
X196469000Y-110845600D03*
X199644000Y-109474000D03*
X203708000Y-110845600D03*
X206650000Y-106850000D03*
X192887600Y-100888800D03*
X198424800Y-101803200D03*
X198550000Y-98400000D03*
X200400000Y-99950000D03*
X203400000Y-97150000D03*
X206197200Y-92100400D03*
X194945000Y-93638400D03*
X201669600Y-103218400D03*
X203480000Y-106700000D03*
X209050000Y-94200000D03*
X203610000Y-101000000D03*
X195630800Y-91897200D03*
X194248999Y-98348800D03*
X196077799Y-96926400D03*
D17*
X211250000Y-103350000D02*
X211250000Y-101350000D01*
X211250000Y-101350000D02*
X209950000Y-100050000D01*
X204525999Y-110074001D02*
X211250000Y-103350000D01*
X194656001Y-110074001D02*
X204525999Y-110074001D01*
X191058800Y-101955600D02*
X191897000Y-101117400D01*
X191897000Y-101117400D02*
X191897000Y-96878000D01*
X191058800Y-106476800D02*
X191058800Y-101955600D01*
X194656001Y-110074001D02*
X191058800Y-106476800D01*
X208100000Y-94130000D02*
X208980000Y-94130000D01*
X208980000Y-94130000D02*
X209050000Y-94200000D01*
X208100000Y-95100000D02*
X208100000Y-95710000D01*
X208100000Y-95710000D02*
X209950000Y-97560000D01*
X204419200Y-100015000D02*
X207325000Y-100015000D01*
X207325000Y-100015000D02*
X207410000Y-100100000D01*
X206580000Y-104798000D02*
X206580000Y-103470000D01*
X206580000Y-103470000D02*
X207410000Y-102640000D01*
X200787000Y-89916000D02*
X199016998Y-89916000D01*
X199016998Y-89916000D02*
X195580000Y-93352998D01*
X195580000Y-93352998D02*
X195580000Y-93385398D01*
X202057000Y-91186000D02*
X200787000Y-89916000D01*
X203397998Y-91186000D02*
X202057000Y-91186000D01*
X208100000Y-95100000D02*
X207311998Y-95100000D01*
X207311998Y-95100000D02*
X203397998Y-91186000D01*
X191770000Y-92075000D02*
X191135000Y-92710000D01*
X193063000Y-92075000D02*
X191770000Y-92075000D01*
X191135000Y-92710000D02*
X191135000Y-94130200D01*
X191135000Y-94130200D02*
X191628200Y-94623400D01*
X191628200Y-94623400D02*
X191948200Y-94623400D01*
X196098201Y-98806000D02*
X196415800Y-98806000D01*
X196415800Y-98806000D02*
X196771400Y-98450400D01*
X195095000Y-94559002D02*
X195690501Y-93963501D01*
X194033000Y-92075000D02*
X194269602Y-92075000D01*
X194269602Y-92075000D02*
X195580000Y-93385398D01*
X195580000Y-93385398D02*
X195580000Y-93853000D01*
X195580000Y-93853000D02*
X195690501Y-93963501D01*
X191897000Y-95908000D02*
X191897000Y-94674600D01*
X191897000Y-94674600D02*
X191948200Y-94623400D01*
X195056850Y-101460350D02*
X195120400Y-101396800D01*
X196183200Y-94988400D02*
X197098200Y-94988400D01*
X195148200Y-96570800D02*
X195148200Y-95053400D01*
X195133200Y-93653400D02*
X195148200Y-93638400D01*
X194148200Y-93653400D02*
X195133200Y-93653400D01*
X193048200Y-93653400D02*
X191948200Y-93653400D01*
X194148200Y-93653400D02*
X193048200Y-93653400D01*
X193048200Y-94623400D02*
X191948200Y-94623400D01*
X194148200Y-94623400D02*
X193048200Y-94623400D01*
X194198199Y-96570800D02*
X194198199Y-94673399D01*
X202539600Y-102283400D02*
X203729600Y-102283400D01*
X202540000Y-101985000D02*
X202540000Y-100000000D01*
X202539600Y-103253400D02*
X201704600Y-103253400D01*
X201704600Y-103253400D02*
X201669600Y-103218400D01*
X204950000Y-106690000D02*
X203490000Y-106690000D01*
X203490000Y-106690000D02*
X203480000Y-106700000D01*
X204630000Y-101005000D02*
X203615000Y-101005000D01*
X203615000Y-101005000D02*
X203610000Y-101000000D01*
X196555401Y-96393000D02*
X196098201Y-96850200D01*
X197131998Y-96393000D02*
X196596000Y-96393000D01*
X196113400Y-98821199D02*
X196098201Y-98806000D01*
X200000000Y-94513400D02*
X200000000Y-92407680D01*
X200000000Y-92704680D02*
X200000000Y-92040000D01*
X197791800Y-98400000D02*
X197741400Y-98450400D01*
X198577200Y-98400000D02*
X197791800Y-98400000D01*
X197079200Y-100380800D02*
X197460000Y-100000000D01*
X196090400Y-100380800D02*
X197079200Y-100380800D01*
X196090400Y-100380800D02*
X196090400Y-101396800D01*
X194198199Y-99753599D02*
X194198199Y-99742600D01*
X194825400Y-100380800D02*
X194198199Y-99753599D01*
X194198199Y-99742600D02*
X194198199Y-98806000D01*
X195120400Y-100380800D02*
X194825400Y-100380800D01*
X195095000Y-94996000D02*
X195095000Y-94559002D01*
X198274800Y-96200000D02*
X198462800Y-96012000D01*
X198274800Y-96520000D02*
X198274800Y-96200000D01*
X198462800Y-96012000D02*
X198501000Y-96012000D01*
X198526400Y-95961200D02*
X198501000Y-96012000D01*
X198501000Y-96012000D02*
X199956600Y-94531000D01*
X196771400Y-98130400D02*
X197101801Y-97799999D01*
X196771400Y-98450400D02*
X196771400Y-98130400D01*
X204277000Y-100015000D02*
X204597000Y-100015000D01*
X200307997Y-99099999D02*
X203361999Y-99099999D01*
X203361999Y-99099999D02*
X204277000Y-100015000D01*
X199007997Y-97799999D02*
X200307997Y-99099999D01*
X197101801Y-97799999D02*
X199007997Y-97799999D01*
X195120400Y-103558100D02*
X195072000Y-103606500D01*
X195120400Y-101396800D02*
X195120400Y-103558100D01*
X195072000Y-105181500D02*
X195072000Y-106832400D01*
X205727500Y-105768000D02*
X204940000Y-104980500D01*
X206580000Y-105768000D02*
X205727500Y-105768000D01*
X203619600Y-103660100D02*
X203619600Y-103243400D01*
X204940000Y-104980500D02*
X203619600Y-103660100D01*
G36*
X200432077Y-87626984D02*
G01*
X201122080Y-87670395D01*
X201793037Y-87750402D01*
X201601643Y-87870929D01*
X201451765Y-88003995D01*
X203716276Y-90268506D01*
X203867964Y-90090275D01*
X204003387Y-89864895D01*
X204100180Y-89620424D01*
X204156002Y-89362234D01*
X204164275Y-89023734D01*
X204121131Y-88763127D01*
X204036396Y-88514219D01*
X203912146Y-88282492D01*
X203884179Y-88246176D01*
X204477128Y-88457316D01*
X205114449Y-88725221D01*
X205735876Y-89028311D01*
X206339377Y-89365597D01*
X206923117Y-89736049D01*
X207485276Y-90138517D01*
X208024086Y-90571730D01*
X208537875Y-91034348D01*
X209025034Y-91524919D01*
X209484054Y-92041927D01*
X209913509Y-92583763D01*
X210312026Y-93148698D01*
X210678404Y-93735025D01*
X211011476Y-94340879D01*
X211310199Y-94964365D01*
X211573665Y-95603580D01*
X211801031Y-96256488D01*
X211991600Y-96921079D01*
X212144772Y-97595267D01*
X212260072Y-98276967D01*
X212337137Y-98964014D01*
X212375615Y-99652246D01*
X212303113Y-101382098D01*
X212207181Y-102064691D01*
X212072892Y-102742898D01*
X211900957Y-103412543D01*
X211691908Y-104071550D01*
X211446394Y-104717870D01*
X211165189Y-105349464D01*
X210849166Y-105964380D01*
X210499309Y-106560696D01*
X210116705Y-107136561D01*
X209702566Y-107690153D01*
X209258161Y-108219774D01*
X208784880Y-108723768D01*
X208284212Y-109200547D01*
X207757699Y-109648644D01*
X207207018Y-110066634D01*
X206633829Y-110453254D01*
X206039973Y-110807264D01*
X205427286Y-111127568D01*
X204797657Y-111413182D01*
X204153085Y-111663194D01*
X203495544Y-111876843D01*
X202827106Y-112053451D01*
X202149859Y-112192470D01*
X201465916Y-112293466D01*
X200777378Y-112356128D01*
X200086421Y-112380257D01*
X199395214Y-112365778D01*
X198705877Y-112312736D01*
X198020581Y-112221299D01*
X197341458Y-112091748D01*
X196670635Y-111924494D01*
X196010168Y-111720045D01*
X195362162Y-111479054D01*
X194728611Y-111202263D01*
X194111513Y-110890544D01*
X193512762Y-110544855D01*
X192934244Y-110166282D01*
X192377768Y-109756014D01*
X191845055Y-109315315D01*
X191337778Y-108845572D01*
X190857507Y-108348236D01*
X190405756Y-107824878D01*
X189983917Y-107277109D01*
X189593318Y-106706652D01*
X189235169Y-106115279D01*
X188910587Y-105504829D01*
X188620590Y-104877218D01*
X188366082Y-104234404D01*
X188147851Y-103578379D01*
X187966580Y-102911189D01*
X187822836Y-102234930D01*
X187786656Y-102001220D01*
X190652093Y-102001220D01*
X190659801Y-102023293D01*
X190659800Y-106408754D01*
X190652174Y-106430471D01*
X190659800Y-106499004D01*
X190659800Y-106521769D01*
X190664746Y-106543451D01*
X190672312Y-106611437D01*
X190684793Y-106631333D01*
X190690026Y-106654276D01*
X190733072Y-106708296D01*
X190744931Y-106727201D01*
X190760713Y-106742984D01*
X190803472Y-106796643D01*
X190824530Y-106806801D01*
X194325749Y-110308021D01*
X194335713Y-110328770D01*
X194389564Y-110371836D01*
X194405662Y-110387934D01*
X194424491Y-110399768D01*
X194477916Y-110442493D01*
X194500811Y-110447736D01*
X194520733Y-110460258D01*
X194589357Y-110468016D01*
X194611122Y-110473001D01*
X194633449Y-110473001D01*
X194701620Y-110480708D01*
X194723690Y-110473001D01*
X204457953Y-110473001D01*
X204479670Y-110480627D01*
X204548203Y-110473001D01*
X204570968Y-110473001D01*
X204592656Y-110468054D01*
X204660634Y-110460489D01*
X204680531Y-110448008D01*
X204703478Y-110442773D01*
X204757497Y-110399727D01*
X204776400Y-110387870D01*
X204792180Y-110372090D01*
X204845843Y-110329329D01*
X204856001Y-110308270D01*
X211484021Y-103680251D01*
X211504768Y-103670288D01*
X211547833Y-103616439D01*
X211563933Y-103600338D01*
X211575766Y-103581512D01*
X211618492Y-103528086D01*
X211623735Y-103505190D01*
X211636257Y-103485268D01*
X211644015Y-103416644D01*
X211649000Y-103394879D01*
X211649000Y-103372552D01*
X211656707Y-103304381D01*
X211649000Y-103282311D01*
X211649000Y-101418046D01*
X211656626Y-101396329D01*
X211649000Y-101327792D01*
X211649000Y-101305030D01*
X211644054Y-101283351D01*
X211636489Y-101215363D01*
X211624007Y-101195466D01*
X211618773Y-101172522D01*
X211575729Y-101118505D01*
X211563869Y-101099598D01*
X211548085Y-101083814D01*
X211505328Y-101030156D01*
X211484271Y-101019999D01*
X210994136Y-100529865D01*
X211045529Y-100414434D01*
X211095605Y-100194024D01*
X211099181Y-99938020D01*
X211055278Y-99716296D01*
X210969411Y-99507969D01*
X210844715Y-99320288D01*
X210685941Y-99160401D01*
X210499135Y-99034397D01*
X210291411Y-98947079D01*
X210070684Y-98901770D01*
X209845359Y-98900197D01*
X209624021Y-98942420D01*
X209415100Y-99026829D01*
X209226552Y-99150212D01*
X209065560Y-99307867D01*
X208938256Y-99493789D01*
X208849490Y-99700898D01*
X208802640Y-99921302D01*
X208799494Y-100146611D01*
X208840171Y-100368238D01*
X208923121Y-100577745D01*
X209045183Y-100767150D01*
X209201710Y-100929238D01*
X209386739Y-101057837D01*
X209593223Y-101148047D01*
X209813296Y-101196433D01*
X210038577Y-101201152D01*
X210260483Y-101162024D01*
X210431441Y-101095713D01*
X210851001Y-101515273D01*
X210851001Y-101797553D01*
X210740192Y-101680989D01*
X210554046Y-101547966D01*
X210346105Y-101452543D01*
X210123870Y-101398163D01*
X209976000Y-101390803D01*
X209976000Y-103788993D01*
X210115546Y-103783022D01*
X210295384Y-103740344D01*
X204360728Y-109675001D01*
X194821273Y-109675001D01*
X192027772Y-106881500D01*
X203887143Y-106881500D01*
X203887143Y-107108523D01*
X203963367Y-107392997D01*
X204100620Y-107556567D01*
X204281649Y-107661086D01*
X204478849Y-107695857D01*
X204914000Y-107695857D01*
X204914000Y-106881500D01*
X204966000Y-106881500D01*
X204966000Y-107695857D01*
X205405523Y-107695857D01*
X205689997Y-107619633D01*
X205853567Y-107482380D01*
X205958086Y-107301351D01*
X205992857Y-107104151D01*
X205992857Y-106881500D01*
X204966000Y-106881500D01*
X204914000Y-106881500D01*
X203887143Y-106881500D01*
X192027772Y-106881500D01*
X191753121Y-106606849D01*
X203887143Y-106606849D01*
X203887143Y-106829500D01*
X204914000Y-106829500D01*
X204914000Y-106015143D01*
X204474476Y-106015143D01*
X204190004Y-106091367D01*
X204026433Y-106228620D01*
X203921914Y-106409649D01*
X203887143Y-106606849D01*
X191753121Y-106606849D01*
X191457800Y-106311529D01*
X191457800Y-102120871D01*
X192131021Y-101447651D01*
X192151768Y-101437688D01*
X192194833Y-101383839D01*
X192210933Y-101367738D01*
X192222768Y-101348908D01*
X192265492Y-101295486D01*
X192270735Y-101272590D01*
X192283257Y-101252668D01*
X192291015Y-101184042D01*
X192296000Y-101162278D01*
X192296000Y-101139951D01*
X192303707Y-101071780D01*
X192296000Y-101049710D01*
X192296000Y-97406338D01*
X192388519Y-97344519D01*
X192487204Y-97196826D01*
X192519918Y-97032361D01*
X192519918Y-96723639D01*
X192487204Y-96559174D01*
X192388519Y-96411481D01*
X192360860Y-96393000D01*
X192388519Y-96374519D01*
X192487204Y-96226826D01*
X192519918Y-96062361D01*
X192519918Y-95753639D01*
X192487204Y-95589174D01*
X192388519Y-95441481D01*
X192296000Y-95379662D01*
X192296000Y-95185949D01*
X192439719Y-95089919D01*
X192484834Y-95022400D01*
X192511566Y-95022400D01*
X192556681Y-95089919D01*
X192704374Y-95188604D01*
X192868839Y-95221318D01*
X193227561Y-95221318D01*
X193392026Y-95188604D01*
X193539719Y-95089919D01*
X193584834Y-95022400D01*
X193611566Y-95022400D01*
X193656681Y-95089919D01*
X193799200Y-95185146D01*
X193799199Y-95554510D01*
X193703232Y-95618633D01*
X193637147Y-95717536D01*
X193615881Y-95824450D01*
X193615881Y-97317150D01*
X193637147Y-97424064D01*
X193703232Y-97522967D01*
X193753800Y-97556756D01*
X193753800Y-97820044D01*
X193703232Y-97853833D01*
X193637147Y-97952736D01*
X193615881Y-98059650D01*
X193615881Y-99552350D01*
X193637147Y-99659264D01*
X193703232Y-99758167D01*
X193802135Y-99824252D01*
X193804646Y-99824752D01*
X193811711Y-99888236D01*
X193824192Y-99908132D01*
X193829425Y-99931075D01*
X193872471Y-99985095D01*
X193884330Y-100004000D01*
X193900111Y-100019782D01*
X193942871Y-100073443D01*
X193963929Y-100083600D01*
X194495148Y-100614820D01*
X194505112Y-100635569D01*
X194543605Y-100666353D01*
X194555196Y-100724626D01*
X194653881Y-100872319D01*
X194678547Y-100888800D01*
X194653881Y-100905281D01*
X194555196Y-101052974D01*
X194522482Y-101217439D01*
X194522482Y-101576161D01*
X194555196Y-101740626D01*
X194653881Y-101888319D01*
X194721400Y-101933434D01*
X194721401Y-102669400D01*
X193753800Y-102669400D01*
X193753800Y-106118600D01*
X196249000Y-106118600D01*
X196249000Y-103279400D01*
X201865702Y-103279400D01*
X201865702Y-103407762D01*
X201902297Y-103591736D01*
X202012033Y-103755967D01*
X202176264Y-103865703D01*
X202360238Y-103902298D01*
X202513600Y-103902298D01*
X202513600Y-103279400D01*
X201865702Y-103279400D01*
X196249000Y-103279400D01*
X196249000Y-102669400D01*
X195519400Y-102669400D01*
X195519400Y-101933434D01*
X195586919Y-101888319D01*
X195605400Y-101860660D01*
X195623881Y-101888319D01*
X195771574Y-101987004D01*
X195936039Y-102019718D01*
X196244761Y-102019718D01*
X196409226Y-101987004D01*
X196556919Y-101888319D01*
X196655604Y-101740626D01*
X196688318Y-101576161D01*
X196688318Y-101217439D01*
X196655604Y-101052974D01*
X196556919Y-100905281D01*
X196532253Y-100888800D01*
X196556919Y-100872319D01*
X196618738Y-100779800D01*
X197009754Y-100779800D01*
X197144653Y-100847943D01*
X197340349Y-100896736D01*
X197541994Y-100900960D01*
X197739563Y-100860404D01*
X197923236Y-100777086D01*
X198083886Y-100655146D01*
X198213529Y-100500645D01*
X198305721Y-100321259D01*
X198356053Y-100125229D01*
X198359200Y-99899840D01*
X198314362Y-99702480D01*
X198227214Y-99520591D01*
X198101936Y-99362530D01*
X197944754Y-99236151D01*
X197763477Y-99147736D01*
X197663548Y-99124298D01*
X197715400Y-99124298D01*
X197715400Y-98476400D01*
X197767400Y-98476400D01*
X197767400Y-99124298D01*
X197895762Y-99124298D01*
X198079736Y-99087703D01*
X198243967Y-98977967D01*
X198353703Y-98813736D01*
X198390298Y-98629762D01*
X198390298Y-98476400D01*
X197767400Y-98476400D01*
X197715400Y-98476400D01*
X197715400Y-98424400D01*
X198390298Y-98424400D01*
X198390298Y-98271038D01*
X198375969Y-98198999D01*
X198842726Y-98198999D01*
X199977745Y-99334019D01*
X199987709Y-99354768D01*
X200041561Y-99397835D01*
X200057661Y-99413934D01*
X200076485Y-99425764D01*
X200129911Y-99468491D01*
X200152807Y-99473734D01*
X200172729Y-99486256D01*
X200241355Y-99494014D01*
X200263119Y-99498999D01*
X200285446Y-99498999D01*
X200353617Y-99506706D01*
X200375687Y-99498999D01*
X201788466Y-99498999D01*
X201779554Y-99509926D01*
X201689876Y-99690581D01*
X201642451Y-99886613D01*
X201639635Y-100088281D01*
X201681568Y-100285562D01*
X201766167Y-100468650D01*
X201889226Y-100628446D01*
X202044629Y-100757006D01*
X202141001Y-100805687D01*
X202141000Y-101754795D01*
X202048081Y-101816881D01*
X201949396Y-101964574D01*
X201916682Y-102129039D01*
X201916682Y-102437761D01*
X201949396Y-102602226D01*
X202037377Y-102733899D01*
X202012033Y-102750833D01*
X201902297Y-102915064D01*
X201865702Y-103099038D01*
X201865702Y-103227400D01*
X202565600Y-103227400D01*
X202565600Y-103902298D01*
X202718962Y-103902298D01*
X202902936Y-103865703D01*
X203067167Y-103755967D01*
X203113008Y-103687361D01*
X203128081Y-103709919D01*
X203231353Y-103778922D01*
X203233113Y-103794738D01*
X203245593Y-103814633D01*
X203250826Y-103837576D01*
X203293872Y-103891596D01*
X203305731Y-103910501D01*
X203321513Y-103926283D01*
X203364271Y-103979942D01*
X203385328Y-103990100D01*
X203967380Y-104572151D01*
X203937536Y-104731799D01*
X203937536Y-105231513D01*
X203992274Y-105464245D01*
X204115991Y-105628072D01*
X204288513Y-105734893D01*
X204478799Y-105770464D01*
X205165692Y-105770464D01*
X205397248Y-106002020D01*
X205403772Y-106015605D01*
X205401151Y-106015143D01*
X204966000Y-106015143D01*
X204966000Y-106829500D01*
X205992857Y-106829500D01*
X205992857Y-106602476D01*
X205916633Y-106318004D01*
X205791118Y-106168422D01*
X205795189Y-106167000D01*
X206043366Y-106167000D01*
X206088481Y-106234519D01*
X206236174Y-106333204D01*
X206400639Y-106365918D01*
X206759361Y-106365918D01*
X206923826Y-106333204D01*
X207071519Y-106234519D01*
X207170204Y-106086826D01*
X207202918Y-105922361D01*
X207202918Y-105613639D01*
X207170204Y-105449174D01*
X207071519Y-105301481D01*
X207043860Y-105283000D01*
X207071519Y-105264519D01*
X207170204Y-105116826D01*
X207202918Y-104952361D01*
X207202918Y-104643639D01*
X207170204Y-104479174D01*
X207071519Y-104331481D01*
X206979000Y-104269662D01*
X206979000Y-103655620D01*
X207053223Y-103688047D01*
X207273296Y-103736433D01*
X207498577Y-103741152D01*
X207720483Y-103702024D01*
X207930563Y-103620539D01*
X208120815Y-103499801D01*
X208283992Y-103344410D01*
X208413880Y-103160283D01*
X208505529Y-102954434D01*
X208555605Y-102734024D01*
X208557252Y-102616000D01*
X208748330Y-102616000D01*
X208766490Y-102813626D01*
X208830128Y-103033389D01*
X208934175Y-103237152D01*
X209074875Y-103417565D01*
X209247152Y-103568116D01*
X209444790Y-103683375D01*
X209660657Y-103759182D01*
X209924000Y-103798303D01*
X209924000Y-102616000D01*
X208748330Y-102616000D01*
X208557252Y-102616000D01*
X208557979Y-102564000D01*
X208747711Y-102564000D01*
X209924000Y-102564000D01*
X209924000Y-101382737D01*
X209668826Y-101418826D01*
X209452435Y-101493125D01*
X209253998Y-101607002D01*
X209080674Y-101756347D01*
X208938718Y-101935773D01*
X208833251Y-102138805D01*
X208768080Y-102358117D01*
X208747711Y-102564000D01*
X208557979Y-102564000D01*
X208559181Y-102478020D01*
X208515278Y-102256296D01*
X208429411Y-102047969D01*
X208304715Y-101860288D01*
X208145941Y-101700401D01*
X207959135Y-101574397D01*
X207751411Y-101487079D01*
X207530684Y-101441770D01*
X207305359Y-101440197D01*
X207084021Y-101482420D01*
X206875100Y-101566829D01*
X206686552Y-101690212D01*
X206525560Y-101847867D01*
X206398256Y-102033789D01*
X206309490Y-102240898D01*
X206262640Y-102461302D01*
X206259494Y-102686611D01*
X206300171Y-102908238D01*
X206378827Y-103106902D01*
X206345981Y-103139748D01*
X206325232Y-103149712D01*
X206282165Y-103203564D01*
X206266066Y-103219664D01*
X206254231Y-103238494D01*
X206211509Y-103291914D01*
X206206265Y-103314811D01*
X206193743Y-103334734D01*
X206185983Y-103403369D01*
X206181001Y-103425122D01*
X206181001Y-103447440D01*
X206173293Y-103515620D01*
X206181001Y-103537693D01*
X206181000Y-104269662D01*
X206088481Y-104331481D01*
X205989796Y-104479174D01*
X205957082Y-104643639D01*
X205957082Y-104952361D01*
X205989796Y-105116826D01*
X206088481Y-105264519D01*
X206116140Y-105283000D01*
X206088481Y-105301481D01*
X206043366Y-105369000D01*
X205916331Y-105369000D01*
X205942464Y-105229201D01*
X205942464Y-104729487D01*
X205887726Y-104496755D01*
X205764009Y-104332928D01*
X205591487Y-104226107D01*
X205401201Y-104190536D01*
X204714308Y-104190536D01*
X204160214Y-103636443D01*
X204209804Y-103562226D01*
X204242518Y-103397761D01*
X204242518Y-103089039D01*
X204209804Y-102924574D01*
X204111119Y-102776881D01*
X204083460Y-102758400D01*
X204111119Y-102739919D01*
X204209804Y-102592226D01*
X204242518Y-102427761D01*
X204242518Y-102119039D01*
X204209804Y-101954574D01*
X204111119Y-101806881D01*
X203963426Y-101708196D01*
X203798961Y-101675482D01*
X203440239Y-101675482D01*
X203275774Y-101708196D01*
X203128081Y-101806881D01*
X203076285Y-101884400D01*
X203076234Y-101884400D01*
X203031119Y-101816881D01*
X202939000Y-101755330D01*
X202939000Y-101011000D01*
X203745302Y-101011000D01*
X203745302Y-101139362D01*
X203781897Y-101323336D01*
X203891633Y-101487567D01*
X204055864Y-101597303D01*
X204239838Y-101633898D01*
X204393200Y-101633898D01*
X204393200Y-101011000D01*
X204445200Y-101011000D01*
X204445200Y-101633898D01*
X204598562Y-101633898D01*
X204782536Y-101597303D01*
X204946767Y-101487567D01*
X205056503Y-101323336D01*
X205093098Y-101139362D01*
X205093098Y-101011000D01*
X204445200Y-101011000D01*
X204393200Y-101011000D01*
X203745302Y-101011000D01*
X202939000Y-101011000D01*
X202939000Y-100806225D01*
X203003236Y-100777086D01*
X203163886Y-100655146D01*
X203293529Y-100500645D01*
X203385721Y-100321259D01*
X203436053Y-100125229D01*
X203439200Y-99899840D01*
X203394362Y-99702480D01*
X203388984Y-99691255D01*
X203796282Y-100098554D01*
X203796282Y-100169361D01*
X203828996Y-100333826D01*
X203916977Y-100465499D01*
X203891633Y-100482433D01*
X203781897Y-100646664D01*
X203745302Y-100830638D01*
X203745302Y-100959000D01*
X205093098Y-100959000D01*
X205093098Y-100830638D01*
X205056503Y-100646664D01*
X204946767Y-100482433D01*
X204921423Y-100465499D01*
X204955834Y-100414000D01*
X206318289Y-100414000D01*
X206383121Y-100577745D01*
X206505183Y-100767150D01*
X206661710Y-100929238D01*
X206846739Y-101057837D01*
X207053223Y-101148047D01*
X207273296Y-101196433D01*
X207498577Y-101201152D01*
X207720483Y-101162024D01*
X207930563Y-101080539D01*
X208120815Y-100959801D01*
X208283992Y-100804410D01*
X208413880Y-100620283D01*
X208505529Y-100414434D01*
X208555605Y-100194024D01*
X208559181Y-99938020D01*
X208515278Y-99716296D01*
X208429411Y-99507969D01*
X208304715Y-99320288D01*
X208145941Y-99160401D01*
X207959135Y-99034397D01*
X207751411Y-98947079D01*
X207530684Y-98901770D01*
X207305359Y-98900197D01*
X207084021Y-98942420D01*
X206875100Y-99026829D01*
X206686552Y-99150212D01*
X206525560Y-99307867D01*
X206398256Y-99493789D01*
X206345876Y-99616000D01*
X204955834Y-99616000D01*
X204910719Y-99548481D01*
X204763026Y-99449796D01*
X204598561Y-99417082D01*
X204243354Y-99417082D01*
X203692252Y-98865981D01*
X203682287Y-98845230D01*
X203628430Y-98802159D01*
X203612335Y-98786065D01*
X203593513Y-98774236D01*
X203540086Y-98731508D01*
X203517187Y-98726263D01*
X203497263Y-98713741D01*
X203428640Y-98705984D01*
X203406877Y-98700999D01*
X203384550Y-98700999D01*
X203316379Y-98693292D01*
X203294309Y-98700999D01*
X200473268Y-98700999D01*
X200169602Y-98397334D01*
X200348309Y-98348781D01*
X200531035Y-98253254D01*
X200653624Y-98150393D01*
X199963231Y-97460000D01*
X200036770Y-97460000D01*
X200692685Y-98115916D01*
X200814795Y-97957352D01*
X200902587Y-97770786D01*
X200948307Y-97569548D01*
X200949049Y-97357075D01*
X200904734Y-97155523D01*
X200818247Y-96968347D01*
X200693185Y-96803583D01*
X200036770Y-97460000D01*
X199963231Y-97460000D01*
X199295133Y-96791902D01*
X199134844Y-97056571D01*
X199068395Y-97251762D01*
X199051655Y-97400999D01*
X199030548Y-97400999D01*
X198962377Y-97393292D01*
X198940307Y-97400999D01*
X197169848Y-97400999D01*
X197148131Y-97393372D01*
X197079588Y-97400999D01*
X197056831Y-97400999D01*
X197035152Y-97405944D01*
X196967163Y-97413510D01*
X196947267Y-97425992D01*
X196924323Y-97431226D01*
X196870306Y-97474270D01*
X196851399Y-97486130D01*
X196835615Y-97501914D01*
X196781957Y-97544671D01*
X196771800Y-97565728D01*
X196618800Y-97718728D01*
X196618800Y-97484606D01*
X196659253Y-97424064D01*
X196680519Y-97317150D01*
X196680519Y-96832154D01*
X196720673Y-96792000D01*
X196725309Y-96792000D01*
X196739596Y-96863826D01*
X196838281Y-97011519D01*
X196985974Y-97110204D01*
X197150439Y-97142918D01*
X197459161Y-97142918D01*
X197623626Y-97110204D01*
X197771319Y-97011519D01*
X197789800Y-96983860D01*
X197808281Y-97011519D01*
X197955974Y-97110204D01*
X198120439Y-97142918D01*
X198429161Y-97142918D01*
X198593626Y-97110204D01*
X198741319Y-97011519D01*
X198840004Y-96863826D01*
X198860342Y-96761578D01*
X199338346Y-96761578D01*
X200000000Y-97423230D01*
X200653356Y-96769876D01*
X200536562Y-96670474D01*
X200354506Y-96573672D01*
X200155910Y-96518224D01*
X199950040Y-96506714D01*
X199746501Y-96539680D01*
X199554790Y-96615584D01*
X199338346Y-96761578D01*
X198860342Y-96761578D01*
X198872718Y-96699361D01*
X198872718Y-96340639D01*
X198849950Y-96226176D01*
X199678691Y-95382973D01*
X201452797Y-95382973D01*
X201540116Y-95468480D01*
X201755500Y-95619294D01*
X201992624Y-95732904D01*
X202245120Y-95806261D01*
X202506206Y-95837393D01*
X202768872Y-95825466D01*
X203026062Y-95770798D01*
X203270870Y-95674860D01*
X203496722Y-95540224D01*
X203679768Y-95385538D01*
X202565000Y-94270770D01*
X201452797Y-95382973D01*
X199678691Y-95382973D01*
X200186188Y-94866620D01*
X200254768Y-94833689D01*
X200368491Y-94691487D01*
X200399000Y-94558278D01*
X200399000Y-94326360D01*
X200963190Y-94326360D01*
X200999783Y-94586737D01*
X201078411Y-94837641D01*
X201196964Y-95072334D01*
X201405275Y-95356955D01*
X202528230Y-94234000D01*
X202601770Y-94234000D01*
X203716276Y-95348506D01*
X203867964Y-95170275D01*
X204003387Y-94944895D01*
X204100180Y-94700424D01*
X204156002Y-94442234D01*
X204164275Y-94103734D01*
X204121131Y-93843127D01*
X204036396Y-93594219D01*
X203912146Y-93362492D01*
X203721211Y-93114559D01*
X202601770Y-94234000D01*
X202528230Y-94234000D01*
X201411602Y-93117372D01*
X201239549Y-93329839D01*
X201109674Y-93558460D01*
X201018883Y-93805224D01*
X200969613Y-94063502D01*
X200963190Y-94326360D01*
X200399000Y-94326360D01*
X200399000Y-93083995D01*
X201451765Y-93083995D01*
X202565000Y-94197230D01*
X203677379Y-93084851D01*
X203559417Y-92974849D01*
X203340412Y-92829343D01*
X203100583Y-92721559D01*
X202846371Y-92654393D01*
X202584602Y-92629648D01*
X202322307Y-92647990D01*
X202066528Y-92708925D01*
X201824138Y-92810817D01*
X201601643Y-92950929D01*
X201451765Y-93083995D01*
X200399000Y-93083995D01*
X200399000Y-93067943D01*
X200626986Y-92984963D01*
X200842014Y-92860817D01*
X201032217Y-92701217D01*
X201191817Y-92511014D01*
X201315963Y-92295986D01*
X201400884Y-92062667D01*
X201444000Y-91818146D01*
X201444000Y-91569854D01*
X201400884Y-91325333D01*
X201315963Y-91092014D01*
X201202885Y-90896157D01*
X201726748Y-91420020D01*
X201736712Y-91440769D01*
X201790563Y-91483835D01*
X201806661Y-91499933D01*
X201825490Y-91511767D01*
X201878915Y-91554492D01*
X201901810Y-91559735D01*
X201921732Y-91572257D01*
X201990356Y-91580015D01*
X202012121Y-91585000D01*
X202034448Y-91585000D01*
X202102619Y-91592707D01*
X202124689Y-91585000D01*
X203232727Y-91585000D01*
X206981746Y-95334020D01*
X206991710Y-95354769D01*
X207045562Y-95397836D01*
X207061662Y-95413935D01*
X207080486Y-95425765D01*
X207133912Y-95468492D01*
X207156808Y-95473735D01*
X207176730Y-95486257D01*
X207245356Y-95494015D01*
X207267120Y-95499000D01*
X207289447Y-95499000D01*
X207357618Y-95506707D01*
X207379688Y-95499000D01*
X207563366Y-95499000D01*
X207608481Y-95566519D01*
X207701001Y-95628339D01*
X207701001Y-95641953D01*
X207693374Y-95663670D01*
X207701001Y-95732213D01*
X207701001Y-95754970D01*
X207705946Y-95776649D01*
X207713512Y-95844637D01*
X207725993Y-95864533D01*
X207731227Y-95887478D01*
X207774271Y-95941495D01*
X207786131Y-95960401D01*
X207801916Y-95976186D01*
X207844672Y-96029843D01*
X207865728Y-96040000D01*
X208182810Y-96357082D01*
X206550250Y-96357082D01*
X206443336Y-96378348D01*
X206344433Y-96444433D01*
X206278348Y-96543336D01*
X206257082Y-96650250D01*
X206257082Y-98369750D01*
X206278348Y-98476664D01*
X206344433Y-98575567D01*
X206443336Y-98641652D01*
X206550250Y-98662918D01*
X208269750Y-98662918D01*
X208376664Y-98641652D01*
X208475567Y-98575567D01*
X208541652Y-98476664D01*
X208562918Y-98369750D01*
X208562918Y-96737190D01*
X208890633Y-97064905D01*
X208849490Y-97160898D01*
X208802640Y-97381302D01*
X208799494Y-97606611D01*
X208840171Y-97828238D01*
X208923121Y-98037745D01*
X209045183Y-98227150D01*
X209201710Y-98389238D01*
X209386739Y-98517837D01*
X209593223Y-98608047D01*
X209813296Y-98656433D01*
X210038577Y-98661152D01*
X210260483Y-98622024D01*
X210470563Y-98540539D01*
X210660815Y-98419801D01*
X210823992Y-98264410D01*
X210953880Y-98080283D01*
X211045529Y-97874434D01*
X211095605Y-97654024D01*
X211099181Y-97398020D01*
X211055278Y-97176296D01*
X210969411Y-96967969D01*
X210844715Y-96780288D01*
X210685941Y-96620401D01*
X210499135Y-96494397D01*
X210291411Y-96407079D01*
X210070684Y-96361770D01*
X209845359Y-96360197D01*
X209624021Y-96402420D01*
X209433618Y-96479347D01*
X208549120Y-95594849D01*
X208591519Y-95566519D01*
X208690204Y-95418826D01*
X208722918Y-95254361D01*
X208722918Y-94945639D01*
X208690204Y-94781174D01*
X208602223Y-94649501D01*
X208627567Y-94632567D01*
X208737303Y-94468336D01*
X208773898Y-94284362D01*
X208773898Y-94156000D01*
X207426102Y-94156000D01*
X207426102Y-94284362D01*
X207462697Y-94468336D01*
X207572433Y-94632567D01*
X207597777Y-94649501D01*
X207563366Y-94701000D01*
X207477270Y-94701000D01*
X206751908Y-93975638D01*
X207426102Y-93975638D01*
X207426102Y-94104000D01*
X208074000Y-94104000D01*
X208074000Y-93481102D01*
X208126000Y-93481102D01*
X208126000Y-94104000D01*
X208773898Y-94104000D01*
X208773898Y-93975638D01*
X208737303Y-93791664D01*
X208627567Y-93627433D01*
X208463336Y-93517697D01*
X208279362Y-93481102D01*
X208126000Y-93481102D01*
X208074000Y-93481102D01*
X207920638Y-93481102D01*
X207736664Y-93517697D01*
X207572433Y-93627433D01*
X207462697Y-93791664D01*
X207426102Y-93975638D01*
X206751908Y-93975638D01*
X203728251Y-90951982D01*
X203718286Y-90931231D01*
X203664429Y-90888160D01*
X203648334Y-90872066D01*
X203629512Y-90860237D01*
X203576085Y-90817509D01*
X203553186Y-90812264D01*
X203533262Y-90799742D01*
X203464639Y-90791985D01*
X203442876Y-90787000D01*
X203420549Y-90787000D01*
X203352378Y-90779293D01*
X203330308Y-90787000D01*
X202222272Y-90787000D01*
X202127304Y-90692032D01*
X202245120Y-90726261D01*
X202506206Y-90757393D01*
X202768872Y-90745466D01*
X203026062Y-90690798D01*
X203270870Y-90594860D01*
X203496722Y-90460224D01*
X203679768Y-90305538D01*
X201411602Y-88037372D01*
X201239549Y-88249839D01*
X201109674Y-88478460D01*
X201018883Y-88725224D01*
X200969613Y-88983502D01*
X200963190Y-89246360D01*
X200999783Y-89506737D01*
X201027774Y-89596056D01*
X201018514Y-89590237D01*
X200965087Y-89547509D01*
X200942188Y-89542264D01*
X200922264Y-89529742D01*
X200853641Y-89521985D01*
X200831878Y-89517000D01*
X200809551Y-89517000D01*
X200741380Y-89509293D01*
X200719310Y-89517000D01*
X199085044Y-89517000D01*
X199063327Y-89509374D01*
X199043718Y-89511556D01*
X199076002Y-89362234D01*
X199084275Y-89023734D01*
X199041131Y-88763127D01*
X198956396Y-88514219D01*
X198832146Y-88282492D01*
X198641211Y-88034559D01*
X196372797Y-90302973D01*
X196460116Y-90388480D01*
X196675500Y-90539294D01*
X196912624Y-90652904D01*
X197165120Y-90726261D01*
X197426206Y-90757393D01*
X197620140Y-90748587D01*
X195563800Y-92804927D01*
X194625060Y-91866187D01*
X194598204Y-91731174D01*
X194499519Y-91583481D01*
X194351826Y-91484796D01*
X194187361Y-91452082D01*
X193878639Y-91452082D01*
X193714174Y-91484796D01*
X193566481Y-91583481D01*
X193548000Y-91611140D01*
X193529519Y-91583481D01*
X193381826Y-91484796D01*
X193217361Y-91452082D01*
X192908639Y-91452082D01*
X192744174Y-91484796D01*
X192596481Y-91583481D01*
X192534662Y-91676000D01*
X191838046Y-91676000D01*
X191816329Y-91668374D01*
X191747792Y-91676000D01*
X191725030Y-91676000D01*
X191703351Y-91680946D01*
X191635363Y-91688511D01*
X191615466Y-91700993D01*
X191592522Y-91706227D01*
X191538505Y-91749271D01*
X191519598Y-91761131D01*
X191503814Y-91776915D01*
X191450156Y-91819672D01*
X191439999Y-91840729D01*
X190900982Y-92379747D01*
X190880231Y-92389712D01*
X190837157Y-92443573D01*
X190821066Y-92459664D01*
X190809235Y-92478489D01*
X190766508Y-92531916D01*
X190761265Y-92554811D01*
X190748743Y-92574733D01*
X190740985Y-92643357D01*
X190736000Y-92665122D01*
X190736000Y-92687449D01*
X190728293Y-92755620D01*
X190736000Y-92777690D01*
X190736001Y-94062151D01*
X190728374Y-94083871D01*
X190736001Y-94152413D01*
X190736001Y-94175170D01*
X190740946Y-94196849D01*
X190748512Y-94264837D01*
X190760993Y-94284733D01*
X190766227Y-94307678D01*
X190809271Y-94361695D01*
X190821131Y-94380601D01*
X190836916Y-94396386D01*
X190879674Y-94450045D01*
X190900731Y-94460202D01*
X191297948Y-94857420D01*
X191307912Y-94878170D01*
X191352318Y-94913681D01*
X191357996Y-94942226D01*
X191456681Y-95089919D01*
X191498001Y-95117528D01*
X191498000Y-95379662D01*
X191405481Y-95441481D01*
X191306796Y-95589174D01*
X191274082Y-95753639D01*
X191274082Y-96062361D01*
X191306796Y-96226826D01*
X191405481Y-96374519D01*
X191433140Y-96393000D01*
X191405481Y-96411481D01*
X191306796Y-96559174D01*
X191274082Y-96723639D01*
X191274082Y-97032361D01*
X191306796Y-97196826D01*
X191405481Y-97344519D01*
X191498001Y-97406339D01*
X191498000Y-100952128D01*
X190824781Y-101625348D01*
X190804032Y-101635312D01*
X190760965Y-101689164D01*
X190744866Y-101705264D01*
X190733031Y-101724094D01*
X190690309Y-101777514D01*
X190685065Y-101800411D01*
X190672543Y-101820334D01*
X190664783Y-101888969D01*
X190659801Y-101910722D01*
X190659801Y-101933040D01*
X190652093Y-102001220D01*
X187786656Y-102001220D01*
X187717066Y-101551696D01*
X187649600Y-100863613D01*
X187620648Y-100172856D01*
X187630301Y-99481566D01*
X187678530Y-98791860D01*
X187765179Y-98105962D01*
X187889988Y-97425929D01*
X188052555Y-96753960D01*
X188252385Y-96092090D01*
X188488853Y-95442398D01*
X188761207Y-94806950D01*
X189068614Y-94187684D01*
X189410113Y-93586536D01*
X189784629Y-93005401D01*
X190191012Y-92446063D01*
X190627984Y-91910282D01*
X191094167Y-91399746D01*
X191588145Y-90916007D01*
X192108336Y-90460614D01*
X192653132Y-90034974D01*
X193220864Y-89640390D01*
X193809726Y-89278119D01*
X194417882Y-88949290D01*
X195043459Y-88654915D01*
X195684486Y-88395924D01*
X196177033Y-88228247D01*
X196159549Y-88249839D01*
X196029674Y-88478460D01*
X195938883Y-88725224D01*
X195889613Y-88983502D01*
X195883190Y-89246360D01*
X195919783Y-89506737D01*
X195998411Y-89757641D01*
X196116964Y-89992334D01*
X196325275Y-90276955D01*
X198597379Y-88004851D01*
X198479417Y-87894849D01*
X198260412Y-87749343D01*
X198252896Y-87745965D01*
X198362578Y-87728200D01*
X199050177Y-87655930D01*
X199740717Y-87622157D01*
X200432077Y-87626984D01*
G37*
X200432077Y-87626984D02*
X201122080Y-87670395D01*
X201793037Y-87750402D01*
X201601643Y-87870929D01*
X201451765Y-88003995D01*
X203716276Y-90268506D01*
X203867964Y-90090275D01*
X204003387Y-89864895D01*
X204100180Y-89620424D01*
X204156002Y-89362234D01*
X204164275Y-89023734D01*
X204121131Y-88763127D01*
X204036396Y-88514219D01*
X203912146Y-88282492D01*
X203884179Y-88246176D01*
X204477128Y-88457316D01*
X205114449Y-88725221D01*
X205735876Y-89028311D01*
X206339377Y-89365597D01*
X206923117Y-89736049D01*
X207485276Y-90138517D01*
X208024086Y-90571730D01*
X208537875Y-91034348D01*
X209025034Y-91524919D01*
X209484054Y-92041927D01*
X209913509Y-92583763D01*
X210312026Y-93148698D01*
X210678404Y-93735025D01*
X211011476Y-94340879D01*
X211310199Y-94964365D01*
X211573665Y-95603580D01*
X211801031Y-96256488D01*
X211991600Y-96921079D01*
X212144772Y-97595267D01*
X212260072Y-98276967D01*
X212337137Y-98964014D01*
X212375615Y-99652246D01*
X212303113Y-101382098D01*
X212207181Y-102064691D01*
X212072892Y-102742898D01*
X211900957Y-103412543D01*
X211691908Y-104071550D01*
X211446394Y-104717870D01*
X211165189Y-105349464D01*
X210849166Y-105964380D01*
X210499309Y-106560696D01*
X210116705Y-107136561D01*
X209702566Y-107690153D01*
X209258161Y-108219774D01*
X208784880Y-108723768D01*
X208284212Y-109200547D01*
X207757699Y-109648644D01*
X207207018Y-110066634D01*
X206633829Y-110453254D01*
X206039973Y-110807264D01*
X205427286Y-111127568D01*
X204797657Y-111413182D01*
X204153085Y-111663194D01*
X203495544Y-111876843D01*
X202827106Y-112053451D01*
X202149859Y-112192470D01*
X201465916Y-112293466D01*
X200777378Y-112356128D01*
X200086421Y-112380257D01*
X199395214Y-112365778D01*
X198705877Y-112312736D01*
X198020581Y-112221299D01*
X197341458Y-112091748D01*
X196670635Y-111924494D01*
X196010168Y-111720045D01*
X195362162Y-111479054D01*
X194728611Y-111202263D01*
X194111513Y-110890544D01*
X193512762Y-110544855D01*
X192934244Y-110166282D01*
X192377768Y-109756014D01*
X191845055Y-109315315D01*
X191337778Y-108845572D01*
X190857507Y-108348236D01*
X190405756Y-107824878D01*
X189983917Y-107277109D01*
X189593318Y-106706652D01*
X189235169Y-106115279D01*
X188910587Y-105504829D01*
X188620590Y-104877218D01*
X188366082Y-104234404D01*
X188147851Y-103578379D01*
X187966580Y-102911189D01*
X187822836Y-102234930D01*
X187786656Y-102001220D01*
X190652093Y-102001220D01*
X190659801Y-102023293D01*
X190659800Y-106408754D01*
X190652174Y-106430471D01*
X190659800Y-106499004D01*
X190659800Y-106521769D01*
X190664746Y-106543451D01*
X190672312Y-106611437D01*
X190684793Y-106631333D01*
X190690026Y-106654276D01*
X190733072Y-106708296D01*
X190744931Y-106727201D01*
X190760713Y-106742984D01*
X190803472Y-106796643D01*
X190824530Y-106806801D01*
X194325749Y-110308021D01*
X194335713Y-110328770D01*
X194389564Y-110371836D01*
X194405662Y-110387934D01*
X194424491Y-110399768D01*
X194477916Y-110442493D01*
X194500811Y-110447736D01*
X194520733Y-110460258D01*
X194589357Y-110468016D01*
X194611122Y-110473001D01*
X194633449Y-110473001D01*
X194701620Y-110480708D01*
X194723690Y-110473001D01*
X204457953Y-110473001D01*
X204479670Y-110480627D01*
X204548203Y-110473001D01*
X204570968Y-110473001D01*
X204592656Y-110468054D01*
X204660634Y-110460489D01*
X204680531Y-110448008D01*
X204703478Y-110442773D01*
X204757497Y-110399727D01*
X204776400Y-110387870D01*
X204792180Y-110372090D01*
X204845843Y-110329329D01*
X204856001Y-110308270D01*
X211484021Y-103680251D01*
X211504768Y-103670288D01*
X211547833Y-103616439D01*
X211563933Y-103600338D01*
X211575766Y-103581512D01*
X211618492Y-103528086D01*
X211623735Y-103505190D01*
X211636257Y-103485268D01*
X211644015Y-103416644D01*
X211649000Y-103394879D01*
X211649000Y-103372552D01*
X211656707Y-103304381D01*
X211649000Y-103282311D01*
X211649000Y-101418046D01*
X211656626Y-101396329D01*
X211649000Y-101327792D01*
X211649000Y-101305030D01*
X211644054Y-101283351D01*
X211636489Y-101215363D01*
X211624007Y-101195466D01*
X211618773Y-101172522D01*
X211575729Y-101118505D01*
X211563869Y-101099598D01*
X211548085Y-101083814D01*
X211505328Y-101030156D01*
X211484271Y-101019999D01*
X210994136Y-100529865D01*
X211045529Y-100414434D01*
X211095605Y-100194024D01*
X211099181Y-99938020D01*
X211055278Y-99716296D01*
X210969411Y-99507969D01*
X210844715Y-99320288D01*
X210685941Y-99160401D01*
X210499135Y-99034397D01*
X210291411Y-98947079D01*
X210070684Y-98901770D01*
X209845359Y-98900197D01*
X209624021Y-98942420D01*
X209415100Y-99026829D01*
X209226552Y-99150212D01*
X209065560Y-99307867D01*
X208938256Y-99493789D01*
X208849490Y-99700898D01*
X208802640Y-99921302D01*
X208799494Y-100146611D01*
X208840171Y-100368238D01*
X208923121Y-100577745D01*
X209045183Y-100767150D01*
X209201710Y-100929238D01*
X209386739Y-101057837D01*
X209593223Y-101148047D01*
X209813296Y-101196433D01*
X210038577Y-101201152D01*
X210260483Y-101162024D01*
X210431441Y-101095713D01*
X210851001Y-101515273D01*
X210851001Y-101797553D01*
X210740192Y-101680989D01*
X210554046Y-101547966D01*
X210346105Y-101452543D01*
X210123870Y-101398163D01*
X209976000Y-101390803D01*
X209976000Y-103788993D01*
X210115546Y-103783022D01*
X210295384Y-103740344D01*
X204360728Y-109675001D01*
X194821273Y-109675001D01*
X192027772Y-106881500D01*
X203887143Y-106881500D01*
X203887143Y-107108523D01*
X203963367Y-107392997D01*
X204100620Y-107556567D01*
X204281649Y-107661086D01*
X204478849Y-107695857D01*
X204914000Y-107695857D01*
X204914000Y-106881500D01*
X204966000Y-106881500D01*
X204966000Y-107695857D01*
X205405523Y-107695857D01*
X205689997Y-107619633D01*
X205853567Y-107482380D01*
X205958086Y-107301351D01*
X205992857Y-107104151D01*
X205992857Y-106881500D01*
X204966000Y-106881500D01*
X204914000Y-106881500D01*
X203887143Y-106881500D01*
X192027772Y-106881500D01*
X191753121Y-106606849D01*
X203887143Y-106606849D01*
X203887143Y-106829500D01*
X204914000Y-106829500D01*
X204914000Y-106015143D01*
X204474476Y-106015143D01*
X204190004Y-106091367D01*
X204026433Y-106228620D01*
X203921914Y-106409649D01*
X203887143Y-106606849D01*
X191753121Y-106606849D01*
X191457800Y-106311529D01*
X191457800Y-102120871D01*
X192131021Y-101447651D01*
X192151768Y-101437688D01*
X192194833Y-101383839D01*
X192210933Y-101367738D01*
X192222768Y-101348908D01*
X192265492Y-101295486D01*
X192270735Y-101272590D01*
X192283257Y-101252668D01*
X192291015Y-101184042D01*
X192296000Y-101162278D01*
X192296000Y-101139951D01*
X192303707Y-101071780D01*
X192296000Y-101049710D01*
X192296000Y-97406338D01*
X192388519Y-97344519D01*
X192487204Y-97196826D01*
X192519918Y-97032361D01*
X192519918Y-96723639D01*
X192487204Y-96559174D01*
X192388519Y-96411481D01*
X192360860Y-96393000D01*
X192388519Y-96374519D01*
X192487204Y-96226826D01*
X192519918Y-96062361D01*
X192519918Y-95753639D01*
X192487204Y-95589174D01*
X192388519Y-95441481D01*
X192296000Y-95379662D01*
X192296000Y-95185949D01*
X192439719Y-95089919D01*
X192484834Y-95022400D01*
X192511566Y-95022400D01*
X192556681Y-95089919D01*
X192704374Y-95188604D01*
X192868839Y-95221318D01*
X193227561Y-95221318D01*
X193392026Y-95188604D01*
X193539719Y-95089919D01*
X193584834Y-95022400D01*
X193611566Y-95022400D01*
X193656681Y-95089919D01*
X193799200Y-95185146D01*
X193799199Y-95554510D01*
X193703232Y-95618633D01*
X193637147Y-95717536D01*
X193615881Y-95824450D01*
X193615881Y-97317150D01*
X193637147Y-97424064D01*
X193703232Y-97522967D01*
X193753800Y-97556756D01*
X193753800Y-97820044D01*
X193703232Y-97853833D01*
X193637147Y-97952736D01*
X193615881Y-98059650D01*
X193615881Y-99552350D01*
X193637147Y-99659264D01*
X193703232Y-99758167D01*
X193802135Y-99824252D01*
X193804646Y-99824752D01*
X193811711Y-99888236D01*
X193824192Y-99908132D01*
X193829425Y-99931075D01*
X193872471Y-99985095D01*
X193884330Y-100004000D01*
X193900111Y-100019782D01*
X193942871Y-100073443D01*
X193963929Y-100083600D01*
X194495148Y-100614820D01*
X194505112Y-100635569D01*
X194543605Y-100666353D01*
X194555196Y-100724626D01*
X194653881Y-100872319D01*
X194678547Y-100888800D01*
X194653881Y-100905281D01*
X194555196Y-101052974D01*
X194522482Y-101217439D01*
X194522482Y-101576161D01*
X194555196Y-101740626D01*
X194653881Y-101888319D01*
X194721400Y-101933434D01*
X194721401Y-102669400D01*
X193753800Y-102669400D01*
X193753800Y-106118600D01*
X196249000Y-106118600D01*
X196249000Y-103279400D01*
X201865702Y-103279400D01*
X201865702Y-103407762D01*
X201902297Y-103591736D01*
X202012033Y-103755967D01*
X202176264Y-103865703D01*
X202360238Y-103902298D01*
X202513600Y-103902298D01*
X202513600Y-103279400D01*
X201865702Y-103279400D01*
X196249000Y-103279400D01*
X196249000Y-102669400D01*
X195519400Y-102669400D01*
X195519400Y-101933434D01*
X195586919Y-101888319D01*
X195605400Y-101860660D01*
X195623881Y-101888319D01*
X195771574Y-101987004D01*
X195936039Y-102019718D01*
X196244761Y-102019718D01*
X196409226Y-101987004D01*
X196556919Y-101888319D01*
X196655604Y-101740626D01*
X196688318Y-101576161D01*
X196688318Y-101217439D01*
X196655604Y-101052974D01*
X196556919Y-100905281D01*
X196532253Y-100888800D01*
X196556919Y-100872319D01*
X196618738Y-100779800D01*
X197009754Y-100779800D01*
X197144653Y-100847943D01*
X197340349Y-100896736D01*
X197541994Y-100900960D01*
X197739563Y-100860404D01*
X197923236Y-100777086D01*
X198083886Y-100655146D01*
X198213529Y-100500645D01*
X198305721Y-100321259D01*
X198356053Y-100125229D01*
X198359200Y-99899840D01*
X198314362Y-99702480D01*
X198227214Y-99520591D01*
X198101936Y-99362530D01*
X197944754Y-99236151D01*
X197763477Y-99147736D01*
X197663548Y-99124298D01*
X197715400Y-99124298D01*
X197715400Y-98476400D01*
X197767400Y-98476400D01*
X197767400Y-99124298D01*
X197895762Y-99124298D01*
X198079736Y-99087703D01*
X198243967Y-98977967D01*
X198353703Y-98813736D01*
X198390298Y-98629762D01*
X198390298Y-98476400D01*
X197767400Y-98476400D01*
X197715400Y-98476400D01*
X197715400Y-98424400D01*
X198390298Y-98424400D01*
X198390298Y-98271038D01*
X198375969Y-98198999D01*
X198842726Y-98198999D01*
X199977745Y-99334019D01*
X199987709Y-99354768D01*
X200041561Y-99397835D01*
X200057661Y-99413934D01*
X200076485Y-99425764D01*
X200129911Y-99468491D01*
X200152807Y-99473734D01*
X200172729Y-99486256D01*
X200241355Y-99494014D01*
X200263119Y-99498999D01*
X200285446Y-99498999D01*
X200353617Y-99506706D01*
X200375687Y-99498999D01*
X201788466Y-99498999D01*
X201779554Y-99509926D01*
X201689876Y-99690581D01*
X201642451Y-99886613D01*
X201639635Y-100088281D01*
X201681568Y-100285562D01*
X201766167Y-100468650D01*
X201889226Y-100628446D01*
X202044629Y-100757006D01*
X202141001Y-100805687D01*
X202141000Y-101754795D01*
X202048081Y-101816881D01*
X201949396Y-101964574D01*
X201916682Y-102129039D01*
X201916682Y-102437761D01*
X201949396Y-102602226D01*
X202037377Y-102733899D01*
X202012033Y-102750833D01*
X201902297Y-102915064D01*
X201865702Y-103099038D01*
X201865702Y-103227400D01*
X202565600Y-103227400D01*
X202565600Y-103902298D01*
X202718962Y-103902298D01*
X202902936Y-103865703D01*
X203067167Y-103755967D01*
X203113008Y-103687361D01*
X203128081Y-103709919D01*
X203231353Y-103778922D01*
X203233113Y-103794738D01*
X203245593Y-103814633D01*
X203250826Y-103837576D01*
X203293872Y-103891596D01*
X203305731Y-103910501D01*
X203321513Y-103926283D01*
X203364271Y-103979942D01*
X203385328Y-103990100D01*
X203967380Y-104572151D01*
X203937536Y-104731799D01*
X203937536Y-105231513D01*
X203992274Y-105464245D01*
X204115991Y-105628072D01*
X204288513Y-105734893D01*
X204478799Y-105770464D01*
X205165692Y-105770464D01*
X205397248Y-106002020D01*
X205403772Y-106015605D01*
X205401151Y-106015143D01*
X204966000Y-106015143D01*
X204966000Y-106829500D01*
X205992857Y-106829500D01*
X205992857Y-106602476D01*
X205916633Y-106318004D01*
X205791118Y-106168422D01*
X205795189Y-106167000D01*
X206043366Y-106167000D01*
X206088481Y-106234519D01*
X206236174Y-106333204D01*
X206400639Y-106365918D01*
X206759361Y-106365918D01*
X206923826Y-106333204D01*
X207071519Y-106234519D01*
X207170204Y-106086826D01*
X207202918Y-105922361D01*
X207202918Y-105613639D01*
X207170204Y-105449174D01*
X207071519Y-105301481D01*
X207043860Y-105283000D01*
X207071519Y-105264519D01*
X207170204Y-105116826D01*
X207202918Y-104952361D01*
X207202918Y-104643639D01*
X207170204Y-104479174D01*
X207071519Y-104331481D01*
X206979000Y-104269662D01*
X206979000Y-103655620D01*
X207053223Y-103688047D01*
X207273296Y-103736433D01*
X207498577Y-103741152D01*
X207720483Y-103702024D01*
X207930563Y-103620539D01*
X208120815Y-103499801D01*
X208283992Y-103344410D01*
X208413880Y-103160283D01*
X208505529Y-102954434D01*
X208555605Y-102734024D01*
X208557252Y-102616000D01*
X208748330Y-102616000D01*
X208766490Y-102813626D01*
X208830128Y-103033389D01*
X208934175Y-103237152D01*
X209074875Y-103417565D01*
X209247152Y-103568116D01*
X209444790Y-103683375D01*
X209660657Y-103759182D01*
X209924000Y-103798303D01*
X209924000Y-102616000D01*
X208748330Y-102616000D01*
X208557252Y-102616000D01*
X208557979Y-102564000D01*
X208747711Y-102564000D01*
X209924000Y-102564000D01*
X209924000Y-101382737D01*
X209668826Y-101418826D01*
X209452435Y-101493125D01*
X209253998Y-101607002D01*
X209080674Y-101756347D01*
X208938718Y-101935773D01*
X208833251Y-102138805D01*
X208768080Y-102358117D01*
X208747711Y-102564000D01*
X208557979Y-102564000D01*
X208559181Y-102478020D01*
X208515278Y-102256296D01*
X208429411Y-102047969D01*
X208304715Y-101860288D01*
X208145941Y-101700401D01*
X207959135Y-101574397D01*
X207751411Y-101487079D01*
X207530684Y-101441770D01*
X207305359Y-101440197D01*
X207084021Y-101482420D01*
X206875100Y-101566829D01*
X206686552Y-101690212D01*
X206525560Y-101847867D01*
X206398256Y-102033789D01*
X206309490Y-102240898D01*
X206262640Y-102461302D01*
X206259494Y-102686611D01*
X206300171Y-102908238D01*
X206378827Y-103106902D01*
X206345981Y-103139748D01*
X206325232Y-103149712D01*
X206282165Y-103203564D01*
X206266066Y-103219664D01*
X206254231Y-103238494D01*
X206211509Y-103291914D01*
X206206265Y-103314811D01*
X206193743Y-103334734D01*
X206185983Y-103403369D01*
X206181001Y-103425122D01*
X206181001Y-103447440D01*
X206173293Y-103515620D01*
X206181001Y-103537693D01*
X206181000Y-104269662D01*
X206088481Y-104331481D01*
X205989796Y-104479174D01*
X205957082Y-104643639D01*
X205957082Y-104952361D01*
X205989796Y-105116826D01*
X206088481Y-105264519D01*
X206116140Y-105283000D01*
X206088481Y-105301481D01*
X206043366Y-105369000D01*
X205916331Y-105369000D01*
X205942464Y-105229201D01*
X205942464Y-104729487D01*
X205887726Y-104496755D01*
X205764009Y-104332928D01*
X205591487Y-104226107D01*
X205401201Y-104190536D01*
X204714308Y-104190536D01*
X204160214Y-103636443D01*
X204209804Y-103562226D01*
X204242518Y-103397761D01*
X204242518Y-103089039D01*
X204209804Y-102924574D01*
X204111119Y-102776881D01*
X204083460Y-102758400D01*
X204111119Y-102739919D01*
X204209804Y-102592226D01*
X204242518Y-102427761D01*
X204242518Y-102119039D01*
X204209804Y-101954574D01*
X204111119Y-101806881D01*
X203963426Y-101708196D01*
X203798961Y-101675482D01*
X203440239Y-101675482D01*
X203275774Y-101708196D01*
X203128081Y-101806881D01*
X203076285Y-101884400D01*
X203076234Y-101884400D01*
X203031119Y-101816881D01*
X202939000Y-101755330D01*
X202939000Y-101011000D01*
X203745302Y-101011000D01*
X203745302Y-101139362D01*
X203781897Y-101323336D01*
X203891633Y-101487567D01*
X204055864Y-101597303D01*
X204239838Y-101633898D01*
X204393200Y-101633898D01*
X204393200Y-101011000D01*
X204445200Y-101011000D01*
X204445200Y-101633898D01*
X204598562Y-101633898D01*
X204782536Y-101597303D01*
X204946767Y-101487567D01*
X205056503Y-101323336D01*
X205093098Y-101139362D01*
X205093098Y-101011000D01*
X204445200Y-101011000D01*
X204393200Y-101011000D01*
X203745302Y-101011000D01*
X202939000Y-101011000D01*
X202939000Y-100806225D01*
X203003236Y-100777086D01*
X203163886Y-100655146D01*
X203293529Y-100500645D01*
X203385721Y-100321259D01*
X203436053Y-100125229D01*
X203439200Y-99899840D01*
X203394362Y-99702480D01*
X203388984Y-99691255D01*
X203796282Y-100098554D01*
X203796282Y-100169361D01*
X203828996Y-100333826D01*
X203916977Y-100465499D01*
X203891633Y-100482433D01*
X203781897Y-100646664D01*
X203745302Y-100830638D01*
X203745302Y-100959000D01*
X205093098Y-100959000D01*
X205093098Y-100830638D01*
X205056503Y-100646664D01*
X204946767Y-100482433D01*
X204921423Y-100465499D01*
X204955834Y-100414000D01*
X206318289Y-100414000D01*
X206383121Y-100577745D01*
X206505183Y-100767150D01*
X206661710Y-100929238D01*
X206846739Y-101057837D01*
X207053223Y-101148047D01*
X207273296Y-101196433D01*
X207498577Y-101201152D01*
X207720483Y-101162024D01*
X207930563Y-101080539D01*
X208120815Y-100959801D01*
X208283992Y-100804410D01*
X208413880Y-100620283D01*
X208505529Y-100414434D01*
X208555605Y-100194024D01*
X208559181Y-99938020D01*
X208515278Y-99716296D01*
X208429411Y-99507969D01*
X208304715Y-99320288D01*
X208145941Y-99160401D01*
X207959135Y-99034397D01*
X207751411Y-98947079D01*
X207530684Y-98901770D01*
X207305359Y-98900197D01*
X207084021Y-98942420D01*
X206875100Y-99026829D01*
X206686552Y-99150212D01*
X206525560Y-99307867D01*
X206398256Y-99493789D01*
X206345876Y-99616000D01*
X204955834Y-99616000D01*
X204910719Y-99548481D01*
X204763026Y-99449796D01*
X204598561Y-99417082D01*
X204243354Y-99417082D01*
X203692252Y-98865981D01*
X203682287Y-98845230D01*
X203628430Y-98802159D01*
X203612335Y-98786065D01*
X203593513Y-98774236D01*
X203540086Y-98731508D01*
X203517187Y-98726263D01*
X203497263Y-98713741D01*
X203428640Y-98705984D01*
X203406877Y-98700999D01*
X203384550Y-98700999D01*
X203316379Y-98693292D01*
X203294309Y-98700999D01*
X200473268Y-98700999D01*
X200169602Y-98397334D01*
X200348309Y-98348781D01*
X200531035Y-98253254D01*
X200653624Y-98150393D01*
X199963231Y-97460000D01*
X200036770Y-97460000D01*
X200692685Y-98115916D01*
X200814795Y-97957352D01*
X200902587Y-97770786D01*
X200948307Y-97569548D01*
X200949049Y-97357075D01*
X200904734Y-97155523D01*
X200818247Y-96968347D01*
X200693185Y-96803583D01*
X200036770Y-97460000D01*
X199963231Y-97460000D01*
X199295133Y-96791902D01*
X199134844Y-97056571D01*
X199068395Y-97251762D01*
X199051655Y-97400999D01*
X199030548Y-97400999D01*
X198962377Y-97393292D01*
X198940307Y-97400999D01*
X197169848Y-97400999D01*
X197148131Y-97393372D01*
X197079588Y-97400999D01*
X197056831Y-97400999D01*
X197035152Y-97405944D01*
X196967163Y-97413510D01*
X196947267Y-97425992D01*
X196924323Y-97431226D01*
X196870306Y-97474270D01*
X196851399Y-97486130D01*
X196835615Y-97501914D01*
X196781957Y-97544671D01*
X196771800Y-97565728D01*
X196618800Y-97718728D01*
X196618800Y-97484606D01*
X196659253Y-97424064D01*
X196680519Y-97317150D01*
X196680519Y-96832154D01*
X196720673Y-96792000D01*
X196725309Y-96792000D01*
X196739596Y-96863826D01*
X196838281Y-97011519D01*
X196985974Y-97110204D01*
X197150439Y-97142918D01*
X197459161Y-97142918D01*
X197623626Y-97110204D01*
X197771319Y-97011519D01*
X197789800Y-96983860D01*
X197808281Y-97011519D01*
X197955974Y-97110204D01*
X198120439Y-97142918D01*
X198429161Y-97142918D01*
X198593626Y-97110204D01*
X198741319Y-97011519D01*
X198840004Y-96863826D01*
X198860342Y-96761578D01*
X199338346Y-96761578D01*
X200000000Y-97423230D01*
X200653356Y-96769876D01*
X200536562Y-96670474D01*
X200354506Y-96573672D01*
X200155910Y-96518224D01*
X199950040Y-96506714D01*
X199746501Y-96539680D01*
X199554790Y-96615584D01*
X199338346Y-96761578D01*
X198860342Y-96761578D01*
X198872718Y-96699361D01*
X198872718Y-96340639D01*
X198849950Y-96226176D01*
X199678691Y-95382973D01*
X201452797Y-95382973D01*
X201540116Y-95468480D01*
X201755500Y-95619294D01*
X201992624Y-95732904D01*
X202245120Y-95806261D01*
X202506206Y-95837393D01*
X202768872Y-95825466D01*
X203026062Y-95770798D01*
X203270870Y-95674860D01*
X203496722Y-95540224D01*
X203679768Y-95385538D01*
X202565000Y-94270770D01*
X201452797Y-95382973D01*
X199678691Y-95382973D01*
X200186188Y-94866620D01*
X200254768Y-94833689D01*
X200368491Y-94691487D01*
X200399000Y-94558278D01*
X200399000Y-94326360D01*
X200963190Y-94326360D01*
X200999783Y-94586737D01*
X201078411Y-94837641D01*
X201196964Y-95072334D01*
X201405275Y-95356955D01*
X202528230Y-94234000D01*
X202601770Y-94234000D01*
X203716276Y-95348506D01*
X203867964Y-95170275D01*
X204003387Y-94944895D01*
X204100180Y-94700424D01*
X204156002Y-94442234D01*
X204164275Y-94103734D01*
X204121131Y-93843127D01*
X204036396Y-93594219D01*
X203912146Y-93362492D01*
X203721211Y-93114559D01*
X202601770Y-94234000D01*
X202528230Y-94234000D01*
X201411602Y-93117372D01*
X201239549Y-93329839D01*
X201109674Y-93558460D01*
X201018883Y-93805224D01*
X200969613Y-94063502D01*
X200963190Y-94326360D01*
X200399000Y-94326360D01*
X200399000Y-93083995D01*
X201451765Y-93083995D01*
X202565000Y-94197230D01*
X203677379Y-93084851D01*
X203559417Y-92974849D01*
X203340412Y-92829343D01*
X203100583Y-92721559D01*
X202846371Y-92654393D01*
X202584602Y-92629648D01*
X202322307Y-92647990D01*
X202066528Y-92708925D01*
X201824138Y-92810817D01*
X201601643Y-92950929D01*
X201451765Y-93083995D01*
X200399000Y-93083995D01*
X200399000Y-93067943D01*
X200626986Y-92984963D01*
X200842014Y-92860817D01*
X201032217Y-92701217D01*
X201191817Y-92511014D01*
X201315963Y-92295986D01*
X201400884Y-92062667D01*
X201444000Y-91818146D01*
X201444000Y-91569854D01*
X201400884Y-91325333D01*
X201315963Y-91092014D01*
X201202885Y-90896157D01*
X201726748Y-91420020D01*
X201736712Y-91440769D01*
X201790563Y-91483835D01*
X201806661Y-91499933D01*
X201825490Y-91511767D01*
X201878915Y-91554492D01*
X201901810Y-91559735D01*
X201921732Y-91572257D01*
X201990356Y-91580015D01*
X202012121Y-91585000D01*
X202034448Y-91585000D01*
X202102619Y-91592707D01*
X202124689Y-91585000D01*
X203232727Y-91585000D01*
X206981746Y-95334020D01*
X206991710Y-95354769D01*
X207045562Y-95397836D01*
X207061662Y-95413935D01*
X207080486Y-95425765D01*
X207133912Y-95468492D01*
X207156808Y-95473735D01*
X207176730Y-95486257D01*
X207245356Y-95494015D01*
X207267120Y-95499000D01*
X207289447Y-95499000D01*
X207357618Y-95506707D01*
X207379688Y-95499000D01*
X207563366Y-95499000D01*
X207608481Y-95566519D01*
X207701001Y-95628339D01*
X207701001Y-95641953D01*
X207693374Y-95663670D01*
X207701001Y-95732213D01*
X207701001Y-95754970D01*
X207705946Y-95776649D01*
X207713512Y-95844637D01*
X207725993Y-95864533D01*
X207731227Y-95887478D01*
X207774271Y-95941495D01*
X207786131Y-95960401D01*
X207801916Y-95976186D01*
X207844672Y-96029843D01*
X207865728Y-96040000D01*
X208182810Y-96357082D01*
X206550250Y-96357082D01*
X206443336Y-96378348D01*
X206344433Y-96444433D01*
X206278348Y-96543336D01*
X206257082Y-96650250D01*
X206257082Y-98369750D01*
X206278348Y-98476664D01*
X206344433Y-98575567D01*
X206443336Y-98641652D01*
X206550250Y-98662918D01*
X208269750Y-98662918D01*
X208376664Y-98641652D01*
X208475567Y-98575567D01*
X208541652Y-98476664D01*
X208562918Y-98369750D01*
X208562918Y-96737190D01*
X208890633Y-97064905D01*
X208849490Y-97160898D01*
X208802640Y-97381302D01*
X208799494Y-97606611D01*
X208840171Y-97828238D01*
X208923121Y-98037745D01*
X209045183Y-98227150D01*
X209201710Y-98389238D01*
X209386739Y-98517837D01*
X209593223Y-98608047D01*
X209813296Y-98656433D01*
X210038577Y-98661152D01*
X210260483Y-98622024D01*
X210470563Y-98540539D01*
X210660815Y-98419801D01*
X210823992Y-98264410D01*
X210953880Y-98080283D01*
X211045529Y-97874434D01*
X211095605Y-97654024D01*
X211099181Y-97398020D01*
X211055278Y-97176296D01*
X210969411Y-96967969D01*
X210844715Y-96780288D01*
X210685941Y-96620401D01*
X210499135Y-96494397D01*
X210291411Y-96407079D01*
X210070684Y-96361770D01*
X209845359Y-96360197D01*
X209624021Y-96402420D01*
X209433618Y-96479347D01*
X208549120Y-95594849D01*
X208591519Y-95566519D01*
X208690204Y-95418826D01*
X208722918Y-95254361D01*
X208722918Y-94945639D01*
X208690204Y-94781174D01*
X208602223Y-94649501D01*
X208627567Y-94632567D01*
X208737303Y-94468336D01*
X208773898Y-94284362D01*
X208773898Y-94156000D01*
X207426102Y-94156000D01*
X207426102Y-94284362D01*
X207462697Y-94468336D01*
X207572433Y-94632567D01*
X207597777Y-94649501D01*
X207563366Y-94701000D01*
X207477270Y-94701000D01*
X206751908Y-93975638D01*
X207426102Y-93975638D01*
X207426102Y-94104000D01*
X208074000Y-94104000D01*
X208074000Y-93481102D01*
X208126000Y-93481102D01*
X208126000Y-94104000D01*
X208773898Y-94104000D01*
X208773898Y-93975638D01*
X208737303Y-93791664D01*
X208627567Y-93627433D01*
X208463336Y-93517697D01*
X208279362Y-93481102D01*
X208126000Y-93481102D01*
X208074000Y-93481102D01*
X207920638Y-93481102D01*
X207736664Y-93517697D01*
X207572433Y-93627433D01*
X207462697Y-93791664D01*
X207426102Y-93975638D01*
X206751908Y-93975638D01*
X203728251Y-90951982D01*
X203718286Y-90931231D01*
X203664429Y-90888160D01*
X203648334Y-90872066D01*
X203629512Y-90860237D01*
X203576085Y-90817509D01*
X203553186Y-90812264D01*
X203533262Y-90799742D01*
X203464639Y-90791985D01*
X203442876Y-90787000D01*
X203420549Y-90787000D01*
X203352378Y-90779293D01*
X203330308Y-90787000D01*
X202222272Y-90787000D01*
X202127304Y-90692032D01*
X202245120Y-90726261D01*
X202506206Y-90757393D01*
X202768872Y-90745466D01*
X203026062Y-90690798D01*
X203270870Y-90594860D01*
X203496722Y-90460224D01*
X203679768Y-90305538D01*
X201411602Y-88037372D01*
X201239549Y-88249839D01*
X201109674Y-88478460D01*
X201018883Y-88725224D01*
X200969613Y-88983502D01*
X200963190Y-89246360D01*
X200999783Y-89506737D01*
X201027774Y-89596056D01*
X201018514Y-89590237D01*
X200965087Y-89547509D01*
X200942188Y-89542264D01*
X200922264Y-89529742D01*
X200853641Y-89521985D01*
X200831878Y-89517000D01*
X200809551Y-89517000D01*
X200741380Y-89509293D01*
X200719310Y-89517000D01*
X199085044Y-89517000D01*
X199063327Y-89509374D01*
X199043718Y-89511556D01*
X199076002Y-89362234D01*
X199084275Y-89023734D01*
X199041131Y-88763127D01*
X198956396Y-88514219D01*
X198832146Y-88282492D01*
X198641211Y-88034559D01*
X196372797Y-90302973D01*
X196460116Y-90388480D01*
X196675500Y-90539294D01*
X196912624Y-90652904D01*
X197165120Y-90726261D01*
X197426206Y-90757393D01*
X197620140Y-90748587D01*
X195563800Y-92804927D01*
X194625060Y-91866187D01*
X194598204Y-91731174D01*
X194499519Y-91583481D01*
X194351826Y-91484796D01*
X194187361Y-91452082D01*
X193878639Y-91452082D01*
X193714174Y-91484796D01*
X193566481Y-91583481D01*
X193548000Y-91611140D01*
X193529519Y-91583481D01*
X193381826Y-91484796D01*
X193217361Y-91452082D01*
X192908639Y-91452082D01*
X192744174Y-91484796D01*
X192596481Y-91583481D01*
X192534662Y-91676000D01*
X191838046Y-91676000D01*
X191816329Y-91668374D01*
X191747792Y-91676000D01*
X191725030Y-91676000D01*
X191703351Y-91680946D01*
X191635363Y-91688511D01*
X191615466Y-91700993D01*
X191592522Y-91706227D01*
X191538505Y-91749271D01*
X191519598Y-91761131D01*
X191503814Y-91776915D01*
X191450156Y-91819672D01*
X191439999Y-91840729D01*
X190900982Y-92379747D01*
X190880231Y-92389712D01*
X190837157Y-92443573D01*
X190821066Y-92459664D01*
X190809235Y-92478489D01*
X190766508Y-92531916D01*
X190761265Y-92554811D01*
X190748743Y-92574733D01*
X190740985Y-92643357D01*
X190736000Y-92665122D01*
X190736000Y-92687449D01*
X190728293Y-92755620D01*
X190736000Y-92777690D01*
X190736001Y-94062151D01*
X190728374Y-94083871D01*
X190736001Y-94152413D01*
X190736001Y-94175170D01*
X190740946Y-94196849D01*
X190748512Y-94264837D01*
X190760993Y-94284733D01*
X190766227Y-94307678D01*
X190809271Y-94361695D01*
X190821131Y-94380601D01*
X190836916Y-94396386D01*
X190879674Y-94450045D01*
X190900731Y-94460202D01*
X191297948Y-94857420D01*
X191307912Y-94878170D01*
X191352318Y-94913681D01*
X191357996Y-94942226D01*
X191456681Y-95089919D01*
X191498001Y-95117528D01*
X191498000Y-95379662D01*
X191405481Y-95441481D01*
X191306796Y-95589174D01*
X191274082Y-95753639D01*
X191274082Y-96062361D01*
X191306796Y-96226826D01*
X191405481Y-96374519D01*
X191433140Y-96393000D01*
X191405481Y-96411481D01*
X191306796Y-96559174D01*
X191274082Y-96723639D01*
X191274082Y-97032361D01*
X191306796Y-97196826D01*
X191405481Y-97344519D01*
X191498001Y-97406339D01*
X191498000Y-100952128D01*
X190824781Y-101625348D01*
X190804032Y-101635312D01*
X190760965Y-101689164D01*
X190744866Y-101705264D01*
X190733031Y-101724094D01*
X190690309Y-101777514D01*
X190685065Y-101800411D01*
X190672543Y-101820334D01*
X190664783Y-101888969D01*
X190659801Y-101910722D01*
X190659801Y-101933040D01*
X190652093Y-102001220D01*
X187786656Y-102001220D01*
X187717066Y-101551696D01*
X187649600Y-100863613D01*
X187620648Y-100172856D01*
X187630301Y-99481566D01*
X187678530Y-98791860D01*
X187765179Y-98105962D01*
X187889988Y-97425929D01*
X188052555Y-96753960D01*
X188252385Y-96092090D01*
X188488853Y-95442398D01*
X188761207Y-94806950D01*
X189068614Y-94187684D01*
X189410113Y-93586536D01*
X189784629Y-93005401D01*
X190191012Y-92446063D01*
X190627984Y-91910282D01*
X191094167Y-91399746D01*
X191588145Y-90916007D01*
X192108336Y-90460614D01*
X192653132Y-90034974D01*
X193220864Y-89640390D01*
X193809726Y-89278119D01*
X194417882Y-88949290D01*
X195043459Y-88654915D01*
X195684486Y-88395924D01*
X196177033Y-88228247D01*
X196159549Y-88249839D01*
X196029674Y-88478460D01*
X195938883Y-88725224D01*
X195889613Y-88983502D01*
X195883190Y-89246360D01*
X195919783Y-89506737D01*
X195998411Y-89757641D01*
X196116964Y-89992334D01*
X196325275Y-90276955D01*
X198597379Y-88004851D01*
X198479417Y-87894849D01*
X198260412Y-87749343D01*
X198252896Y-87745965D01*
X198362578Y-87728200D01*
X199050177Y-87655930D01*
X199740717Y-87622157D01*
X200432077Y-87626984D01*
G36*
X199656333Y-90318116D02*
G01*
X199423014Y-90403037D01*
X199207986Y-90527183D01*
X199017783Y-90686783D01*
X198858183Y-90876986D01*
X198734037Y-91092014D01*
X198649116Y-91325333D01*
X198606000Y-91569854D01*
X198606000Y-91818146D01*
X198649116Y-92062667D01*
X198734037Y-92295986D01*
X198858183Y-92511014D01*
X199017783Y-92701217D01*
X199207986Y-92860817D01*
X199423014Y-92984963D01*
X199601001Y-93049745D01*
X199601000Y-94323590D01*
X198818051Y-95120202D01*
X198923387Y-94944895D01*
X199020180Y-94700424D01*
X199076002Y-94442234D01*
X199084275Y-94103734D01*
X199041131Y-93843127D01*
X198956396Y-93594219D01*
X198832146Y-93362492D01*
X198641211Y-93114559D01*
X197485000Y-94270769D01*
X197448231Y-94234000D01*
X198597379Y-93084851D01*
X198479417Y-92974849D01*
X198260412Y-92829343D01*
X198020583Y-92721559D01*
X197766371Y-92654393D01*
X197504602Y-92629648D01*
X197242307Y-92647990D01*
X196986528Y-92708925D01*
X196744138Y-92810817D01*
X196588344Y-92908926D01*
X199182270Y-90315000D01*
X199674005Y-90315000D01*
X199656333Y-90318116D01*
G37*
X199656333Y-90318116D02*
X199423014Y-90403037D01*
X199207986Y-90527183D01*
X199017783Y-90686783D01*
X198858183Y-90876986D01*
X198734037Y-91092014D01*
X198649116Y-91325333D01*
X198606000Y-91569854D01*
X198606000Y-91818146D01*
X198649116Y-92062667D01*
X198734037Y-92295986D01*
X198858183Y-92511014D01*
X199017783Y-92701217D01*
X199207986Y-92860817D01*
X199423014Y-92984963D01*
X199601001Y-93049745D01*
X199601000Y-94323590D01*
X198818051Y-95120202D01*
X198923387Y-94944895D01*
X199020180Y-94700424D01*
X199076002Y-94442234D01*
X199084275Y-94103734D01*
X199041131Y-93843127D01*
X198956396Y-93594219D01*
X198832146Y-93362492D01*
X198641211Y-93114559D01*
X197485000Y-94270769D01*
X197448231Y-94234000D01*
X198597379Y-93084851D01*
X198479417Y-92974849D01*
X198260412Y-92829343D01*
X198020583Y-92721559D01*
X197766371Y-92654393D01*
X197504602Y-92629648D01*
X197242307Y-92647990D01*
X196986528Y-92708925D01*
X196744138Y-92810817D01*
X196588344Y-92908926D01*
X199182270Y-90315000D01*
X199674005Y-90315000D01*
X199656333Y-90318116D01*
G36*
X192596481Y-92566519D02*
G01*
X192744174Y-92665204D01*
X192908639Y-92697918D01*
X193217361Y-92697918D01*
X193381826Y-92665204D01*
X193529519Y-92566519D01*
X193548000Y-92538860D01*
X193566481Y-92566519D01*
X193714174Y-92665204D01*
X193878639Y-92697918D01*
X194187361Y-92697918D01*
X194304873Y-92674543D01*
X195181000Y-93550670D01*
X195181001Y-93784953D01*
X195173374Y-93806670D01*
X195181001Y-93875213D01*
X195181001Y-93897970D01*
X195183000Y-93906732D01*
X194860983Y-94228749D01*
X194840232Y-94238714D01*
X194797165Y-94292566D01*
X194781066Y-94308666D01*
X194769231Y-94327496D01*
X194748195Y-94353799D01*
X194738404Y-94304574D01*
X194650423Y-94172901D01*
X194675767Y-94155967D01*
X194785503Y-93991736D01*
X194822098Y-93807762D01*
X194822098Y-93679400D01*
X194122200Y-93679400D01*
X194122200Y-93004502D01*
X194174200Y-93004502D01*
X194174200Y-93627400D01*
X194822098Y-93627400D01*
X194822098Y-93499038D01*
X194785503Y-93315064D01*
X194675767Y-93150833D01*
X194511536Y-93041097D01*
X194327562Y-93004502D01*
X194174200Y-93004502D01*
X194122200Y-93004502D01*
X193968838Y-93004502D01*
X193784864Y-93041097D01*
X193620633Y-93150833D01*
X193598200Y-93184406D01*
X193575767Y-93150833D01*
X193411536Y-93041097D01*
X193227562Y-93004502D01*
X193074200Y-93004502D01*
X193074200Y-93679400D01*
X193022200Y-93679400D01*
X193022200Y-93004502D01*
X192868838Y-93004502D01*
X192684864Y-93041097D01*
X192520633Y-93150833D01*
X192498200Y-93184406D01*
X192475767Y-93150833D01*
X192311536Y-93041097D01*
X192127562Y-93004502D01*
X191974200Y-93004502D01*
X191974200Y-93679400D01*
X191922200Y-93679400D01*
X191922200Y-93004502D01*
X191768838Y-93004502D01*
X191584864Y-93041097D01*
X191534000Y-93075083D01*
X191534000Y-92875270D01*
X191935271Y-92474000D01*
X192534662Y-92474000D01*
X192596481Y-92566519D01*
G37*
X192596481Y-92566519D02*
X192744174Y-92665204D01*
X192908639Y-92697918D01*
X193217361Y-92697918D01*
X193381826Y-92665204D01*
X193529519Y-92566519D01*
X193548000Y-92538860D01*
X193566481Y-92566519D01*
X193714174Y-92665204D01*
X193878639Y-92697918D01*
X194187361Y-92697918D01*
X194304873Y-92674543D01*
X195181000Y-93550670D01*
X195181001Y-93784953D01*
X195173374Y-93806670D01*
X195181001Y-93875213D01*
X195181001Y-93897970D01*
X195183000Y-93906732D01*
X194860983Y-94228749D01*
X194840232Y-94238714D01*
X194797165Y-94292566D01*
X194781066Y-94308666D01*
X194769231Y-94327496D01*
X194748195Y-94353799D01*
X194738404Y-94304574D01*
X194650423Y-94172901D01*
X194675767Y-94155967D01*
X194785503Y-93991736D01*
X194822098Y-93807762D01*
X194822098Y-93679400D01*
X194122200Y-93679400D01*
X194122200Y-93004502D01*
X194174200Y-93004502D01*
X194174200Y-93627400D01*
X194822098Y-93627400D01*
X194822098Y-93499038D01*
X194785503Y-93315064D01*
X194675767Y-93150833D01*
X194511536Y-93041097D01*
X194327562Y-93004502D01*
X194174200Y-93004502D01*
X194122200Y-93004502D01*
X193968838Y-93004502D01*
X193784864Y-93041097D01*
X193620633Y-93150833D01*
X193598200Y-93184406D01*
X193575767Y-93150833D01*
X193411536Y-93041097D01*
X193227562Y-93004502D01*
X193074200Y-93004502D01*
X193074200Y-93679400D01*
X193022200Y-93679400D01*
X193022200Y-93004502D01*
X192868838Y-93004502D01*
X192684864Y-93041097D01*
X192520633Y-93150833D01*
X192498200Y-93184406D01*
X192475767Y-93150833D01*
X192311536Y-93041097D01*
X192127562Y-93004502D01*
X191974200Y-93004502D01*
X191974200Y-93679400D01*
X191922200Y-93679400D01*
X191922200Y-93004502D01*
X191768838Y-93004502D01*
X191584864Y-93041097D01*
X191534000Y-93075083D01*
X191534000Y-92875270D01*
X191935271Y-92474000D01*
X192534662Y-92474000D01*
X192596481Y-92566519D01*
M02*
