G04 #@! TF.GenerationSoftware,KiCad,Pcbnew,5.99.0-unknown-4135f0c~100~ubuntu18.04.1*
G04 #@! TF.CreationDate,2019-10-31T11:44:12-04:00*
G04 #@! TF.ProjectId,psu,7073752e-6b69-4636-9164-5f7063625858,rev?*
G04 #@! TF.SameCoordinates,Original*
G04 #@! TF.FileFunction,Soldermask,Top*
G04 #@! TF.FilePolarity,Negative*
%FSLAX46Y46*%
G04 Gerber Fmt 4.6, Leading zero omitted, Abs format (unit mm)*
G04 Created by KiCad (PCBNEW 5.99.0-unknown-4135f0c~100~ubuntu18.04.1) date 2019-10-31 11:44:12*
%MOMM*%
%LPD*%
G04 APERTURE LIST*
%ADD10R,1.473200X0.558800*%
%ADD11R,1.041400X0.609600*%
%ADD12O,1.700000X1.700000*%
%ADD13R,1.700000X1.700000*%
G04 APERTURE END LIST*
D10*
X200884950Y-105899998D03*
X200884950Y-107800000D03*
X198649750Y-107800000D03*
X198649750Y-106849999D03*
X198649750Y-105899998D03*
D11*
X195200000Y-99350000D03*
X195200000Y-98399999D03*
X195200000Y-97449998D03*
X192500000Y-97449998D03*
X192500000Y-98399999D03*
X192500000Y-99350000D03*
D10*
X201417600Y-99762499D03*
X201417600Y-101662501D03*
X199182400Y-101662501D03*
X199182400Y-100712500D03*
X199182400Y-99762499D03*
G36*
X200164962Y-102791651D02*
G01*
X200235930Y-102839070D01*
X200283349Y-102910038D01*
X200300000Y-102993750D01*
X200300000Y-103506250D01*
X200283349Y-103589962D01*
X200235930Y-103660930D01*
X200164962Y-103708349D01*
X200081250Y-103725000D01*
X199643750Y-103725000D01*
X199560038Y-103708349D01*
X199489070Y-103660930D01*
X199441651Y-103589962D01*
X199425000Y-103506250D01*
X199425000Y-102993750D01*
X199441651Y-102910038D01*
X199489070Y-102839070D01*
X199560038Y-102791651D01*
X199643750Y-102775000D01*
X200081250Y-102775000D01*
X200164962Y-102791651D01*
G37*
G36*
X201739962Y-102791651D02*
G01*
X201810930Y-102839070D01*
X201858349Y-102910038D01*
X201875000Y-102993750D01*
X201875000Y-103506250D01*
X201858349Y-103589962D01*
X201810930Y-103660930D01*
X201739962Y-103708349D01*
X201656250Y-103725000D01*
X201218750Y-103725000D01*
X201135038Y-103708349D01*
X201064070Y-103660930D01*
X201016651Y-103589962D01*
X201000000Y-103506250D01*
X201000000Y-102993750D01*
X201016651Y-102910038D01*
X201064070Y-102839070D01*
X201135038Y-102791651D01*
X201218750Y-102775000D01*
X201656250Y-102775000D01*
X201739962Y-102791651D01*
G37*
G36*
X203739962Y-101066651D02*
G01*
X203810930Y-101114070D01*
X203858349Y-101185038D01*
X203875000Y-101268750D01*
X203875000Y-101706250D01*
X203858349Y-101789962D01*
X203810930Y-101860930D01*
X203739962Y-101908349D01*
X203656250Y-101925000D01*
X203143750Y-101925000D01*
X203060038Y-101908349D01*
X202989070Y-101860930D01*
X202941651Y-101789962D01*
X202925000Y-101706250D01*
X202925000Y-101268750D01*
X202941651Y-101185038D01*
X202989070Y-101114070D01*
X203060038Y-101066651D01*
X203143750Y-101050000D01*
X203656250Y-101050000D01*
X203739962Y-101066651D01*
G37*
G36*
X203739962Y-99491651D02*
G01*
X203810930Y-99539070D01*
X203858349Y-99610038D01*
X203875000Y-99693750D01*
X203875000Y-100131250D01*
X203858349Y-100214962D01*
X203810930Y-100285930D01*
X203739962Y-100333349D01*
X203656250Y-100350000D01*
X203143750Y-100350000D01*
X203060038Y-100333349D01*
X202989070Y-100285930D01*
X202941651Y-100214962D01*
X202925000Y-100131250D01*
X202925000Y-99693750D01*
X202941651Y-99610038D01*
X202989070Y-99539070D01*
X203060038Y-99491651D01*
X203143750Y-99475000D01*
X203656250Y-99475000D01*
X203739962Y-99491651D01*
G37*
G36*
X203057312Y-107441650D02*
G01*
X203128280Y-107489069D01*
X203175699Y-107560037D01*
X203192350Y-107643749D01*
X203192350Y-108081249D01*
X203175699Y-108164961D01*
X203128280Y-108235929D01*
X203057312Y-108283348D01*
X202973600Y-108299999D01*
X202461100Y-108299999D01*
X202377388Y-108283348D01*
X202306420Y-108235929D01*
X202259001Y-108164961D01*
X202242350Y-108081249D01*
X202242350Y-107643749D01*
X202259001Y-107560037D01*
X202306420Y-107489069D01*
X202377388Y-107441650D01*
X202461100Y-107424999D01*
X202973600Y-107424999D01*
X203057312Y-107441650D01*
G37*
G36*
X203057312Y-109016650D02*
G01*
X203128280Y-109064069D01*
X203175699Y-109135037D01*
X203192350Y-109218749D01*
X203192350Y-109656249D01*
X203175699Y-109739961D01*
X203128280Y-109810929D01*
X203057312Y-109858348D01*
X202973600Y-109874999D01*
X202461100Y-109874999D01*
X202377388Y-109858348D01*
X202306420Y-109810929D01*
X202259001Y-109739961D01*
X202242350Y-109656249D01*
X202242350Y-109218749D01*
X202259001Y-109135037D01*
X202306420Y-109064069D01*
X202377388Y-109016650D01*
X202461100Y-108999999D01*
X202973600Y-108999999D01*
X203057312Y-109016650D01*
G37*
G36*
X197139962Y-100291651D02*
G01*
X197210930Y-100339070D01*
X197258349Y-100410038D01*
X197275000Y-100493750D01*
X197275000Y-100931250D01*
X197258349Y-101014962D01*
X197210930Y-101085930D01*
X197139962Y-101133349D01*
X197056250Y-101150000D01*
X196543750Y-101150000D01*
X196460038Y-101133349D01*
X196389070Y-101085930D01*
X196341651Y-101014962D01*
X196325000Y-100931250D01*
X196325000Y-100493750D01*
X196341651Y-100410038D01*
X196389070Y-100339070D01*
X196460038Y-100291651D01*
X196543750Y-100275000D01*
X197056250Y-100275000D01*
X197139962Y-100291651D01*
G37*
G36*
X197139962Y-101866651D02*
G01*
X197210930Y-101914070D01*
X197258349Y-101985038D01*
X197275000Y-102068750D01*
X197275000Y-102506250D01*
X197258349Y-102589962D01*
X197210930Y-102660930D01*
X197139962Y-102708349D01*
X197056250Y-102725000D01*
X196543750Y-102725000D01*
X196460038Y-102708349D01*
X196389070Y-102660930D01*
X196341651Y-102589962D01*
X196325000Y-102506250D01*
X196325000Y-102068750D01*
X196341651Y-101985038D01*
X196389070Y-101914070D01*
X196460038Y-101866651D01*
X196543750Y-101850000D01*
X197056250Y-101850000D01*
X197139962Y-101866651D01*
G37*
G36*
X190839962Y-97541650D02*
G01*
X190910930Y-97589069D01*
X190958349Y-97660037D01*
X190975000Y-97743749D01*
X190975000Y-98181249D01*
X190958349Y-98264961D01*
X190910930Y-98335929D01*
X190839962Y-98383348D01*
X190756250Y-98399999D01*
X190243750Y-98399999D01*
X190160038Y-98383348D01*
X190089070Y-98335929D01*
X190041651Y-98264961D01*
X190025000Y-98181249D01*
X190025000Y-97743749D01*
X190041651Y-97660037D01*
X190089070Y-97589069D01*
X190160038Y-97541650D01*
X190243750Y-97524999D01*
X190756250Y-97524999D01*
X190839962Y-97541650D01*
G37*
G36*
X190839962Y-99116650D02*
G01*
X190910930Y-99164069D01*
X190958349Y-99235037D01*
X190975000Y-99318749D01*
X190975000Y-99756249D01*
X190958349Y-99839961D01*
X190910930Y-99910929D01*
X190839962Y-99958348D01*
X190756250Y-99974999D01*
X190243750Y-99974999D01*
X190160038Y-99958348D01*
X190089070Y-99910929D01*
X190041651Y-99839961D01*
X190025000Y-99756249D01*
X190025000Y-99318749D01*
X190041651Y-99235037D01*
X190089070Y-99164069D01*
X190160038Y-99116650D01*
X190243750Y-99099999D01*
X190756250Y-99099999D01*
X190839962Y-99116650D01*
G37*
G36*
X203489962Y-97991651D02*
G01*
X203560930Y-98039070D01*
X203608349Y-98110038D01*
X203625000Y-98193750D01*
X203625000Y-98706250D01*
X203608349Y-98789962D01*
X203560930Y-98860930D01*
X203489962Y-98908349D01*
X203406250Y-98925000D01*
X202968750Y-98925000D01*
X202885038Y-98908349D01*
X202814070Y-98860930D01*
X202766651Y-98789962D01*
X202750000Y-98706250D01*
X202750000Y-98193750D01*
X202766651Y-98110038D01*
X202814070Y-98039070D01*
X202885038Y-97991651D01*
X202968750Y-97975000D01*
X203406250Y-97975000D01*
X203489962Y-97991651D01*
G37*
G36*
X201914962Y-97991651D02*
G01*
X201985930Y-98039070D01*
X202033349Y-98110038D01*
X202050000Y-98193750D01*
X202050000Y-98706250D01*
X202033349Y-98789962D01*
X201985930Y-98860930D01*
X201914962Y-98908349D01*
X201831250Y-98925000D01*
X201393750Y-98925000D01*
X201310038Y-98908349D01*
X201239070Y-98860930D01*
X201191651Y-98789962D01*
X201175000Y-98706250D01*
X201175000Y-98193750D01*
X201191651Y-98110038D01*
X201239070Y-98039070D01*
X201310038Y-97991651D01*
X201393750Y-97975000D01*
X201831250Y-97975000D01*
X201914962Y-97991651D01*
G37*
G36*
X203464962Y-105441651D02*
G01*
X203535930Y-105489070D01*
X203583349Y-105560038D01*
X203600000Y-105643750D01*
X203600000Y-106156250D01*
X203583349Y-106239962D01*
X203535930Y-106310930D01*
X203464962Y-106358349D01*
X203381250Y-106375000D01*
X202943750Y-106375000D01*
X202860038Y-106358349D01*
X202789070Y-106310930D01*
X202741651Y-106239962D01*
X202725000Y-106156250D01*
X202725000Y-105643750D01*
X202741651Y-105560038D01*
X202789070Y-105489070D01*
X202860038Y-105441651D01*
X202943750Y-105425000D01*
X203381250Y-105425000D01*
X203464962Y-105441651D01*
G37*
G36*
X205039962Y-105441651D02*
G01*
X205110930Y-105489070D01*
X205158349Y-105560038D01*
X205175000Y-105643750D01*
X205175000Y-106156250D01*
X205158349Y-106239962D01*
X205110930Y-106310930D01*
X205039962Y-106358349D01*
X204956250Y-106375000D01*
X204518750Y-106375000D01*
X204435038Y-106358349D01*
X204364070Y-106310930D01*
X204316651Y-106239962D01*
X204300000Y-106156250D01*
X204300000Y-105643750D01*
X204316651Y-105560038D01*
X204364070Y-105489070D01*
X204435038Y-105441651D01*
X204518750Y-105425000D01*
X204956250Y-105425000D01*
X205039962Y-105441651D01*
G37*
G36*
X197007312Y-105441650D02*
G01*
X197078280Y-105489069D01*
X197125699Y-105560037D01*
X197142350Y-105643749D01*
X197142350Y-106156249D01*
X197125699Y-106239961D01*
X197078280Y-106310929D01*
X197007312Y-106358348D01*
X196923600Y-106374999D01*
X196486100Y-106374999D01*
X196402388Y-106358348D01*
X196331420Y-106310929D01*
X196284001Y-106239961D01*
X196267350Y-106156249D01*
X196267350Y-105643749D01*
X196284001Y-105560037D01*
X196331420Y-105489069D01*
X196402388Y-105441650D01*
X196486100Y-105424999D01*
X196923600Y-105424999D01*
X197007312Y-105441650D01*
G37*
G36*
X195432312Y-105441650D02*
G01*
X195503280Y-105489069D01*
X195550699Y-105560037D01*
X195567350Y-105643749D01*
X195567350Y-106156249D01*
X195550699Y-106239961D01*
X195503280Y-106310929D01*
X195432312Y-106358348D01*
X195348600Y-106374999D01*
X194911100Y-106374999D01*
X194827388Y-106358348D01*
X194756420Y-106310929D01*
X194709001Y-106239961D01*
X194692350Y-106156249D01*
X194692350Y-105643749D01*
X194709001Y-105560037D01*
X194756420Y-105489069D01*
X194827388Y-105441650D01*
X194911100Y-105424999D01*
X195348600Y-105424999D01*
X195432312Y-105441650D01*
G37*
G36*
X198239962Y-96966650D02*
G01*
X198310930Y-97014069D01*
X198358349Y-97085037D01*
X198375000Y-97168749D01*
X198375000Y-97606249D01*
X198358349Y-97689961D01*
X198310930Y-97760929D01*
X198239962Y-97808348D01*
X198156250Y-97824999D01*
X197643750Y-97824999D01*
X197560038Y-97808348D01*
X197489070Y-97760929D01*
X197441651Y-97689961D01*
X197425000Y-97606249D01*
X197425000Y-97168749D01*
X197441651Y-97085037D01*
X197489070Y-97014069D01*
X197560038Y-96966650D01*
X197643750Y-96949999D01*
X198156250Y-96949999D01*
X198239962Y-96966650D01*
G37*
G36*
X198239962Y-95391650D02*
G01*
X198310930Y-95439069D01*
X198358349Y-95510037D01*
X198375000Y-95593749D01*
X198375000Y-96031249D01*
X198358349Y-96114961D01*
X198310930Y-96185929D01*
X198239962Y-96233348D01*
X198156250Y-96249999D01*
X197643750Y-96249999D01*
X197560038Y-96233348D01*
X197489070Y-96185929D01*
X197441651Y-96114961D01*
X197425000Y-96031249D01*
X197425000Y-95593749D01*
X197441651Y-95510037D01*
X197489070Y-95439069D01*
X197560038Y-95391650D01*
X197643750Y-95374999D01*
X198156250Y-95374999D01*
X198239962Y-95391650D01*
G37*
D12*
X209140000Y-102580000D03*
X206600000Y-102580000D03*
X209140000Y-100040000D03*
X206600000Y-100040000D03*
X209140000Y-97500000D03*
D13*
X206600000Y-97500000D03*
M02*
