G04 #@! TF.GenerationSoftware,KiCad,Pcbnew,5.99.0-unknown-4135f0c~100~ubuntu18.04.1*
G04 #@! TF.CreationDate,2019-10-31T11:44:12-04:00*
G04 #@! TF.ProjectId,psu,7073752e-6b69-4636-9164-5f7063625858,rev?*
G04 #@! TF.SameCoordinates,Original*
G04 #@! TF.FileFunction,Legend,Top*
G04 #@! TF.FilePolarity,Positive*
%FSLAX46Y46*%
G04 Gerber Fmt 4.6, Leading zero omitted, Abs format (unit mm)*
G04 Created by KiCad (PCBNEW 5.99.0-unknown-4135f0c~100~ubuntu18.04.1) date 2019-10-31 11:44:12*
%MOMM*%
%LPD*%
G04 APERTURE LIST*
%ADD10C,0.100000*%
%ADD11C,0.200000*%
%ADD12C,0.120000*%
%ADD13C,0.152400*%
G04 APERTURE END LIST*
D10*
X205230000Y-95181428D02*
X205372857Y-95581428D01*
X205515714Y-95181428D01*
X206058571Y-95581428D02*
X205715714Y-95581428D01*
X205887142Y-95581428D02*
X205887142Y-94981428D01*
X205830000Y-95067142D01*
X205772857Y-95124285D01*
X205715714Y-95152857D01*
X206430000Y-94981428D02*
X206487142Y-94981428D01*
X206544285Y-95010000D01*
X206572857Y-95038571D01*
X206601428Y-95095714D01*
X206630000Y-95210000D01*
X206630000Y-95352857D01*
X206601428Y-95467142D01*
X206572857Y-95524285D01*
X206544285Y-95552857D01*
X206487142Y-95581428D01*
X206430000Y-95581428D01*
X206372857Y-95552857D01*
X206344285Y-95524285D01*
X206315714Y-95467142D01*
X206287142Y-95352857D01*
X206287142Y-95210000D01*
X206315714Y-95095714D01*
X206344285Y-95038571D01*
X206372857Y-95010000D01*
X206430000Y-94981428D01*
X207001428Y-94981428D02*
X207058571Y-94981428D01*
X207115714Y-95010000D01*
X207144285Y-95038571D01*
X207172857Y-95095714D01*
X207201428Y-95210000D01*
X207201428Y-95352857D01*
X207172857Y-95467142D01*
X207144285Y-95524285D01*
X207115714Y-95552857D01*
X207058571Y-95581428D01*
X207001428Y-95581428D01*
X206944285Y-95552857D01*
X206915714Y-95524285D01*
X206887142Y-95467142D01*
X206858571Y-95352857D01*
X206858571Y-95210000D01*
X206887142Y-95095714D01*
X206915714Y-95038571D01*
X206944285Y-95010000D01*
X207001428Y-94981428D01*
D11*
X203444761Y-92829761D02*
X203587619Y-92877380D01*
X203825714Y-92877380D01*
X203920952Y-92829761D01*
X203968571Y-92782142D01*
X204016190Y-92686904D01*
X204016190Y-92591666D01*
X203968571Y-92496428D01*
X203920952Y-92448809D01*
X203825714Y-92401190D01*
X203635238Y-92353571D01*
X203540000Y-92305952D01*
X203492380Y-92258333D01*
X203444761Y-92163095D01*
X203444761Y-92067857D01*
X203492380Y-91972619D01*
X203540000Y-91925000D01*
X203635238Y-91877380D01*
X203873333Y-91877380D01*
X204016190Y-91925000D01*
X204444761Y-92877380D02*
X204444761Y-92210714D01*
X204444761Y-91877380D02*
X204397142Y-91925000D01*
X204444761Y-91972619D01*
X204492380Y-91925000D01*
X204444761Y-91877380D01*
X204444761Y-91972619D01*
X204920952Y-92877380D02*
X204920952Y-91877380D01*
X205301904Y-91877380D01*
X205397142Y-91925000D01*
X205444761Y-91972619D01*
X205492380Y-92067857D01*
X205492380Y-92210714D01*
X205444761Y-92305952D01*
X205397142Y-92353571D01*
X205301904Y-92401190D01*
X204920952Y-92401190D01*
X205920952Y-92877380D02*
X205920952Y-91877380D01*
X206254285Y-92591666D01*
X206587619Y-91877380D01*
X206587619Y-92877380D01*
X203778095Y-94487380D02*
X203778095Y-93487380D01*
X204159047Y-93487380D01*
X204254285Y-93535000D01*
X204301904Y-93582619D01*
X204349523Y-93677857D01*
X204349523Y-93820714D01*
X204301904Y-93915952D01*
X204254285Y-93963571D01*
X204159047Y-94011190D01*
X203778095Y-94011190D01*
X204730476Y-94439761D02*
X204873333Y-94487380D01*
X205111428Y-94487380D01*
X205206666Y-94439761D01*
X205254285Y-94392142D01*
X205301904Y-94296904D01*
X205301904Y-94201666D01*
X205254285Y-94106428D01*
X205206666Y-94058809D01*
X205111428Y-94011190D01*
X204920952Y-93963571D01*
X204825714Y-93915952D01*
X204778095Y-93868333D01*
X204730476Y-93773095D01*
X204730476Y-93677857D01*
X204778095Y-93582619D01*
X204825714Y-93535000D01*
X204920952Y-93487380D01*
X205159047Y-93487380D01*
X205301904Y-93535000D01*
X205730476Y-93487380D02*
X205730476Y-94296904D01*
X205778095Y-94392142D01*
X205825714Y-94439761D01*
X205920952Y-94487380D01*
X206111428Y-94487380D01*
X206206666Y-94439761D01*
X206254285Y-94392142D01*
X206301904Y-94296904D01*
X206301904Y-93487380D01*
D12*
X203010749Y-89407366D02*
G75*
G02X196980000Y-89410000I-3010749J-10592634D01*
G01*
D13*
X200770650Y-107187860D02*
X200770650Y-106512138D01*
X199317350Y-105249999D02*
X197967350Y-105249999D01*
X194680000Y-99959999D02*
X195676212Y-99959999D01*
X201303300Y-101050361D02*
X201303300Y-100374639D01*
X199890000Y-99062500D02*
X198490000Y-99062500D01*
D12*
X200487221Y-103760000D02*
X200812779Y-103760000D01*
X200487221Y-102740000D02*
X200812779Y-102740000D01*
X203910000Y-100862779D02*
X203910000Y-100537221D01*
X202890000Y-100862779D02*
X202890000Y-100537221D01*
X202207350Y-108812778D02*
X202207350Y-108487220D01*
X203227350Y-108812778D02*
X203227350Y-108487220D01*
X196290000Y-101662779D02*
X196290000Y-101337221D01*
X197310000Y-101662779D02*
X197310000Y-101337221D01*
X189990000Y-98912778D02*
X189990000Y-98587220D01*
X191010000Y-98912778D02*
X191010000Y-98587220D01*
X202237221Y-97940000D02*
X202562779Y-97940000D01*
X202237221Y-98960000D02*
X202562779Y-98960000D01*
X204112779Y-106410000D02*
X203787221Y-106410000D01*
X204112779Y-105390000D02*
X203787221Y-105390000D01*
X195754571Y-105389999D02*
X196080129Y-105389999D01*
X195754571Y-106409999D02*
X196080129Y-106409999D01*
X198410000Y-96437220D02*
X198410000Y-96762778D01*
X197390000Y-96437220D02*
X197390000Y-96762778D01*
X205270000Y-103910000D02*
X210470000Y-103910000D01*
X205270000Y-98770000D02*
X205270000Y-103910000D01*
X210470000Y-96170000D02*
X210470000Y-103910000D01*
X205270000Y-98770000D02*
X207870000Y-98770000D01*
X207870000Y-98770000D02*
X207870000Y-96170000D01*
X207870000Y-96170000D02*
X210470000Y-96170000D01*
X205270000Y-97500000D02*
X205270000Y-96170000D01*
X205270000Y-96170000D02*
X206600000Y-96170000D01*
M02*
