M48
; DRILL file {KiCad (5.99.0-11526-gd613292b67)} date Mon Jul 26 20:03:20 2021
; FORMAT={-:-/ absolute / inch / decimal}
; #@! TF.CreationDate,2021-07-26T20:03:20-04:00
; #@! TF.GenerationSoftware,Kicad,Pcbnew,(5.99.0-11526-gd613292b67)
; #@! TF.FileFunction,MixedPlating,1,2
FMAT,2
INCH
; #@! TA.AperFunction,Plated,PTH,ViaDrill
T1C0.0118
; #@! TA.AperFunction,Plated,PTH,ViaDrill
T2C0.0157
; #@! TA.AperFunction,Plated,PTH,ComponentDrill
T3C0.0394
%
G90
G05
T1
X7.5361Y-4.0458
X7.5915Y-3.876
X7.6165Y-3.9508
X7.6542Y-4.1029
X7.6693Y-3.9503
X7.6866Y-4.2079
X7.7441Y-4.3002
X7.7638Y-4.3543
X7.7943Y-4.2598
X7.7982Y-4.1403
X7.7988Y-3.9496
X7.8075Y-3.8945
X7.9213Y-4.3031
X7.9469Y-4.3031
X7.9948Y-4.1245
X8.0512Y-3.7768
X8.1024Y-3.8913
X8.1567Y-3.7984
T2
X7.7402Y-3.8465
T3
X8.1657Y-3.8606
X8.1657Y-3.9606
X8.1657Y-4.0606
X8.2657Y-3.8606
X8.2657Y-3.9606
X8.2657Y-4.0606
T0
M30
